<?xml version="1.0" encoding="UTF-8"?>
<!DOCTYPE X3D PUBLIC "ISO//Web3D//DTD X3D 3.0//EN" "http://www.web3d.org/specifications/x3d-3.0.dtd">
<X3D version="3.0" profile="Immersive" xmlns:xsd="http://www.w3.org/2001/XMLSchema-instance" xsd:noNamespaceSchemaLocation="http://www.web3d.org/specifications/x3d-3.0.xsd">
	<head>
		<meta name="filename" content="01-1 材.x3d" />
		<meta name="created" content="2025-12-28 15:23:49" />
		<meta name="generator" content="Blender 4.2.2 LTS" />
		<meta name="translator" content="Web3D X3D/VRML2 format v2.5.1" />
	</head>
	<Scene>
		<NavigationInfo headlight="true"
		                visibilityLimit="0.0"
		                type='"EXAMINE", "ANY"'
		                avatarSize="0.25, 1.75, 0.75"
		                />
		<Background DEF="WO_World"
		            groundColor="0.051 0.051 0.051"
		            skyColor="0.051 0.051 0.051"
		            />
		<Transform DEF="SketchUp_TRANSFORM"
		           translation="0.000000 0.000000 0.000000"
		           scale="0.025400 0.025400 0.025400"
		           rotation="-1.000000 0.000000 0.000000 1.570796"
		           >
			<Transform DEF="group_0_TRANSFORM"
			           translation="26.705511 0.000000 0.000000"
			           scale="0.666600 0.666600 0.666600"
			           rotation="0.000000 1.000000 0.000000 0.000000"
			           >
				<Transform DEF="group_0_ifs_TRANSFORM"
				           translation="0.000000 0.000000 0.000000"
				           scale="1.000000 1.000000 1.000000"
				           rotation="0.000000 1.000000 0.000000 0.000000"
				           >
					<Group DEF="group_ME_ID3">
						<Shape>
							<Appearance>
								<Material DEF="MA_material"
								          diffuseColor="1.000 1.000 1.000"
								          specularColor="0.401 0.401 0.401"
								          emissiveColor="0.000 0.000 0.000"
								          ambientIntensity="0.000"
								          shininess="0.500"
								          transparency="0.000"
								          />
							</Appearance>
							<IndexedFaceSet solid="false"
							                coordIndex="0 1 2 -1 1 0 3 -1 4 5 6 -1 5 4 7 -1 8 9 10 -1 9 8 11 -1 11 8 6 -1 11 6 5 -1 12 13 14 -1 13 12 15 -1 16 17 18 -1 17 16 19 -1 20 21 22 -1 21 20 23 -1 23 20 18 -1 23 18 17 -1 24 25 26 -1 25 24 27 -1 28 29 30 -1 29 28 31 -1 32 33 34 -1 33 32 35 -1 36 37 38 -1 37 36 39 -1 40 41 42 -1 41 40 43 -1 44 45 46 -1 45 44 47 -1 "
							                >
								<Coordinate DEF="coords_ME_ID3"
								            point="3.937008 0.000000 5.905512 2.755905 39.370079 5.905512 2.755905 0.000000 5.905512 3.937008 39.370079 5.905512 2.755905 0.000000 8.267716 1.181102 0.000000 5.905512 2.755905 0.000000 5.905512 1.181102 0.000000 8.267716 3.937008 0.000000 5.905512 0.000000 0.000000 0.000000 3.937008 0.000000 0.000000 0.000000 0.000000 5.905512 3.937008 39.370079 0.000000 3.937008 0.000000 5.905512 3.937008 0.000000 0.000000 3.937008 39.370079 5.905512 1.181102 39.370079 8.267716 2.755905 39.370079 5.905512 1.181102 39.370079 5.905512 2.755905 39.370079 8.267716 0.000000 39.370079 5.905512 3.937008 39.370079 0.000000 0.000000 39.370079 0.000000 3.937008 39.370079 5.905512 2.755905 39.370079 5.905512 2.755905 0.000000 8.267716 2.755905 0.000000 5.905512 2.755905 39.370079 8.267716 2.755905 0.000000 8.267716 1.181102 39.370079 8.267716 1.181102 0.000000 8.267716 2.755905 39.370079 8.267716 1.181102 39.370079 8.267716 1.181102 0.000000 5.905512 1.181102 0.000000 8.267716 1.181102 39.370079 5.905512 1.181102 0.000000 5.905512 0.000000 39.370079 5.905512 0.000000 0.000000 5.905512 1.181102 39.370079 5.905512 0.000000 39.370079 5.905512 0.000000 0.000000 0.000000 0.000000 0.000000 5.905512 0.000000 39.370079 0.000000 3.937008 39.370079 0.000000 0.000000 0.000000 0.000000 0.000000 39.370079 0.000000 3.937008 0.000000 0.000000 "
								            />
							</IndexedFaceSet>
						</Shape>
					</Group>
				</Transform>
			</Transform>
			<Transform DEF="group_1_TRANSFORM"
			           translation="11.482677 0.000000 0.000000"
			           scale="0.833300 0.833300 0.833300"
			           rotation="0.000000 1.000000 0.000000 0.000000"
			           >
				<Transform DEF="group_1_ifs_TRANSFORM"
				           translation="0.000000 0.000000 0.000000"
				           scale="1.000000 1.000000 1.000000"
				           rotation="0.000000 1.000000 0.000000 0.000000"
				           >
					<Group DEF="group_ME_ID12">
						<Shape>
							<Appearance>
								<Material USE="MA_material" />
							</Appearance>
							<IndexedFaceSet solid="false"
							                coordIndex="0 1 2 -1 1 0 3 -1 4 5 6 -1 5 4 7 -1 8 9 10 -1 9 8 11 -1 11 8 6 -1 11 6 5 -1 12 13 14 -1 13 12 15 -1 16 17 18 -1 17 16 19 -1 20 21 22 -1 21 20 23 -1 23 20 18 -1 23 18 17 -1 24 25 26 -1 25 24 27 -1 28 29 30 -1 29 28 31 -1 32 33 34 -1 33 32 35 -1 36 37 38 -1 37 36 39 -1 40 41 42 -1 41 40 43 -1 44 45 46 -1 45 44 47 -1 "
							                >
								<Coordinate DEF="coords_ME_ID12"
								            point="3.937008 0.000000 5.905512 2.755905 39.370079 5.905512 2.755905 0.000000 5.905512 3.937008 39.370079 5.905512 2.755905 0.000000 8.267716 1.181102 0.000000 5.905512 2.755905 0.000000 5.905512 1.181102 0.000000 8.267716 3.937008 0.000000 5.905512 0.000000 0.000000 0.000000 3.937008 0.000000 0.000000 0.000000 0.000000 5.905512 3.937008 39.370079 0.000000 3.937008 0.000000 5.905512 3.937008 0.000000 0.000000 3.937008 39.370079 5.905512 1.181102 39.370079 8.267716 2.755905 39.370079 5.905512 1.181102 39.370079 5.905512 2.755905 39.370079 8.267716 0.000000 39.370079 5.905512 3.937008 39.370079 0.000000 0.000000 39.370079 0.000000 3.937008 39.370079 5.905512 2.755905 39.370079 5.905512 2.755905 0.000000 8.267716 2.755905 0.000000 5.905512 2.755905 39.370079 8.267716 2.755905 0.000000 8.267716 1.181102 39.370079 8.267716 1.181102 0.000000 8.267716 2.755905 39.370079 8.267716 1.181102 39.370079 8.267716 1.181102 0.000000 5.905512 1.181102 0.000000 8.267716 1.181102 39.370079 5.905512 1.181102 0.000000 5.905512 0.000000 39.370079 5.905512 0.000000 0.000000 5.905512 1.181102 39.370079 5.905512 0.000000 39.370079 5.905512 0.000000 0.000000 0.000000 0.000000 0.000000 5.905512 0.000000 39.370079 0.000000 3.937008 39.370079 0.000000 0.000000 0.000000 0.000000 0.000000 39.370079 0.000000 3.937008 0.000000 0.000000 "
								            />
							</IndexedFaceSet>
						</Shape>
					</Group>
				</Transform>
			</Transform>
			<Transform DEF="group_2_TRANSFORM"
			           translation="5.905512 0.000000 0.000000"
			           scale="0.916600 0.916600 0.916600"
			           rotation="0.000000 1.000000 0.000000 0.000000"
			           >
				<Transform DEF="group_2_ifs_TRANSFORM"
				           translation="0.000000 0.000000 0.000000"
				           scale="1.000000 1.000000 1.000000"
				           rotation="0.000000 1.000000 0.000000 0.000000"
				           >
					<Group DEF="group_ME_ID19">
						<Shape>
							<Appearance>
								<Material USE="MA_material" />
							</Appearance>
							<IndexedFaceSet solid="false"
							                coordIndex="0 1 2 -1 1 0 3 -1 4 5 6 -1 5 4 7 -1 8 9 10 -1 9 8 11 -1 11 8 6 -1 11 6 5 -1 12 13 14 -1 13 12 15 -1 16 17 18 -1 17 16 19 -1 20 21 22 -1 21 20 23 -1 23 20 18 -1 23 18 17 -1 24 25 26 -1 25 24 27 -1 28 29 30 -1 29 28 31 -1 32 33 34 -1 33 32 35 -1 36 37 38 -1 37 36 39 -1 40 41 42 -1 41 40 43 -1 44 45 46 -1 45 44 47 -1 "
							                >
								<Coordinate DEF="coords_ME_ID19"
								            point="3.937008 0.000000 5.905512 2.755905 39.370079 5.905512 2.755905 0.000000 5.905512 3.937008 39.370079 5.905512 2.755905 0.000000 8.267716 1.181102 0.000000 5.905512 2.755905 0.000000 5.905512 1.181102 0.000000 8.267716 3.937008 0.000000 5.905512 0.000000 0.000000 0.000000 3.937008 0.000000 0.000000 0.000000 0.000000 5.905512 3.937008 39.370079 0.000000 3.937008 0.000000 5.905512 3.937008 0.000000 0.000000 3.937008 39.370079 5.905512 1.181102 39.370079 8.267716 2.755905 39.370079 5.905512 1.181102 39.370079 5.905512 2.755905 39.370079 8.267716 0.000000 39.370079 5.905512 3.937008 39.370079 0.000000 0.000000 39.370079 0.000000 3.937008 39.370079 5.905512 2.755905 39.370079 5.905512 2.755905 0.000000 8.267716 2.755905 0.000000 5.905512 2.755905 39.370079 8.267716 2.755905 0.000000 8.267716 1.181102 39.370079 8.267716 1.181102 0.000000 8.267716 2.755905 39.370079 8.267716 1.181102 39.370079 8.267716 1.181102 0.000000 5.905512 1.181102 0.000000 8.267716 1.181102 39.370079 5.905512 1.181102 0.000000 5.905512 0.000000 39.370079 5.905512 0.000000 0.000000 5.905512 1.181102 39.370079 5.905512 0.000000 39.370079 5.905512 0.000000 0.000000 0.000000 0.000000 0.000000 5.905512 0.000000 39.370079 0.000000 3.937008 39.370079 0.000000 0.000000 0.000000 0.000000 0.000000 39.370079 0.000000 3.937008 0.000000 0.000000 "
								            />
							</IndexedFaceSet>
						</Shape>
					</Group>
				</Transform>
			</Transform>
			<Transform DEF="group_3_TRANSFORM"
			           translation="35.563385 0.000000 0.000000"
			           scale="0.500000 0.500000 0.500000"
			           rotation="0.000000 1.000000 0.000000 0.000000"
			           >
				<Transform DEF="group_3_ifs_TRANSFORM"
				           translation="0.000008 0.000000 0.000000"
				           scale="1.000000 1.000000 1.000000"
				           rotation="0.000000 1.000000 0.000000 0.000000"
				           >
					<Group DEF="group_ME_ID26">
						<Shape>
							<Appearance>
								<Material USE="MA_material" />
							</Appearance>
							<IndexedFaceSet solid="false"
							                coordIndex="0 1 2 -1 1 0 3 -1 4 5 6 -1 5 4 7 -1 8 9 10 -1 9 8 11 -1 11 8 6 -1 11 6 5 -1 12 13 14 -1 13 12 15 -1 16 17 18 -1 17 16 19 -1 20 21 22 -1 21 20 23 -1 23 20 18 -1 23 18 17 -1 24 25 26 -1 25 24 27 -1 28 29 30 -1 29 28 31 -1 32 33 34 -1 33 32 35 -1 36 37 38 -1 37 36 39 -1 40 41 42 -1 41 40 43 -1 44 45 46 -1 45 44 47 -1 "
							                >
								<Coordinate DEF="coords_ME_ID26"
								            point="3.937008 0.000000 5.905512 2.755905 39.370079 5.905512 2.755905 0.000000 5.905512 3.937008 39.370079 5.905512 2.755905 0.000000 8.267716 1.181102 0.000000 5.905512 2.755905 0.000000 5.905512 1.181102 0.000000 8.267716 3.937008 0.000000 5.905512 0.000000 0.000000 0.000000 3.937008 0.000000 0.000000 0.000000 0.000000 5.905512 3.937008 39.370079 0.000000 3.937008 0.000000 5.905512 3.937008 0.000000 0.000000 3.937008 39.370079 5.905512 1.181102 39.370079 8.267716 2.755905 39.370079 5.905512 1.181102 39.370079 5.905512 2.755905 39.370079 8.267716 0.000000 39.370079 5.905512 3.937008 39.370079 0.000000 0.000000 39.370079 0.000000 3.937008 39.370079 5.905512 2.755905 39.370079 5.905512 2.755905 0.000000 8.267716 2.755905 0.000000 5.905512 2.755905 39.370079 8.267716 2.755905 0.000000 8.267716 1.181102 39.370079 8.267716 1.181102 0.000000 8.267716 2.755905 39.370079 8.267716 1.181102 39.370079 8.267716 1.181102 0.000000 5.905512 1.181102 0.000000 8.267716 1.181102 39.370079 5.905512 1.181102 0.000000 5.905512 0.000000 39.370079 5.905512 0.000000 0.000000 5.905512 1.181102 39.370079 5.905512 0.000000 39.370079 5.905512 0.000000 0.000000 0.000000 0.000000 0.000000 5.905512 0.000000 39.370079 0.000000 3.937008 39.370079 0.000000 0.000000 0.000000 0.000000 0.000000 39.370079 0.000000 3.937008 0.000000 0.000000 "
								            />
							</IndexedFaceSet>
						</Shape>
					</Group>
				</Transform>
			</Transform>
			<Transform DEF="group_4_TRANSFORM"
			           translation="31.298426 0.000000 0.000000"
			           scale="0.583300 0.583300 0.583300"
			           rotation="0.000000 1.000000 0.000000 0.000000"
			           >
				<Transform DEF="group_4_ifs_TRANSFORM"
				           translation="0.000004 0.000000 0.000000"
				           scale="1.000000 1.000000 1.000000"
				           rotation="0.000000 1.000000 0.000000 0.000000"
				           >
					<Group DEF="group_ME_ID33">
						<Shape>
							<Appearance>
								<Material USE="MA_material" />
							</Appearance>
							<IndexedFaceSet solid="false"
							                coordIndex="0 1 2 -1 1 0 3 -1 4 5 6 -1 5 4 7 -1 8 9 10 -1 9 8 11 -1 11 8 6 -1 11 6 5 -1 12 13 14 -1 13 12 15 -1 16 17 18 -1 17 16 19 -1 20 21 22 -1 21 20 23 -1 23 20 18 -1 23 18 17 -1 24 25 26 -1 25 24 27 -1 28 29 30 -1 29 28 31 -1 32 33 34 -1 33 32 35 -1 36 37 38 -1 37 36 39 -1 40 41 42 -1 41 40 43 -1 44 45 46 -1 45 44 47 -1 "
							                >
								<Coordinate DEF="coords_ME_ID33"
								            point="3.937008 0.000000 5.905512 2.755905 39.370079 5.905512 2.755905 0.000000 5.905512 3.937008 39.370079 5.905512 2.755905 0.000000 8.267716 1.181102 0.000000 5.905512 2.755905 0.000000 5.905512 1.181102 0.000000 8.267716 3.937008 0.000000 5.905512 0.000000 0.000000 0.000000 3.937008 0.000000 0.000000 0.000000 0.000000 5.905512 3.937008 39.370079 0.000000 3.937008 0.000000 5.905512 3.937008 0.000000 0.000000 3.937008 39.370079 5.905512 1.181102 39.370079 8.267716 2.755905 39.370079 5.905512 1.181102 39.370079 5.905512 2.755905 39.370079 8.267716 0.000000 39.370079 5.905512 3.937008 39.370079 0.000000 0.000000 39.370079 0.000000 3.937008 39.370079 5.905512 2.755905 39.370079 5.905512 2.755905 0.000000 8.267716 2.755905 0.000000 5.905512 2.755905 39.370079 8.267716 2.755905 0.000000 8.267716 1.181102 39.370079 8.267716 1.181102 0.000000 8.267716 2.755905 39.370079 8.267716 1.181102 39.370079 8.267716 1.181102 0.000000 5.905512 1.181102 0.000000 8.267716 1.181102 39.370079 5.905512 1.181102 0.000000 5.905512 0.000000 39.370079 5.905512 0.000000 0.000000 5.905512 1.181102 39.370079 5.905512 0.000000 39.370079 5.905512 0.000000 0.000000 0.000000 0.000000 0.000000 5.905512 0.000000 39.370079 0.000000 3.937008 39.370079 0.000000 0.000000 0.000000 0.000000 0.000000 39.370079 0.000000 3.937008 0.000000 0.000000 "
								            />
							</IndexedFaceSet>
						</Shape>
					</Group>
				</Transform>
			</Transform>
			<Transform DEF="group_5_TRANSFORM"
			           translation="16.731890 0.000000 0.000000"
			           scale="0.800000 0.800000 0.800000"
			           rotation="0.000000 1.000000 0.000000 0.000000"
			           >
				<Transform DEF="group_5_ifs_TRANSFORM"
				           translation="0.000000 0.000000 0.000000"
				           scale="1.000000 1.000000 1.000000"
				           rotation="0.000000 1.000000 0.000000 0.000000"
				           >
					<Group DEF="group_ME_ID40">
						<Shape>
							<Appearance>
								<Material USE="MA_material" />
							</Appearance>
							<IndexedFaceSet solid="false"
							                coordIndex="0 1 2 -1 1 0 3 -1 4 5 6 -1 5 4 7 -1 8 9 10 -1 9 8 11 -1 11 8 6 -1 11 6 5 -1 12 13 14 -1 13 12 15 -1 16 17 18 -1 17 16 19 -1 20 21 22 -1 21 20 23 -1 23 20 18 -1 23 18 17 -1 24 25 26 -1 25 24 27 -1 28 29 30 -1 29 28 31 -1 32 33 34 -1 33 32 35 -1 36 37 38 -1 37 36 39 -1 40 41 42 -1 41 40 43 -1 44 45 46 -1 45 44 47 -1 "
							                >
								<Coordinate DEF="coords_ME_ID40"
								            point="3.937008 0.000000 5.905512 2.755905 39.370079 5.905512 2.755905 0.000000 5.905512 3.937008 39.370079 5.905512 2.755905 0.000000 8.267716 1.181102 0.000000 5.905512 2.755905 0.000000 5.905512 1.181102 0.000000 8.267716 3.937008 0.000000 5.905512 0.000000 0.000000 0.000000 3.937008 0.000000 0.000000 0.000000 0.000000 5.905512 3.937008 39.370079 0.000000 3.937008 0.000000 5.905512 3.937008 0.000000 0.000000 3.937008 39.370079 5.905512 1.181102 39.370079 8.267716 2.755905 39.370079 5.905512 1.181102 39.370079 5.905512 2.755905 39.370079 8.267716 0.000000 39.370079 5.905512 3.937008 39.370079 0.000000 0.000000 39.370079 0.000000 3.937008 39.370079 5.905512 2.755905 39.370079 5.905512 2.755905 0.000000 8.267716 2.755905 0.000000 5.905512 2.755905 39.370079 8.267716 2.755905 0.000000 8.267716 1.181102 39.370079 8.267716 1.181102 0.000000 8.267716 2.755905 39.370079 8.267716 1.181102 39.370079 8.267716 1.181102 0.000000 5.905512 1.181102 0.000000 8.267716 1.181102 39.370079 5.905512 1.181102 0.000000 5.905512 0.000000 39.370079 5.905512 0.000000 0.000000 5.905512 1.181102 39.370079 5.905512 0.000000 39.370079 5.905512 0.000000 0.000000 0.000000 0.000000 0.000000 5.905512 0.000000 39.370079 0.000000 3.937008 39.370079 0.000000 0.000000 0.000000 0.000000 0.000000 39.370079 0.000000 3.937008 0.000000 0.000000 "
								            />
							</IndexedFaceSet>
						</Shape>
					</Group>
				</Transform>
			</Transform>
			<Transform DEF="group_6_TRANSFORM"
			           translation="21.850000 0.000000 0.000000"
			           scale="0.733300 0.733300 0.733300"
			           rotation="0.000000 1.000000 0.000000 0.000000"
			           >
				<Transform DEF="group_6_ifs_TRANSFORM"
				           translation="0.000000 0.000000 0.000000"
				           scale="1.000000 1.000000 1.000000"
				           rotation="0.000000 1.000000 0.000000 0.000000"
				           >
					<Group DEF="group_ME_ID47">
						<Shape>
							<Appearance>
								<Material USE="MA_material" />
							</Appearance>
							<IndexedFaceSet solid="false"
							                coordIndex="0 1 2 -1 1 0 3 -1 4 5 6 -1 5 4 7 -1 8 9 10 -1 9 8 11 -1 11 8 6 -1 11 6 5 -1 12 13 14 -1 13 12 15 -1 16 17 18 -1 17 16 19 -1 20 21 22 -1 21 20 23 -1 23 20 18 -1 23 18 17 -1 24 25 26 -1 25 24 27 -1 28 29 30 -1 29 28 31 -1 32 33 34 -1 33 32 35 -1 36 37 38 -1 37 36 39 -1 40 41 42 -1 41 40 43 -1 44 45 46 -1 45 44 47 -1 "
							                >
								<Coordinate DEF="coords_ME_ID47"
								            point="3.937008 0.000000 5.905512 2.755905 39.370079 5.905512 2.755905 0.000000 5.905512 3.937008 39.370079 5.905512 2.755905 0.000000 8.267716 1.181102 0.000000 5.905512 2.755905 0.000000 5.905512 1.181102 0.000000 8.267716 3.937008 0.000000 5.905512 0.000000 0.000000 0.000000 3.937008 0.000000 0.000000 0.000000 0.000000 5.905512 3.937008 39.370079 0.000000 3.937008 0.000000 5.905512 3.937008 0.000000 0.000000 3.937008 39.370079 5.905512 1.181102 39.370079 8.267716 2.755905 39.370079 5.905512 1.181102 39.370079 5.905512 2.755905 39.370079 8.267716 0.000000 39.370079 5.905512 3.937008 39.370079 0.000000 0.000000 39.370079 0.000000 3.937008 39.370079 5.905512 2.755905 39.370079 5.905512 2.755905 0.000000 8.267716 2.755905 0.000000 5.905512 2.755905 39.370079 8.267716 2.755905 0.000000 8.267716 1.181102 39.370079 8.267716 1.181102 0.000000 8.267716 2.755905 39.370079 8.267716 1.181102 39.370079 8.267716 1.181102 0.000000 5.905512 1.181102 0.000000 8.267716 1.181102 39.370079 5.905512 1.181102 0.000000 5.905512 0.000000 39.370079 5.905512 0.000000 0.000000 5.905512 1.181102 39.370079 5.905512 0.000000 39.370079 5.905512 0.000000 0.000000 0.000000 0.000000 0.000000 5.905512 0.000000 39.370079 0.000000 3.937008 39.370079 0.000000 0.000000 0.000000 0.000000 0.000000 39.370079 0.000000 3.937008 0.000000 0.000000 "
								            />
							</IndexedFaceSet>
						</Shape>
					</Group>
				</Transform>
			</Transform>
			<Transform DEF="group_7_TRANSFORM"
			           translation="0.000000 0.000000 0.000000"
			           scale="1.000000 1.000000 1.000000"
			           rotation="0.000000 1.000000 0.000000 0.000000"
			           >
				<Transform DEF="group_7_ifs_TRANSFORM"
				           translation="0.000000 0.000000 0.000000"
				           scale="1.000000 1.000000 1.000000"
				           rotation="0.000000 1.000000 0.000000 0.000000"
				           >
					<Group DEF="group_ME_ID54">
						<Shape>
							<Appearance>
								<Material USE="MA_material" />
							</Appearance>
							<IndexedFaceSet solid="false"
							                coordIndex="0 1 2 -1 1 0 3 -1 4 5 6 -1 5 4 7 -1 8 9 10 -1 9 8 11 -1 11 8 6 -1 11 6 5 -1 12 13 14 -1 13 12 15 -1 16 17 18 -1 17 16 19 -1 20 21 22 -1 21 20 23 -1 23 20 18 -1 23 18 17 -1 24 25 26 -1 25 24 27 -1 28 29 30 -1 29 28 31 -1 32 33 34 -1 33 32 35 -1 36 37 38 -1 37 36 39 -1 40 41 42 -1 41 40 43 -1 44 45 46 -1 45 44 47 -1 "
							                >
								<Coordinate DEF="coords_ME_ID54"
								            point="3.937008 0.000000 5.905512 2.755905 39.370079 5.905512 2.755905 0.000000 5.905512 3.937008 39.370079 5.905512 2.755905 0.000000 8.267716 1.181102 0.000000 5.905512 2.755905 0.000000 5.905512 1.181102 0.000000 8.267716 3.937008 0.000000 5.905512 0.000000 0.000000 0.000000 3.937008 0.000000 0.000000 0.000000 0.000000 5.905512 3.937008 39.370079 0.000000 3.937008 0.000000 5.905512 3.937008 0.000000 0.000000 3.937008 39.370079 5.905512 1.181102 39.370079 8.267716 2.755905 39.370079 5.905512 1.181102 39.370079 5.905512 2.755905 39.370079 8.267716 0.000000 39.370079 5.905512 3.937008 39.370079 0.000000 0.000000 39.370079 0.000000 3.937008 39.370079 5.905512 2.755905 39.370079 5.905512 2.755905 0.000000 8.267716 2.755905 0.000000 5.905512 2.755905 39.370079 8.267716 2.755905 0.000000 8.267716 1.181102 39.370079 8.267716 1.181102 0.000000 8.267716 2.755905 39.370079 8.267716 1.181102 39.370079 8.267716 1.181102 0.000000 5.905512 1.181102 0.000000 8.267716 1.181102 39.370079 5.905512 1.181102 0.000000 5.905512 0.000000 39.370079 5.905512 0.000000 0.000000 5.905512 1.181102 39.370079 5.905512 0.000000 39.370079 5.905512 0.000000 0.000000 0.000000 0.000000 0.000000 5.905512 0.000000 39.370079 0.000000 3.937008 39.370079 0.000000 0.000000 0.000000 0.000000 0.000000 39.370079 0.000000 3.937008 0.000000 0.000000 "
								            />
							</IndexedFaceSet>
						</Shape>
					</Group>
				</Transform>
			</Transform>
		</Transform>
	</Scene>
</X3D>