<?xml version="1.0" encoding="UTF-8"?>
<!DOCTYPE X3D PUBLIC "ISO//Web3D//DTD X3D 3.0//EN" "http://www.web3d.org/specifications/x3d-3.0.dtd">
<X3D version="3.0" profile="Immersive" xmlns:xsd="http://www.w3.org/2001/XMLSchema-instance" xsd:noNamespaceSchemaLocation="http://www.web3d.org/specifications/x3d-3.0.xsd">
	<head>
		<meta name="filename" content="02-1 華栱 兩卷頭.x3d" />
		<meta name="created" content="2025-12-28 15:25:53" />
		<meta name="generator" content="Blender 4.2.2 LTS" />
		<meta name="translator" content="Web3D X3D/VRML2 format v2.5.1" />
	</head>
	<Scene>
		<NavigationInfo headlight="true"
		                visibilityLimit="0.0"
		                type='"EXAMINE", "ANY"'
		                avatarSize="0.25, 1.75, 0.75"
		                />
		<Background DEF="WO_World"
		            groundColor="0.051 0.051 0.051"
		            skyColor="0.051 0.051 0.051"
		            />
		<Transform DEF="Shape_IndexedFaceSet_001_TRANSFORM"
		           translation="0.000000 0.000000 0.000000"
		           scale="0.025400 0.025400 0.025400"
		           rotation="-1.000000 0.000000 0.000000 1.570796"
		           >
			<Transform DEF="Shape_IndexedFaceSet_001_ifs_TRANSFORM"
			           translation="0.000000 0.000000 0.000000"
			           scale="1.000000 1.000000 1.000000"
			           rotation="-0.000000 0.000000 0.000000 0.000000"
			           >
				<Group DEF="group_ME_Shape_IndexedFaceSet_062">
					<Shape>
						<Appearance>
							<Material DEF="MA_Material_002"
							          diffuseColor="0.800 0.800 0.800"
							          specularColor="0.401 0.401 0.401"
							          emissiveColor="0.000 0.000 0.000"
							          ambientIntensity="0.000"
							          shininess="0.500"
							          transparency="0.000"
							          />
						</Appearance>
						<IndexedFaceSet solid="false"
						                texCoordIndex="0 1 2 -1 3 4 5 -1 6 7 8 -1 9 10 11 -1 12 13 14 -1 15 16 17 -1 18 19 20 -1 21 22 23 -1 24 25 26 -1 27 28 29 -1 30 31 32 -1 33 34 35 -1 36 37 38 -1 39 40 41 -1 42 43 44 -1 45 46 47 -1 48 49 50 -1 51 52 53 -1 54 55 56 -1 57 58 59 -1 60 61 62 -1 63 64 65 -1 66 67 68 -1 69 70 71 -1 72 73 74 -1 75 76 77 -1 78 79 80 -1 81 82 83 -1 84 85 86 -1 87 88 89 -1 90 91 92 -1 93 94 95 -1 96 97 98 -1 99 100 101 -1 102 103 104 -1 105 106 107 -1 108 109 110 -1 111 112 113 -1 114 115 116 -1 117 118 119 -1 120 121 122 -1 123 124 125 -1 126 127 128 -1 129 130 131 -1 132 133 134 -1 135 136 137 -1 138 139 140 -1 141 142 143 -1 144 145 146 -1 147 148 149 -1 150 151 152 -1 153 154 155 -1 156 157 158 -1 159 160 161 -1 162 163 164 -1 165 166 167 -1 168 169 170 -1 171 172 173 -1 174 175 176 -1 177 178 179 -1 180 181 182 -1 183 184 185 -1 186 187 188 -1 189 190 191 -1 192 193 194 -1 195 196 197 -1 198 199 200 -1 201 202 203 -1 204 205 206 -1 207 208 209 -1 210 211 212 -1 213 214 215 -1 216 217 218 -1 219 220 221 -1 222 223 224 -1 225 226 227 -1 228 229 230 -1 231 232 233 -1 234 235 236 -1 237 238 239 -1 240 241 242 -1 243 244 245 -1 246 247 248 -1 249 250 251 -1 252 253 254 -1 255 256 257 -1 258 259 260 -1 261 262 263 -1 264 265 266 -1 267 268 269 -1 270 271 272 -1 273 274 275 -1 276 277 278 -1 279 280 281 -1 282 283 284 -1 285 286 287 -1 288 289 290 -1 291 292 293 -1 294 295 296 -1 297 298 299 -1 300 301 302 -1 303 304 305 -1 306 307 308 -1 309 310 311 -1 312 313 314 -1 315 316 317 -1 318 319 320 -1 321 322 323 -1 324 325 326 -1 327 328 329 -1 330 331 332 -1 333 334 335 -1 336 337 338 -1 339 340 341 -1 342 343 344 -1 345 346 347 -1 348 349 350 -1 351 352 353 -1 354 355 356 -1 357 358 359 -1 360 361 362 -1 363 364 365 -1 366 367 368 -1 369 370 371 -1 372 373 374 -1 375 376 377 -1 378 379 380 -1 381 382 383 -1 384 385 386 -1 387 388 389 -1 390 391 392 -1 393 394 395 -1 396 397 398 -1 399 400 401 -1 402 403 404 -1 405 406 407 -1 408 409 410 -1 411 412 413 -1 414 415 416 -1 417 418 419 -1 420 421 422 -1 423 424 425 -1 426 427 428 -1 429 430 431 -1 432 433 434 -1 435 436 437 -1 438 439 440 -1 441 442 443 -1 444 445 446 -1 447 448 449 -1 450 451 452 -1 453 454 455 -1 456 457 458 -1 459 460 461 -1 462 463 464 -1 465 466 467 -1 468 469 470 -1 471 472 473 -1 474 475 476 -1 477 478 479 -1 480 481 482 -1 483 484 485 -1 486 487 488 -1 489 490 491 -1 492 493 494 -1 495 496 497 -1 498 499 500 -1 501 502 503 -1 504 505 506 -1 507 508 509 -1 510 511 512 -1 513 514 515 -1 516 517 518 -1 519 520 521 -1 522 523 524 -1 525 526 527 -1 528 529 530 -1 531 532 533 -1 534 535 536 -1 537 538 539 -1 540 541 542 -1 543 544 545 -1 546 547 548 -1 549 550 551 -1 552 553 554 -1 555 556 557 -1 558 559 560 -1 561 562 563 -1 564 565 566 -1 567 568 569 -1 570 571 572 -1 573 574 575 -1 576 577 578 -1 579 580 581 -1 582 583 584 -1 585 586 587 -1 588 589 590 -1 591 592 593 -1 594 595 596 -1 597 598 599 -1 600 601 602 -1 603 604 605 -1 606 607 608 -1 609 610 611 -1 612 613 614 -1 615 616 617 -1 618 619 620 -1 621 622 623 -1 624 625 626 -1 627 628 629 -1 630 631 632 -1 633 634 635 -1 636 637 638 -1 639 640 641 -1 642 643 644 -1 645 646 647 -1 648 649 650 -1 651 652 653 -1 654 655 656 -1 657 658 659 -1 660 661 662 -1 663 664 665 -1 666 667 668 -1 669 670 671 -1 672 673 674 -1 675 676 677 -1 678 679 680 -1 681 682 683 -1 684 685 686 -1 687 688 689 -1 690 691 692 -1 693 694 695 -1 696 697 698 -1 699 700 701 -1 702 703 704 -1 705 706 707 -1 708 709 710 -1 711 712 713 -1 714 715 716 -1 717 718 719 -1 720 721 722 -1 723 724 725 -1 726 727 728 -1 729 730 731 -1 732 733 734 -1 735 736 737 -1 738 739 740 -1 741 742 743 -1 744 745 746 -1 747 748 749 -1 750 751 752 -1 753 754 755 -1 756 757 758 -1 759 760 761 -1 762 763 764 -1 765 766 767 -1 768 769 770 -1 771 772 773 -1 774 775 776 -1 777 778 779 -1 780 781 782 -1 783 784 785 -1 786 787 788 -1 789 790 791 -1 792 793 794 -1 795 796 797 -1 798 799 800 -1 801 802 803 -1 804 805 806 -1 807 808 809 -1 810 811 812 -1 813 814 815 -1 816 817 818 -1 819 820 821 -1 822 823 824 -1 825 826 827 -1 828 829 830 -1 831 832 833 -1 834 835 836 -1 837 838 839 -1 840 841 842 -1 843 844 845 -1 846 847 848 -1 849 850 851 -1 852 853 854 -1 855 856 857 -1 858 859 860 -1 861 862 863 -1 864 865 866 -1 867 868 869 -1 870 871 872 -1 873 874 875 -1 876 877 878 -1 879 880 881 -1 882 883 884 -1 885 886 887 -1 888 889 890 -1 891 892 893 -1 894 895 896 -1 897 898 899 -1 900 901 902 -1 903 904 905 -1 906 907 908 -1 909 910 911 -1 912 913 914 -1 915 916 917 -1 918 919 920 -1 921 922 923 -1 924 925 926 -1 927 928 929 -1 930 931 932 -1 933 934 935 -1 936 937 938 -1 939 940 941 -1 942 943 944 -1 945 946 947 -1 "
						                coordIndex="0 1 2 -1 1 0 3 -1 4 5 6 -1 5 4 7 -1 7 4 8 -1 8 4 9 -1 10 11 12 -1 11 10 13 -1 13 10 14 -1 13 14 15 -1 13 15 16 -1 16 15 17 -1 16 17 18 -1 16 18 19 -1 16 19 20 -1 16 20 21 -1 17 15 6 -1 17 6 5 -1 21 20 22 -1 21 22 23 -1 21 23 24 -1 21 24 25 -1 26 27 28 -1 27 26 29 -1 30 31 32 -1 31 30 33 -1 33 30 34 -1 33 34 35 -1 35 34 36 -1 35 36 37 -1 37 36 38 -1 38 36 39 -1 38 39 40 -1 40 39 41 -1 40 41 42 -1 42 41 43 -1 42 43 44 -1 44 43 45 -1 0 46 47 -1 46 0 2 -1 47 48 49 -1 48 47 46 -1 50 51 52 -1 51 50 53 -1 54 55 56 -1 55 54 57 -1 58 59 60 -1 59 58 61 -1 62 63 64 -1 63 62 65 -1 66 67 68 -1 67 66 69 -1 67 69 70 -1 69 66 71 -1 69 71 72 -1 72 71 73 -1 72 74 75 -1 74 72 73 -1 76 77 78 -1 77 76 67 -1 77 67 79 -1 79 67 70 -1 80 73 81 -1 73 80 82 -1 73 82 74 -1 82 80 83 -1 83 84 82 -1 84 83 85 -1 86 87 88 -1 87 86 89 -1 90 91 92 -1 93 94 95 -1 94 93 96 -1 94 96 97 -1 97 96 91 -1 97 91 98 -1 98 91 99 -1 99 91 90 -1 95 100 101 -1 100 95 94 -1 102 103 104 -1 103 102 105 -1 106 107 108 -1 107 106 109 -1 110 111 112 -1 111 110 113 -1 114 115 116 -1 115 114 117 -1 118 119 120 -1 119 118 121 -1 122 123 124 -1 123 122 125 -1 126 127 128 -1 127 126 129 -1 130 131 132 -1 131 130 133 -1 131 133 134 -1 131 134 135 -1 136 137 138 -1 137 136 139 -1 138 140 141 -1 140 138 137 -1 142 140 143 -1 140 142 141 -1 144 145 146 -1 145 144 147 -1 148 149 150 -1 149 148 151 -1 152 153 154 -1 153 152 155 -1 156 157 158 -1 157 156 159 -1 160 161 162 -1 161 160 163 -1 163 160 164 -1 164 160 165 -1 166 167 168 -1 167 166 169 -1 169 166 170 -1 169 170 171 -1 169 171 172 -1 172 171 173 -1 172 173 174 -1 172 174 175 -1 172 175 176 -1 172 176 177 -1 173 171 162 -1 173 162 161 -1 177 176 178 -1 177 178 179 -1 177 179 180 -1 177 180 181 -1 182 183 184 -1 183 182 185 -1 186 187 188 -1 187 186 189 -1 189 186 190 -1 189 190 191 -1 191 190 192 -1 191 192 193 -1 193 192 194 -1 194 192 195 -1 194 195 196 -1 196 195 197 -1 196 197 198 -1 198 197 199 -1 198 199 200 -1 200 199 201 -1 202 203 204 -1 203 202 205 -1 206 207 208 -1 207 206 209 -1 209 206 210 -1 209 210 211 -1 211 210 212 -1 211 212 213 -1 213 212 214 -1 213 214 215 -1 215 214 216 -1 215 216 217 -1 217 216 218 -1 217 218 219 -1 219 218 220 -1 219 220 221 -1 222 223 224 -1 223 222 225 -1 226 227 228 -1 227 226 229 -1 229 226 230 -1 230 226 231 -1 232 233 226 -1 233 232 234 -1 234 232 235 -1 226 233 236 -1 226 236 237 -1 226 237 231 -1 231 237 238 -1 234 235 239 -1 239 235 240 -1 240 235 241 -1 241 235 242 -1 238 243 244 -1 243 238 237 -1 244 243 245 -1 244 245 246 -1 244 246 247 -1 248 249 250 -1 249 248 251 -1 252 253 254 -1 253 252 255 -1 256 257 258 -1 257 256 259 -1 259 256 260 -1 259 260 261 -1 261 260 262 -1 261 262 263 -1 263 262 264 -1 263 264 265 -1 265 264 266 -1 265 266 267 -1 267 266 268 -1 267 268 269 -1 269 268 270 -1 269 270 271 -1 272 273 274 -1 273 272 275 -1 276 277 278 -1 277 276 279 -1 277 279 280 -1 280 279 281 -1 282 283 279 -1 283 282 284 -1 284 282 285 -1 279 283 286 -1 279 286 287 -1 279 287 281 -1 281 287 288 -1 284 285 289 -1 289 285 290 -1 290 285 291 -1 291 285 292 -1 288 293 294 -1 293 288 287 -1 294 293 295 -1 294 295 296 -1 294 296 297 -1 298 299 300 -1 299 298 301 -1 302 303 304 -1 303 302 305 -1 306 307 308 -1 307 306 309 -1 310 311 312 -1 311 310 313 -1 314 315 316 -1 315 314 317 -1 318 319 320 -1 319 318 321 -1 322 323 324 -1 323 322 325 -1 326 327 328 -1 327 326 329 -1 330 331 332 -1 331 330 333 -1 334 335 336 -1 335 334 337 -1 338 339 340 -1 339 338 341 -1 342 343 344 -1 343 342 345 -1 346 347 348 -1 347 346 349 -1 350 351 352 -1 351 350 353 -1 354 355 356 -1 355 354 357 -1 358 359 360 -1 359 358 361 -1 360 362 363 -1 362 360 359 -1 364 365 366 -1 365 364 367 -1 368 366 369 -1 366 368 364 -1 370 368 369 -1 368 370 371 -1 372 373 374 -1 373 372 375 -1 376 377 378 -1 377 376 379 -1 321 376 319 -1 376 321 379 -1 380 381 382 -1 381 380 383 -1 384 385 386 -1 385 384 387 -1 388 389 390 -1 389 388 391 -1 392 393 394 -1 393 392 395 -1 396 394 397 -1 394 396 392 -1 398 396 397 -1 396 398 399 -1 400 401 402 -1 401 400 403 -1 404 405 406 -1 405 404 407 -1 408 404 409 -1 404 408 407 -1 410 409 411 -1 409 410 408 -1 412 413 414 -1 413 412 415 -1 416 417 418 -1 417 416 419 -1 420 421 422 -1 421 420 423 -1 316 424 425 -1 424 316 315 -1 426 424 427 -1 424 426 425 -1 428 429 430 -1 429 428 431 -1 432 433 434 -1 433 432 435 -1 432 436 437 -1 436 432 434 -1 437 438 439 -1 438 437 436 -1 440 441 442 -1 441 440 443 -1 444 445 446 -1 445 444 447 -1 448 449 450 -1 449 448 451 -1 "
						                >
							<Coordinate DEF="coords_ME_Shape_IndexedFaceSet_062"
							            point="17.125984 0.000000 4.882647 17.716536 0.393701 4.724409 17.125984 0.393701 4.882647 17.716536 0.000000 4.724409 28.346457 0.000000 5.905512 22.440945 0.000000 4.724409 28.346457 0.000000 3.543307 23.031496 0.000000 4.882647 23.463808 0.000000 5.314961 23.622046 0.000000 5.905512 24.566929 0.000000 0.354331 18.110235 0.000000 0.000000 22.047243 0.000000 0.000000 18.110235 0.000000 1.968504 26.456692 0.000000 1.062992 27.716536 0.000000 2.125984 16.141731 0.000000 1.968504 17.716536 0.000000 4.724409 17.125984 0.000000 4.882647 16.693670 0.000000 5.314961 16.535433 0.000000 5.905512 16.141731 0.000000 8.267716 16.637833 0.000000 6.500865 16.907991 0.000000 7.041184 17.322834 0.000000 7.480315 17.322834 0.000000 8.267716 17.716536 0.000000 4.724409 22.440945 0.393701 4.724409 17.716536 0.393701 4.724409 22.440945 0.000000 4.724409 23.031496 0.393701 4.882647 17.716536 0.393701 4.724409 22.440945 0.393701 4.724409 17.125984 0.393701 4.882647 23.463808 0.393701 5.314961 16.693670 0.393701 5.314961 23.622046 0.393701 5.905512 16.535433 0.393701 5.905512 16.637833 0.393701 6.500865 23.519648 0.393701 6.500865 16.907991 0.393701 7.041184 23.249489 0.393701 7.041184 17.322834 0.393701 7.480315 22.834644 0.393701 7.480315 17.322834 0.393701 8.267716 22.834644 0.393701 8.267716 16.693670 0.393701 5.314961 16.693670 0.000000 5.314961 16.535433 0.393701 5.905512 16.535433 0.000000 5.905512 16.535433 0.393701 5.905512 16.637833 0.000000 6.500865 16.535433 0.000000 5.905512 16.637833 0.393701 6.500865 16.637833 0.000000 6.500865 16.907991 0.393701 7.041184 16.907991 0.000000 7.041184 16.637833 0.393701 6.500865 16.907991 0.000000 7.041184 17.322834 0.393701 7.480315 17.322834 0.000000 7.480315 16.907991 0.393701 7.041184 17.322834 0.393701 7.480315 17.322834 0.000000 8.267716 17.322834 0.000000 7.480315 17.322834 0.393701 8.267716 12.204723 0.000000 8.267716 11.023622 0.393701 8.267716 11.023622 0.000000 8.267716 12.204723 3.543307 8.267716 12.204723 3.937008 8.267716 12.204723 0.393701 8.267716 16.141733 3.543307 8.267716 16.141731 0.393701 8.267716 17.322834 3.937008 8.267716 16.141733 3.937008 8.267716 5.511811 0.393701 8.267716 11.023622 3.543307 8.267716 5.511811 3.543307 8.267716 11.023622 3.937008 8.267716 17.322834 0.000000 8.267716 16.141731 0.000000 8.267716 17.322834 3.543307 8.267716 17.322834 0.393701 8.267716 22.834644 3.543307 8.267716 22.834644 0.393701 8.267716 16.141731 0.000000 8.267716 16.141731 0.393701 1.968504 16.141731 0.000000 1.968504 16.141731 0.393701 8.267716 18.110235 3.937008 1.968504 16.141733 3.543307 1.968504 16.141733 3.937008 1.968504 12.204723 3.937008 1.968504 12.204723 0.393701 1.968504 10.236220 3.937008 1.968504 12.204723 3.543307 1.968504 16.141731 0.393701 1.968504 16.141731 0.000000 1.968504 18.110235 0.000000 1.968504 12.204723 0.000000 1.968504 10.236220 0.000000 1.968504 18.110235 3.937008 1.968504 18.110235 0.000000 0.000000 18.110235 0.000000 1.968504 18.110235 3.937008 0.000000 22.047243 3.937008 0.000000 18.110235 0.000000 0.000000 18.110235 3.937008 0.000000 22.047243 0.000000 0.000000 24.566929 3.937008 0.354331 22.047243 0.000000 0.000000 22.047243 3.937008 0.000000 24.566929 0.000000 0.354331 26.456692 3.937008 1.062992 24.566929 0.000000 0.354331 24.566929 3.937008 0.354331 26.456692 0.000000 1.062992 27.716536 3.937008 2.125984 26.456692 0.000000 1.062992 26.456692 3.937008 1.062992 27.716536 0.000000 2.125984 27.716536 3.937008 2.125984 28.346457 0.000000 3.543307 27.716536 0.000000 2.125984 28.346457 3.937008 3.543307 28.346457 3.937008 3.543307 28.346457 0.000000 5.905512 28.346457 0.000000 3.543307 28.346457 3.937008 5.905512 23.622046 3.543307 5.905511 28.346457 3.937008 5.905512 23.622046 3.937008 5.905512 23.622046 0.393701 5.905512 23.622046 0.000000 5.905512 28.346457 0.000000 5.905512 23.622046 0.000000 5.905512 23.463808 0.393701 5.314961 23.463808 0.000000 5.314961 23.622046 0.393701 5.905512 23.031496 0.393701 4.882647 23.031496 0.000000 4.882647 22.440945 0.000000 4.724409 22.440945 0.393701 4.724409 23.622046 3.543307 5.905511 23.519648 0.393701 6.500865 23.622046 0.393701 5.905512 23.519648 3.543307 6.500865 23.519648 0.393701 6.500865 23.249489 3.543307 7.041184 23.249489 0.393701 7.041184 23.519648 3.543307 6.500865 23.249489 0.393701 7.041184 22.834644 3.543307 7.480315 22.834644 0.393701 7.480315 23.249489 3.543307 7.041184 22.834644 3.543307 7.480315 22.834644 0.393701 8.267716 22.834644 0.393701 7.480315 22.834644 3.543307 8.267716 0.000000 3.937008 5.905512 5.905512 3.937008 4.724409 0.000000 3.937008 3.543307 5.314961 3.937008 4.882647 4.882647 3.937008 5.314960 4.724409 3.937008 5.905512 3.779527 3.937008 0.354331 10.236220 3.937008 0.000000 6.299213 3.937008 0.000000 10.236220 3.937008 1.968504 1.889764 3.937008 1.062992 0.629921 3.937008 2.125984 12.204723 3.937008 1.968504 10.629921 3.937008 4.724409 11.220472 3.937008 4.882647 11.652785 3.937008 5.314960 11.811023 3.937008 5.905512 12.204723 3.937008 8.267716 11.708624 3.937008 6.500865 11.438465 3.937008 7.041184 11.023622 3.937008 7.480315 11.023622 3.937008 8.267716 11.023622 3.543307 8.267716 11.023622 3.937008 7.480315 11.023622 3.543307 7.480315 11.023622 3.937008 8.267716 5.314961 3.543307 4.882647 10.629921 3.543307 4.724409 5.905512 3.543307 4.724409 11.220472 3.543307 4.882647 4.882647 3.543307 5.314961 11.652785 3.543307 5.314961 4.724409 3.543307 5.905512 11.811023 3.543307 5.905512 11.708624 3.543307 6.500865 4.826808 3.543307 6.500865 11.438465 3.543307 7.041184 5.096968 3.543307 7.041184 11.023622 3.543307 7.480315 5.511811 3.543307 7.480315 11.023622 3.543307 8.267716 5.511811 3.543307 8.267716 5.511811 0.393701 8.267716 5.511811 3.543307 7.480315 5.511811 0.393701 7.480315 5.511811 3.543307 8.267716 11.220472 0.393701 4.882647 5.905512 0.393701 4.724409 10.629921 0.393701 4.724409 5.314961 0.393701 4.882647 11.652785 0.393701 5.314961 4.882647 0.393701 5.314961 11.811023 0.393701 5.905512 4.724409 0.393701 5.905512 11.708624 0.393701 6.500865 4.826808 0.393701 6.500865 11.438465 0.393701 7.041184 5.096968 0.393701 7.041184 11.023622 0.393701 7.480315 5.511811 0.393701 7.480315 11.023622 0.393701 8.267716 5.511811 0.393701 8.267716 11.023622 0.000000 8.267716 11.023622 0.393701 7.480315 11.023622 0.000000 7.480315 11.023622 0.393701 8.267716 10.236220 0.000000 1.968504 6.299213 0.000000 0.000000 10.236220 0.000000 0.000000 3.779527 0.000000 0.354331 1.889764 0.000000 1.062992 0.629921 0.000000 2.125984 12.204723 0.000000 1.968504 11.652785 0.000000 5.314961 11.811023 0.000000 5.905512 12.204723 0.000000 8.267716 11.220472 0.000000 4.882647 10.629921 0.000000 4.724409 0.000000 0.000000 3.543307 11.708624 0.000000 6.500865 11.438465 0.000000 7.041184 11.023622 0.000000 7.480315 11.023622 0.000000 8.267716 5.905511 0.000000 4.724409 0.000000 0.000000 5.905512 5.314960 0.000000 4.882647 4.882647 0.000000 5.314961 4.724409 0.000000 5.905512 12.204723 0.393701 1.968504 12.204723 0.000000 8.267716 12.204723 0.000000 1.968504 12.204723 0.393701 8.267716 16.141731 0.393701 8.267716 12.204723 0.393701 1.968504 16.141731 0.393701 1.968504 12.204723 0.393701 8.267716 17.125984 3.543307 4.882647 22.440945 3.543307 4.724409 17.716536 3.543307 4.724409 23.031496 3.543307 4.882647 16.693670 3.543307 5.314961 23.463808 3.543307 5.314961 16.535433 3.543307 5.905512 23.622046 3.543307 5.905511 16.637833 3.543307 6.500865 23.519648 3.543307 6.500865 16.907991 3.543307 7.041184 23.249489 3.543307 7.041184 17.322834 3.543307 7.480315 22.834644 3.543307 7.480315 17.322834 3.543307 8.267716 22.834644 3.543307 8.267716 17.322834 3.937008 7.480315 17.322834 3.543307 8.267716 17.322834 3.543307 7.480315 17.322834 3.937008 8.267716 18.110235 3.937008 0.000000 24.566929 3.937008 0.354331 22.047243 3.937008 0.000000 18.110235 3.937008 1.968504 26.456692 3.937008 1.062992 27.716536 3.937008 2.125984 16.141733 3.937008 1.968504 16.693670 3.937008 5.314961 16.535433 3.937008 5.905511 16.141733 3.937008 8.267716 17.125984 3.937008 4.882647 17.716536 3.937008 4.724409 28.346457 3.937008 3.543307 16.637833 3.937008 6.500865 16.907991 3.937008 7.041184 17.322834 3.937008 7.480315 17.322834 3.937008 8.267716 22.440945 3.937008 4.724409 28.346457 3.937008 5.905512 23.031496 3.937008 4.882647 23.463808 3.937008 5.314961 23.622046 3.937008 5.905512 16.141733 3.937008 8.267716 16.141733 3.543307 1.968504 16.141733 3.543307 8.267716 16.141733 3.937008 1.968504 12.204723 3.543307 8.267716 16.141733 3.543307 1.968504 12.204723 3.543307 1.968504 16.141733 3.543307 8.267716 12.204723 3.543307 1.968504 12.204723 3.937008 8.267716 12.204723 3.543307 8.267716 12.204723 3.937008 1.968504 10.236220 0.000000 0.000000 10.236220 3.937008 1.968504 10.236220 0.000000 1.968504 10.236220 3.937008 0.000000 23.622046 3.543307 5.905511 23.463808 3.937008 5.314961 23.463808 3.543307 5.314961 23.622046 3.937008 5.905512 11.811023 3.937008 5.905512 11.652785 3.543307 5.314961 11.811023 3.543307 5.905512 11.652785 3.937008 5.314960 11.708624 3.543307 6.500865 11.811023 3.937008 5.905512 11.811023 3.543307 5.905512 11.708624 3.937008 6.500865 11.438465 3.937008 7.041184 11.708624 3.543307 6.500865 11.438465 3.543307 7.041184 11.708624 3.937008 6.500865 11.023622 3.937008 7.480315 11.438465 3.543307 7.041184 11.023622 3.543307 7.480315 11.438465 3.937008 7.041184 10.236220 3.937008 0.000000 6.299213 0.000000 0.000000 6.299213 3.937008 0.000000 10.236220 0.000000 0.000000 6.299213 3.937008 0.000000 3.779527 0.000000 0.354331 3.779527 3.937008 0.354331 6.299213 0.000000 0.000000 3.779527 3.937008 0.354331 1.889764 0.000000 1.062992 1.889764 3.937008 1.062992 3.779527 0.000000 0.354331 1.889764 3.937008 1.062992 0.629921 0.000000 2.125984 0.629921 3.937008 2.125984 1.889764 0.000000 1.062992 0.000000 0.000000 3.543307 0.629921 3.937008 2.125984 0.629921 0.000000 2.125984 0.000000 3.937008 3.543307 0.000000 3.937008 5.905512 0.000000 0.000000 3.543307 0.000000 0.000000 5.905512 0.000000 3.937008 3.543307 4.724409 0.000000 5.905512 4.724409 3.543307 5.905512 0.000000 0.000000 5.905512 4.724409 0.393701 5.905512 4.724409 3.937008 5.905512 0.000000 3.937008 5.905512 4.882647 3.937008 5.314960 4.724409 3.543307 5.905512 4.882647 3.543307 5.314961 4.724409 3.937008 5.905512 5.314961 3.937008 4.882647 5.314961 3.543307 4.882647 5.905512 3.543307 4.724409 5.905512 3.937008 4.724409 10.629921 3.543307 4.724409 5.905512 3.937008 4.724409 5.905512 3.543307 4.724409 10.629921 3.937008 4.724409 11.220472 3.543307 4.882647 10.629921 3.937008 4.724409 10.629921 3.543307 4.724409 11.220472 3.937008 4.882647 4.826808 0.393701 6.500865 4.724409 3.543307 5.905512 4.724409 0.393701 5.905512 4.826808 3.543307 6.500865 5.096968 3.543307 7.041184 4.826808 0.393701 6.500865 5.096968 0.393701 7.041184 4.826808 3.543307 6.500865 5.511811 3.543307 7.480315 5.096968 0.393701 7.041184 5.511811 0.393701 7.480315 5.096968 3.543307 7.041184 4.882647 0.393701 5.314961 4.724409 0.000000 5.905512 4.882647 0.000000 5.314961 4.724409 0.393701 5.905512 5.314961 0.393701 4.882647 5.314960 0.000000 4.882647 5.905511 0.000000 4.724409 5.905512 0.393701 4.724409 10.629921 0.000000 4.724409 5.905512 0.393701 4.724409 5.905511 0.000000 4.724409 10.629921 0.393701 4.724409 11.220472 0.000000 4.882647 10.629921 0.393701 4.724409 10.629921 0.000000 4.724409 11.220472 0.393701 4.882647 11.652785 0.393701 5.314961 11.652785 0.000000 5.314961 11.811023 0.393701 5.905512 11.811023 0.000000 5.905512 11.708624 0.000000 6.500865 11.811023 0.393701 5.905512 11.811023 0.000000 5.905512 11.708624 0.393701 6.500865 11.438465 0.393701 7.041184 11.708624 0.000000 6.500865 11.438465 0.000000 7.041184 11.708624 0.393701 6.500865 11.023622 0.393701 7.480315 11.438465 0.000000 7.041184 11.023622 0.000000 7.480315 11.438465 0.393701 7.041184 23.031496 3.937008 4.882647 23.031496 3.543307 4.882647 22.440945 3.543307 4.724409 22.440945 3.937008 4.724409 17.716536 3.543307 4.724409 22.440945 3.937008 4.724409 17.716536 3.937008 4.724409 22.440945 3.543307 4.724409 17.125984 3.543307 4.882647 17.716536 3.937008 4.724409 17.125984 3.937008 4.882647 17.716536 3.543307 4.724409 16.693670 3.937008 5.314961 16.693670 3.543307 5.314961 16.535433 3.937008 5.905511 16.535433 3.543307 5.905512 16.535433 3.937008 5.905511 16.637833 3.543307 6.500865 16.535433 3.543307 5.905512 16.637833 3.937008 6.500865 16.637833 3.543307 6.500865 16.907991 3.937008 7.041184 16.907991 3.543307 7.041184 16.637833 3.937008 6.500865 16.907991 3.543307 7.041184 17.322834 3.937008 7.480315 17.322834 3.543307 7.480315 16.907991 3.937008 7.041184 "
							            />
							<TextureCoordinate point="0.6042 0.5906 0.6250 0.5714 0.6042 0.5906 0.6250 0.5714 0.6042 0.5906 0.6250 0.5714 1.0000 0.7143 0.7917 0.5714 1.0000 0.4286 0.7917 0.5714 1.0000 0.7143 0.8125 0.5906 0.8125 0.5906 1.0000 0.7143 0.8278 0.6429 0.8278 0.6429 1.0000 0.7143 0.8333 0.7143 0.8667 0.0429 0.6389 0.0000 0.7778 0.0000 0.6389 0.0000 0.8667 0.0429 0.6389 0.2381 0.6389 0.2381 0.8667 0.0429 0.9333 0.1286 0.6389 0.2381 0.9333 0.1286 0.9778 0.2571 0.6389 0.2381 0.9778 0.2571 0.5694 0.2381 0.5694 0.2381 0.9778 0.2571 0.6250 0.5714 0.5694 0.2381 0.6250 0.5714 0.6042 0.5906 0.5694 0.2381 0.6042 0.5906 0.5889 0.6429 0.5694 0.2381 0.5889 0.6429 0.5833 0.7143 0.5694 0.2381 0.5833 0.7143 0.5694 1.0000 0.6250 0.5714 0.9778 0.2571 1.0000 0.4286 0.6250 0.5714 1.0000 0.4286 0.7917 0.5714 0.5694 1.0000 0.5833 0.7143 0.5869 0.7863 0.5694 1.0000 0.5869 0.7863 0.5965 0.8516 0.5694 1.0000 0.5965 0.8516 0.6111 0.9048 0.5694 1.0000 0.6111 0.9048 0.6111 1.0000 0.6250 0.5714 0.7917 0.5714 0.6250 0.5714 0.7917 0.5714 0.6250 0.5714 0.7917 0.5714 0.8125 0.5906 0.6250 0.5714 0.7917 0.5714 0.6250 0.5714 0.8125 0.5906 0.6042 0.5906 0.6042 0.5906 0.8125 0.5906 0.8278 0.6429 0.6042 0.5906 0.8278 0.6429 0.5889 0.6429 0.5889 0.6429 0.8278 0.6429 0.8333 0.7143 0.5889 0.6429 0.8333 0.7143 0.5833 0.7143 0.5833 0.7143 0.8333 0.7143 0.5869 0.7863 0.5869 0.7863 0.8333 0.7143 0.8297 0.7863 0.5869 0.7863 0.8297 0.7863 0.5965 0.8516 0.5965 0.8516 0.8297 0.7863 0.8202 0.8516 0.5965 0.8516 0.8202 0.8516 0.6111 0.9048 0.6111 0.9048 0.8202 0.8516 0.8056 0.9048 0.6111 0.9048 0.8056 0.9048 0.6111 1.0000 0.6111 1.0000 0.8056 0.9048 0.8056 1.0000 0.6042 0.5906 0.5889 0.6429 0.5889 0.6429 0.5889 0.6429 0.6042 0.5906 0.6042 0.5906 0.5889 0.6429 0.5833 0.7143 0.5833 0.7143 0.5833 0.7143 0.5889 0.6429 0.5889 0.6429 0.5833 0.7143 0.5869 0.7863 0.5833 0.7143 0.5869 0.7863 0.5833 0.7143 0.5869 0.7863 0.5869 0.7863 0.5965 0.8516 0.5965 0.8516 0.5965 0.8516 0.5869 0.7863 0.5869 0.7863 0.5965 0.8516 0.6111 0.9048 0.6111 0.9048 0.6111 0.9048 0.5965 0.8516 0.5965 0.8516 0.6111 0.9048 0.6111 1.0000 0.6111 0.9048 0.6111 1.0000 0.6111 0.9048 0.6111 1.0000 0.4306 1.0000 0.3889 1.0000 0.3889 1.0000 0.3889 1.0000 0.4306 1.0000 0.4306 1.0000 0.3889 1.0000 0.4306 1.0000 0.4306 1.0000 0.4306 1.0000 0.4306 1.0000 0.4306 1.0000 0.4306 1.0000 0.4306 1.0000 0.5694 1.0000 0.5694 1.0000 0.4306 1.0000 0.5694 1.0000 0.5694 1.0000 0.6111 1.0000 0.5694 1.0000 0.6111 1.0000 0.5694 1.0000 0.5694 1.0000 0.1944 1.0000 0.3889 1.0000 0.1944 1.0000 0.3889 1.0000 0.1944 1.0000 0.3889 1.0000 0.3889 1.0000 0.3889 1.0000 0.3889 1.0000 0.3889 1.0000 0.3889 1.0000 0.4306 1.0000 0.6111 1.0000 0.5694 1.0000 0.5694 1.0000 0.5694 1.0000 0.6111 1.0000 0.6111 1.0000 0.5694 1.0000 0.6111 1.0000 0.6111 1.0000 0.6111 1.0000 0.6111 1.0000 0.6111 1.0000 0.6111 1.0000 0.8056 1.0000 0.6111 1.0000 0.8056 1.0000 0.6111 1.0000 0.8056 1.0000 0.5694 1.0000 0.5694 0.2381 0.5694 0.2381 0.5694 0.2381 0.5694 1.0000 0.5694 1.0000 0.6389 0.2381 0.5694 0.2381 0.5694 0.2381 0.4306 0.2381 0.4306 0.2381 0.3611 0.2381 0.4306 0.2381 0.4306 0.2381 0.4306 0.2381 0.4306 0.2381 0.4306 0.2381 0.5694 0.2381 0.5694 0.2381 0.4306 0.2381 0.5694 0.2381 0.5694 0.2381 0.5694 0.2381 0.5694 0.2381 0.5694 0.2381 0.5694 0.2381 0.6389 0.2381 0.6389 0.2381 0.5694 0.2381 0.6389 0.2381 0.3611 0.2381 0.4306 0.2381 0.3611 0.2381 0.4306 0.2381 0.3611 0.2381 0.4306 0.2381 0.6389 0.2381 0.6389 0.0000 0.6389 0.2381 0.6389 0.0000 0.6389 0.2381 0.6389 0.0000 0.7778 0.0000 0.6389 0.0000 0.6389 0.0000 0.6389 0.0000 0.7778 0.0000 0.7778 0.0000 0.8667 0.0429 0.7778 0.0000 0.7778 0.0000 0.7778 0.0000 0.8667 0.0429 0.8667 0.0429 0.9333 0.1286 0.8667 0.0429 0.8667 0.0429 0.8667 0.0429 0.9333 0.1286 0.9333 0.1286 0.9778 0.2571 0.9333 0.1286 0.9333 0.1286 0.9333 0.1286 0.9778 0.2571 0.9778 0.2571 0.9778 0.2571 1.0000 0.4286 0.9778 0.2571 1.0000 0.4286 0.9778 0.2571 1.0000 0.4286 1.0000 0.4286 1.0000 0.7143 1.0000 0.4286 1.0000 0.7143 1.0000 0.4286 1.0000 0.7143 0.8333 0.7143 1.0000 0.7143 0.8333 0.7143 1.0000 0.7143 0.8333 0.7143 0.8333 0.7143 1.0000 0.7143 0.8333 0.7143 0.8333 0.7143 1.0000 0.7143 0.8333 0.7143 1.0000 0.7143 0.8333 0.7143 0.8278 0.6429 0.8278 0.6429 0.8278 0.6429 0.8333 0.7143 0.8333 0.7143 0.8278 0.6429 0.8125 0.5906 0.8125 0.5906 0.8125 0.5906 0.8278 0.6429 0.8278 0.6429 0.7917 0.5714 0.8125 0.5906 0.7917 0.5714 0.8125 0.5906 0.7917 0.5714 0.8125 0.5906 0.8333 0.7143 0.8297 0.7863 0.8333 0.7143 0.8297 0.7863 0.8333 0.7143 0.8297 0.7863 0.8297 0.7863 0.8202 0.8516 0.8202 0.8516 0.8202 0.8516 0.8297 0.7863 0.8297 0.7863 0.8202 0.8516 0.8056 0.9048 0.8056 0.9048 0.8056 0.9048 0.8202 0.8516 0.8202 0.8516 0.8056 0.9048 0.8056 1.0000 0.8056 0.9048 0.8056 1.0000 0.8056 0.9048 0.8056 1.0000 0.0000 0.7143 0.2083 0.5714 0.0000 0.4286 0.2083 0.5714 0.0000 0.7143 0.1875 0.5906 0.1875 0.5906 0.0000 0.7143 0.1722 0.6429 0.1722 0.6429 0.0000 0.7143 0.1667 0.7143 0.1333 0.0429 0.3611 0.0000 0.2222 0.0000 0.3611 0.0000 0.1333 0.0429 0.3611 0.2381 0.3611 0.2381 0.1333 0.0429 0.0667 0.1286 0.3611 0.2381 0.0667 0.1286 0.0222 0.2571 0.3611 0.2381 0.0222 0.2571 0.4306 0.2381 0.4306 0.2381 0.0222 0.2571 0.3750 0.5714 0.4306 0.2381 0.3750 0.5714 0.3958 0.5906 0.4306 0.2381 0.3958 0.5906 0.4111 0.6429 0.4306 0.2381 0.4111 0.6429 0.4167 0.7143 0.4306 0.2381 0.4167 0.7143 0.4306 1.0000 0.3750 0.5714 0.0222 0.2571 0.0000 0.4286 0.3750 0.5714 0.0000 0.4286 0.2083 0.5714 0.4306 1.0000 0.4167 0.7143 0.4131 0.7863 0.4306 1.0000 0.4131 0.7863 0.4035 0.8516 0.4306 1.0000 0.4035 0.8516 0.3889 0.9048 0.4306 1.0000 0.3889 0.9048 0.3889 1.0000 0.3889 1.0000 0.3889 0.9048 0.3889 0.9048 0.3889 0.9048 0.3889 1.0000 0.3889 1.0000 0.1875 0.5906 0.3750 0.5714 0.2083 0.5714 0.3750 0.5714 0.1875 0.5906 0.3958 0.5906 0.3958 0.5906 0.1875 0.5906 0.1722 0.6429 0.3958 0.5906 0.1722 0.6429 0.4111 0.6429 0.4111 0.6429 0.1722 0.6429 0.1667 0.7143 0.4111 0.6429 0.1667 0.7143 0.4167 0.7143 0.4167 0.7143 0.1667 0.7143 0.4131 0.7863 0.4131 0.7863 0.1667 0.7143 0.1703 0.7863 0.4131 0.7863 0.1703 0.7863 0.4035 0.8516 0.4035 0.8516 0.1703 0.7863 0.1798 0.8516 0.4035 0.8516 0.1798 0.8516 0.3889 0.9048 0.3889 0.9048 0.1798 0.8516 0.1944 0.9048 0.3889 0.9048 0.1944 0.9048 0.3889 1.0000 0.3889 1.0000 0.1944 0.9048 0.1944 1.0000 0.1944 1.0000 0.1944 0.9048 0.1944 0.9048 0.1944 0.9048 0.1944 1.0000 0.1944 1.0000 0.3958 0.5906 0.2083 0.5714 0.3750 0.5714 0.2083 0.5714 0.3958 0.5906 0.1875 0.5906 0.1875 0.5906 0.3958 0.5906 0.4111 0.6429 0.1875 0.5906 0.4111 0.6429 0.1722 0.6429 0.1722 0.6429 0.4111 0.6429 0.4167 0.7143 0.1722 0.6429 0.4167 0.7143 0.1667 0.7143 0.1667 0.7143 0.4167 0.7143 0.4131 0.7863 0.1667 0.7143 0.4131 0.7863 0.1703 0.7863 0.1703 0.7863 0.4131 0.7863 0.4035 0.8516 0.1703 0.7863 0.4035 0.8516 0.1798 0.8516 0.1798 0.8516 0.4035 0.8516 0.3889 0.9048 0.1798 0.8516 0.3889 0.9048 0.1944 0.9048 0.1944 0.9048 0.3889 0.9048 0.3889 1.0000 0.1944 0.9048 0.3889 1.0000 0.1944 1.0000 0.3889 1.0000 0.3889 0.9048 0.3889 0.9048 0.3889 0.9048 0.3889 1.0000 0.3889 1.0000 0.3611 0.2381 0.2222 0.0000 0.3611 0.0000 0.2222 0.0000 0.3611 0.2381 0.1333 0.0429 0.1333 0.0429 0.3611 0.2381 0.0667 0.1286 0.0667 0.1286 0.3611 0.2381 0.0222 0.2571 0.4306 0.2381 0.4111 0.6429 0.3611 0.2381 0.4111 0.6429 0.4306 0.2381 0.4167 0.7143 0.4167 0.7143 0.4306 0.2381 0.4306 1.0000 0.3611 0.2381 0.4111 0.6429 0.3958 0.5906 0.3611 0.2381 0.3958 0.5906 0.3750 0.5714 0.3611 0.2381 0.3750 0.5714 0.0222 0.2571 0.0222 0.2571 0.3750 0.5714 0.0000 0.4286 0.4167 0.7143 0.4306 1.0000 0.4131 0.7863 0.4131 0.7863 0.4306 1.0000 0.4035 0.8516 0.4035 0.8516 0.4306 1.0000 0.3889 0.9048 0.3889 0.9048 0.4306 1.0000 0.3889 1.0000 0.0000 0.4286 0.2083 0.5714 0.0000 0.7143 0.2083 0.5714 0.0000 0.4286 0.3750 0.5714 0.0000 0.7143 0.2083 0.5714 0.1875 0.5906 0.0000 0.7143 0.1875 0.5906 0.1722 0.6429 0.0000 0.7143 0.1722 0.6429 0.1667 0.7143 0.4306 0.2381 0.4306 1.0000 0.4306 0.2381 0.4306 1.0000 0.4306 0.2381 0.4306 1.0000 0.5694 1.0000 0.4306 0.2381 0.5694 0.2381 0.4306 0.2381 0.5694 1.0000 0.4306 1.0000 0.6042 0.5906 0.7917 0.5714 0.6250 0.5714 0.7917 0.5714 0.6042 0.5906 0.8125 0.5906 0.8125 0.5906 0.6042 0.5906 0.5889 0.6429 0.8125 0.5906 0.5889 0.6429 0.8278 0.6429 0.8278 0.6429 0.5889 0.6429 0.5833 0.7143 0.8278 0.6429 0.5833 0.7143 0.8333 0.7143 0.8333 0.7143 0.5833 0.7143 0.5869 0.7863 0.8333 0.7143 0.5869 0.7863 0.8297 0.7863 0.8297 0.7863 0.5869 0.7863 0.5965 0.8516 0.8297 0.7863 0.5965 0.8516 0.8202 0.8516 0.8202 0.8516 0.5965 0.8516 0.6111 0.9048 0.8202 0.8516 0.6111 0.9048 0.8056 0.9048 0.8056 0.9048 0.6111 0.9048 0.6111 1.0000 0.8056 0.9048 0.6111 1.0000 0.8056 1.0000 0.6111 0.9048 0.6111 1.0000 0.6111 0.9048 0.6111 1.0000 0.6111 0.9048 0.6111 1.0000 0.6389 0.0000 0.8667 0.0429 0.7778 0.0000 0.8667 0.0429 0.6389 0.0000 0.6389 0.2381 0.8667 0.0429 0.6389 0.2381 0.9333 0.1286 0.9333 0.1286 0.6389 0.2381 0.9778 0.2571 0.5694 0.2381 0.5889 0.6429 0.6389 0.2381 0.5889 0.6429 0.5694 0.2381 0.5833 0.7143 0.5833 0.7143 0.5694 0.2381 0.5694 1.0000 0.6389 0.2381 0.5889 0.6429 0.6042 0.5906 0.6389 0.2381 0.6042 0.5906 0.6250 0.5714 0.6389 0.2381 0.6250 0.5714 0.9778 0.2571 0.9778 0.2571 0.6250 0.5714 1.0000 0.4286 0.5833 0.7143 0.5694 1.0000 0.5869 0.7863 0.5869 0.7863 0.5694 1.0000 0.5965 0.8516 0.5965 0.8516 0.5694 1.0000 0.6111 0.9048 0.6111 0.9048 0.5694 1.0000 0.6111 1.0000 1.0000 0.4286 0.7917 0.5714 1.0000 0.7143 0.7917 0.5714 1.0000 0.4286 0.6250 0.5714 1.0000 0.7143 0.7917 0.5714 0.8125 0.5906 1.0000 0.7143 0.8125 0.5906 0.8278 0.6429 1.0000 0.7143 0.8278 0.6429 0.8333 0.7143 0.5694 1.0000 0.5694 0.2381 0.5694 1.0000 0.5694 0.2381 0.5694 1.0000 0.5694 0.2381 0.4306 1.0000 0.5694 0.2381 0.4306 0.2381 0.5694 0.2381 0.4306 1.0000 0.5694 1.0000 0.4306 0.2381 0.4306 1.0000 0.4306 1.0000 0.4306 1.0000 0.4306 0.2381 0.4306 0.2381 0.3611 0.0000 0.3611 0.2381 0.3611 0.2381 0.3611 0.2381 0.3611 0.0000 0.3611 0.0000 0.8333 0.7143 0.8278 0.6429 0.8278 0.6429 0.8278 0.6429 0.8333 0.7143 0.8333 0.7143 0.4167 0.7143 0.4111 0.6429 0.4167 0.7143 0.4111 0.6429 0.4167 0.7143 0.4111 0.6429 0.4131 0.7863 0.4167 0.7143 0.4167 0.7143 0.4167 0.7143 0.4131 0.7863 0.4131 0.7863 0.4035 0.8516 0.4131 0.7863 0.4035 0.8516 0.4131 0.7863 0.4035 0.8516 0.4131 0.7863 0.3889 0.9048 0.4035 0.8516 0.3889 0.9048 0.4035 0.8516 0.3889 0.9048 0.4035 0.8516 0.3611 0.0000 0.2222 0.0000 0.2222 0.0000 0.2222 0.0000 0.3611 0.0000 0.3611 0.0000 0.2222 0.0000 0.1333 0.0429 0.1333 0.0429 0.1333 0.0429 0.2222 0.0000 0.2222 0.0000 0.1333 0.0429 0.0667 0.1286 0.0667 0.1286 0.0667 0.1286 0.1333 0.0429 0.1333 0.0429 0.0667 0.1286 0.0222 0.2571 0.0222 0.2571 0.0222 0.2571 0.0667 0.1286 0.0667 0.1286 0.0000 0.4286 0.0222 0.2571 0.0222 0.2571 0.0222 0.2571 0.0000 0.4286 0.0000 0.4286 0.0000 0.7143 0.0000 0.4286 0.0000 0.7143 0.0000 0.4286 0.0000 0.7143 0.0000 0.4286 0.1667 0.7143 0.1667 0.7143 0.0000 0.7143 0.1667 0.7143 0.1667 0.7143 0.1667 0.7143 0.0000 0.7143 0.1667 0.7143 0.0000 0.7143 0.1667 0.7143 0.0000 0.7143 0.1667 0.7143 0.1722 0.6429 0.1667 0.7143 0.1722 0.6429 0.1667 0.7143 0.1722 0.6429 0.1667 0.7143 0.1875 0.5906 0.1722 0.6429 0.1875 0.5906 0.1722 0.6429 0.1875 0.5906 0.1722 0.6429 0.2083 0.5714 0.1875 0.5906 0.1875 0.5906 0.1875 0.5906 0.2083 0.5714 0.2083 0.5714 0.3750 0.5714 0.2083 0.5714 0.2083 0.5714 0.2083 0.5714 0.3750 0.5714 0.3750 0.5714 0.3958 0.5906 0.3750 0.5714 0.3750 0.5714 0.3750 0.5714 0.3958 0.5906 0.3958 0.5906 0.4111 0.6429 0.3958 0.5906 0.4111 0.6429 0.3958 0.5906 0.4111 0.6429 0.3958 0.5906 0.1703 0.7863 0.1667 0.7143 0.1667 0.7143 0.1667 0.7143 0.1703 0.7863 0.1703 0.7863 0.1798 0.8516 0.1703 0.7863 0.1798 0.8516 0.1703 0.7863 0.1798 0.8516 0.1703 0.7863 0.1944 0.9048 0.1798 0.8516 0.1944 0.9048 0.1798 0.8516 0.1944 0.9048 0.1798 0.8516 0.1722 0.6429 0.1667 0.7143 0.1722 0.6429 0.1667 0.7143 0.1722 0.6429 0.1667 0.7143 0.1875 0.5906 0.1722 0.6429 0.1875 0.5906 0.1722 0.6429 0.1875 0.5906 0.1722 0.6429 0.2083 0.5714 0.1875 0.5906 0.1875 0.5906 0.1875 0.5906 0.2083 0.5714 0.2083 0.5714 0.3750 0.5714 0.2083 0.5714 0.2083 0.5714 0.2083 0.5714 0.3750 0.5714 0.3750 0.5714 0.3958 0.5906 0.3750 0.5714 0.3750 0.5714 0.3750 0.5714 0.3958 0.5906 0.3958 0.5906 0.4111 0.6429 0.3958 0.5906 0.4111 0.6429 0.3958 0.5906 0.4111 0.6429 0.3958 0.5906 0.4167 0.7143 0.4111 0.6429 0.4167 0.7143 0.4111 0.6429 0.4167 0.7143 0.4111 0.6429 0.4131 0.7863 0.4167 0.7143 0.4167 0.7143 0.4167 0.7143 0.4131 0.7863 0.4131 0.7863 0.4035 0.8516 0.4131 0.7863 0.4035 0.8516 0.4131 0.7863 0.4035 0.8516 0.4131 0.7863 0.3889 0.9048 0.4035 0.8516 0.3889 0.9048 0.4035 0.8516 0.3889 0.9048 0.4035 0.8516 0.8278 0.6429 0.8125 0.5906 0.8125 0.5906 0.8125 0.5906 0.8278 0.6429 0.8278 0.6429 0.7917 0.5714 0.8125 0.5906 0.7917 0.5714 0.8125 0.5906 0.7917 0.5714 0.8125 0.5906 0.6250 0.5714 0.7917 0.5714 0.6250 0.5714 0.7917 0.5714 0.6250 0.5714 0.7917 0.5714 0.6042 0.5906 0.6250 0.5714 0.6042 0.5906 0.6250 0.5714 0.6042 0.5906 0.6250 0.5714 0.6042 0.5906 0.5889 0.6429 0.5889 0.6429 0.5889 0.6429 0.6042 0.5906 0.6042 0.5906 0.5889 0.6429 0.5833 0.7143 0.5833 0.7143 0.5833 0.7143 0.5889 0.6429 0.5889 0.6429 0.5833 0.7143 0.5869 0.7863 0.5833 0.7143 0.5869 0.7863 0.5833 0.7143 0.5869 0.7863 0.5869 0.7863 0.5965 0.8516 0.5965 0.8516 0.5965 0.8516 0.5869 0.7863 0.5869 0.7863 0.5965 0.8516 0.6111 0.9048 0.6111 0.9048 0.6111 0.9048 0.5965 0.8516 0.5965 0.8516 " />
						</IndexedFaceSet>
					</Shape>
				</Group>
			</Transform>
		</Transform>
	</Scene>
</X3D>