<?xml version="1.0" encoding="UTF-8"?>
<!DOCTYPE X3D PUBLIC "ISO//Web3D//DTD X3D 3.0//EN" "http://www.web3d.org/specifications/x3d-3.0.dtd">
<X3D version="3.0" profile="Immersive" xmlns:xsd="http://www.w3.org/2001/XMLSchema-instance" xsd:noNamespaceSchemaLocation="http://www.web3d.org/specifications/x3d-3.0.xsd">
	<head>
		<meta name="filename" content="02-1-2 華栱 騎槽檐栱.x3d" />
		<meta name="created" content="2025-12-28 15:26:28" />
		<meta name="generator" content="Blender 4.2.2 LTS" />
		<meta name="translator" content="Web3D X3D/VRML2 format v2.5.1" />
	</head>
	<Scene>
		<NavigationInfo headlight="true"
		                visibilityLimit="0.0"
		                type='"EXAMINE", "ANY"'
		                avatarSize="0.25, 1.75, 0.75"
		                />
		<Background DEF="WO_World"
		            groundColor="0.051 0.051 0.051"
		            skyColor="0.051 0.051 0.051"
		            />
		<Transform DEF="SketchUp_TRANSFORM"
		           translation="0.000000 0.000000 0.000000"
		           scale="0.025400 0.025400 0.025400"
		           rotation="-1.000000 0.000000 0.000000 1.570796"
		           >
			<Transform DEF="instance_0_TRANSFORM"
			           translation="0.000000 0.000000 0.000000"
			           scale="1.000000 1.000000 1.000000"
			           rotation="0.000000 1.000000 0.000000 0.000000"
			           >
				<Transform DEF="instance_0_ifs_TRANSFORM"
				           translation="0.000000 0.000000 0.000000"
				           scale="1.000000 1.000000 1.000000"
				           rotation="0.000000 1.000000 0.000000 0.000000"
				           >
					<Group DEF="group_ME_ID4_002">
						<Shape>
							<Appearance>
							</Appearance>
							<IndexedFaceSet solid="false"
							                coordIndex="0 1 2 -1 1 0 3 -1 4 5 6 -1 5 4 7 -1 8 4 9 -1 4 8 7 -1 7 8 10 -1 10 8 11 -1 11 8 12 -1 12 8 13 -1 13 8 14 -1 14 8 15 -1 11 12 16 -1 14 15 17 -1 17 15 18 -1 18 15 19 -1 19 15 20 -1 11 21 22 -1 21 11 23 -1 23 11 24 -1 24 11 25 -1 25 11 16 -1 22 21 26 -1 22 26 27 -1 22 27 28 -1 22 28 29 -1 30 31 32 -1 31 30 33 -1 33 30 34 -1 34 30 35 -1 36 37 38 -1 37 36 39 -1 40 41 42 -1 41 40 43 -1 41 43 44 -1 44 43 45 -1 46 43 47 -1 43 46 48 -1 43 48 45 -1 48 46 49 -1 50 51 52 -1 51 50 53 -1 51 53 54 -1 54 53 55 -1 56 57 58 -1 57 56 59 -1 57 59 60 -1 57 60 61 -1 61 60 62 -1 61 62 63 -1 64 65 66 -1 65 64 67 -1 65 67 68 -1 65 68 69 -1 69 68 70 -1 65 69 71 -1 69 72 71 -1 72 69 73 -1 63 64 61 -1 64 63 67 -1 53 56 55 -1 56 53 59 -1 49 74 48 -1 74 49 75 -1 76 77 78 -1 77 76 79 -1 77 79 80 -1 80 79 51 -1 80 51 81 -1 81 51 54 -1 74 82 83 -1 82 74 75 -1 82 75 78 -1 82 78 77 -1 84 85 86 -1 85 84 87 -1 88 89 90 -1 89 88 91 -1 92 93 94 -1 93 92 95 -1 96 97 98 -1 97 96 99 -1 100 101 102 -1 101 100 103 -1 104 105 106 -1 105 104 107 -1 108 109 110 -1 109 108 111 -1 109 111 112 -1 109 112 113 -1 114 115 116 -1 115 114 117 -1 118 119 120 -1 119 118 121 -1 122 123 124 -1 123 122 125 -1 126 127 128 -1 127 126 129 -1 130 131 132 -1 131 130 133 -1 134 135 136 -1 135 134 137 -1 138 139 140 -1 139 138 141 -1 142 143 144 -1 143 142 145 -1 146 147 148 -1 147 146 149 -1 150 151 152 -1 151 150 153 -1 152 154 155 -1 154 152 151 -1 156 154 157 -1 154 156 155 -1 158 159 160 -1 159 158 161 -1 162 163 164 -1 163 162 165 -1 162 87 84 -1 87 162 164 -1 166 167 168 -1 167 166 169 -1 169 166 170 -1 170 166 171 -1 170 171 172 -1 172 171 173 -1 173 171 174 -1 174 171 175 -1 166 176 177 -1 176 166 178 -1 178 166 179 -1 178 179 180 -1 178 180 181 -1 178 181 182 -1 179 166 183 -1 183 166 168 -1 182 181 184 -1 182 184 185 -1 182 185 186 -1 182 186 187 -1 188 189 190 -1 189 188 176 -1 189 176 191 -1 191 176 178 -1 192 193 194 -1 193 192 195 -1 196 197 198 -1 197 196 199 -1 200 201 202 -1 201 200 203 -1 204 205 206 -1 205 204 207 -1 208 209 210 -1 209 208 211 -1 211 208 212 -1 211 212 213 -1 213 212 214 -1 213 214 215 -1 215 214 216 -1 216 214 217 -1 216 217 218 -1 218 217 219 -1 218 219 220 -1 220 219 221 -1 220 221 222 -1 222 221 223 -1 224 225 226 -1 225 224 227 -1 228 229 230 -1 229 231 232 -1 231 229 233 -1 233 229 234 -1 234 229 235 -1 235 229 228 -1 235 228 236 -1 236 228 237 -1 237 228 238 -1 238 228 239 -1 239 228 240 -1 235 236 241 -1 239 240 242 -1 242 240 243 -1 243 240 244 -1 244 240 245 -1 241 246 247 -1 246 241 236 -1 247 246 248 -1 247 248 249 -1 247 249 250 -1 251 252 253 -1 252 251 254 -1 255 256 257 -1 256 255 258 -1 258 255 259 -1 260 261 262 -1 261 260 263 -1 264 265 266 -1 265 264 267 -1 267 264 268 -1 268 264 269 -1 268 269 270 -1 270 269 271 -1 271 269 272 -1 272 269 273 -1 264 274 275 -1 274 264 276 -1 276 264 277 -1 276 277 278 -1 276 278 279 -1 276 279 280 -1 277 264 281 -1 281 264 266 -1 280 279 282 -1 280 282 283 -1 280 283 284 -1 280 284 285 -1 286 287 288 -1 287 286 274 -1 287 274 289 -1 289 274 276 -1 290 291 292 -1 291 290 293 -1 294 295 296 -1 295 294 297 -1 297 294 298 -1 297 298 299 -1 299 298 300 -1 299 300 301 -1 301 300 302 -1 301 302 303 -1 303 302 304 -1 303 304 305 -1 305 304 306 -1 306 304 307 -1 306 307 308 -1 308 307 309 -1 310 311 312 -1 311 310 313 -1 314 315 316 -1 315 314 317 -1 318 319 320 -1 319 318 321 -1 322 323 324 -1 323 322 325 -1 326 327 328 -1 327 326 329 -1 329 326 330 -1 329 330 331 -1 331 330 332 -1 331 332 333 -1 333 332 334 -1 333 334 335 -1 335 334 336 -1 335 336 337 -1 337 336 338 -1 338 336 339 -1 338 339 340 -1 340 339 341 -1 342 343 344 -1 343 342 345 -1 346 347 348 -1 347 346 349 -1 350 351 352 -1 351 350 353 -1 354 355 356 -1 355 354 357 -1 358 359 360 -1 359 358 361 -1 362 363 364 -1 363 362 365 -1 365 362 366 -1 365 366 367 -1 367 366 368 -1 367 368 369 -1 369 368 370 -1 369 370 371 -1 371 370 372 -1 372 370 373 -1 372 373 374 -1 372 374 375 -1 375 374 376 -1 375 376 377 -1 378 379 380 -1 379 378 381 -1 382 378 383 -1 378 382 381 -1 381 382 384 -1 384 382 385 -1 385 382 386 -1 386 382 387 -1 387 382 388 -1 388 382 389 -1 385 386 390 -1 388 389 391 -1 391 389 392 -1 392 389 393 -1 393 389 394 -1 385 395 396 -1 395 385 397 -1 397 385 398 -1 398 385 399 -1 399 385 390 -1 396 395 400 -1 396 400 401 -1 396 401 402 -1 396 402 403 -1 404 405 406 -1 405 404 407 -1 408 409 410 -1 409 408 411 -1 411 408 412 -1 411 412 413 -1 413 412 414 -1 413 414 415 -1 415 414 416 -1 415 416 417 -1 417 416 418 -1 418 416 419 -1 418 419 420 -1 418 420 421 -1 421 420 422 -1 421 422 423 -1 424 425 426 -1 425 424 427 -1 428 429 430 -1 429 428 431 -1 432 433 434 -1 433 432 435 -1 435 432 436 -1 437 438 439 -1 438 437 440 -1 441 442 443 -1 442 441 444 -1 444 441 445 -1 445 441 446 -1 447 448 449 -1 448 447 450 -1 450 447 451 -1 450 451 452 -1 450 452 453 -1 453 452 454 -1 454 452 455 -1 454 455 456 -1 454 456 457 -1 454 457 458 -1 454 458 459 -1 455 452 443 -1 455 443 442 -1 459 458 460 -1 459 460 461 -1 459 461 462 -1 459 462 463 -1 464 465 466 -1 465 464 467 -1 468 469 470 -1 469 468 471 -1 471 468 472 -1 471 472 473 -1 473 472 474 -1 473 474 475 -1 475 474 476 -1 475 476 477 -1 477 476 478 -1 478 476 479 -1 478 479 480 -1 478 480 481 -1 481 480 482 -1 481 482 483 -1 484 485 486 -1 485 484 487 -1 488 489 490 -1 489 488 491 -1 492 491 488 -1 491 492 493 -1 492 494 493 -1 494 492 495 -1 496 497 498 -1 497 496 499 -1 500 501 502 -1 501 500 503 -1 504 501 503 -1 501 504 505 -1 506 505 504 -1 505 506 507 -1 508 509 510 -1 509 508 511 -1 512 513 514 -1 513 512 515 -1 516 517 518 -1 517 516 519 -1 520 521 522 -1 521 520 523 -1 524 525 526 -1 525 524 527 -1 528 529 530 -1 529 528 531 -1 532 533 534 -1 533 532 535 -1 533 535 536 -1 533 536 537 -1 538 539 540 -1 539 538 541 -1 542 543 544 -1 543 542 545 -1 546 547 548 -1 547 546 549 -1 550 551 552 -1 551 550 553 -1 554 555 556 -1 555 554 557 -1 558 559 560 -1 559 558 561 -1 562 563 564 -1 563 562 565 -1 564 566 567 -1 566 564 563 -1 568 566 569 -1 566 568 567 -1 570 571 572 -1 571 570 573 -1 574 575 576 -1 575 574 577 -1 574 578 579 -1 578 574 576 -1 579 580 581 -1 580 579 578 -1 582 583 584 -1 583 582 585 -1 583 585 586 -1 583 586 587 -1 588 589 590 -1 589 588 591 -1 592 593 594 -1 593 592 595 -1 596 597 598 -1 597 596 599 -1 600 601 602 -1 601 600 603 -1 604 605 606 -1 605 604 607 -1 608 609 610 -1 609 608 611 -1 612 613 614 -1 613 612 615 -1 616 617 618 -1 617 616 619 -1 620 621 622 -1 621 620 623 -1 621 623 624 -1 621 624 625 -1 626 627 628 -1 627 626 629 -1 630 631 632 -1 631 630 633 -1 634 635 636 -1 635 634 637 -1 637 634 638 -1 638 634 639 -1 640 641 642 -1 641 640 643 -1 644 643 640 -1 643 644 645 -1 644 646 645 -1 646 644 647 -1 648 649 650 -1 649 648 651 -1 652 653 654 -1 653 652 655 -1 656 653 655 -1 653 656 657 -1 658 657 656 -1 657 658 659 -1 660 661 662 -1 661 660 663 -1 664 665 666 -1 665 664 667 -1 668 669 670 -1 669 668 671 -1 672 673 674 -1 673 672 675 -1 676 677 678 -1 677 676 679 -1 680 681 682 -1 681 680 683 -1 684 685 686 -1 685 684 687 -1 688 689 690 -1 689 688 691 -1 692 693 694 -1 693 692 695 -1 696 697 698 -1 697 696 699 -1 700 701 702 -1 701 700 703 -1 704 705 706 -1 705 704 707 -1 708 709 710 -1 709 708 711 -1 712 713 714 -1 713 712 715 -1 716 717 718 -1 717 716 719 -1 720 721 722 -1 721 720 723 -1 724 725 726 -1 725 724 727 -1 728 729 730 -1 729 728 731 -1 732 733 734 -1 733 732 735 -1 734 736 737 -1 736 734 733 -1 738 736 739 -1 736 738 737 -1 740 741 742 -1 741 740 743 -1 744 745 746 -1 745 744 747 -1 744 707 704 -1 707 744 746 -1 748 749 750 -1 749 748 751 -1 752 753 754 -1 753 752 755 -1 756 757 758 -1 757 756 759 -1 760 761 762 -1 761 760 763 -1 764 765 766 -1 765 764 767 -1 766 768 769 -1 768 766 765 -1 770 768 771 -1 768 770 769 -1 772 773 774 -1 773 772 775 -1 776 777 778 -1 777 776 779 -1 776 751 748 -1 751 776 778 -1 "
							                >
								<Coordinate DEF="coords_ME_ID4_002"
								            point="9.842520 0.000000 1.968504 9.842520 0.393701 8.267716 9.842520 0.000000 8.267716 9.842520 0.393701 1.968504 8.661417 0.000000 1.574803 3.149606 0.000000 0.000000 8.661417 0.000000 0.000000 3.149606 0.000000 1.574803 9.842520 0.000000 1.968504 9.842520 0.000000 1.574803 1.968504 0.000000 1.574803 1.968504 0.000000 1.968504 8.858268 0.000000 4.882647 9.290582 0.000000 5.314961 9.448818 0.000000 5.905512 9.842520 0.000000 8.267716 8.267716 0.000000 4.724409 9.346420 0.000000 6.500865 9.076261 0.000000 7.041184 8.661417 0.000000 7.480315 8.661417 0.000000 8.267716 2.362205 0.000000 5.905512 1.968504 0.000000 8.267716 2.520442 0.000000 5.314961 2.952756 0.000000 4.882647 3.543307 0.000000 4.724409 2.464604 0.000000 6.500865 2.734763 0.000000 7.041184 3.149606 0.000000 7.480315 3.149606 0.000000 8.267716 9.842520 3.937008 1.574803 9.842520 0.000000 1.968504 9.842520 0.000000 1.574803 9.842520 0.393701 1.968504 9.842520 3.543307 1.968504 9.842520 3.937008 1.968504 13.779528 0.393701 8.267716 9.842520 0.393701 1.968504 13.779528 0.393701 1.968504 9.842520 0.393701 8.267716 0.000000 0.393701 8.267716 1.968504 3.543307 8.267716 0.000000 3.543307 8.267716 1.968504 0.393701 8.267716 1.968504 3.937008 8.267716 3.149606 3.937008 8.267716 3.149606 0.000000 8.267716 1.968504 0.000000 8.267716 3.149606 3.543307 8.267716 3.149606 0.393701 8.267716 14.960629 0.000000 8.267716 13.779528 0.393701 8.267716 13.779528 0.000000 8.267716 14.960629 0.393701 8.267716 14.960629 3.937008 8.267716 14.960629 3.543307 8.267716 20.472441 3.543307 8.267716 21.653543 3.937008 8.267716 20.472441 3.937008 8.267716 20.472441 0.393701 8.267716 20.472441 0.000000 8.267716 21.653543 3.543307 8.267716 21.653543 0.000000 8.267716 21.653543 0.393701 8.267716 25.590549 3.543307 8.267716 26.771652 3.937008 8.267716 25.590549 3.937008 8.267716 25.590549 0.393701 8.267716 25.590549 0.000000 8.267716 26.771652 0.393701 8.267716 26.771652 0.000000 8.267716 26.771652 3.543307 8.267716 32.283466 3.543307 8.267716 32.283466 0.393701 8.267716 8.661417 3.543307 8.267716 8.661417 0.393701 8.267716 9.842520 0.000000 8.267716 9.842520 3.543307 8.267716 8.661417 0.000000 8.267716 9.842520 0.393701 8.267716 13.779528 3.543307 8.267716 13.779528 3.937008 8.267716 9.842520 3.937008 8.267716 8.661417 3.937008 8.267716 2.520442 0.000000 5.314961 2.362205 0.393701 5.905512 2.362205 0.000000 5.905512 2.520442 0.393701 5.314961 2.362205 0.393701 5.905512 2.464604 0.000000 6.500865 2.362205 0.000000 5.905512 2.464604 0.393701 6.500865 2.464604 0.000000 6.500865 2.734763 0.393701 7.041184 2.734763 0.000000 7.041184 2.464604 0.393701 6.500865 2.734763 0.000000 7.041184 3.149606 0.393701 7.480315 3.149606 0.000000 7.480315 2.734763 0.393701 7.041184 3.149606 0.393701 7.480315 3.149606 0.000000 8.267716 3.149606 0.000000 7.480315 3.149606 0.393701 8.267716 1.968504 0.393701 8.267716 1.968504 0.000000 1.968504 1.968504 0.000000 8.267716 1.968504 0.393701 1.968504 1.968504 0.000000 1.968504 1.968504 3.937008 1.574803 1.968504 0.000000 1.574803 1.968504 0.393701 1.968504 1.968504 3.543307 1.968504 1.968504 3.937008 1.968504 3.149606 3.937008 1.574803 1.968504 0.000000 1.574803 1.968504 3.937008 1.574803 3.149606 0.000000 1.574803 3.149606 3.937008 1.574803 3.149606 0.000000 0.000000 3.149606 0.000000 1.574803 3.149606 3.937008 0.000000 8.661417 3.937008 0.000000 3.149606 0.000000 0.000000 3.149606 3.937008 0.000000 8.661417 0.000000 0.000000 8.661417 3.937008 0.000000 8.661417 0.000000 1.574803 8.661417 0.000000 0.000000 8.661417 3.937008 1.574803 9.842520 3.937008 1.574803 8.661417 0.000000 1.574803 8.661417 3.937008 1.574803 9.842520 0.000000 1.574803 8.661417 0.000000 8.267716 8.661417 0.393701 7.480315 8.661417 0.000000 7.480315 8.661417 0.393701 8.267716 8.661417 0.393701 7.480315 9.076261 0.000000 7.041184 8.661417 0.000000 7.480315 9.076261 0.393701 7.041184 9.076261 0.393701 7.041184 9.346420 0.000000 6.500865 9.076261 0.000000 7.041184 9.346420 0.393701 6.500865 9.346420 0.000000 6.500865 9.448818 0.393701 5.905512 9.448818 0.000000 5.905512 9.346420 0.393701 6.500865 9.448818 0.000000 5.905512 9.290582 0.393701 5.314961 9.290582 0.000000 5.314961 9.448818 0.393701 5.905512 8.858268 0.393701 4.882647 8.858268 0.000000 4.882647 8.267716 0.000000 4.724409 8.267716 0.393701 4.724409 3.543307 0.000000 4.724409 8.267716 0.393701 4.724409 3.543307 0.393701 4.724409 8.267716 0.000000 4.724409 2.952756 0.000000 4.882647 3.543307 0.393701 4.724409 2.952756 0.393701 4.882647 3.543307 0.000000 4.724409 1.968504 3.937008 1.968504 2.952756 3.937008 4.882647 3.543307 3.937008 4.724409 2.520442 3.937008 5.314960 2.362205 3.937008 5.905512 1.968504 3.937008 8.267716 2.464604 3.937008 6.500865 2.734763 3.937008 7.041184 3.149606 3.937008 7.480315 3.149606 3.937008 8.267716 3.149606 3.937008 1.574803 1.968504 3.937008 1.574803 9.842520 3.937008 1.968504 8.858268 3.937008 4.882647 9.290582 3.937008 5.314960 9.448818 3.937008 5.905512 9.842520 3.937008 8.267716 8.267716 3.937008 4.724409 9.346420 3.937008 6.500865 9.076261 3.937008 7.041184 8.661417 3.937008 7.480315 8.661417 3.937008 8.267716 3.149606 3.937008 0.000000 8.661417 3.937008 1.574803 8.661417 3.937008 0.000000 9.842520 3.937008 1.574803 9.842520 3.937008 1.968504 9.842520 3.543307 8.267716 9.842520 3.543307 1.968504 9.842520 3.937008 8.267716 13.779528 3.543307 1.968504 9.842520 0.393701 1.968504 9.842520 3.543307 1.968504 13.779528 0.393701 1.968504 13.779528 0.393701 8.267716 13.779528 0.000000 1.968504 13.779528 0.000000 8.267716 13.779528 0.393701 1.968504 32.283466 3.543307 7.480315 32.283466 0.393701 8.267716 32.283466 0.393701 7.480315 32.283466 3.543307 8.267716 26.574804 3.543307 4.882647 31.889765 3.543307 4.724409 27.165354 3.543307 4.724409 32.480312 3.543307 4.882647 26.142488 3.543307 5.314961 32.912628 3.543307 5.314961 25.984251 3.543307 5.905512 33.070866 3.543307 5.905511 32.968468 3.543307 6.500865 26.086651 3.543307 6.500865 32.698307 3.543307 7.041184 26.356810 3.543307 7.041184 32.283466 3.543307 7.480315 26.771652 3.543307 7.480315 32.283466 3.543307 8.267716 26.771652 3.543307 8.267716 26.771652 3.937008 7.480315 26.771652 3.543307 8.267716 26.771652 3.543307 7.480315 26.771652 3.937008 8.267716 25.590551 3.937008 1.968504 26.771652 3.937008 1.574803 25.590551 3.937008 1.574803 31.496063 3.937008 0.000000 26.771652 3.937008 0.000000 34.015747 3.937008 0.354331 35.905510 3.937008 1.062992 37.165352 3.937008 2.125984 27.165354 3.937008 4.724409 26.574804 3.937008 4.882647 26.142488 3.937008 5.314961 25.984251 3.937008 5.905512 25.590549 3.937008 8.267716 37.795273 3.937008 3.543307 26.086651 3.937008 6.500865 26.356810 3.937008 7.041184 26.771652 3.937008 7.480315 26.771652 3.937008 8.267716 31.889765 3.937008 4.724409 37.795277 3.937008 5.905512 32.480312 3.937008 4.882647 32.912628 3.937008 5.314961 33.070866 3.937008 5.905511 25.590549 3.937008 8.267716 25.590549 3.543307 1.968504 25.590549 3.543307 8.267716 25.590551 3.937008 1.968504 21.653543 3.543307 8.267716 23.622046 3.543307 1.968504 21.653543 3.543307 1.968504 25.590549 3.543307 1.968504 25.590549 3.543307 8.267716 21.653543 3.937008 1.968504 21.653543 3.543307 8.267716 21.653543 3.543307 1.968504 21.653543 3.937008 8.267716 13.779528 3.937008 1.968504 14.763780 3.937008 4.882647 15.354331 3.937008 4.724409 14.331466 3.937008 5.314961 14.173228 3.937008 5.905512 13.779528 3.937008 8.267716 14.275627 3.937008 6.500865 14.545787 3.937008 7.041184 14.960629 3.937008 7.480315 14.960629 3.937008 8.267716 14.960629 3.937008 1.574803 13.779528 3.937008 1.574803 21.653543 3.937008 1.968504 20.669292 3.937008 4.882647 21.101604 3.937008 5.314961 21.259842 3.937008 5.905512 21.653543 3.937008 8.267716 20.078739 3.937008 4.724409 21.157444 3.937008 6.500865 20.887283 3.937008 7.041184 20.472441 3.937008 7.480315 20.472441 3.937008 8.267716 14.960629 3.937008 0.000000 20.472441 3.937008 1.574803 20.472441 3.937008 0.000000 21.653543 3.937008 1.574803 20.472441 3.543307 8.267716 20.472441 3.937008 7.480315 20.472441 3.543307 7.480315 20.472441 3.937008 8.267716 14.763780 3.543307 4.882647 20.078739 3.543307 4.724409 15.354330 3.543307 4.724409 20.669291 3.543307 4.882647 14.331466 3.543307 5.314961 21.101604 3.543307 5.314961 14.173228 3.543307 5.905512 21.259842 3.543307 5.905512 14.275627 3.543307 6.500865 21.157444 3.543307 6.500865 14.545787 3.543307 7.041184 20.887283 3.543307 7.041184 20.472441 3.543307 7.480315 14.960629 3.543307 7.480315 20.472441 3.543307 8.267716 14.960629 3.543307 8.267716 14.960629 3.937008 7.480315 14.960629 3.543307 8.267716 14.960629 3.543307 7.480315 14.960629 3.937008 8.267716 13.779528 3.937008 8.267716 13.779528 3.543307 1.968504 13.779528 3.543307 8.267716 13.779528 3.937008 1.968504 9.842520 3.543307 8.267716 13.779528 3.543307 1.968504 9.842520 3.543307 1.968504 13.779528 3.543307 8.267716 8.661417 3.543307 8.267716 8.661417 3.937008 7.480315 8.661417 3.543307 7.480315 8.661417 3.937008 8.267716 2.952756 3.543307 4.882647 8.267716 3.543307 4.724409 3.543307 3.543307 4.724409 8.858268 3.543307 4.882647 2.520442 3.543307 5.314961 9.290582 3.543307 5.314961 2.362205 3.543307 5.905512 9.448818 3.543307 5.905512 2.464604 3.543307 6.500865 9.346419 3.543307 6.500865 2.734763 3.543307 7.041184 9.076261 3.543307 7.041184 8.661417 3.543307 7.480315 3.149606 3.543307 7.480315 8.661417 3.543307 8.267716 3.149606 3.543307 8.267716 3.149606 3.937008 7.480315 3.149606 3.543307 8.267716 3.149606 3.543307 7.480315 3.149606 3.937008 8.267716 1.968504 3.937008 8.267716 1.968504 3.543307 1.968504 1.968504 3.543307 8.267716 1.968504 3.937008 1.968504 0.000000 3.543307 8.267716 1.968504 3.543307 1.968504 0.000000 3.543307 1.968504 1.968504 3.543307 8.267716 0.000000 3.543307 8.267716 0.000000 0.393701 1.968504 0.000000 0.393701 8.267716 0.000000 3.543307 1.968504 1.968504 0.393701 8.267716 0.000000 0.393701 1.968504 1.968504 0.393701 1.968504 0.000000 0.393701 8.267716 8.858268 0.393701 4.882647 3.543307 0.393701 4.724409 8.267716 0.393701 4.724409 2.952756 0.393701 4.882647 9.290582 0.393701 5.314961 2.520442 0.393701 5.314961 9.448818 0.393701 5.905512 2.362205 0.393701 5.905512 9.346420 0.393701 6.500865 2.464604 0.393701 6.500865 2.734763 0.393701 7.041184 9.076261 0.393701 7.041184 8.661417 0.393701 7.480315 3.149606 0.393701 7.480315 8.661417 0.393701 8.267716 3.149606 0.393701 8.267716 20.472441 0.000000 1.574803 14.960629 0.000000 0.000000 20.472441 0.000000 0.000000 14.960629 0.000000 1.574803 21.653543 0.000000 1.968504 21.653543 0.000000 1.574803 13.779528 0.000000 1.574803 13.779528 0.000000 1.968504 20.669291 0.000000 4.882647 21.101604 0.000000 5.314961 21.259842 0.000000 5.905512 21.653543 0.000000 8.267716 20.078739 0.000000 4.724409 21.157444 0.000000 6.500865 20.887283 0.000000 7.041184 20.472441 0.000000 7.480315 20.472441 0.000000 8.267716 14.173227 0.000000 5.905512 13.779528 0.000000 8.267716 14.331466 0.000000 5.314961 14.763780 0.000000 4.882647 15.354331 0.000000 4.724409 14.275627 0.000000 6.500865 14.545787 0.000000 7.041184 14.960629 0.000000 7.480315 14.960629 0.000000 8.267716 14.960629 0.393701 7.480315 14.960629 0.000000 8.267716 14.960629 0.000000 7.480315 14.960629 0.393701 8.267716 20.669291 0.393701 4.882647 15.354331 0.393701 4.724409 20.078739 0.393701 4.724409 14.763780 0.393701 4.882647 21.101604 0.393701 5.314961 14.331466 0.393701 5.314961 21.259842 0.393701 5.905512 14.173228 0.393701 5.905512 21.157444 0.393701 6.500865 14.275627 0.393701 6.500865 14.545787 0.393701 7.041184 20.887283 0.393701 7.041184 20.472441 0.393701 7.480315 14.960629 0.393701 7.480315 20.472441 0.393701 8.267716 14.960629 0.393701 8.267716 20.472441 0.000000 8.267716 20.472441 0.393701 7.480315 20.472441 0.000000 7.480315 20.472441 0.393701 8.267716 21.653543 0.000000 1.968504 21.653543 0.393701 8.267716 21.653543 0.000000 8.267716 21.653543 0.393701 1.968504 25.590549 0.393701 8.267716 23.622046 0.393701 1.968504 25.590549 0.393701 1.968504 21.653543 0.393701 1.968504 21.653543 0.393701 8.267716 25.590549 0.393701 8.267716 25.590549 0.000000 1.968504 25.590549 0.000000 8.267716 25.590549 0.393701 1.968504 37.795273 0.000000 5.905512 31.889765 0.000000 4.724409 37.795273 0.000000 3.543307 32.480312 0.000000 4.882647 32.912628 0.000000 5.314961 33.070866 0.000000 5.905512 34.015747 0.000000 0.354331 26.771652 0.000000 0.000000 31.496063 0.000000 0.000000 26.771652 0.000000 1.574803 35.905510 0.000000 1.062992 37.165352 0.000000 2.125984 25.590549 0.000000 1.574803 25.590549 0.000000 1.968504 27.165354 0.000000 4.724409 26.574804 0.000000 4.882647 26.142488 0.000000 5.314961 25.984251 0.000000 5.905512 25.590549 0.000000 8.267716 26.086651 0.000000 6.500865 26.356810 0.000000 7.041184 26.771652 0.000000 7.480315 26.771652 0.000000 8.267716 26.771652 0.393701 7.480315 26.771652 0.000000 8.267716 26.771652 0.000000 7.480315 26.771652 0.393701 8.267716 32.480312 0.393701 4.882647 27.165354 0.393701 4.724409 31.889765 0.393701 4.724409 26.574804 0.393701 4.882647 32.912628 0.393701 5.314961 26.142488 0.393701 5.314961 33.070866 0.393701 5.905511 25.984251 0.393701 5.905511 32.968468 0.393701 6.500865 26.086651 0.393701 6.500865 26.356810 0.393701 7.041184 32.698307 0.393701 7.041184 32.283466 0.393701 7.480315 26.771652 0.393701 7.480315 32.283466 0.393701 8.267716 26.771652 0.393701 8.267716 1.968504 3.543307 1.968504 0.000000 0.393701 1.968504 0.000000 3.543307 1.968504 1.968504 0.393701 1.968504 2.520442 3.543307 5.314961 2.362205 3.937008 5.905512 2.362205 3.543307 5.905512 2.520442 3.937008 5.314960 2.952756 3.543307 4.882647 2.952756 3.937008 4.882647 3.543307 3.937008 4.724409 3.543307 3.543307 4.724409 3.543307 3.543307 4.724409 8.267716 3.937008 4.724409 3.543307 3.937008 4.724409 8.267716 3.543307 4.724409 8.267716 3.543307 4.724409 8.858268 3.937008 4.882647 8.267716 3.937008 4.724409 8.858268 3.543307 4.882647 9.290582 3.543307 5.314961 9.290582 3.937008 5.314960 9.448818 3.543307 5.905512 9.448818 3.937008 5.905512 9.346419 3.543307 6.500865 9.448818 3.937008 5.905512 9.448818 3.543307 5.905512 9.346420 3.937008 6.500865 9.076261 3.937008 7.041184 9.346419 3.543307 6.500865 9.076261 3.543307 7.041184 9.346420 3.937008 6.500865 8.661417 3.937008 7.480315 9.076261 3.543307 7.041184 8.661417 3.543307 7.480315 9.076261 3.937008 7.041184 2.734763 3.543307 7.041184 3.149606 3.937008 7.480315 3.149606 3.543307 7.480315 2.734763 3.937008 7.041184 2.464604 3.543307 6.500865 2.734763 3.937008 7.041184 2.734763 3.543307 7.041184 2.464604 3.937008 6.500865 2.362205 3.937008 5.905512 2.464604 3.543307 6.500865 2.362205 3.543307 5.905512 2.464604 3.937008 6.500865 13.779528 0.000000 1.968504 13.779528 3.937008 1.574803 13.779528 0.000000 1.574803 13.779528 0.393701 1.968504 13.779528 3.543307 1.968504 13.779528 3.937008 1.968504 32.698307 0.393701 7.041184 32.283466 3.543307 7.480315 32.283466 0.393701 7.480315 32.698307 3.543307 7.041184 25.984251 3.937008 5.905512 26.086651 3.543307 6.500865 25.984251 3.543307 5.905512 26.086651 3.937008 6.500865 26.086651 3.543307 6.500865 26.356810 3.937008 7.041184 26.356810 3.543307 7.041184 26.086651 3.937008 6.500865 26.356810 3.543307 7.041184 26.771652 3.937008 7.480315 26.771652 3.543307 7.480315 26.356810 3.937008 7.041184 32.968468 0.393701 6.500865 32.698307 3.543307 7.041184 32.698307 0.393701 7.041184 32.968468 3.543307 6.500865 33.070866 3.543307 5.905511 32.968468 0.393701 6.500865 33.070866 0.393701 5.905511 32.968468 3.543307 6.500865 33.070866 3.543307 5.905511 32.912628 3.937008 5.314961 32.912628 3.543307 5.314961 33.070866 3.937008 5.905511 32.480312 3.937008 4.882647 32.480312 3.543307 4.882647 31.889765 3.543307 4.724409 31.889765 3.937008 4.724409 27.165354 3.543307 4.724409 31.889765 3.937008 4.724409 27.165354 3.937008 4.724409 31.889765 3.543307 4.724409 26.574804 3.543307 4.882647 27.165354 3.937008 4.724409 26.574804 3.937008 4.882647 27.165354 3.543307 4.724409 26.142488 3.937008 5.314961 26.142488 3.543307 5.314961 25.984251 3.937008 5.905512 25.984251 3.543307 5.905512 33.070866 3.543307 5.905511 37.795277 3.937008 5.905512 33.070866 3.937008 5.905511 33.070866 0.393701 5.905511 33.070866 0.000000 5.905512 37.795273 0.000000 5.905512 37.795273 3.937008 3.543307 37.795273 0.000000 5.905512 37.795273 0.000000 3.543307 37.795277 3.937008 5.905512 37.165352 3.937008 2.125984 37.795273 0.000000 3.543307 37.165352 0.000000 2.125984 37.795273 3.937008 3.543307 37.165352 3.937008 2.125984 35.905510 0.000000 1.062992 35.905510 3.937008 1.062992 37.165352 0.000000 2.125984 35.905510 3.937008 1.062992 34.015747 0.000000 0.354331 34.015747 3.937008 0.354331 35.905510 0.000000 1.062992 34.015747 3.937008 0.354331 31.496063 0.000000 0.000000 31.496063 3.937008 0.000000 34.015747 0.000000 0.354331 31.496063 3.937008 0.000000 26.771652 0.000000 0.000000 26.771652 3.937008 0.000000 31.496063 0.000000 0.000000 26.771652 3.937008 1.574803 26.771652 0.000000 0.000000 26.771652 0.000000 1.574803 26.771652 3.937008 0.000000 26.771652 3.937008 1.574803 25.590549 0.000000 1.574803 25.590551 3.937008 1.574803 26.771652 0.000000 1.574803 25.590549 0.000000 1.968504 25.590551 3.937008 1.574803 25.590549 0.000000 1.574803 25.590549 0.393701 1.968504 25.590549 3.543307 1.968504 25.590551 3.937008 1.968504 25.590549 3.543307 1.968504 23.622046 0.393701 1.968504 23.622046 3.543307 1.968504 25.590549 0.393701 1.968504 21.653543 3.543307 1.968504 23.622046 0.393701 1.968504 21.653543 0.393701 1.968504 23.622046 3.543307 1.968504 21.653543 3.937008 1.574803 21.653543 0.000000 1.968504 21.653543 0.000000 1.574803 21.653543 0.393701 1.968504 21.653543 3.543307 1.968504 21.653543 3.937008 1.968504 14.331466 3.543307 5.314961 14.173228 3.937008 5.905512 14.173228 3.543307 5.905512 14.331466 3.937008 5.314961 14.763780 3.543307 4.882647 14.763780 3.937008 4.882647 15.354331 3.937008 4.724409 15.354330 3.543307 4.724409 15.354330 3.543307 4.724409 20.078739 3.937008 4.724409 15.354331 3.937008 4.724409 20.078739 3.543307 4.724409 20.078739 3.543307 4.724409 20.669292 3.937008 4.882647 20.078739 3.937008 4.724409 20.669291 3.543307 4.882647 21.101604 3.543307 5.314961 21.101604 3.937008 5.314961 21.259842 3.543307 5.905512 21.259842 3.937008 5.905512 21.157444 3.543307 6.500865 21.259842 3.937008 5.905512 21.259842 3.543307 5.905512 21.157444 3.937008 6.500865 20.887283 3.937008 7.041184 21.157444 3.543307 6.500865 20.887283 3.543307 7.041184 21.157444 3.937008 6.500865 20.472441 3.937008 7.480315 20.887283 3.543307 7.041184 20.472441 3.543307 7.480315 20.887283 3.937008 7.041184 21.653543 3.937008 1.574803 20.472441 0.000000 1.574803 20.472441 3.937008 1.574803 21.653543 0.000000 1.574803 20.472441 3.937008 0.000000 20.472441 0.000000 1.574803 20.472441 0.000000 0.000000 20.472441 3.937008 1.574803 20.472441 3.937008 0.000000 14.960629 0.000000 0.000000 14.960629 3.937008 0.000000 20.472441 0.000000 0.000000 14.960629 3.937008 1.574803 14.960629 0.000000 0.000000 14.960629 0.000000 1.574803 14.960629 3.937008 0.000000 14.960629 3.937008 1.574803 13.779528 0.000000 1.574803 13.779528 3.937008 1.574803 14.960629 0.000000 1.574803 14.545787 3.543307 7.041184 14.960629 3.937008 7.480315 14.960629 3.543307 7.480315 14.545787 3.937008 7.041184 14.275627 3.543307 6.500865 14.545787 3.937008 7.041184 14.545787 3.543307 7.041184 14.275627 3.937008 6.500865 14.173228 3.937008 5.905512 14.275627 3.543307 6.500865 14.173228 3.543307 5.905512 14.275627 3.937008 6.500865 14.331466 0.000000 5.314961 14.173228 0.393701 5.905512 14.173227 0.000000 5.905512 14.331466 0.393701 5.314961 14.173228 0.393701 5.905512 14.275627 0.000000 6.500865 14.173227 0.000000 5.905512 14.275627 0.393701 6.500865 14.275627 0.000000 6.500865 14.545787 0.393701 7.041184 14.545787 0.000000 7.041184 14.275627 0.393701 6.500865 14.545787 0.000000 7.041184 14.960629 0.393701 7.480315 14.960629 0.000000 7.480315 14.545787 0.393701 7.041184 20.472441 0.393701 7.480315 20.887283 0.000000 7.041184 20.472441 0.000000 7.480315 20.887283 0.393701 7.041184 20.887283 0.393701 7.041184 21.157444 0.000000 6.500865 20.887283 0.000000 7.041184 21.157444 0.393701 6.500865 21.157444 0.000000 6.500865 21.259842 0.393701 5.905512 21.259842 0.000000 5.905512 21.157444 0.393701 6.500865 21.259842 0.000000 5.905512 21.101604 0.393701 5.314961 21.101604 0.000000 5.314961 21.259842 0.393701 5.905512 20.669291 0.393701 4.882647 20.669291 0.000000 4.882647 20.078739 0.000000 4.724409 20.078739 0.393701 4.724409 15.354331 0.000000 4.724409 20.078739 0.393701 4.724409 15.354331 0.393701 4.724409 20.078739 0.000000 4.724409 14.763780 0.000000 4.882647 15.354331 0.393701 4.724409 14.763780 0.393701 4.882647 15.354331 0.000000 4.724409 26.142488 0.000000 5.314961 25.984251 0.393701 5.905511 25.984251 0.000000 5.905512 26.142488 0.393701 5.314961 25.984251 0.393701 5.905511 26.086651 0.000000 6.500865 25.984251 0.000000 5.905512 26.086651 0.393701 6.500865 26.086651 0.000000 6.500865 26.356810 0.393701 7.041184 26.356810 0.000000 7.041184 26.086651 0.393701 6.500865 26.356810 0.000000 7.041184 26.771652 0.393701 7.480315 26.771652 0.000000 7.480315 26.356810 0.393701 7.041184 33.070866 0.000000 5.905512 32.912628 0.393701 5.314961 32.912628 0.000000 5.314961 33.070866 0.393701 5.905511 32.480312 0.393701 4.882647 32.480312 0.000000 4.882647 31.889765 0.000000 4.724409 31.889765 0.393701 4.724409 27.165354 0.000000 4.724409 31.889765 0.393701 4.724409 27.165354 0.393701 4.724409 31.889765 0.000000 4.724409 26.574804 0.000000 4.882647 27.165354 0.393701 4.724409 26.574804 0.393701 4.882647 27.165354 0.000000 4.724409 "
								            />
							</IndexedFaceSet>
						</Shape>
					</Group>
				</Transform>
			</Transform>
		</Transform>
	</Scene>
</X3D>