<?xml version="1.0" encoding="UTF-8"?>
<!DOCTYPE X3D PUBLIC "ISO//Web3D//DTD X3D 3.0//EN" "http://www.web3d.org/specifications/x3d-3.0.dtd">
<X3D version="3.0" profile="Immersive" xmlns:xsd="http://www.w3.org/2001/XMLSchema-instance" xsd:noNamespaceSchemaLocation="http://www.web3d.org/specifications/x3d-3.0.xsd">
	<head>
		<meta name="filename" content="02-1-3 華栱 丁頭栱.x3d" />
		<meta name="created" content="2025-12-28 15:26:56" />
		<meta name="generator" content="Blender 4.2.2 LTS" />
		<meta name="translator" content="Web3D X3D/VRML2 format v2.5.1" />
	</head>
	<Scene>
		<NavigationInfo headlight="true"
		                visibilityLimit="0.0"
		                type='"EXAMINE", "ANY"'
		                avatarSize="0.25, 1.75, 0.75"
		                />
		<Background DEF="WO_World"
		            groundColor="0.051 0.051 0.051"
		            skyColor="0.051 0.051 0.051"
		            />
		<Transform DEF="SketchUp_TRANSFORM"
		           translation="0.000000 0.000000 0.000000"
		           scale="0.025400 0.025400 0.025400"
		           rotation="-1.000000 0.000000 0.000000 1.570796"
		           >
			<Transform DEF="group_0_TRANSFORM"
			           translation="21.610237 21.043310 21.718504"
			           scale="1.000000 1.000000 1.000000"
			           rotation="-0.000000 0.707107 -0.707107 3.141593"
			           >
				<Transform DEF="group_1_TRANSFORM"
				           translation="-0.000004 -0.000002 -0.000002"
				           scale="1.000000 1.000000 1.000000"
				           rotation="0.000000 -0.000000 0.000000 0.000000"
				           >
					<Transform DEF="group_1_ifs_TRANSFORM"
					           translation="-0.000004 -0.000002 -0.000002"
					           scale="1.000000 1.000000 1.000000"
					           rotation="0.000000 -0.000000 0.000000 0.000000"
					           >
						<Group DEF="group_ME_ID4_003">
							<Shape>
								<Appearance>
									<Material DEF="MA_material_004"
									          diffuseColor="1.000 1.000 1.000"
									          specularColor="0.401 0.401 0.401"
									          emissiveColor="0.000 0.000 0.000"
									          ambientIntensity="0.000"
									          shininess="0.500"
									          transparency="0.000"
									          />
								</Appearance>
								<IndexedFaceSet solid="false"
								                coordIndex="0 1 2 -1 1 0 3 -1 4 3 0 -1 3 4 5 -1 2 6 7 -1 6 2 1 -1 8 5 4 -1 5 8 9 -1 7 10 11 -1 10 7 6 -1 12 8 13 -1 8 12 9 -1 11 14 15 -1 14 11 10 -1 16 13 17 -1 13 16 12 -1 14 18 15 -1 18 14 19 -1 20 17 21 -1 17 20 16 -1 19 22 18 -1 22 19 23 -1 23 24 22 -1 24 23 25 -1 "
								                >
									<Coordinate DEF="coords_ME_ID4_003"
									            point="8.556430 11.150955 0.000000 8.858268 8.858268 21.043308 8.858268 8.858268 0.000000 8.556430 11.150955 21.043308 7.671485 13.287402 0.000000 7.671485 13.287402 21.043308 8.556430 6.565579 21.043308 8.556430 6.565579 0.000000 6.263741 15.122009 0.000000 6.263741 15.122009 21.043308 7.671485 4.429134 21.043308 7.671485 4.429134 0.000000 4.429134 16.529751 21.043308 4.429134 16.529751 0.000000 6.263741 2.594527 21.043308 6.263741 2.594527 0.000000 2.292688 17.414696 21.043308 2.292688 17.414696 0.000000 4.429134 1.186783 0.000000 4.429134 1.186783 21.043308 0.000000 17.716536 21.043308 0.000000 17.716536 0.000000 2.292688 0.301838 0.000000 2.292688 0.301838 21.043308 0.000000 0.000000 0.000000 0.000000 0.000000 21.043308 "
									            />
								</IndexedFaceSet>
							</Shape>
						</Group>
					</Transform>
				</Transform>
				<Transform DEF="group_2_TRANSFORM"
				           translation="6.255903 6.889764 8.649606"
				           scale="1.000000 1.000000 1.000000"
				           rotation="0.000000 -0.000000 0.000000 0.000000"
				           >
					<Transform DEF="group_2_ifs_TRANSFORM"
					           translation="-0.000002 0.000000 -0.000001"
					           scale="1.000000 1.000000 1.000000"
					           rotation="0.000000 -0.000000 0.000000 0.000000"
					           >
						<Group DEF="group_ME_ID13_001">
							<Shape>
								<Appearance>
									<Material USE="MA_material_004" />
								</Appearance>
								<IndexedFaceSet solid="false"
								                coordIndex="0 1 2 -1 1 0 3 -1 4 5 6 -1 5 4 7 -1 8 9 10 -1 11 12 13 -1 12 11 10 -1 14 15 16 -1 15 14 17 -1 18 14 19 -1 14 18 17 -1 17 18 11 -1 11 18 10 -1 10 18 20 -1 10 20 8 -1 20 18 21 -1 21 22 20 -1 22 21 23 -1 24 25 26 -1 25 24 27 -1 28 29 30 -1 29 28 31 -1 32 33 34 -1 33 32 35 -1 36 35 37 -1 29 38 39 -1 38 29 31 -1 38 31 33 -1 38 33 35 -1 38 35 36 -1 40 41 42 -1 41 40 43 -1 44 45 46 -1 45 44 47 -1 47 44 48 -1 48 44 49 -1 46 45 50 -1 50 45 51 -1 51 45 52 -1 51 52 53 -1 53 52 54 -1 48 49 55 -1 55 49 56 -1 56 49 57 -1 57 49 58 -1 54 59 60 -1 59 54 52 -1 60 59 61 -1 60 61 62 -1 60 62 63 -1 64 65 66 -1 65 64 67 -1 68 69 70 -1 69 68 71 -1 72 73 74 -1 73 72 75 -1 76 77 78 -1 77 76 79 -1 80 81 82 -1 81 80 83 -1 84 85 86 -1 85 84 87 -1 87 84 88 -1 88 84 89 -1 90 91 92 -1 91 90 93 -1 91 93 94 -1 91 94 95 -1 91 95 96 -1 93 90 97 -1 93 97 98 -1 98 97 99 -1 98 99 86 -1 98 86 85 -1 96 95 100 -1 96 100 101 -1 96 101 102 -1 96 102 103 -1 104 105 106 -1 105 104 107 -1 108 109 110 -1 109 108 111 -1 111 108 112 -1 111 112 113 -1 113 112 114 -1 113 114 115 -1 115 114 116 -1 115 116 117 -1 117 116 118 -1 117 118 119 -1 119 118 120 -1 119 120 121 -1 121 120 122 -1 121 122 123 -1 124 125 126 -1 125 124 127 -1 128 129 130 -1 129 128 131 -1 131 128 132 -1 131 132 133 -1 133 132 134 -1 133 134 135 -1 135 134 136 -1 135 136 137 -1 137 136 138 -1 137 138 139 -1 139 138 140 -1 139 140 141 -1 141 140 142 -1 142 140 143 -1 144 145 146 -1 145 144 147 -1 148 149 150 -1 149 148 151 -1 152 153 154 -1 153 152 155 -1 156 157 158 -1 157 156 159 -1 160 159 156 -1 159 160 161 -1 160 162 161 -1 162 160 163 -1 164 165 166 -1 165 164 167 -1 168 169 170 -1 169 168 171 -1 172 169 171 -1 169 172 173 -1 174 173 172 -1 173 174 175 -1 176 177 178 -1 177 176 179 -1 177 179 180 -1 177 180 181 -1 182 183 184 -1 183 182 185 -1 186 187 188 -1 187 186 189 -1 190 191 192 -1 191 190 193 -1 194 195 196 -1 195 194 197 -1 198 199 200 -1 199 198 201 -1 202 203 204 -1 203 202 205 -1 206 207 208 -1 207 206 209 -1 210 211 212 -1 211 210 213 -1 214 215 216 -1 215 214 217 -1 218 219 220 -1 219 218 221 -1 222 223 224 -1 223 222 225 -1 224 226 227 -1 226 224 223 -1 228 226 229 -1 226 228 227 -1 230 231 232 -1 231 230 233 -1 234 235 236 -1 235 234 237 -1 234 209 206 -1 209 234 236 -1 238 239 240 -1 239 238 241 -1 242 243 244 -1 243 242 245 -1 246 247 248 -1 247 246 249 -1 "
								                >
									<Coordinate DEF="coords_ME_ID13_001"
									            point="0.000000 3.149606 8.267716 2.362205 3.149606 0.000000 0.000000 3.149606 0.000000 2.362205 3.149606 8.267716 0.000000 3.149606 8.267716 0.000000 2.362205 0.000000 0.000000 2.362205 8.267716 0.000000 3.149606 0.000000 3.543307 3.937008 8.267716 2.362205 3.937008 8.267716 2.362205 3.149606 8.267716 2.362205 2.362205 8.267716 0.000000 3.149606 8.267716 0.000000 2.362205 8.267716 2.362205 0.787402 8.267716 0.000000 1.574803 8.267716 0.000000 0.787402 8.267716 2.362205 1.574803 8.267716 3.543307 0.000000 8.267716 2.362205 0.000000 8.267716 3.543307 3.543307 8.267716 3.543307 0.393701 8.267716 9.842520 3.543307 8.267716 9.842520 0.393701 8.267716 2.362205 3.937008 8.267716 2.362205 3.149606 0.000000 2.362205 3.149606 8.267716 2.362205 3.937008 0.000000 0.000000 1.574803 0.000000 2.362205 0.787402 0.000000 0.000000 0.787402 0.000000 2.362205 1.574803 0.000000 0.000000 3.149606 0.000000 2.362205 2.362205 0.000000 0.000000 2.362205 0.000000 2.362205 3.149606 0.000000 9.055119 3.937008 0.000000 2.362205 3.937008 0.000000 9.055118 0.000000 0.000000 2.362205 0.000000 0.000000 2.362205 2.362205 8.267716 0.000000 2.362205 0.000000 2.362205 2.362205 0.000000 0.000000 2.362205 8.267716 2.362205 3.937008 0.000000 3.346457 3.937008 4.882647 9.055119 3.937008 0.000000 2.914143 3.937008 5.314960 2.755905 3.937008 5.905512 2.362205 3.937008 8.267716 11.574802 3.937008 0.354331 13.464566 3.937008 1.062992 3.937008 3.937008 4.724409 14.724409 3.937008 2.125984 15.354331 3.937008 3.543307 2.858305 3.937008 6.500865 3.128464 3.937008 7.041184 3.543307 3.937008 7.480315 3.543307 3.937008 8.267716 9.448818 3.937008 4.724409 15.354331 3.937008 5.905512 10.039370 3.937008 4.882647 10.471684 3.937008 5.314960 10.629921 3.937008 5.905512 2.362205 2.362205 8.267716 2.362205 1.574803 0.000000 2.362205 1.574803 8.267716 2.362205 2.362205 0.000000 0.000000 1.574803 8.267716 2.362205 1.574803 0.000000 0.000000 1.574803 0.000000 2.362205 1.574803 8.267716 0.000000 1.574803 8.267716 0.000000 0.787402 0.000000 0.000000 0.787402 8.267716 0.000000 1.574803 0.000000 2.362205 0.787402 8.267716 0.000000 0.787402 0.000000 2.362205 0.787402 0.000000 0.000000 0.787402 8.267716 2.362205 0.787402 8.267716 2.362205 0.000000 0.000000 2.362205 0.000000 8.267716 2.362205 0.787402 0.000000 15.354331 0.000000 5.905512 9.448818 0.000000 4.724409 15.354331 0.000000 3.543307 10.039370 0.000000 4.882647 10.471684 0.000000 5.314961 10.629921 0.000000 5.905512 11.574802 0.000000 0.354331 2.362205 0.000000 0.000000 9.055118 0.000000 0.000000 3.346457 0.000000 4.882647 2.914143 0.000000 5.314961 2.755905 0.000000 5.905512 2.362205 0.000000 8.267716 13.464566 0.000000 1.062992 3.937008 0.000000 4.724409 14.724409 0.000000 2.125984 2.858305 0.000000 6.500865 3.128464 0.000000 7.041184 3.543307 0.000000 7.480315 3.543307 0.000000 8.267716 3.543307 0.393701 7.480315 3.543307 0.000000 8.267716 3.543307 0.000000 7.480315 3.543307 0.393701 8.267716 10.039370 0.393701 4.882647 3.937008 0.393701 4.724409 9.448818 0.393701 4.724409 3.346457 0.393701 4.882647 10.471684 0.393701 5.314960 2.914143 0.393701 5.314960 10.629921 0.393701 5.905512 2.755905 0.393701 5.905512 10.527522 0.393701 6.500865 2.858305 0.393701 6.500865 10.257363 0.393701 7.041184 3.128464 0.393701 7.041184 9.842520 0.393701 7.480315 3.543307 0.393701 7.480315 9.842520 0.393701 8.267716 3.543307 0.393701 8.267716 9.842520 3.543307 7.480315 9.842520 0.393701 8.267716 9.842520 0.393701 7.480315 9.842520 3.543307 8.267716 3.346457 3.543307 4.882647 9.448818 3.543307 4.724409 3.937008 3.543307 4.724409 10.039370 3.543307 4.882647 2.914143 3.543307 5.314961 10.471684 3.543307 5.314961 2.755905 3.543307 5.905512 10.629921 3.543307 5.905512 2.858305 3.543307 6.500865 10.527522 3.543307 6.500865 3.128464 3.543307 7.041184 10.257363 3.543307 7.041184 3.543307 3.543307 7.480315 9.842520 3.543307 7.480315 9.842520 3.543307 8.267716 3.543307 3.543307 8.267716 3.543307 3.937008 7.480315 3.543307 3.543307 8.267716 3.543307 3.543307 7.480315 3.543307 3.937008 8.267716 11.574802 3.937008 0.354331 9.055118 0.000000 0.000000 9.055119 3.937008 0.000000 11.574802 0.000000 0.354331 2.755905 3.937008 5.905512 2.858305 3.543307 6.500865 2.755905 3.543307 5.905512 2.858305 3.937008 6.500865 2.914143 3.543307 5.314961 2.755905 3.937008 5.905512 2.755905 3.543307 5.905512 2.914143 3.937008 5.314960 3.346457 3.543307 4.882647 3.346457 3.937008 4.882647 3.937008 3.937008 4.724409 3.937008 3.543307 4.724409 3.937008 3.543307 4.724409 9.448818 3.937008 4.724409 3.937008 3.937008 4.724409 9.448818 3.543307 4.724409 9.448818 3.543307 4.724409 10.039370 3.937008 4.882647 9.448818 3.937008 4.724409 10.039370 3.543307 4.882647 10.471684 3.543307 5.314961 10.471684 3.937008 5.314960 10.629921 3.543307 5.905512 10.629921 3.937008 5.905512 10.629921 3.543307 5.905512 15.354331 3.937008 5.905512 10.629921 3.937008 5.905512 10.629921 0.393701 5.905512 10.629921 0.000000 5.905512 15.354331 0.000000 5.905512 15.354331 3.937008 3.543307 15.354331 0.000000 5.905512 15.354331 0.000000 3.543307 15.354331 3.937008 5.905512 14.724409 3.937008 2.125984 15.354331 0.000000 3.543307 14.724409 0.000000 2.125984 15.354331 3.937008 3.543307 14.724409 3.937008 2.125984 13.464566 0.000000 1.062992 13.464566 3.937008 1.062992 14.724409 0.000000 2.125984 13.464566 3.937008 1.062992 11.574802 0.000000 0.354331 11.574802 3.937008 0.354331 13.464566 0.000000 1.062992 3.128464 3.543307 7.041184 3.543307 3.937008 7.480315 3.543307 3.543307 7.480315 3.128464 3.937008 7.041184 2.858305 3.543307 6.500865 3.128464 3.937008 7.041184 3.128464 3.543307 7.041184 2.858305 3.937008 6.500865 2.914143 0.000000 5.314961 2.755905 0.393701 5.905512 2.755905 0.000000 5.905512 2.914143 0.393701 5.314960 2.755905 0.393701 5.905512 2.858305 0.000000 6.500865 2.755905 0.000000 5.905512 2.858305 0.393701 6.500865 2.858305 0.000000 6.500865 3.128464 0.393701 7.041184 3.128464 0.000000 7.041184 2.858305 0.393701 6.500865 3.128464 0.000000 7.041184 3.543307 0.393701 7.480315 3.543307 0.000000 7.480315 3.128464 0.393701 7.041184 10.629921 0.000000 5.905512 10.471684 0.393701 5.314960 10.471684 0.000000 5.314961 10.629921 0.393701 5.905512 10.039370 0.393701 4.882647 10.039370 0.000000 4.882647 9.448818 0.000000 4.724409 9.448818 0.393701 4.724409 3.937008 0.000000 4.724409 9.448818 0.393701 4.724409 3.937008 0.393701 4.724409 9.448818 0.000000 4.724409 3.346457 0.000000 4.882647 3.937008 0.393701 4.724409 3.346457 0.393701 4.882647 3.937008 0.000000 4.724409 10.629921 0.393701 5.905512 10.527522 3.543307 6.500865 10.527522 0.393701 6.500865 10.629921 3.543307 5.905512 10.527522 0.393701 6.500865 10.257363 3.543307 7.041184 10.257363 0.393701 7.041184 10.527522 3.543307 6.500865 10.257363 0.393701 7.041184 9.842520 3.543307 7.480315 9.842520 0.393701 7.480315 10.257363 3.543307 7.041184 "
									            />
								</IndexedFaceSet>
							</Shape>
						</Group>
					</Transform>
				</Transform>
			</Transform>
			<Transform DEF="group_3_TRANSFORM"
			           translation="26.149605 1.663386 0.000000"
			           scale="1.000000 1.000000 1.000000"
			           rotation="0.000000 1.000000 0.000000 0.000000"
			           >
				<Transform DEF="group_4_TRANSFORM"
				           translation="0.000002 0.000000 0.000000"
				           scale="1.000000 1.000000 1.000000"
				           rotation="0.000000 1.000000 0.000000 0.000000"
				           >
					<Transform DEF="group_4_ifs_TRANSFORM"
					           translation="0.000002 0.000000 0.000000"
					           scale="1.000000 1.000000 1.000000"
					           rotation="0.000000 1.000000 0.000000 0.000000"
					           >
						<Group DEF="group_ME_ID21_001">
							<Shape>
								<Appearance>
									<Material DEF="MA_Color_001_"
									          diffuseColor="0.886 0.886 0.886"
									          specularColor="0.401 0.401 0.401"
									          emissiveColor="0.000 0.000 0.000"
									          ambientIntensity="0.000"
									          shininess="0.500"
									          transparency="0.961"
									          />
								</Appearance>
								<IndexedFaceSet solid="false"
								                coordIndex="0 1 2 -1 1 0 3 -1 4 5 6 -1 7 6 5 -1 8 3 0 -1 3 8 9 -1 10 11 4 -1 5 4 11 -1 2 12 13 -1 12 2 1 -1 6 7 14 -1 15 14 7 -1 16 9 8 -1 9 16 17 -1 18 19 10 -1 11 10 19 -1 13 20 21 -1 20 13 12 -1 14 15 22 -1 23 22 15 -1 24 16 25 -1 16 24 17 -1 18 26 19 -1 27 19 26 -1 21 28 29 -1 28 21 20 -1 22 23 30 -1 31 30 23 -1 32 25 33 -1 25 32 24 -1 26 34 27 -1 35 27 34 -1 28 36 29 -1 36 28 37 -1 38 30 39 -1 31 39 30 -1 40 33 41 -1 33 40 32 -1 34 42 35 -1 43 35 42 -1 37 44 36 -1 44 37 45 -1 46 38 47 -1 39 47 38 -1 45 48 44 -1 48 45 49 -1 50 46 51 -1 47 51 46 -1 "
								                >
									<Coordinate DEF="coords_ME_ID21_001"
									            point="8.556430 11.150955 0.000000 8.858268 8.858268 21.043308 8.858268 8.858268 0.000000 8.556430 11.150955 21.043308 8.556430 11.150955 21.043308 8.556430 11.150955 0.000000 8.858268 8.858268 21.043308 8.858268 8.858268 0.000000 7.671485 13.287402 0.000000 7.671485 13.287402 21.043308 7.671485 13.287402 21.043308 7.671485 13.287402 0.000000 8.556430 6.565579 21.043308 8.556430 6.565579 0.000000 8.556430 6.565579 21.043308 8.556430 6.565579 0.000000 6.263741 15.122009 0.000000 6.263741 15.122009 21.043308 6.263741 15.122009 21.043308 6.263741 15.122009 0.000000 7.671485 4.429134 21.043308 7.671485 4.429134 0.000000 7.671485 4.429134 21.043308 7.671485 4.429134 0.000000 4.429134 16.529751 21.043308 4.429134 16.529751 0.000000 4.429134 16.529751 21.043308 4.429134 16.529751 0.000000 6.263741 2.594527 21.043308 6.263741 2.594527 0.000000 6.263741 2.594527 21.043308 6.263741 2.594527 0.000000 2.292688 17.414696 21.043308 2.292688 17.414696 0.000000 2.292688 17.414696 21.043308 2.292688 17.414696 0.000000 4.429134 1.186783 0.000000 4.429134 1.186783 21.043308 4.429134 1.186783 21.043308 4.429134 1.186783 0.000000 0.000000 17.716536 21.043308 0.000000 17.716536 0.000000 0.000000 17.716536 21.043308 0.000000 17.716536 0.000000 2.292688 0.301838 0.000000 2.292688 0.301838 21.043308 2.292688 0.301838 21.043308 2.292688 0.301838 0.000000 0.000000 0.000000 0.000000 0.000000 0.000000 21.043308 0.000000 0.000000 21.043308 0.000000 0.000000 0.000000 "
									            />
								</IndexedFaceSet>
							</Shape>
						</Group>
					</Transform>
				</Transform>
				<Transform DEF="instance_0_TRANSFORM"
				           translation="6.255907 6.889763 8.649606"
				           scale="1.000000 1.000000 1.000000"
				           rotation="0.000000 1.000000 0.000000 0.000000"
				           >
					<Transform DEF="instance_0_ifs_TRANSFORM"
					           translation="0.000000 0.000001 0.000001"
					           scale="1.000000 1.000000 1.000000"
					           rotation="0.000000 1.000000 0.000000 0.000000"
					           >
						<Group DEF="group_ME_ID31">
							<Shape>
								<Appearance>
								</Appearance>
								<IndexedFaceSet solid="false"
								                coordIndex="0 1 2 -1 1 0 3 -1 4 5 6 -1 5 4 7 -1 8 9 10 -1 11 12 13 -1 12 11 10 -1 14 15 16 -1 15 14 17 -1 18 14 19 -1 14 18 17 -1 17 18 11 -1 11 18 10 -1 10 18 20 -1 10 20 8 -1 20 18 21 -1 21 22 20 -1 22 21 23 -1 24 25 26 -1 25 24 27 -1 28 29 30 -1 29 28 31 -1 32 33 34 -1 33 32 35 -1 36 35 37 -1 29 38 39 -1 38 29 31 -1 38 31 33 -1 38 33 35 -1 38 35 36 -1 40 41 42 -1 41 40 43 -1 44 45 46 -1 45 44 47 -1 47 44 48 -1 48 44 49 -1 46 45 50 -1 50 45 51 -1 51 45 52 -1 51 52 53 -1 53 52 54 -1 48 49 55 -1 55 49 56 -1 56 49 57 -1 57 49 58 -1 54 59 60 -1 59 54 52 -1 60 59 61 -1 60 61 62 -1 60 62 63 -1 64 65 66 -1 65 64 67 -1 68 69 70 -1 69 68 71 -1 72 73 74 -1 73 72 75 -1 76 77 78 -1 77 76 79 -1 80 81 82 -1 81 80 83 -1 84 85 86 -1 85 84 87 -1 87 84 88 -1 88 84 89 -1 90 91 92 -1 91 90 93 -1 91 93 94 -1 91 94 95 -1 91 95 96 -1 93 90 97 -1 93 97 98 -1 98 97 99 -1 98 99 86 -1 98 86 85 -1 96 95 100 -1 96 100 101 -1 96 101 102 -1 96 102 103 -1 104 105 106 -1 105 104 107 -1 108 109 110 -1 109 108 111 -1 111 108 112 -1 111 112 113 -1 113 112 114 -1 113 114 115 -1 115 114 116 -1 115 116 117 -1 117 116 118 -1 117 118 119 -1 119 118 120 -1 119 120 121 -1 121 120 122 -1 121 122 123 -1 124 125 126 -1 125 124 127 -1 128 129 130 -1 129 128 131 -1 131 128 132 -1 131 132 133 -1 133 132 134 -1 133 134 135 -1 135 134 136 -1 135 136 137 -1 137 136 138 -1 137 138 139 -1 139 138 140 -1 139 140 141 -1 141 140 142 -1 141 142 143 -1 144 145 146 -1 145 144 147 -1 148 149 150 -1 149 148 151 -1 152 153 154 -1 153 152 155 -1 156 157 158 -1 157 156 159 -1 160 159 156 -1 159 160 161 -1 160 162 161 -1 162 160 163 -1 164 165 166 -1 165 164 167 -1 168 169 170 -1 169 168 171 -1 172 169 171 -1 169 172 173 -1 174 173 172 -1 173 174 175 -1 176 177 178 -1 177 176 179 -1 177 179 180 -1 177 180 181 -1 182 183 184 -1 183 182 185 -1 186 187 188 -1 187 186 189 -1 190 191 192 -1 191 190 193 -1 194 195 196 -1 195 194 197 -1 198 199 200 -1 199 198 201 -1 202 203 204 -1 203 202 205 -1 206 207 208 -1 207 206 209 -1 210 211 212 -1 211 210 213 -1 214 215 216 -1 215 214 217 -1 218 219 220 -1 219 218 221 -1 222 223 224 -1 223 222 225 -1 224 226 227 -1 226 224 223 -1 228 226 229 -1 226 228 227 -1 230 231 232 -1 231 230 233 -1 234 235 236 -1 235 234 237 -1 234 209 206 -1 209 234 236 -1 238 239 240 -1 239 238 241 -1 242 243 244 -1 243 242 245 -1 246 247 248 -1 247 246 249 -1 "
								                >
									<Coordinate DEF="coords_ME_ID31"
									            point="0.000000 3.149606 8.267716 2.362205 3.149606 0.000000 0.000000 3.149606 0.000000 2.362205 3.149606 8.267716 0.000000 3.149606 8.267716 0.000000 2.362205 0.000000 0.000000 2.362205 8.267716 0.000000 3.149606 0.000000 3.543307 3.937008 8.267716 2.362205 3.937008 8.267716 2.362205 3.149606 8.267716 2.362205 2.362205 8.267716 0.000000 3.149606 8.267716 0.000000 2.362205 8.267716 2.362205 0.787402 8.267716 0.000000 1.574803 8.267716 0.000000 0.787402 8.267716 2.362205 1.574803 8.267716 3.543307 0.000000 8.267716 2.362205 0.000000 8.267716 3.543307 3.543307 8.267716 3.543307 0.393701 8.267716 9.842520 3.543307 8.267716 9.842520 0.393701 8.267716 2.362205 3.937008 8.267716 2.362205 3.149606 0.000000 2.362205 3.149606 8.267716 2.362205 3.937008 0.000000 0.000000 1.574803 0.000000 2.362205 0.787402 0.000000 0.000000 0.787402 0.000000 2.362205 1.574803 0.000000 0.000000 3.149606 0.000000 2.362205 2.362205 0.000000 0.000000 2.362205 0.000000 2.362205 3.149606 0.000000 9.055119 3.937008 0.000000 2.362205 3.937008 0.000000 9.055118 0.000000 0.000000 2.362205 0.000000 0.000000 2.362205 2.362205 8.267716 0.000000 2.362205 0.000000 2.362205 2.362205 0.000000 0.000000 2.362205 8.267716 2.362205 3.937008 0.000000 3.346457 3.937008 4.882647 9.055119 3.937008 0.000000 2.914143 3.937008 5.314960 2.755905 3.937008 5.905512 2.362205 3.937008 8.267716 11.574802 3.937008 0.354331 13.464566 3.937008 1.062992 3.937008 3.937008 4.724409 14.724409 3.937008 2.125984 15.354331 3.937008 3.543307 2.858305 3.937008 6.500865 3.128464 3.937008 7.041184 3.543307 3.937008 7.480315 3.543307 3.937008 8.267716 9.448818 3.937008 4.724409 15.354331 3.937008 5.905512 10.039370 3.937008 4.882647 10.471684 3.937008 5.314960 10.629921 3.937008 5.905512 2.362205 2.362205 8.267716 2.362205 1.574803 0.000000 2.362205 1.574803 8.267716 2.362205 2.362205 0.000000 0.000000 1.574803 8.267716 2.362205 1.574803 0.000000 0.000000 1.574803 0.000000 2.362205 1.574803 8.267716 0.000000 1.574803 8.267716 0.000000 0.787402 0.000000 0.000000 0.787402 8.267716 0.000000 1.574803 0.000000 2.362205 0.787402 8.267716 0.000000 0.787402 0.000000 2.362205 0.787402 0.000000 0.000000 0.787402 8.267716 2.362205 0.787402 8.267716 2.362205 0.000000 0.000000 2.362205 0.000000 8.267716 2.362205 0.787402 0.000000 15.354331 0.000000 5.905512 9.448818 0.000000 4.724409 15.354331 0.000000 3.543307 10.039370 0.000000 4.882647 10.471684 0.000000 5.314961 10.629921 0.000000 5.905512 11.574802 0.000000 0.354331 2.362205 0.000000 0.000000 9.055118 0.000000 0.000000 3.346457 0.000000 4.882647 2.914143 0.000000 5.314961 2.755905 0.000000 5.905512 2.362205 0.000000 8.267716 13.464566 0.000000 1.062992 3.937008 0.000000 4.724409 14.724409 0.000000 2.125984 2.858305 0.000000 6.500865 3.128464 0.000000 7.041184 3.543307 0.000000 7.480315 3.543307 0.000000 8.267716 3.543307 0.393701 7.480315 3.543307 0.000000 8.267716 3.543307 0.000000 7.480315 3.543307 0.393701 8.267716 10.039370 0.393701 4.882647 3.937008 0.393701 4.724409 9.448818 0.393701 4.724409 3.346457 0.393701 4.882647 10.471684 0.393701 5.314960 2.914143 0.393701 5.314960 10.629921 0.393701 5.905512 2.755905 0.393701 5.905512 10.527522 0.393701 6.500865 2.858305 0.393701 6.500865 10.257363 0.393701 7.041184 3.128464 0.393701 7.041184 9.842520 0.393701 7.480315 3.543307 0.393701 7.480315 9.842520 0.393701 8.267716 3.543307 0.393701 8.267716 9.842520 3.543307 7.480315 9.842520 0.393701 8.267716 9.842520 0.393701 7.480315 9.842520 3.543307 8.267716 3.346457 3.543307 4.882647 9.448818 3.543307 4.724409 3.937008 3.543307 4.724409 10.039370 3.543307 4.882647 2.914143 3.543307 5.314961 10.471684 3.543307 5.314961 2.755905 3.543307 5.905512 10.629921 3.543307 5.905512 2.858305 3.543307 6.500865 10.527522 3.543307 6.500865 3.128464 3.543307 7.041184 10.257363 3.543307 7.041184 3.543307 3.543307 7.480315 9.842520 3.543307 7.480315 3.543307 3.543307 8.267716 9.842520 3.543307 8.267716 3.543307 3.937008 7.480315 3.543307 3.543307 8.267716 3.543307 3.543307 7.480315 3.543307 3.937008 8.267716 11.574802 3.937008 0.354331 9.055118 0.000000 0.000000 9.055119 3.937008 0.000000 11.574802 0.000000 0.354331 2.755905 3.937008 5.905512 2.858305 3.543307 6.500865 2.755905 3.543307 5.905512 2.858305 3.937008 6.500865 2.914143 3.543307 5.314961 2.755905 3.937008 5.905512 2.755905 3.543307 5.905512 2.914143 3.937008 5.314960 3.346457 3.543307 4.882647 3.346457 3.937008 4.882647 3.937008 3.937008 4.724409 3.937008 3.543307 4.724409 3.937008 3.543307 4.724409 9.448818 3.937008 4.724409 3.937008 3.937008 4.724409 9.448818 3.543307 4.724409 9.448818 3.543307 4.724409 10.039370 3.937008 4.882647 9.448818 3.937008 4.724409 10.039370 3.543307 4.882647 10.471684 3.543307 5.314961 10.471684 3.937008 5.314960 10.629921 3.543307 5.905512 10.629921 3.937008 5.905512 10.629921 3.543307 5.905512 15.354331 3.937008 5.905512 10.629921 3.937008 5.905512 10.629921 0.393701 5.905512 10.629921 0.000000 5.905512 15.354331 0.000000 5.905512 15.354331 3.937008 3.543307 15.354331 0.000000 5.905512 15.354331 0.000000 3.543307 15.354331 3.937008 5.905512 14.724409 3.937008 2.125984 15.354331 0.000000 3.543307 14.724409 0.000000 2.125984 15.354331 3.937008 3.543307 14.724409 3.937008 2.125984 13.464566 0.000000 1.062992 13.464566 3.937008 1.062992 14.724409 0.000000 2.125984 13.464566 3.937008 1.062992 11.574802 0.000000 0.354331 11.574802 3.937008 0.354331 13.464566 0.000000 1.062992 3.128464 3.543307 7.041184 3.543307 3.937008 7.480315 3.543307 3.543307 7.480315 3.128464 3.937008 7.041184 2.858305 3.543307 6.500865 3.128464 3.937008 7.041184 3.128464 3.543307 7.041184 2.858305 3.937008 6.500865 2.914143 0.000000 5.314961 2.755905 0.393701 5.905512 2.755905 0.000000 5.905512 2.914143 0.393701 5.314960 2.755905 0.393701 5.905512 2.858305 0.000000 6.500865 2.755905 0.000000 5.905512 2.858305 0.393701 6.500865 2.858305 0.000000 6.500865 3.128464 0.393701 7.041184 3.128464 0.000000 7.041184 2.858305 0.393701 6.500865 3.128464 0.000000 7.041184 3.543307 0.393701 7.480315 3.543307 0.000000 7.480315 3.128464 0.393701 7.041184 10.629921 0.000000 5.905512 10.471684 0.393701 5.314960 10.471684 0.000000 5.314961 10.629921 0.393701 5.905512 10.039370 0.393701 4.882647 10.039370 0.000000 4.882647 9.448818 0.000000 4.724409 9.448818 0.393701 4.724409 3.937008 0.000000 4.724409 9.448818 0.393701 4.724409 3.937008 0.393701 4.724409 9.448818 0.000000 4.724409 3.346457 0.000000 4.882647 3.937008 0.393701 4.724409 3.346457 0.393701 4.882647 3.937008 0.000000 4.724409 10.629921 0.393701 5.905512 10.527522 3.543307 6.500865 10.527522 0.393701 6.500865 10.629921 3.543307 5.905512 10.527522 0.393701 6.500865 10.257363 3.543307 7.041184 10.257363 0.393701 7.041184 10.527522 3.543307 6.500865 10.257363 0.393701 7.041184 9.842520 3.543307 7.480315 9.842520 0.393701 7.480315 10.257363 3.543307 7.041184 "
									            />
								</IndexedFaceSet>
							</Shape>
						</Group>
					</Transform>
				</Transform>
			</Transform>
		</Transform>
	</Scene>
</X3D>