<?xml version="1.0" encoding="UTF-8"?>
<!DOCTYPE X3D PUBLIC "ISO//Web3D//DTD X3D 3.0//EN" "http://www.web3d.org/specifications/x3d-3.0.dtd">
<X3D version="3.0" profile="Immersive" xmlns:xsd="http://www.w3.org/2001/XMLSchema-instance" xsd:noNamespaceSchemaLocation="http://www.web3d.org/specifications/x3d-3.0.xsd">
	<head>
		<meta name="filename" content="02-2 泥道栱.x3d" />
		<meta name="created" content="2025-12-28 15:27:40" />
		<meta name="generator" content="Blender 4.2.2 LTS" />
		<meta name="translator" content="Web3D X3D/VRML2 format v2.5.1" />
	</head>
	<Scene>
		<NavigationInfo headlight="true"
		                visibilityLimit="0.0"
		                type='"EXAMINE", "ANY"'
		                avatarSize="0.25, 1.75, 0.75"
		                />
		<Background DEF="WO_World"
		            groundColor="0.051 0.051 0.051"
		            skyColor="0.051 0.051 0.051"
		            />
		<Transform DEF="Shape_IndexedFaceSet_001_TRANSFORM"
		           translation="-0.020900 0.000000 0.000000"
		           scale="0.025400 0.025400 0.025400"
		           rotation="-1.000000 0.000000 0.000000 1.570796"
		           >
			<Transform DEF="Shape_IndexedFaceSet_001_ifs_TRANSFORM"
			           translation="0.000000 0.000000 0.000000"
			           scale="1.000000 1.000000 1.000000"
			           rotation="-0.000000 0.000000 0.000000 0.000000"
			           >
				<Group DEF="group_ME_Shape_IndexedFaceSet_070">
					<Shape>
						<Appearance>
							<Material DEF="MA_Material_005"
							          diffuseColor="0.800 0.800 0.800"
							          specularColor="0.401 0.401 0.401"
							          emissiveColor="0.000 0.000 0.000"
							          ambientIntensity="0.000"
							          shininess="0.500"
							          transparency="0.000"
							          />
						</Appearance>
						<IndexedFaceSet solid="false"
						                texCoordIndex="0 1 2 -1 3 4 5 -1 6 7 8 -1 9 10 11 -1 12 13 14 -1 15 16 17 -1 18 19 20 -1 21 22 23 -1 24 25 26 -1 27 28 29 -1 30 31 32 -1 33 34 35 -1 36 37 38 -1 39 40 41 -1 42 43 44 -1 45 46 47 -1 48 49 50 -1 51 52 53 -1 54 55 56 -1 57 58 59 -1 60 61 62 -1 63 64 65 -1 66 67 68 -1 69 70 71 -1 72 73 74 -1 75 76 77 -1 78 79 80 -1 81 82 83 -1 84 85 86 -1 87 88 89 -1 90 91 92 -1 93 94 95 -1 96 97 98 -1 99 100 101 -1 102 103 104 -1 105 106 107 -1 108 109 110 -1 111 112 113 -1 114 115 116 -1 117 118 119 -1 120 121 122 -1 123 124 125 -1 126 127 128 -1 129 130 131 -1 132 133 134 -1 135 136 137 -1 138 139 140 -1 141 142 143 -1 144 145 146 -1 147 148 149 -1 150 151 152 -1 153 154 155 -1 156 157 158 -1 159 160 161 -1 162 163 164 -1 165 166 167 -1 168 169 170 -1 171 172 173 -1 174 175 176 -1 177 178 179 -1 180 181 182 -1 183 184 185 -1 186 187 188 -1 189 190 191 -1 192 193 194 -1 195 196 197 -1 198 199 200 -1 201 202 203 -1 204 205 206 -1 207 208 209 -1 210 211 212 -1 213 214 215 -1 216 217 218 -1 219 220 221 -1 222 223 224 -1 225 226 227 -1 228 229 230 -1 231 232 233 -1 234 235 236 -1 237 238 239 -1 240 241 242 -1 243 244 245 -1 246 247 248 -1 249 250 251 -1 252 253 254 -1 255 256 257 -1 258 259 260 -1 261 262 263 -1 264 265 266 -1 267 268 269 -1 270 271 272 -1 273 274 275 -1 276 277 278 -1 279 280 281 -1 282 283 284 -1 285 286 287 -1 288 289 290 -1 291 292 293 -1 294 295 296 -1 297 298 299 -1 300 301 302 -1 303 304 305 -1 306 307 308 -1 309 310 311 -1 312 313 314 -1 315 316 317 -1 318 319 320 -1 321 322 323 -1 324 325 326 -1 327 328 329 -1 330 331 332 -1 333 334 335 -1 336 337 338 -1 339 340 341 -1 342 343 344 -1 345 346 347 -1 348 349 350 -1 351 352 353 -1 354 355 356 -1 357 358 359 -1 360 361 362 -1 363 364 365 -1 366 367 368 -1 369 370 371 -1 372 373 374 -1 375 376 377 -1 378 379 380 -1 381 382 383 -1 384 385 386 -1 387 388 389 -1 390 391 392 -1 393 394 395 -1 396 397 398 -1 399 400 401 -1 402 403 404 -1 405 406 407 -1 408 409 410 -1 411 412 413 -1 414 415 416 -1 417 418 419 -1 420 421 422 -1 423 424 425 -1 426 427 428 -1 429 430 431 -1 432 433 434 -1 435 436 437 -1 438 439 440 -1 441 442 443 -1 444 445 446 -1 447 448 449 -1 450 451 452 -1 453 454 455 -1 456 457 458 -1 459 460 461 -1 462 463 464 -1 465 466 467 -1 468 469 470 -1 471 472 473 -1 474 475 476 -1 477 478 479 -1 480 481 482 -1 483 484 485 -1 486 487 488 -1 489 490 491 -1 492 493 494 -1 495 496 497 -1 498 499 500 -1 501 502 503 -1 504 505 506 -1 507 508 509 -1 510 511 512 -1 513 514 515 -1 516 517 518 -1 519 520 521 -1 522 523 524 -1 525 526 527 -1 528 529 530 -1 531 532 533 -1 534 535 536 -1 537 538 539 -1 540 541 542 -1 543 544 545 -1 546 547 548 -1 549 550 551 -1 552 553 554 -1 555 556 557 -1 558 559 560 -1 561 562 563 -1 "
						                coordIndex="0 1 2 -1 1 0 3 -1 4 5 6 -1 5 4 7 -1 7 4 8 -1 8 4 9 -1 10 11 12 -1 11 10 13 -1 13 10 14 -1 13 14 15 -1 15 14 16 -1 15 16 17 -1 17 16 18 -1 17 18 19 -1 17 19 20 -1 18 16 21 -1 21 16 6 -1 21 6 5 -1 20 19 22 -1 15 23 24 -1 23 15 17 -1 24 23 25 -1 25 23 26 -1 26 23 27 -1 24 25 28 -1 24 28 29 -1 26 27 30 -1 29 31 32 -1 31 29 28 -1 32 31 33 -1 32 33 34 -1 32 34 35 -1 36 37 38 -1 37 36 39 -1 40 41 42 -1 41 40 43 -1 43 40 44 -1 44 40 45 -1 46 47 48 -1 47 46 49 -1 49 46 50 -1 49 50 51 -1 51 50 52 -1 51 52 53 -1 53 52 54 -1 53 54 55 -1 53 55 56 -1 54 52 57 -1 57 52 42 -1 57 42 41 -1 56 55 58 -1 51 59 60 -1 59 51 53 -1 60 59 61 -1 61 59 62 -1 62 59 63 -1 60 61 64 -1 60 64 65 -1 62 63 66 -1 65 67 68 -1 67 65 64 -1 68 67 69 -1 68 69 70 -1 68 70 71 -1 72 73 74 -1 73 72 75 -1 76 77 78 -1 77 76 79 -1 80 81 82 -1 81 80 83 -1 84 85 86 -1 85 84 87 -1 87 84 88 -1 87 88 89 -1 89 90 87 -1 90 89 91 -1 90 92 93 -1 92 90 91 -1 92 91 94 -1 92 94 95 -1 96 97 98 -1 97 96 99 -1 100 99 96 -1 99 100 101 -1 100 102 101 -1 102 100 103 -1 104 105 106 -1 105 104 107 -1 108 109 110 -1 109 108 111 -1 112 109 111 -1 109 112 113 -1 114 113 112 -1 113 114 115 -1 116 117 118 -1 117 116 119 -1 120 121 122 -1 121 120 123 -1 124 125 126 -1 125 124 127 -1 128 129 130 -1 129 128 131 -1 132 133 134 -1 133 132 135 -1 136 137 138 -1 137 136 139 -1 140 141 142 -1 141 140 143 -1 144 145 146 -1 145 144 147 -1 148 149 150 -1 149 148 151 -1 152 153 154 -1 153 152 155 -1 153 155 156 -1 156 155 149 -1 156 149 157 -1 157 149 151 -1 154 158 159 -1 158 154 153 -1 160 161 162 -1 161 160 163 -1 164 162 165 -1 162 164 160 -1 166 164 165 -1 164 166 167 -1 168 169 170 -1 169 168 171 -1 172 173 174 -1 173 172 175 -1 176 172 177 -1 172 176 175 -1 178 177 179 -1 177 178 176 -1 180 181 182 -1 181 180 183 -1 184 185 186 -1 185 184 187 -1 187 188 185 -1 188 187 189 -1 188 190 191 -1 190 188 189 -1 192 193 194 -1 193 192 195 -1 196 197 198 -1 197 196 199 -1 197 200 198 -1 200 197 201 -1 201 202 200 -1 202 201 203 -1 204 205 206 -1 205 204 207 -1 206 208 209 -1 208 206 205 -1 210 208 211 -1 208 210 209 -1 212 213 214 -1 213 212 215 -1 216 217 218 -1 217 216 219 -1 216 220 221 -1 220 216 218 -1 221 222 223 -1 222 221 220 -1 224 225 226 -1 225 224 227 -1 227 224 228 -1 227 228 229 -1 229 228 230 -1 229 230 231 -1 232 233 234 -1 233 232 235 -1 235 232 236 -1 235 236 237 -1 237 236 238 -1 237 238 239 -1 240 241 242 -1 241 240 243 -1 243 240 244 -1 243 244 245 -1 245 244 246 -1 245 246 247 -1 248 249 250 -1 249 248 251 -1 251 248 252 -1 251 252 253 -1 253 252 254 -1 253 254 255 -1 "
						                >
							<Coordinate DEF="coords_ME_Shape_IndexedFaceSet_070"
							            point="5.511811 3.937008 0.000000 3.307087 0.000000 0.354331 3.307087 3.937008 0.354331 5.511811 0.000000 0.000000 0.000000 3.937008 5.905512 5.118110 3.937008 4.724409 0.000000 3.937008 3.543307 4.527559 3.937008 4.882647 4.095246 3.937008 5.314960 3.937008 3.937008 5.905512 3.307087 3.937008 0.354331 18.897636 3.937008 0.000000 5.511811 3.937008 0.000000 21.102362 3.937008 0.354331 1.653543 3.937008 1.062992 22.755903 3.937008 1.062992 0.551181 3.937008 2.125984 10.629921 3.937008 1.968504 9.645670 3.937008 4.882647 10.077983 3.937008 5.314960 10.629921 3.937008 5.905512 9.055119 3.937008 4.724409 10.236220 3.937008 5.905512 13.779528 3.937008 1.968504 23.858267 3.937008 2.125984 14.763780 3.937008 4.882647 14.331466 3.937008 5.314960 13.779528 3.937008 5.905512 15.354331 3.937008 4.724409 24.409447 3.937008 3.543307 14.173228 3.937008 5.905512 19.291338 3.937008 4.724409 24.409447 3.937008 5.905512 19.881889 3.937008 4.882647 20.314203 3.937008 5.314960 20.472441 3.937008 5.905512 18.897636 3.937008 0.000000 5.511811 0.000000 0.000000 5.511811 3.937008 0.000000 18.897636 0.000000 0.000000 24.409449 0.000000 5.905512 19.291338 0.000000 4.724409 24.409449 0.000000 3.543307 19.881889 0.000000 4.882647 20.314203 0.000000 5.314960 20.472441 0.000000 5.905512 21.102362 0.000000 0.354331 5.511811 0.000000 0.000000 18.897636 0.000000 0.000000 3.307087 0.000000 0.354331 22.755903 0.000000 1.062992 1.653543 0.000000 1.062992 23.858267 0.000000 2.125984 13.779528 0.000000 1.968504 14.763780 0.000000 4.882647 14.331466 0.000000 5.314960 13.779528 0.000000 5.905512 15.354331 0.000000 4.724409 14.173228 0.000000 5.905512 10.629921 0.000000 1.968504 0.551181 0.000000 2.125984 9.645670 0.000000 4.882647 10.077983 0.000000 5.314960 10.629921 0.000000 5.905512 9.055119 0.000000 4.724409 0.000000 0.000000 3.543307 10.236220 0.000000 5.905512 5.118110 0.000000 4.724409 0.000000 0.000000 5.905512 4.527559 0.000000 4.882647 4.095246 0.000000 5.314960 3.937008 0.000000 5.905512 3.307087 3.937008 0.354331 1.653543 0.000000 1.062992 1.653543 3.937008 1.062992 3.307087 0.000000 0.354331 10.629921 0.000000 1.968504 13.779528 3.937008 1.968504 10.629921 3.937008 1.968504 13.779528 0.000000 1.968504 13.779528 3.937008 5.905512 13.779528 0.000000 1.968504 13.779528 0.000000 5.905512 13.779528 3.937008 1.968504 13.779528 0.000000 5.905512 14.173228 3.937008 5.905512 13.779528 3.937008 5.905512 14.173228 3.543307 5.905512 14.173228 0.000000 5.905512 14.173227 0.393701 5.905511 20.472441 3.543307 5.905512 20.472441 0.393701 5.905511 24.409447 3.937008 5.905512 20.472441 3.937008 5.905512 20.472441 0.000000 5.905512 24.409449 0.000000 5.905512 14.331466 3.543307 5.314961 14.173228 3.937008 5.905512 14.173228 3.543307 5.905512 14.331466 3.937008 5.314960 14.763780 3.543307 4.882647 14.763780 3.937008 4.882647 15.354331 3.937008 4.724409 15.354331 3.543307 4.724410 15.354331 3.543307 4.724410 19.291338 3.937008 4.724409 15.354331 3.937008 4.724409 19.291338 3.543307 4.724410 19.291338 3.543307 4.724410 19.881889 3.937008 4.882647 19.291338 3.937008 4.724409 19.881889 3.543307 4.882647 20.314203 3.543307 5.314961 20.314203 3.937008 5.314960 20.472441 3.543307 5.905512 20.472441 3.937008 5.905512 24.409447 3.937008 3.543307 24.409449 0.000000 5.905512 24.409449 0.000000 3.543307 24.409447 3.937008 5.905512 23.858267 3.937008 2.125984 24.409449 0.000000 3.543307 23.858267 0.000000 2.125984 24.409447 3.937008 3.543307 23.858267 3.937008 2.125984 22.755903 0.000000 1.062992 22.755903 3.937008 1.062992 23.858267 0.000000 2.125984 22.755903 3.937008 1.062992 21.102362 0.000000 0.354331 21.102362 3.937008 0.354331 22.755903 0.000000 1.062992 21.102362 3.937008 0.354331 18.897636 0.000000 0.000000 18.897636 3.937008 0.000000 21.102362 0.000000 0.354331 1.653543 3.937008 1.062992 0.551181 0.000000 2.125984 0.551181 3.937008 2.125984 1.653543 0.000000 1.062992 0.000000 0.000000 3.543307 0.551181 3.937008 2.125984 0.551181 0.000000 2.125984 0.000000 3.937008 3.543307 0.000000 3.937008 5.905512 0.000000 0.000000 3.543307 0.000000 0.000000 5.905512 0.000000 3.937008 3.543307 10.629921 0.000000 5.905512 10.236220 0.393701 5.905511 10.236220 0.000000 5.905512 10.629921 3.937008 5.905512 3.937008 0.000000 5.905512 3.937008 3.543307 5.905512 0.000000 0.000000 5.905512 3.937008 0.393701 5.905511 10.236220 3.543307 5.905512 10.236220 3.937008 5.905512 3.937008 3.937008 5.905512 0.000000 3.937008 5.905512 4.095246 3.937008 5.314960 3.937008 3.543307 5.905512 4.095246 3.543307 5.314961 3.937008 3.937008 5.905512 4.527559 3.937008 4.882647 4.527559 3.543307 4.882647 5.118110 3.543307 4.724410 5.118110 3.937008 4.724409 9.055119 3.543307 4.724410 5.118110 3.937008 4.724409 5.118110 3.543307 4.724410 9.055119 3.937008 4.724409 9.645670 3.543307 4.882647 9.055119 3.937008 4.724409 9.055119 3.543307 4.724410 9.645670 3.937008 4.882647 10.077983 3.937008 5.314960 10.077983 3.543307 5.314961 10.236220 3.937008 5.905512 10.236220 3.543307 5.905512 10.629921 0.000000 1.968504 10.629921 3.937008 5.905512 10.629921 0.000000 5.905512 10.629921 3.937008 1.968504 10.236220 0.393701 5.905511 10.077983 0.000000 5.314960 10.236220 0.000000 5.905512 10.077983 0.393701 5.314961 9.645670 0.000000 4.882647 9.645669 0.393701 4.882647 9.055118 0.393701 4.724409 9.055119 0.000000 4.724409 9.055119 0.000000 4.724409 5.118110 0.393701 4.724409 5.118110 0.000000 4.724409 9.055118 0.393701 4.724409 5.118110 0.000000 4.724409 4.527559 0.393701 4.882647 4.527559 0.000000 4.882647 5.118110 0.393701 4.724409 4.095246 0.000000 5.314960 4.095246 0.393701 5.314961 3.937008 0.000000 5.905512 3.937008 0.393701 5.905511 20.472441 0.000000 5.905512 20.314203 0.393701 5.314961 20.314203 0.000000 5.314960 20.472441 0.393701 5.905511 19.881889 0.393701 4.882647 19.881889 0.000000 4.882647 19.291338 0.000000 4.724409 19.291338 0.393701 4.724409 15.354331 0.000000 4.724409 19.291338 0.393701 4.724409 15.354331 0.393701 4.724409 19.291338 0.000000 4.724409 14.763780 0.000000 4.882647 15.354331 0.393701 4.724409 14.763780 0.393701 4.882647 15.354331 0.000000 4.724409 14.331466 0.393701 5.314961 14.331466 0.000000 5.314960 14.173227 0.393701 5.905511 14.173228 0.000000 5.905512 19.881889 0.393701 4.882647 15.354331 0.393701 4.724409 19.291338 0.393701 4.724409 14.763780 0.393701 4.882647 20.314203 0.393701 5.314961 14.331466 0.393701 5.314961 20.472441 0.393701 5.905511 14.173227 0.393701 5.905511 14.763780 3.543307 4.882647 19.291338 3.543307 4.724410 15.354331 3.543307 4.724410 19.881889 3.543307 4.882647 14.331466 3.543307 5.314961 20.314203 3.543307 5.314961 14.173228 3.543307 5.905512 20.472441 3.543307 5.905512 4.527559 3.543307 4.882647 9.055119 3.543307 4.724410 5.118110 3.543307 4.724410 9.645670 3.543307 4.882647 4.095246 3.543307 5.314961 10.077983 3.543307 5.314961 3.937008 3.543307 5.905512 10.236220 3.543307 5.905512 9.645669 0.393701 4.882647 5.118110 0.393701 4.724409 9.055118 0.393701 4.724409 4.527559 0.393701 4.882647 10.077983 0.393701 5.314961 4.095246 0.393701 5.314961 10.236220 0.393701 5.905511 3.937008 0.393701 5.905511 "
							            />
							<TextureCoordinate point="0.2258 0.0000 0.1355 0.0600 0.1355 0.0600 0.1355 0.0600 0.2258 0.0000 0.2258 0.0000 0.0000 1.0000 0.2097 0.8000 0.0000 0.6000 0.2097 0.8000 0.0000 1.0000 0.1855 0.8268 0.1855 0.8268 0.0000 1.0000 0.1678 0.9000 0.1678 0.9000 0.0000 1.0000 0.1613 1.0000 0.1355 0.0600 0.7742 0.0000 0.2258 0.0000 0.7742 0.0000 0.1355 0.0600 0.8645 0.0600 0.8645 0.0600 0.1355 0.0600 0.0677 0.1800 0.8645 0.0600 0.0677 0.1800 0.9323 0.1800 0.9323 0.1800 0.0677 0.1800 0.0226 0.3600 0.9323 0.1800 0.0226 0.3600 0.4355 0.3333 0.4355 0.3333 0.0226 0.3600 0.3952 0.8268 0.4355 0.3333 0.3952 0.8268 0.4129 0.9000 0.4355 0.3333 0.4129 0.9000 0.4355 1.0000 0.3952 0.8268 0.0226 0.3600 0.3710 0.8000 0.3710 0.8000 0.0226 0.3600 0.0000 0.6000 0.3710 0.8000 0.0000 0.6000 0.2097 0.8000 0.4355 1.0000 0.4129 0.9000 0.4194 1.0000 0.9323 0.1800 0.5645 0.3333 0.9774 0.3600 0.5645 0.3333 0.9323 0.1800 0.4355 0.3333 0.9774 0.3600 0.5645 0.3333 0.6048 0.8268 0.6048 0.8268 0.5645 0.3333 0.5871 0.9000 0.5871 0.9000 0.5645 0.3333 0.5645 1.0000 0.9774 0.3600 0.6048 0.8268 0.6290 0.8000 0.9774 0.3600 0.6290 0.8000 1.0000 0.6000 0.5871 0.9000 0.5645 1.0000 0.5806 1.0000 1.0000 0.6000 0.7903 0.8000 1.0000 1.0000 0.7903 0.8000 1.0000 0.6000 0.6290 0.8000 1.0000 1.0000 0.7903 0.8000 0.8145 0.8268 1.0000 1.0000 0.8145 0.8268 0.8322 0.9000 1.0000 1.0000 0.8322 0.9000 0.8387 1.0000 0.7742 0.0000 0.2258 0.0000 0.2258 0.0000 0.2258 0.0000 0.7742 0.0000 0.7742 0.0000 1.0000 1.0000 0.7903 0.8000 1.0000 0.6000 0.7903 0.8000 1.0000 1.0000 0.8145 0.8268 0.8145 0.8268 1.0000 1.0000 0.8322 0.9000 0.8322 0.9000 1.0000 1.0000 0.8387 1.0000 0.8645 0.0600 0.2258 0.0000 0.7742 0.0000 0.2258 0.0000 0.8645 0.0600 0.1355 0.0600 0.1355 0.0600 0.8645 0.0600 0.9323 0.1800 0.1355 0.0600 0.9323 0.1800 0.0677 0.1800 0.0677 0.1800 0.9323 0.1800 0.9774 0.3600 0.0677 0.1800 0.9774 0.3600 0.5645 0.3333 0.5645 0.3333 0.9774 0.3600 0.6048 0.8268 0.5645 0.3333 0.6048 0.8268 0.5871 0.9000 0.5645 0.3333 0.5871 0.9000 0.5645 1.0000 0.6048 0.8268 0.9774 0.3600 0.6290 0.8000 0.6290 0.8000 0.9774 0.3600 1.0000 0.6000 0.6290 0.8000 1.0000 0.6000 0.7903 0.8000 0.5645 1.0000 0.5871 0.9000 0.5806 1.0000 0.0677 0.1800 0.4355 0.3333 0.0226 0.3600 0.4355 0.3333 0.0677 0.1800 0.5645 0.3333 0.0226 0.3600 0.4355 0.3333 0.3952 0.8268 0.3952 0.8268 0.4355 0.3333 0.4129 0.9000 0.4129 0.9000 0.4355 0.3333 0.4355 1.0000 0.0226 0.3600 0.3952 0.8268 0.3710 0.8000 0.0226 0.3600 0.3710 0.8000 0.0000 0.6000 0.4129 0.9000 0.4355 1.0000 0.4194 1.0000 0.0000 0.6000 0.2097 0.8000 0.0000 1.0000 0.2097 0.8000 0.0000 0.6000 0.3710 0.8000 0.0000 1.0000 0.2097 0.8000 0.1855 0.8268 0.0000 1.0000 0.1855 0.8268 0.1678 0.9000 0.0000 1.0000 0.1678 0.9000 0.1613 1.0000 0.1355 0.0600 0.0677 0.1800 0.0677 0.1800 0.0677 0.1800 0.1355 0.0600 0.1355 0.0600 0.4355 0.3333 0.5645 0.3333 0.4355 0.3333 0.5645 0.3333 0.4355 0.3333 0.5645 0.3333 0.5645 1.0000 0.5645 0.3333 0.5645 1.0000 0.5645 0.3333 0.5645 1.0000 0.5645 0.3333 0.5645 1.0000 0.5806 1.0000 0.5645 1.0000 0.5806 1.0000 0.5645 1.0000 0.5806 1.0000 0.5806 1.0000 0.5645 1.0000 0.5806 1.0000 0.5806 1.0000 0.5806 1.0000 0.5806 1.0000 0.5806 1.0000 0.8387 1.0000 0.5806 1.0000 0.8387 1.0000 0.5806 1.0000 0.8387 1.0000 0.8387 1.0000 1.0000 1.0000 0.8387 1.0000 1.0000 1.0000 0.8387 1.0000 0.8387 1.0000 1.0000 1.0000 0.8387 1.0000 0.8387 1.0000 1.0000 1.0000 0.8387 1.0000 1.0000 1.0000 0.5871 0.9000 0.5806 1.0000 0.5806 1.0000 0.5806 1.0000 0.5871 0.9000 0.5871 0.9000 0.6048 0.8268 0.5871 0.9000 0.5871 0.9000 0.5871 0.9000 0.6048 0.8268 0.6048 0.8268 0.6048 0.8268 0.6290 0.8000 0.6048 0.8268 0.6290 0.8000 0.6048 0.8268 0.6290 0.8000 0.6290 0.8000 0.7903 0.8000 0.6290 0.8000 0.7903 0.8000 0.6290 0.8000 0.7903 0.8000 0.7903 0.8000 0.8145 0.8268 0.7903 0.8000 0.8145 0.8268 0.7903 0.8000 0.8145 0.8268 0.8322 0.9000 0.8145 0.8268 0.8145 0.8268 0.8145 0.8268 0.8322 0.9000 0.8322 0.9000 0.8387 1.0000 0.8322 0.9000 0.8322 0.9000 0.8322 0.9000 0.8387 1.0000 0.8387 1.0000 1.0000 0.6000 1.0000 1.0000 1.0000 0.6000 1.0000 1.0000 1.0000 0.6000 1.0000 1.0000 0.9774 0.3600 1.0000 0.6000 0.9774 0.3600 1.0000 0.6000 0.9774 0.3600 1.0000 0.6000 0.9774 0.3600 0.9323 0.1800 0.9323 0.1800 0.9323 0.1800 0.9774 0.3600 0.9774 0.3600 0.9323 0.1800 0.8645 0.0600 0.8645 0.0600 0.8645 0.0600 0.9323 0.1800 0.9323 0.1800 0.8645 0.0600 0.7742 0.0000 0.7742 0.0000 0.7742 0.0000 0.8645 0.0600 0.8645 0.0600 0.0677 0.1800 0.0226 0.3600 0.0226 0.3600 0.0226 0.3600 0.0677 0.1800 0.0677 0.1800 0.0000 0.6000 0.0226 0.3600 0.0226 0.3600 0.0226 0.3600 0.0000 0.6000 0.0000 0.6000 0.0000 1.0000 0.0000 0.6000 0.0000 1.0000 0.0000 0.6000 0.0000 1.0000 0.0000 0.6000 0.4355 1.0000 0.4194 1.0000 0.4194 1.0000 0.4194 1.0000 0.4355 1.0000 0.4355 1.0000 0.1613 1.0000 0.1613 1.0000 0.0000 1.0000 0.1613 1.0000 0.1613 1.0000 0.1613 1.0000 0.1613 1.0000 0.1613 1.0000 0.4194 1.0000 0.4194 1.0000 0.1613 1.0000 0.4194 1.0000 0.4194 1.0000 0.4194 1.0000 0.4194 1.0000 0.4194 1.0000 0.4194 1.0000 0.4355 1.0000 0.0000 1.0000 0.1613 1.0000 0.0000 1.0000 0.1613 1.0000 0.0000 1.0000 0.1613 1.0000 0.1678 0.9000 0.1613 1.0000 0.1678 0.9000 0.1613 1.0000 0.1678 0.9000 0.1613 1.0000 0.1855 0.8268 0.1678 0.9000 0.1855 0.8268 0.1678 0.9000 0.1855 0.8268 0.1678 0.9000 0.2097 0.8000 0.1855 0.8268 0.1855 0.8268 0.1855 0.8268 0.2097 0.8000 0.2097 0.8000 0.3710 0.8000 0.2097 0.8000 0.2097 0.8000 0.2097 0.8000 0.3710 0.8000 0.3710 0.8000 0.3952 0.8268 0.3710 0.8000 0.3710 0.8000 0.3710 0.8000 0.3952 0.8268 0.3952 0.8268 0.4129 0.9000 0.3952 0.8268 0.4129 0.9000 0.3952 0.8268 0.4129 0.9000 0.3952 0.8268 0.4194 1.0000 0.4129 0.9000 0.4194 1.0000 0.4129 0.9000 0.4194 1.0000 0.4129 0.9000 0.4355 0.3333 0.4355 1.0000 0.4355 1.0000 0.4355 1.0000 0.4355 0.3333 0.4355 0.3333 0.4194 1.0000 0.4129 0.9000 0.4194 1.0000 0.4129 0.9000 0.4194 1.0000 0.4129 0.9000 0.4129 0.9000 0.3952 0.8268 0.4129 0.9000 0.3952 0.8268 0.4129 0.9000 0.3952 0.8268 0.3952 0.8268 0.3710 0.8000 0.3710 0.8000 0.3710 0.8000 0.3952 0.8268 0.3952 0.8268 0.3710 0.8000 0.2097 0.8000 0.2097 0.8000 0.2097 0.8000 0.3710 0.8000 0.3710 0.8000 0.2097 0.8000 0.1855 0.8268 0.1855 0.8268 0.1855 0.8268 0.2097 0.8000 0.2097 0.8000 0.1855 0.8268 0.1678 0.9000 0.1855 0.8268 0.1678 0.9000 0.1855 0.8268 0.1678 0.9000 0.1678 0.9000 0.1613 1.0000 0.1678 0.9000 0.1613 1.0000 0.1678 0.9000 0.1613 1.0000 0.8387 1.0000 0.8322 0.9000 0.8322 0.9000 0.8322 0.9000 0.8387 1.0000 0.8387 1.0000 0.8322 0.9000 0.8145 0.8268 0.8145 0.8268 0.8145 0.8268 0.8322 0.9000 0.8322 0.9000 0.7903 0.8000 0.8145 0.8268 0.7903 0.8000 0.8145 0.8268 0.7903 0.8000 0.8145 0.8268 0.6290 0.8000 0.7903 0.8000 0.6290 0.8000 0.7903 0.8000 0.6290 0.8000 0.7903 0.8000 0.6048 0.8268 0.6290 0.8000 0.6048 0.8268 0.6290 0.8000 0.6048 0.8268 0.6290 0.8000 0.6048 0.8268 0.5871 0.9000 0.5871 0.9000 0.5871 0.9000 0.6048 0.8268 0.6048 0.8268 0.5871 0.9000 0.5806 1.0000 0.5806 1.0000 0.5806 1.0000 0.5871 0.9000 0.5871 0.9000 0.8145 0.8268 0.6290 0.8000 0.7903 0.8000 0.6290 0.8000 0.8145 0.8268 0.6048 0.8268 0.6048 0.8268 0.8145 0.8268 0.8322 0.9000 0.6048 0.8268 0.8322 0.9000 0.5871 0.9000 0.5871 0.9000 0.8322 0.9000 0.8387 1.0000 0.5871 0.9000 0.8387 1.0000 0.5806 1.0000 0.6048 0.8268 0.7903 0.8000 0.6290 0.8000 0.7903 0.8000 0.6048 0.8268 0.8145 0.8268 0.8145 0.8268 0.6048 0.8268 0.5871 0.9000 0.8145 0.8268 0.5871 0.9000 0.8322 0.9000 0.8322 0.9000 0.5871 0.9000 0.5806 1.0000 0.8322 0.9000 0.5806 1.0000 0.8387 1.0000 0.1855 0.8268 0.3710 0.8000 0.2097 0.8000 0.3710 0.8000 0.1855 0.8268 0.3952 0.8268 0.3952 0.8268 0.1855 0.8268 0.1678 0.9000 0.3952 0.8268 0.1678 0.9000 0.4129 0.9000 0.4129 0.9000 0.1678 0.9000 0.1613 1.0000 0.4129 0.9000 0.1613 1.0000 0.4194 1.0000 0.3952 0.8268 0.2097 0.8000 0.3710 0.8000 0.2097 0.8000 0.3952 0.8268 0.1855 0.8268 0.1855 0.8268 0.3952 0.8268 0.4129 0.9000 0.1855 0.8268 0.4129 0.9000 0.1678 0.9000 0.1678 0.9000 0.4129 0.9000 0.4194 1.0000 0.1678 0.9000 0.4194 1.0000 0.1613 1.0000 " />
						</IndexedFaceSet>
					</Shape>
				</Group>
			</Transform>
		</Transform>
	</Scene>
</X3D>