<?xml version="1.0" encoding="UTF-8"?>
<!DOCTYPE X3D PUBLIC "ISO//Web3D//DTD X3D 3.0//EN" "http://www.web3d.org/specifications/x3d-3.0.dtd">
<X3D version="3.0" profile="Immersive" xmlns:xsd="http://www.w3.org/2001/XMLSchema-instance" xsd:noNamespaceSchemaLocation="http://www.web3d.org/specifications/x3d-3.0.xsd">
	<head>
		<meta name="filename" content="02-4-A 令栱A.x3d" />
		<meta name="created" content="2025-12-28 15:30:44" />
		<meta name="generator" content="Blender 4.2.2 LTS" />
		<meta name="translator" content="Web3D X3D/VRML2 format v2.5.1" />
	</head>
	<Scene>
		<NavigationInfo headlight="true"
		                visibilityLimit="0.0"
		                type='"EXAMINE", "ANY"'
		                avatarSize="0.25, 1.75, 0.75"
		                />
		<Background DEF="WO_World"
		            groundColor="0.051 0.051 0.051"
		            skyColor="0.051 0.051 0.051"
		            />
		<Transform DEF="Shape_IndexedFaceSet_001_TRANSFORM"
		           translation="0.000000 0.000000 0.000000"
		           scale="0.025400 0.025400 0.025400"
		           rotation="-1.000000 0.000000 0.000000 1.570796"
		           >
			<Transform DEF="Shape_IndexedFaceSet_001_ifs_TRANSFORM"
			           translation="0.000000 0.000000 0.000000"
			           scale="1.000000 1.000000 1.000000"
			           rotation="-0.000000 0.000000 0.000000 0.000000"
			           >
				<Group DEF="group_ME_Shape_IndexedFaceSet_082">
					<Shape>
						<Appearance>
							<Material DEF="MA_Material_009"
							          diffuseColor="0.800 0.800 0.800"
							          specularColor="0.401 0.401 0.401"
							          emissiveColor="0.000 0.000 0.000"
							          ambientIntensity="0.000"
							          shininess="0.500"
							          transparency="0.000"
							          />
						</Appearance>
						<IndexedFaceSet solid="false"
						                texCoordIndex="0 1 2 -1 3 4 5 -1 6 7 8 -1 9 10 11 -1 12 13 14 -1 15 16 17 -1 18 19 20 -1 21 22 23 -1 24 25 26 -1 27 28 29 -1 30 31 32 -1 33 34 35 -1 36 37 38 -1 39 40 41 -1 42 43 44 -1 45 46 47 -1 48 49 50 -1 51 52 53 -1 54 55 56 -1 57 58 59 -1 60 61 62 -1 63 64 65 -1 66 67 68 -1 69 70 71 -1 72 73 74 -1 75 76 77 -1 78 79 80 -1 81 82 83 -1 84 85 86 -1 87 88 89 -1 90 91 92 -1 93 94 95 -1 96 97 98 -1 99 100 101 -1 102 103 104 -1 105 106 107 -1 108 109 110 -1 111 112 113 -1 114 115 116 -1 117 118 119 -1 120 121 122 -1 123 124 125 -1 126 127 128 -1 129 130 131 -1 132 133 134 -1 135 136 137 -1 138 139 140 -1 141 142 143 -1 144 145 146 -1 147 148 149 -1 150 151 152 -1 153 154 155 -1 156 157 158 -1 159 160 161 -1 162 163 164 -1 165 166 167 -1 168 169 170 -1 171 172 173 -1 174 175 176 -1 177 178 179 -1 180 181 182 -1 183 184 185 -1 186 187 188 -1 189 190 191 -1 192 193 194 -1 195 196 197 -1 198 199 200 -1 201 202 203 -1 204 205 206 -1 207 208 209 -1 210 211 212 -1 213 214 215 -1 216 217 218 -1 219 220 221 -1 222 223 224 -1 225 226 227 -1 228 229 230 -1 231 232 233 -1 234 235 236 -1 237 238 239 -1 240 241 242 -1 243 244 245 -1 246 247 248 -1 249 250 251 -1 252 253 254 -1 255 256 257 -1 258 259 260 -1 261 262 263 -1 264 265 266 -1 267 268 269 -1 270 271 272 -1 273 274 275 -1 276 277 278 -1 279 280 281 -1 282 283 284 -1 285 286 287 -1 288 289 290 -1 291 292 293 -1 294 295 296 -1 297 298 299 -1 300 301 302 -1 303 304 305 -1 306 307 308 -1 309 310 311 -1 312 313 314 -1 315 316 317 -1 318 319 320 -1 321 322 323 -1 324 325 326 -1 327 328 329 -1 330 331 332 -1 333 334 335 -1 336 337 338 -1 339 340 341 -1 342 343 344 -1 345 346 347 -1 348 349 350 -1 351 352 353 -1 354 355 356 -1 357 358 359 -1 360 361 362 -1 363 364 365 -1 366 367 368 -1 369 370 371 -1 372 373 374 -1 375 376 377 -1 378 379 380 -1 381 382 383 -1 384 385 386 -1 387 388 389 -1 390 391 392 -1 393 394 395 -1 396 397 398 -1 399 400 401 -1 402 403 404 -1 405 406 407 -1 408 409 410 -1 411 412 413 -1 414 415 416 -1 417 418 419 -1 420 421 422 -1 423 424 425 -1 426 427 428 -1 429 430 431 -1 432 433 434 -1 435 436 437 -1 438 439 440 -1 441 442 443 -1 444 445 446 -1 447 448 449 -1 450 451 452 -1 453 454 455 -1 456 457 458 -1 459 460 461 -1 462 463 464 -1 465 466 467 -1 468 469 470 -1 471 472 473 -1 474 475 476 -1 477 478 479 -1 480 481 482 -1 483 484 485 -1 486 487 488 -1 489 490 491 -1 492 493 494 -1 495 496 497 -1 498 499 500 -1 501 502 503 -1 504 505 506 -1 507 508 509 -1 510 511 512 -1 513 514 515 -1 516 517 518 -1 519 520 521 -1 522 523 524 -1 525 526 527 -1 528 529 530 -1 531 532 533 -1 534 535 536 -1 537 538 539 -1 540 541 542 -1 543 544 545 -1 546 547 548 -1 549 550 551 -1 552 553 554 -1 555 556 557 -1 558 559 560 -1 561 562 563 -1 564 565 566 -1 567 568 569 -1 570 571 572 -1 573 574 575 -1 576 577 578 -1 579 580 581 -1 582 583 584 -1 585 586 587 -1 588 589 590 -1 591 592 593 -1 594 595 596 -1 597 598 599 -1 "
						                coordIndex="0 1 2 -1 3 4 5 -1 4 3 6 -1 6 3 7 -1 7 3 8 -1 8 3 9 -1 9 3 10 -1 9 10 11 -1 9 11 12 -1 9 12 13 -1 9 13 14 -1 14 13 15 -1 14 15 16 -1 15 13 17 -1 15 17 18 -1 15 18 19 -1 15 19 20 -1 16 15 1 -1 16 1 21 -1 21 1 0 -1 16 21 22 -1 16 22 23 -1 16 23 24 -1 16 24 25 -1 25 24 26 -1 26 24 27 -1 26 27 28 -1 26 28 29 -1 26 29 30 -1 26 30 31 -1 31 30 32 -1 32 30 33 -1 34 35 36 -1 35 34 37 -1 37 34 38 -1 39 40 41 -1 40 39 42 -1 43 44 45 -1 44 43 46 -1 47 48 49 -1 48 47 50 -1 51 52 53 -1 52 51 54 -1 55 56 57 -1 56 55 58 -1 59 60 61 -1 60 59 62 -1 62 59 63 -1 63 59 64 -1 64 59 65 -1 63 66 67 -1 66 63 68 -1 68 63 69 -1 69 63 64 -1 68 69 70 -1 71 72 73 -1 72 71 74 -1 73 75 76 -1 75 73 72 -1 75 77 76 -1 77 75 78 -1 79 80 81 -1 80 79 82 -1 83 84 85 -1 84 83 86 -1 86 87 84 -1 87 86 88 -1 89 87 88 -1 87 89 90 -1 91 92 93 -1 92 91 94 -1 95 96 97 -1 96 95 98 -1 99 100 101 -1 100 99 102 -1 103 104 105 -1 104 103 106 -1 106 103 107 -1 106 107 108 -1 107 103 109 -1 108 110 111 -1 110 108 112 -1 112 108 113 -1 113 108 107 -1 112 113 114 -1 115 116 117 -1 116 115 118 -1 116 119 117 -1 119 116 120 -1 120 121 119 -1 121 120 122 -1 123 124 125 -1 124 123 126 -1 127 128 129 -1 128 127 130 -1 130 131 128 -1 131 130 132 -1 133 131 132 -1 131 133 134 -1 135 136 137 -1 136 135 138 -1 139 140 141 -1 140 139 142 -1 143 144 145 -1 144 143 146 -1 147 148 149 -1 148 147 150 -1 151 152 153 -1 152 151 154 -1 155 156 157 -1 156 155 158 -1 156 158 159 -1 160 161 162 -1 161 160 163 -1 164 165 166 -1 165 164 167 -1 167 164 168 -1 167 168 169 -1 167 169 170 -1 167 170 171 -1 171 170 172 -1 172 170 173 -1 173 170 174 -1 174 170 175 -1 174 175 176 -1 176 175 177 -1 174 176 178 -1 178 176 179 -1 179 176 180 -1 176 177 181 -1 181 177 182 -1 182 177 183 -1 182 183 184 -1 183 177 185 -1 185 177 186 -1 186 177 187 -1 187 177 188 -1 187 188 189 -1 187 189 190 -1 190 189 191 -1 191 189 192 -1 192 189 193 -1 193 189 194 -1 193 194 195 -1 193 195 196 -1 197 180 176 -1 198 199 200 -1 199 198 201 -1 202 203 204 -1 203 202 205 -1 205 202 206 -1 206 202 207 -1 207 202 208 -1 208 202 209 -1 210 211 212 -1 211 210 213 -1 214 215 216 -1 215 214 217 -1 215 217 218 -1 215 218 219 -1 215 219 220 -1 215 220 221 -1 222 223 224 -1 223 222 225 -1 226 227 228 -1 227 226 229 -1 230 231 232 -1 231 230 233 -1 231 233 234 -1 231 234 235 -1 231 235 236 -1 231 236 237 -1 238 239 240 -1 239 238 241 -1 242 243 244 -1 243 242 245 -1 245 242 246 -1 246 242 247 -1 247 242 248 -1 248 242 249 -1 250 239 251 -1 239 250 240 -1 252 251 253 -1 251 252 250 -1 254 255 256 -1 255 254 257 -1 258 259 260 -1 259 258 261 -1 227 260 228 -1 260 227 258 -1 262 223 263 -1 223 262 224 -1 264 263 265 -1 263 264 262 -1 266 267 268 -1 267 266 269 -1 270 271 272 -1 271 270 273 -1 212 270 272 -1 270 212 211 -1 "
						                >
							<Coordinate DEF="coords_ME_Shape_IndexedFaceSet_082"
							            point="0.000000 16.141733 5.905512 0.000000 15.748032 1.968504 0.000000 15.748032 5.905512 0.000000 3.937008 5.905512 0.000000 0.000000 3.543307 0.000000 0.000000 5.905512 0.000000 0.524934 2.362205 0.000000 1.574803 1.417323 0.000000 3.149606 0.708661 0.000000 5.249344 0.236220 0.000000 4.095246 5.314960 0.000000 4.527559 4.882647 0.000000 5.118110 4.724409 0.000000 11.023622 4.724409 0.000000 7.874016 0.000000 0.000000 12.598425 1.968504 0.000000 20.472441 0.000000 0.000000 11.614173 4.882647 0.000000 12.046486 5.314960 0.000000 12.204723 5.905512 0.000000 12.598425 5.905512 0.000000 16.299971 5.314960 0.000000 16.732285 4.882647 0.000000 17.322834 4.724409 0.000000 23.228346 4.724409 0.000000 23.097113 0.236220 0.000000 25.196850 0.708661 0.000000 23.818897 4.882647 0.000000 24.251211 5.314960 0.000000 24.409447 5.905512 0.000000 28.346457 5.905512 0.000000 26.771652 1.417323 0.000000 27.821522 2.362205 0.000000 28.346457 3.543307 0.393701 7.874016 0.000000 0.000000 5.249344 0.236220 0.000000 7.874016 0.000000 4.330709 5.249344 0.236220 4.330709 7.874016 0.000000 4.330709 5.249344 0.236220 0.000000 3.149606 0.708661 0.000000 5.249344 0.236220 4.330709 3.149606 0.708661 4.330709 3.149606 0.708661 0.000000 1.574803 1.417323 0.000000 3.149606 0.708661 4.330709 1.574803 1.417323 4.330709 1.574803 1.417323 0.000000 0.524934 2.362205 0.000000 1.574803 1.417323 4.330709 0.524934 2.362205 4.330709 0.000000 3.543307 0.000000 0.524934 2.362205 4.330709 0.524934 2.362205 0.000000 0.000000 3.543307 4.330709 0.000000 5.905512 0.000000 0.000000 3.543307 4.330709 0.000000 3.543307 0.000000 0.000000 5.905512 4.330709 0.000000 5.905512 0.000000 3.937008 5.905512 0.000000 0.000000 5.905512 0.393701 3.937008 5.905512 0.393701 12.204723 5.905512 3.937008 3.937008 5.905512 4.330709 3.937008 5.905512 0.000000 12.598425 5.905512 0.000000 12.204723 5.905512 4.330709 12.598425 5.905512 3.937008 12.204723 5.905512 4.330709 12.204723 5.905512 0.000000 3.937008 5.905512 0.393701 4.095246 5.314960 0.000000 4.095246 5.314960 0.393701 3.937008 5.905512 0.393701 4.527559 4.882647 0.000000 4.527559 4.882647 0.000000 5.118110 4.724409 0.393701 5.118110 4.724409 0.393701 5.118110 4.724409 0.000000 11.023622 4.724409 0.000000 5.118110 4.724409 0.393701 11.023622 4.724409 0.393701 11.023622 4.724409 0.000000 11.614173 4.882647 0.000000 11.023622 4.724409 0.393701 11.614173 4.882647 0.000000 12.046486 5.314960 0.393701 12.046486 5.314960 0.393701 12.204723 5.905512 0.000000 12.204723 5.905512 0.000000 12.598425 5.905512 4.330709 12.598425 1.968504 0.000000 12.598425 1.968504 4.330709 12.598425 5.905512 0.000000 12.598425 1.968504 4.330709 15.748032 1.968504 0.000000 15.748032 1.968504 4.330709 12.598425 1.968504 4.330709 15.748032 5.905512 0.000000 15.748032 1.968504 4.330709 15.748032 1.968504 0.000000 15.748032 5.905512 4.330709 15.748032 5.905512 0.000000 16.141733 5.905512 0.000000 15.748032 5.905512 0.393701 16.141733 5.905512 3.937008 16.141733 5.905512 0.393701 24.409447 5.905512 4.330709 16.141733 5.905512 0.000000 28.346457 5.905512 0.000000 24.409447 5.905512 4.330709 28.346457 5.905512 3.937008 24.409447 5.905512 4.330709 24.409447 5.905512 0.000000 16.141733 5.905512 0.393701 16.299971 5.314960 0.000000 16.299971 5.314960 0.393701 16.141733 5.905512 0.000000 16.732285 4.882647 0.393701 16.732285 4.882647 0.000000 17.322834 4.724409 0.393701 17.322834 4.724409 0.393701 17.322834 4.724409 0.000000 23.228346 4.724409 0.000000 17.322834 4.724409 0.393701 23.228346 4.724409 0.393701 23.228346 4.724409 0.000000 23.818897 4.882647 0.000000 23.228346 4.724409 0.393701 23.818897 4.882647 0.000000 24.251211 5.314960 0.393701 24.251211 5.314960 0.393701 24.409447 5.905512 0.000000 24.409447 5.905512 0.000000 28.346457 5.905512 4.330709 28.346457 3.543307 0.000000 28.346457 3.543307 4.330709 28.346457 5.905512 0.000000 28.346457 3.543307 4.330709 27.821522 2.362205 0.000000 27.821522 2.362205 4.330709 28.346457 3.543307 4.330709 27.821522 2.362205 0.000000 26.771652 1.417323 0.000000 27.821522 2.362205 4.330709 26.771652 1.417323 4.330709 26.771652 1.417323 0.000000 25.196850 0.708661 0.000000 26.771652 1.417323 4.330709 25.196850 0.708661 4.330709 25.196850 0.708661 0.000000 23.097113 0.236220 0.000000 25.196850 0.708661 4.330709 23.097113 0.236220 0.000000 23.097113 0.236220 0.393701 20.472441 0.000000 0.000000 20.472441 0.000000 4.330709 23.097113 0.236220 4.330709 20.472441 0.000000 0.393701 20.472441 0.000000 0.000000 7.874016 0.000000 0.000000 20.472441 0.000000 0.393701 7.874016 0.000000 4.330709 0.524934 2.362205 4.330709 0.000000 5.905512 4.330709 0.000000 3.543307 4.330709 3.937008 5.905512 4.330709 1.574803 1.417323 4.330709 3.149606 0.708661 4.330709 5.249344 0.236220 4.330709 4.095246 5.314960 4.330709 4.527559 4.882647 4.330709 5.118110 4.724409 4.330709 11.023622 4.724409 4.330709 7.874016 0.000000 4.330709 12.598425 1.968504 4.330709 20.472441 0.000000 4.330709 11.614173 4.882647 4.330709 12.046486 5.314960 4.330709 12.204723 5.905512 4.330709 15.748032 1.968504 4.330709 15.748032 5.905512 4.330709 16.299971 5.314960 4.330709 16.141733 5.905512 4.330709 16.732285 4.882647 4.330709 17.322834 4.724409 4.330709 23.228346 4.724409 4.330709 23.097113 0.236220 4.330709 25.196850 0.708661 4.330709 23.818897 4.882647 4.330709 24.251211 5.314960 4.330709 24.409447 5.905512 4.330709 28.346457 5.905512 4.330709 26.771652 1.417323 4.330709 27.821522 2.362205 4.330709 28.346457 3.543307 4.330709 12.598425 5.905512 4.330709 20.472441 0.000000 0.393701 7.874016 0.000000 0.393701 20.472441 0.000000 4.330709 7.874016 0.000000 0.393701 12.204723 5.905512 0.393701 4.095246 5.314960 0.393701 3.937008 5.905512 0.393701 4.527559 4.882647 0.393701 5.118110 4.724409 0.393701 11.023622 4.724409 0.393701 11.614173 4.882647 0.393701 12.046486 5.314960 3.937008 3.937008 5.905512 4.330709 4.095246 5.314960 3.937008 4.095246 5.314960 4.330709 3.937008 5.905512 3.937008 4.095246 5.314960 3.937008 12.204723 5.905512 3.937008 3.937008 5.905512 3.937008 4.527559 4.882647 3.937008 5.118110 4.724409 3.937008 11.023622 4.724409 3.937008 11.614173 4.882647 3.937008 12.046486 5.314960 4.330709 12.204723 5.905512 3.937008 12.046486 5.314960 4.330709 12.046486 5.314960 3.937008 12.204723 5.905512 3.937008 16.141733 5.905512 4.330709 16.299971 5.314960 3.937008 16.299971 5.314960 4.330709 16.141733 5.905512 3.937008 16.299971 5.314960 3.937008 24.409447 5.905512 3.937008 16.141733 5.905512 3.937008 16.732285 4.882647 3.937008 17.322834 4.724409 3.937008 23.228346 4.724409 3.937008 23.818897 4.882647 3.937008 24.251211 5.314960 4.330709 24.409447 5.905512 3.937008 24.251211 5.314960 4.330709 24.251211 5.314960 3.937008 24.409447 5.905512 0.393701 24.409447 5.905512 0.393701 16.299971 5.314960 0.393701 16.141733 5.905512 0.393701 16.732285 4.882647 0.393701 17.322834 4.724409 0.393701 23.228346 4.724409 0.393701 23.818897 4.882647 0.393701 24.251211 5.314960 4.330709 23.818897 4.882647 3.937008 23.818897 4.882647 4.330709 23.228346 4.724409 3.937008 23.228346 4.724409 4.330709 17.322834 4.724409 3.937008 23.228346 4.724409 3.937008 17.322834 4.724409 4.330709 23.228346 4.724409 4.330709 16.732285 4.882647 3.937008 17.322834 4.724409 3.937008 16.732285 4.882647 4.330709 17.322834 4.724409 4.330709 11.614173 4.882647 3.937008 11.614173 4.882647 4.330709 11.023622 4.724409 3.937008 11.023622 4.724409 4.330709 5.118110 4.724409 3.937008 11.023622 4.724409 3.937008 5.118110 4.724409 4.330709 11.023622 4.724409 4.330709 4.527559 4.882647 3.937008 5.118110 4.724409 3.937008 4.527559 4.882647 4.330709 5.118110 4.724409 "
							            />
							<TextureCoordinate point="0.5694 1.0000 0.5556 0.3333 0.5556 1.0000 0.1389 1.0000 0.0000 0.6000 0.0000 1.0000 0.0000 0.6000 0.1389 1.0000 0.0185 0.4000 0.0185 0.4000 0.1389 1.0000 0.0556 0.2400 0.0556 0.2400 0.1389 1.0000 0.1111 0.1200 0.1111 0.1200 0.1389 1.0000 0.1852 0.0400 0.1852 0.0400 0.1389 1.0000 0.1445 0.9000 0.1852 0.0400 0.1445 0.9000 0.1597 0.8268 0.1852 0.0400 0.1597 0.8268 0.1806 0.8000 0.1852 0.0400 0.1806 0.8000 0.3889 0.8000 0.1852 0.0400 0.3889 0.8000 0.2778 0.0000 0.2778 0.0000 0.3889 0.8000 0.4444 0.3333 0.2778 0.0000 0.4444 0.3333 0.7222 0.0000 0.4444 0.3333 0.3889 0.8000 0.4097 0.8268 0.4444 0.3333 0.4097 0.8268 0.4250 0.9000 0.4444 0.3333 0.4250 0.9000 0.4306 1.0000 0.4444 0.3333 0.4306 1.0000 0.4444 1.0000 0.7222 0.0000 0.4444 0.3333 0.5556 0.3333 0.7222 0.0000 0.5556 0.3333 0.5750 0.9000 0.5750 0.9000 0.5556 0.3333 0.5694 1.0000 0.7222 0.0000 0.5750 0.9000 0.5903 0.8268 0.7222 0.0000 0.5903 0.8268 0.6111 0.8000 0.7222 0.0000 0.6111 0.8000 0.8194 0.8000 0.7222 0.0000 0.8194 0.8000 0.8148 0.0400 0.8148 0.0400 0.8194 0.8000 0.8889 0.1200 0.8889 0.1200 0.8194 0.8000 0.8403 0.8268 0.8889 0.1200 0.8403 0.8268 0.8555 0.9000 0.8889 0.1200 0.8555 0.9000 0.8611 1.0000 0.8889 0.1200 0.8611 1.0000 1.0000 1.0000 0.8889 0.1200 1.0000 1.0000 0.9444 0.2400 0.9444 0.2400 1.0000 1.0000 0.9815 0.4000 0.9815 0.4000 1.0000 1.0000 1.0000 0.6000 0.2778 0.0000 0.1852 0.0400 0.2778 0.0000 0.1852 0.0400 0.2778 0.0000 0.1852 0.0400 0.1852 0.0400 0.2778 0.0000 0.2778 0.0000 0.1852 0.0400 0.1111 0.1200 0.1852 0.0400 0.1111 0.1200 0.1852 0.0400 0.1111 0.1200 0.1111 0.1200 0.0556 0.2400 0.1111 0.1200 0.0556 0.2400 0.1111 0.1200 0.0556 0.2400 0.0556 0.2400 0.0185 0.4000 0.0556 0.2400 0.0185 0.4000 0.0556 0.2400 0.0185 0.4000 0.0000 0.6000 0.0185 0.4000 0.0185 0.4000 0.0185 0.4000 0.0000 0.6000 0.0000 0.6000 0.0000 1.0000 0.0000 0.6000 0.0000 0.6000 0.0000 0.6000 0.0000 1.0000 0.0000 1.0000 0.0000 1.0000 0.1389 1.0000 0.0000 1.0000 0.1389 1.0000 0.0000 1.0000 0.1389 1.0000 0.1389 1.0000 0.0000 1.0000 0.4306 1.0000 0.4306 1.0000 0.0000 1.0000 0.1389 1.0000 0.1389 1.0000 0.0000 1.0000 0.1389 1.0000 0.4306 1.0000 0.4444 1.0000 0.4306 1.0000 0.4444 1.0000 0.4306 1.0000 0.4444 1.0000 0.4444 1.0000 0.4306 1.0000 0.4306 1.0000 0.4306 1.0000 0.4306 1.0000 0.1389 1.0000 0.4444 1.0000 0.4306 1.0000 0.4306 1.0000 0.1389 1.0000 0.1445 0.9000 0.1445 0.9000 0.1445 0.9000 0.1389 1.0000 0.1389 1.0000 0.1445 0.9000 0.1597 0.8268 0.1597 0.8268 0.1597 0.8268 0.1445 0.9000 0.1445 0.9000 0.1597 0.8268 0.1806 0.8000 0.1597 0.8268 0.1806 0.8000 0.1597 0.8268 0.1806 0.8000 0.1806 0.8000 0.3889 0.8000 0.1806 0.8000 0.3889 0.8000 0.1806 0.8000 0.3889 0.8000 0.3889 0.8000 0.4097 0.8268 0.3889 0.8000 0.4097 0.8268 0.3889 0.8000 0.4097 0.8268 0.4097 0.8268 0.4250 0.9000 0.4097 0.8268 0.4250 0.9000 0.4097 0.8268 0.4250 0.9000 0.4306 1.0000 0.4250 0.9000 0.4250 0.9000 0.4250 0.9000 0.4306 1.0000 0.4306 1.0000 0.4444 1.0000 0.4444 0.3333 0.4444 0.3333 0.4444 0.3333 0.4444 1.0000 0.4444 1.0000 0.4444 0.3333 0.5556 0.3333 0.5556 0.3333 0.5556 0.3333 0.4444 0.3333 0.4444 0.3333 0.5556 1.0000 0.5556 0.3333 0.5556 0.3333 0.5556 0.3333 0.5556 1.0000 0.5556 1.0000 0.5556 1.0000 0.5694 1.0000 0.5556 1.0000 0.5694 1.0000 0.5556 1.0000 0.5694 1.0000 0.5694 1.0000 0.5556 1.0000 0.5694 1.0000 0.5694 1.0000 0.5694 1.0000 0.8611 1.0000 0.5694 1.0000 0.5556 1.0000 0.5694 1.0000 0.8611 1.0000 1.0000 1.0000 0.8611 1.0000 1.0000 1.0000 0.8611 1.0000 1.0000 1.0000 1.0000 1.0000 0.8611 1.0000 0.8611 1.0000 0.8611 1.0000 0.8611 1.0000 0.5694 1.0000 1.0000 1.0000 0.8611 1.0000 0.8611 1.0000 0.5694 1.0000 0.5750 0.9000 0.5750 0.9000 0.5750 0.9000 0.5694 1.0000 0.5694 1.0000 0.5750 0.9000 0.5903 0.8268 0.5750 0.9000 0.5903 0.8268 0.5750 0.9000 0.5903 0.8268 0.5903 0.8268 0.6111 0.8000 0.5903 0.8268 0.6111 0.8000 0.5903 0.8268 0.6111 0.8000 0.6111 0.8000 0.8194 0.8000 0.6111 0.8000 0.8194 0.8000 0.6111 0.8000 0.8194 0.8000 0.8194 0.8000 0.8403 0.8268 0.8194 0.8000 0.8403 0.8268 0.8194 0.8000 0.8403 0.8268 0.8403 0.8268 0.8555 0.9000 0.8403 0.8268 0.8555 0.9000 0.8403 0.8268 0.8555 0.9000 0.8611 1.0000 0.8555 0.9000 0.8555 0.9000 0.8555 0.9000 0.8611 1.0000 0.8611 1.0000 1.0000 1.0000 1.0000 0.6000 1.0000 0.6000 1.0000 0.6000 1.0000 1.0000 1.0000 1.0000 1.0000 0.6000 0.9815 0.4000 0.9815 0.4000 0.9815 0.4000 1.0000 0.6000 1.0000 0.6000 0.9815 0.4000 0.9444 0.2400 0.9815 0.4000 0.9444 0.2400 0.9815 0.4000 0.9444 0.2400 0.9444 0.2400 0.8889 0.1200 0.9444 0.2400 0.8889 0.1200 0.9444 0.2400 0.8889 0.1200 0.8889 0.1200 0.8148 0.0400 0.8889 0.1200 0.8148 0.0400 0.8889 0.1200 0.8148 0.0400 0.8148 0.0400 0.7222 0.0000 0.7222 0.0000 0.7222 0.0000 0.8148 0.0400 0.8148 0.0400 0.7222 0.0000 0.8148 0.0400 0.7222 0.0000 0.7222 0.0000 0.2778 0.0000 0.7222 0.0000 0.2778 0.0000 0.7222 0.0000 0.2778 0.0000 0.0185 0.4000 0.0000 1.0000 0.0000 0.6000 0.0000 1.0000 0.0185 0.4000 0.1389 1.0000 0.1389 1.0000 0.0185 0.4000 0.0556 0.2400 0.1389 1.0000 0.0556 0.2400 0.1111 0.1200 0.1389 1.0000 0.1111 0.1200 0.1852 0.0400 0.1389 1.0000 0.1852 0.0400 0.1445 0.9000 0.1445 0.9000 0.1852 0.0400 0.1597 0.8268 0.1597 0.8268 0.1852 0.0400 0.1806 0.8000 0.1806 0.8000 0.1852 0.0400 0.3889 0.8000 0.3889 0.8000 0.1852 0.0400 0.2778 0.0000 0.3889 0.8000 0.2778 0.0000 0.4444 0.3333 0.4444 0.3333 0.2778 0.0000 0.7222 0.0000 0.3889 0.8000 0.4444 0.3333 0.4097 0.8268 0.4097 0.8268 0.4444 0.3333 0.4250 0.9000 0.4250 0.9000 0.4444 0.3333 0.4306 1.0000 0.4444 0.3333 0.7222 0.0000 0.5556 0.3333 0.5556 0.3333 0.7222 0.0000 0.5556 1.0000 0.5556 1.0000 0.7222 0.0000 0.5750 0.9000 0.5556 1.0000 0.5750 0.9000 0.5694 1.0000 0.5750 0.9000 0.7222 0.0000 0.5903 0.8268 0.5903 0.8268 0.7222 0.0000 0.6111 0.8000 0.6111 0.8000 0.7222 0.0000 0.8194 0.8000 0.8194 0.8000 0.7222 0.0000 0.8148 0.0400 0.8194 0.8000 0.8148 0.0400 0.8889 0.1200 0.8194 0.8000 0.8889 0.1200 0.8403 0.8268 0.8403 0.8268 0.8889 0.1200 0.8555 0.9000 0.8555 0.9000 0.8889 0.1200 0.8611 1.0000 0.8611 1.0000 0.8889 0.1200 1.0000 1.0000 1.0000 1.0000 0.8889 0.1200 0.9444 0.2400 1.0000 1.0000 0.9444 0.2400 0.9815 0.4000 1.0000 1.0000 0.9815 0.4000 1.0000 0.6000 0.4444 1.0000 0.4306 1.0000 0.4444 0.3333 0.7222 0.0000 0.2778 0.0000 0.7222 0.0000 0.2778 0.0000 0.7222 0.0000 0.2778 0.0000 0.4306 1.0000 0.1445 0.9000 0.1389 1.0000 0.1445 0.9000 0.4306 1.0000 0.1597 0.8268 0.1597 0.8268 0.4306 1.0000 0.1806 0.8000 0.1806 0.8000 0.4306 1.0000 0.3889 0.8000 0.3889 0.8000 0.4306 1.0000 0.4097 0.8268 0.4097 0.8268 0.4306 1.0000 0.4250 0.9000 0.1389 1.0000 0.1445 0.9000 0.1445 0.9000 0.1445 0.9000 0.1389 1.0000 0.1389 1.0000 0.1445 0.9000 0.4306 1.0000 0.1389 1.0000 0.4306 1.0000 0.1445 0.9000 0.1597 0.8268 0.4306 1.0000 0.1597 0.8268 0.1806 0.8000 0.4306 1.0000 0.1806 0.8000 0.3889 0.8000 0.4306 1.0000 0.3889 0.8000 0.4097 0.8268 0.4306 1.0000 0.4097 0.8268 0.4250 0.9000 0.4306 1.0000 0.4250 0.9000 0.4250 0.9000 0.4250 0.9000 0.4306 1.0000 0.4306 1.0000 0.5694 1.0000 0.5750 0.9000 0.5750 0.9000 0.5750 0.9000 0.5694 1.0000 0.5694 1.0000 0.5750 0.9000 0.8611 1.0000 0.5694 1.0000 0.8611 1.0000 0.5750 0.9000 0.5903 0.8268 0.8611 1.0000 0.5903 0.8268 0.6111 0.8000 0.8611 1.0000 0.6111 0.8000 0.8194 0.8000 0.8611 1.0000 0.8194 0.8000 0.8403 0.8268 0.8611 1.0000 0.8403 0.8268 0.8555 0.9000 0.8611 1.0000 0.8555 0.9000 0.8555 0.9000 0.8555 0.9000 0.8611 1.0000 0.8611 1.0000 0.8611 1.0000 0.5750 0.9000 0.5694 1.0000 0.5750 0.9000 0.8611 1.0000 0.5903 0.8268 0.5903 0.8268 0.8611 1.0000 0.6111 0.8000 0.6111 0.8000 0.8611 1.0000 0.8194 0.8000 0.8194 0.8000 0.8611 1.0000 0.8403 0.8268 0.8403 0.8268 0.8611 1.0000 0.8555 0.9000 0.8403 0.8268 0.8555 0.9000 0.8403 0.8268 0.8555 0.9000 0.8403 0.8268 0.8555 0.9000 0.8194 0.8000 0.8403 0.8268 0.8194 0.8000 0.8403 0.8268 0.8194 0.8000 0.8403 0.8268 0.6111 0.8000 0.8194 0.8000 0.6111 0.8000 0.8194 0.8000 0.6111 0.8000 0.8194 0.8000 0.5903 0.8268 0.6111 0.8000 0.5903 0.8268 0.6111 0.8000 0.5903 0.8268 0.6111 0.8000 0.5750 0.9000 0.5903 0.8268 0.5750 0.9000 0.5903 0.8268 0.5750 0.9000 0.5903 0.8268 0.4097 0.8268 0.4250 0.9000 0.4097 0.8268 0.4250 0.9000 0.4097 0.8268 0.4250 0.9000 0.3889 0.8000 0.4097 0.8268 0.3889 0.8000 0.4097 0.8268 0.3889 0.8000 0.4097 0.8268 0.1806 0.8000 0.3889 0.8000 0.1806 0.8000 0.3889 0.8000 0.1806 0.8000 0.3889 0.8000 0.1597 0.8268 0.1806 0.8000 0.1597 0.8268 0.1806 0.8000 0.1597 0.8268 0.1806 0.8000 0.1445 0.9000 0.1597 0.8268 0.1597 0.8268 0.1597 0.8268 0.1445 0.9000 0.1445 0.9000 " />
						</IndexedFaceSet>
					</Shape>
				</Group>
			</Transform>
		</Transform>
	</Scene>
</X3D>