<?xml version="1.0" encoding="UTF-8"?>
<!DOCTYPE X3D PUBLIC "ISO//Web3D//DTD X3D 3.0//EN" "http://www.web3d.org/specifications/x3d-3.0.dtd">
<X3D version="3.0" profile="Immersive" xmlns:xsd="http://www.w3.org/2001/XMLSchema-instance" xsd:noNamespaceSchemaLocation="http://www.web3d.org/specifications/x3d-3.0.xsd">
	<head>
		<meta name="filename" content="02-5-A 慢栱A.x3d" />
		<meta name="created" content="2025-12-28 13:47:16" />
		<meta name="generator" content="Blender 4.2.2 LTS" />
		<meta name="translator" content="Web3D X3D/VRML2 format v2.5.1" />
	</head>
	<Scene>
		<NavigationInfo headlight="true"
		                visibilityLimit="0.0"
		                type='"EXAMINE", "ANY"'
		                avatarSize="0.25, 1.75, 0.75"
		                />
		<Background DEF="WO_World"
		            groundColor="0.051 0.051 0.051"
		            skyColor="0.051 0.051 0.051"
		            />
		<Transform DEF="Shape_IndexedFaceSet_001_TRANSFORM"
		           translation="0.000000 0.000000 0.000000"
		           scale="0.025400 0.025400 0.025400"
		           rotation="-1.000000 0.000000 0.000000 1.570796"
		           >
			<Transform DEF="Shape_IndexedFaceSet_001_ifs_TRANSFORM"
			           translation="0.000000 0.000000 0.000000"
			           scale="1.000000 1.000000 1.000000"
			           rotation="-0.000000 0.000000 0.000000 0.000000"
			           >
				<Group DEF="group_ME_Shape_IndexedFaceSet_004">
					<Shape>
						<Appearance>
							<Material DEF="MA_Material_002"
							          diffuseColor="0.800 0.800 0.800"
							          specularColor="0.401 0.401 0.401"
							          emissiveColor="0.000 0.000 0.000"
							          ambientIntensity="0.000"
							          shininess="0.500"
							          transparency="0.000"
							          />
						</Appearance>
						<IndexedFaceSet solid="false"
						                texCoordIndex="0 1 2 -1 3 4 5 -1 6 7 8 -1 9 10 11 -1 12 13 14 -1 15 16 17 -1 18 19 20 -1 21 22 23 -1 24 25 26 -1 27 28 29 -1 30 31 32 -1 33 34 35 -1 36 37 38 -1 39 40 41 -1 42 43 44 -1 45 46 47 -1 48 49 50 -1 51 52 53 -1 54 55 56 -1 57 58 59 -1 60 61 62 -1 63 64 65 -1 66 67 68 -1 69 70 71 -1 72 73 74 -1 75 76 77 -1 78 79 80 -1 81 82 83 -1 84 85 86 -1 87 88 89 -1 90 91 92 -1 93 94 95 -1 96 97 98 -1 99 100 101 -1 102 103 104 -1 105 106 107 -1 108 109 110 -1 111 112 113 -1 114 115 116 -1 117 118 119 -1 120 121 122 -1 123 124 125 -1 126 127 128 -1 129 130 131 -1 132 133 134 -1 135 136 137 -1 138 139 140 -1 141 142 143 -1 144 145 146 -1 147 148 149 -1 150 151 152 -1 153 154 155 -1 156 157 158 -1 159 160 161 -1 162 163 164 -1 165 166 167 -1 168 169 170 -1 171 172 173 -1 174 175 176 -1 177 178 179 -1 180 181 182 -1 183 184 185 -1 186 187 188 -1 189 190 191 -1 192 193 194 -1 195 196 197 -1 198 199 200 -1 201 202 203 -1 204 205 206 -1 207 208 209 -1 210 211 212 -1 213 214 215 -1 216 217 218 -1 219 220 221 -1 222 223 224 -1 225 226 227 -1 228 229 230 -1 231 232 233 -1 234 235 236 -1 237 238 239 -1 240 241 242 -1 243 244 245 -1 246 247 248 -1 249 250 251 -1 252 253 254 -1 255 256 257 -1 258 259 260 -1 261 262 263 -1 264 265 266 -1 267 268 269 -1 270 271 272 -1 273 274 275 -1 276 277 278 -1 279 280 281 -1 282 283 284 -1 285 286 287 -1 288 289 290 -1 291 292 293 -1 294 295 296 -1 297 298 299 -1 300 301 302 -1 303 304 305 -1 306 307 308 -1 309 310 311 -1 312 313 314 -1 315 316 317 -1 318 319 320 -1 321 322 323 -1 324 325 326 -1 327 328 329 -1 330 331 332 -1 333 334 335 -1 336 337 338 -1 339 340 341 -1 342 343 344 -1 345 346 347 -1 348 349 350 -1 351 352 353 -1 354 355 356 -1 357 358 359 -1 360 361 362 -1 363 364 365 -1 366 367 368 -1 369 370 371 -1 372 373 374 -1 375 376 377 -1 378 379 380 -1 381 382 383 -1 384 385 386 -1 387 388 389 -1 390 391 392 -1 393 394 395 -1 396 397 398 -1 399 400 401 -1 402 403 404 -1 405 406 407 -1 408 409 410 -1 411 412 413 -1 414 415 416 -1 417 418 419 -1 420 421 422 -1 423 424 425 -1 426 427 428 -1 429 430 431 -1 432 433 434 -1 435 436 437 -1 438 439 440 -1 441 442 443 -1 444 445 446 -1 447 448 449 -1 450 451 452 -1 453 454 455 -1 456 457 458 -1 459 460 461 -1 462 463 464 -1 465 466 467 -1 468 469 470 -1 471 472 473 -1 474 475 476 -1 477 478 479 -1 480 481 482 -1 483 484 485 -1 486 487 488 -1 489 490 491 -1 492 493 494 -1 495 496 497 -1 498 499 500 -1 501 502 503 -1 504 505 506 -1 507 508 509 -1 510 511 512 -1 513 514 515 -1 516 517 518 -1 519 520 521 -1 522 523 524 -1 525 526 527 -1 528 529 530 -1 531 532 533 -1 534 535 536 -1 537 538 539 -1 540 541 542 -1 543 544 545 -1 546 547 548 -1 549 550 551 -1 552 553 554 -1 555 556 557 -1 558 559 560 -1 561 562 563 -1 "
						                coordIndex="0 1 2 -1 1 0 3 -1 3 0 4 -1 4 0 5 -1 5 0 6 -1 6 0 7 -1 8 9 10 -1 9 8 11 -1 11 8 12 -1 12 8 13 -1 13 8 14 -1 12 15 16 -1 15 12 17 -1 17 12 18 -1 18 12 13 -1 17 18 19 -1 20 21 22 -1 21 20 23 -1 24 21 25 -1 21 24 22 -1 26 25 27 -1 25 26 24 -1 28 29 30 -1 29 28 31 -1 32 33 34 -1 33 32 35 -1 36 34 37 -1 34 36 32 -1 38 36 37 -1 36 38 39 -1 40 41 42 -1 41 40 43 -1 44 45 46 -1 47 48 49 -1 48 47 50 -1 50 47 51 -1 51 47 52 -1 52 47 53 -1 53 47 54 -1 53 54 55 -1 53 55 56 -1 53 56 57 -1 53 57 58 -1 57 56 59 -1 57 59 60 -1 57 60 61 -1 57 61 62 -1 57 62 63 -1 58 57 45 -1 58 45 64 -1 64 45 65 -1 65 45 44 -1 58 64 66 -1 58 66 67 -1 58 67 68 -1 58 68 69 -1 69 68 70 -1 69 70 71 -1 69 71 72 -1 69 72 73 -1 73 72 74 -1 74 72 75 -1 76 77 78 -1 77 76 79 -1 80 81 82 -1 81 80 83 -1 83 80 84 -1 83 84 85 -1 83 85 86 -1 83 86 87 -1 87 86 88 -1 88 86 89 -1 89 86 90 -1 90 86 91 -1 89 90 92 -1 92 90 93 -1 93 90 94 -1 94 90 95 -1 90 91 96 -1 96 91 97 -1 96 97 98 -1 96 98 99 -1 99 98 100 -1 97 91 101 -1 101 91 102 -1 102 91 103 -1 103 91 104 -1 103 104 105 -1 105 104 106 -1 106 104 107 -1 107 104 108 -1 107 108 109 -1 107 109 110 -1 111 95 90 -1 112 113 114 -1 113 112 115 -1 116 117 118 -1 117 116 119 -1 117 119 120 -1 117 120 121 -1 117 121 122 -1 117 122 123 -1 124 125 126 -1 125 124 127 -1 128 129 130 -1 129 128 131 -1 132 133 134 -1 133 132 135 -1 136 137 138 -1 137 136 139 -1 140 141 142 -1 141 140 143 -1 144 145 146 -1 145 144 147 -1 148 149 150 -1 149 148 151 -1 152 153 154 -1 153 152 155 -1 153 155 156 -1 153 156 157 -1 156 155 158 -1 157 159 160 -1 159 157 161 -1 161 157 162 -1 162 157 156 -1 161 162 163 -1 164 165 166 -1 165 164 167 -1 165 168 166 -1 168 165 169 -1 169 170 168 -1 170 169 171 -1 172 173 174 -1 173 172 175 -1 176 177 178 -1 177 176 179 -1 179 180 177 -1 180 179 181 -1 182 180 181 -1 180 182 183 -1 184 185 186 -1 185 184 187 -1 188 189 190 -1 189 188 191 -1 192 193 194 -1 193 192 195 -1 196 197 198 -1 197 196 199 -1 200 201 202 -1 201 200 203 -1 204 205 206 -1 205 204 207 -1 208 209 210 -1 209 208 211 -1 212 209 213 -1 209 212 210 -1 214 213 215 -1 213 214 212 -1 216 217 218 -1 217 216 219 -1 220 221 222 -1 221 220 223 -1 224 222 225 -1 222 224 220 -1 226 224 225 -1 224 226 227 -1 228 125 229 -1 125 228 126 -1 230 229 231 -1 229 230 228 -1 232 233 234 -1 233 232 235 -1 236 237 238 -1 237 236 239 -1 113 238 114 -1 238 113 236 -1 240 241 242 -1 241 240 243 -1 241 243 244 -1 241 244 245 -1 241 245 246 -1 241 246 247 -1 248 249 250 -1 249 248 251 -1 251 248 252 -1 252 248 253 -1 253 248 254 -1 254 248 255 -1 "
						                >
							<Coordinate DEF="coords_ME_Shape_IndexedFaceSet_004"
							            point="0.393701 16.141733 5.905512 0.393701 4.095246 5.314960 0.393701 3.937008 5.905512 0.393701 4.527559 4.882647 0.393701 5.118110 4.724409 0.393701 14.960629 4.724409 0.393701 15.551181 4.882647 0.393701 15.983494 5.314960 3.937008 0.000000 5.905512 0.000000 3.937008 5.905512 0.000000 0.000000 5.905512 0.393701 3.937008 5.905512 0.393701 16.141733 5.905512 3.543307 3.937008 5.905512 3.937008 3.937008 5.905512 0.000000 16.535433 5.905512 0.000000 16.141733 5.905512 3.937008 16.535433 5.905512 3.543307 16.141733 5.905512 3.937008 16.141733 5.905512 0.393701 16.141733 5.905512 0.000000 15.983494 5.314960 0.393701 15.983494 5.314960 0.000000 16.141733 5.905512 0.393701 15.551181 4.882647 0.000000 15.551181 4.882647 0.393701 14.960629 4.724409 0.000000 14.960629 4.724409 0.393701 5.118110 4.724409 0.000000 14.960629 4.724409 0.000000 5.118110 4.724409 0.393701 14.960629 4.724409 0.393701 4.527559 4.882647 0.000000 5.118110 4.724409 0.000000 4.527559 4.882647 0.393701 5.118110 4.724409 0.393701 4.095246 5.314960 0.000000 4.095246 5.314960 0.000000 3.937008 5.905512 0.393701 3.937008 5.905512 0.000000 16.535433 5.905512 3.937008 16.535433 1.968504 0.000000 16.535433 1.968504 3.937008 16.535433 5.905512 0.000000 20.078739 5.905511 0.000000 19.685040 1.968504 0.000000 19.685040 5.905511 0.000000 3.937008 5.905512 0.000000 0.000000 3.543307 0.000000 0.000000 5.905512 0.000000 0.472441 2.125984 0.000000 1.417323 1.062992 0.000000 2.834646 0.354331 0.000000 4.724409 0.000000 0.000000 4.095246 5.314960 0.000000 4.527559 4.882647 0.000000 5.118110 4.724409 0.000000 16.535433 1.968504 0.000000 31.496063 0.000000 0.000000 14.960629 4.724409 0.000000 15.551181 4.882647 0.000000 15.983494 5.314960 0.000000 16.141733 5.905512 0.000000 16.535433 5.905512 0.000000 20.669291 4.882647 0.000000 20.236977 5.314961 0.000000 21.259842 4.724409 0.000000 31.102362 4.724409 0.000000 31.692911 4.882647 0.000000 33.385826 0.354331 0.000000 32.125229 5.314961 0.000000 32.283466 5.905511 0.000000 36.220470 5.905512 0.000000 34.803150 1.062992 0.000000 35.748028 2.125984 0.000000 36.220470 3.543307 3.937008 0.000000 5.905512 0.000000 0.000000 3.543307 3.937008 0.000000 3.543307 0.000000 0.000000 5.905512 3.937008 0.472441 2.125984 3.937008 0.000000 5.905512 3.937008 0.000000 3.543307 3.937008 3.937008 5.905512 3.937008 1.417323 1.062992 3.937008 2.834646 0.354331 3.937008 4.724409 0.000000 3.937008 4.095246 5.314960 3.937008 4.527559 4.882647 3.937008 5.118110 4.724409 3.937008 16.535433 1.968504 3.937008 31.496063 0.000000 3.937008 14.960629 4.724409 3.937008 15.551181 4.882647 3.937008 15.983494 5.314960 3.937008 16.141733 5.905512 3.937008 19.685040 1.968504 3.937008 20.669291 4.882647 3.937008 20.236977 5.314961 3.937008 19.685040 5.905511 3.937008 20.078739 5.905511 3.937008 21.259842 4.724409 3.937008 31.102362 4.724409 3.937008 31.692911 4.882647 3.937008 33.385826 0.354331 3.937008 32.125229 5.314961 3.937008 32.283466 5.905511 3.937008 36.220470 5.905512 3.937008 34.803150 1.062992 3.937008 35.748028 2.125984 3.937008 36.220470 3.543307 3.937008 16.535433 5.905512 3.543307 3.937008 5.905512 3.937008 4.095246 5.314960 3.543307 4.095246 5.314960 3.937008 3.937008 5.905512 3.543307 4.095246 5.314960 3.543307 16.141733 5.905512 3.543307 3.937008 5.905512 3.543307 4.527559 4.882647 3.543307 5.118110 4.724409 3.543307 14.960629 4.724409 3.543307 15.551181 4.882647 3.543307 15.983494 5.314960 3.937008 16.141733 5.905512 3.543307 15.983494 5.314960 3.937008 15.983494 5.314960 3.543307 16.141733 5.905512 3.937008 16.535433 1.968504 0.000000 19.685040 1.968504 0.000000 16.535433 1.968504 3.937008 19.685040 1.968504 3.937008 4.724409 0.000000 0.000000 2.834646 0.354331 0.000000 4.724409 0.000000 3.937008 2.834646 0.354331 3.937008 2.834646 0.354331 0.000000 1.417323 1.062992 0.000000 2.834646 0.354331 3.937008 1.417323 1.062992 3.937008 0.472441 2.125984 0.000000 1.417323 1.062992 3.937008 1.417323 1.062992 0.000000 0.472441 2.125984 3.937008 0.000000 3.543307 0.000000 0.472441 2.125984 3.937008 0.472441 2.125984 0.000000 0.000000 3.543307 3.937008 19.685040 5.905511 0.000000 19.685040 1.968504 3.937008 19.685040 1.968504 0.000000 19.685040 5.905511 0.000000 19.685040 5.905511 0.393701 20.078739 5.905511 0.000000 20.078739 5.905511 3.937008 19.685040 5.905511 3.543307 20.078739 5.905511 0.393701 32.283466 5.905511 3.937008 20.078739 5.905511 0.000000 36.220470 5.905512 0.000000 32.283466 5.905511 3.937008 36.220470 5.905512 3.543307 32.283466 5.905511 3.937008 32.283466 5.905511 0.000000 20.078739 5.905511 0.393701 20.236977 5.314961 0.000000 20.236977 5.314961 0.393701 20.078739 5.905511 0.000000 20.669291 4.882647 0.393701 20.669291 4.882647 0.000000 21.259842 4.724409 0.393701 21.259842 4.724409 0.393701 21.259842 4.724409 0.000000 31.102362 4.724409 0.000000 21.259842 4.724409 0.393701 31.102362 4.724409 0.393701 31.102362 4.724409 0.000000 31.692911 4.882647 0.000000 31.102362 4.724409 0.393701 31.692911 4.882647 0.000000 32.125229 5.314961 0.393701 32.125229 5.314961 0.393701 32.283466 5.905511 0.000000 32.283466 5.905511 0.000000 36.220470 5.905512 3.937008 36.220470 3.543307 0.000000 36.220470 3.543307 3.937008 36.220470 5.905512 0.000000 36.220470 3.543307 3.937008 35.748028 2.125984 0.000000 35.748028 2.125984 3.937008 36.220470 3.543307 0.000000 35.748028 2.125984 3.937008 34.803150 1.062992 0.000000 34.803150 1.062992 3.937008 35.748028 2.125984 3.937008 34.803150 1.062992 0.000000 33.385826 0.354331 0.000000 34.803150 1.062992 3.937008 33.385826 0.354331 3.937008 33.385826 0.354331 0.000000 31.496063 0.000000 0.000000 33.385826 0.354331 3.937008 31.496063 0.000000 0.000000 31.496063 0.000000 3.937008 4.724409 0.000000 0.000000 4.724409 0.000000 3.937008 31.496063 0.000000 3.937008 32.283466 5.905511 3.543307 32.125229 5.314961 3.937008 32.125229 5.314961 3.543307 32.283466 5.905511 3.937008 31.692911 4.882647 3.543307 31.692911 4.882647 3.937008 31.102362 4.724409 3.543307 31.102362 4.724409 3.937008 21.259842 4.724409 3.543307 31.102362 4.724409 3.543307 21.259842 4.724409 3.937008 31.102362 4.724409 3.937008 20.669291 4.882647 3.543307 21.259842 4.724409 3.543307 20.669291 4.882647 3.937008 21.259842 4.724409 3.937008 20.236977 5.314961 3.543307 20.236977 5.314961 3.543307 20.078739 5.905511 3.937008 20.078739 5.905511 3.937008 15.551181 4.882647 3.543307 15.551181 4.882647 3.937008 14.960629 4.724409 3.543307 14.960629 4.724409 3.937008 5.118110 4.724409 3.543307 14.960629 4.724409 3.543307 5.118110 4.724409 3.937008 14.960629 4.724409 3.937008 4.527559 4.882647 3.543307 5.118110 4.724409 3.543307 4.527559 4.882647 3.937008 5.118110 4.724409 3.543307 20.236977 5.314961 3.543307 32.283466 5.905511 3.543307 20.078739 5.905511 3.543307 20.669291 4.882647 3.543307 21.259842 4.724409 3.543307 31.102362 4.724409 3.543307 31.692911 4.882647 3.543307 32.125229 5.314961 0.393701 32.283466 5.905511 0.393701 20.236977 5.314961 0.393701 20.078739 5.905511 0.393701 20.669291 4.882647 0.393701 21.259842 4.724409 0.393701 31.102362 4.724409 0.393701 31.692911 4.882647 0.393701 32.125229 5.314961 "
							            />
							<TextureCoordinate point="0.4457 1.0000 0.1131 0.9000 0.1087 1.0000 0.1131 0.9000 0.4457 1.0000 0.1250 0.8268 0.1250 0.8268 0.4457 1.0000 0.1413 0.8000 0.1413 0.8000 0.4457 1.0000 0.4130 0.8000 0.4130 0.8000 0.4457 1.0000 0.4293 0.8268 0.4293 0.8268 0.4457 1.0000 0.4413 0.9000 0.0000 1.0000 0.1087 1.0000 0.0000 1.0000 0.1087 1.0000 0.0000 1.0000 0.1087 1.0000 0.1087 1.0000 0.0000 1.0000 0.4457 1.0000 0.4457 1.0000 0.0000 1.0000 0.1087 1.0000 0.1087 1.0000 0.0000 1.0000 0.1087 1.0000 0.4457 1.0000 0.4565 1.0000 0.4457 1.0000 0.4565 1.0000 0.4457 1.0000 0.4565 1.0000 0.4565 1.0000 0.4457 1.0000 0.4457 1.0000 0.4457 1.0000 0.4457 1.0000 0.1087 1.0000 0.4565 1.0000 0.4457 1.0000 0.4457 1.0000 0.4457 1.0000 0.4413 0.9000 0.4413 0.9000 0.4413 0.9000 0.4457 1.0000 0.4457 1.0000 0.4293 0.8268 0.4413 0.9000 0.4293 0.8268 0.4413 0.9000 0.4293 0.8268 0.4413 0.9000 0.4130 0.8000 0.4293 0.8268 0.4130 0.8000 0.4293 0.8268 0.4130 0.8000 0.4293 0.8268 0.1413 0.8000 0.4130 0.8000 0.1413 0.8000 0.4130 0.8000 0.1413 0.8000 0.4130 0.8000 0.1250 0.8268 0.1413 0.8000 0.1250 0.8268 0.1413 0.8000 0.1250 0.8268 0.1413 0.8000 0.1131 0.9000 0.1250 0.8268 0.1131 0.9000 0.1250 0.8268 0.1131 0.9000 0.1250 0.8268 0.1087 1.0000 0.1131 0.9000 0.1131 0.9000 0.1131 0.9000 0.1087 1.0000 0.1087 1.0000 0.4565 1.0000 0.4565 0.3333 0.4565 0.3333 0.4565 0.3333 0.4565 1.0000 0.4565 1.0000 0.5543 1.0000 0.5435 0.3333 0.5435 1.0000 0.1087 1.0000 0.0000 0.6000 0.0000 1.0000 0.0000 0.6000 0.1087 1.0000 0.0130 0.3600 0.0130 0.3600 0.1087 1.0000 0.0391 0.1800 0.0391 0.1800 0.1087 1.0000 0.0783 0.0600 0.0783 0.0600 0.1087 1.0000 0.1304 0.0000 0.1304 0.0000 0.1087 1.0000 0.1131 0.9000 0.1304 0.0000 0.1131 0.9000 0.1250 0.8268 0.1304 0.0000 0.1250 0.8268 0.1413 0.8000 0.1304 0.0000 0.1413 0.8000 0.4565 0.3333 0.1304 0.0000 0.4565 0.3333 0.8696 0.0000 0.4565 0.3333 0.1413 0.8000 0.4130 0.8000 0.4565 0.3333 0.4130 0.8000 0.4293 0.8268 0.4565 0.3333 0.4293 0.8268 0.4413 0.9000 0.4565 0.3333 0.4413 0.9000 0.4457 1.0000 0.4565 0.3333 0.4457 1.0000 0.4565 1.0000 0.8696 0.0000 0.4565 0.3333 0.5435 0.3333 0.8696 0.0000 0.5435 0.3333 0.5707 0.8268 0.5707 0.8268 0.5435 0.3333 0.5587 0.9000 0.5587 0.9000 0.5435 0.3333 0.5543 1.0000 0.8696 0.0000 0.5707 0.8268 0.5870 0.8000 0.8696 0.0000 0.5870 0.8000 0.8587 0.8000 0.8696 0.0000 0.8587 0.8000 0.8750 0.8268 0.8696 0.0000 0.8750 0.8268 0.9217 0.0600 0.9217 0.0600 0.8750 0.8268 0.8869 0.9000 0.9217 0.0600 0.8869 0.9000 0.8913 1.0000 0.9217 0.0600 0.8913 1.0000 1.0000 1.0000 0.9217 0.0600 1.0000 1.0000 0.9609 0.1800 0.9609 0.1800 1.0000 1.0000 0.9870 0.3600 0.9870 0.3600 1.0000 1.0000 1.0000 0.6000 0.0000 1.0000 0.0000 0.6000 0.0000 0.6000 0.0000 0.6000 0.0000 1.0000 0.0000 1.0000 0.0130 0.3600 0.0000 1.0000 0.0000 0.6000 0.0000 1.0000 0.0130 0.3600 0.1087 1.0000 0.1087 1.0000 0.0130 0.3600 0.0391 0.1800 0.1087 1.0000 0.0391 0.1800 0.0783 0.0600 0.1087 1.0000 0.0783 0.0600 0.1304 0.0000 0.1087 1.0000 0.1304 0.0000 0.1131 0.9000 0.1131 0.9000 0.1304 0.0000 0.1250 0.8268 0.1250 0.8268 0.1304 0.0000 0.1413 0.8000 0.1413 0.8000 0.1304 0.0000 0.4565 0.3333 0.4565 0.3333 0.1304 0.0000 0.8696 0.0000 0.1413 0.8000 0.4565 0.3333 0.4130 0.8000 0.4130 0.8000 0.4565 0.3333 0.4293 0.8268 0.4293 0.8268 0.4565 0.3333 0.4413 0.9000 0.4413 0.9000 0.4565 0.3333 0.4457 1.0000 0.4565 0.3333 0.8696 0.0000 0.5435 0.3333 0.5435 0.3333 0.8696 0.0000 0.5707 0.8268 0.5435 0.3333 0.5707 0.8268 0.5587 0.9000 0.5435 0.3333 0.5587 0.9000 0.5435 1.0000 0.5435 1.0000 0.5587 0.9000 0.5543 1.0000 0.5707 0.8268 0.8696 0.0000 0.5870 0.8000 0.5870 0.8000 0.8696 0.0000 0.8587 0.8000 0.8587 0.8000 0.8696 0.0000 0.8750 0.8268 0.8750 0.8268 0.8696 0.0000 0.9217 0.0600 0.8750 0.8268 0.9217 0.0600 0.8869 0.9000 0.8869 0.9000 0.9217 0.0600 0.8913 1.0000 0.8913 1.0000 0.9217 0.0600 1.0000 1.0000 1.0000 1.0000 0.9217 0.0600 0.9609 0.1800 1.0000 1.0000 0.9609 0.1800 0.9870 0.3600 1.0000 1.0000 0.9870 0.3600 1.0000 0.6000 0.4565 1.0000 0.4457 1.0000 0.4565 0.3333 0.1087 1.0000 0.1131 0.9000 0.1131 0.9000 0.1131 0.9000 0.1087 1.0000 0.1087 1.0000 0.1131 0.9000 0.4457 1.0000 0.1087 1.0000 0.4457 1.0000 0.1131 0.9000 0.1250 0.8268 0.4457 1.0000 0.1250 0.8268 0.1413 0.8000 0.4457 1.0000 0.1413 0.8000 0.4130 0.8000 0.4457 1.0000 0.4130 0.8000 0.4293 0.8268 0.4457 1.0000 0.4293 0.8268 0.4413 0.9000 0.4457 1.0000 0.4413 0.9000 0.4413 0.9000 0.4413 0.9000 0.4457 1.0000 0.4457 1.0000 0.4565 0.3333 0.5435 0.3333 0.4565 0.3333 0.5435 0.3333 0.4565 0.3333 0.5435 0.3333 0.1304 0.0000 0.0783 0.0600 0.1304 0.0000 0.0783 0.0600 0.1304 0.0000 0.0783 0.0600 0.0783 0.0600 0.0391 0.1800 0.0783 0.0600 0.0391 0.1800 0.0783 0.0600 0.0391 0.1800 0.0130 0.3600 0.0391 0.1800 0.0391 0.1800 0.0391 0.1800 0.0130 0.3600 0.0130 0.3600 0.0000 0.6000 0.0130 0.3600 0.0130 0.3600 0.0130 0.3600 0.0000 0.6000 0.0000 0.6000 0.5435 1.0000 0.5435 0.3333 0.5435 0.3333 0.5435 0.3333 0.5435 1.0000 0.5435 1.0000 0.5435 1.0000 0.5543 1.0000 0.5543 1.0000 0.5543 1.0000 0.5435 1.0000 0.5435 1.0000 0.5543 1.0000 0.5435 1.0000 0.5543 1.0000 0.5543 1.0000 0.5543 1.0000 0.8913 1.0000 0.5543 1.0000 0.5435 1.0000 0.5543 1.0000 0.8913 1.0000 1.0000 1.0000 0.8913 1.0000 1.0000 1.0000 0.8913 1.0000 1.0000 1.0000 1.0000 1.0000 0.8913 1.0000 0.8913 1.0000 0.8913 1.0000 0.8913 1.0000 0.5543 1.0000 1.0000 1.0000 0.8913 1.0000 0.8913 1.0000 0.5543 1.0000 0.5587 0.9000 0.5587 0.9000 0.5587 0.9000 0.5543 1.0000 0.5543 1.0000 0.5587 0.9000 0.5707 0.8268 0.5587 0.9000 0.5707 0.8268 0.5587 0.9000 0.5707 0.8268 0.5707 0.8268 0.5870 0.8000 0.5707 0.8268 0.5870 0.8000 0.5707 0.8268 0.5870 0.8000 0.5870 0.8000 0.8587 0.8000 0.5870 0.8000 0.8587 0.8000 0.5870 0.8000 0.8587 0.8000 0.8587 0.8000 0.8750 0.8268 0.8587 0.8000 0.8750 0.8268 0.8587 0.8000 0.8750 0.8268 0.8750 0.8268 0.8869 0.9000 0.8750 0.8268 0.8869 0.9000 0.8750 0.8268 0.8869 0.9000 0.8913 1.0000 0.8869 0.9000 0.8869 0.9000 0.8869 0.9000 0.8913 1.0000 0.8913 1.0000 1.0000 1.0000 1.0000 0.6000 1.0000 0.6000 1.0000 0.6000 1.0000 1.0000 1.0000 1.0000 1.0000 0.6000 0.9870 0.3600 0.9870 0.3600 0.9870 0.3600 1.0000 0.6000 1.0000 0.6000 0.9870 0.3600 0.9609 0.1800 0.9609 0.1800 0.9609 0.1800 0.9870 0.3600 0.9870 0.3600 0.9609 0.1800 0.9217 0.0600 0.9609 0.1800 0.9217 0.0600 0.9609 0.1800 0.9217 0.0600 0.9217 0.0600 0.8696 0.0000 0.9217 0.0600 0.8696 0.0000 0.9217 0.0600 0.8696 0.0000 0.8696 0.0000 0.1304 0.0000 0.1304 0.0000 0.1304 0.0000 0.8696 0.0000 0.8696 0.0000 0.8913 1.0000 0.8869 0.9000 0.8869 0.9000 0.8869 0.9000 0.8913 1.0000 0.8913 1.0000 0.8750 0.8268 0.8869 0.9000 0.8750 0.8268 0.8869 0.9000 0.8750 0.8268 0.8869 0.9000 0.8587 0.8000 0.8750 0.8268 0.8587 0.8000 0.8750 0.8268 0.8587 0.8000 0.8750 0.8268 0.5870 0.8000 0.8587 0.8000 0.5870 0.8000 0.8587 0.8000 0.5870 0.8000 0.8587 0.8000 0.5707 0.8268 0.5870 0.8000 0.5707 0.8268 0.5870 0.8000 0.5707 0.8268 0.5870 0.8000 0.5587 0.9000 0.5707 0.8268 0.5587 0.9000 0.5707 0.8268 0.5587 0.9000 0.5707 0.8268 0.5543 1.0000 0.5587 0.9000 0.5587 0.9000 0.5587 0.9000 0.5543 1.0000 0.5543 1.0000 0.4293 0.8268 0.4413 0.9000 0.4293 0.8268 0.4413 0.9000 0.4293 0.8268 0.4413 0.9000 0.4130 0.8000 0.4293 0.8268 0.4130 0.8000 0.4293 0.8268 0.4130 0.8000 0.4293 0.8268 0.1413 0.8000 0.4130 0.8000 0.1413 0.8000 0.4130 0.8000 0.1413 0.8000 0.4130 0.8000 0.1250 0.8268 0.1413 0.8000 0.1250 0.8268 0.1413 0.8000 0.1250 0.8268 0.1413 0.8000 0.1131 0.9000 0.1250 0.8268 0.1131 0.9000 0.1250 0.8268 0.1131 0.9000 0.1250 0.8268 0.5587 0.9000 0.8913 1.0000 0.5543 1.0000 0.8913 1.0000 0.5587 0.9000 0.5707 0.8268 0.8913 1.0000 0.5707 0.8268 0.5870 0.8000 0.8913 1.0000 0.5870 0.8000 0.8587 0.8000 0.8913 1.0000 0.8587 0.8000 0.8750 0.8268 0.8913 1.0000 0.8750 0.8268 0.8869 0.9000 0.8913 1.0000 0.5587 0.9000 0.5543 1.0000 0.5587 0.9000 0.8913 1.0000 0.5707 0.8268 0.5707 0.8268 0.8913 1.0000 0.5870 0.8000 0.5870 0.8000 0.8913 1.0000 0.8587 0.8000 0.8587 0.8000 0.8913 1.0000 0.8750 0.8268 0.8750 0.8268 0.8913 1.0000 0.8869 0.9000 " />
						</IndexedFaceSet>
					</Shape>
				</Group>
			</Transform>
		</Transform>
	</Scene>
</X3D>