<?xml version="1.0" encoding="UTF-8"?>
<!DOCTYPE X3D PUBLIC "ISO//Web3D//DTD X3D 3.0//EN" "http://www.web3d.org/specifications/x3d-3.0.dtd">
<X3D version="3.0" profile="Immersive" xmlns:xsd="http://www.w3.org/2001/XMLSchema-instance" xsd:noNamespaceSchemaLocation="http://www.web3d.org/specifications/x3d-3.0.xsd">
	<head>
		<meta name="filename" content="02-6-A 鴛鴦交手栱A.x3d" />
		<meta name="created" content="2025-12-28 13:48:33" />
		<meta name="generator" content="Blender 4.2.2 LTS" />
		<meta name="translator" content="Web3D X3D/VRML2 format v2.5.1" />
	</head>
	<Scene>
		<NavigationInfo headlight="true"
		                visibilityLimit="0.0"
		                type='"EXAMINE", "ANY"'
		                avatarSize="0.25, 1.75, 0.75"
		                />
		<Background DEF="WO_World"
		            groundColor="0.051 0.051 0.051"
		            skyColor="0.051 0.051 0.051"
		            />
		<Transform DEF="SketchUp_TRANSFORM"
		           translation="0.000000 0.000000 0.000000"
		           scale="0.025400 0.025400 0.025400"
		           rotation="-1.000000 0.000000 0.000000 1.570796"
		           >
			<Transform DEF="group_0_TRANSFORM"
			           translation="-5.050274 3.579512 -0.000000"
			           scale="1.000000 1.000000 1.000000"
			           rotation="0.000000 1.000000 0.000000 0.000000"
			           >
				<Transform DEF="group_0_ifs_TRANSFORM"
				           translation="0.000000 0.000000 0.000000"
				           scale="1.000000 1.000000 1.000000"
				           rotation="0.000000 1.000000 0.000000 0.000000"
				           >
					<Group DEF="group_ME_ID3">
						<Shape>
							<Appearance>
								<Material DEF="MA_material_003"
								          diffuseColor="1.000 1.000 1.000"
								          specularColor="0.401 0.401 0.401"
								          emissiveColor="0.000 0.000 0.000"
								          ambientIntensity="0.000"
								          shininess="0.500"
								          transparency="0.000"
								          />
							</Appearance>
							<IndexedFaceSet solid="false"
							                coordIndex="0 1 2 -1 1 0 3 -1 4 5 6 -1 5 4 7 -1 7 4 8 -1 7 8 9 -1 7 9 10 -1 10 9 11 -1 10 11 12 -1 12 11 13 -1 13 11 14 -1 14 11 15 -1 15 11 16 -1 14 15 17 -1 17 15 18 -1 18 15 19 -1 15 16 20 -1 20 16 21 -1 21 16 22 -1 21 22 23 -1 22 16 24 -1 24 16 25 -1 25 16 26 -1 26 16 27 -1 26 27 28 -1 28 27 29 -1 29 27 30 -1 30 27 31 -1 31 27 32 -1 31 32 33 -1 31 33 34 -1 31 34 35 -1 31 35 36 -1 36 35 37 -1 37 35 38 -1 38 35 39 -1 39 35 40 -1 39 40 41 -1 41 40 42 -1 39 41 43 -1 43 41 44 -1 44 41 45 -1 41 42 46 -1 46 42 47 -1 47 42 48 -1 47 48 49 -1 48 42 50 -1 50 42 51 -1 51 42 52 -1 52 42 53 -1 52 53 54 -1 52 54 55 -1 55 54 56 -1 56 54 57 -1 57 54 58 -1 58 54 59 -1 58 59 60 -1 58 60 61 -1 62 45 41 -1 63 19 15 -1 64 65 66 -1 65 64 67 -1 68 69 70 -1 71 72 73 -1 74 75 76 -1 75 74 77 -1 77 74 78 -1 78 74 79 -1 79 74 80 -1 79 80 81 -1 81 80 82 -1 81 82 83 -1 81 83 84 -1 81 84 85 -1 81 85 86 -1 85 84 87 -1 85 87 88 -1 85 88 89 -1 85 89 90 -1 86 85 69 -1 86 69 91 -1 91 69 68 -1 86 91 92 -1 86 92 93 -1 86 93 94 -1 86 94 95 -1 95 94 96 -1 95 96 97 -1 95 97 98 -1 95 98 99 -1 95 99 100 -1 100 99 101 -1 101 99 102 -1 102 99 103 -1 103 99 104 -1 103 104 105 -1 103 105 106 -1 103 106 107 -1 103 107 108 -1 108 107 109 -1 108 109 110 -1 109 107 111 -1 109 111 112 -1 109 112 113 -1 109 113 114 -1 110 109 72 -1 110 72 115 -1 115 72 71 -1 110 115 116 -1 110 116 117 -1 110 117 118 -1 110 118 119 -1 119 118 120 -1 120 118 121 -1 120 121 122 -1 120 122 123 -1 120 123 124 -1 120 124 125 -1 125 124 126 -1 126 124 127 -1 128 129 130 -1 129 128 131 -1 132 133 134 -1 133 132 135 -1 136 137 138 -1 137 136 139 -1 140 141 142 -1 141 140 143 -1 144 145 146 -1 145 144 147 -1 148 149 150 -1 149 148 151 -1 152 153 154 -1 153 152 155 -1 156 157 158 -1 157 156 159 -1 160 161 162 -1 161 160 163 -1 164 165 166 -1 165 164 167 -1 167 164 168 -1 167 168 169 -1 168 164 170 -1 169 171 172 -1 171 169 173 -1 173 169 174 -1 174 169 168 -1 173 174 175 -1 176 177 178 -1 177 176 179 -1 180 177 181 -1 177 180 178 -1 182 181 183 -1 181 182 180 -1 184 185 186 -1 185 184 187 -1 188 189 190 -1 189 188 191 -1 192 190 193 -1 190 192 188 -1 194 192 193 -1 192 194 195 -1 196 197 198 -1 197 196 199 -1 200 201 202 -1 201 200 203 -1 204 205 206 -1 205 204 207 -1 208 209 210 -1 209 211 212 -1 211 209 213 -1 213 209 214 -1 214 209 208 -1 213 214 215 -1 216 217 218 -1 217 216 219 -1 220 217 221 -1 217 220 218 -1 222 221 223 -1 221 222 220 -1 224 225 226 -1 225 224 227 -1 228 229 230 -1 229 228 231 -1 232 228 230 -1 228 232 233 -1 234 233 232 -1 233 234 235 -1 236 237 238 -1 237 236 210 -1 210 236 208 -1 208 236 239 -1 208 239 240 -1 240 239 241 -1 242 243 244 -1 243 242 245 -1 246 243 247 -1 243 246 244 -1 248 247 249 -1 247 248 246 -1 250 251 252 -1 251 250 253 -1 254 255 256 -1 255 254 257 -1 258 256 259 -1 256 258 254 -1 260 258 259 -1 258 260 261 -1 239 236 262 -1 263 264 265 -1 264 263 266 -1 266 263 262 -1 266 262 236 -1 262 263 267 -1 268 269 270 -1 269 268 271 -1 272 273 274 -1 273 272 275 -1 276 277 278 -1 277 276 279 -1 280 281 282 -1 281 280 283 -1 283 280 284 -1 284 280 285 -1 285 280 286 -1 284 287 288 -1 287 284 289 -1 289 284 290 -1 290 284 285 -1 289 290 291 -1 292 293 294 -1 293 292 295 -1 296 293 297 -1 293 296 294 -1 298 297 299 -1 297 298 296 -1 300 301 302 -1 301 300 303 -1 304 305 306 -1 305 304 307 -1 308 306 309 -1 306 308 304 -1 310 308 309 -1 308 310 311 -1 312 313 314 -1 313 312 315 -1 316 317 318 -1 317 316 319 -1 320 321 322 -1 321 320 323 -1 324 325 326 -1 325 324 327 -1 328 329 330 -1 329 328 331 -1 332 333 334 -1 333 332 335 -1 336 337 338 -1 337 336 339 -1 340 341 342 -1 341 340 343 -1 344 345 346 -1 345 344 347 -1 345 348 346 -1 348 345 349 -1 349 350 348 -1 350 349 351 -1 352 353 354 -1 353 352 355 -1 356 357 358 -1 357 356 359 -1 359 360 357 -1 360 359 361 -1 362 360 361 -1 360 362 363 -1 364 365 366 -1 365 364 367 -1 365 368 366 -1 368 365 369 -1 369 370 368 -1 370 369 371 -1 372 373 374 -1 373 372 375 -1 376 377 378 -1 377 376 379 -1 379 380 377 -1 380 379 381 -1 382 380 381 -1 380 382 383 -1 384 385 386 -1 385 384 387 -1 385 388 386 -1 388 385 389 -1 389 390 388 -1 390 389 391 -1 392 393 394 -1 393 392 395 -1 396 397 398 -1 397 396 399 -1 399 400 397 -1 400 399 401 -1 402 400 401 -1 400 402 403 -1 404 405 406 -1 405 404 407 -1 405 408 406 -1 408 405 409 -1 409 410 408 -1 410 409 411 -1 412 413 414 -1 413 412 415 -1 416 417 418 -1 417 416 419 -1 419 420 417 -1 420 419 421 -1 422 420 421 -1 420 422 423 -1 424 425 426 -1 425 424 427 -1 425 427 428 -1 425 428 429 -1 425 429 430 -1 425 430 431 -1 432 433 434 -1 433 432 435 -1 435 432 436 -1 436 432 437 -1 437 432 438 -1 438 432 439 -1 440 441 442 -1 441 440 443 -1 443 440 444 -1 444 440 445 -1 445 440 446 -1 446 440 447 -1 448 449 450 -1 449 448 451 -1 449 451 452 -1 449 452 453 -1 449 453 454 -1 449 454 455 -1 456 457 458 -1 457 456 459 -1 457 459 460 -1 457 460 461 -1 457 461 462 -1 457 462 463 -1 464 465 466 -1 465 464 467 -1 467 464 468 -1 468 464 469 -1 469 464 470 -1 470 464 471 -1 472 473 474 -1 473 472 475 -1 475 472 476 -1 476 472 477 -1 477 472 478 -1 478 472 479 -1 480 481 482 -1 481 480 483 -1 481 483 484 -1 481 484 485 -1 481 485 486 -1 481 486 487 -1 "
							                >
								<Coordinate DEF="coords_ME_ID3"
								            point="3.937008 28.346457 0.000000 0.000000 25.721786 0.236220 0.000000 28.346457 0.000000 3.937008 25.721786 0.236220 3.937008 0.629921 2.125984 3.937008 0.000000 5.905512 3.937008 0.000000 3.543307 3.937008 3.937008 5.905512 3.937008 1.889764 1.062992 3.937008 3.779527 0.354331 3.937008 4.095246 5.314960 3.937008 6.299213 0.000000 3.937008 4.527559 4.882647 3.937008 5.118110 4.724409 3.937008 9.055119 4.724409 3.937008 10.629921 1.968504 3.937008 18.110235 0.000000 3.937008 9.645670 4.882647 3.937008 10.077983 5.314960 3.937008 10.236220 5.905512 3.937008 13.779528 1.968504 3.937008 13.779528 5.905512 3.937008 14.331466 5.314961 3.937008 14.173228 5.905512 3.937008 14.763780 4.882647 3.937008 15.354331 4.724409 3.937008 19.291338 4.724409 3.937008 20.629921 0.354331 3.937008 19.881889 4.882647 3.937008 20.314203 5.314961 3.937008 20.472441 5.905512 3.937008 24.409447 5.905512 3.937008 22.519684 1.062992 3.937008 22.629238 1.155426 3.937008 23.622046 0.708661 3.937008 25.721786 0.236220 3.937008 24.567684 5.314961 3.937008 25.000000 4.882647 3.937008 25.590549 4.724409 3.937008 31.496063 4.724409 3.937008 28.346457 0.000000 3.937008 33.070866 1.968504 3.937008 40.944881 0.000000 3.937008 32.086613 4.882647 3.937008 32.518929 5.314961 3.937008 32.677166 5.905512 3.937008 36.220470 1.968504 3.937008 36.220470 5.905512 3.937008 36.772411 5.314961 3.937008 36.614170 5.905512 3.937008 37.204723 4.882647 3.937008 37.795273 4.724409 3.937008 43.700787 4.724409 3.937008 43.569553 0.236220 3.937008 45.669289 0.708661 3.937008 44.291336 4.882647 3.937008 44.723652 5.314961 3.937008 44.881889 5.905512 3.937008 48.818893 5.905512 3.937008 47.244091 1.417323 3.937008 48.293964 2.362205 3.937008 48.818893 3.543307 3.937008 33.070866 5.905512 3.937008 10.629921 5.905512 3.937008 25.721786 0.236220 0.000000 23.622046 0.708661 0.000000 25.721786 0.236220 3.937008 23.622046 0.708661 0.000000 14.173228 5.905512 0.000000 13.779528 1.968504 0.000000 13.779528 5.905512 0.000000 36.614170 5.905512 0.000000 36.220470 1.968504 0.000000 36.220470 5.905512 0.000000 3.937008 5.905512 0.000000 0.000000 3.543307 0.000000 0.000000 5.905512 0.000000 0.629921 2.125984 0.000000 1.889764 1.062992 0.000000 3.779527 0.354331 0.000000 4.095246 5.314960 0.000000 6.299213 0.000000 0.000000 4.527559 4.882647 0.000000 5.118110 4.724409 0.000000 9.055119 4.724409 0.000000 10.629921 1.968504 0.000000 18.110235 0.000000 0.000000 9.645670 4.882647 0.000000 10.077983 5.314960 0.000000 10.236220 5.905512 0.000000 10.629921 5.905512 0.000000 14.331466 5.314961 0.000000 14.763780 4.882647 0.000000 15.354331 4.724409 0.000000 19.291338 4.724409 0.000000 20.629921 0.354331 0.000000 19.881889 4.882647 0.000000 20.314203 5.314961 0.000000 20.472441 5.905512 0.000000 24.409447 5.905512 0.000000 22.519684 1.062992 0.000000 22.629238 1.155426 0.000000 23.622046 0.708661 0.000000 25.721786 0.236220 0.000000 24.567684 5.314961 0.000000 25.000000 4.882647 0.000000 25.590549 4.724409 0.000000 31.496063 4.724409 0.000000 28.346457 0.000000 0.000000 33.070866 1.968504 0.000000 40.944881 0.000000 0.000000 32.086613 4.882647 0.000000 32.518929 5.314961 0.000000 32.677166 5.905512 0.000000 33.070866 5.905512 0.000000 36.772411 5.314961 0.000000 37.204723 4.882647 0.000000 37.795273 4.724409 0.000000 43.700787 4.724409 0.000000 43.569553 0.236220 0.000000 45.669289 0.708661 0.000000 44.291336 4.882647 0.000000 44.723652 5.314961 0.000000 44.881889 5.905512 0.000000 48.818893 5.905512 0.000000 47.244091 1.417323 0.000000 48.293964 2.362205 0.000000 48.818893 3.543307 3.937008 40.944881 0.000000 0.000000 28.346457 0.000000 0.000000 40.944881 0.000000 3.937008 28.346457 0.000000 0.000000 22.629238 1.155426 3.937008 22.519684 1.062992 0.000000 22.519684 1.062992 3.937008 22.629238 1.155426 0.000000 23.622046 0.708661 3.937008 22.629238 1.155426 0.000000 22.629238 1.155426 3.937008 23.622046 0.708661 3.937008 43.569553 0.236220 0.000000 40.944881 0.000000 0.000000 43.569553 0.236220 3.937008 40.944881 0.000000 3.937008 45.669289 0.708661 0.000000 43.569553 0.236220 0.000000 45.669289 0.708661 3.937008 43.569553 0.236220 3.937008 47.244091 1.417323 0.000000 45.669289 0.708661 0.000000 47.244091 1.417323 3.937008 45.669289 0.708661 3.937008 48.293964 2.362205 0.000000 47.244091 1.417323 0.000000 48.293964 2.362205 3.937008 47.244091 1.417323 0.000000 48.818893 3.543307 3.937008 48.293964 2.362205 0.000000 48.293964 2.362205 3.937008 48.818893 3.543307 0.000000 48.818893 5.905512 3.937008 48.818893 3.543307 0.000000 48.818893 3.543307 3.937008 48.818893 5.905512 3.937008 36.220470 5.905512 0.000000 36.614170 5.905512 0.000000 36.220470 5.905512 0.393701 36.614170 5.905512 3.543307 36.614170 5.905512 0.393701 44.881889 5.905512 3.937008 36.614170 5.905512 0.000000 48.818893 5.905512 0.000000 44.881889 5.905512 3.937008 48.818893 5.905512 3.543307 44.881889 5.905512 3.937008 44.881889 5.905512 3.937008 44.881889 5.905512 3.543307 44.723652 5.314961 3.937008 44.723652 5.314961 3.543307 44.881889 5.905512 3.937008 44.291336 4.882647 3.543307 44.291336 4.882647 3.937008 43.700787 4.724409 3.543307 43.700787 4.724409 3.937008 37.795273 4.724409 3.543307 43.700787 4.724409 3.543307 37.795273 4.724409 3.937008 43.700787 4.724409 3.937008 37.204723 4.882647 3.543307 37.795273 4.724409 3.543307 37.204723 4.882647 3.937008 37.795273 4.724409 3.937008 36.772411 5.314961 3.543307 36.772411 5.314961 3.543307 36.614170 5.905512 3.937008 36.614170 5.905512 3.937008 36.220470 5.905512 0.000000 36.220470 1.968504 3.937008 36.220470 1.968504 0.000000 36.220470 5.905512 3.937008 33.070866 1.968504 0.000000 36.220470 1.968504 0.000000 33.070866 1.968504 3.937008 36.220470 1.968504 0.000000 33.070866 5.905512 3.937008 33.070866 1.968504 0.000000 33.070866 1.968504 3.937008 33.070866 5.905512 3.543307 24.409447 5.905512 0.393701 32.677166 5.905512 0.393701 24.409447 5.905512 0.000000 33.070866 5.905512 0.000000 32.677166 5.905512 3.937008 33.070866 5.905512 3.543307 32.677166 5.905512 3.937008 32.677166 5.905512 3.937008 32.677166 5.905512 3.543307 32.518929 5.314961 3.937008 32.518929 5.314961 3.543307 32.677166 5.905512 3.937008 32.086613 4.882647 3.543307 32.086613 4.882647 3.937008 31.496063 4.724409 3.543307 31.496063 4.724409 3.937008 25.590549 4.724409 3.543307 31.496063 4.724409 3.543307 25.590549 4.724409 3.937008 31.496063 4.724409 3.937008 25.000000 4.882647 3.543307 25.590549 4.724409 3.543307 25.000000 4.882647 3.937008 25.590549 4.724409 3.543307 24.567684 5.314961 3.937008 24.567684 5.314961 3.543307 24.409447 5.905512 3.937008 24.409447 5.905512 0.393701 20.472441 5.905512 0.000000 24.409447 5.905512 0.000000 20.472441 5.905512 3.543307 20.472441 5.905512 3.937008 24.409447 5.905512 3.937008 20.472441 5.905512 3.937008 20.472441 5.905512 3.543307 20.314203 5.314961 3.937008 20.314203 5.314961 3.543307 20.472441 5.905512 3.937008 19.881889 4.882647 3.543307 19.881889 4.882647 3.937008 19.291338 4.724409 3.543307 19.291338 4.724409 3.937008 15.354331 4.724409 3.543307 19.291338 4.724409 3.543307 15.354331 4.724409 3.937008 19.291338 4.724409 3.937008 14.763780 4.882647 3.543307 15.354331 4.724409 3.543307 14.763780 4.882647 3.937008 15.354331 4.724409 3.937008 14.331466 5.314961 3.543307 14.331466 5.314961 3.543307 14.173228 5.905512 3.937008 14.173228 5.905512 3.543307 14.173228 5.905512 3.937008 13.779528 5.905512 0.000000 14.173228 5.905512 0.000000 13.779528 5.905512 0.393701 14.173228 5.905512 3.937008 14.173228 5.905512 3.937008 13.779528 5.905512 0.000000 13.779528 1.968504 3.937008 13.779528 1.968504 0.000000 13.779528 5.905512 3.937008 10.629921 1.968504 0.000000 13.779528 1.968504 0.000000 10.629921 1.968504 3.937008 13.779528 1.968504 0.000000 10.629921 5.905512 3.937008 10.629921 1.968504 0.000000 10.629921 1.968504 3.937008 10.629921 5.905512 3.937008 0.000000 5.905512 0.000000 3.937008 5.905512 0.000000 0.000000 5.905512 0.393701 3.937008 5.905512 0.393701 10.236220 5.905512 3.543307 3.937008 5.905512 3.937008 3.937008 5.905512 0.000000 10.629921 5.905512 0.000000 10.236220 5.905512 3.937008 10.629921 5.905512 3.543307 10.236220 5.905512 3.937008 10.236220 5.905512 3.937008 10.236220 5.905512 3.543307 10.077983 5.314960 3.937008 10.077983 5.314960 3.543307 10.236220 5.905512 3.937008 9.645670 4.882647 3.543307 9.645670 4.882647 3.937008 9.055119 4.724409 3.543307 9.055119 4.724409 3.937008 5.118110 4.724409 3.543307 9.055119 4.724409 3.543307 5.118110 4.724409 3.937008 9.055119 4.724409 3.937008 4.527559 4.882647 3.543307 5.118110 4.724409 3.543307 4.527559 4.882647 3.937008 5.118110 4.724409 3.937008 4.095246 5.314960 3.543307 4.095246 5.314960 3.543307 3.937008 5.905512 3.937008 3.937008 5.905512 3.937008 0.000000 5.905512 0.000000 0.000000 3.543307 3.937008 0.000000 3.543307 0.000000 0.000000 5.905512 3.937008 0.000000 3.543307 0.000000 0.629921 2.125984 3.937008 0.629921 2.125984 0.000000 0.000000 3.543307 3.937008 1.889764 1.062992 0.000000 0.629921 2.125984 0.000000 1.889764 1.062992 3.937008 0.629921 2.125984 3.937008 3.779527 0.354331 0.000000 1.889764 1.062992 0.000000 3.779527 0.354331 3.937008 1.889764 1.062992 3.937008 6.299213 0.000000 0.000000 3.779527 0.354331 0.000000 6.299213 0.000000 3.937008 3.779527 0.354331 3.937008 18.110235 0.000000 0.000000 6.299213 0.000000 0.000000 18.110235 0.000000 3.937008 6.299213 0.000000 3.937008 20.629921 0.354331 0.000000 18.110235 0.000000 0.000000 20.629921 0.354331 3.937008 18.110235 0.000000 3.937008 22.519684 1.062992 0.000000 20.629921 0.354331 0.000000 22.519684 1.062992 3.937008 20.629921 0.354331 0.000000 3.937008 5.905512 0.393701 4.095246 5.314960 0.000000 4.095246 5.314960 0.393701 3.937008 5.905512 0.000000 4.527559 4.882647 0.393701 4.527559 4.882647 0.000000 5.118110 4.724409 0.393701 5.118110 4.724409 0.393701 5.118110 4.724409 0.000000 9.055119 4.724409 0.000000 5.118110 4.724409 0.393701 9.055119 4.724409 0.393701 9.055119 4.724409 0.000000 9.645670 4.882647 0.000000 9.055119 4.724409 0.393701 9.645670 4.882647 0.000000 10.077983 5.314960 0.393701 10.077983 5.314960 0.393701 10.236220 5.905512 0.000000 10.236220 5.905512 0.000000 14.173228 5.905512 0.393701 14.331466 5.314961 0.000000 14.331466 5.314961 0.393701 14.173228 5.905512 0.000000 14.763780 4.882647 0.393701 14.763780 4.882647 0.000000 15.354331 4.724409 0.393701 15.354331 4.724409 0.393701 15.354331 4.724409 0.000000 19.291338 4.724409 0.000000 15.354331 4.724409 0.393701 19.291338 4.724409 0.393701 19.291338 4.724409 0.000000 19.881889 4.882647 0.000000 19.291338 4.724409 0.393701 19.881889 4.882647 0.000000 20.314203 5.314961 0.393701 20.314203 5.314961 0.393701 20.472441 5.905512 0.000000 20.472441 5.905512 0.000000 24.409447 5.905512 0.393701 24.567684 5.314961 0.000000 24.567684 5.314961 0.393701 24.409447 5.905512 0.000000 25.000000 4.882647 0.393701 25.000000 4.882647 0.000000 25.590549 4.724409 0.393701 25.590549 4.724409 0.393701 25.590549 4.724409 0.000000 31.496063 4.724409 0.000000 25.590549 4.724409 0.393701 31.496063 4.724409 0.393701 31.496063 4.724409 0.000000 32.086613 4.882647 0.000000 31.496063 4.724409 0.393701 32.086613 4.882647 0.000000 32.518929 5.314961 0.393701 32.518929 5.314961 0.393701 32.677166 5.905512 0.000000 32.677166 5.905512 0.000000 36.614170 5.905512 0.393701 36.772411 5.314961 0.000000 36.772411 5.314961 0.393701 36.614170 5.905512 0.000000 37.204723 4.882647 0.393701 37.204723 4.882647 0.000000 37.795273 4.724409 0.393701 37.795273 4.724409 0.393701 37.795273 4.724409 0.000000 43.700787 4.724409 0.000000 37.795273 4.724409 0.393701 43.700787 4.724409 0.393701 43.700787 4.724409 0.000000 44.291336 4.882647 0.000000 43.700787 4.724409 0.393701 44.291336 4.882647 0.000000 44.723652 5.314961 0.393701 44.723652 5.314961 0.393701 44.881889 5.905512 0.000000 44.881889 5.905512 3.543307 36.772411 5.314961 3.543307 44.881889 5.905512 3.543307 36.614170 5.905512 3.543307 37.204723 4.882647 3.543307 37.795273 4.724409 3.543307 43.700787 4.724409 3.543307 44.291336 4.882647 3.543307 44.723652 5.314961 0.393701 44.881889 5.905512 0.393701 36.772411 5.314961 0.393701 36.614170 5.905512 0.393701 37.204723 4.882647 0.393701 37.795273 4.724409 0.393701 43.700787 4.724409 0.393701 44.291336 4.882647 0.393701 44.723652 5.314961 0.393701 32.677166 5.905512 0.393701 24.567684 5.314961 0.393701 24.409447 5.905512 0.393701 25.000000 4.882647 0.393701 25.590549 4.724409 0.393701 31.496063 4.724409 0.393701 32.086613 4.882647 0.393701 32.518929 5.314961 3.543307 24.567684 5.314961 3.543307 32.677166 5.905512 3.543307 24.409447 5.905512 3.543307 25.000000 4.882647 3.543307 25.590549 4.724409 3.543307 31.496063 4.724409 3.543307 32.086613 4.882647 3.543307 32.518929 5.314961 3.543307 14.331466 5.314961 3.543307 20.472441 5.905512 3.543307 14.173228 5.905512 3.543307 14.763780 4.882647 3.543307 15.354331 4.724409 3.543307 19.291338 4.724409 3.543307 19.881889 4.882647 3.543307 20.314203 5.314961 0.393701 20.472441 5.905512 0.393701 14.331466 5.314961 0.393701 14.173228 5.905512 0.393701 14.763780 4.882647 0.393701 15.354331 4.724409 0.393701 19.291338 4.724409 0.393701 19.881889 4.882647 0.393701 20.314203 5.314961 0.393701 10.236220 5.905512 0.393701 4.095246 5.314960 0.393701 3.937008 5.905512 0.393701 4.527559 4.882647 0.393701 5.118110 4.724409 0.393701 9.055119 4.724409 0.393701 9.645670 4.882647 0.393701 10.077983 5.314960 3.543307 4.095246 5.314960 3.543307 10.236220 5.905512 3.543307 3.937008 5.905512 3.543307 4.527559 4.882647 3.543307 5.118110 4.724409 3.543307 9.055119 4.724409 3.543307 9.645670 4.882647 3.543307 10.077983 5.314960 "
								            />
							</IndexedFaceSet>
						</Shape>
					</Group>
				</Transform>
			</Transform>
		</Transform>
	</Scene>
</X3D>