<?xml version="1.0" encoding="UTF-8"?>
<!DOCTYPE X3D PUBLIC "ISO//Web3D//DTD X3D 3.0//EN" "http://www.web3d.org/specifications/x3d-3.0.dtd">
<X3D version="3.0" profile="Immersive" xmlns:xsd="http://www.w3.org/2001/XMLSchema-instance" xsd:noNamespaceSchemaLocation="http://www.web3d.org/specifications/x3d-3.0.xsd">
	<head>
		<meta name="filename" content="03-1-2 角柱上方櫨枓及圜櫨枓.x3d" />
		<meta name="created" content="2025-12-28 15:37:29" />
		<meta name="generator" content="Blender 4.2.2 LTS" />
		<meta name="translator" content="Web3D X3D/VRML2 format v2.5.1" />
	</head>
	<Scene>
		<NavigationInfo headlight="true"
		                visibilityLimit="0.0"
		                type='"EXAMINE", "ANY"'
		                avatarSize="0.25, 1.75, 0.75"
		                />
		<Background DEF="WO_World"
		            groundColor="0.051 0.051 0.051"
		            skyColor="0.051 0.051 0.051"
		            />
		<Transform DEF="SketchUp_TRANSFORM"
		           translation="0.000000 0.000000 0.000000"
		           scale="0.025400 0.025400 0.025400"
		           rotation="-1.000000 0.000000 0.000000 1.570796"
		           >
			<Transform DEF="SketchUp_ifs_TRANSFORM"
			           translation="0.000000 0.000000 0.000000"
			           scale="1.000000 1.000000 1.000000"
			           rotation="0.000000 1.000000 0.000000 0.000000"
			           >
				<Group DEF="group_ME_ID22">
				</Group>
			</Transform>
			<Transform DEF="instance_0_TRANSFORM"
			           translation="0.000000 0.000000 18.704725"
			           scale="1.000000 1.000000 1.000000"
			           rotation="0.000000 1.000000 0.000000 0.000000"
			           >
				<Transform DEF="instance_0_ifs_TRANSFORM"
				           translation="0.000000 0.000000 0.000000"
				           scale="1.000000 1.000000 1.000000"
				           rotation="0.000000 1.000000 0.000000 0.000000"
				           >
					<Group DEF="group_ME_ID4_011">
						<Shape>
							<Appearance>
							</Appearance>
							<IndexedFaceSet solid="false"
							                coordIndex="0 1 2 -1 1 0 3 -1 4 5 6 -1 5 4 7 -1 5 7 8 -1 8 9 10 -1 9 8 7 -1 11 12 13 -1 12 11 14 -1 15 16 17 -1 16 15 18 -1 18 15 19 -1 18 19 20 -1 20 19 21 -1 22 23 24 -1 23 22 25 -1 26 27 28 -1 27 29 30 -1 29 27 31 -1 31 27 26 -1 32 33 34 -1 33 32 35 -1 33 35 36 -1 36 35 37 -1 37 35 38 -1 39 34 33 -1 40 41 42 -1 41 40 43 -1 44 45 46 -1 45 44 47 -1 47 44 42 -1 47 42 41 -1 48 49 50 -1 51 52 53 -1 52 51 49 -1 52 49 54 -1 54 49 48 -1 52 54 55 -1 56 46 57 -1 46 56 44 -1 55 57 52 -1 57 55 56 -1 58 59 60 -1 59 58 61 -1 59 61 62 -1 62 61 63 -1 62 63 64 -1 65 66 67 -1 66 65 68 -1 69 70 71 -1 70 69 72 -1 73 74 75 -1 74 73 76 -1 76 73 77 -1 77 73 78 -1 79 80 81 -1 80 79 82 -1 80 82 83 -1 80 83 84 -1 85 86 87 -1 86 85 88 -1 86 88 89 -1 89 88 90 -1 91 92 93 -1 92 91 94 -1 94 91 95 -1 94 95 96 -1 96 95 97 -1 96 97 98 -1 98 97 99 -1 98 99 100 -1 47 101 45 -1 101 47 102 -1 103 104 105 -1 104 103 106 -1 107 108 109 -1 108 107 110 -1 51 111 112 -1 111 51 53 -1 105 113 114 -1 113 105 104 -1 114 110 107 -1 110 114 113 -1 115 111 116 -1 111 115 112 -1 117 116 118 -1 116 117 119 -1 119 117 120 -1 116 119 115 -1 121 118 122 -1 118 121 117 -1 89 122 86 -1 122 89 121 -1 123 124 125 -1 124 123 126 -1 127 87 128 -1 87 127 85 -1 129 130 131 -1 132 133 134 -1 133 132 135 -1 133 135 136 -1 136 135 130 -1 136 130 129 -1 137 138 139 -1 138 137 140 -1 138 140 141 -1 141 140 142 -1 102 139 101 -1 139 102 137 -1 143 128 144 -1 128 143 127 -1 145 146 147 -1 146 145 148 -1 149 144 150 -1 144 149 143 -1 143 149 147 -1 143 147 146 -1 103 151 106 -1 151 103 152 -1 104 153 154 -1 153 104 106 -1 108 155 156 -1 155 108 110 -1 157 108 158 -1 108 157 109 -1 113 154 159 -1 154 113 104 -1 110 159 155 -1 159 110 113 -1 157 160 161 -1 160 157 158 -1 160 162 161 -1 162 160 163 -1 163 164 162 -1 164 163 165 -1 165 125 164 -1 125 165 123 -1 126 166 167 -1 166 126 123 -1 168 126 169 -1 126 168 124 -1 170 171 172 -1 171 170 173 -1 171 173 174 -1 175 170 172 -1 170 175 176 -1 177 178 179 -1 178 180 181 -1 180 178 182 -1 182 178 177 -1 183 184 185 -1 184 183 186 -1 187 188 189 -1 188 187 190 -1 190 187 191 -1 191 187 192 -1 193 194 195 -1 194 193 196 -1 196 193 197 -1 197 193 198 -1 141 199 138 -1 199 141 200 -1 201 202 203 -1 202 201 204 -1 152 203 151 -1 203 152 201 -1 205 169 206 -1 169 205 168 -1 207 205 206 -1 205 207 208 -1 209 150 210 -1 150 209 149 -1 211 212 213 -1 212 211 214 -1 212 214 215 -1 212 215 216 -1 212 216 217 -1 218 219 220 -1 219 218 221 -1 106 222 153 -1 222 106 151 -1 154 223 224 -1 223 154 153 -1 156 225 226 -1 225 156 155 -1 108 227 158 -1 227 108 156 -1 159 224 228 -1 224 159 154 -1 155 228 225 -1 228 155 159 -1 158 229 160 -1 229 158 227 -1 160 230 163 -1 230 160 229 -1 163 231 165 -1 231 163 230 -1 123 231 166 -1 231 123 165 -1 167 232 233 -1 232 167 166 -1 169 167 234 -1 167 169 126 -1 235 236 237 -1 236 235 238 -1 239 240 241 -1 240 239 242 -1 243 244 245 -1 244 243 246 -1 246 243 247 -1 247 243 248 -1 248 243 249 -1 250 247 248 -1 251 252 253 -1 252 251 254 -1 254 251 255 -1 254 255 256 -1 256 255 257 -1 258 259 260 -1 259 258 261 -1 262 263 264 -1 263 262 265 -1 263 265 266 -1 266 265 267 -1 265 200 267 -1 200 265 199 -1 204 268 202 -1 268 204 269 -1 203 270 271 -1 270 203 202 -1 151 271 222 -1 271 151 203 -1 206 234 272 -1 234 206 169 -1 207 272 273 -1 272 207 206 -1 274 208 207 -1 208 274 275 -1 245 209 210 -1 209 245 244 -1 153 276 223 -1 276 153 222 -1 277 278 279 -1 278 277 280 -1 278 280 281 -1 281 280 282 -1 282 280 283 -1 282 283 284 -1 284 283 285 -1 284 285 286 -1 284 286 287 -1 287 286 288 -1 288 286 289 -1 288 289 290 -1 288 290 291 -1 291 290 292 -1 291 292 293 -1 293 292 294 -1 293 294 295 -1 295 294 296 -1 296 294 297 -1 296 297 298 -1 298 297 299 -1 298 299 300 -1 156 301 227 -1 301 156 226 -1 227 302 229 -1 302 227 301 -1 229 303 230 -1 303 229 302 -1 230 304 231 -1 304 230 303 -1 166 304 232 -1 304 166 231 -1 234 233 305 -1 233 234 167 -1 306 307 308 -1 307 306 309 -1 310 249 243 -1 249 310 311 -1 310 264 311 -1 264 310 262 -1 312 313 314 -1 313 312 315 -1 269 314 268 -1 314 269 312 -1 202 316 270 -1 316 202 268 -1 271 317 318 -1 317 271 270 -1 222 318 276 -1 318 222 271 -1 272 305 319 -1 305 272 234 -1 273 319 320 -1 319 273 272 -1 274 273 321 -1 273 274 207 -1 308 275 274 -1 275 308 307 -1 270 322 317 -1 322 270 316 -1 322 323 324 -1 323 322 316 -1 324 325 326 -1 325 324 323 -1 326 327 328 -1 327 326 325 -1 329 327 330 -1 327 329 328 -1 331 330 332 -1 330 331 329 -1 333 332 321 -1 332 333 331 -1 321 320 333 -1 320 321 273 -1 332 306 308 -1 306 332 330 -1 306 334 309 -1 334 306 335 -1 313 334 335 -1 334 313 315 -1 323 313 325 -1 313 323 314 -1 316 314 323 -1 314 316 268 -1 321 308 274 -1 308 321 332 -1 325 335 327 -1 335 325 313 -1 330 335 306 -1 335 330 327 -1 "
							                >
								<Coordinate DEF="coords_ME_ID4_011"
								            point="3.816854 13.140259 7.874016 1.032970 10.356374 4.724409 1.032970 10.356374 7.874016 3.816854 13.140259 4.724409 0.297121 9.055118 7.874016 1.032970 10.356374 7.874016 0.893775 10.495567 7.874016 5.118110 9.055118 7.874016 3.816854 13.140259 7.874016 5.118110 13.876106 7.874016 3.677660 13.279452 7.874016 3.677660 13.279452 7.874016 3.816854 13.140259 4.724409 3.816854 13.140259 7.874016 3.677660 13.279452 4.724409 1.032970 10.356374 4.724409 0.949426 10.629921 4.724409 0.893775 10.495567 4.724409 2.075621 12.097608 4.724409 3.816854 13.140259 4.724409 3.543307 13.223802 4.724409 3.677660 13.279452 4.724409 0.893775 10.495567 4.724409 1.032970 10.356374 7.874016 1.032970 10.356374 4.724409 0.893775 10.495567 7.874016 5.118110 9.055118 7.874016 3.937008 9.055118 6.299213 5.118110 9.055118 6.299213 0.297121 9.055118 4.724409 3.937008 9.055118 4.724409 0.297121 9.055118 7.874016 5.118110 0.297121 4.724409 5.118110 5.118110 6.299213 5.118110 0.297121 7.874016 5.118110 13.876106 4.724409 5.118110 9.055118 6.299213 5.118110 9.055118 7.874016 5.118110 13.876106 7.874016 5.118110 5.118110 7.874016 3.677660 13.279452 7.874016 5.118110 13.876106 4.724409 3.677660 13.279452 4.724409 5.118110 13.876106 7.874016 3.543307 13.223802 4.724409 5.252464 13.931757 3.149606 3.543307 13.223802 3.149606 5.252464 13.931757 4.724409 0.893775 10.495567 7.874016 0.297121 9.055118 4.724409 0.297121 9.055118 7.874016 0.241471 8.920765 4.724409 0.949426 10.629921 3.149606 0.241471 8.920765 3.149606 0.893775 10.495567 4.724409 0.949426 10.629921 4.724409 2.075621 12.097608 4.724409 2.075621 12.097608 3.149606 0.241471 5.252464 4.724409 0.241471 8.920765 4.724409 0.000000 7.086615 4.724409 0.297121 5.118110 4.724409 0.297121 9.055118 4.724409 3.937008 5.118110 4.724409 3.937008 9.055118 4.724409 3.937008 9.055118 6.299213 3.937008 5.118110 4.724409 3.937008 5.118110 6.299213 3.937008 9.055118 4.724409 5.118110 5.118110 6.299213 3.937008 9.055118 6.299213 3.937008 5.118110 6.299213 5.118110 9.055118 6.299213 0.297121 5.118110 7.874016 3.937008 5.118110 4.724409 0.297121 5.118110 4.724409 3.937008 5.118110 6.299213 5.118110 5.118110 6.299213 5.118110 5.118110 7.874016 0.949426 3.543307 7.874016 5.118110 5.118110 7.874016 0.297121 5.118110 7.874016 2.075621 2.075621 7.874016 3.543307 0.949426 7.874016 5.118110 0.297121 7.874016 5.252464 0.241471 4.724409 3.543307 0.949426 3.149606 5.252464 0.241471 3.149606 5.118110 0.297121 4.724409 3.543307 0.949426 7.874016 5.118110 0.297121 7.874016 5.252464 0.241471 4.724409 5.118110 13.876106 4.724409 5.118110 0.297121 4.724409 5.252464 13.931757 4.724409 7.086615 0.000000 4.724409 7.086615 14.173228 4.724409 8.920765 0.241471 4.724409 8.920765 13.931757 4.724409 9.055119 0.297121 4.724409 9.055119 13.876106 4.724409 7.086615 14.173228 3.149606 7.086615 14.173228 4.724409 5.252464 13.931757 3.149606 3.958150 12.505272 2.271344 3.543307 13.223802 3.149606 5.467202 13.130342 2.271344 0.949426 10.629921 3.149606 1.042886 8.706026 2.271344 0.241471 8.920765 3.149606 1.667956 10.215078 2.271344 0.000000 7.086615 3.149606 0.000000 7.086615 4.724409 2.662298 11.510929 2.271344 2.075621 12.097608 3.149606 0.241471 5.252464 4.724409 0.241471 5.252464 3.149606 0.949426 3.543307 7.874016 0.949426 3.543307 3.149606 0.297121 5.118110 4.724409 0.297121 5.118110 7.874016 2.075621 2.075621 7.874016 2.075621 2.075621 3.149606 3.958150 1.667956 2.271344 5.252464 0.241471 3.149606 3.543307 0.949426 3.149606 5.467202 1.042886 2.271344 7.086615 0.000000 4.724409 7.086615 0.000000 3.149606 9.055119 13.876106 7.874016 9.055119 9.055119 6.299213 9.055119 9.055119 7.874016 9.055119 5.118110 7.874016 9.055119 0.297121 4.724409 9.055119 0.297121 7.874016 9.055119 5.118110 6.299213 9.055119 13.876106 4.724409 8.920765 13.931757 4.724409 10.629921 13.223802 3.149606 8.920765 13.931757 3.149606 9.055119 13.876106 4.724409 10.629921 13.223802 7.874016 9.055119 13.876106 7.874016 8.920765 0.241471 4.724409 8.920765 0.241471 3.149606 10.495567 0.893775 7.874016 9.055119 0.297121 4.724409 10.495567 0.893775 4.724409 9.055119 0.297121 7.874016 10.629921 0.949426 4.724409 10.629921 0.949426 3.149606 7.086615 13.343542 2.271344 7.086615 14.173228 3.149606 5.607047 12.608435 1.190706 4.228310 12.037342 1.190706 2.135886 9.944919 1.190706 1.564794 8.566181 1.190706 0.000000 7.086615 3.149606 0.829686 7.086615 2.271344 3.044361 11.128867 1.190706 1.042886 5.467202 2.271344 0.241471 5.252464 3.149606 0.949426 3.543307 3.149606 1.667956 3.958150 2.271344 2.075621 2.075621 3.149606 2.662298 2.662298 2.271344 4.228310 2.135886 1.190706 5.607047 1.564794 1.190706 7.086615 0.000000 3.149606 7.086615 0.829686 2.271344 10.356374 1.032970 7.874016 13.876106 5.118110 7.874016 9.055119 5.118110 7.874016 13.140259 3.816854 7.874016 13.279452 3.677660 7.874016 9.055119 0.297121 7.874016 10.495567 0.893775 7.874016 9.055119 5.118110 7.874016 10.236220 5.118110 6.299213 9.055119 5.118110 6.299213 13.876106 5.118110 4.724409 10.236220 5.118110 4.724409 13.876106 5.118110 7.874016 10.236220 5.118110 6.299213 9.055119 9.055119 6.299213 9.055119 5.118110 6.299213 10.236220 9.055119 6.299213 13.876106 9.055119 7.874016 10.236220 9.055119 4.724409 13.876106 9.055119 4.724409 10.236220 9.055119 6.299213 9.055119 9.055119 6.299213 9.055119 9.055119 7.874016 13.876106 9.055119 7.874016 9.055119 13.876106 7.874016 9.055119 9.055119 7.874016 10.629921 13.223802 7.874016 12.097608 12.097608 7.874016 13.223802 10.629921 7.874016 12.097608 12.097608 3.149606 12.097608 12.097608 7.874016 8.920765 13.931757 3.149606 10.215078 12.505272 2.271344 8.706026 13.130342 2.271344 10.629921 13.223802 3.149606 8.920765 0.241471 3.149606 8.706026 1.042886 2.271344 10.215078 1.667956 2.271344 10.629921 0.949426 3.149606 12.097608 2.075621 4.724409 12.097608 2.075621 3.149606 10.495567 0.893775 4.724409 13.140259 3.816854 4.724409 10.356374 1.032970 4.724409 10.629921 0.949426 4.724409 12.097608 2.075621 4.724409 13.223802 3.543307 4.724409 13.279452 3.677660 4.724409 10.356374 1.032970 4.724409 10.495567 0.893775 7.874016 10.495567 0.893775 4.724409 10.356374 1.032970 7.874016 7.086615 12.803222 1.190706 5.660052 12.410615 0.000000 4.330709 11.859982 0.000000 2.313246 9.842520 0.000000 1.762614 8.513176 0.000000 1.370005 7.086615 1.190706 3.189175 10.984054 0.000000 1.564794 5.607047 1.190706 2.135886 4.228310 1.190706 3.044361 3.044361 1.190706 4.330709 2.313246 0.000000 5.660052 1.762614 0.000000 7.086615 1.370005 1.190706 13.140259 3.816854 7.874016 10.356374 1.032970 4.724409 13.140259 3.816854 4.724409 10.356374 1.032970 7.874016 13.140259 3.816854 7.874016 13.279452 3.677660 4.724409 13.279452 3.677660 7.874016 13.140259 3.816854 4.724409 13.931757 5.252464 3.149606 13.223802 3.543307 4.724409 13.223802 3.543307 3.149606 13.279452 3.677660 4.724409 13.279452 3.677660 7.874016 13.876106 5.118110 4.724409 13.931757 5.252464 4.724409 13.876106 5.118110 7.874016 13.876106 5.118110 4.724409 10.236220 9.055119 4.724409 10.236220 5.118110 4.724409 13.876106 9.055119 4.724409 13.931757 5.252464 4.724409 13.931757 8.920765 4.724409 14.173228 7.086615 4.724409 10.236220 9.055119 4.724409 10.236220 5.118110 6.299213 10.236220 5.118110 4.724409 10.236220 9.055119 6.299213 13.931757 8.920765 3.149606 13.876106 9.055119 4.724409 13.931757 8.920765 4.724409 13.223802 10.629921 3.149606 13.876106 9.055119 7.874016 13.223802 10.629921 7.874016 11.510929 11.510929 2.271344 12.097608 12.097608 3.149606 9.944919 12.037342 1.190706 8.566181 12.608435 1.190706 8.566181 1.564794 1.190706 9.944919 2.135886 1.190706 11.510929 2.662298 2.271344 12.097608 2.075621 3.149606 7.086615 12.598425 0.000000 1.762614 8.513176 0.000000 1.762614 5.660052 0.000000 1.574803 7.086615 0.000000 2.313246 9.842520 0.000000 2.313246 4.330709 0.000000 3.189175 3.189175 0.000000 3.189175 10.984054 0.000000 4.330709 2.313246 0.000000 4.330709 11.859982 0.000000 5.660052 12.410615 0.000000 5.660052 1.762614 0.000000 7.086615 1.574803 0.000000 7.086615 12.598425 0.000000 8.513176 12.410615 0.000000 8.513176 1.762614 0.000000 9.842520 11.859982 0.000000 9.842520 2.313246 0.000000 10.984054 10.984054 0.000000 10.984054 3.189175 0.000000 11.859982 4.330709 0.000000 11.859982 9.842520 0.000000 12.410615 5.660052 0.000000 12.410615 8.513176 0.000000 12.598425 7.086615 0.000000 1.574803 7.086615 0.000000 1.762614 5.660052 0.000000 2.313246 4.330709 0.000000 3.189175 3.189175 0.000000 7.086615 1.574803 0.000000 13.130342 5.467202 2.271344 13.223802 3.543307 3.149606 12.505272 3.958150 2.271344 13.931757 5.252464 3.149606 14.173228 7.086615 3.149606 14.173228 7.086615 4.724409 13.223802 10.629921 3.149606 13.130342 8.706026 2.271344 12.505272 10.215078 2.271344 13.931757 8.920765 3.149606 11.128867 11.128867 1.190706 9.842520 11.859982 0.000000 8.513176 12.410615 0.000000 8.513176 1.762614 0.000000 9.842520 2.313246 0.000000 11.128867 3.044361 1.190706 10.984054 10.984054 0.000000 12.037342 9.944919 1.190706 11.859982 9.842520 0.000000 12.608435 8.566181 1.190706 12.410615 8.513176 0.000000 12.803222 7.086615 1.190706 12.598425 7.086615 0.000000 12.410615 5.660052 0.000000 12.608435 5.607047 1.190706 11.859982 4.330709 0.000000 12.037342 4.228310 1.190706 10.984054 3.189175 0.000000 14.173228 7.086615 3.149606 13.343542 7.086615 2.271344 "
								            />
							</IndexedFaceSet>
						</Shape>
					</Group>
				</Transform>
			</Transform>
			<Transform DEF="instance_1_TRANSFORM"
			           translation="3.796138 22.213823 14.173228"
			           scale="1.000000 1.000000 1.000000"
			           rotation="0.000000 1.000000 0.000000 1.570796"
			           >
				<Transform DEF="instance_1_ifs_TRANSFORM"
				           translation="-0.000002 0.000002 0.000001"
				           scale="1.000000 1.000000 1.000000"
				           rotation="0.000000 -0.000000 0.000000 0.000000"
				           >
					<Group DEF="group_ME_ID14_001">
						<Shape>
							<Appearance>
							</Appearance>
							<IndexedFaceSet solid="false"
							                coordIndex="0 1 2 -1 1 0 3 -1 4 5 6 -1 5 7 8 -1 7 5 9 -1 9 5 4 -1 10 11 12 -1 11 10 13 -1 14 15 16 -1 15 14 17 -1 17 14 18 -1 18 14 19 -1 20 21 22 -1 23 24 25 -1 24 23 26 -1 24 26 27 -1 27 26 21 -1 27 21 20 -1 28 29 30 -1 29 28 31 -1 29 31 32 -1 33 28 30 -1 28 33 34 -1 35 36 37 -1 36 35 38 -1 38 35 39 -1 38 39 40 -1 39 35 41 -1 41 35 42 -1 42 35 43 -1 43 35 44 -1 45 40 39 -1 46 47 48 -1 47 46 49 -1 50 51 52 -1 51 50 53 -1 54 55 56 -1 55 54 57 -1 58 59 60 -1 59 58 61 -1 59 61 62 -1 61 58 56 -1 61 56 55 -1 62 61 63 -1 64 65 66 -1 65 64 67 -1 68 69 70 -1 69 68 71 -1 72 73 74 -1 73 72 75 -1 73 75 76 -1 75 72 70 -1 75 70 69 -1 76 75 77 -1 78 79 80 -1 79 78 81 -1 82 83 84 -1 83 82 85 -1 86 87 88 -1 87 86 89 -1 90 91 92 -1 91 90 93 -1 91 93 94 -1 95 96 97 -1 96 95 98 -1 96 98 99 -1 96 99 100 -1 101 102 103 -1 104 105 106 -1 105 104 107 -1 105 107 108 -1 108 107 102 -1 108 102 109 -1 109 102 101 -1 108 109 110 -1 111 112 113 -1 112 111 114 -1 114 111 115 -1 116 117 118 -1 117 116 119 -1 120 121 122 -1 121 120 123 -1 121 123 124 -1 124 125 126 -1 125 124 123 -1 127 128 129 -1 128 127 130 -1 128 130 131 -1 131 130 132 -1 132 130 133 -1 134 129 128 -1 135 136 137 -1 136 135 138 -1 139 140 141 -1 140 139 142 -1 143 144 145 -1 144 143 146 -1 147 98 95 -1 98 147 148 -1 98 148 149 -1 98 149 99 -1 150 151 152 -1 151 150 153 -1 153 150 154 -1 154 150 155 -1 156 157 158 -1 157 156 159 -1 160 161 162 -1 161 163 164 -1 163 161 165 -1 165 161 160 -1 166 167 168 -1 167 166 169 -1 170 171 172 -1 171 170 173 -1 174 175 176 -1 175 174 177 -1 178 179 180 -1 179 178 181 -1 137 182 183 -1 182 137 136 -1 145 184 185 -1 184 145 144 -1 186 148 147 -1 148 186 187 -1 148 187 149 -1 188 189 190 -1 189 188 191 -1 173 192 171 -1 192 173 193 -1 183 194 195 -1 194 183 182 -1 185 196 197 -1 196 185 184 -1 198 199 200 -1 199 198 201 -1 193 202 192 -1 202 193 203 -1 "
							                >
								<Coordinate DEF="coords_ME_ID14_001"
								            point="10.236220 5.118110 6.299213 9.055119 9.055118 6.299213 9.055119 5.118110 6.299213 10.236220 9.055118 6.299213 9.055119 5.118110 7.874016 10.236220 5.118110 6.299213 9.055119 5.118110 6.299213 14.173228 5.118110 4.724409 10.236220 5.118110 4.724409 14.173228 5.118110 7.874016 10.236220 9.055118 4.724409 10.236220 5.118110 6.299213 10.236220 5.118110 4.724409 10.236220 9.055118 6.299213 14.173228 9.055118 7.874016 10.236220 9.055118 4.724409 14.173228 9.055118 4.724409 10.236220 9.055118 6.299213 9.055119 9.055118 6.299213 9.055119 9.055118 7.874016 9.055119 14.173228 7.874016 9.055119 9.055118 6.299213 9.055119 9.055118 7.874016 9.055119 5.118110 7.874016 9.055119 0.000000 4.724409 9.055119 0.000000 7.874016 9.055119 5.118110 6.299213 9.055119 14.173228 4.724409 11.250149 0.139194 7.874016 14.173228 5.118110 7.874016 9.055119 5.118110 7.874016 14.034034 2.923079 7.874016 14.173228 2.783885 7.874016 9.055119 0.000000 7.874016 11.389343 0.000000 7.874016 14.173228 12.598425 3.149606 14.173228 0.000000 4.724409 14.173228 0.000000 3.149606 14.173228 2.783885 4.724409 14.173228 5.118110 4.724409 14.173228 2.783885 7.874016 14.173228 9.055118 4.724409 14.173228 9.055118 7.874016 14.173228 14.173228 7.874016 14.173228 14.173228 3.149606 14.173228 5.118110 7.874016 14.173228 5.118110 4.724409 10.236220 9.055118 4.724409 10.236220 5.118110 4.724409 14.173228 9.055118 4.724409 14.173228 9.055118 7.874016 9.055119 14.173228 7.874016 9.055119 9.055118 7.874016 14.173228 14.173228 7.874016 2.783885 14.173228 7.874016 5.118110 14.173228 4.724409 2.783885 14.173228 4.724409 5.118110 14.173228 7.874016 0.000000 14.173228 4.724409 14.173228 14.173228 3.149606 0.000000 14.173228 3.149606 9.055119 14.173228 4.724409 14.173228 14.173228 7.874016 9.055119 14.173228 7.874016 9.055119 0.000000 4.724409 5.118110 14.173228 4.724409 5.118110 0.000000 4.724409 9.055119 14.173228 4.724409 11.389343 0.000000 7.874016 9.055119 0.000000 4.724409 11.389343 0.000000 4.724409 9.055119 0.000000 7.874016 14.173228 0.000000 4.724409 0.000000 0.000000 3.149606 14.173228 0.000000 3.149606 5.118110 0.000000 4.724409 0.000000 0.000000 7.874016 5.118110 0.000000 7.874016 14.034034 2.923079 4.724409 11.250149 0.139194 7.874016 11.250149 0.139194 4.724409 14.034034 2.923079 7.874016 14.173228 2.783885 7.874016 14.034034 2.923079 4.724409 14.173228 2.783885 4.724409 14.034034 2.923079 7.874016 11.250149 0.139194 7.874016 11.389343 0.000000 4.724409 11.250149 0.139194 4.724409 11.389343 0.000000 7.874016 11.389343 0.000000 4.724409 14.034034 2.923079 4.724409 11.250149 0.139194 4.724409 14.173228 0.000000 4.724409 14.173228 2.783885 4.724409 13.343542 0.829686 2.271344 14.173228 12.598425 3.149606 14.173228 0.000000 3.149606 13.343542 12.598425 2.271344 13.343542 13.343542 2.271344 14.173228 14.173228 3.149606 0.000000 11.389343 7.874016 0.000000 9.055118 4.724409 0.000000 9.055118 7.874016 0.000000 5.118110 7.874016 0.000000 0.000000 3.149606 0.000000 0.000000 7.874016 0.000000 5.118110 4.724409 0.000000 14.173228 3.149606 0.000000 11.389343 4.724409 0.000000 14.173228 4.724409 0.139194 11.250149 4.724409 0.000000 14.173228 4.724409 0.000000 11.389343 4.724409 2.783885 14.173228 4.724409 2.923079 14.034034 4.724409 2.923079 14.034034 7.874016 2.783885 14.173228 4.724409 2.923079 14.034034 4.724409 2.783885 14.173228 7.874016 0.000000 9.055118 7.874016 0.139194 11.250149 7.874016 0.000000 11.389343 7.874016 5.118110 9.055118 7.874016 2.923079 14.034034 7.874016 5.118110 14.173228 7.874016 2.783885 14.173228 7.874016 5.118110 0.000000 4.724409 5.118110 5.118110 6.299213 5.118110 0.000000 7.874016 5.118110 14.173228 4.724409 5.118110 9.055118 6.299213 5.118110 9.055118 7.874016 5.118110 14.173228 7.874016 5.118110 5.118110 7.874016 0.000000 14.173228 3.149606 13.343542 13.343542 2.271344 0.829686 13.343542 2.271344 14.173228 14.173228 3.149606 5.118110 0.000000 7.874016 0.000000 5.118110 7.874016 0.000000 0.000000 7.874016 5.118110 5.118110 7.874016 14.173228 0.000000 3.149606 0.829686 0.829686 2.271344 13.343542 0.829686 2.271344 0.000000 0.000000 3.149606 12.803222 1.370005 1.190706 12.803222 12.598425 1.190706 12.803222 12.803222 1.190706 0.000000 5.118110 7.874016 3.937008 5.118110 4.724409 0.000000 5.118110 4.724409 3.937008 5.118110 6.299213 5.118110 5.118110 6.299213 5.118110 5.118110 7.874016 3.937008 5.118110 4.724409 0.000000 9.055118 4.724409 0.000000 5.118110 4.724409 3.937008 9.055118 4.724409 5.118110 9.055118 7.874016 3.937008 9.055118 6.299213 5.118110 9.055118 6.299213 0.000000 9.055118 4.724409 3.937008 9.055118 4.724409 0.000000 9.055118 7.874016 0.000000 11.389343 7.874016 0.139194 11.250149 4.724409 0.000000 11.389343 4.724409 0.139194 11.250149 7.874016 0.000000 14.173228 3.149606 0.829686 0.829686 2.271344 0.000000 0.000000 3.149606 0.829686 13.343542 2.271344 2.923079 14.034034 7.874016 0.139194 11.250149 4.724409 0.139194 11.250149 7.874016 2.923079 14.034034 4.724409 5.118110 5.118110 6.299213 3.937008 9.055118 6.299213 3.937008 5.118110 6.299213 5.118110 9.055118 6.299213 12.803222 12.803222 1.190706 1.370005 12.803222 1.190706 1.370005 1.370005 1.190706 12.803222 1.370005 1.190706 12.598425 1.574803 0.000000 12.598425 12.598425 0.000000 3.937008 9.055118 6.299213 3.937008 5.118110 4.724409 3.937008 5.118110 6.299213 3.937008 9.055118 4.724409 1.370005 1.370005 1.190706 1.370005 12.803222 1.190706 12.598425 12.598425 0.000000 1.574803 12.598425 0.000000 1.574803 1.574803 0.000000 12.598425 1.574803 0.000000 12.598425 12.598425 0.000000 1.574803 1.574803 0.000000 1.574803 12.598425 0.000000 12.598425 1.574803 0.000000 1.574803 1.574803 0.000000 1.574803 12.598425 0.000000 "
								            />
							</IndexedFaceSet>
						</Shape>
					</Group>
				</Transform>
			</Transform>
			<Transform DEF="instance_2_TRANSFORM"
			           translation="3.149606 0.000000 14.173228"
			           scale="1.000000 1.000000 1.000000"
			           rotation="0.000000 1.000000 0.000000 1.570796"
			           >
				<Transform DEF="instance_2_ifs_TRANSFORM"
				           translation="-0.000002 0.000000 0.000000"
				           scale="1.000000 1.000000 1.000000"
				           rotation="0.000000 -0.000000 0.000000 0.000000"
				           >
					<Group USE="group_ME_ID4_011" />
				</Transform>
			</Transform>
			<Transform DEF="instance_3_TRANSFORM"
			           translation="0.646532 22.213823 18.704725"
			           scale="1.000000 1.000000 1.000000"
			           rotation="0.000000 1.000000 0.000000 0.000000"
			           >
				<Transform DEF="instance_3_ifs_TRANSFORM"
				           translation="0.000000 0.000002 0.000000"
				           scale="1.000000 1.000000 1.000000"
				           rotation="0.000000 1.000000 0.000000 0.000000"
				           >
					<Group USE="group_ME_ID14_001" />
				</Transform>
			</Transform>
		</Transform>
	</Scene>
</X3D>