<?xml version="1.0" encoding="UTF-8"?>
<!DOCTYPE X3D PUBLIC "ISO//Web3D//DTD X3D 3.0//EN" "http://www.web3d.org/specifications/x3d-3.0.dtd">
<X3D version="3.0" profile="Immersive" xmlns:xsd="http://www.w3.org/2001/XMLSchema-instance" xsd:noNamespaceSchemaLocation="http://www.web3d.org/specifications/x3d-3.0.xsd">
	<head>
		<meta name="filename" content="03-1-1 柱頭用方櫨枓.x3d" />
		<meta name="created" content="2025-12-28 15:33:37" />
		<meta name="generator" content="Blender 4.2.2 LTS" />
		<meta name="translator" content="Web3D X3D/VRML2 format v2.5.1" />
	</head>
	<Scene>
		<NavigationInfo headlight="true"
		                visibilityLimit="0.0"
		                type='"EXAMINE", "ANY"'
		                avatarSize="0.25, 1.75, 0.75"
		                />
		<Background DEF="WO_World"
		            groundColor="0.051 0.051 0.051"
		            skyColor="0.051 0.051 0.051"
		            />
		<Transform DEF="SketchUp_TRANSFORM"
		           translation="0.000000 0.000000 0.000000"
		           scale="0.025400 0.025400 0.025400"
		           rotation="-1.000000 0.000000 0.000000 1.570796"
		           >
			<Transform DEF="group_0_TRANSFORM"
			           translation="6.299213 2.409449 0.000000"
			           scale="1.000000 1.000000 1.000000"
			           rotation="0.000000 1.000000 0.000000 0.000000"
			           >
				<Transform DEF="group_0_ifs_TRANSFORM"
				           translation="0.000000 0.000000 0.000000"
				           scale="1.000000 1.000000 1.000000"
				           rotation="0.000000 1.000000 0.000000 0.000000"
				           >
					<Group DEF="group_ME_ID3_003">
						<Shape>
							<Appearance>
								<Material DEF="MA_material_014"
								          diffuseColor="1.000 1.000 1.000"
								          specularColor="0.401 0.401 0.401"
								          emissiveColor="0.000 0.000 0.000"
								          ambientIntensity="0.000"
								          shininess="0.500"
								          transparency="0.000"
								          />
							</Appearance>
							<IndexedFaceSet solid="false"
							                coordIndex="0 1 2 -1 1 0 3 -1 4 5 6 -1 5 4 7 -1 8 9 10 -1 9 8 11 -1 11 8 12 -1 11 12 13 -1 13 12 14 -1 14 12 15 -1 14 15 16 -1 16 15 17 -1 16 17 2 -1 16 2 1 -1 16 1 6 -1 16 6 5 -1 18 19 20 -1 19 18 21 -1 22 23 24 -1 23 25 26 -1 25 23 27 -1 27 23 22 -1 28 29 30 -1 29 28 31 -1 32 33 34 -1 33 32 35 -1 35 32 36 -1 36 37 35 -1 38 39 40 -1 39 38 41 -1 42 43 44 -1 43 42 45 -1 46 47 48 -1 47 46 49 -1 50 51 52 -1 51 53 54 -1 53 51 55 -1 55 51 50 -1 56 57 58 -1 57 56 59 -1 57 60 61 -1 60 57 59 -1 60 62 61 -1 62 60 63 -1 64 65 66 -1 65 64 67 -1 68 69 70 -1 69 68 71 -1 71 68 72 -1 71 73 69 -1 73 71 74 -1 74 71 75 -1 75 71 72 -1 74 76 73 -1 76 74 77 -1 77 74 78 -1 78 74 75 -1 79 80 81 -1 80 79 82 -1 80 83 84 -1 83 80 82 -1 83 82 85 -1 86 87 88 -1 87 86 89 -1 90 91 92 -1 91 90 93 -1 94 95 96 -1 95 94 97 -1 97 94 98 -1 98 94 99 -1 100 101 102 -1 101 100 103 -1 104 105 106 -1 105 104 107 -1 105 107 108 -1 106 109 110 -1 109 106 105 -1 110 109 111 -1 112 113 114 -1 113 112 115 -1 116 117 118 -1 117 119 120 -1 119 117 121 -1 121 117 116 -1 122 123 124 -1 123 122 125 -1 124 126 127 -1 126 124 123 -1 127 128 129 -1 128 127 126 -1 "
							                >
								<Coordinate DEF="coords_ME_ID3_003"
								            point="0.000000 6.299213 9.448818 0.000000 4.724409 8.267716 0.000000 4.724409 9.448818 0.000000 6.299213 8.267716 0.000000 6.299213 4.330709 0.000000 4.724409 3.149606 0.000000 4.724409 4.330709 0.000000 6.299213 3.149606 0.000000 1.190706 11.228419 0.000000 0.000000 1.574803 0.000000 0.000000 11.023623 0.000000 1.190706 1.370005 0.000000 2.271344 11.768739 0.000000 2.271344 0.829686 0.000000 3.149606 0.000000 0.000000 3.149606 12.598425 0.000000 4.724409 0.000000 0.000000 4.724409 12.598425 0.000000 6.299213 8.267716 1.968504 6.299213 9.448818 1.968504 6.299213 8.267716 0.000000 6.299213 9.448818 6.299213 7.874016 8.267716 1.968504 6.299213 8.267716 1.968504 7.874016 8.267716 0.000000 4.724409 8.267716 0.000000 6.299213 8.267716 6.299213 4.724409 8.267716 0.000000 4.724409 4.330709 6.299213 4.724409 8.267716 6.299213 4.724409 4.330709 0.000000 4.724409 8.267716 6.299213 4.724409 4.330709 0.000000 6.299213 4.330709 0.000000 4.724409 4.330709 1.968504 6.299213 4.330709 6.299213 7.874016 4.330709 1.968504 7.874016 4.330709 0.000000 6.299213 3.149606 1.968504 6.299213 4.330709 1.968504 6.299213 3.149606 0.000000 6.299213 4.330709 1.968504 6.299213 3.149606 0.000000 4.724409 3.149606 0.000000 6.299213 3.149606 1.968504 4.724409 3.149606 0.000000 4.724409 0.000000 1.968504 4.724409 3.149606 1.968504 4.724409 0.000000 0.000000 4.724409 3.149606 6.299213 7.874016 0.000000 1.968504 4.724409 0.000000 1.968504 7.874016 0.000000 0.000000 3.149606 0.000000 0.000000 4.724409 0.000000 6.299213 3.149606 0.000000 6.299213 3.149606 0.000000 0.000000 2.271344 0.829686 0.000000 3.149606 0.000000 5.469526 2.271344 0.829686 4.929207 1.190706 1.370005 0.000000 1.190706 1.370005 0.000000 0.000000 1.574803 4.724409 0.000000 1.574803 4.724409 0.000000 11.023622 0.000000 0.000000 1.574803 4.724409 0.000000 1.574803 0.000000 0.000000 11.023623 4.724409 0.000000 11.023622 0.000000 1.190706 11.228419 0.000000 0.000000 11.023623 4.724409 1.190706 11.228419 4.929207 1.190706 11.228419 0.000000 2.271344 11.768739 4.724409 2.271344 11.768739 5.469526 2.271344 11.768739 0.000000 3.149606 12.598425 4.724409 3.149606 12.598426 6.299213 3.149606 12.598425 0.000000 3.149606 12.598425 1.968504 4.724409 12.598425 0.000000 4.724409 12.598425 4.724409 3.149606 12.598426 6.299213 7.874016 12.598425 1.968504 7.874016 12.598425 6.299213 3.149606 12.598425 0.000000 4.724409 9.448818 1.968504 4.724409 12.598425 1.968504 4.724409 9.448818 0.000000 4.724409 12.598425 1.968504 4.724409 9.448818 0.000000 6.299213 9.448818 0.000000 4.724409 9.448818 1.968504 6.299213 9.448818 1.968504 7.874016 12.598425 1.968504 4.724409 9.448818 1.968504 4.724409 12.598425 1.968504 6.299213 9.448818 1.968504 6.299213 8.267716 1.968504 7.874016 8.267716 1.968504 7.874016 8.267716 6.299213 7.874016 12.598425 6.299213 7.874016 8.267716 1.968504 7.874016 12.598425 6.299213 3.149606 0.000000 6.299213 4.724409 4.330709 6.299213 3.149606 12.598425 6.299213 7.874016 0.000000 6.299213 7.874016 4.330709 6.299213 4.724409 8.267716 6.299213 7.874016 12.598425 6.299213 7.874016 8.267716 1.968504 7.874016 0.000000 6.299213 7.874016 4.330709 6.299213 7.874016 0.000000 1.968504 7.874016 4.330709 1.968504 7.874016 4.330709 1.968504 6.299213 3.149606 1.968504 6.299213 4.330709 1.968504 4.724409 0.000000 1.968504 4.724409 3.149606 1.968504 7.874016 0.000000 6.299213 3.149606 0.000000 5.469526 2.271344 11.768739 5.469526 2.271344 0.829686 6.299213 3.149606 12.598425 4.929207 1.190706 11.228419 4.929207 1.190706 1.370005 4.724409 0.000000 11.023622 4.724409 0.000000 1.574803 "
								            />
							</IndexedFaceSet>
						</Shape>
					</Group>
				</Transform>
			</Transform>
			<Transform DEF="instance_0_TRANSFORM"
			           translation="10.236220 21.783466 0.000000"
			           scale="1.000000 1.000000 1.000000"
			           rotation="0.000000 -1.000000 0.000000 1.570796"
			           >
				<Transform DEF="instance_0_ifs_TRANSFORM"
				           translation="0.000000 0.000002 -0.000001"
				           scale="1.000000 1.000000 1.000000"
				           rotation="0.000000 0.000000 0.000000 0.000000"
				           >
					<Group DEF="group_ME_ID13_002">
						<Shape>
							<Appearance>
							</Appearance>
							<IndexedFaceSet solid="false"
							                coordIndex="0 1 2 -1 1 0 3 -1 4 5 6 -1 5 4 7 -1 5 7 8 -1 6 9 10 -1 9 6 5 -1 10 9 11 -1 12 13 14 -1 13 12 15 -1 13 15 16 -1 16 15 17 -1 17 15 18 -1 19 14 13 -1 20 21 22 -1 21 20 23 -1 23 20 24 -1 24 20 25 -1 26 27 28 -1 29 30 31 -1 30 29 32 -1 30 32 33 -1 33 32 27 -1 33 27 26 -1 34 35 36 -1 35 34 37 -1 37 34 38 -1 38 34 39 -1 39 34 40 -1 36 41 42 -1 41 36 35 -1 43 44 45 -1 44 43 46 -1 47 48 49 -1 50 51 52 -1 51 50 53 -1 51 53 54 -1 54 53 48 -1 54 48 47 -1 55 56 57 -1 56 55 58 -1 59 60 61 -1 60 59 62 -1 63 64 65 -1 64 66 67 -1 66 64 68 -1 68 64 63 -1 69 70 71 -1 70 69 72 -1 73 74 75 -1 74 73 76 -1 74 76 77 -1 75 78 79 -1 78 75 74 -1 79 78 80 -1 81 82 83 -1 82 81 84 -1 85 86 87 -1 86 85 88 -1 89 90 91 -1 90 89 92 -1 93 94 95 -1 94 93 96 -1 97 98 99 -1 98 97 100 -1 101 102 103 -1 102 101 104 -1 104 101 105 -1 105 101 106 -1 107 108 109 -1 108 107 110 -1 111 112 113 -1 112 114 115 -1 114 112 116 -1 116 112 111 -1 117 118 119 -1 118 117 120 -1 118 120 121 -1 118 121 122 -1 123 124 125 -1 124 123 126 -1 61 127 128 -1 127 61 60 -1 129 130 131 -1 130 129 132 -1 96 133 94 -1 133 96 134 -1 135 136 137 -1 136 135 138 -1 139 120 117 -1 120 139 140 -1 120 140 141 -1 120 141 121 -1 128 142 143 -1 142 128 127 -1 131 144 145 -1 144 131 130 -1 134 146 133 -1 146 134 147 -1 148 140 139 -1 140 148 149 -1 140 149 141 -1 150 151 152 -1 151 150 153 -1 145 154 155 -1 154 145 144 -1 "
							                >
								<Coordinate DEF="coords_ME_ID13_002"
								            point="4.330709 0.000000 7.874016 0.000000 4.330709 7.874016 0.000000 0.000000 7.874016 4.330709 4.330709 7.874016 12.598425 0.000000 3.149606 8.267716 0.000000 4.724409 0.000000 0.000000 3.149606 12.598425 0.000000 7.874016 8.267716 0.000000 7.874016 4.330709 0.000000 4.724409 0.000000 0.000000 7.874016 4.330709 0.000000 7.874016 4.330709 0.000000 4.724409 4.330709 4.330709 6.299213 4.330709 0.000000 7.874016 4.330709 12.598425 4.724409 4.330709 8.267716 6.299213 4.330709 8.267716 7.874016 4.330709 12.598425 7.874016 4.330709 4.330709 7.874016 0.000000 4.330709 7.874016 3.149606 4.330709 4.724409 0.000000 4.330709 4.724409 3.149606 4.330709 6.299213 4.330709 4.330709 6.299213 4.330709 4.330709 7.874016 0.000000 12.598425 7.874016 0.000000 8.267716 4.724409 0.000000 8.267716 7.874016 0.000000 4.330709 7.874016 0.000000 0.000000 3.149606 0.000000 0.000000 7.874016 0.000000 4.330709 4.724409 0.000000 12.598425 3.149606 12.598425 11.023622 3.149606 12.598425 4.330709 4.724409 12.598425 0.000000 3.149606 12.598425 8.267716 4.724409 12.598425 8.267716 7.874016 12.598425 12.598425 7.874016 12.598425 12.598425 3.149606 12.598425 4.330709 7.874016 12.598425 0.000000 7.874016 12.598425 0.000000 7.874016 8.267716 4.330709 7.874016 8.267716 0.000000 7.874016 12.598425 4.330709 7.874016 8.267716 12.598425 7.874016 8.267716 8.267716 6.299213 8.267716 8.267716 7.874016 8.267716 4.330709 7.874016 8.267716 0.000000 4.724409 8.267716 0.000000 7.874016 8.267716 4.330709 6.299213 8.267716 12.598425 4.724409 8.267716 0.000000 4.724409 4.330709 12.598425 4.724409 4.330709 0.000000 4.724409 8.267716 12.598425 4.724409 12.598425 0.000000 3.149606 0.829686 0.829686 2.271344 11.768739 0.829686 2.271344 0.000000 0.000000 3.149606 4.330709 8.267716 7.874016 3.149606 8.267716 6.299213 4.330709 8.267716 6.299213 0.000000 8.267716 4.724409 3.149606 8.267716 4.724409 0.000000 8.267716 7.874016 4.330709 4.330709 6.299213 3.149606 8.267716 6.299213 3.149606 4.330709 6.299213 4.330709 8.267716 6.299213 0.000000 12.598425 3.149606 4.330709 12.598425 4.724409 12.598425 12.598425 3.149606 0.000000 12.598425 7.874016 4.330709 12.598425 7.874016 8.267716 12.598425 4.724409 12.598425 12.598425 7.874016 8.267716 12.598425 7.874016 4.330709 8.267716 7.874016 0.000000 12.598425 7.874016 0.000000 8.267716 7.874016 4.330709 12.598425 7.874016 3.149606 8.267716 6.299213 3.149606 4.330709 4.724409 3.149606 4.330709 6.299213 3.149606 8.267716 4.724409 3.149606 4.330709 4.724409 0.000000 8.267716 4.724409 0.000000 4.330709 4.724409 3.149606 8.267716 4.724409 0.000000 12.598425 3.149606 0.829686 0.829686 2.271344 0.000000 0.000000 3.149606 0.829686 11.768739 2.271344 12.598425 8.267716 7.874016 8.267716 12.598425 7.874016 8.267716 8.267716 7.874016 12.598425 12.598425 7.874016 12.598425 8.267716 7.874016 9.448818 8.267716 4.724409 12.598425 8.267716 4.724409 9.448818 8.267716 6.299213 8.267716 8.267716 6.299213 8.267716 8.267716 7.874016 12.598425 4.330709 4.724409 9.448818 8.267716 4.724409 9.448818 4.330709 4.724409 12.598425 8.267716 4.724409 8.267716 4.330709 7.874016 9.448818 4.330709 6.299213 8.267716 4.330709 6.299213 12.598425 4.330709 4.724409 9.448818 4.330709 4.724409 12.598425 4.330709 7.874016 11.768739 0.829686 2.271344 12.598425 11.023622 3.149606 12.598425 0.000000 3.149606 11.768739 11.023622 2.271344 11.768739 11.768739 2.271344 12.598425 12.598425 3.149606 9.448818 4.330709 6.299213 8.267716 8.267716 6.299213 8.267716 4.330709 6.299213 9.448818 8.267716 6.299213 1.370005 1.370005 1.190706 11.228419 1.370005 1.190706 0.000000 12.598425 3.149606 11.768739 11.768739 2.271344 0.829686 11.768739 2.271344 12.598425 12.598425 3.149606 1.370005 1.370005 1.190706 1.370005 11.228419 1.190706 9.448818 8.267716 4.724409 9.448818 4.330709 6.299213 9.448818 4.330709 4.724409 9.448818 8.267716 6.299213 11.228419 1.370005 1.190706 11.228419 11.023622 1.190706 11.228419 11.228419 1.190706 1.574803 1.574803 0.000000 11.023622 1.574803 0.000000 11.228419 11.228419 1.190706 1.370005 11.228419 1.190706 1.574803 1.574803 0.000000 1.574803 11.023622 0.000000 11.023622 1.574803 0.000000 11.023622 11.023622 0.000000 11.023622 11.023622 0.000000 1.574803 1.574803 0.000000 1.574803 11.023622 0.000000 11.023622 1.574803 0.000000 11.023622 11.023622 0.000000 1.574803 11.023622 0.000000 "
								            />
							</IndexedFaceSet>
						</Shape>
					</Group>
				</Transform>
			</Transform>
			<Transform DEF="instance_1_TRANSFORM"
			           translation="0.000000 12.598425 21.992126"
			           scale="1.000000 1.000000 1.000000"
			           rotation="0.000000 0.000000 -1.000000 1.570796"
			           >
				<Transform DEF="instance_1_ifs_TRANSFORM"
				           translation="0.000000 0.000000 0.000000"
				           scale="1.000000 1.000000 1.000000"
				           rotation="0.000000 0.000000 0.000000 0.000000"
				           >
					<Group USE="group_ME_ID13_002" />
				</Transform>
			</Transform>
			<Transform DEF="instance_2_TRANSFORM"
			           translation="0.000000 21.783466 21.992126"
			           scale="1.000000 1.000000 1.000000"
			           rotation="0.000000 1.000000 0.000000 0.000000"
			           >
				<Transform DEF="instance_2_ifs_TRANSFORM"
				           translation="0.000000 0.000002 0.000000"
				           scale="1.000000 1.000000 1.000000"
				           rotation="0.000000 1.000000 0.000000 0.000000"
				           >
					<Group USE="group_ME_ID13_002" />
				</Transform>
			</Transform>
		</Transform>
	</Scene>
</X3D>