<?xml version="1.0" encoding="UTF-8"?>
<!DOCTYPE X3D PUBLIC "ISO//Web3D//DTD X3D 3.0//EN" "http://www.web3d.org/specifications/x3d-3.0.dtd">
<X3D version="3.0" profile="Immersive" xmlns:xsd="http://www.w3.org/2001/XMLSchema-instance" xsd:noNamespaceSchemaLocation="http://www.web3d.org/specifications/x3d-3.0.xsd">
	<head>
		<meta name="filename" content="03-2-2 交互枓 施於替木下者.x3d" />
		<meta name="created" content="2025-12-28 15:38:17" />
		<meta name="generator" content="Blender 4.2.2 LTS" />
		<meta name="translator" content="Web3D X3D/VRML2 format v2.5.1" />
	</head>
	<Scene>
		<NavigationInfo headlight="true"
		                visibilityLimit="0.0"
		                type='"EXAMINE", "ANY"'
		                avatarSize="0.25, 1.75, 0.75"
		                />
		<Background DEF="WO_World"
		            groundColor="0.051 0.051 0.051"
		            skyColor="0.051 0.051 0.051"
		            />
		<Transform DEF="SketchUp_TRANSFORM"
		           translation="0.000000 0.000000 0.000000"
		           scale="0.025400 0.025400 0.025400"
		           rotation="-1.000000 0.000000 0.000000 1.570796"
		           >
			<Transform DEF="instance_0_TRANSFORM"
			           translation="0.000000 15.881889 0.000000"
			           scale="1.000000 1.000000 1.000000"
			           rotation="0.000000 0.000000 -1.000000 1.570796"
			           >
				<Transform DEF="instance_0_ifs_TRANSFORM"
				           translation="0.000000 0.000000 0.000000"
				           scale="1.000000 1.000000 1.000000"
				           rotation="0.000000 0.000000 0.000000 0.000000"
				           >
					<Group DEF="group_ME_ID4_012">
						<Shape>
							<Appearance>
							</Appearance>
							<IndexedFaceSet solid="false"
							                coordIndex="0 1 2 -1 1 0 3 -1 4 5 6 -1 5 4 7 -1 2 8 9 -1 8 2 1 -1 10 11 12 -1 11 10 13 -1 11 13 14 -1 11 14 15 -1 16 3 0 -1 3 16 17 -1 18 19 20 -1 19 18 21 -1 7 22 5 -1 22 7 23 -1 24 6 25 -1 6 24 4 -1 26 27 28 -1 27 26 29 -1 30 13 10 -1 13 30 31 -1 13 31 14 -1 12 32 33 -1 32 12 11 -1 32 11 15 -1 32 15 34 -1 35 36 37 -1 36 35 38 -1 36 38 39 -1 37 40 41 -1 40 37 36 -1 41 40 42 -1 20 43 44 -1 43 20 19 -1 45 21 18 -1 21 45 46 -1 47 48 49 -1 48 47 50 -1 51 52 53 -1 52 51 54 -1 52 54 55 -1 56 57 58 -1 57 56 59 -1 60 61 62 -1 61 60 63 -1 64 65 66 -1 65 64 67 -1 68 69 70 -1 69 68 71 -1 72 73 74 -1 73 72 75 -1 76 77 78 -1 77 76 79 -1 77 79 80 -1 78 81 82 -1 81 78 77 -1 82 81 83 -1 "
							                >
								<Coordinate DEF="coords_ME_ID4_012"
								            point="5.884369 0.414843 1.135672 0.685003 0.685003 0.595353 5.614210 0.685003 0.595353 0.414843 0.414843 1.135672 0.414843 6.671771 1.135672 0.685003 0.685003 0.595353 0.414843 0.414843 1.135672 0.685003 6.401612 0.595353 0.787402 0.787402 0.000000 5.511811 0.787402 0.000000 5.614210 0.685003 0.595353 5.884369 6.299213 1.135672 5.884369 0.414843 1.135672 5.614210 6.299213 0.595353 5.614210 6.401612 0.595353 5.884369 6.671771 1.135672 6.299213 0.000000 1.574803 0.000000 0.000000 1.574803 0.414843 6.671771 1.135672 5.614210 6.401612 0.595353 0.685003 6.401612 0.595353 5.884369 6.671771 1.135672 0.787402 0.787402 0.000000 0.787402 6.299213 0.000000 0.000000 7.086615 1.574803 0.000000 0.000000 1.574803 5.511811 6.299213 0.000000 0.787402 0.787402 0.000000 0.787402 6.299213 0.000000 5.511811 0.787402 0.000000 5.511811 0.787402 0.000000 5.511811 6.299213 0.000000 6.299213 6.299213 1.574803 6.299213 0.000000 1.574803 6.299213 7.086615 1.574803 6.299213 0.000000 1.574803 5.118110 0.000000 2.362205 0.000000 0.000000 1.574803 6.299213 0.000000 3.937008 5.118110 0.000000 3.937008 1.181102 0.000000 2.362205 0.000000 0.000000 3.937008 1.181102 0.000000 3.937008 5.511811 6.299213 0.000000 0.787402 6.299213 0.000000 0.000000 7.086615 1.574803 6.299213 7.086615 1.574803 0.000000 7.086615 3.937008 0.000000 0.000000 1.574803 0.000000 0.000000 3.937008 0.000000 7.086615 1.574803 6.299213 0.000000 1.574803 6.299213 7.086615 3.937008 6.299213 0.000000 3.937008 6.299213 6.299213 1.574803 6.299213 7.086615 1.574803 6.299213 0.000000 3.937008 5.118110 7.086615 3.937008 5.118110 0.000000 3.937008 6.299213 7.086615 3.937008 5.118110 7.086615 3.937008 5.118110 0.000000 2.362205 5.118110 0.000000 3.937008 5.118110 7.086615 2.362205 5.118110 0.000000 2.362205 1.181102 7.086615 2.362205 1.181102 0.000000 2.362205 5.118110 7.086615 2.362205 1.181102 7.086615 2.362205 1.181102 0.000000 3.937008 1.181102 0.000000 2.362205 1.181102 7.086615 3.937008 1.181102 0.000000 3.937008 0.000000 7.086615 3.937008 0.000000 0.000000 3.937008 1.181102 7.086615 3.937008 0.000000 7.086615 1.574803 1.181102 7.086615 2.362205 6.299213 7.086615 1.574803 0.000000 7.086615 3.937008 1.181102 7.086615 3.937008 5.118110 7.086615 2.362205 6.299213 7.086615 3.937008 5.118110 7.086615 3.937008 "
								            />
							</IndexedFaceSet>
						</Shape>
					</Group>
				</Transform>
			</Transform>
			<Transform DEF="instance_1_TRANSFORM"
			           translation="0.393701 0.000000 0.000000"
			           scale="1.000000 1.000000 1.000000"
			           rotation="0.000000 1.000000 0.000000 0.000000"
			           >
				<Transform DEF="instance_1_ifs_TRANSFORM"
				           translation="0.000000 0.000000 0.000000"
				           scale="1.000000 1.000000 1.000000"
				           rotation="0.000000 1.000000 0.000000 0.000000"
				           >
					<Group USE="group_ME_ID4_012" />
				</Transform>
			</Transform>
		</Transform>
	</Scene>
</X3D>