<?xml version="1.0" encoding="UTF-8"?>
<!DOCTYPE X3D PUBLIC "ISO//Web3D//DTD X3D 3.0//EN" "http://www.web3d.org/specifications/x3d-3.0.dtd">
<X3D version="3.0" profile="Immersive" xmlns:xsd="http://www.w3.org/2001/XMLSchema-instance" xsd:noNamespaceSchemaLocation="http://www.web3d.org/specifications/x3d-3.0.xsd">
	<head>
		<meta name="filename" content="03-2-4 騎昂交互枓 斜開鐙口.x3d" />
		<meta name="created" content="2025-12-28 15:39:11" />
		<meta name="generator" content="Blender 4.2.2 LTS" />
		<meta name="translator" content="Web3D X3D/VRML2 format v2.5.1" />
	</head>
	<Scene>
		<NavigationInfo headlight="true"
		                visibilityLimit="0.0"
		                type='"EXAMINE", "ANY"'
		                avatarSize="0.25, 1.75, 0.75"
		                />
		<Background DEF="WO_World"
		            groundColor="0.051 0.051 0.051"
		            skyColor="0.051 0.051 0.051"
		            />
		<Transform DEF="SketchUp_TRANSFORM"
		           translation="0.000000 0.000000 0.000000"
		           scale="0.025400 0.025400 0.025400"
		           rotation="-1.000000 0.000000 0.000000 1.570796"
		           >
			<Transform DEF="group_0_TRANSFORM"
			           translation="103.687698 15.354332 20.669487"
			           scale="1.000000 1.000000 1.000000"
			           rotation="0.000000 1.000000 0.000000 0.000000"
			           >
				<Transform DEF="group_0_ifs_TRANSFORM"
				           translation="0.000008 0.000002 0.000002"
				           scale="1.000000 1.000000 1.000000"
				           rotation="0.000000 1.000000 0.000000 0.000000"
				           >
					<Group DEF="group_ME_ID3_006">
						<Shape>
							<Appearance>
								<Material DEF="MA_material_019"
								          diffuseColor="1.000 1.000 1.000"
								          specularColor="0.401 0.401 0.401"
								          emissiveColor="0.000 0.000 0.000"
								          ambientIntensity="0.000"
								          shininess="0.500"
								          transparency="0.000"
								          />
							</Appearance>
							<IndexedFaceSet solid="false"
							                coordIndex="0 1 2 -1 1 0 3 -1 4 5 6 -1 5 4 7 -1 7 4 8 -1 7 8 9 -1 10 0 2 -1 0 10 11 -1 12 13 14 -1 13 12 15 -1 16 17 18 -1 17 16 19 -1 20 21 22 -1 21 20 23 -1 24 10 25 -1 10 24 11 -1 26 27 28 -1 27 26 29 -1 27 30 31 -1 30 27 32 -1 32 27 33 -1 33 27 29 -1 34 35 36 -1 35 34 31 -1 35 31 37 -1 37 31 30 -1 38 15 12 -1 15 38 39 -1 40 41 42 -1 41 40 43 -1 41 43 44 -1 41 44 45 -1 41 45 46 -1 47 48 49 -1 48 47 50 -1 50 47 51 -1 50 51 52 -1 53 39 38 -1 39 53 54 -1 55 56 57 -1 56 55 58 -1 59 60 61 -1 60 59 62 -1 60 62 63 -1 61 64 65 -1 64 61 60 -1 65 64 66 -1 67 68 69 -1 68 67 70 -1 71 72 73 -1 72 71 74 -1 74 71 75 -1 75 71 76 -1 77 78 79 -1 78 77 80 -1 81 82 83 -1 82 84 85 -1 84 82 86 -1 86 82 81 -1 87 88 89 -1 88 87 90 -1 91 92 93 -1 92 91 94 -1 92 94 95 -1 93 96 97 -1 96 93 92 -1 97 96 98 -1 42 99 100 -1 99 42 41 -1 99 41 46 -1 99 46 101 -1 102 103 104 -1 103 102 105 -1 106 107 108 -1 107 106 109 -1 110 111 112 -1 111 110 113 -1 58 112 56 -1 112 58 110 -1 100 114 115 -1 114 100 99 -1 114 99 101 -1 114 101 116 -1 117 118 119 -1 118 117 120 -1 121 122 123 -1 122 121 124 -1 122 124 125 -1 125 124 126 -1 126 124 127 -1 127 124 128 -1 129 123 122 -1 130 131 132 -1 131 130 133 -1 134 135 136 -1 137 138 139 -1 138 137 140 -1 138 140 141 -1 141 140 135 -1 141 135 134 -1 142 143 144 -1 143 142 145 -1 146 147 148 -1 147 146 149 -1 147 149 150 -1 150 149 151 -1 151 149 152 -1 153 148 147 -1 154 155 156 -1 155 154 157 -1 158 159 160 -1 159 158 161 -1 162 163 164 -1 163 162 165 -1 119 105 102 -1 105 119 118 -1 166 167 168 -1 167 166 169 -1 169 166 170 -1 170 166 171 -1 172 173 174 -1 173 172 175 -1 176 177 178 -1 177 179 180 -1 179 177 181 -1 181 177 176 -1 182 183 184 -1 183 182 185 -1 186 187 188 -1 187 186 189 -1 "
							                >
								<Coordinate DEF="coords_ME_ID3_006"
								            point="0.685003 6.401612 0.595353 0.787402 4.724409 0.000000 0.685003 4.724409 0.595353 0.787402 6.299213 0.000000 0.685003 4.724409 0.595353 5.511811 4.724409 0.000000 0.787402 4.724409 0.000000 0.000000 4.724409 2.156332 0.414843 4.724409 1.135672 0.000000 4.724409 1.574803 0.414843 4.724409 1.135672 0.414843 6.671771 1.135672 0.685003 6.401612 0.595353 5.511811 6.299213 0.000000 0.787402 6.299213 0.000000 5.614210 6.401612 0.595353 5.511811 6.299213 0.000000 0.787402 4.724409 0.000000 0.787402 6.299213 0.000000 5.511811 4.724409 0.000000 5.511811 4.724409 0.000000 0.000000 2.362205 2.156332 0.000000 4.724409 2.156332 5.511811 2.362205 0.000000 0.000000 7.086615 1.574803 0.000000 4.724409 1.574803 0.000000 7.086615 3.937008 0.000000 5.511811 2.362205 0.000000 5.511811 3.937008 0.000000 7.086615 1.574803 0.000000 2.362205 2.156332 0.000000 1.574803 2.362205 0.000000 4.724409 2.156332 0.000000 4.724409 1.574803 0.000000 1.574803 3.937008 0.000000 0.000000 1.574803 0.000000 0.000000 3.937008 0.000000 2.362205 1.574803 0.414843 6.671771 1.135672 5.884369 6.671771 1.135672 5.511811 0.787402 0.000000 5.614210 6.299213 0.595353 5.614210 0.685003 0.595353 5.511811 2.362205 0.000000 5.511811 4.724409 0.000000 5.511811 6.299213 0.000000 5.614210 6.401612 0.595353 0.685003 2.362205 0.595353 5.511811 2.362205 0.000000 0.787402 2.362205 0.000000 0.000000 2.362205 2.156332 0.414843 2.362205 1.135672 0.000000 2.362205 1.574803 0.000000 7.086615 1.574803 6.299213 7.086615 1.574803 0.000000 2.362205 1.574803 0.414843 0.414843 1.135672 0.000000 0.000000 1.574803 0.414843 2.362205 1.135672 6.299213 0.000000 1.574803 5.118110 0.000000 2.362205 0.000000 0.000000 1.574803 6.299213 0.000000 3.937008 5.118110 0.000000 3.937008 1.181102 0.000000 2.362205 0.000000 0.000000 3.937008 1.181102 0.000000 3.937008 1.181102 0.000000 3.937008 0.000000 1.574803 3.937008 0.000000 0.000000 3.937008 1.181102 1.574803 3.937008 0.000000 1.574803 3.937008 0.590551 1.574803 2.362205 0.000000 1.574803 2.362205 0.590551 1.574803 3.149606 1.181102 1.574803 3.149606 1.181102 1.574803 3.937008 0.590551 1.574803 2.362205 0.000000 5.511811 2.362205 0.000000 1.574803 2.362205 0.590551 5.511811 2.362205 1.181102 5.511811 3.937008 0.590551 5.511811 3.149606 1.181102 5.511811 3.149606 0.000000 5.511811 2.362205 0.590551 5.511811 2.362205 0.000000 5.511811 3.937008 1.181102 5.511811 3.937008 0.000000 7.086615 3.937008 0.000000 5.511811 3.937008 1.181102 7.086615 3.937008 0.000000 7.086615 1.574803 1.181102 7.086615 2.362205 6.299213 7.086615 1.574803 0.000000 7.086615 3.937008 1.181102 7.086615 3.937008 5.118110 7.086615 2.362205 6.299213 7.086615 3.937008 5.118110 7.086615 3.937008 5.884369 6.299213 1.135672 5.884369 0.414843 1.135672 5.884369 6.671771 1.135672 5.614210 0.685003 0.595353 0.787402 0.787402 0.000000 5.511811 0.787402 0.000000 0.685003 0.685003 0.595353 5.511811 2.362205 0.000000 0.787402 0.787402 0.000000 0.787402 2.362205 0.000000 5.511811 0.787402 0.000000 0.685003 2.362205 0.595353 0.787402 0.787402 0.000000 0.685003 0.685003 0.595353 0.787402 2.362205 0.000000 6.299213 6.299213 1.574803 6.299213 0.000000 1.574803 6.299213 7.086615 1.574803 6.299213 0.000000 1.574803 0.414843 0.414843 1.135672 5.884369 0.414843 1.135672 0.000000 0.000000 1.574803 6.299213 0.000000 1.574803 6.299213 1.574803 2.362205 6.299213 0.000000 3.937008 6.299213 6.299213 1.574803 6.299213 5.511811 2.362205 6.299213 5.511811 3.937008 6.299213 7.086615 3.937008 6.299213 7.086615 1.574803 6.299213 1.574803 3.937008 6.299213 0.000000 3.937008 5.118110 1.574803 3.937008 5.118110 0.000000 3.937008 6.299213 1.574803 3.937008 5.118110 7.086615 3.937008 5.118110 5.511811 3.149606 5.118110 5.511811 3.937008 5.118110 1.574803 3.937008 5.118110 0.000000 2.362205 5.118110 0.000000 3.937008 5.118110 1.574803 3.149606 5.118110 7.086615 2.362205 5.118110 0.000000 2.362205 1.181102 7.086615 2.362205 1.181102 0.000000 2.362205 5.118110 7.086615 2.362205 1.181102 0.000000 2.362205 1.181102 1.574803 3.149606 1.181102 0.000000 3.937008 1.181102 7.086615 2.362205 1.181102 5.511811 3.149606 1.181102 5.511811 3.937008 1.181102 7.086615 3.937008 1.181102 1.574803 3.937008 1.181102 1.574803 3.149606 0.590551 5.511811 3.149606 0.590551 1.574803 3.149606 1.181102 5.511811 3.149606 0.590551 5.511811 3.149606 0.590551 1.574803 2.362205 0.590551 1.574803 3.149606 0.590551 5.511811 2.362205 6.299213 5.511811 3.937008 5.118110 7.086615 3.937008 5.118110 5.511811 3.937008 6.299213 7.086615 3.937008 6.299213 5.511811 3.937008 5.708661 5.511811 2.362205 6.299213 5.511811 2.362205 5.708661 5.511811 3.149606 5.118110 5.511811 3.149606 5.118110 5.511811 3.937008 6.299213 1.574803 2.362205 5.708661 5.511811 2.362205 5.708661 1.574803 2.362205 6.299213 5.511811 2.362205 5.118110 1.574803 3.937008 5.708661 1.574803 3.149606 5.118110 1.574803 3.149606 6.299213 1.574803 2.362205 5.708661 1.574803 2.362205 6.299213 1.574803 3.937008 5.708661 1.574803 3.149606 5.118110 5.511811 3.149606 5.118110 1.574803 3.149606 5.708661 5.511811 3.149606 5.708661 5.511811 2.362205 5.708661 1.574803 3.149606 5.708661 1.574803 2.362205 5.708661 5.511811 3.149606 "
								            />
							</IndexedFaceSet>
						</Shape>
					</Group>
				</Transform>
			</Transform>
			<Transform DEF="group_1_TRANSFORM"
			           translation="110.380615 12.047243 20.669487"
			           scale="-1.000000 -1.000000 -1.000000"
			           rotation="-0.707107 -0.707107 0.000000 3.141593"
			           >
				<Transform DEF="group_1_ifs_TRANSFORM"
				           translation="-0.000002 -0.000013 0.000002"
				           scale="1.000000 1.000000 1.000000"
				           rotation="0.000000 0.000000 0.000000 0.000000"
				           >
					<Group DEF="group_ME_ID12_009">
						<Shape>
							<Appearance>
								<Material USE="MA_material_019" />
							</Appearance>
							<IndexedFaceSet solid="false"
							                coordIndex="0 1 2 -1 3 2 1 -1 4 5 6 -1 5 7 6 -1 6 7 8 -1 9 8 7 -1 10 11 12 -1 11 13 12 -1 14 12 13 -1 15 16 17 -1 18 17 16 -1 19 20 21 -1 22 21 20 -1 23 24 25 -1 26 25 24 -1 20 27 22 -1 28 22 27 -1 27 29 28 -1 30 28 29 -1 31 32 33 -1 33 32 34 -1 32 35 34 -1 36 34 35 -1 37 38 31 -1 32 31 38 -1 39 40 41 -1 40 42 41 -1 42 43 41 -1 43 44 41 -1 44 45 41 -1 41 45 46 -1 46 45 47 -1 47 45 48 -1 49 48 45 -1 50 51 39 -1 40 39 51 -1 52 53 42 -1 43 42 53 -1 12 14 54 -1 55 54 14 -1 56 57 15 -1 16 15 57 -1 58 59 56 -1 57 56 59 -1 60 61 62 -1 63 62 61 -1 64 65 66 -1 67 68 65 -1 66 65 68 -1 69 70 67 -1 70 71 67 -1 68 67 71 -1 72 73 74 -1 75 74 73 -1 76 77 78 -1 78 77 79 -1 79 77 80 -1 81 80 77 -1 82 83 84 -1 85 84 83 -1 86 87 88 -1 89 88 87 -1 90 91 92 -1 93 94 90 -1 94 95 90 -1 91 90 95 -1 96 97 98 -1 99 98 97 -1 100 101 102 -1 102 101 103 -1 101 104 103 -1 105 103 104 -1 106 107 108 -1 109 108 107 -1 110 111 112 -1 113 112 111 -1 114 115 116 -1 117 116 115 -1 118 119 120 -1 121 122 118 -1 122 123 118 -1 119 118 123 -1 54 55 124 -1 125 124 55 -1 126 127 128 -1 129 128 127 -1 130 131 132 -1 132 131 133 -1 134 133 131 -1 135 131 130 -1 "
							                >
								<Coordinate DEF="coords_ME_ID12_009"
								            point="5.511811 0.787402 0.000000 5.511811 2.362205 0.000000 0.787402 0.787402 0.000000 0.787402 2.362205 0.000000 0.000000 2.362205 1.574803 0.414843 2.362205 1.135672 0.000000 2.362205 2.156332 0.685003 2.362205 0.595353 5.511811 2.362205 0.000000 0.787402 2.362205 0.000000 5.511811 3.543307 0.000000 5.511811 2.362205 0.000000 5.614210 3.543307 0.595353 5.511811 0.787402 0.000000 5.614210 0.685003 0.595353 0.685003 0.685003 0.595353 5.614210 0.685003 0.595353 0.787402 0.787402 0.000000 5.511811 0.787402 0.000000 0.787402 2.362205 0.000000 0.685003 2.362205 0.595353 0.787402 0.787402 0.000000 0.685003 0.685003 0.595353 5.511811 2.362205 0.000000 5.511811 3.543307 0.000000 0.000000 2.362205 2.156332 0.000000 3.543307 2.156332 0.414843 2.362205 1.135672 0.414843 0.414843 1.135672 0.000000 2.362205 1.574803 0.000000 0.000000 1.574803 0.000000 2.362205 2.156332 0.000000 1.574803 2.362205 0.000000 2.362205 1.574803 0.000000 0.000000 1.574803 0.000000 1.574803 3.937008 0.000000 0.000000 3.937008 0.000000 3.543307 2.156332 0.000000 3.543307 2.362205 5.708661 3.543307 2.362205 5.118110 3.543307 2.362205 6.299213 3.543307 2.362205 1.181102 3.543307 2.362205 0.590551 3.543307 2.362205 0.000000 3.543307 2.362205 0.000000 3.543307 2.156332 6.299213 3.543307 1.574803 5.884369 3.543307 1.135672 5.614210 3.543307 0.595353 5.511811 3.543307 0.000000 5.708661 3.543307 3.149606 5.118110 3.543307 3.149606 1.181102 3.543307 3.149606 0.590551 3.543307 3.149606 5.884369 3.543307 1.135672 5.884369 0.414843 1.135672 0.414843 0.414843 1.135672 5.884369 0.414843 1.135672 0.000000 0.000000 1.574803 6.299213 0.000000 1.574803 0.590551 3.543307 2.362205 0.590551 1.574803 2.362205 0.000000 3.543307 2.362205 0.000000 1.574803 2.362205 1.181102 0.000000 3.937008 1.181102 0.000000 2.362205 0.000000 0.000000 3.937008 5.118110 0.000000 2.362205 0.000000 0.000000 1.574803 5.118110 0.000000 3.937008 6.299213 0.000000 3.937008 6.299213 0.000000 1.574803 1.181102 1.574803 3.937008 1.181102 0.000000 3.937008 0.000000 1.574803 3.937008 0.000000 0.000000 3.937008 1.181102 1.574803 3.937008 0.000000 1.574803 3.937008 1.181102 1.574803 3.149606 0.590551 1.574803 3.149606 0.590551 1.574803 2.362205 0.000000 1.574803 2.362205 0.590551 3.543307 2.362205 0.590551 3.543307 3.149606 0.590551 1.574803 2.362205 0.590551 1.574803 3.149606 1.181102 3.543307 3.149606 1.181102 1.574803 3.149606 0.590551 3.543307 3.149606 0.590551 1.574803 3.149606 1.181102 1.574803 3.149606 1.181102 0.000000 3.937008 1.181102 1.574803 3.937008 1.181102 3.543307 3.149606 1.181102 3.543307 2.362205 1.181102 0.000000 2.362205 5.118110 3.543307 2.362205 5.118110 0.000000 2.362205 1.181102 3.543307 2.362205 1.181102 0.000000 2.362205 5.118110 3.543307 3.149606 5.118110 1.574803 3.149606 5.118110 3.543307 2.362205 5.118110 0.000000 2.362205 5.118110 1.574803 3.937008 5.118110 0.000000 3.937008 5.708661 3.543307 3.149606 5.708661 1.574803 3.149606 5.118110 3.543307 3.149606 5.118110 1.574803 3.149606 5.708661 3.543307 3.149606 5.708661 3.543307 2.362205 5.708661 1.574803 3.149606 5.708661 1.574803 2.362205 6.299213 3.543307 2.362205 6.299213 1.574803 2.362205 5.708661 3.543307 2.362205 5.708661 1.574803 2.362205 6.299213 1.574803 2.362205 6.299213 0.000000 3.937008 6.299213 1.574803 3.937008 6.299213 3.543307 2.362205 6.299213 3.543307 1.574803 6.299213 0.000000 1.574803 6.299213 3.543307 1.574803 6.299213 0.000000 1.574803 6.299213 1.574803 3.937008 6.299213 0.000000 3.937008 5.118110 1.574803 3.937008 5.118110 0.000000 3.937008 5.118110 1.574803 3.937008 5.708661 1.574803 3.149606 6.299213 1.574803 3.937008 6.299213 1.574803 2.362205 5.708661 1.574803 2.362205 5.118110 1.574803 3.149606 "
								            />
							</IndexedFaceSet>
						</Shape>
					</Group>
				</Transform>
			</Transform>
		</Transform>
	</Scene>
</X3D>