<?xml version="1.0" encoding="UTF-8"?>
<!DOCTYPE X3D PUBLIC "ISO//Web3D//DTD X3D 3.0//EN" "http://www.web3d.org/specifications/x3d-3.0.dtd">
<X3D version="3.0" profile="Immersive" xmlns:xsd="http://www.w3.org/2001/XMLSchema-instance" xsd:noNamespaceSchemaLocation="http://www.web3d.org/specifications/x3d-3.0.xsd">
	<head>
		<meta name="filename" content="03-2-1 交互枓.x3d" />
		<meta name="created" content="2025-12-28 15:37:56" />
		<meta name="generator" content="Blender 4.2.2 LTS" />
		<meta name="translator" content="Web3D X3D/VRML2 format v2.5.1" />
	</head>
	<Scene>
		<NavigationInfo headlight="true"
		                visibilityLimit="0.0"
		                type='"EXAMINE", "ANY"'
		                avatarSize="0.25, 1.75, 0.75"
		                />
		<Background DEF="WO_World"
		            groundColor="0.051 0.051 0.051"
		            skyColor="0.051 0.051 0.051"
		            />
		<Transform DEF="SketchUp_TRANSFORM"
		           translation="0.000000 0.000000 0.000000"
		           scale="0.025400 0.025400 0.025400"
		           rotation="-1.000000 0.000000 0.000000 1.570796"
		           >
			<Transform DEF="group_0_TRANSFORM"
			           translation="0.000000 15.476378 0.169291"
			           scale="1.000000 1.000000 1.000000"
			           rotation="0.000000 1.000000 0.000000 0.000000"
			           >
				<Transform DEF="group_0_ifs_TRANSFORM"
				           translation="0.000000 0.000002 0.000000"
				           scale="1.000000 1.000000 1.000000"
				           rotation="0.000000 1.000000 0.000000 0.000000"
				           >
					<Group DEF="group_ME_ID3_004">
						<Shape>
							<Appearance>
								<Material DEF="MA_material_016"
								          diffuseColor="1.000 1.000 1.000"
								          specularColor="0.401 0.401 0.401"
								          emissiveColor="0.000 0.000 0.000"
								          ambientIntensity="0.000"
								          shininess="0.500"
								          transparency="0.000"
								          />
							</Appearance>
							<IndexedFaceSet solid="false"
							                coordIndex="0 1 2 -1 1 0 3 -1 4 5 6 -1 5 4 7 -1 5 7 8 -1 8 7 9 -1 10 11 12 -1 11 10 13 -1 13 10 14 -1 14 10 15 -1 15 10 16 -1 16 10 17 -1 17 10 18 -1 17 18 19 -1 19 18 20 -1 19 20 21 -1 21 20 22 -1 21 22 23 -1 14 24 25 -1 24 14 15 -1 11 26 27 -1 26 11 13 -1 28 29 30 -1 29 28 31 -1 31 28 32 -1 31 32 33 -1 34 35 36 -1 35 34 37 -1 35 37 38 -1 39 38 40 -1 38 39 41 -1 38 41 35 -1 42 43 44 -1 43 42 45 -1 46 47 48 -1 47 46 49 -1 50 51 52 -1 51 50 53 -1 51 53 54 -1 55 52 51 -1 56 57 58 -1 57 56 59 -1 60 61 62 -1 61 60 63 -1 64 62 65 -1 62 64 60 -1 66 65 67 -1 65 66 64 -1 68 69 70 -1 69 68 71 -1 69 71 72 -1 72 71 73 -1 74 75 76 -1 75 74 77 -1 78 79 80 -1 79 78 81 -1 82 83 84 -1 83 82 85 -1 86 87 88 -1 87 86 89 -1 90 91 92 -1 91 90 93 -1 94 95 96 -1 95 94 97 -1 97 94 98 -1 97 98 99 -1 100 101 102 -1 101 100 103 -1 104 103 100 -1 103 104 105 -1 106 105 104 -1 105 106 107 -1 108 109 110 -1 109 108 111 -1 109 111 112 -1 112 111 113 -1 114 115 116 -1 115 114 117 -1 118 119 120 -1 119 118 121 -1 122 123 124 -1 123 122 125 -1 121 124 119 -1 124 121 122 -1 "
							                >
								<Coordinate DEF="coords_ME_ID3_004"
								            point="3.543307 1.574803 5.118110 0.000000 1.574803 1.181102 3.543307 1.574803 1.181102 0.000000 1.574803 5.118110 1.574803 0.000000 1.181102 0.000000 1.574803 1.181102 0.000000 0.000000 1.181102 1.574803 0.787402 1.181102 3.543307 1.574803 1.181102 3.543307 0.787402 1.181102 3.543307 2.362205 0.000000 3.543307 1.574803 0.590551 3.543307 1.574803 0.000000 3.543307 1.574803 1.181102 3.543307 1.574803 5.118110 3.543307 1.574803 5.708661 3.543307 1.574803 6.299213 3.543307 2.362205 6.299213 3.543307 2.801336 0.414843 3.543307 2.801336 5.884369 3.543307 3.341655 0.685003 3.543307 3.341655 5.614210 3.543307 3.937008 0.787402 3.543307 3.937008 5.511811 3.543307 0.787402 5.708661 3.543307 0.787402 5.118110 3.543307 0.787402 1.181102 3.543307 0.787402 0.590551 0.000000 1.574803 5.118110 1.574803 0.000000 5.118110 0.000000 0.000000 5.118110 1.574803 0.787402 5.118110 3.543307 1.574803 5.118110 3.543307 0.787402 5.118110 0.000000 0.000000 6.299213 0.000000 1.574803 5.118110 0.000000 0.000000 5.118110 0.000000 2.362205 6.299213 0.000000 2.362205 0.000000 0.000000 0.000000 1.181102 0.000000 0.000000 0.000000 0.000000 1.574803 1.181102 3.543307 0.787402 1.181102 1.574803 0.787402 0.590551 3.543307 0.787402 0.590551 1.574803 0.787402 1.181102 1.574803 0.000000 1.181102 0.000000 0.000000 0.000000 1.574803 0.000000 0.000000 0.000000 0.000000 1.181102 1.574803 0.000000 0.000000 1.574803 0.787402 0.590551 1.574803 0.000000 1.181102 1.574803 1.574803 0.000000 1.574803 1.574803 0.590551 1.574803 0.787402 1.181102 0.787402 3.937008 5.511811 3.543307 3.937008 0.787402 0.787402 3.937008 0.787402 3.543307 3.937008 5.511811 3.543307 3.341655 5.614210 0.787402 3.937008 5.511811 0.685003 3.341655 5.614210 3.543307 3.937008 5.511811 3.543307 2.801336 5.884369 0.414843 2.801336 5.884369 3.543307 2.362205 6.299213 0.000000 2.362205 6.299213 1.574803 0.000000 6.299213 0.000000 2.362205 6.299213 0.000000 0.000000 6.299213 1.574803 1.574803 6.299213 3.543307 2.362205 6.299213 3.543307 1.574803 6.299213 3.543307 1.574803 6.299213 1.574803 1.574803 5.708661 3.543307 1.574803 5.708661 1.574803 1.574803 6.299213 3.543307 0.787402 5.708661 1.574803 1.574803 5.708661 1.574803 0.787402 5.708661 3.543307 1.574803 5.708661 3.543307 0.787402 5.708661 1.574803 0.787402 5.118110 3.543307 0.787402 5.118110 1.574803 0.787402 5.708661 1.574803 1.574803 0.590551 3.543307 0.787402 0.590551 1.574803 0.787402 0.590551 3.543307 1.574803 0.590551 3.543307 1.574803 0.590551 1.574803 1.574803 0.000000 3.543307 1.574803 0.000000 1.574803 1.574803 0.590551 0.000000 2.362205 0.000000 1.574803 0.000000 0.000000 0.000000 0.000000 0.000000 1.574803 1.574803 0.000000 3.543307 2.362205 0.000000 3.543307 1.574803 0.000000 0.414843 2.801336 0.414843 3.543307 2.362205 0.000000 0.000000 2.362205 0.000000 3.543307 2.801336 0.414843 0.685003 3.341655 0.685003 3.543307 3.341655 0.685003 0.787402 3.937008 0.787402 3.543307 3.937008 0.787402 1.574803 0.787402 5.118110 1.574803 0.000000 6.299213 1.574803 0.000000 5.118110 1.574803 0.787402 5.708661 1.574803 1.574803 6.299213 1.574803 1.574803 5.708661 1.574803 0.000000 6.299213 0.000000 0.000000 5.118110 1.574803 0.000000 5.118110 0.000000 0.000000 6.299213 0.000000 2.362205 6.299213 0.414843 2.801336 0.414843 0.000000 2.362205 0.000000 0.414843 2.801336 5.884369 0.685003 3.341655 5.614210 0.787402 3.937008 0.787402 0.685003 3.341655 0.685003 0.787402 3.937008 5.511811 "
								            />
							</IndexedFaceSet>
						</Shape>
					</Group>
				</Transform>
			</Transform>
			<Transform DEF="instance_0_TRANSFORM"
			           translation="0.000000 20.594488 10.492126"
			           scale="1.000000 1.000000 1.000000"
			           rotation="0.000000 0.000000 -1.000000 1.570796"
			           >
				<Transform DEF="instance_0_ifs_TRANSFORM"
				           translation="-0.000002 0.000000 0.000001"
				           scale="1.000000 1.000000 1.000000"
				           rotation="0.000000 0.000000 0.000000 0.000000"
				           >
					<Group DEF="group_ME_ID13_003">
						<Shape>
							<Appearance>
							</Appearance>
							<IndexedFaceSet solid="false"
							                coordIndex="0 1 2 -1 1 0 3 -1 3 0 4 -1 4 0 5 -1 6 7 8 -1 7 6 9 -1 10 11 12 -1 11 10 13 -1 14 15 16 -1 15 14 17 -1 18 19 20 -1 19 18 21 -1 21 18 22 -1 22 18 23 -1 23 18 24 -1 20 25 26 -1 25 20 19 -1 27 28 29 -1 28 27 30 -1 31 32 33 -1 34 35 36 -1 35 34 37 -1 35 37 38 -1 38 37 32 -1 38 32 31 -1 39 40 41 -1 40 42 43 -1 42 40 44 -1 44 40 39 -1 45 46 47 -1 46 45 48 -1 46 48 49 -1 47 50 51 -1 50 47 46 -1 51 50 52 -1 53 54 55 -1 54 53 56 -1 57 58 59 -1 58 57 60 -1 58 60 61 -1 59 62 63 -1 62 59 58 -1 63 62 64 -1 65 66 67 -1 66 65 68 -1 66 68 69 -1 66 69 70 -1 71 72 73 -1 72 71 74 -1 75 76 77 -1 76 75 78 -1 79 80 81 -1 80 79 82 -1 80 82 78 -1 78 82 76 -1 83 84 85 -1 84 83 86 -1 87 88 89 -1 88 87 90 -1 88 90 91 -1 91 90 92 -1 92 90 93 -1 94 89 88 -1 95 96 97 -1 96 95 98 -1 99 100 101 -1 100 99 102 -1 103 104 105 -1 104 103 106 -1 107 68 65 -1 68 107 108 -1 68 108 109 -1 68 109 69 -1 110 111 112 -1 111 110 113 -1 113 110 114 -1 114 110 115 -1 116 117 118 -1 117 116 119 -1 120 121 122 -1 121 123 124 -1 123 121 125 -1 125 121 120 -1 126 127 128 -1 127 126 129 -1 130 131 132 -1 131 130 133 -1 97 134 135 -1 134 97 96 -1 105 136 137 -1 136 105 104 -1 138 108 107 -1 108 138 139 -1 108 139 109 -1 140 141 142 -1 141 140 143 -1 129 144 127 -1 144 129 145 -1 135 146 147 -1 146 135 134 -1 137 148 149 -1 148 137 136 -1 150 151 152 -1 151 150 153 -1 145 154 144 -1 154 145 155 -1 "
							                >
								<Coordinate DEF="coords_ME_ID13_003"
								            point="6.299213 5.511811 3.937008 5.708661 5.511811 2.362205 6.299213 5.511811 2.362205 5.708661 5.511811 3.149606 5.118110 5.511811 3.149606 5.118110 5.511811 3.937008 5.708661 1.574803 3.149606 5.118110 5.511811 3.149606 5.118110 1.574803 3.149606 5.708661 5.511811 3.149606 5.708661 5.511811 2.362205 5.708661 1.574803 3.149606 5.708661 1.574803 2.362205 5.708661 5.511811 3.149606 6.299213 1.574803 2.362205 5.708661 5.511811 2.362205 5.708661 1.574803 2.362205 6.299213 5.511811 2.362205 6.299213 6.299213 1.574803 6.299213 1.574803 2.362205 6.299213 0.000000 1.574803 6.299213 5.511811 2.362205 6.299213 5.511811 3.937008 6.299213 7.086615 3.937008 6.299213 7.086615 1.574803 6.299213 1.574803 3.937008 6.299213 0.000000 3.937008 6.299213 5.511811 3.937008 5.118110 7.086615 3.937008 5.118110 5.511811 3.937008 6.299213 7.086615 3.937008 5.118110 7.086615 3.937008 5.118110 5.511811 3.149606 5.118110 5.511811 3.937008 5.118110 1.574803 3.937008 5.118110 0.000000 2.362205 5.118110 0.000000 3.937008 5.118110 1.574803 3.149606 5.118110 7.086615 2.362205 5.118110 1.574803 3.937008 5.708661 1.574803 3.149606 5.118110 1.574803 3.149606 6.299213 1.574803 2.362205 5.708661 1.574803 2.362205 6.299213 1.574803 3.937008 0.000000 7.086615 1.574803 1.181102 7.086615 2.362205 6.299213 7.086615 1.574803 0.000000 7.086615 3.937008 1.181102 7.086615 3.937008 5.118110 7.086615 2.362205 6.299213 7.086615 3.937008 5.118110 7.086615 3.937008 6.299213 0.000000 3.937008 5.118110 1.574803 3.937008 5.118110 0.000000 3.937008 6.299213 1.574803 3.937008 6.299213 0.000000 1.574803 5.118110 0.000000 2.362205 0.000000 0.000000 1.574803 6.299213 0.000000 3.937008 5.118110 0.000000 3.937008 1.181102 0.000000 2.362205 0.000000 0.000000 3.937008 1.181102 0.000000 3.937008 5.884369 0.414843 1.135672 6.299213 6.299213 1.574803 6.299213 0.000000 1.574803 5.884369 6.299213 1.135672 5.884369 6.671771 1.135672 6.299213 7.086615 1.574803 5.118110 0.000000 2.362205 1.181102 7.086615 2.362205 1.181102 0.000000 2.362205 5.118110 7.086615 2.362205 0.000000 7.086615 3.937008 0.000000 5.511811 2.362205 0.000000 5.511811 3.937008 0.000000 7.086615 1.574803 0.000000 1.574803 3.937008 0.000000 0.000000 1.574803 0.000000 0.000000 3.937008 0.000000 1.574803 2.362205 1.181102 5.511811 3.937008 0.000000 7.086615 3.937008 0.000000 5.511811 3.937008 1.181102 7.086615 3.937008 1.181102 0.000000 2.362205 1.181102 1.574803 3.149606 1.181102 0.000000 3.937008 1.181102 7.086615 2.362205 1.181102 5.511811 3.149606 1.181102 5.511811 3.937008 1.181102 7.086615 3.937008 1.181102 1.574803 3.937008 0.000000 7.086615 1.574803 5.884369 6.671771 1.135672 0.414843 6.671771 1.135672 6.299213 7.086615 1.574803 1.181102 0.000000 3.937008 0.000000 1.574803 3.937008 0.000000 0.000000 3.937008 1.181102 1.574803 3.937008 6.299213 0.000000 1.574803 0.414843 0.414843 1.135672 5.884369 0.414843 1.135672 0.000000 0.000000 1.574803 5.614210 0.685003 0.595353 5.614210 6.299213 0.595353 5.614210 6.401612 0.595353 0.000000 1.574803 3.937008 0.590551 1.574803 2.362205 0.000000 1.574803 2.362205 0.590551 1.574803 3.149606 1.181102 1.574803 3.149606 1.181102 1.574803 3.937008 0.590551 1.574803 2.362205 0.000000 5.511811 2.362205 0.000000 1.574803 2.362205 0.590551 5.511811 2.362205 1.181102 5.511811 3.937008 0.590551 5.511811 3.149606 1.181102 5.511811 3.149606 0.000000 5.511811 2.362205 0.590551 5.511811 2.362205 0.000000 5.511811 3.937008 0.000000 7.086615 1.574803 0.414843 0.414843 1.135672 0.000000 0.000000 1.574803 0.414843 6.671771 1.135672 1.181102 1.574803 3.149606 0.590551 5.511811 3.149606 0.590551 1.574803 3.149606 1.181102 5.511811 3.149606 5.614210 6.401612 0.595353 0.685003 6.401612 0.595353 0.685003 0.685003 0.595353 5.614210 0.685003 0.595353 5.511811 0.787402 0.000000 5.511811 6.299213 0.000000 0.590551 5.511811 3.149606 0.590551 1.574803 2.362205 0.590551 1.574803 3.149606 0.590551 5.511811 2.362205 0.685003 0.685003 0.595353 0.685003 6.401612 0.595353 5.511811 6.299213 0.000000 0.787402 6.299213 0.000000 0.787402 0.787402 0.000000 5.511811 0.787402 0.000000 5.511811 6.299213 0.000000 0.787402 0.787402 0.000000 0.787402 6.299213 0.000000 5.511811 0.787402 0.000000 0.787402 0.787402 0.000000 0.787402 6.299213 0.000000 "
								            />
							</IndexedFaceSet>
						</Shape>
					</Group>
				</Transform>
			</Transform>
			<Transform DEF="instance_1_TRANSFORM"
			           translation="1.574803 0.000000 6.299213"
			           scale="1.000000 1.000000 1.000000"
			           rotation="0.000000 1.000000 0.000000 1.570796"
			           >
				<Transform DEF="instance_1_ifs_TRANSFORM"
				           translation="0.000000 0.000000 0.000000"
				           scale="1.000000 1.000000 1.000000"
				           rotation="0.000000 -0.000000 0.000000 0.000000"
				           >
					<Group USE="group_ME_ID13_003" />
				</Transform>
			</Transform>
			<Transform DEF="instance_2_TRANSFORM"
			           translation="0.393701 0.000000 10.492126"
			           scale="1.000000 1.000000 1.000000"
			           rotation="0.000000 1.000000 0.000000 0.000000"
			           >
				<Transform DEF="instance_2_ifs_TRANSFORM"
				           translation="0.000000 0.000000 0.000001"
				           scale="1.000000 1.000000 1.000000"
				           rotation="0.000000 1.000000 0.000000 0.000000"
				           >
					<Group USE="group_ME_ID13_003" />
				</Transform>
			</Transform>
		</Transform>
	</Scene>
</X3D>