<?xml version="1.0" encoding="UTF-8"?>
<!DOCTYPE X3D PUBLIC "ISO//Web3D//DTD X3D 3.0//EN" "http://www.web3d.org/specifications/x3d-3.0.dtd">
<X3D version="3.0" profile="Immersive" xmlns:xsd="http://www.w3.org/2001/XMLSchema-instance" xsd:noNamespaceSchemaLocation="http://www.web3d.org/specifications/x3d-3.0.xsd">
	<head>
		<meta name="filename" content="03-2-3 交互枓 屋內梁栿下者 交栿枓.x3d" />
		<meta name="created" content="2025-12-28 15:38:45" />
		<meta name="generator" content="Blender 4.2.2 LTS" />
		<meta name="translator" content="Web3D X3D/VRML2 format v2.5.1" />
	</head>
	<Scene>
		<NavigationInfo headlight="true"
		                visibilityLimit="0.0"
		                type='"EXAMINE", "ANY"'
		                avatarSize="0.25, 1.75, 0.75"
		                />
		<Background DEF="WO_World"
		            groundColor="0.051 0.051 0.051"
		            skyColor="0.051 0.051 0.051"
		            />
		<Transform DEF="SketchUp_TRANSFORM"
		           translation="0.000000 0.000000 0.000000"
		           scale="0.025400 0.025400 0.025400"
		           rotation="-1.000000 0.000000 0.000000 1.570796"
		           >
			<Transform DEF="group_0_TRANSFORM"
			           translation="0.000000 0.000000 0.000000"
			           scale="1.000000 1.000000 1.000000"
			           rotation="0.000000 1.000000 0.000000 0.000000"
			           >
				<Transform DEF="group_0_ifs_TRANSFORM"
				           translation="0.000000 0.000000 0.000000"
				           scale="1.000000 1.000000 1.000000"
				           rotation="0.000000 1.000000 0.000000 0.000000"
				           >
					<Group DEF="group_ME_ID3_005">
						<Shape>
							<Appearance>
								<Material DEF="MA_material_018"
								          diffuseColor="1.000 1.000 1.000"
								          specularColor="0.401 0.401 0.401"
								          emissiveColor="0.000 0.000 0.000"
								          ambientIntensity="0.000"
								          shininess="0.500"
								          transparency="0.000"
								          />
							</Appearance>
							<IndexedFaceSet solid="false"
							                coordIndex="0 1 2 -1 1 0 3 -1 4 5 6 -1 5 4 7 -1 7 4 8 -1 8 4 9 -1 10 3 0 -1 3 10 11 -1 12 13 14 -1 13 12 15 -1 2 16 17 -1 16 2 1 -1 18 19 20 -1 19 18 21 -1 6 22 23 -1 22 6 7 -1 7 6 5 -1 24 9 4 -1 9 24 8 -1 8 24 25 -1 25 24 26 -1 27 28 29 -1 28 27 30 -1 14 31 32 -1 31 14 13 -1 33 15 12 -1 15 33 34 -1 35 36 37 -1 36 35 38 -1 21 39 19 -1 39 21 40 -1 41 20 42 -1 20 41 18 -1 43 44 45 -1 44 43 46 -1 44 46 47 -1 46 43 48 -1 47 49 50 -1 49 47 46 -1 50 49 51 -1 52 53 54 -1 53 52 55 -1 53 55 56 -1 54 57 58 -1 57 54 53 -1 58 57 59 -1 60 61 62 -1 61 60 63 -1 64 65 66 -1 65 64 67 -1 68 69 70 -1 69 68 71 -1 72 73 74 -1 73 72 75 -1 76 77 78 -1 77 76 79 -1 80 81 82 -1 81 80 83 -1 "
							                >
								<Coordinate DEF="coords_ME_ID3_005"
								            point="8.763817 0.685003 0.595353 9.033977 6.671771 1.135672 9.033977 0.414843 1.135672 8.763817 6.401612 0.595353 9.033977 0.414843 1.135672 8.661417 0.685003 0.595353 8.763817 0.685003 0.595353 0.685003 0.685003 0.595353 0.414843 0.414843 1.135672 8.661417 0.414843 1.135672 8.661417 0.787402 0.000000 8.661417 6.299213 0.000000 0.414843 6.671771 1.135672 8.763817 6.401612 0.595353 0.685003 6.401612 0.595353 9.033977 6.671771 1.135672 9.448818 7.086615 1.574803 9.448818 0.000000 1.574803 0.414843 6.671771 1.135672 0.685003 0.685003 0.595353 0.414843 0.414843 1.135672 0.685003 6.401612 0.595353 0.787402 0.787402 0.000000 8.661417 0.787402 0.000000 9.448818 0.000000 1.574803 0.000000 0.000000 1.574803 8.661417 0.000000 1.574803 8.661417 6.299213 0.000000 0.787402 0.787402 0.000000 0.787402 6.299213 0.000000 8.661417 0.787402 0.000000 8.661417 6.299213 0.000000 0.787402 6.299213 0.000000 0.000000 7.086615 1.574803 9.448818 7.086615 1.574803 9.448818 7.086615 1.574803 9.448818 0.000000 4.921260 9.448818 0.000000 1.574803 9.448818 7.086615 4.921260 0.787402 0.787402 0.000000 0.787402 6.299213 0.000000 0.000000 7.086615 1.574803 0.000000 0.000000 1.574803 9.448818 0.000000 4.921260 8.661417 0.000000 1.574803 9.448818 0.000000 1.574803 7.874016 0.000000 2.362205 0.000000 0.000000 1.574803 7.874016 0.000000 4.921260 1.574803 0.000000 2.362205 0.000000 0.000000 4.921260 1.574803 0.000000 4.921260 0.000000 7.086615 1.574803 1.574803 7.086615 2.362205 9.448818 7.086615 1.574803 0.000000 7.086615 4.921260 1.574803 7.086615 4.921260 7.874016 7.086615 2.362205 9.448818 7.086615 4.921260 7.874016 7.086615 4.921260 9.448818 0.000000 4.921260 7.874016 7.086615 4.921260 7.874016 0.000000 4.921260 9.448818 7.086615 4.921260 0.000000 7.086615 4.921260 0.000000 0.000000 1.574803 0.000000 0.000000 4.921260 0.000000 7.086615 1.574803 7.874016 7.086615 4.921260 7.874016 0.000000 2.362205 7.874016 0.000000 4.921260 7.874016 7.086615 2.362205 7.874016 0.000000 2.362205 1.574803 7.086615 2.362205 1.574803 0.000000 2.362205 7.874016 7.086615 2.362205 1.574803 7.086615 2.362205 1.574803 0.000000 4.921260 1.574803 0.000000 2.362205 1.574803 7.086615 4.921260 1.574803 0.000000 4.921260 0.000000 7.086615 4.921260 0.000000 0.000000 4.921260 1.574803 7.086615 4.921260 "
								            />
							</IndexedFaceSet>
						</Shape>
					</Group>
				</Transform>
			</Transform>
			<Transform DEF="group_1_TRANSFORM"
			           translation="19.685040 -1.181102 0.000000"
			           scale="1.000000 1.000000 1.000000"
			           rotation="0.000000 0.000000 1.000000 1.570796"
			           >
				<Transform DEF="group_1_ifs_TRANSFORM"
				           translation="-0.000000 -0.000000 0.000000"
				           scale="1.000000 1.000000 1.000000"
				           rotation="0.000000 0.000000 -0.000000 0.000000"
				           >
					<Group DEF="group_ME_ID12_008">
						<Shape>
							<Appearance>
								<Material USE="MA_material_018" />
							</Appearance>
							<IndexedFaceSet solid="false"
							                coordIndex="0 1 2 -1 1 0 3 -1 4 5 6 -1 5 4 7 -1 7 4 8 -1 8 4 9 -1 10 3 0 -1 3 10 11 -1 12 13 14 -1 13 12 15 -1 2 16 17 -1 16 2 1 -1 18 19 20 -1 19 18 21 -1 6 22 23 -1 22 6 7 -1 7 6 5 -1 24 9 4 -1 9 24 8 -1 8 24 25 -1 25 24 26 -1 27 28 29 -1 28 27 30 -1 14 31 32 -1 31 14 13 -1 33 15 12 -1 15 33 34 -1 35 36 37 -1 36 35 38 -1 21 39 19 -1 39 21 40 -1 41 20 42 -1 20 41 18 -1 43 44 45 -1 44 43 46 -1 44 46 47 -1 46 43 48 -1 47 49 50 -1 49 47 46 -1 50 49 51 -1 52 53 54 -1 53 52 55 -1 53 55 56 -1 54 57 58 -1 57 54 53 -1 58 57 59 -1 60 61 62 -1 61 60 63 -1 64 65 66 -1 65 64 67 -1 68 69 70 -1 69 68 71 -1 72 73 74 -1 73 72 75 -1 76 77 78 -1 77 76 79 -1 80 81 82 -1 81 80 83 -1 "
							                >
								<Coordinate DEF="coords_ME_ID12_008"
								            point="8.763817 0.685003 0.595353 9.033977 6.671771 1.135672 9.033977 0.414843 1.135672 8.763817 6.401612 0.595353 9.033977 0.414843 1.135672 8.661417 0.685003 0.595353 8.763817 0.685003 0.595353 0.685003 0.685003 0.595353 0.414843 0.414843 1.135672 8.661417 0.414843 1.135672 8.661417 0.787402 0.000000 8.661417 6.299213 0.000000 0.414843 6.671771 1.135672 8.763817 6.401612 0.595353 0.685003 6.401612 0.595353 9.033977 6.671771 1.135672 9.448818 7.086615 1.574803 9.448818 0.000000 1.574803 0.414843 6.671771 1.135672 0.685003 0.685003 0.595353 0.414843 0.414843 1.135672 0.685003 6.401612 0.595353 0.787402 0.787402 0.000000 8.661417 0.787402 0.000000 9.448818 0.000000 1.574803 0.000000 0.000000 1.574803 8.661417 0.000000 1.574803 8.661417 6.299213 0.000000 0.787402 0.787402 0.000000 0.787402 6.299213 0.000000 8.661417 0.787402 0.000000 8.661417 6.299213 0.000000 0.787402 6.299213 0.000000 0.000000 7.086615 1.574803 9.448818 7.086615 1.574803 9.448818 7.086615 1.574803 9.448818 0.000000 4.921260 9.448818 0.000000 1.574803 9.448818 7.086615 4.921260 0.787402 0.787402 0.000000 0.787402 6.299213 0.000000 0.000000 7.086615 1.574803 0.000000 0.000000 1.574803 9.448818 0.000000 4.921260 8.661417 0.000000 1.574803 9.448818 0.000000 1.574803 7.874016 0.000000 2.362205 0.000000 0.000000 1.574803 7.874016 0.000000 4.921260 1.574803 0.000000 2.362205 0.000000 0.000000 4.921260 1.574803 0.000000 4.921260 0.000000 7.086615 1.574803 1.574803 7.086615 2.362205 9.448818 7.086615 1.574803 0.000000 7.086615 4.921260 1.574803 7.086615 4.921260 7.874016 7.086615 2.362205 9.448818 7.086615 4.921260 7.874016 7.086615 4.921260 9.448818 0.000000 4.921260 7.874016 7.086615 4.921260 7.874016 0.000000 4.921260 9.448818 7.086615 4.921260 0.000000 7.086615 4.921260 0.000000 0.000000 1.574803 0.000000 0.000000 4.921260 0.000000 7.086615 1.574803 7.874016 7.086615 4.921260 7.874016 0.000000 2.362205 7.874016 0.000000 4.921260 7.874016 7.086615 2.362205 7.874016 0.000000 2.362205 1.574803 7.086615 2.362205 1.574803 0.000000 2.362205 7.874016 7.086615 2.362205 1.574803 7.086615 2.362205 1.574803 0.000000 4.921260 1.574803 0.000000 2.362205 1.574803 7.086615 4.921260 1.574803 0.000000 4.921260 0.000000 7.086615 4.921260 0.000000 0.000000 4.921260 1.574803 7.086615 4.921260 "
								            />
							</IndexedFaceSet>
						</Shape>
					</Group>
				</Transform>
			</Transform>
		</Transform>
	</Scene>
</X3D>