<?xml version="1.0" encoding="UTF-8"?>
<!DOCTYPE X3D PUBLIC "ISO//Web3D//DTD X3D 3.0//EN" "http://www.web3d.org/specifications/x3d-3.0.dtd">
<X3D version="3.0" profile="Immersive" xmlns:xsd="http://www.w3.org/2001/XMLSchema-instance" xsd:noNamespaceSchemaLocation="http://www.web3d.org/specifications/x3d-3.0.xsd">
	<head>
		<meta name="filename" content="03-3-1 齊心枓.x3d" />
		<meta name="created" content="2025-12-28 15:39:39" />
		<meta name="generator" content="Blender 4.2.2 LTS" />
		<meta name="translator" content="Web3D X3D/VRML2 format v2.5.1" />
	</head>
	<Scene>
		<NavigationInfo headlight="true"
		                visibilityLimit="0.0"
		                type='"EXAMINE", "ANY"'
		                avatarSize="0.25, 1.75, 0.75"
		                />
		<Background DEF="WO_World"
		            groundColor="0.051 0.051 0.051"
		            skyColor="0.051 0.051 0.051"
		            />
		<Transform DEF="SketchUp_TRANSFORM"
		           translation="0.000000 0.000000 0.000000"
		           scale="0.025400 0.025400 0.025400"
		           rotation="-1.000000 0.000000 0.000000 1.570796"
		           >
			<Transform DEF="instance_0_TRANSFORM"
			           translation="12.287402 0.000000 9.968504"
			           scale="1.000000 1.000000 1.000000"
			           rotation="0.000000 1.000000 0.000000 0.000000"
			           >
				<Transform DEF="instance_0_ifs_TRANSFORM"
				           translation="0.000000 0.000000 0.000001"
				           scale="1.000000 1.000000 1.000000"
				           rotation="0.000000 1.000000 0.000000 0.000000"
				           >
					<Group DEF="group_ME_ID4_013">
						<Shape>
							<Appearance>
							</Appearance>
							<IndexedFaceSet solid="false"
							                coordIndex="0 1 2 -1 1 0 3 -1 4 5 6 -1 7 8 9 -1 8 7 10 -1 8 10 11 -1 11 10 5 -1 11 5 4 -1 12 13 14 -1 13 12 15 -1 16 17 18 -1 17 16 19 -1 19 16 20 -1 20 16 21 -1 18 22 23 -1 22 18 17 -1 24 25 26 -1 25 27 28 -1 27 25 24 -1 29 30 31 -1 30 29 32 -1 33 34 35 -1 34 33 36 -1 37 38 39 -1 38 37 40 -1 41 42 43 -1 42 41 44 -1 45 46 47 -1 46 45 48 -1 49 50 51 -1 50 49 52 -1 53 54 55 -1 54 56 57 -1 56 54 53 -1 56 53 58 -1 59 60 61 -1 60 59 62 -1 48 63 46 -1 63 48 64 -1 65 52 49 -1 52 65 66 -1 55 67 68 -1 67 57 69 -1 57 67 55 -1 57 55 54 -1 61 70 71 -1 70 61 60 -1 64 72 63 -1 72 64 73 -1 74 66 65 -1 66 74 75 -1 68 76 77 -1 76 68 69 -1 69 68 67 -1 71 78 79 -1 78 71 70 -1 80 81 82 -1 81 80 83 -1 "
							                >
								<Coordinate DEF="coords_ME_ID4_013"
								            point="6.299213 5.118110 3.937008 0.000000 6.299213 3.937008 0.000000 5.118110 3.937008 6.299213 6.299213 3.937008 0.000000 6.299213 3.937008 0.000000 5.118110 2.362205 0.000000 5.118110 3.937008 0.000000 1.181102 3.937008 0.000000 0.000000 1.574803 0.000000 0.000000 3.937008 0.000000 1.181102 2.362205 0.000000 6.299213 1.574803 6.299213 5.118110 3.937008 0.000000 5.118110 2.362205 6.299213 5.118110 2.362205 0.000000 5.118110 3.937008 6.299213 6.299213 1.574803 6.299213 1.181102 2.362205 6.299213 0.000000 1.574803 6.299213 5.118110 2.362205 6.299213 5.118110 3.937008 6.299213 6.299213 3.937008 6.299213 1.181102 3.937008 6.299213 0.000000 3.937008 0.000000 6.299213 3.937008 0.787402 6.299213 1.574803 0.000000 6.299213 1.574803 6.299213 6.299213 3.937008 6.299213 6.299213 1.574803 6.299213 0.000000 3.937008 0.000000 0.000000 1.574803 6.299213 0.000000 1.574803 0.000000 0.000000 3.937008 6.299213 0.000000 3.937008 0.000000 1.181102 3.937008 0.000000 0.000000 3.937008 6.299213 1.181102 3.937008 0.000000 1.181102 3.937008 6.299213 1.181102 2.362205 0.000000 1.181102 2.362205 6.299213 1.181102 3.937008 6.299213 1.181102 2.362205 0.000000 5.118110 2.362205 0.000000 1.181102 2.362205 6.299213 5.118110 2.362205 0.000000 6.299213 1.574803 0.414843 0.414843 1.135672 0.000000 0.000000 1.574803 0.414843 5.884369 1.135672 5.884369 0.414843 1.135672 6.299213 6.299213 1.574803 6.299213 0.000000 1.574803 5.884369 5.884369 1.135672 0.000000 6.299213 1.574803 0.787402 5.884369 1.135672 0.414843 5.884369 1.135672 6.299213 6.299213 1.574803 5.884369 5.884369 1.135672 0.787402 6.299213 1.574803 6.299213 0.000000 1.574803 0.414843 0.414843 1.135672 5.884369 0.414843 1.135672 0.000000 0.000000 1.574803 0.685003 0.685003 0.595353 0.685003 5.614210 0.595353 5.614210 0.685003 0.595353 5.614210 5.614210 0.595353 0.787402 5.614210 0.595353 0.685003 5.614210 0.595353 5.614210 5.614210 0.595353 0.685003 0.685003 0.595353 5.614210 0.685003 0.595353 0.787402 0.787402 0.000000 0.787402 5.511811 0.000000 5.511811 0.787402 0.000000 5.511811 5.511811 0.000000 5.511811 5.511811 0.000000 0.787402 5.511811 0.000000 0.787402 0.787402 0.000000 5.511811 0.787402 0.000000 5.511811 5.511811 0.000000 0.787402 0.787402 0.000000 0.787402 5.511811 0.000000 5.511811 0.787402 0.000000 "
								            />
							</IndexedFaceSet>
						</Shape>
					</Group>
				</Transform>
			</Transform>
			<Transform DEF="instance_1_TRANSFORM"
			           translation="0.000000 6.299213 9.968504"
			           scale="1.000000 1.000000 1.000000"
			           rotation="0.000000 0.000000 -1.000000 1.570796"
			           >
				<Transform DEF="instance_1_ifs_TRANSFORM"
				           translation="0.000000 -0.000000 0.000001"
				           scale="1.000000 1.000000 1.000000"
				           rotation="0.000000 0.000000 0.000000 0.000000"
				           >
					<Group USE="group_ME_ID4_013" />
				</Transform>
			</Transform>
			<Transform DEF="instance_2_TRANSFORM"
			           translation="12.287402 1.181102 6.299213"
			           scale="1.000000 1.000000 1.000000"
			           rotation="-1.000000 0.000000 0.000000 1.570796"
			           >
				<Transform DEF="instance_2_ifs_TRANSFORM"
				           translation="0.000000 0.000000 0.000000"
				           scale="1.000000 1.000000 1.000000"
				           rotation="0.000000 0.000000 0.000000 0.000000"
				           >
					<Group USE="group_ME_ID4_013" />
				</Transform>
			</Transform>
		</Transform>
	</Scene>
</X3D>