<?xml version="1.0" encoding="UTF-8"?>
<!DOCTYPE X3D PUBLIC "ISO//Web3D//DTD X3D 3.0//EN" "http://www.web3d.org/specifications/x3d-3.0.dtd">
<X3D version="3.0" profile="Immersive" xmlns:xsd="http://www.w3.org/2001/XMLSchema-instance" xsd:noNamespaceSchemaLocation="http://www.web3d.org/specifications/x3d-3.0.xsd">
	<head>
		<meta name="filename" content="03-3-2 齊心枓 平坐出頭木用 平盤枓.x3d" />
		<meta name="created" content="2025-12-28 15:40:02" />
		<meta name="generator" content="Blender 4.2.2 LTS" />
		<meta name="translator" content="Web3D X3D/VRML2 format v2.5.1" />
	</head>
	<Scene>
		<NavigationInfo headlight="true"
		                visibilityLimit="0.0"
		                type='"EXAMINE", "ANY"'
		                avatarSize="0.25, 1.75, 0.75"
		                />
		<Background DEF="WO_World"
		            groundColor="0.051 0.051 0.051"
		            skyColor="0.051 0.051 0.051"
		            />
		<Transform DEF="SketchUp_TRANSFORM"
		           translation="0.000000 0.000000 0.000000"
		           scale="0.025400 0.025400 0.025400"
		           rotation="-1.000000 0.000000 0.000000 1.570796"
		           >
			<Transform DEF="instance_0_TRANSFORM"
			           translation="6.299213 -0.000000 7.318898"
			           scale="1.000000 1.000000 1.000000"
			           rotation="0.000000 0.000000 1.000000 1.570796"
			           >
				<Transform DEF="instance_0_ifs_TRANSFORM"
				           translation="-0.000000 0.000000 0.000000"
				           scale="1.000000 1.000000 1.000000"
				           rotation="0.000000 0.000000 -0.000000 0.000000"
				           >
					<Group DEF="group_ME_ID4_014">
						<Shape>
							<Appearance>
							</Appearance>
							<IndexedFaceSet solid="false"
							                coordIndex="0 1 2 -1 1 0 3 -1 4 5 6 -1 7 8 9 -1 8 7 10 -1 8 10 11 -1 11 10 5 -1 11 5 4 -1 12 13 14 -1 13 12 15 -1 15 12 16 -1 16 12 17 -1 18 19 20 -1 19 18 21 -1 19 21 22 -1 22 21 23 -1 23 21 24 -1 24 21 25 -1 26 20 19 -1 27 28 29 -1 28 27 30 -1 28 30 31 -1 29 32 33 -1 32 29 28 -1 33 32 34 -1 35 36 37 -1 36 35 38 -1 39 40 41 -1 40 39 42 -1 40 42 43 -1 41 44 45 -1 44 41 40 -1 45 44 46 -1 47 48 49 -1 48 47 50 -1 51 52 53 -1 52 54 55 -1 54 52 56 -1 56 52 51 -1 57 58 59 -1 58 57 60 -1 61 62 63 -1 62 61 64 -1 65 66 67 -1 66 65 68 -1 69 70 71 -1 70 69 72 -1 70 72 73 -1 70 73 74 -1 75 76 77 -1 78 79 80 -1 79 78 81 -1 79 81 82 -1 82 81 76 -1 82 76 75 -1 83 84 85 -1 84 83 86 -1 87 88 89 -1 88 87 90 -1 88 90 91 -1 91 90 92 -1 92 90 93 -1 94 89 88 -1 95 96 97 -1 96 95 98 -1 99 100 101 -1 100 99 102 -1 103 104 105 -1 104 103 106 -1 107 72 69 -1 72 107 108 -1 72 108 109 -1 72 109 73 -1 110 111 112 -1 111 110 113 -1 113 110 114 -1 114 110 115 -1 116 117 118 -1 117 116 119 -1 120 121 122 -1 121 123 124 -1 123 121 125 -1 125 121 120 -1 126 127 128 -1 127 126 129 -1 130 131 132 -1 131 130 133 -1 97 134 135 -1 134 97 96 -1 105 136 137 -1 136 105 104 -1 138 108 107 -1 108 138 139 -1 108 139 109 -1 140 141 142 -1 141 140 143 -1 129 144 127 -1 144 129 145 -1 135 146 147 -1 146 135 134 -1 137 148 149 -1 148 137 136 -1 150 151 152 -1 151 150 153 -1 145 154 144 -1 154 145 155 -1 "
							                >
								<Coordinate DEF="coords_ME_ID4_014"
								            point="5.118110 5.118110 3.937008 6.299213 6.299213 3.937008 5.118110 6.299213 3.937008 6.299213 5.118110 3.937008 5.118110 6.299213 3.937008 5.118110 5.118110 3.149606 5.118110 5.118110 3.937008 5.118110 1.181102 3.937008 5.118110 0.000000 2.362205 5.118110 0.000000 3.937008 5.118110 1.181102 3.149606 5.118110 6.299213 2.362205 6.299213 5.118110 3.937008 5.708661 5.118110 2.362205 6.299213 5.118110 2.362205 5.708661 5.118110 3.149606 5.118110 5.118110 3.149606 5.118110 5.118110 3.937008 6.299213 0.000000 1.574803 6.299213 1.181102 2.362205 6.299213 0.000000 3.937008 6.299213 5.511811 1.574803 6.299213 5.118110 2.362205 6.299213 5.118110 3.937008 6.299213 6.299213 3.937008 6.299213 6.299213 1.574803 6.299213 1.181102 3.937008 0.000000 6.299213 1.574803 1.181102 6.299213 2.362205 6.299213 6.299213 1.574803 0.000000 6.299213 3.937008 1.181102 6.299213 3.937008 5.118110 6.299213 2.362205 6.299213 6.299213 3.937008 5.118110 6.299213 3.937008 1.181102 0.000000 2.362205 5.118110 6.299213 2.362205 1.181102 6.299213 2.362205 5.118110 0.000000 2.362205 6.299213 0.000000 1.574803 5.118110 0.000000 2.362205 0.000000 0.000000 1.574803 6.299213 0.000000 3.937008 5.118110 0.000000 3.937008 1.181102 0.000000 2.362205 0.000000 0.000000 3.937008 1.181102 0.000000 3.937008 5.118110 0.000000 3.937008 6.299213 1.181102 3.937008 5.118110 1.181102 3.937008 6.299213 0.000000 3.937008 5.118110 1.181102 3.937008 5.708661 1.181102 3.149606 5.118110 1.181102 3.149606 6.299213 1.181102 2.362205 5.708661 1.181102 2.362205 6.299213 1.181102 3.937008 5.118110 1.181102 3.149606 5.708661 5.118110 3.149606 5.118110 5.118110 3.149606 5.708661 1.181102 3.149606 5.708661 5.118110 2.362205 5.708661 1.181102 3.149606 5.708661 1.181102 2.362205 5.708661 5.118110 3.149606 5.708661 1.181102 2.362205 6.299213 5.118110 2.362205 5.708661 5.118110 2.362205 6.299213 1.181102 2.362205 5.884369 0.414843 1.135672 6.299213 5.511811 1.574803 6.299213 0.000000 1.574803 5.884369 5.511811 1.135672 5.884369 5.884369 1.135672 6.299213 6.299213 1.574803 0.000000 6.299213 3.937008 0.000000 5.118110 2.362205 0.000000 5.118110 3.937008 0.000000 1.181102 3.937008 0.000000 0.000000 1.574803 0.000000 0.000000 3.937008 0.000000 1.181102 2.362205 0.000000 6.299213 1.574803 0.000000 5.118110 3.937008 1.181102 6.299213 3.937008 0.000000 6.299213 3.937008 1.181102 5.118110 3.937008 1.181102 0.000000 2.362205 1.181102 1.181102 3.149606 1.181102 0.000000 3.937008 1.181102 6.299213 2.362205 1.181102 5.118110 3.149606 1.181102 5.118110 3.937008 1.181102 6.299213 3.937008 1.181102 1.181102 3.937008 0.000000 6.299213 1.574803 5.884369 5.884369 1.135672 0.414843 5.884369 1.135672 6.299213 6.299213 1.574803 0.000000 0.000000 3.937008 1.181102 1.181102 3.937008 0.000000 1.181102 3.937008 1.181102 0.000000 3.937008 6.299213 0.000000 1.574803 0.414843 0.414843 1.135672 5.884369 0.414843 1.135672 0.000000 0.000000 1.574803 5.614210 0.685003 0.595353 5.614210 5.511811 0.595353 5.614210 5.614210 0.595353 0.000000 1.181102 3.937008 0.590551 1.181102 2.362205 0.000000 1.181102 2.362205 0.590551 1.181102 3.149606 1.181102 1.181102 3.149606 1.181102 1.181102 3.937008 0.000000 1.181102 2.362205 0.590551 5.118110 2.362205 0.000000 5.118110 2.362205 0.590551 1.181102 2.362205 1.181102 5.118110 3.937008 0.590551 5.118110 3.149606 1.181102 5.118110 3.149606 0.000000 5.118110 2.362205 0.590551 5.118110 2.362205 0.000000 5.118110 3.937008 0.000000 6.299213 1.574803 0.414843 0.414843 1.135672 0.000000 0.000000 1.574803 0.414843 5.884369 1.135672 0.590551 1.181102 3.149606 1.181102 5.118110 3.149606 0.590551 5.118110 3.149606 1.181102 1.181102 3.149606 5.614210 5.614210 0.595353 0.685003 5.614210 0.595353 0.685003 0.685003 0.595353 5.614210 0.685003 0.595353 5.511811 0.787402 0.000000 5.511811 5.511811 0.000000 0.590551 5.118110 3.149606 0.590551 1.181102 2.362205 0.590551 1.181102 3.149606 0.590551 5.118110 2.362205 0.685003 0.685003 0.595353 0.685003 5.614210 0.595353 5.511811 5.511811 0.000000 0.787402 5.511811 0.000000 0.787402 0.787402 0.000000 5.511811 0.787402 0.000000 5.511811 5.511811 0.000000 0.787402 0.787402 0.000000 0.787402 5.511811 0.000000 5.511811 0.787402 0.000000 0.787402 0.787402 0.000000 0.787402 5.511811 0.000000 "
								            />
							</IndexedFaceSet>
						</Shape>
					</Group>
				</Transform>
			</Transform>
			<Transform DEF="instance_1_TRANSFORM"
			           translation="14.555118 0.000000 7.318898"
			           scale="1.000000 1.000000 1.000000"
			           rotation="0.000000 1.000000 0.000000 0.000000"
			           >
				<Transform DEF="instance_1_ifs_TRANSFORM"
				           translation="0.000000 0.000000 0.000000"
				           scale="1.000000 1.000000 1.000000"
				           rotation="0.000000 1.000000 0.000000 0.000000"
				           >
					<Group USE="group_ME_ID4_014" />
				</Transform>
			</Transform>
			<Transform DEF="instance_2_TRANSFORM"
			           translation="0.000000 0.000000 0.000000"
			           scale="1.000000 1.000000 1.000000"
			           rotation="0.000000 1.000000 0.000000 0.000000"
			           >
				<Transform DEF="instance_2_ifs_TRANSFORM"
				           translation="0.000000 0.000000 0.000000"
				           scale="1.000000 1.000000 1.000000"
				           rotation="0.000000 1.000000 0.000000 0.000000"
				           >
					<Group DEF="group_ME_ID15">
						<Shape>
							<Appearance>
							</Appearance>
							<IndexedFaceSet solid="false"
							                coordIndex="0 1 2 -1 1 0 3 -1 4 5 6 -1 5 4 7 -1 7 4 8 -1 9 10 11 -1 10 9 12 -1 13 14 15 -1 14 13 16 -1 17 18 19 -1 18 17 20 -1 21 22 23 -1 22 21 24 -1 22 24 25 -1 22 25 26 -1 27 28 29 -1 28 27 30 -1 31 32 33 -1 32 31 34 -1 35 36 37 -1 36 35 38 -1 39 24 21 -1 24 39 40 -1 24 40 41 -1 24 41 25 -1 29 42 43 -1 42 29 28 -1 34 44 32 -1 44 34 45 -1 37 46 47 -1 46 37 36 -1 48 40 39 -1 40 48 49 -1 40 49 41 -1 43 50 51 -1 50 43 42 -1 45 52 44 -1 52 45 53 -1 47 54 55 -1 54 47 46 -1 56 57 58 -1 57 56 59 -1 "
							                >
								<Coordinate DEF="coords_ME_ID15"
								            point="0.000000 0.000000 2.362205 6.299213 6.299213 2.362205 0.000000 6.299213 2.362205 6.299213 0.000000 2.362205 6.299213 5.511811 1.574803 6.299213 0.000000 2.362205 6.299213 0.000000 1.574803 6.299213 6.299213 2.362205 6.299213 6.299213 1.574803 0.000000 6.299213 2.362205 6.299213 6.299213 1.574803 0.000000 6.299213 1.574803 6.299213 6.299213 2.362205 0.000000 6.299213 2.362205 0.000000 0.000000 1.574803 0.000000 0.000000 2.362205 0.000000 6.299213 1.574803 6.299213 0.000000 2.362205 0.000000 0.000000 1.574803 6.299213 0.000000 1.574803 0.000000 0.000000 2.362205 5.884369 0.414843 1.135672 6.299213 5.511811 1.574803 6.299213 0.000000 1.574803 5.884369 5.511811 1.135672 5.884369 5.884369 1.135672 6.299213 6.299213 1.574803 0.000000 6.299213 1.574803 5.884369 5.884369 1.135672 0.414843 5.884369 1.135672 6.299213 6.299213 1.574803 0.000000 6.299213 1.574803 0.414843 0.414843 1.135672 0.000000 0.000000 1.574803 0.414843 5.884369 1.135672 6.299213 0.000000 1.574803 0.414843 0.414843 1.135672 5.884369 0.414843 1.135672 0.000000 0.000000 1.574803 5.614210 0.685003 0.595353 5.614210 5.511811 0.595353 5.614210 5.614210 0.595353 5.614210 5.614210 0.595353 0.685003 5.614210 0.595353 0.685003 0.685003 0.595353 0.685003 5.614210 0.595353 0.685003 0.685003 0.595353 5.614210 0.685003 0.595353 5.511811 0.787402 0.000000 5.511811 5.511811 0.000000 5.511811 5.511811 0.000000 0.787402 5.511811 0.000000 0.787402 0.787402 0.000000 0.787402 5.511811 0.000000 0.787402 0.787402 0.000000 5.511811 0.787402 0.000000 5.511811 5.511811 0.000000 0.787402 0.787402 0.000000 0.787402 5.511811 0.000000 5.511811 0.787402 0.000000 "
								            />
							</IndexedFaceSet>
						</Shape>
					</Group>
				</Transform>
			</Transform>
		</Transform>
	</Scene>
</X3D>