<?xml version="1.0" encoding="UTF-8"?>
<!DOCTYPE X3D PUBLIC "ISO//Web3D//DTD X3D 3.0//EN" "http://www.web3d.org/specifications/x3d-3.0.dtd">
<X3D version="3.0" profile="Immersive" xmlns:xsd="http://www.w3.org/2001/XMLSchema-instance" xsd:noNamespaceSchemaLocation="http://www.web3d.org/specifications/x3d-3.0.xsd">
	<head>
		<meta name="filename" content="04-3 琴面昂.x3d" />
		<meta name="created" content="2025-12-28 15:42:16" />
		<meta name="generator" content="Blender 4.2.2 LTS" />
		<meta name="translator" content="Web3D X3D/VRML2 format v2.5.1" />
	</head>
	<Scene>
		<NavigationInfo headlight="true"
		                visibilityLimit="0.0"
		                type='"EXAMINE", "ANY"'
		                avatarSize="0.25, 1.75, 0.75"
		                />
		<Background DEF="WO_World"
		            groundColor="0.051 0.051 0.051"
		            skyColor="0.051 0.051 0.051"
		            />
		<Transform DEF="SketchUp_TRANSFORM"
		           translation="0.000000 0.000000 0.000000"
		           scale="0.025400 0.025400 0.025400"
		           rotation="-1.000000 0.000000 0.000000 1.570796"
		           >
			<Transform DEF="group_0_TRANSFORM"
			           translation="0.000000 0.000000 0.000000"
			           scale="1.000000 1.000000 1.000000"
			           rotation="0.000000 1.000000 0.000000 0.000000"
			           >
				<Transform DEF="group_0_ifs_TRANSFORM"
				           translation="0.000000 0.000000 0.000000"
				           scale="1.000000 1.000000 1.000000"
				           rotation="0.000000 1.000000 0.000000 0.000000"
				           >
					<Group DEF="group_ME_ID53">
					</Group>
				</Transform>
				<Transform DEF="group_1_TRANSFORM"
				           translation="63.484097 16.929134 24.228403"
				           scale="1.000000 1.000000 1.000000"
				           rotation="0.000000 1.000000 0.000000 0.000000"
				           >
					<Transform DEF="group_1_ifs_TRANSFORM"
					           translation="0.000004 0.000000 0.000002"
					           scale="1.000000 1.000000 1.000000"
					           rotation="0.000000 1.000000 0.000000 0.000000"
					           >
						<Group DEF="group_ME_ID4_017">
							<Shape>
								<Appearance>
									<Material DEF="MA_material_025"
									          diffuseColor="1.000 1.000 1.000"
									          specularColor="0.401 0.401 0.401"
									          emissiveColor="0.000 0.000 0.000"
									          ambientIntensity="0.000"
									          shininess="0.500"
									          transparency="0.000"
									          />
								</Appearance>
								<IndexedFaceSet solid="false"
								                coordIndex="0 1 2 -1 1 0 3 -1 4 5 6 -1 5 4 7 -1 6 5 8 -1 8 5 9 -1 5 7 10 -1 10 7 11 -1 9 12 8 -1 12 9 13 -1 14 15 16 -1 15 14 17 -1 18 19 20 -1 19 18 21 -1 19 21 22 -1 23 24 25 -1 26 27 28 -1 27 26 29 -1 27 29 30 -1 30 29 24 -1 30 24 23 -1 30 23 31 -1 32 33 34 -1 33 32 35 -1 36 37 38 -1 37 36 39 -1 39 36 40 -1 39 40 41 -1 42 43 44 -1 45 46 47 -1 46 45 43 -1 46 43 42 -1 46 42 48 -1 41 45 39 -1 45 41 43 -1 49 50 51 -1 50 49 52 -1 53 54 55 -1 54 53 56 -1 57 58 59 -1 58 57 60 -1 61 62 63 -1 62 61 64 -1 65 66 67 -1 66 65 68 -1 69 70 71 -1 70 69 72 -1 73 74 75 -1 74 73 76 -1 77 78 79 -1 78 77 80 -1 78 80 81 -1 82 83 84 -1 83 82 85 -1 86 87 88 -1 87 86 89 -1 90 91 92 -1 91 90 93 -1 "
								                >
									<Coordinate DEF="coords_ME_ID4_017"
									            point="16.221731 3.937008 0.000000 15.221694 0.000000 0.364063 15.221694 3.937008 0.364063 16.221731 0.000000 0.000000 23.480276 0.000000 0.000000 21.905769 0.000000 0.364063 16.221731 0.000000 0.000000 25.763739 0.000000 0.787402 15.221694 0.000000 0.364063 17.968763 0.000000 0.364063 21.905769 0.000000 2.362205 26.393661 0.000000 2.362205 15.221694 0.000000 2.362205 17.968763 0.000000 2.362205 15.221694 3.937008 2.362205 15.221694 0.000000 0.364063 15.221694 0.000000 2.362205 15.221694 3.937008 0.364063 16.221731 3.937008 0.000000 17.968763 3.937008 2.362205 17.968763 3.937008 0.000000 15.221694 3.937008 0.364063 15.221694 3.937008 2.362205 23.480276 3.937008 0.000000 21.905769 3.595145 -0.000000 21.905769 3.937008 0.000000 17.968763 3.937008 0.000000 16.221731 0.000000 0.000000 16.221731 3.937008 0.000000 17.968763 3.595145 -0.000000 23.480276 0.000000 0.000000 25.448778 1.968504 0.000000 27.732244 1.968504 0.787402 26.393661 0.000000 2.362205 25.763739 0.000000 0.787402 28.362165 1.968504 2.362205 15.221694 0.000000 2.362205 17.968763 3.937008 2.362205 15.221694 3.937008 2.362205 17.968761 3.595145 2.362205 17.968763 0.000000 2.362205 17.968763 0.445539 2.362205 26.393661 0.000000 2.362205 21.905769 0.445539 2.362205 21.905769 0.000000 2.362205 21.905769 3.595145 2.362205 26.393661 3.937008 2.362205 21.905771 3.937008 2.362205 28.362165 1.968504 2.362205 21.905769 0.000000 0.364063 21.905769 0.445539 2.362205 21.905769 0.000000 2.362205 21.905769 0.445539 0.364063 21.905769 0.445539 0.364063 17.968763 0.000000 0.364063 17.968763 0.445539 0.364063 21.905769 0.000000 0.364063 17.968763 0.445539 2.362205 17.968763 0.000000 0.364063 17.968763 0.000000 2.362205 17.968763 0.445539 0.364063 25.448778 1.968504 0.000000 25.763739 0.000000 0.787402 23.480276 0.000000 0.000000 27.732244 1.968504 0.787402 17.968763 3.937008 2.362205 17.968763 3.595145 -0.000000 17.968761 3.595145 2.362205 17.968763 3.937008 0.000000 21.905769 3.595145 2.362205 17.968763 3.595145 -0.000000 21.905769 3.595145 -0.000000 17.968761 3.595145 2.362205 21.905769 3.595145 -0.000000 21.905771 3.937008 2.362205 21.905769 3.595145 2.362205 21.905769 3.937008 0.000000 21.905769 3.937008 0.000000 25.763739 3.937008 0.787402 23.480276 3.937008 0.000000 21.905771 3.937008 2.362205 26.393661 3.937008 2.362205 25.763739 3.937008 0.787402 25.448778 1.968504 0.000000 23.480276 3.937008 0.000000 27.732244 1.968504 0.787402 25.763739 3.937008 0.787402 28.362165 1.968504 2.362205 27.732244 1.968504 0.787402 26.393661 3.937008 2.362205 17.968763 0.445539 2.362205 21.905769 0.445539 0.364063 17.968763 0.445539 0.364063 21.905769 0.445539 2.362205 "
									            />
								</IndexedFaceSet>
							</Shape>
						</Group>
					</Transform>
				</Transform>
				<Transform DEF="group_1_001_TRANSFORM"
				           translation="63.484097 16.929134 24.228403"
				           scale="1.000000 1.000000 1.000000"
				           rotation="0.000000 1.000000 0.000000 0.000000"
				           >
					<Transform DEF="group_1_001_ifs_TRANSFORM"
					           translation="0.000004 0.000000 0.000002"
					           scale="1.000000 1.000000 1.000000"
					           rotation="0.000000 1.000000 0.000000 0.000000"
					           >
						<Group DEF="group_ME_ID12_011">
						</Group>
					</Transform>
				</Transform>
				<Transform DEF="group_1_002_TRANSFORM"
				           translation="63.484097 16.929134 24.228403"
				           scale="1.000000 1.000000 1.000000"
				           rotation="0.000000 1.000000 0.000000 0.000000"
				           >
					<Transform DEF="group_1_002_ifs_TRANSFORM"
					           translation="0.000004 0.000000 0.000002"
					           scale="1.000000 1.000000 1.000000"
					           rotation="0.000000 1.000000 0.000000 0.000000"
					           >
						<Group DEF="group_ME_ID18">
						</Group>
					</Transform>
				</Transform>
				<Transform DEF="group_2_TRANSFORM"
				           translation="50.787796 16.929134 28.469303"
				           scale="1.000000 1.000000 1.000000"
				           rotation="0.000000 1.000003 0.000000 0.349065"
				           >
					<Transform DEF="group_2_ifs_TRANSFORM"
					           translation="0.000001 0.000002 0.000002"
					           scale="1.000000 1.000000 1.000000"
					           rotation="0.000000 1.000000 0.000000 0.000000"
					           >
						<Group DEF="group_ME_ID23">
							<Shape>
								<Appearance>
									<Material USE="MA_material_025" />
								</Appearance>
								<IndexedFaceSet solid="false"
								                coordIndex="0 1 2 -1 1 0 3 -1 4 5 6 -1 5 4 7 -1 8 9 10 -1 9 8 11 -1 12 13 14 -1 13 12 9 -1 13 9 15 -1 9 12 16 -1 9 16 17 -1 9 17 10 -1 15 9 18 -1 15 18 19 -1 15 19 20 -1 15 20 21 -1 22 23 24 -1 23 22 25 -1 26 27 28 -1 27 26 29 -1 29 26 30 -1 27 29 31 -1 31 29 32 -1 32 29 33 -1 29 30 34 -1 34 30 35 -1 35 30 36 -1 36 30 37 -1 29 38 33 -1 38 29 39 -1 38 39 40 -1 41 42 43 -1 42 41 44 -1 44 41 45 -1 46 47 48 -1 47 46 49 -1 49 46 50 -1 50 46 51 -1 51 46 52 -1 52 46 53 -1 52 53 54 -1 54 53 55 -1 56 57 58 -1 57 56 59 -1 58 60 61 -1 60 58 57 -1 62 63 64 -1 63 62 65 -1 61 66 67 -1 66 61 60 -1 68 63 69 -1 63 68 64 -1 67 70 71 -1 70 67 66 -1 72 69 73 -1 69 72 68 -1 71 74 75 -1 74 71 70 -1 76 77 78 -1 77 76 79 -1 79 76 80 -1 80 76 81 -1 80 81 82 -1 82 81 83 -1 83 81 84 -1 83 84 85 -1 86 87 88 -1 87 86 89 -1 90 91 92 -1 91 90 93 -1 94 95 96 -1 95 94 97 -1 98 99 100 -1 99 98 101 -1 101 102 99 -1 102 101 103 -1 103 104 102 -1 104 103 105 -1 105 106 104 -1 106 105 107 -1 107 108 106 -1 108 107 109 -1 110 109 107 -1 109 110 111 -1 112 111 110 -1 111 112 113 -1 114 112 115 -1 112 114 113 -1 59 115 57 -1 115 59 114 -1 57 116 60 -1 116 57 115 -1 60 117 66 -1 117 60 116 -1 66 118 70 -1 118 66 117 -1 70 119 74 -1 119 70 118 -1 118 120 119 -1 120 118 121 -1 120 122 123 -1 122 120 121 -1 123 101 98 -1 101 123 122 -1 122 103 101 -1 103 122 124 -1 124 105 103 -1 105 124 125 -1 125 107 105 -1 107 125 110 -1 126 110 125 -1 110 126 112 -1 115 126 116 -1 126 115 112 -1 116 127 117 -1 127 116 126 -1 117 121 118 -1 121 117 127 -1 121 124 122 -1 124 121 127 -1 127 125 124 -1 125 127 126 -1 "
								                >
									<Coordinate DEF="coords_ME_ID23"
									            point="27.560289 0.000000 5.905485 29.226744 3.937008 5.905512 27.560289 3.937008 5.905484 29.226744 0.000000 5.905512 27.560289 0.000000 5.905485 29.709709 3.937008 -0.000000 29.709709 -0.000000 0.000000 27.560289 3.937008 5.905484 36.722542 -0.000000 4.341011 30.704170 0.000000 4.148530 38.459656 -0.000000 3.115756 35.143661 0.000000 5.764373 44.364170 0.000000 0.787402 29.709709 -0.000000 0.000000 44.364170 0.000000 -0.000000 27.560289 0.000000 5.905485 42.307842 -0.000000 1.326222 40.330292 -0.000000 2.106038 30.404322 0.000000 4.672956 29.965656 0.000000 5.088290 29.425640 0.000000 5.359053 29.226744 0.000000 5.905512 29.425640 0.000000 5.359053 29.226744 3.937008 5.905512 29.226744 0.000000 5.905512 29.425640 3.937008 5.359053 29.709709 3.937008 -0.000000 44.364170 3.937008 0.787402 44.364170 3.937008 -0.000000 30.704170 3.937008 4.148530 27.560289 3.937008 5.905484 42.307842 3.937008 1.326222 40.330292 3.937008 2.106038 38.459656 3.937008 3.115756 30.404322 3.937008 4.672956 29.965656 3.937008 5.088290 29.425640 3.937008 5.359053 29.226744 3.937008 5.905512 36.722542 3.937008 4.341011 34.751507 3.937008 5.621640 35.143661 3.937008 5.764373 44.364170 3.937008 -0.000000 29.709709 -0.000000 0.000000 29.709709 3.937008 -0.000000 44.364170 0.000000 -0.000000 44.364170 1.968504 -0.000000 44.364170 1.968504 -0.000000 44.364170 0.000000 0.787402 44.364170 0.000000 -0.000000 44.364170 0.636946 1.004855 44.364170 1.296918 1.136849 44.364170 1.968504 1.181102 44.364170 2.640090 1.136849 44.364170 3.937008 -0.000000 44.364170 3.300062 1.004855 44.364170 3.937008 0.787402 44.364170 0.000000 0.787402 42.373318 0.636946 1.526519 42.307842 -0.000000 1.326222 44.364170 0.636946 1.004855 40.419151 0.636946 2.297114 40.330292 -0.000000 2.106038 42.307842 3.937008 1.326222 40.330292 -0.000000 2.106038 40.330292 3.937008 2.106038 42.307842 -0.000000 1.326222 38.570629 0.636946 3.294894 38.459656 -0.000000 3.115756 38.459656 3.937008 3.115756 38.459656 -0.000000 3.115756 36.854053 0.636946 4.505662 36.722542 -0.000000 4.341011 36.722542 3.937008 4.341011 36.722542 -0.000000 4.341011 35.367462 0.636946 5.845829 35.143661 0.000000 5.764373 35.143661 0.000000 5.764373 30.704170 3.937008 4.148530 30.704170 0.000000 4.148530 34.751507 3.937008 5.621640 35.143661 3.937008 5.764373 35.367462 0.636946 5.845829 35.367462 3.300062 5.845829 35.503307 2.640090 5.895273 35.503307 1.296918 5.895273 35.548851 1.968504 5.911849 30.704170 3.937008 4.148530 30.404322 0.000000 4.672956 30.704170 0.000000 4.148530 30.404322 3.937008 4.672956 30.404322 0.000000 4.672956 29.965656 3.937008 5.088290 29.965656 0.000000 5.088290 30.404322 3.937008 4.672956 29.965656 0.000000 5.088290 29.425640 3.937008 5.359053 29.425640 0.000000 5.359053 29.965656 3.937008 5.088290 35.367462 3.300062 5.845829 36.722542 3.937008 4.341011 35.143661 3.937008 5.764373 36.854053 3.300062 4.505662 38.459656 3.937008 3.115756 38.570629 3.300062 3.294894 40.330292 3.937008 2.106038 40.419151 3.300062 2.297114 42.307842 3.937008 1.326222 42.373318 3.300062 1.526519 44.364170 3.937008 0.787402 44.364170 3.300062 1.004855 42.413063 2.640090 1.648099 44.364170 2.640090 1.136849 42.426388 1.968504 1.688861 44.364170 1.968504 1.181102 44.364170 1.296918 1.136849 42.413063 1.296918 1.648099 40.473087 1.296918 2.413098 38.637993 1.296918 3.403630 36.933884 1.296918 4.605605 35.503307 1.296918 5.895273 35.548851 1.968504 5.911849 36.960648 1.968504 4.639113 36.933884 2.640090 4.605605 35.503307 2.640090 5.895273 38.637993 2.640090 3.403631 40.473087 2.640090 2.413098 40.491169 1.968504 2.451983 38.660576 1.968504 3.440086 "
									            />
								</IndexedFaceSet>
							</Shape>
						</Group>
					</Transform>
				</Transform>
				<Transform DEF="instance_0_TRANSFORM"
				           translation="83.421364 16.929134 15.566987"
				           scale="-1.000000 -1.000000 -1.000000"
				           rotation="-1.000000 0.000000 0.000000 3.141593"
				           >
					<Transform DEF="instance_0_ifs_TRANSFORM"
					           translation="-0.000008 0.000001 0.000001"
					           scale="1.000000 1.000000 1.000000"
					           rotation="0.000000 0.000000 0.000000 0.000000"
					           >
						<Group DEF="group_ME_ID31_001">
							<Shape>
								<Appearance>
								</Appearance>
								<IndexedFaceSet solid="false"
								                coordIndex="0 1 2 -1 2 1 3 -1 3 1 4 -1 4 1 5 -1 5 1 6 -1 6 1 7 -1 7 1 8 -1 8 1 9 -1 9 1 10 -1 10 1 11 -1 11 1 12 -1 13 12 1 -1 14 15 16 -1 17 16 15 -1 18 19 20 -1 21 20 19 -1 18 20 22 -1 23 22 20 -1 22 23 24 -1 25 24 23 -1 24 25 26 -1 27 26 25 -1 26 27 28 -1 29 28 27 -1 28 29 30 -1 31 30 29 -1 32 30 33 -1 31 33 30 -1 34 32 35 -1 33 35 32 -1 36 34 37 -1 35 37 34 -1 38 36 39 -1 37 39 36 -1 40 38 41 -1 39 41 38 -1 42 40 43 -1 41 43 40 -1 44 45 46 -1 47 46 45 -1 48 49 50 -1 49 51 50 -1 51 52 50 -1 52 53 50 -1 53 54 50 -1 54 55 50 -1 55 56 50 -1 56 57 50 -1 57 58 50 -1 58 59 50 -1 59 60 50 -1 61 50 60 -1 "
								                >
									<Coordinate DEF="coords_ME_ID31_001"
									            point="3.149606 0.000000 2.171030 4.715573 0.000000 2.740995 3.185118 0.000000 1.982678 3.242506 0.000000 1.799801 3.320976 0.000000 1.624929 3.419441 0.000000 1.460484 3.536539 0.000000 1.308741 3.670648 0.000000 1.171802 3.819912 0.000000 1.051562 3.982266 0.000000 0.949685 4.155461 0.000000 0.867581 4.337101 0.000000 0.806388 4.524670 0.000000 0.766951 4.715573 0.000000 0.749817 4.715573 3.937008 2.740995 4.715573 0.000000 2.740995 3.149606 3.937008 2.171030 3.149606 0.000000 2.171030 3.185118 3.937008 1.982678 3.149606 3.937008 2.171030 3.185118 0.000000 1.982678 3.149606 0.000000 2.171030 3.242506 3.937008 1.799801 3.242506 0.000000 1.799801 3.320976 3.937008 1.624929 3.320976 0.000000 1.624929 3.419441 3.937008 1.460484 3.419441 0.000000 1.460484 3.536539 3.937008 1.308741 3.536539 0.000000 1.308741 3.670648 3.937008 1.171802 3.670648 0.000000 1.171802 3.819912 3.937008 1.051562 3.819912 0.000000 1.051562 3.982266 3.937008 0.949685 3.982266 0.000000 0.949685 4.155461 3.937008 0.867581 4.155461 0.000000 0.867581 4.337101 3.937008 0.806387 4.337101 0.000000 0.806388 4.524670 3.937008 0.766951 4.524670 0.000000 0.766951 4.715573 3.937008 0.749817 4.715573 0.000000 0.749817 4.715573 3.937008 2.740995 4.715573 3.937008 0.749817 4.715573 0.000000 2.740995 4.715573 0.000000 0.749817 3.149606 3.937008 2.171030 3.185118 3.937008 1.982678 4.715573 3.937008 2.740995 3.242506 3.937008 1.799801 3.320976 3.937008 1.624929 3.419441 3.937008 1.460484 3.536539 3.937008 1.308741 3.670648 3.937008 1.171802 3.819912 3.937008 1.051562 3.982266 3.937008 0.949685 4.155461 3.937008 0.867581 4.337101 3.937008 0.806387 4.524670 3.937008 0.766951 4.715573 3.937008 0.749817 "
									            />
								</IndexedFaceSet>
							</Shape>
						</Group>
					</Transform>
				</Transform>
				<Transform DEF="instance_1_TRANSFORM"
				           translation="80.271759 15.354332 21.866201"
				           scale="1.000000 1.000000 1.000000"
				           rotation="0.000000 1.000000 0.000000 0.000000"
				           >
					<Transform DEF="instance_1_ifs_TRANSFORM"
					           translation="0.000000 0.000002 0.000002"
					           scale="1.000000 1.000000 1.000000"
					           rotation="0.000000 1.000000 0.000000 0.000000"
					           >
						<Group DEF="group_ME_ID39">
							<Shape>
								<Appearance>
								</Appearance>
								<IndexedFaceSet solid="false"
								                coordIndex="0 1 2 -1 1 0 3 -1 3 0 4 -1 4 0 5 -1 6 7 8 -1 7 6 9 -1 10 11 12 -1 11 10 13 -1 14 15 16 -1 15 14 17 -1 18 19 20 -1 19 18 21 -1 21 18 22 -1 22 18 23 -1 23 18 24 -1 20 25 26 -1 25 20 19 -1 27 28 29 -1 28 27 30 -1 31 32 33 -1 34 35 36 -1 35 34 37 -1 35 37 38 -1 38 37 32 -1 38 32 31 -1 39 40 41 -1 40 42 43 -1 42 40 44 -1 44 40 39 -1 45 46 47 -1 46 45 48 -1 46 48 49 -1 47 50 51 -1 50 47 46 -1 51 50 52 -1 53 54 55 -1 54 53 56 -1 57 58 59 -1 58 57 60 -1 58 60 61 -1 59 62 63 -1 62 59 58 -1 63 62 64 -1 65 66 67 -1 66 65 68 -1 66 68 69 -1 66 69 70 -1 71 72 73 -1 72 71 74 -1 75 76 77 -1 76 75 78 -1 79 80 81 -1 80 79 82 -1 80 82 78 -1 78 82 76 -1 83 84 85 -1 84 83 86 -1 87 88 89 -1 88 87 90 -1 88 90 91 -1 91 90 92 -1 92 90 93 -1 94 89 88 -1 95 96 97 -1 96 95 98 -1 99 100 101 -1 100 99 102 -1 103 104 105 -1 104 103 106 -1 107 68 65 -1 68 107 108 -1 68 108 109 -1 68 109 69 -1 110 111 112 -1 111 110 113 -1 113 110 114 -1 114 110 115 -1 116 117 118 -1 117 116 119 -1 120 121 122 -1 121 123 124 -1 123 121 125 -1 125 121 120 -1 126 127 128 -1 127 126 129 -1 130 131 132 -1 131 130 133 -1 97 134 135 -1 134 97 96 -1 105 136 137 -1 136 105 104 -1 138 108 107 -1 108 138 139 -1 108 139 109 -1 140 141 142 -1 141 140 143 -1 129 144 127 -1 144 129 145 -1 135 146 147 -1 146 135 134 -1 137 148 149 -1 148 137 136 -1 150 151 152 -1 151 150 153 -1 145 154 144 -1 154 145 155 -1 "
								                >
									<Coordinate DEF="coords_ME_ID39"
									            point="6.299213 5.511811 3.937008 5.708661 5.511811 2.362205 6.299213 5.511811 2.362205 5.708661 5.511811 3.149606 5.118110 5.511811 3.149606 5.118110 5.511811 3.937008 5.708661 1.574803 3.149606 5.118110 5.511811 3.149606 5.118110 1.574803 3.149606 5.708661 5.511811 3.149606 5.708661 5.511811 2.362205 5.708661 1.574803 3.149606 5.708661 1.574803 2.362205 5.708661 5.511811 3.149606 6.299213 1.574803 2.362205 5.708661 5.511811 2.362205 5.708661 1.574803 2.362205 6.299213 5.511811 2.362205 6.299213 6.299213 1.574803 6.299213 1.574803 2.362205 6.299213 0.000000 1.574803 6.299213 5.511811 2.362205 6.299213 5.511811 3.937008 6.299213 7.086615 3.937008 6.299213 7.086615 1.574803 6.299213 1.574803 3.937008 6.299213 0.000000 3.937008 6.299213 5.511811 3.937008 5.118110 7.086615 3.937008 5.118110 5.511811 3.937008 6.299213 7.086615 3.937008 5.118110 7.086615 3.937008 5.118110 5.511811 3.149606 5.118110 5.511811 3.937008 5.118110 1.574803 3.937008 5.118110 0.000000 2.362205 5.118110 0.000000 3.937008 5.118110 1.574803 3.149606 5.118110 7.086615 2.362205 5.118110 1.574803 3.937008 5.708661 1.574803 3.149606 5.118110 1.574803 3.149606 6.299213 1.574803 2.362205 5.708661 1.574803 2.362205 6.299213 1.574803 3.937008 0.000000 7.086615 1.574803 1.181102 7.086615 2.362205 6.299213 7.086615 1.574803 0.000000 7.086615 3.937008 1.181102 7.086615 3.937008 5.118110 7.086615 2.362205 6.299213 7.086615 3.937008 5.118110 7.086615 3.937008 6.299213 0.000000 3.937008 5.118110 1.574803 3.937008 5.118110 0.000000 3.937008 6.299213 1.574803 3.937008 6.299213 0.000000 1.574803 5.118110 0.000000 2.362205 0.000000 0.000000 1.574803 6.299213 0.000000 3.937008 5.118110 0.000000 3.937008 1.181102 0.000000 2.362205 0.000000 0.000000 3.937008 1.181102 0.000000 3.937008 5.884369 0.414843 1.135672 6.299213 6.299213 1.574803 6.299213 0.000000 1.574803 5.884369 6.299213 1.135672 5.884369 6.671771 1.135672 6.299213 7.086615 1.574803 5.118110 0.000000 2.362205 1.181102 7.086615 2.362205 1.181102 0.000000 2.362205 5.118110 7.086615 2.362205 0.000000 7.086615 3.937008 0.000000 5.511811 2.362205 0.000000 5.511811 3.937008 0.000000 7.086615 1.574803 0.000000 1.574803 3.937008 0.000000 0.000000 1.574803 0.000000 0.000000 3.937008 0.000000 1.574803 2.362205 1.181102 5.511811 3.937008 0.000000 7.086615 3.937008 0.000000 5.511811 3.937008 1.181102 7.086615 3.937008 1.181102 0.000000 2.362205 1.181102 1.574803 3.149606 1.181102 0.000000 3.937008 1.181102 7.086615 2.362205 1.181102 5.511811 3.149606 1.181102 5.511811 3.937008 1.181102 7.086615 3.937008 1.181102 1.574803 3.937008 0.000000 7.086615 1.574803 5.884369 6.671771 1.135672 0.414843 6.671771 1.135672 6.299213 7.086615 1.574803 1.181102 0.000000 3.937008 0.000000 1.574803 3.937008 0.000000 0.000000 3.937008 1.181102 1.574803 3.937008 6.299213 0.000000 1.574803 0.414843 0.414843 1.135672 5.884369 0.414843 1.135672 0.000000 0.000000 1.574803 5.614210 0.685003 0.595353 5.614210 6.299213 0.595353 5.614210 6.401612 0.595353 0.000000 1.574803 3.937008 0.590551 1.574803 2.362205 0.000000 1.574803 2.362205 0.590551 1.574803 3.149606 1.181102 1.574803 3.149606 1.181102 1.574803 3.937008 0.590551 1.574803 2.362205 0.000000 5.511811 2.362205 0.000000 1.574803 2.362205 0.590551 5.511811 2.362205 1.181102 5.511811 3.937008 0.590551 5.511811 3.149606 1.181102 5.511811 3.149606 0.000000 5.511811 2.362205 0.590551 5.511811 2.362205 0.000000 5.511811 3.937008 0.000000 7.086615 1.574803 0.414843 0.414843 1.135672 0.000000 0.000000 1.574803 0.414843 6.671771 1.135672 1.181102 1.574803 3.149606 0.590551 5.511811 3.149606 0.590551 1.574803 3.149606 1.181102 5.511811 3.149606 5.614210 6.401612 0.595353 0.685003 6.401612 0.595353 0.685003 0.685003 0.595353 5.614210 0.685003 0.595353 5.511811 0.787402 0.000000 5.511811 6.299213 0.000000 0.590551 5.511811 3.149606 0.590551 1.574803 2.362205 0.590551 1.574803 3.149606 0.590551 5.511811 2.362205 0.685003 0.685003 0.595353 0.685003 6.401612 0.595353 5.511811 6.299213 0.000000 0.787402 6.299213 0.000000 0.787402 0.787402 0.000000 5.511811 0.787402 0.000000 5.511811 6.299213 0.000000 0.787402 0.787402 0.000000 0.787402 6.299213 0.000000 5.511811 0.787402 0.000000 0.787402 0.787402 0.000000 0.787402 6.299213 0.000000 "
									            />
								</IndexedFaceSet>
							</Shape>
						</Group>
					</Transform>
				</Transform>
				<Transform DEF="instance_2_TRANSFORM"
				           translation="81.452866 33.122704 24.228403"
				           scale="1.000000 1.000000 1.000000"
				           rotation="0.000000 0.000000 -1.000000 1.570796"
				           >
					<Transform DEF="instance_2_ifs_TRANSFORM"
					           translation="-0.000005 0.000010 0.000002"
					           scale="1.000000 1.000000 1.000000"
					           rotation="0.000000 0.000000 0.000000 0.000000"
					           >
						<Group DEF="group_ME_ID47_002">
							<Shape>
								<Appearance>
								</Appearance>
								<IndexedFaceSet solid="false"
								                coordIndex="0 1 2 -1 1 0 3 -1 4 5 6 -1 5 4 7 -1 7 4 8 -1 7 8 9 -1 9 8 10 -1 9 10 11 -1 11 10 12 -1 11 12 13 -1 13 12 14 -1 11 15 16 -1 15 11 13 -1 16 15 17 -1 18 19 20 -1 19 18 21 -1 22 23 24 -1 23 22 25 -1 25 22 26 -1 25 26 27 -1 27 26 28 -1 27 28 29 -1 29 28 30 -1 29 30 31 -1 31 30 32 -1 33 31 32 -1 29 34 35 -1 34 29 31 -1 35 34 36 -1 37 38 39 -1 38 37 40 -1 41 42 43 -1 42 41 44 -1 45 46 47 -1 46 45 48 -1 49 50 51 -1 50 49 52 -1 53 54 55 -1 54 53 56 -1 57 58 59 -1 58 57 60 -1 58 60 61 -1 62 63 64 -1 63 62 65 -1 66 67 68 -1 67 66 69 -1 70 71 72 -1 71 70 73 -1 74 75 76 -1 75 74 77 -1 78 79 80 -1 79 78 81 -1 82 83 84 -1 83 82 85 -1 "
								                >
									<Coordinate DEF="coords_ME_ID47_002"
									            point="3.149606 3.937008 0.708661 1.574803 0.000000 1.417323 1.574803 3.937008 1.417323 3.149606 0.000000 0.708661 5.249344 3.937008 0.236220 20.472441 3.937008 0.000000 7.874016 3.937008 0.000000 23.097113 3.937008 0.236220 3.149606 3.937008 0.708661 25.196850 3.937008 0.708661 1.574803 3.937008 1.417323 26.771652 3.937008 1.417323 0.524934 3.937008 2.362205 12.598425 3.937008 1.968504 12.598425 3.937008 2.362205 15.748032 3.937008 1.968504 27.821522 3.937008 2.362205 15.748032 3.937008 2.362205 5.249344 3.937008 0.236220 3.149606 0.000000 0.708661 3.149606 3.937008 0.708661 5.249344 0.000000 0.236220 23.097113 0.000000 0.236220 7.874016 0.000000 0.000000 20.472441 0.000000 0.000000 5.249344 0.000000 0.236220 25.196850 0.000000 0.708661 3.149606 0.000000 0.708661 26.771652 0.000000 1.417323 1.574803 0.000000 1.417323 27.821522 0.000000 2.362205 15.748032 0.000000 1.968504 27.629921 0.000000 2.362205 15.748032 0.000000 2.362205 12.598425 0.000000 1.968504 0.524934 0.000000 2.362205 12.598425 0.000000 2.362205 1.574803 3.937008 1.417323 0.524934 0.000000 2.362205 0.524934 3.937008 2.362205 1.574803 0.000000 1.417323 0.524934 0.000000 2.362205 12.598425 3.937008 2.362205 0.524934 3.937008 2.362205 12.598425 0.000000 2.362205 12.598425 0.000000 1.968504 12.598425 3.937008 2.362205 12.598425 0.000000 2.362205 12.598425 3.937008 1.968504 12.598425 0.000000 1.968504 15.748032 3.937008 1.968504 12.598425 3.937008 1.968504 15.748032 0.000000 1.968504 15.748032 3.937008 2.362205 15.748032 0.000000 1.968504 15.748032 0.000000 2.362205 15.748032 3.937008 1.968504 15.748032 0.000000 2.362205 27.821522 3.937008 2.362205 15.748032 3.937008 2.362205 27.629921 0.000000 2.362205 27.821522 0.000000 2.362205 27.821522 3.937008 2.362205 26.771652 0.000000 1.417323 26.771652 3.937008 1.417323 27.821522 0.000000 2.362205 26.771652 3.937008 1.417323 25.196850 0.000000 0.708661 25.196850 3.937008 0.708661 26.771652 0.000000 1.417323 25.196850 3.937008 0.708661 23.097113 0.000000 0.236220 23.097113 3.937008 0.236220 25.196850 0.000000 0.708661 23.097113 3.937008 0.236220 20.472441 0.000000 0.000000 20.472441 3.937008 0.000000 23.097113 0.000000 0.236220 20.472441 3.937008 0.000000 7.874016 0.000000 0.000000 7.874016 3.937008 0.000000 20.472441 0.000000 0.000000 7.874016 3.937008 0.000000 5.249344 0.000000 0.236220 5.249344 3.937008 0.236220 7.874016 0.000000 0.000000 "
									            />
								</IndexedFaceSet>
							</Shape>
						</Group>
					</Transform>
				</Transform>
			</Transform>
		</Transform>
	</Scene>
</X3D>