<?xml version="1.0" encoding="UTF-8"?>
<!DOCTYPE X3D PUBLIC "ISO//Web3D//DTD X3D 3.0//EN" "http://www.web3d.org/specifications/x3d-3.0.dtd">
<X3D version="3.0" profile="Immersive" xmlns:xsd="http://www.w3.org/2001/XMLSchema-instance" xsd:noNamespaceSchemaLocation="http://www.web3d.org/specifications/x3d-3.0.xsd">
	<head>
		<meta name="filename" content="05-1-A 單栱A.x3d" />
		<meta name="created" content="2025-12-28 13:50:43" />
		<meta name="generator" content="Blender 4.2.2 LTS" />
		<meta name="translator" content="Web3D X3D/VRML2 format v2.5.1" />
	</head>
	<Scene>
		<NavigationInfo headlight="true"
		                visibilityLimit="0.0"
		                type='"EXAMINE", "ANY"'
		                avatarSize="0.25, 1.75, 0.75"
		                />
		<Background DEF="WO_World"
		            groundColor="0.051 0.051 0.051"
		            skyColor="0.051 0.051 0.051"
		            />
		<Transform DEF="SketchUp_TRANSFORM"
		           translation="0.000000 0.000000 0.000000"
		           scale="0.025400 0.025400 0.025400"
		           rotation="-1.000000 0.000000 0.000000 1.570796"
		           >
			<Transform DEF="group_0_TRANSFORM"
			           translation="-6.660791 -19.168631 0.000000"
			           scale="1.000000 1.000000 1.000000"
			           rotation="0.000000 0.000000 1.000000 1.570796"
			           >
				<Transform DEF="instance_0_TRANSFORM"
				           translation="27.078739 0.000001 0.000000"
				           scale="1.000000 1.000000 1.000000"
				           rotation="0.000000 0.000000 1.000000 1.570796"
				           >
					<Transform DEF="instance_0_ifs_TRANSFORM"
					           translation="0.000000 -0.000001 0.000000"
					           scale="1.000000 1.000000 1.000000"
					           rotation="0.000000 0.000000 -0.000000 0.000000"
					           >
						<Group DEF="group_ME_ID5">
							<Shape>
								<Appearance>
								</Appearance>
								<IndexedFaceSet solid="false"
								                coordIndex="0 1 2 -1 1 0 3 -1 1 3 4 -1 5 6 7 -1 6 5 8 -1 9 10 11 -1 10 9 12 -1 13 14 15 -1 14 13 16 -1 2 17 18 -1 17 2 1 -1 17 1 19 -1 19 1 4 -1 20 21 22 -1 21 20 23 -1 24 8 5 -1 8 24 25 -1 26 16 13 -1 16 26 27 -1 18 28 29 -1 28 18 17 -1 28 17 19 -1 28 19 30 -1 31 22 32 -1 22 31 20 -1 33 25 24 -1 25 33 34 -1 35 27 26 -1 27 35 36 -1 37 38 39 -1 38 37 40 -1 40 37 41 -1 42 32 43 -1 32 42 31 -1 44 45 46 -1 45 44 47 -1 45 47 48 -1 46 49 50 -1 49 46 45 -1 50 49 51 -1 52 53 54 -1 53 52 55 -1 53 55 56 -1 54 57 58 -1 57 54 53 -1 58 57 59 -1 60 61 62 -1 61 60 63 -1 64 65 66 -1 65 64 67 -1 68 69 70 -1 69 68 71 -1 69 71 72 -1 72 71 73 -1 73 71 74 -1 75 70 69 -1 76 77 78 -1 77 76 79 -1 80 81 82 -1 83 84 85 -1 84 83 86 -1 84 86 87 -1 87 86 81 -1 87 81 80 -1 88 89 90 -1 89 88 91 -1 92 93 94 -1 93 92 95 -1 96 97 98 -1 97 96 99 -1 100 101 102 -1 101 100 103 -1 104 105 106 -1 105 104 107 -1 "
								                >
									<Coordinate DEF="coords_ME_ID5"
									            point="5.511811 0.787402 0.000000 5.614210 6.299213 0.595353 5.614210 0.685003 0.595353 5.511811 6.299213 0.000000 5.614210 6.401612 0.595353 5.614210 0.685003 0.595353 0.787402 0.787402 0.000000 5.511811 0.787402 0.000000 0.685003 0.685003 0.595353 5.511811 6.299213 0.000000 0.787402 0.787402 0.000000 0.787402 6.299213 0.000000 5.511811 0.787402 0.000000 0.685003 6.401612 0.595353 5.511811 6.299213 0.000000 0.787402 6.299213 0.000000 5.614210 6.401612 0.595353 5.884369 6.299213 1.135672 5.884369 0.414843 1.135672 5.884369 6.671771 1.135672 0.685003 6.401612 0.595353 0.787402 0.787402 0.000000 0.685003 0.685003 0.595353 0.787402 6.299213 0.000000 5.884369 0.414843 1.135672 0.414843 0.414843 1.135672 0.414843 6.671771 1.135672 5.884369 6.671771 1.135672 6.299213 6.299213 1.574803 6.299213 0.000000 1.574803 6.299213 7.086615 1.574803 0.414843 6.671771 1.135672 0.414843 0.414843 1.135672 6.299213 0.000000 1.574803 0.000000 0.000000 1.574803 0.000000 7.086615 1.574803 6.299213 7.086615 1.574803 6.299213 6.299213 1.574803 6.299213 0.000000 3.937008 6.299213 0.000000 1.574803 6.299213 7.086615 3.937008 6.299213 7.086615 1.574803 0.000000 7.086615 1.574803 0.000000 0.000000 1.574803 6.299213 0.000000 1.574803 5.118110 0.000000 2.362205 0.000000 0.000000 1.574803 6.299213 0.000000 3.937008 5.118110 0.000000 3.937008 1.181102 0.000000 2.362205 0.000000 0.000000 3.937008 1.181102 0.000000 3.937008 0.000000 7.086615 1.574803 1.181102 7.086615 2.362205 6.299213 7.086615 1.574803 0.000000 7.086615 3.937008 1.181102 7.086615 3.937008 5.118110 7.086615 2.362205 6.299213 7.086615 3.937008 5.118110 7.086615 3.937008 6.299213 0.000000 3.937008 5.118110 7.086615 3.937008 5.118110 0.000000 3.937008 6.299213 7.086615 3.937008 0.000000 7.086615 3.937008 0.000000 0.000000 1.574803 0.000000 0.000000 3.937008 0.000000 7.086615 1.574803 5.118110 0.000000 3.937008 5.118110 0.787402 3.149606 5.118110 0.000000 2.362205 5.118110 7.086615 3.937008 5.118110 6.299213 3.149606 5.118110 6.299213 2.362205 5.118110 7.086615 2.362205 5.118110 0.787402 2.362205 5.118110 0.000000 2.362205 1.181102 0.787402 2.362205 1.181102 0.000000 2.362205 5.118110 0.787402 2.362205 1.181102 7.086615 2.362205 1.181102 6.299213 3.149606 1.181102 6.299213 2.362205 1.181102 0.787402 2.362205 1.181102 0.000000 3.937008 1.181102 0.000000 2.362205 1.181102 0.787402 3.149606 1.181102 7.086615 3.937008 1.181102 0.000000 3.937008 0.000000 7.086615 3.937008 0.000000 0.000000 3.937008 1.181102 7.086615 3.937008 1.181102 6.299213 2.362205 5.118110 7.086615 2.362205 1.181102 7.086615 2.362205 5.118110 6.299213 2.362205 1.181102 6.299213 3.149606 5.118110 6.299213 2.362205 1.181102 6.299213 2.362205 5.118110 6.299213 3.149606 5.118110 0.787402 3.149606 1.181102 6.299213 3.149606 1.181102 0.787402 3.149606 5.118110 6.299213 3.149606 5.118110 0.787402 3.149606 1.181102 0.787402 2.362205 5.118110 0.787402 2.362205 1.181102 0.787402 3.149606 "
									            />
								</IndexedFaceSet>
							</Shape>
						</Group>
					</Transform>
				</Transform>
				<Transform DEF="instance_1_TRANSFORM"
				           translation="20.385822 0.000000 8.267716"
				           scale="1.000000 1.000000 1.000000"
				           rotation="0.000000 0.000000 -0.000000 0.000000"
				           >
					<Transform DEF="instance_1_ifs_TRANSFORM"
					           translation="0.000000 0.000001 0.000000"
					           scale="1.000000 1.000000 1.000000"
					           rotation="0.000000 0.000000 -0.000000 0.000000"
					           >
						<Group DEF="group_ME_ID15">
							<Shape>
								<Appearance>
								</Appearance>
								<IndexedFaceSet solid="false"
								                coordIndex="0 1 2 -1 1 0 3 -1 4 5 6 -1 7 8 9 -1 8 7 10 -1 8 10 11 -1 11 10 5 -1 11 5 4 -1 12 13 14 -1 13 12 15 -1 16 17 18 -1 17 16 19 -1 19 16 20 -1 20 16 21 -1 18 22 23 -1 22 18 17 -1 24 25 26 -1 25 27 28 -1 27 25 24 -1 29 30 31 -1 30 29 32 -1 33 34 35 -1 34 33 36 -1 37 38 39 -1 38 37 40 -1 41 42 43 -1 42 41 44 -1 45 46 47 -1 46 45 48 -1 49 50 51 -1 50 49 52 -1 53 54 55 -1 54 56 57 -1 56 54 53 -1 56 53 58 -1 59 60 61 -1 60 59 62 -1 48 63 46 -1 63 48 64 -1 65 52 49 -1 52 65 66 -1 55 67 68 -1 67 57 69 -1 57 67 55 -1 57 55 54 -1 61 70 71 -1 70 61 60 -1 64 72 63 -1 72 64 73 -1 74 66 65 -1 66 74 75 -1 68 76 77 -1 76 68 69 -1 69 68 67 -1 71 78 79 -1 78 71 70 -1 80 81 82 -1 81 80 83 -1 "
								                >
									<Coordinate DEF="coords_ME_ID15"
									            point="6.299213 5.118110 3.937008 0.000000 6.299213 3.937008 0.000000 5.118110 3.937008 6.299213 6.299213 3.937008 0.000000 6.299213 3.937008 0.000000 5.118110 2.362205 0.000000 5.118110 3.937008 0.000000 1.181102 3.937008 0.000000 0.000000 1.574803 0.000000 0.000000 3.937008 0.000000 1.181102 2.362205 0.000000 6.299213 1.574803 6.299213 5.118110 3.937008 0.000000 5.118110 2.362205 6.299213 5.118110 2.362205 0.000000 5.118110 3.937008 6.299213 6.299213 1.574803 6.299213 1.181102 2.362205 6.299213 0.000000 1.574803 6.299213 5.118110 2.362205 6.299213 5.118110 3.937008 6.299213 6.299213 3.937008 6.299213 1.181102 3.937008 6.299213 0.000000 3.937008 0.000000 6.299213 3.937008 0.787402 6.299213 1.574803 0.000000 6.299213 1.574803 6.299213 6.299213 3.937008 6.299213 6.299213 1.574803 6.299213 0.000000 3.937008 0.000000 0.000000 1.574803 6.299213 0.000000 1.574803 0.000000 0.000000 3.937008 6.299213 0.000000 3.937008 0.000000 1.181102 3.937008 0.000000 0.000000 3.937008 6.299213 1.181102 3.937008 0.000000 1.181102 3.937008 6.299213 1.181102 2.362205 0.000000 1.181102 2.362205 6.299213 1.181102 3.937008 6.299213 1.181102 2.362205 0.000000 5.118110 2.362205 0.000000 1.181102 2.362205 6.299213 5.118110 2.362205 0.000000 6.299213 1.574803 0.414843 0.414843 1.135672 0.000000 0.000000 1.574803 0.414843 5.884369 1.135672 5.884369 0.414843 1.135672 6.299213 6.299213 1.574803 6.299213 0.000000 1.574803 5.884369 5.884369 1.135672 0.000000 6.299213 1.574803 0.787402 5.884369 1.135672 0.414843 5.884369 1.135672 6.299213 6.299213 1.574803 5.884369 5.884369 1.135672 0.787402 6.299213 1.574803 6.299213 0.000000 1.574803 0.414843 0.414843 1.135672 5.884369 0.414843 1.135672 0.000000 0.000000 1.574803 0.685003 0.685003 0.595353 0.685003 5.614210 0.595353 5.614210 0.685003 0.595353 5.614210 5.614210 0.595353 0.787402 5.614210 0.595353 0.685003 5.614210 0.595353 5.614210 5.614210 0.595353 0.685003 0.685003 0.595353 5.614210 0.685003 0.595353 0.787402 0.787402 0.000000 0.787402 5.511811 0.000000 5.511811 0.787402 0.000000 5.511811 5.511811 0.000000 5.511811 5.511811 0.000000 0.787402 5.511811 0.000000 0.787402 0.787402 0.000000 5.511811 0.787402 0.000000 5.511811 5.511811 0.000000 0.787402 0.787402 0.000000 0.787402 5.511811 0.000000 5.511811 0.787402 0.000000 "
									            />
								</IndexedFaceSet>
							</Shape>
						</Group>
					</Transform>
				</Transform>
				<Transform DEF="instance_2_TRANSFORM"
				           translation="14.086611 0.000001 8.267716"
				           scale="1.000000 1.000000 1.000000"
				           rotation="0.000000 0.000000 1.000000 1.570796"
				           >
					<Transform DEF="instance_2_ifs_TRANSFORM"
					           translation="0.000001 0.000001 0.000000"
					           scale="1.000000 1.000000 1.000000"
					           rotation="0.000000 0.000000 -0.000000 0.000000"
					           >
						<Group DEF="group_ME_ID23">
							<Shape>
								<Appearance>
								</Appearance>
								<IndexedFaceSet solid="false"
								                coordIndex="0 1 2 -1 1 0 3 -1 4 5 6 -1 5 4 7 -1 5 7 8 -1 9 10 11 -1 10 9 12 -1 13 14 15 -1 14 13 16 -1 17 3 0 -1 3 17 18 -1 19 20 21 -1 20 19 22 -1 6 23 24 -1 23 6 5 -1 23 5 8 -1 23 8 25 -1 26 15 27 -1 15 26 13 -1 28 18 17 -1 18 28 29 -1 30 22 19 -1 22 30 31 -1 24 32 33 -1 32 24 23 -1 32 23 25 -1 32 25 34 -1 35 27 36 -1 27 35 26 -1 37 38 39 -1 38 37 40 -1 38 40 41 -1 39 42 43 -1 42 39 38 -1 43 42 44 -1 45 31 30 -1 31 45 46 -1 47 48 49 -1 48 47 50 -1 50 47 51 -1 52 53 54 -1 53 52 55 -1 56 57 58 -1 57 56 59 -1 60 61 62 -1 61 60 63 -1 64 65 66 -1 65 64 67 -1 68 69 70 -1 69 68 71 -1 72 73 74 -1 73 72 75 -1 76 77 78 -1 77 76 79 -1 77 79 80 -1 78 81 82 -1 81 78 77 -1 82 81 83 -1 "
								                >
									<Coordinate DEF="coords_ME_ID23"
									            point="0.685003 4.826808 0.595353 5.511811 4.724409 0.000000 0.787402 4.724409 0.000000 5.614210 4.826808 0.595353 5.511811 0.787402 0.000000 5.614210 4.724409 0.595353 5.614210 0.685003 0.595353 5.511811 4.724409 0.000000 5.614210 4.826808 0.595353 5.511811 4.724409 0.000000 0.787402 0.787402 0.000000 0.787402 4.724409 0.000000 5.511811 0.787402 0.000000 0.685003 4.826808 0.595353 0.787402 0.787402 0.000000 0.685003 0.685003 0.595353 0.787402 4.724409 0.000000 0.414843 5.096968 1.135672 5.884369 5.096968 1.135672 5.614210 0.685003 0.595353 0.787402 0.787402 0.000000 5.511811 0.787402 0.000000 0.685003 0.685003 0.595353 5.884369 4.724409 1.135672 5.884369 0.414843 1.135672 5.884369 5.096968 1.135672 0.414843 5.096968 1.135672 0.414843 0.414843 1.135672 0.000000 5.511811 1.574803 6.299213 5.511811 1.574803 5.884369 0.414843 1.135672 0.414843 0.414843 1.135672 6.299213 4.724409 1.574803 6.299213 0.000000 1.574803 6.299213 5.511811 1.574803 0.000000 5.511811 1.574803 0.000000 0.000000 1.574803 0.000000 5.511811 1.574803 1.181102 5.511811 2.362205 6.299213 5.511811 1.574803 0.000000 5.511811 3.937008 1.181102 5.511811 3.937008 5.118110 5.511811 2.362205 6.299213 5.511811 3.937008 5.118110 5.511811 3.937008 6.299213 0.000000 1.574803 0.000000 0.000000 1.574803 6.299213 4.724409 1.574803 6.299213 0.000000 3.937008 6.299213 0.000000 1.574803 6.299213 5.511811 3.937008 6.299213 5.511811 1.574803 0.000000 5.511811 3.937008 0.000000 0.000000 1.574803 0.000000 0.000000 3.937008 0.000000 5.511811 1.574803 1.181102 0.000000 3.937008 0.000000 5.511811 3.937008 0.000000 0.000000 3.937008 1.181102 5.511811 3.937008 1.181102 5.511811 2.362205 1.181102 0.000000 3.937008 1.181102 0.000000 2.362205 1.181102 5.511811 3.937008 5.118110 0.000000 2.362205 1.181102 5.511811 2.362205 1.181102 0.000000 2.362205 5.118110 5.511811 2.362205 5.118110 5.511811 3.937008 5.118110 0.000000 2.362205 5.118110 0.000000 3.937008 5.118110 5.511811 2.362205 6.299213 0.000000 3.937008 5.118110 5.511811 3.937008 5.118110 0.000000 3.937008 6.299213 5.511811 3.937008 6.299213 0.000000 1.574803 5.118110 0.000000 2.362205 0.000000 0.000000 1.574803 6.299213 0.000000 3.937008 5.118110 0.000000 3.937008 1.181102 0.000000 2.362205 0.000000 0.000000 3.937008 1.181102 0.000000 3.937008 "
									            />
								</IndexedFaceSet>
							</Shape>
						</Group>
					</Transform>
				</Transform>
				<Transform DEF="instance_3_TRANSFORM"
				           translation="9.362203 1.181103 2.362205"
				           scale="1.000000 1.000000 1.000000"
				           rotation="0.000000 0.000000 -0.000000 0.000000"
				           >
					<Transform DEF="instance_3_ifs_TRANSFORM"
					           translation="-0.000002 0.000000 0.000000"
					           scale="1.000000 1.000000 1.000000"
					           rotation="0.000000 0.000000 -0.000000 0.000000"
					           >
						<Group DEF="group_ME_ID31">
							<Shape>
								<Appearance>
								</Appearance>
								<IndexedFaceSet solid="false"
								                coordIndex="0 1 2 -1 1 0 3 -1 4 5 6 -1 5 4 7 -1 7 4 8 -1 7 8 9 -1 7 9 10 -1 10 11 12 -1 11 10 13 -1 13 10 14 -1 14 10 15 -1 15 10 9 -1 15 9 16 -1 15 16 17 -1 17 16 18 -1 17 18 19 -1 19 18 20 -1 20 18 21 -1 19 20 22 -1 20 21 23 -1 23 21 24 -1 24 21 25 -1 26 27 28 -1 27 26 29 -1 22 30 31 -1 30 22 20 -1 31 30 32 -1 31 32 33 -1 33 32 28 -1 33 28 34 -1 34 28 27 -1 19 35 36 -1 35 19 22 -1 36 35 37 -1 36 37 38 -1 36 38 39 -1 40 41 42 -1 41 40 43 -1 44 45 46 -1 45 44 47 -1 45 47 48 -1 45 48 49 -1 45 49 50 -1 50 51 52 -1 51 50 53 -1 53 50 54 -1 54 50 55 -1 55 50 49 -1 55 49 56 -1 55 56 57 -1 57 56 58 -1 58 56 59 -1 58 59 60 -1 60 59 61 -1 58 60 62 -1 60 61 63 -1 63 61 64 -1 64 61 65 -1 66 67 62 -1 67 66 68 -1 68 66 69 -1 68 69 70 -1 70 69 71 -1 70 71 72 -1 70 72 73 -1 73 72 74 -1 58 75 76 -1 75 58 62 -1 75 62 67 -1 76 75 77 -1 76 77 78 -1 76 78 79 -1 80 81 82 -1 81 80 83 -1 84 85 86 -1 85 84 87 -1 88 89 90 -1 89 88 91 -1 89 91 92 -1 92 91 85 -1 92 85 93 -1 93 85 87 -1 90 94 95 -1 94 90 89 -1 96 97 98 -1 97 96 99 -1 100 101 102 -1 101 100 103 -1 103 100 104 -1 103 104 105 -1 105 106 103 -1 106 105 107 -1 106 108 109 -1 108 106 107 -1 108 107 110 -1 108 110 111 -1 112 113 114 -1 113 112 115 -1 116 115 112 -1 115 116 117 -1 116 118 117 -1 118 116 119 -1 120 121 122 -1 121 120 123 -1 124 125 126 -1 125 124 127 -1 128 125 127 -1 125 128 129 -1 130 129 128 -1 129 130 131 -1 132 133 134 -1 133 132 135 -1 136 137 138 -1 137 136 139 -1 140 141 142 -1 141 140 143 -1 144 145 146 -1 145 144 147 -1 148 149 150 -1 149 148 151 -1 152 153 154 -1 153 152 155 -1 156 157 158 -1 157 156 159 -1 160 161 162 -1 161 160 163 -1 164 165 166 -1 165 164 167 -1 168 169 170 -1 169 168 171 -1 172 173 174 -1 173 172 175 -1 176 177 178 -1 177 176 179 -1 180 181 182 -1 181 180 183 -1 184 185 186 -1 185 184 187 -1 188 189 190 -1 189 188 191 -1 192 190 193 -1 190 192 188 -1 194 192 193 -1 192 194 195 -1 196 197 198 -1 197 196 199 -1 200 201 202 -1 201 200 203 -1 204 200 205 -1 200 204 203 -1 206 205 207 -1 205 206 204 -1 208 209 210 -1 209 208 211 -1 210 212 213 -1 212 210 209 -1 214 212 215 -1 212 214 213 -1 216 217 218 -1 217 216 219 -1 220 221 222 -1 221 220 223 -1 220 224 225 -1 224 220 222 -1 225 226 227 -1 226 225 224 -1 228 229 230 -1 229 228 231 -1 231 232 229 -1 232 231 233 -1 232 234 235 -1 234 232 233 -1 236 237 238 -1 237 236 239 -1 240 241 242 -1 241 240 243 -1 241 244 242 -1 244 241 245 -1 245 246 244 -1 246 245 247 -1 248 249 250 -1 249 248 251 -1 251 248 252 -1 251 252 253 -1 253 252 254 -1 253 254 255 -1 256 257 258 -1 257 256 259 -1 259 256 260 -1 259 260 261 -1 261 260 262 -1 261 262 263 -1 264 265 266 -1 265 264 267 -1 267 264 268 -1 267 268 269 -1 269 268 270 -1 269 270 271 -1 272 273 274 -1 273 272 275 -1 273 275 276 -1 276 275 277 -1 276 277 278 -1 278 277 279 -1 "
								                >
									<Coordinate DEF="coords_ME_ID31"
									            point="3.149606 3.937008 0.708661 1.574803 0.000000 1.417323 1.574803 3.937008 1.417323 3.149606 0.000000 0.708661 5.249344 3.937008 0.236220 11.417322 3.937008 0.000000 7.874016 3.937008 0.000000 11.417322 3.937008 0.787402 3.149606 3.937008 0.708661 1.574803 3.937008 1.417323 16.929134 3.937008 0.787402 20.472441 3.937008 0.000000 16.929134 3.937008 0.000000 23.097113 3.937008 0.236220 25.196850 3.937008 0.708661 26.771652 3.937008 1.417323 0.524934 3.937008 2.362205 27.821522 3.937008 2.362205 0.000000 3.937008 3.543307 28.346457 3.937008 3.543307 5.118110 3.937008 4.724409 0.000000 3.937008 5.905512 18.110235 3.937008 4.724409 4.527559 3.937008 4.882647 4.095246 3.937008 5.314961 3.937008 3.937008 5.905512 11.417322 3.937008 5.905512 16.535433 3.937008 5.905512 11.259085 3.937008 5.314961 11.811023 3.937008 5.905512 10.236221 3.937008 4.724409 17.519686 3.937008 4.882647 10.826772 3.937008 4.882647 17.087372 3.937008 5.314961 16.929134 3.937008 5.905512 23.228346 3.937008 4.724409 28.346457 3.937008 5.905512 23.818897 3.937008 4.882647 24.251211 3.937008 5.314961 24.409447 3.937008 5.905512 5.249344 3.937008 0.236220 3.149606 0.000000 0.708661 3.149606 3.937008 0.708661 5.249344 0.000000 0.236220 20.472441 0.000000 0.000000 16.929134 0.000000 0.787402 16.929134 0.000000 -0.000000 23.097113 0.000000 0.236220 25.196850 0.000000 0.708661 26.771652 0.000000 1.417323 11.417322 0.000000 0.787402 7.874016 0.000000 0.000000 11.417322 0.000000 -0.000000 5.249344 0.000000 0.236220 3.149606 0.000000 0.708661 1.574803 0.000000 1.417323 27.821522 0.000000 2.362205 0.524934 0.000000 2.362205 0.000000 0.000000 3.543307 28.346457 0.000000 3.543307 23.228346 0.000000 4.724409 28.346457 0.000000 5.905512 18.110235 0.000000 4.724409 23.818897 0.000000 4.882647 24.251211 0.000000 5.314961 24.409447 0.000000 5.905512 17.519686 0.000000 4.882647 10.236220 0.000000 4.724409 10.826772 0.000000 4.882647 17.087372 0.000000 5.314961 11.259085 0.000000 5.314961 16.929134 0.000000 5.905512 16.535433 0.000000 5.905512 11.417322 0.000000 5.905512 11.811023 0.000000 5.905512 5.118110 0.000000 4.724409 0.000000 0.000000 5.905512 4.527559 0.000000 4.882647 4.095246 0.000000 5.314961 3.937008 0.000000 5.905512 1.574803 3.937008 1.417323 0.524934 0.000000 2.362205 0.524934 3.937008 2.362205 1.574803 0.000000 1.417323 11.811023 0.000000 5.905512 11.417322 0.393701 5.905512 11.417322 0.000000 5.905512 11.811023 3.937008 5.905512 3.937008 0.000000 5.905512 3.937008 3.543307 5.905512 0.000000 0.000000 5.905512 3.937008 0.393701 5.905512 11.417322 3.543307 5.905512 11.417322 3.937008 5.905512 3.937008 3.937008 5.905512 0.000000 3.937008 5.905512 11.811023 0.000000 5.905512 16.535433 3.937008 5.905512 11.811023 3.937008 5.905512 16.535433 0.000000 5.905512 16.535433 0.000000 5.905512 16.929134 3.937008 5.905512 16.535433 3.937008 5.905512 16.929134 3.543307 5.905512 16.929134 0.000000 5.905512 16.929134 0.393701 5.905512 24.409447 3.543307 5.905512 24.409447 0.393701 5.905512 28.346457 3.937008 5.905512 24.409447 3.937008 5.905512 24.409447 0.000000 5.905512 28.346457 0.000000 5.905512 17.087372 3.543307 5.314961 16.929134 3.937008 5.905512 16.929134 3.543307 5.905512 17.087372 3.937008 5.314961 17.519686 3.543307 4.882647 17.519686 3.937008 4.882647 18.110235 3.937008 4.724409 18.110235 3.543307 4.724409 18.110235 3.543307 4.724409 23.228346 3.937008 4.724409 18.110235 3.937008 4.724409 23.228346 3.543307 4.724409 23.228346 3.543307 4.724409 23.818897 3.937008 4.882647 23.228346 3.937008 4.724409 23.818897 3.543307 4.882647 24.251211 3.543307 5.314960 24.251211 3.937008 5.314961 24.409447 3.543307 5.905512 24.409447 3.937008 5.905512 28.346457 3.937008 3.543307 28.346457 0.000000 5.905512 28.346457 0.000000 3.543307 28.346457 3.937008 5.905512 27.821522 0.000000 2.362205 28.346457 3.937008 3.543307 28.346457 0.000000 3.543307 27.821522 3.937008 2.362205 27.821522 3.937008 2.362205 26.771652 0.000000 1.417323 26.771652 3.937008 1.417323 27.821522 0.000000 2.362205 26.771652 3.937008 1.417323 25.196850 0.000000 0.708661 25.196850 3.937008 0.708661 26.771652 0.000000 1.417323 25.196850 3.937008 0.708661 23.097113 0.000000 0.236220 23.097113 3.937008 0.236220 25.196850 0.000000 0.708661 23.097113 3.937008 0.236220 20.472441 0.000000 0.000000 20.472441 3.937008 0.000000 23.097113 0.000000 0.236220 20.472441 3.937008 0.000000 16.929134 0.000000 -0.000000 16.929134 3.937008 0.000000 20.472441 0.000000 0.000000 16.929134 3.937008 0.787402 16.929134 0.000000 -0.000000 16.929134 0.000000 0.787402 16.929134 3.937008 0.000000 16.929134 3.937008 0.787402 11.417322 0.000000 0.787402 11.417322 3.937008 0.787402 16.929134 0.000000 0.787402 11.417322 0.000000 -0.000000 11.417322 3.937008 0.787402 11.417322 0.000000 0.787402 11.417322 3.937008 0.000000 11.417322 3.937008 0.000000 7.874016 0.000000 0.000000 7.874016 3.937008 0.000000 11.417322 0.000000 -0.000000 7.874016 3.937008 0.000000 5.249344 0.000000 0.236220 5.249344 3.937008 0.236220 7.874016 0.000000 0.000000 0.000000 3.937008 3.543307 0.524934 0.000000 2.362205 0.000000 0.000000 3.543307 0.524934 3.937008 2.362205 0.000000 3.937008 5.905512 0.000000 0.000000 3.543307 0.000000 0.000000 5.905512 0.000000 3.937008 3.543307 4.095246 3.937008 5.314961 3.937008 3.543307 5.905512 4.095246 3.543307 5.314961 3.937008 3.937008 5.905512 4.527559 3.937008 4.882647 4.527559 3.543307 4.882647 5.118110 3.543307 4.724409 5.118110 3.937008 4.724409 10.236220 3.543307 4.724409 5.118110 3.937008 4.724409 5.118110 3.543307 4.724409 10.236221 3.937008 4.724409 10.826772 3.543307 4.882647 10.236221 3.937008 4.724409 10.236220 3.543307 4.724409 10.826772 3.937008 4.882647 11.259085 3.937008 5.314961 11.259085 3.543307 5.314961 11.417322 3.937008 5.905512 11.417322 3.543307 5.905512 24.409447 0.000000 5.905512 24.251211 0.393701 5.314961 24.251211 0.000000 5.314961 24.409447 0.393701 5.905512 23.818897 0.393701 4.882647 23.818897 0.000000 4.882647 23.228346 0.000000 4.724409 23.228346 0.393701 4.724410 18.110235 0.000000 4.724409 23.228346 0.393701 4.724410 18.110235 0.393701 4.724409 23.228346 0.000000 4.724409 17.519686 0.000000 4.882647 18.110235 0.393701 4.724409 17.519684 0.393701 4.882647 18.110235 0.000000 4.724409 17.087372 0.393701 5.314961 17.087372 0.000000 5.314961 16.929134 0.393701 5.905512 16.929134 0.000000 5.905512 11.417322 0.393701 5.905512 11.259085 0.000000 5.314961 11.417322 0.000000 5.905512 11.259085 0.393701 5.314961 10.826772 0.000000 4.882647 10.826772 0.393701 4.882647 10.236220 0.393701 4.724409 10.236220 0.000000 4.724409 10.236220 0.000000 4.724409 5.118110 0.393701 4.724409 5.118110 0.000000 4.724409 10.236220 0.393701 4.724409 5.118110 0.000000 4.724409 4.527559 0.393701 4.882647 4.527559 0.000000 4.882647 5.118110 0.393701 4.724409 4.095246 0.000000 5.314961 4.095246 0.393701 5.314961 3.937008 0.000000 5.905512 3.937008 0.393701 5.905512 10.826772 0.393701 4.882647 5.118110 0.393701 4.724409 10.236220 0.393701 4.724409 4.527559 0.393701 4.882647 11.259085 0.393701 5.314961 4.095246 0.393701 5.314961 11.417322 0.393701 5.905512 3.937008 0.393701 5.905512 4.527559 3.543307 4.882647 10.236220 3.543307 4.724409 5.118110 3.543307 4.724409 10.826772 3.543307 4.882647 4.095246 3.543307 5.314961 11.259085 3.543307 5.314961 3.937008 3.543307 5.905512 11.417322 3.543307 5.905512 17.519686 3.543307 4.882647 23.228346 3.543307 4.724409 18.110235 3.543307 4.724409 23.818897 3.543307 4.882647 17.087372 3.543307 5.314961 24.251211 3.543307 5.314960 16.929134 3.543307 5.905512 24.409447 3.543307 5.905512 23.228346 0.393701 4.724410 17.519684 0.393701 4.882647 18.110235 0.393701 4.724409 23.818897 0.393701 4.882647 17.087372 0.393701 5.314961 24.251211 0.393701 5.314961 16.929134 0.393701 5.905512 24.409447 0.393701 5.905512 "
									            />
								</IndexedFaceSet>
							</Shape>
						</Group>
					</Transform>
				</Transform>
				<Transform DEF="instance_4_TRANSFORM"
				           translation="47.244091 1.181103 10.629922"
				           scale="1.000000 1.000000 1.000000"
				           rotation="0.000000 0.000000 1.000000 1.570796"
				           >
					<Transform DEF="instance_4_ifs_TRANSFORM"
					           translation="0.000001 -0.000006 0.000001"
					           scale="1.000000 1.000000 1.000000"
					           rotation="0.000000 0.000000 -0.000000 0.000000"
					           >
						<Group DEF="group_ME_ID39">
							<Shape>
								<Appearance>
								</Appearance>
								<IndexedFaceSet solid="false"
								                coordIndex="0 1 2 -1 1 0 3 -1 4 5 6 -1 5 4 7 -1 8 9 10 -1 9 8 11 -1 12 13 14 -1 13 12 15 -1 16 17 18 -1 17 16 19 -1 20 21 22 -1 21 20 23 -1 "
								                >
									<Coordinate DEF="coords_ME_ID39"
									            point="3.937008 0.000000 5.905512 0.000000 0.000000 0.000000 3.937008 0.000000 0.000000 0.000000 0.000000 5.905512 3.937008 0.000000 5.905512 0.000000 47.244091 5.905512 0.000000 0.000000 5.905512 3.937008 47.244091 5.905512 0.000000 47.244091 5.905512 0.000000 0.000000 0.000000 0.000000 0.000000 5.905512 0.000000 47.244091 0.000000 3.937008 47.244091 0.000000 0.000000 0.000000 0.000000 0.000000 47.244091 0.000000 3.937008 0.000000 0.000000 3.937008 47.244091 0.000000 3.937008 0.000000 5.905512 3.937008 0.000000 0.000000 3.937008 47.244091 5.905512 0.000000 47.244091 5.905512 3.937008 47.244091 0.000000 0.000000 47.244091 0.000000 3.937008 47.244091 5.905512 "
									            />
								</IndexedFaceSet>
							</Shape>
						</Group>
					</Transform>
				</Transform>
				<Transform DEF="instance_5_TRANSFORM"
				           translation="38.496063 0.000001 8.267716"
				           scale="1.000000 1.000000 1.000000"
				           rotation="0.000000 0.000000 1.000000 1.570796"
				           >
					<Transform DEF="instance_5_ifs_TRANSFORM"
					           translation="0.000001 -0.000003 0.000000"
					           scale="1.000000 1.000000 1.000000"
					           rotation="0.000000 0.000000 -0.000000 0.000000"
					           >
						<Group USE="group_ME_ID23" />
					</Transform>
				</Transform>
			</Transform>
			<Transform DEF="group_1_TRANSFORM"
			           translation="8.574803 0.000000 0.000000"
			           scale="1.000000 1.000000 1.000000"
			           rotation="0.000000 1.000000 0.000000 0.000000"
			           >
				<Transform DEF="group_2_TRANSFORM"
				           translation="0.000000 1.181102 10.629922"
				           scale="1.000000 1.000000 1.000000"
				           rotation="0.000000 1.000000 0.000000 0.000000"
				           >
					<Transform DEF="group_2_ifs_TRANSFORM"
					           translation="0.000000 0.000000 0.000001"
					           scale="1.000000 1.000000 1.000000"
					           rotation="0.000000 1.000000 0.000000 0.000000"
					           >
						<Group DEF="group_ME_ID48">
							<Shape>
								<Appearance>
									<Material DEF="MA_material_004"
									          diffuseColor="1.000 1.000 1.000"
									          specularColor="0.401 0.401 0.401"
									          emissiveColor="0.000 0.000 0.000"
									          ambientIntensity="0.000"
									          shininess="0.500"
									          transparency="0.000"
									          />
								</Appearance>
								<IndexedFaceSet solid="false"
								                coordIndex="0 1 2 -1 1 0 3 -1 4 5 6 -1 5 4 7 -1 8 9 10 -1 9 8 11 -1 12 13 14 -1 13 12 15 -1 16 17 18 -1 17 16 19 -1 20 21 22 -1 21 20 23 -1 "
								                >
									<Coordinate DEF="coords_ME_ID48"
									            point="29.921259 0.000000 5.905512 0.000000 0.000000 0.000000 29.921259 0.000000 0.000000 0.000000 0.000000 5.905512 29.921259 3.937008 0.000000 29.921259 0.000000 5.905512 29.921259 0.000000 0.000000 29.921259 3.937008 5.905512 29.921259 0.000000 5.905512 0.000000 3.937008 5.905512 0.000000 0.000000 5.905512 29.921259 3.937008 5.905512 0.000000 3.937008 5.905512 0.000000 0.000000 0.000000 0.000000 0.000000 5.905512 0.000000 3.937008 0.000000 0.000000 3.937008 0.000000 29.921259 0.000000 0.000000 0.000000 0.000000 0.000000 29.921259 3.937008 0.000000 0.000000 3.937008 0.000000 29.921259 3.937008 5.905512 29.921259 3.937008 0.000000 0.000000 3.937008 5.905512 "
									            />
								</IndexedFaceSet>
							</Shape>
						</Group>
					</Transform>
				</Transform>
				<Transform DEF="instance_6_TRANSFORM"
				           translation="18.503937 0.000000 0.000000"
				           scale="1.000000 1.000000 1.000000"
				           rotation="0.000000 0.000000 1.000000 1.570796"
				           >
					<Transform DEF="instance_6_ifs_TRANSFORM"
					           translation="-0.000000 -0.000002 0.000000"
					           scale="1.000000 1.000000 1.000000"
					           rotation="0.000000 0.000000 -0.000000 0.000000"
					           >
						<Group USE="group_ME_ID5" />
					</Transform>
				</Transform>
				<Transform DEF="instance_7_TRANSFORM"
				           translation="5.511811 0.000000 8.267716"
				           scale="1.000000 1.000000 1.000000"
				           rotation="0.000000 0.000000 1.000000 1.570796"
				           >
					<Transform DEF="instance_7_ifs_TRANSFORM"
					           translation="-0.000000 -0.000001 0.000000"
					           scale="1.000000 1.000000 1.000000"
					           rotation="0.000000 0.000000 -0.000000 0.000000"
					           >
						<Group USE="group_ME_ID23" />
					</Transform>
				</Transform>
				<Transform DEF="instance_8_TRANSFORM"
				           translation="0.787402 1.181102 2.362205"
				           scale="1.000000 1.000000 1.000000"
				           rotation="0.000000 1.000000 0.000000 0.000000"
				           >
					<Transform DEF="instance_8_ifs_TRANSFORM"
					           translation="0.000001 0.000000 0.000000"
					           scale="1.000000 1.000000 1.000000"
					           rotation="0.000000 1.000000 0.000000 0.000000"
					           >
						<Group USE="group_ME_ID31" />
					</Transform>
				</Transform>
				<Transform DEF="instance_9_TRANSFORM"
				           translation="29.921261 0.000000 8.267716"
				           scale="1.000000 1.000000 1.000000"
				           rotation="0.000000 0.000000 1.000000 1.570796"
				           >
					<Transform DEF="instance_9_ifs_TRANSFORM"
					           translation="0.000000 -0.000004 0.000000"
					           scale="1.000000 1.000000 1.000000"
					           rotation="0.000000 0.000000 -0.000000 0.000000"
					           >
						<Group USE="group_ME_ID23" />
					</Transform>
				</Transform>
				<Transform DEF="instance_10_TRANSFORM"
				           translation="18.503937 0.000000 8.267716"
				           scale="1.000000 1.000000 1.000000"
				           rotation="0.000000 0.000000 1.000000 1.570796"
				           >
					<Transform DEF="instance_10_ifs_TRANSFORM"
					           translation="-0.000000 -0.000002 0.000000"
					           scale="1.000000 1.000000 1.000000"
					           rotation="0.000000 0.000000 -0.000000 0.000000"
					           >
						<Group USE="group_ME_ID5" />
					</Transform>
				</Transform>
			</Transform>
		</Transform>
	</Scene>
</X3D>