<?xml version="1.0" encoding="UTF-8"?>
<!DOCTYPE X3D PUBLIC "ISO//Web3D//DTD X3D 3.0//EN" "http://www.web3d.org/specifications/x3d-3.0.dtd">
<X3D version="3.0" profile="Immersive" xmlns:xsd="http://www.w3.org/2001/XMLSchema-instance" xsd:noNamespaceSchemaLocation="http://www.web3d.org/specifications/x3d-3.0.xsd">
	<head>
		<meta name="filename" content="05-2-A 重栱A.x3d" />
		<meta name="created" content="2025-12-28 14:03:07" />
		<meta name="generator" content="Blender 4.2.2 LTS" />
		<meta name="translator" content="Web3D X3D/VRML2 format v2.5.1" />
	</head>
	<Scene>
		<NavigationInfo headlight="true"
		                visibilityLimit="0.0"
		                type='"EXAMINE", "ANY"'
		                avatarSize="0.25, 1.75, 0.75"
		                />
		<Background DEF="WO_World"
		            groundColor="0.051 0.051 0.051"
		            skyColor="0.051 0.051 0.051"
		            />
		<Transform DEF="instance_0_TRANSFORM"
		           translation="-12.314460 3.149606 -667.716553"
		           scale="1.000000 1.000000 1.000000"
		           rotation="-1.000000 0.000000 0.000000 1.570796"
		           >
		</Transform>
		<Transform DEF="SketchUp_TRANSFORM"
		           translation="0.000000 0.000000 0.000000"
		           scale="0.025400 0.025400 0.025400"
		           rotation="-1.000000 0.000000 0.000000 1.570796"
		           >
			<Transform DEF="group_0_TRANSFORM"
			           translation="8.937711 0.469980 0.092759"
			           scale="1.000000 1.000000 1.000000"
			           rotation="0.000000 0.000000 1.000000 1.570796"
			           >
				<Transform DEF="instance_0_001_TRANSFORM"
				           translation="26.586615 -0.000001 0.000000"
				           scale="1.000000 1.000000 1.000000"
				           rotation="0.000000 0.000000 1.000000 1.570796"
				           >
					<Transform DEF="instance_0_001_ifs_TRANSFORM"
					           translation="-0.000001 -0.000001 0.000000"
					           scale="1.000000 1.000000 1.000000"
					           rotation="0.000000 0.000000 -0.000000 0.000000"
					           >
						<Group DEF="group_ME_ID5_003">
							<Shape>
								<Appearance>
								</Appearance>
								<IndexedFaceSet solid="false"
								                coordIndex="0 1 2 -1 1 0 3 -1 1 3 4 -1 5 6 7 -1 6 5 8 -1 9 10 11 -1 10 9 12 -1 13 14 15 -1 14 13 16 -1 2 17 18 -1 17 2 1 -1 17 1 19 -1 19 1 4 -1 20 21 22 -1 21 20 23 -1 24 8 5 -1 8 24 25 -1 26 16 13 -1 16 26 27 -1 18 28 29 -1 28 18 17 -1 28 17 19 -1 28 19 30 -1 31 22 32 -1 22 31 20 -1 33 25 24 -1 25 33 34 -1 35 27 26 -1 27 35 36 -1 37 38 39 -1 38 37 40 -1 40 37 41 -1 42 32 43 -1 32 42 31 -1 44 45 46 -1 45 44 47 -1 45 47 48 -1 46 49 50 -1 49 46 45 -1 50 49 51 -1 52 53 54 -1 53 52 55 -1 53 55 56 -1 54 57 58 -1 57 54 53 -1 58 57 59 -1 60 61 62 -1 61 60 63 -1 64 65 66 -1 65 64 67 -1 68 69 70 -1 69 68 71 -1 69 71 72 -1 72 71 73 -1 73 71 74 -1 75 70 69 -1 76 77 78 -1 77 76 79 -1 80 81 82 -1 83 84 85 -1 84 83 86 -1 84 86 87 -1 87 86 81 -1 87 81 80 -1 88 89 90 -1 89 88 91 -1 92 93 94 -1 93 92 95 -1 96 97 98 -1 97 96 99 -1 100 101 102 -1 101 100 103 -1 104 105 106 -1 105 104 107 -1 "
								                >
									<Coordinate DEF="coords_ME_ID5_003"
									            point="5.511811 0.787402 0.000000 5.614210 6.299213 0.595353 5.614210 0.685003 0.595353 5.511811 6.299213 0.000000 5.614210 6.401612 0.595353 5.614210 0.685003 0.595353 0.787402 0.787402 0.000000 5.511811 0.787402 0.000000 0.685003 0.685003 0.595353 5.511811 6.299213 0.000000 0.787402 0.787402 0.000000 0.787402 6.299213 0.000000 5.511811 0.787402 0.000000 0.685003 6.401612 0.595353 5.511811 6.299213 0.000000 0.787402 6.299213 0.000000 5.614210 6.401612 0.595353 5.884369 6.299212 1.135672 5.884369 0.414843 1.135672 5.884369 6.671771 1.135672 0.685003 6.401612 0.595353 0.787402 0.787402 0.000000 0.685003 0.685003 0.595353 0.787402 6.299213 0.000000 5.884369 0.414843 1.135672 0.414843 0.414843 1.135672 0.414843 6.671771 1.135672 5.884369 6.671771 1.135672 6.299213 6.299213 1.574803 6.299213 0.000000 1.574803 6.299213 7.086615 1.574803 0.414843 6.671771 1.135672 0.414843 0.414843 1.135672 6.299213 0.000000 1.574803 0.000000 0.000000 1.574803 0.000000 7.086615 1.574803 6.299213 7.086615 1.574803 6.299213 6.299213 1.574803 6.299213 0.000000 3.937008 6.299213 0.000000 1.574803 6.299213 7.086615 3.937008 6.299213 7.086615 1.574803 0.000000 7.086615 1.574803 0.000000 0.000000 1.574803 6.299213 0.000000 1.574803 5.118110 0.000000 2.362205 0.000000 0.000000 1.574803 6.299213 0.000000 3.937008 5.118110 0.000000 3.937008 1.181102 0.000000 2.362205 0.000000 0.000000 3.937008 1.181102 0.000000 3.937008 0.000000 7.086615 1.574803 1.181102 7.086615 2.362205 6.299213 7.086615 1.574803 0.000000 7.086615 3.937008 1.181102 7.086615 3.937008 5.118110 7.086615 2.362205 6.299213 7.086615 3.937008 5.118110 7.086615 3.937008 6.299213 0.000000 3.937008 5.118110 7.086615 3.937008 5.118110 0.000000 3.937008 6.299213 7.086615 3.937008 0.000000 7.086615 3.937008 0.000000 0.000000 1.574803 0.000000 0.000000 3.937008 0.000000 7.086615 1.574803 5.118110 0.000000 3.937008 5.118110 0.787402 3.149606 5.118110 0.000000 2.362205 5.118110 7.086615 3.937008 5.118110 6.299213 3.149606 5.118110 6.299213 2.362205 5.118110 7.086615 2.362205 5.118110 0.787402 2.362205 5.118110 0.000000 2.362205 1.181102 0.787402 2.362205 1.181102 0.000000 2.362205 5.118110 0.787402 2.362205 1.181102 7.086615 2.362205 1.181102 6.299213 3.149606 1.181102 6.299213 2.362205 1.181102 0.787402 2.362205 1.181102 0.000000 3.937008 1.181102 0.000000 2.362205 1.181102 0.787402 3.149606 1.181102 7.086615 3.937008 1.181102 0.000000 3.937008 0.000000 7.086615 3.937008 0.000000 0.000000 3.937008 1.181102 7.086615 3.937008 1.181102 6.299213 2.362205 5.118110 7.086615 2.362205 1.181102 7.086615 2.362205 5.118110 6.299213 2.362205 1.181102 6.299213 3.149606 5.118110 6.299213 2.362205 1.181102 6.299213 2.362205 5.118110 6.299213 3.149606 5.118110 0.787402 3.149606 1.181102 6.299213 3.149606 1.181102 0.787402 3.149606 5.118110 6.299213 3.149606 5.118110 0.787402 3.149606 1.181102 0.787402 2.362205 5.118110 0.787402 2.362205 1.181102 0.787402 3.149606 "
									            />
								</IndexedFaceSet>
							</Shape>
						</Group>
					</Transform>
				</Transform>
				<Transform DEF="instance_1_TRANSFORM"
				           translation="19.893702 -0.000001 8.267717"
				           scale="1.000000 1.000000 1.000000"
				           rotation="0.000000 0.000000 -0.000000 0.000000"
				           >
					<Transform DEF="instance_1_ifs_TRANSFORM"
					           translation="0.000001 -0.000001 0.000001"
					           scale="1.000000 1.000000 1.000000"
					           rotation="0.000000 0.000000 -0.000000 0.000000"
					           >
						<Group DEF="group_ME_ID15_003">
							<Shape>
								<Appearance>
								</Appearance>
								<IndexedFaceSet solid="false"
								                coordIndex="0 1 2 -1 1 0 3 -1 4 5 6 -1 7 8 9 -1 8 7 10 -1 8 10 11 -1 11 10 5 -1 11 5 4 -1 12 13 14 -1 13 12 15 -1 15 12 16 -1 16 17 18 -1 17 16 19 -1 19 16 12 -1 20 21 22 -1 21 20 23 -1 21 23 24 -1 24 23 25 -1 25 23 26 -1 27 22 21 -1 28 29 30 -1 29 28 31 -1 31 28 32 -1 33 34 35 -1 34 33 36 -1 37 38 39 -1 38 37 40 -1 41 42 43 -1 42 41 44 -1 44 41 45 -1 45 46 47 -1 46 45 48 -1 48 45 41 -1 49 50 51 -1 50 49 52 -1 53 54 55 -1 54 53 56 -1 57 58 59 -1 58 57 60 -1 61 62 63 -1 62 61 64 -1 65 66 67 -1 66 65 68 -1 69 70 71 -1 70 69 72 -1 73 74 75 -1 74 73 76 -1 77 78 79 -1 78 77 80 -1 80 77 81 -1 81 77 82 -1 83 84 85 -1 84 83 86 -1 56 87 54 -1 87 56 88 -1 89 76 73 -1 76 89 90 -1 79 91 92 -1 91 79 93 -1 93 79 80 -1 80 79 78 -1 85 94 95 -1 94 85 84 -1 88 96 87 -1 96 88 97 -1 98 90 89 -1 90 98 99 -1 92 100 101 -1 100 92 93 -1 93 92 91 -1 95 102 103 -1 102 95 94 -1 104 105 106 -1 105 104 107 -1 "
								                >
									<Coordinate DEF="coords_ME_ID15_003"
									            point="6.299213 5.118110 3.937008 0.000000 6.299213 3.937008 0.000000 5.118110 3.937008 6.299213 6.299213 3.937008 0.000000 6.299213 3.937008 0.000000 5.118110 2.362205 0.000000 5.118110 3.937008 0.000000 1.181102 3.937008 0.000000 0.000000 1.574803 0.000000 0.000000 3.937008 0.000000 1.181102 2.362205 0.000000 6.299213 1.574803 6.299213 5.118110 3.937008 5.511811 5.118110 2.362205 6.299213 5.118110 2.362205 5.511811 5.118110 3.149606 0.787402 5.118110 3.149606 0.000000 5.118110 2.362205 0.787402 5.118110 2.362205 0.000000 5.118110 3.937008 6.299213 0.000000 1.574803 6.299213 1.181102 2.362205 6.299213 0.000000 3.937008 6.299213 6.299213 1.574803 6.299213 5.118110 2.362205 6.299213 5.118110 3.937008 6.299213 6.299213 3.937008 6.299213 1.181102 3.937008 0.000000 6.299213 3.937008 0.787402 6.299213 1.574803 0.000000 6.299213 1.574803 6.299213 6.299213 1.574803 6.299213 6.299213 3.937008 6.299213 0.000000 3.937008 0.000000 0.000000 1.574803 6.299213 0.000000 1.574803 0.000000 0.000000 3.937008 6.299213 0.000000 3.937008 0.000000 1.181102 3.937008 0.000000 0.000000 3.937008 6.299213 1.181102 3.937008 0.000000 1.181102 3.937008 0.787402 1.181102 2.362205 0.000000 1.181102 2.362205 0.787402 1.181102 3.149606 5.511811 1.181102 3.149606 6.299213 1.181102 2.362205 5.511811 1.181102 2.362205 6.299213 1.181102 3.937008 0.787402 1.181102 2.362205 0.000000 5.118110 2.362205 0.000000 1.181102 2.362205 0.787402 5.118110 2.362205 0.000000 6.299213 1.574803 0.414843 0.414843 1.135672 0.000000 0.000000 1.574803 0.414843 5.884369 1.135672 0.787402 5.118110 3.149606 0.787402 1.181102 2.362205 0.787402 1.181102 3.149606 0.787402 5.118110 2.362205 5.511811 1.181102 3.149606 0.787402 5.118110 3.149606 0.787402 1.181102 3.149606 5.511811 5.118110 3.149606 5.511811 5.118110 2.362205 5.511811 1.181102 3.149606 5.511811 1.181102 2.362205 5.511811 5.118110 3.149606 6.299213 1.181102 2.362205 5.511811 5.118110 2.362205 5.511811 1.181102 2.362205 6.299213 5.118110 2.362205 5.884369 0.414843 1.135672 6.299213 6.299213 1.574803 6.299213 0.000000 1.574803 5.884369 5.884369 1.135672 0.000000 6.299213 1.574803 0.787402 5.884369 1.135672 0.414843 5.884369 1.135672 5.884369 5.884369 1.135672 6.299213 6.299213 1.574803 0.787402 6.299213 1.574803 6.299213 0.000000 1.574803 0.414843 0.414843 1.135672 5.884369 0.414843 1.135672 0.000000 0.000000 1.574803 0.685003 0.685003 0.595353 0.685003 5.614210 0.595353 5.614210 0.685003 0.595353 5.614210 5.614210 0.595353 0.787402 5.614210 0.595353 0.685003 5.614210 0.595353 5.614210 5.614210 0.595353 0.685003 0.685003 0.595353 5.614210 0.685003 0.595353 0.787402 0.787402 0.000000 0.787402 5.511811 0.000000 5.511811 0.787402 0.000000 5.511811 5.511811 0.000000 5.511811 5.511811 0.000000 0.787402 5.511811 0.000000 0.787402 0.787402 0.000000 5.511811 0.787402 0.000000 5.511811 5.511811 0.000000 0.787402 0.787402 0.000000 0.787402 5.511811 0.000000 5.511811 0.787402 0.000000 "
									            />
								</IndexedFaceSet>
							</Shape>
						</Group>
					</Transform>
				</Transform>
				<Transform DEF="instance_2_TRANSFORM"
				           translation="15.562992 -0.000001 8.267717"
				           scale="1.000000 1.000000 1.000000"
				           rotation="0.000000 0.000000 1.000000 1.570796"
				           >
					<Transform DEF="instance_2_ifs_TRANSFORM"
					           translation="-0.000000 0.000001 0.000001"
					           scale="1.000000 1.000000 1.000000"
					           rotation="0.000000 0.000000 -0.000000 0.000000"
					           >
						<Group DEF="group_ME_ID23_002">
							<Shape>
								<Appearance>
								</Appearance>
								<IndexedFaceSet solid="false"
								                coordIndex="0 1 2 -1 1 0 3 -1 4 5 6 -1 5 4 7 -1 5 7 8 -1 9 10 11 -1 10 9 12 -1 13 14 15 -1 14 13 16 -1 17 3 0 -1 3 17 18 -1 19 20 21 -1 20 19 22 -1 6 23 24 -1 23 6 5 -1 23 5 8 -1 23 8 25 -1 26 15 27 -1 15 26 13 -1 28 18 17 -1 18 28 29 -1 30 22 19 -1 22 30 31 -1 24 32 33 -1 32 24 23 -1 32 23 25 -1 32 25 34 -1 35 27 36 -1 27 35 26 -1 37 38 39 -1 38 37 40 -1 38 40 41 -1 39 42 43 -1 42 39 38 -1 43 42 44 -1 45 31 30 -1 31 45 46 -1 47 48 49 -1 48 47 50 -1 50 47 51 -1 52 53 54 -1 53 52 55 -1 56 57 58 -1 57 56 59 -1 60 61 62 -1 61 60 63 -1 64 65 66 -1 65 64 67 -1 68 69 70 -1 69 68 71 -1 72 73 74 -1 73 72 75 -1 76 77 78 -1 77 76 79 -1 77 79 80 -1 78 81 82 -1 81 78 77 -1 82 81 83 -1 "
								                >
									<Coordinate DEF="coords_ME_ID23_002"
									            point="0.685003 4.826808 0.595353 5.511811 4.724409 0.000000 0.787402 4.724409 0.000000 5.614210 4.826808 0.595353 5.511811 0.787402 0.000000 5.614210 4.724409 0.595353 5.614210 0.685003 0.595353 5.511811 4.724409 0.000000 5.614210 4.826808 0.595353 5.511811 4.724409 0.000000 0.787402 0.787402 0.000000 0.787402 4.724409 0.000000 5.511811 0.787402 0.000000 0.685003 4.826808 0.595353 0.787402 0.787402 0.000000 0.685003 0.685003 0.595353 0.787402 4.724409 0.000000 0.414843 5.096968 1.135672 5.884369 5.096968 1.135672 5.614210 0.685003 0.595353 0.787402 0.787402 0.000000 5.511811 0.787402 0.000000 0.685003 0.685003 0.595353 5.884369 4.724409 1.135672 5.884369 0.414843 1.135672 5.884369 5.096968 1.135672 0.414843 5.096968 1.135672 0.414843 0.414843 1.135672 0.000000 5.511811 1.574803 6.299213 5.511811 1.574803 5.884369 0.414843 1.135672 0.414843 0.414843 1.135672 6.299213 4.724409 1.574803 6.299213 0.000000 1.574803 6.299213 5.511811 1.574803 0.000000 5.511811 1.574803 0.000000 0.000000 1.574803 0.000000 5.511811 1.574803 1.181102 5.511811 2.362205 6.299213 5.511811 1.574803 0.000000 5.511811 3.937008 1.181102 5.511811 3.937008 5.118110 5.511811 2.362205 6.299213 5.511811 3.937008 5.118110 5.511811 3.937008 6.299213 0.000000 1.574803 0.000000 0.000000 1.574803 6.299213 4.724409 1.574803 6.299213 0.000000 3.937008 6.299213 0.000000 1.574803 6.299213 5.511811 3.937008 6.299213 5.511811 1.574803 0.000000 5.511811 3.937008 0.000000 0.000000 1.574803 0.000000 0.000000 3.937008 0.000000 5.511811 1.574803 1.181102 0.000000 3.937008 0.000000 5.511811 3.937008 0.000000 0.000000 3.937008 1.181102 5.511811 3.937008 1.181102 5.511811 2.362205 1.181102 0.000000 3.937008 1.181102 0.000000 2.362205 1.181102 5.511811 3.937008 5.118110 0.000000 2.362205 1.181102 5.511811 2.362205 1.181102 0.000000 2.362205 5.118110 5.511811 2.362205 5.118110 5.511811 3.937008 5.118110 0.000000 2.362205 5.118110 0.000000 3.937008 5.118110 5.511811 2.362205 6.299213 0.000000 3.937008 5.118110 5.511811 3.937008 5.118110 0.000000 3.937008 6.299213 5.511811 3.937008 6.299213 0.000000 1.574803 5.118110 0.000000 2.362205 0.000000 0.000000 1.574803 6.299213 0.000000 3.937008 5.118110 0.000000 3.937008 1.181102 0.000000 2.362205 0.000000 0.000000 3.937008 1.181102 0.000000 3.937008 "
									            />
								</IndexedFaceSet>
							</Shape>
						</Group>
					</Transform>
				</Transform>
				<Transform DEF="instance_3_TRANSFORM"
				           translation="47.244095 1.181101 18.897638"
				           scale="1.000000 1.000000 1.000000"
				           rotation="0.000000 0.000000 1.000000 1.570796"
				           >
					<Transform DEF="instance_3_ifs_TRANSFORM"
					           translation="-0.000000 -0.000009 0.000002"
					           scale="1.000000 1.000000 1.000000"
					           rotation="0.000000 0.000000 -0.000000 0.000000"
					           >
						<Group DEF="group_ME_ID31_002">
							<Shape>
								<Appearance>
								</Appearance>
								<IndexedFaceSet solid="false"
								                coordIndex="0 1 2 -1 1 0 3 -1 4 5 6 -1 5 4 7 -1 8 9 10 -1 9 8 11 -1 12 13 14 -1 13 12 15 -1 16 17 18 -1 17 16 19 -1 20 21 22 -1 21 20 23 -1 "
								                >
									<Coordinate DEF="coords_ME_ID31_002"
									            point="3.937008 -0.000000 5.905512 0.000000 0.000000 0.000000 3.937008 -0.000000 0.000000 0.000000 0.000000 5.905512 3.937008 -0.000000 5.905512 0.000000 47.244091 5.905512 0.000000 0.000000 5.905512 3.937008 47.244091 5.905512 0.000000 47.244091 5.905512 0.000000 0.000000 0.000000 0.000000 0.000000 5.905512 0.000000 47.244091 0.000000 0.000000 47.244091 0.000000 3.937008 -0.000000 0.000000 0.000000 0.000000 0.000000 3.937008 47.244091 0.000000 3.937008 47.244091 0.000000 3.937008 -0.000000 5.905512 3.937008 -0.000000 0.000000 3.937008 47.244091 5.905512 0.000000 47.244091 5.905512 3.937008 47.244091 0.000000 0.000000 47.244091 0.000000 3.937008 47.244091 5.905512 "
									            />
								</IndexedFaceSet>
							</Shape>
						</Group>
					</Transform>
				</Transform>
				<Transform DEF="instance_4_TRANSFORM"
				           translation="36.035435 0.009581 8.267717"
				           scale="1.000000 1.000000 1.000000"
				           rotation="0.000000 0.000000 1.000000 1.570796"
				           >
					<Transform DEF="instance_4_ifs_TRANSFORM"
					           translation="-0.000001 -0.000005 0.000001"
					           scale="1.000000 1.000000 1.000000"
					           rotation="0.000000 0.000000 -0.000000 0.000000"
					           >
						<Group USE="group_ME_ID23_002" />
					</Transform>
				</Transform>
				<Transform DEF="instance_5_TRANSFORM"
				           translation="10.838584 1.181101 2.362205"
				           scale="1.000000 1.000000 1.000000"
				           rotation="0.000000 0.000000 -0.000000 0.000000"
				           >
					<Transform DEF="instance_5_ifs_TRANSFORM"
					           translation="0.000002 -0.000001 0.000000"
					           scale="1.000000 1.000000 1.000000"
					           rotation="0.000000 0.000000 -0.000000 0.000000"
					           >
						<Group DEF="group_ME_ID40_001">
							<Shape>
								<Appearance>
								</Appearance>
								<IndexedFaceSet solid="false"
								                coordIndex="0 1 2 -1 1 0 3 -1 4 5 6 -1 5 4 7 -1 7 4 8 -1 7 8 9 -1 9 10 11 -1 10 9 12 -1 12 9 13 -1 13 9 8 -1 13 8 14 -1 13 14 15 -1 15 14 16 -1 15 16 17 -1 17 16 18 -1 18 16 19 -1 17 18 20 -1 18 19 21 -1 21 19 22 -1 22 19 23 -1 20 24 25 -1 24 20 18 -1 25 24 26 -1 25 26 27 -1 25 27 28 -1 28 27 29 -1 28 29 30 -1 17 31 32 -1 31 17 20 -1 32 31 33 -1 32 33 34 -1 32 34 35 -1 36 37 38 -1 37 36 39 -1 40 41 42 -1 41 40 43 -1 41 43 44 -1 41 44 45 -1 45 46 47 -1 46 45 48 -1 48 45 49 -1 49 45 44 -1 49 44 50 -1 49 50 51 -1 51 50 52 -1 51 52 53 -1 53 52 54 -1 54 52 55 -1 54 55 56 -1 56 55 57 -1 57 55 58 -1 59 60 61 -1 60 59 62 -1 62 59 63 -1 62 63 64 -1 64 63 65 -1 64 65 66 -1 53 67 68 -1 67 53 61 -1 61 53 54 -1 67 61 60 -1 68 67 69 -1 68 69 70 -1 68 70 71 -1 72 73 74 -1 73 72 75 -1 76 77 78 -1 77 76 79 -1 80 81 82 -1 81 80 83 -1 81 83 84 -1 84 83 85 -1 84 85 86 -1 86 85 87 -1 82 88 89 -1 88 82 81 -1 90 85 91 -1 85 90 92 -1 85 92 87 -1 92 90 93 -1 93 94 92 -1 94 93 95 -1 94 96 97 -1 96 94 95 -1 96 95 98 -1 96 98 99 -1 100 101 102 -1 101 100 103 -1 104 103 100 -1 103 104 105 -1 104 106 105 -1 106 104 107 -1 108 109 110 -1 109 108 111 -1 112 113 114 -1 113 112 115 -1 115 116 113 -1 116 115 117 -1 118 117 119 -1 117 118 116 -1 120 121 122 -1 121 120 123 -1 124 125 126 -1 125 124 127 -1 128 129 130 -1 129 128 131 -1 132 133 134 -1 133 132 135 -1 136 137 138 -1 137 136 139 -1 140 141 142 -1 141 140 143 -1 144 145 146 -1 145 144 147 -1 148 149 150 -1 149 148 151 -1 152 153 154 -1 153 152 155 -1 156 157 158 -1 157 156 159 -1 160 161 162 -1 161 160 163 -1 164 165 166 -1 165 164 167 -1 168 169 170 -1 169 168 171 -1 172 171 168 -1 171 172 173 -1 174 173 172 -1 173 174 175 -1 176 177 178 -1 177 176 179 -1 180 181 182 -1 181 180 183 -1 79 180 77 -1 180 79 183 -1 184 185 186 -1 185 184 187 -1 188 187 189 -1 187 188 185 -1 190 189 191 -1 189 190 188 -1 192 193 194 -1 193 192 195 -1 196 197 198 -1 197 196 199 -1 196 200 201 -1 200 196 198 -1 201 202 203 -1 202 201 200 -1 204 205 206 -1 205 204 207 -1 207 208 205 -1 208 207 209 -1 208 210 211 -1 210 208 209 -1 212 213 214 -1 213 212 215 -1 216 217 218 -1 217 216 219 -1 218 220 221 -1 220 218 217 -1 221 222 223 -1 222 221 220 -1 224 225 226 -1 225 224 227 -1 227 224 228 -1 228 224 229 -1 228 229 230 -1 230 229 231 -1 232 233 234 -1 233 232 235 -1 235 232 236 -1 235 236 237 -1 237 236 238 -1 237 238 239 -1 240 241 242 -1 241 240 243 -1 243 240 244 -1 244 240 245 -1 244 245 246 -1 246 245 247 -1 248 249 250 -1 249 248 251 -1 251 248 252 -1 251 252 253 -1 253 252 254 -1 253 254 255 -1 "
								                >
									<Coordinate DEF="coords_ME_ID40_001"
									            point="20.629921 3.937008 0.354331 18.110235 0.000000 0.000000 18.110235 3.937008 0.000000 20.629921 0.000000 0.354331 3.779527 3.937008 0.354331 9.448818 3.937008 0.000000 6.299213 3.937008 0.000000 9.448818 3.937008 0.787402 1.889764 3.937008 1.062992 14.960629 3.937008 0.787402 18.110235 3.937008 0.000000 14.960629 3.937008 0.000000 20.629921 3.937008 0.354331 22.519684 3.937008 1.062992 0.629921 3.937008 2.125984 23.779526 3.937008 2.125984 0.000000 3.937008 3.543307 24.409447 3.937008 3.543307 5.118110 3.937008 4.724409 0.000000 3.937008 5.905512 15.748032 3.937008 4.724409 4.527559 3.937008 4.882647 4.095246 3.937008 5.314961 3.937008 3.937008 5.905512 8.661417 3.937008 4.724409 15.157480 3.937008 4.882647 9.251968 3.937008 4.882647 9.684281 3.937008 5.314961 14.725166 3.937008 5.314961 9.842520 3.937008 5.905512 14.566929 3.937008 5.905512 19.291338 3.937008 4.724409 24.409447 3.937008 5.905512 19.881889 3.937008 4.882647 20.314203 3.937008 5.314961 20.472441 3.937008 5.905512 22.519684 3.937008 1.062992 20.629921 0.000000 0.354331 20.629921 3.937008 0.354331 22.519684 0.000000 1.062992 18.110235 0.000000 0.000000 14.960629 0.000000 0.787402 14.960629 0.000000 -0.000000 20.629921 0.000000 0.354331 22.519684 0.000000 1.062992 9.448818 0.000000 0.787402 6.299213 0.000000 0.000000 9.448818 0.000000 -0.000000 3.779527 0.000000 0.354331 1.889764 0.000000 1.062992 23.779526 0.000000 2.125984 0.629921 0.000000 2.125984 24.409447 0.000000 3.543307 0.000000 0.000000 3.543307 19.291338 0.000000 4.724409 24.409447 0.000000 5.905512 19.881889 0.000000 4.882647 20.314203 0.000000 5.314961 20.472441 0.000000 5.905512 15.157480 0.000000 4.882647 8.661417 0.000000 4.724409 15.748032 0.000000 4.724409 9.251968 0.000000 4.882647 14.725166 0.000000 5.314961 9.684281 0.000000 5.314961 14.566929 0.000000 5.905512 9.842520 0.000000 5.905512 5.118110 0.000000 4.724409 0.000000 0.000000 5.905512 4.527559 0.000000 4.882647 4.095246 0.000000 5.314961 3.937008 0.000000 5.905512 14.960629 3.937008 0.000000 18.110235 0.000000 0.000000 14.960629 0.000000 -0.000000 18.110235 3.937008 0.000000 9.842520 3.937008 5.905512 9.684281 3.543307 5.314961 9.842520 3.543307 5.905512 9.684281 3.937008 5.314961 3.937008 0.000000 5.905512 3.937008 3.543307 5.905512 0.000000 0.000000 5.905512 3.937008 0.393701 5.905512 9.842520 3.543307 5.905512 9.842520 0.393701 5.905512 9.842520 3.937008 5.905512 14.566929 3.937008 5.905512 3.937008 3.937008 5.905512 0.000000 3.937008 5.905512 14.566929 0.000000 5.905512 9.842520 0.000000 5.905512 14.566929 3.543307 5.905512 14.566929 0.393701 5.905512 20.472441 3.543307 5.905512 20.472441 0.393701 5.905512 24.409447 3.937008 5.905512 20.472441 3.937008 5.905512 20.472441 0.000000 5.905512 24.409447 0.000000 5.905512 14.725166 3.543307 5.314961 14.566929 3.937008 5.905512 14.566929 3.543307 5.905512 14.725166 3.937008 5.314961 15.157480 3.543307 4.882647 15.157480 3.937008 4.882647 15.748032 3.937008 4.724409 15.748032 3.543307 4.724409 15.748032 3.543307 4.724409 19.291338 3.937008 4.724409 15.748032 3.937008 4.724409 19.291338 3.543307 4.724409 19.291338 3.543307 4.724409 19.881889 3.937008 4.882647 19.291338 3.937008 4.724409 19.881889 3.543307 4.882647 20.314203 3.937008 5.314961 20.314203 3.543307 5.314961 20.472441 3.937008 5.905512 20.472441 3.543307 5.905512 24.409447 3.937008 3.543307 24.409447 0.000000 5.905512 24.409447 0.000000 3.543307 24.409447 3.937008 5.905512 23.779526 3.937008 2.125984 24.409447 0.000000 3.543307 23.779526 0.000000 2.125984 24.409447 3.937008 3.543307 23.779526 3.937008 2.125984 22.519684 0.000000 1.062992 22.519684 3.937008 1.062992 23.779526 0.000000 2.125984 14.960629 3.937008 0.787402 14.960629 0.000000 -0.000000 14.960629 0.000000 0.787402 14.960629 3.937008 0.000000 9.448818 3.937008 0.787402 14.960629 0.000000 0.787402 9.448818 0.000000 0.787402 14.960629 3.937008 0.787402 9.448818 0.000000 -0.000000 9.448818 3.937008 0.787402 9.448818 0.000000 0.787402 9.448818 3.937008 0.000000 9.448818 3.937008 0.000000 6.299213 0.000000 0.000000 6.299213 3.937008 0.000000 9.448818 0.000000 -0.000000 6.299213 3.937008 0.000000 3.779527 0.000000 0.354331 3.779527 3.937008 0.354331 6.299213 0.000000 0.000000 3.779527 3.937008 0.354331 1.889764 0.000000 1.062992 1.889764 3.937008 1.062992 3.779527 0.000000 0.354331 1.889764 3.937008 1.062992 0.629921 0.000000 2.125984 0.629921 3.937008 2.125984 1.889764 0.000000 1.062992 0.000000 0.000000 3.543307 0.629921 3.937008 2.125984 0.629921 0.000000 2.125984 0.000000 3.937008 3.543307 0.000000 3.937008 5.905512 0.000000 0.000000 3.543307 0.000000 0.000000 5.905512 0.000000 3.937008 3.543307 4.095246 3.543307 5.314961 3.937008 3.937008 5.905512 3.937008 3.543307 5.905512 4.095246 3.937008 5.314961 4.527559 3.543307 4.882647 4.527559 3.937008 4.882647 5.118110 3.543307 4.724409 5.118110 3.937008 4.724409 8.661417 3.543307 4.724409 5.118110 3.937008 4.724409 5.118110 3.543307 4.724409 8.661417 3.937008 4.724409 9.251968 3.543307 4.882647 8.661417 3.937008 4.724409 8.661417 3.543307 4.724409 9.251968 3.937008 4.882647 20.472441 0.393701 5.905512 20.314203 0.000000 5.314961 20.472441 0.000000 5.905512 20.314203 0.393701 5.314961 19.881889 0.000000 4.882647 19.881889 0.393701 4.882647 19.291338 0.000000 4.724409 19.291338 0.393701 4.724409 15.748032 0.000000 4.724409 19.291338 0.393701 4.724409 15.748032 0.393701 4.724409 19.291338 0.000000 4.724409 15.157480 0.000000 4.882647 15.748032 0.393701 4.724409 15.157480 0.393701 4.882647 15.748032 0.000000 4.724409 14.725166 0.393701 5.314961 14.725166 0.000000 5.314961 14.566929 0.393701 5.905512 14.566929 0.000000 5.905512 9.842520 0.393701 5.905512 9.684281 0.000000 5.314961 9.842520 0.000000 5.905512 9.684281 0.393701 5.314961 9.251968 0.000000 4.882647 9.251968 0.393701 4.882647 8.661417 0.393701 4.724409 8.661417 0.000000 4.724409 8.661417 0.000000 4.724409 5.118110 0.393701 4.724409 5.118110 0.000000 4.724409 8.661417 0.393701 4.724409 5.118110 0.000000 4.724409 4.527559 0.393701 4.882647 4.527559 0.000000 4.882647 5.118110 0.393701 4.724409 4.095246 0.393701 5.314961 4.095246 0.000000 5.314961 3.937008 0.393701 5.905512 3.937008 0.000000 5.905512 4.527559 3.543307 4.882647 8.661417 3.543307 4.724409 5.118110 3.543307 4.724409 9.251968 3.543307 4.882647 9.684281 3.543307 5.314961 4.095246 3.543307 5.314961 9.842520 3.543307 5.905512 3.937008 3.543307 5.905512 9.251968 0.393701 4.882647 5.118110 0.393701 4.724409 8.661417 0.393701 4.724409 4.527559 0.393701 4.882647 9.684281 0.393701 5.314961 4.095246 0.393701 5.314961 9.842520 0.393701 5.905512 3.937008 0.393701 5.905512 19.881889 0.393701 4.882647 15.748032 0.393701 4.724409 19.291338 0.393701 4.724409 15.157480 0.393701 4.882647 14.725166 0.393701 5.314961 20.314203 0.393701 5.314961 14.566929 0.393701 5.905512 20.472441 0.393701 5.905512 15.157480 3.543307 4.882647 19.291338 3.543307 4.724409 15.748032 3.543307 4.724409 19.881889 3.543307 4.882647 14.725166 3.543307 5.314961 20.314203 3.543307 5.314961 14.566929 3.543307 5.905512 20.472441 3.543307 5.905512 "
									            />
								</IndexedFaceSet>
							</Shape>
						</Group>
					</Transform>
				</Transform>
				<Transform DEF="instance_6_TRANSFORM"
				           translation="9.657480 -0.000001 16.535435"
				           scale="1.000000 1.000000 1.000000"
				           rotation="0.000000 0.000000 1.000000 1.570796"
				           >
					<Transform DEF="instance_6_ifs_TRANSFORM"
					           translation="-0.000001 -0.000000 0.000002"
					           scale="1.000000 1.000000 1.000000"
					           rotation="0.000000 0.000000 -0.000000 0.000000"
					           >
						<Group USE="group_ME_ID23_002" />
					</Transform>
				</Transform>
				<Transform DEF="instance_7_TRANSFORM"
				           translation="41.940945 -0.000001 16.535435"
				           scale="1.000000 1.000000 1.000000"
				           rotation="0.000000 0.000000 1.000000 1.570796"
				           >
					<Transform DEF="instance_7_ifs_TRANSFORM"
					           translation="-0.000000 -0.000005 0.000002"
					           scale="1.000000 1.000000 1.000000"
					           rotation="0.000000 0.000000 -0.000000 0.000000"
					           >
						<Group USE="group_ME_ID23_002" />
					</Transform>
				</Transform>
				<Transform DEF="instance_8_TRANSFORM"
				           translation="19.893700 -0.000001 16.535435"
				           scale="1.000000 1.000000 1.000000"
				           rotation="0.000000 0.000000 -0.000000 0.000000"
				           >
					<Transform DEF="instance_8_ifs_TRANSFORM"
					           translation="0.000001 -0.000001 0.000002"
					           scale="1.000000 1.000000 1.000000"
					           rotation="0.000000 0.000000 -0.000000 0.000000"
					           >
						<Group USE="group_ME_ID15_003" />
					</Transform>
				</Transform>
				<Transform DEF="instance_9_TRANSFORM"
				           translation="4.933071 1.181101 10.629923"
				           scale="1.000000 1.000000 1.000000"
				           rotation="0.000000 0.000000 -0.000000 0.000000"
				           >
					<Transform DEF="instance_9_ifs_TRANSFORM"
					           translation="0.000001 -0.000001 0.000001"
					           scale="1.000000 1.000000 1.000000"
					           rotation="0.000000 0.000000 -0.000000 0.000000"
					           >
						<Group DEF="group_ME_ID51_002">
							<Shape>
								<Appearance>
								</Appearance>
								<IndexedFaceSet solid="false"
								                coordIndex="0 1 2 -1 1 0 3 -1 4 5 6 -1 5 4 7 -1 5 7 8 -1 5 8 9 -1 9 8 10 -1 10 11 12 -1 11 10 13 -1 13 10 14 -1 14 10 8 -1 14 8 15 -1 14 15 16 -1 16 15 17 -1 16 17 18 -1 18 17 19 -1 19 17 20 -1 19 20 21 -1 21 20 22 -1 22 20 23 -1 24 25 26 -1 25 24 27 -1 27 24 28 -1 27 28 29 -1 29 28 30 -1 29 30 31 -1 18 32 33 -1 32 18 19 -1 32 19 26 -1 32 26 25 -1 33 32 34 -1 33 34 35 -1 33 35 36 -1 37 38 39 -1 38 37 40 -1 41 42 43 -1 42 41 44 -1 44 41 45 -1 44 45 46 -1 46 45 47 -1 47 48 49 -1 48 47 50 -1 50 47 51 -1 51 47 45 -1 51 45 52 -1 51 52 53 -1 53 52 54 -1 53 54 55 -1 55 54 56 -1 56 54 57 -1 56 57 58 -1 58 57 59 -1 59 57 60 -1 61 62 63 -1 62 61 64 -1 64 61 65 -1 64 65 66 -1 66 65 67 -1 66 67 68 -1 55 69 70 -1 69 55 56 -1 69 56 63 -1 69 63 62 -1 70 69 71 -1 70 71 72 -1 70 72 73 -1 74 75 76 -1 75 74 77 -1 78 79 80 -1 79 78 81 -1 79 81 82 -1 82 81 83 -1 82 83 84 -1 84 83 85 -1 80 86 87 -1 86 80 79 -1 88 83 89 -1 83 88 90 -1 83 90 85 -1 90 88 91 -1 91 92 90 -1 92 91 93 -1 92 94 95 -1 94 92 93 -1 94 93 96 -1 94 96 97 -1 98 99 100 -1 99 98 101 -1 101 102 99 -1 102 101 103 -1 102 104 105 -1 104 102 103 -1 106 107 108 -1 107 106 109 -1 110 111 112 -1 111 110 113 -1 111 114 112 -1 114 111 115 -1 114 116 117 -1 116 114 115 -1 118 119 120 -1 119 118 121 -1 122 123 124 -1 123 122 125 -1 126 127 128 -1 127 126 129 -1 130 131 132 -1 131 130 133 -1 134 135 136 -1 135 134 137 -1 138 139 140 -1 139 138 141 -1 142 143 144 -1 143 142 145 -1 146 147 148 -1 147 146 149 -1 150 151 152 -1 151 150 153 -1 154 155 156 -1 155 154 157 -1 158 159 160 -1 159 158 161 -1 162 163 164 -1 163 162 165 -1 166 167 168 -1 167 166 169 -1 170 171 172 -1 171 170 173 -1 171 174 175 -1 174 171 173 -1 176 174 177 -1 174 176 175 -1 178 179 180 -1 179 178 181 -1 182 183 184 -1 183 182 185 -1 182 186 187 -1 186 182 184 -1 187 188 189 -1 188 187 186 -1 190 191 192 -1 191 190 193 -1 194 195 196 -1 195 194 197 -1 198 197 194 -1 197 198 199 -1 198 200 199 -1 200 198 201 -1 202 203 204 -1 203 202 205 -1 206 207 208 -1 207 206 209 -1 210 207 209 -1 207 210 211 -1 212 210 213 -1 210 212 211 -1 214 215 216 -1 215 214 217 -1 218 217 214 -1 217 218 219 -1 220 219 218 -1 219 220 221 -1 222 223 224 -1 223 222 225 -1 226 227 228 -1 227 226 229 -1 191 229 226 -1 229 191 193 -1 230 231 232 -1 231 230 233 -1 233 230 234 -1 233 234 235 -1 235 234 236 -1 235 236 237 -1 238 239 240 -1 239 238 241 -1 241 238 242 -1 241 242 243 -1 243 242 244 -1 243 244 245 -1 246 247 248 -1 247 246 249 -1 249 246 250 -1 249 250 251 -1 251 250 252 -1 251 252 253 -1 254 255 256 -1 255 254 257 -1 257 254 258 -1 257 258 259 -1 259 258 260 -1 259 260 261 -1 "
								                >
									<Coordinate DEF="coords_ME_ID51_002"
									            point="34.803150 3.937008 1.062992 35.748028 0.000000 2.125984 34.803150 0.000000 1.062992 35.748028 3.937008 2.125984 31.496063 0.000000 0.000000 20.472441 0.000000 0.787402 20.472441 0.000000 -0.000000 33.385826 0.000000 0.354331 34.803150 0.000000 1.062992 18.110235 0.000000 0.787402 15.748032 0.000000 0.787402 4.724409 0.000000 0.000000 15.748032 0.000000 -0.000000 2.834646 0.000000 0.354331 1.417323 0.000000 1.062992 35.748028 0.000000 2.125984 0.472441 0.000000 2.125984 36.220470 0.000000 3.543307 0.000000 0.000000 3.543307 31.102362 0.000000 4.724409 36.220470 0.000000 5.905512 31.692911 0.000000 4.882647 32.125229 0.000000 5.314961 32.283466 0.000000 5.905512 21.062992 0.000000 4.882647 14.566929 0.000000 4.724409 21.653543 0.000000 4.724409 15.157480 0.000000 4.882647 20.630678 0.000000 5.314961 15.589794 0.000000 5.314961 20.472441 0.000000 5.905512 15.748032 0.000000 5.905512 5.118110 0.000000 4.724409 0.000000 0.000000 5.905512 4.527559 0.000000 4.882647 4.095246 0.000000 5.314961 3.937008 0.000000 5.905512 34.803150 3.937008 1.062992 33.385826 0.000000 0.354331 33.385826 3.937008 0.354331 34.803150 0.000000 1.062992 2.834646 3.937008 0.354331 15.748032 3.937008 0.000000 4.724409 3.937008 0.000000 15.748032 3.937008 0.787402 1.417323 3.937008 1.062992 18.110235 3.937008 0.787402 20.472441 3.937008 0.787402 31.496063 3.937008 0.000000 20.472441 3.937008 0.000000 33.385826 3.937008 0.354331 34.803150 3.937008 1.062992 0.472441 3.937008 2.125984 35.748028 3.937008 2.125984 0.000000 3.937008 3.543307 36.220470 3.937008 3.543307 5.118110 3.937008 4.724409 0.000000 3.937008 5.905512 4.527559 3.937008 4.882647 4.095246 3.937008 5.314961 3.937008 3.937008 5.905512 15.157480 3.937008 4.882647 21.653543 3.937008 4.724409 14.566929 3.937008 4.724409 21.062992 3.937008 4.882647 15.589794 3.937008 5.314961 20.630678 3.937008 5.314961 15.748032 3.937008 5.905512 20.472441 3.937008 5.905512 31.102362 3.937008 4.724409 36.220470 3.937008 5.905512 31.692911 3.937008 4.882647 32.125229 3.937008 5.314961 32.283466 3.937008 5.905512 35.748028 3.937008 2.125984 36.220470 0.000000 3.543307 35.748028 0.000000 2.125984 36.220470 3.937008 3.543307 3.937008 0.000000 5.905512 3.937008 3.543307 5.905512 0.000000 0.000000 5.905512 3.937008 0.393701 5.905512 15.748032 3.543307 5.905512 15.748032 0.393701 5.905512 15.748032 3.937008 5.905512 20.472441 3.937008 5.905512 3.937008 3.937008 5.905512 0.000000 3.937008 5.905512 20.472441 0.000000 5.905512 15.748032 0.000000 5.905512 20.472441 3.543307 5.905512 20.472441 0.393701 5.905512 32.283466 3.543307 5.905512 32.283463 0.393701 5.905512 36.220470 3.937008 5.905512 32.283466 3.937008 5.905512 32.283466 0.000000 5.905512 36.220470 0.000000 5.905512 15.748032 0.393701 5.905512 15.589794 0.000000 5.314961 15.748032 0.000000 5.905512 15.589794 0.393701 5.314961 15.157480 0.000000 4.882647 15.157480 0.393701 4.882647 14.566928 0.393701 4.724409 14.566929 0.000000 4.724409 14.566929 0.000000 4.724409 5.118110 0.393701 4.724409 5.118110 0.000000 4.724409 14.566928 0.393701 4.724409 5.118110 0.000000 4.724409 4.527559 0.393701 4.882647 4.527559 0.000000 4.882647 5.118110 0.393701 4.724409 4.095246 0.000000 5.314961 4.095245 0.393701 5.314961 3.937008 0.393701 5.905512 3.937008 0.000000 5.905512 0.000000 3.937008 5.905512 0.000000 0.000000 3.543307 0.000000 0.000000 5.905512 0.000000 3.937008 3.543307 0.000000 0.000000 3.543307 0.472441 3.937008 2.125984 0.472441 0.000000 2.125984 0.000000 3.937008 3.543307 0.472441 0.000000 2.125984 1.417323 3.937008 1.062992 1.417323 0.000000 1.062992 0.472441 3.937008 2.125984 2.834646 3.937008 0.354331 1.417323 0.000000 1.062992 1.417323 3.937008 1.062992 2.834646 0.000000 0.354331 4.724409 3.937008 0.000000 2.834646 0.000000 0.354331 2.834646 3.937008 0.354331 4.724409 0.000000 0.000000 15.748032 3.937008 0.000000 4.724409 0.000000 0.000000 4.724409 3.937008 0.000000 15.748032 0.000000 -0.000000 15.748032 0.000000 -0.000000 15.748032 3.937008 0.787402 15.748032 0.000000 0.787402 15.748032 3.937008 0.000000 18.110235 3.937008 0.787402 15.748032 0.000000 0.787402 15.748032 3.937008 0.787402 18.110235 0.000000 0.787402 20.472441 3.937008 0.787402 18.110235 0.000000 0.787402 18.110235 3.937008 0.787402 20.472441 0.000000 0.787402 20.472441 3.937008 0.787402 20.472441 0.000000 -0.000000 20.472441 0.000000 0.787402 20.472441 3.937008 0.000000 31.496063 3.937008 0.000000 20.472441 0.000000 -0.000000 20.472441 3.937008 0.000000 31.496063 0.000000 0.000000 33.385826 3.937008 0.354331 31.496063 0.000000 0.000000 31.496063 3.937008 0.000000 33.385826 0.000000 0.354331 36.220470 3.937008 3.543307 36.220470 0.000000 5.905512 36.220470 0.000000 3.543307 36.220470 3.937008 5.905512 32.283463 0.393701 5.905512 32.125229 0.000000 5.314961 32.283466 0.000000 5.905512 32.125229 0.393701 5.314961 31.692911 0.393701 4.882647 31.692911 0.000000 4.882647 31.102362 0.000000 4.724409 31.102362 0.393701 4.724409 21.653543 0.000000 4.724409 31.102362 0.393701 4.724409 21.653543 0.393701 4.724409 31.102362 0.000000 4.724409 21.062992 0.000000 4.882647 21.653543 0.393701 4.724409 21.062992 0.393701 4.882647 21.653543 0.000000 4.724409 20.630678 0.393701 5.314961 20.630678 0.000000 5.314961 20.472441 0.393701 5.905512 20.472441 0.000000 5.905512 15.748032 3.937008 5.905512 15.589794 3.543307 5.314961 15.748032 3.543307 5.905512 15.589794 3.937008 5.314961 20.630678 3.543307 5.314961 20.472441 3.937008 5.905512 20.472441 3.543307 5.905512 20.630678 3.937008 5.314961 21.062992 3.543307 4.882647 21.062992 3.937008 4.882647 21.653543 3.937008 4.724409 21.653543 3.543307 4.724409 21.653543 3.543307 4.724409 31.102362 3.937008 4.724409 21.653543 3.937008 4.724409 31.102362 3.543307 4.724409 31.102362 3.543307 4.724409 31.692911 3.937008 4.882647 31.102362 3.937008 4.724409 31.692911 3.543307 4.882647 32.125229 3.543307 5.314961 32.125229 3.937008 5.314961 32.283466 3.937008 5.905512 32.283466 3.543307 5.905512 4.095246 3.543307 5.314961 3.937008 3.937008 5.905512 3.937008 3.543307 5.905512 4.095246 3.937008 5.314961 4.527559 3.543307 4.882647 4.527559 3.937008 4.882647 5.118110 3.543307 4.724409 5.118110 3.937008 4.724409 14.566929 3.543307 4.724409 5.118110 3.937008 4.724409 5.118110 3.543307 4.724409 14.566929 3.937008 4.724409 15.157479 3.543307 4.882647 14.566929 3.937008 4.724409 14.566929 3.543307 4.724409 15.157480 3.937008 4.882647 15.157480 0.393701 4.882647 5.118110 0.393701 4.724409 14.566928 0.393701 4.724409 4.527559 0.393701 4.882647 15.589794 0.393701 5.314961 4.095245 0.393701 5.314961 15.748032 0.393701 5.905512 3.937008 0.393701 5.905512 31.692911 0.393701 4.882647 21.653543 0.393701 4.724409 31.102362 0.393701 4.724409 21.062992 0.393701 4.882647 32.125229 0.393701 5.314961 20.630678 0.393701 5.314961 32.283463 0.393701 5.905512 20.472441 0.393701 5.905512 21.062992 3.543307 4.882647 31.102362 3.543307 4.724409 21.653543 3.543307 4.724409 31.692911 3.543307 4.882647 20.630678 3.543307 5.314961 32.125229 3.543307 5.314961 20.472441 3.543307 5.905512 32.283466 3.543307 5.905512 4.527559 3.543307 4.882647 14.566929 3.543307 4.724409 5.118110 3.543307 4.724409 15.157479 3.543307 4.882647 4.095246 3.543307 5.314961 15.589794 3.543307 5.314961 3.937008 3.543307 5.905512 15.748032 3.543307 5.905512 "
									            />
								</IndexedFaceSet>
							</Shape>
						</Group>
					</Transform>
				</Transform>
			</Transform>
			<Transform DEF="group_1_TRANSFORM"
			           translation="23.291189 20.937632 0.092759"
			           scale="1.000000 1.000000 1.000000"
			           rotation="0.000000 1.000000 0.000000 0.000000"
			           >
				<Transform DEF="instance_10_TRANSFORM"
				           translation="0.787401 1.181103 10.629923"
				           scale="1.000000 1.000000 1.000000"
				           rotation="0.000000 1.000000 0.000000 0.000000"
				           >
					<Transform DEF="instance_10_ifs_TRANSFORM"
					           translation="0.000002 0.000004 0.000001"
					           scale="1.000000 1.000000 1.000000"
					           rotation="0.000000 1.000000 0.000000 0.000000"
					           >
						<Group USE="group_ME_ID51_002" />
					</Transform>
				</Transform>
				<Transform DEF="instance_11_TRANSFORM"
				           translation="15.748032 0.000002 16.535435"
				           scale="1.000000 1.000000 1.000000"
				           rotation="0.000000 1.000000 0.000000 0.000000"
				           >
					<Transform DEF="instance_11_ifs_TRANSFORM"
					           translation="0.000000 0.000002 0.000002"
					           scale="1.000000 1.000000 1.000000"
					           rotation="0.000000 1.000000 0.000000 0.000000"
					           >
						<Group USE="group_ME_ID15_003" />
					</Transform>
				</Transform>
				<Transform DEF="instance_12_TRANSFORM"
				           translation="6.692913 1.181103 2.362205"
				           scale="1.000000 1.000000 1.000000"
				           rotation="0.000000 1.000000 0.000000 0.000000"
				           >
					<Transform DEF="instance_12_ifs_TRANSFORM"
					           translation="0.000002 0.000004 0.000000"
					           scale="1.000000 1.000000 1.000000"
					           rotation="0.000000 1.000000 0.000000 0.000000"
					           >
						<Group USE="group_ME_ID40_001" />
					</Transform>
				</Transform>
				<Transform DEF="instance_13_TRANSFORM"
				           translation="31.889767 0.009583 8.267717"
				           scale="1.000000 1.000000 1.000000"
				           rotation="0.000000 0.000000 1.000000 1.570796"
				           >
					<Transform DEF="instance_13_ifs_TRANSFORM"
					           translation="0.000002 -0.000006 0.000001"
					           scale="1.000000 1.000000 1.000000"
					           rotation="0.000000 0.000000 -0.000000 0.000000"
					           >
						<Group USE="group_ME_ID23_002" />
					</Transform>
				</Transform>
				<Transform DEF="instance_14_TRANSFORM"
				           translation="5.511812 0.000002 16.535435"
				           scale="1.000000 1.000000 1.000000"
				           rotation="0.000000 0.000000 1.000000 1.570796"
				           >
					<Transform DEF="instance_14_ifs_TRANSFORM"
					           translation="0.000002 -0.000002 0.000002"
					           scale="1.000000 1.000000 1.000000"
					           rotation="0.000000 0.000000 -0.000000 0.000000"
					           >
						<Group USE="group_ME_ID23_002" />
					</Transform>
				</Transform>
				<Transform DEF="instance_15_TRANSFORM"
				           translation="37.795273 0.000002 16.535435"
				           scale="1.000000 1.000000 1.000000"
				           rotation="0.000000 0.000000 1.000000 1.570796"
				           >
					<Transform DEF="instance_15_ifs_TRANSFORM"
					           translation="0.000001 -0.000006 0.000002"
					           scale="1.000000 1.000000 1.000000"
					           rotation="0.000000 0.000000 -0.000000 0.000000"
					           >
						<Group USE="group_ME_ID23_002" />
					</Transform>
				</Transform>
				<Transform DEF="instance_16_TRANSFORM"
				           translation="11.417324 0.000002 8.267717"
				           scale="1.000000 1.000000 1.000000"
				           rotation="0.000000 0.000000 1.000000 1.570796"
				           >
					<Transform DEF="instance_16_ifs_TRANSFORM"
					           translation="0.000003 -0.000002 0.000001"
					           scale="1.000000 1.000000 1.000000"
					           rotation="0.000000 0.000000 -0.000000 0.000000"
					           >
						<Group USE="group_ME_ID23_002" />
					</Transform>
				</Transform>
				<Transform DEF="instance_17_TRANSFORM"
				           translation="15.748032 0.000002 8.267717"
				           scale="1.000000 1.000000 1.000000"
				           rotation="0.000000 1.000000 0.000000 0.000000"
				           >
					<Transform DEF="instance_17_ifs_TRANSFORM"
					           translation="0.000000 0.000002 0.000001"
					           scale="1.000000 1.000000 1.000000"
					           rotation="0.000000 1.000000 0.000000 0.000000"
					           >
						<Group USE="group_ME_ID15_003" />
					</Transform>
				</Transform>
				<Transform DEF="instance_18_TRANSFORM"
				           translation="22.440945 0.000002 0.000000"
				           scale="1.000000 1.000000 1.000000"
				           rotation="0.000000 0.000000 1.000000 1.570796"
				           >
					<Transform DEF="instance_18_ifs_TRANSFORM"
					           translation="0.000002 -0.000002 0.000000"
					           scale="1.000000 1.000000 1.000000"
					           rotation="0.000000 0.000000 -0.000000 0.000000"
					           >
						<Group USE="group_ME_ID5_003" />
					</Transform>
				</Transform>
			</Transform>
		</Transform>
	</Scene>
</X3D>