<?xml version="1.0" encoding="UTF-8"?>
<!DOCTYPE X3D PUBLIC "ISO//Web3D//DTD X3D 3.0//EN" "http://www.web3d.org/specifications/x3d-3.0.dtd">
<X3D version="3.0" profile="Immersive" xmlns:xsd="http://www.w3.org/2001/XMLSchema-instance" xsd:noNamespaceSchemaLocation="http://www.web3d.org/specifications/x3d-3.0.xsd">
	<head>
		<meta name="filename" content="05-3 枓口跳.x3d" />
		<meta name="created" content="2025-12-29 13:25:23" />
		<meta name="generator" content="Blender 4.2.2 LTS" />
		<meta name="translator" content="Web3D X3D/VRML2 format v2.5.1" />
	</head>
	<Scene>
		<NavigationInfo headlight="true"
		                visibilityLimit="0.0"
		                type='"EXAMINE", "ANY"'
		                avatarSize="0.25, 1.75, 0.75"
		                />
		<Background DEF="WO_World"
		            groundColor="0.051 0.051 0.051"
		            skyColor="0.051 0.051 0.051"
		            />
		<Transform DEF="SketchUp_TRANSFORM"
		           translation="0.000000 0.000000 0.000000"
		           scale="1.000000 1.000000 1.000000"
		           rotation="-1.000000 0.000000 0.000000 1.570796"
		           >
			<Transform DEF="SketchUp_ifs_TRANSFORM"
			           translation="0.000000 0.000000 0.000000"
			           scale="1.000000 1.000000 1.000000"
			           rotation="0.000000 1.000000 0.000000 0.000000"
			           >
				<Group DEF="group_ME_ID97">
				</Group>
			</Transform>
			<Transform DEF="group_0_TRANSFORM"
			           translation="0.000000 28.606298 12.992126"
			           scale="0.890000 1.000000 1.000000"
			           rotation="0.000000 1.000000 0.000000 0.000000"
			           >
				<Transform DEF="group_0_ifs_TRANSFORM"
				           translation="0.000000 0.000000 0.000000"
				           scale="1.000000 1.000000 1.000000"
				           rotation="0.000000 1.000000 0.000000 0.000000"
				           >
					<Group DEF="group_ME_ID3">
						<Shape>
							<Appearance>
								<Material DEF="MA_material_002"
								          diffuseColor="1.000 1.000 1.000"
								          specularColor="0.401 0.401 0.401"
								          emissiveColor="0.000 0.000 0.000"
								          ambientIntensity="0.000"
								          shininess="0.500"
								          transparency="0.000"
								          />
							</Appearance>
							<IndexedFaceSet solid="false"
							                coordIndex="0 1 2 -1 1 0 3 -1 4 5 6 -1 5 4 7 -1 8 9 10 -1 9 8 11 -1 12 13 14 -1 13 12 15 -1 16 17 18 -1 17 16 19 -1 20 21 22 -1 21 20 23 -1 "
							                >
								<Coordinate DEF="coords_ME_ID3"
								            point="0.000000 1.157480 12.204723 0.000000 5.094488 0.000000 0.000000 1.157480 0.000000 0.000000 5.094488 9.224593 42.480312 1.157480 12.204723 0.000000 1.157480 0.000000 42.480316 1.157480 0.000000 0.000000 1.157480 12.204723 0.000000 1.157480 12.204723 42.480316 5.094488 9.224593 0.000000 5.094488 9.224593 42.480312 1.157480 12.204723 0.000000 5.094488 9.224593 42.480316 5.094488 0.000000 0.000000 5.094488 0.000000 42.480316 5.094488 9.224593 42.480316 5.094488 0.000000 0.000000 1.157480 0.000000 0.000000 5.094488 0.000000 42.480316 1.157480 0.000000 42.480316 5.094488 0.000000 42.480312 1.157480 12.204723 42.480316 1.157480 0.000000 42.480316 5.094488 9.224593 "
								            />
							</IndexedFaceSet>
						</Shape>
					</Group>
				</Transform>
			</Transform>
			<Transform DEF="group_1_TRANSFORM"
			           translation="15.188777 0.000000 4.724409"
			           scale="1.000000 1.000000 1.000000"
			           rotation="0.000000 1.000000 0.000000 0.000000"
			           >
				<Transform DEF="instance_0_TRANSFORM"
				           translation="1.771653 34.094490 0.000000"
				           scale="1.000000 1.000000 1.000000"
				           rotation="0.000000 0.000000 -1.000000 1.570796"
				           >
					<Transform DEF="instance_0_ifs_TRANSFORM"
					           translation="0.000001 0.000001 0.000000"
					           scale="1.000000 1.000000 1.000000"
					           rotation="0.000000 1.000000 0.000000 0.000000"
					           >
						<Group DEF="group_ME_ID21">
							<Shape>
								<Appearance>
								</Appearance>
								<IndexedFaceSet solid="false"
								                coordIndex="0 1 2 -1 1 0 3 -1 4 5 6 -1 5 4 7 -1 5 7 8 -1 8 7 9 -1 10 7 11 -1 7 10 12 -1 7 12 13 -1 7 13 14 -1 7 14 9 -1 9 14 15 -1 12 10 16 -1 15 17 18 -1 17 15 14 -1 18 17 19 -1 18 19 20 -1 18 20 21 -1 2 22 23 -1 22 2 1 -1 24 25 26 -1 25 24 27 -1 27 24 28 -1 27 28 29 -1 30 31 32 -1 31 30 33 -1 33 30 34 -1 34 30 35 -1 27 36 37 -1 36 27 38 -1 38 27 39 -1 39 27 40 -1 40 27 29 -1 40 29 32 -1 40 32 31 -1 36 38 41 -1 42 3 0 -1 3 42 43 -1 44 45 46 -1 45 44 47 -1 47 44 48 -1 48 44 49 -1 49 44 50 -1 50 51 52 -1 51 50 44 -1 51 44 53 -1 54 55 56 -1 55 54 57 -1 58 59 60 -1 59 58 61 -1 62 63 64 -1 63 62 65 -1 64 66 67 -1 66 64 63 -1 67 68 69 -1 68 67 66 -1 70 71 72 -1 71 70 73 -1 74 75 76 -1 75 74 77 -1 78 79 80 -1 79 78 81 -1 80 82 83 -1 82 80 79 -1 84 85 86 -1 85 84 87 -1 88 89 90 -1 89 88 91 -1 92 43 42 -1 43 92 93 -1 94 95 96 -1 95 94 97 -1 98 99 100 -1 99 98 101 -1 102 101 98 -1 101 102 103 -1 101 103 104 -1 104 103 105 -1 104 106 107 -1 106 104 105 -1 106 105 108 -1 106 108 109 -1 110 111 112 -1 111 110 113 -1 113 110 114 -1 114 110 115 -1 114 115 116 -1 117 118 119 -1 118 117 120 -1 121 122 123 -1 122 121 124 -1 125 126 127 -1 126 125 128 -1 128 125 129 -1 128 129 130 -1 128 130 124 -1 128 124 121 -1 131 132 133 -1 132 131 134 -1 134 131 135 -1 134 135 136 -1 137 138 139 -1 138 137 140 -1 141 142 143 -1 142 141 144 -1 145 146 147 -1 146 145 148 -1 149 148 145 -1 148 149 150 -1 151 150 149 -1 150 151 152 -1 153 154 155 -1 154 153 156 -1 157 158 159 -1 158 157 160 -1 158 160 161 -1 158 162 163 -1 162 158 161 -1 162 161 164 -1 162 164 165 -1 165 164 166 -1 165 166 167 -1 168 169 170 -1 169 168 171 -1 172 173 174 -1 173 172 175 -1 175 172 176 -1 176 172 177 -1 176 177 178 -1 178 177 179 -1 173 180 181 -1 180 173 175 -1 182 183 184 -1 183 182 185 -1 186 187 188 -1 187 186 189 -1 189 190 187 -1 190 189 191 -1 190 192 193 -1 192 190 191 -1 194 195 196 -1 195 194 197 -1 197 194 198 -1 197 198 199 -1 199 198 200 -1 199 200 201 -1 201 200 202 -1 201 202 203 -1 203 202 204 -1 203 204 205 -1 205 204 206 -1 205 206 207 -1 208 209 210 -1 209 208 211 -1 212 213 214 -1 213 212 215 -1 213 215 216 -1 213 216 217 -1 218 219 220 -1 219 218 221 -1 222 223 224 -1 223 222 225 -1 223 225 226 -1 226 225 227 -1 228 229 230 -1 229 228 231 -1 231 228 232 -1 233 234 235 -1 234 233 236 -1 237 238 239 -1 238 237 240 -1 241 242 243 -1 242 241 244 -1 242 244 245 -1 246 247 248 -1 247 246 249 -1 250 251 252 -1 251 250 253 -1 253 250 254 -1 253 254 255 -1 255 254 256 -1 255 256 257 -1 257 256 258 -1 258 256 259 -1 258 259 260 -1 260 259 261 -1 260 261 262 -1 262 261 263 -1 262 263 264 -1 264 263 265 -1 266 267 268 -1 267 266 269 -1 270 271 272 -1 271 270 273 -1 274 275 276 -1 275 274 277 -1 278 279 280 -1 279 278 281 -1 281 278 282 -1 283 266 284 -1 266 283 269 -1 285 284 286 -1 284 285 283 -1 287 288 289 -1 288 287 290 -1 291 292 293 -1 292 291 294 -1 295 296 297 -1 296 295 298 -1 299 300 301 -1 300 299 302 -1 302 299 303 -1 304 305 306 -1 305 304 307 -1 308 309 310 -1 309 308 311 -1 312 313 314 -1 313 312 315 -1 315 208 313 -1 208 315 211 -1 316 317 318 -1 317 319 320 -1 319 317 321 -1 321 317 316 -1 322 323 324 -1 323 322 325 -1 326 327 328 -1 327 326 329 -1 330 331 332 -1 331 330 333 -1 334 335 336 -1 335 334 337 -1 "
								                >
									<Coordinate DEF="coords_ME_ID21"
									            point="3.779527 3.937008 0.354331 1.889764 0.000000 1.062992 1.889764 3.937008 1.062992 3.779527 0.000000 0.354331 11.023622 0.000000 0.000000 3.779527 0.000000 0.354331 6.299213 0.000000 0.000000 11.023622 0.000000 1.968504 1.889764 0.000000 1.062992 0.629921 0.000000 2.125984 12.204723 0.000000 5.905512 12.204723 0.000000 1.968504 11.652785 0.000000 5.314961 11.220472 0.000000 4.882647 10.629921 0.000000 4.724409 0.000000 0.000000 3.543307 11.811023 0.000000 5.905512 5.905511 0.000000 4.724409 0.000000 0.000000 5.905512 5.314960 0.000000 4.882647 4.882647 0.000000 5.314961 4.724409 0.000000 5.905512 0.629921 0.000000 2.125984 0.629921 3.937008 2.125984 3.779527 3.937008 0.354331 11.023622 3.937008 0.000000 6.299213 3.937008 0.000000 11.023622 3.937008 1.968504 1.889764 3.937008 1.062992 0.629921 3.937008 2.125984 0.000000 3.937008 5.905512 5.905512 3.937008 4.724409 0.000000 3.937008 3.543307 5.314961 3.937008 4.882647 4.882647 3.937008 5.314960 4.724409 3.937008 5.905512 12.204724 3.937008 5.905512 12.204723 3.937008 1.968504 11.652785 3.937008 5.314960 11.220472 3.937008 4.882647 10.629921 3.937008 4.724409 11.811023 3.937008 5.905512 6.299213 3.937008 0.000000 6.299213 0.000000 0.000000 12.204723 0.000000 13.818897 11.811023 0.000000 5.905512 12.204723 0.000000 5.905512 11.708624 0.000000 6.500865 11.438465 0.000000 7.041184 11.023622 0.000000 7.480315 11.023622 0.000000 8.267716 3.937008 0.000000 14.173228 3.937008 0.000000 8.267716 12.204723 0.000000 14.173228 11.811023 0.393701 5.905512 11.652785 0.000000 5.314961 11.811023 0.000000 5.905512 11.652785 0.393701 5.314961 11.652785 0.393701 5.314961 11.220472 0.000000 4.882647 11.652785 0.000000 5.314961 11.220472 0.393701 4.882647 11.220472 0.000000 4.882647 10.629921 0.393701 4.724409 10.629921 0.000000 4.724409 11.220472 0.393701 4.882647 5.905512 0.393701 4.724409 5.905511 0.000000 4.724409 5.314961 0.393701 4.882647 5.314960 0.000000 4.882647 5.314961 0.393701 4.882647 4.882647 0.000000 5.314961 5.314960 0.000000 4.882647 4.882647 0.393701 5.314961 4.882647 0.393701 5.314961 4.724409 0.000000 5.905512 4.882647 0.000000 5.314961 4.724409 0.393701 5.905512 4.724409 0.000000 5.905512 4.724409 3.543307 5.905512 0.000000 0.000000 5.905512 4.724409 0.393701 5.905512 4.724409 3.937008 5.905512 0.000000 3.937008 5.905512 0.000000 3.937008 5.905512 0.000000 0.000000 3.543307 0.000000 0.000000 5.905512 0.000000 3.937008 3.543307 0.000000 0.000000 3.543307 0.629921 3.937008 2.125984 0.629921 0.000000 2.125984 0.000000 3.937008 3.543307 11.023622 3.937008 0.000000 11.023622 0.000000 0.000000 11.023622 0.000000 0.000000 11.023622 3.937008 1.968504 11.023622 0.000000 1.968504 11.023622 3.937008 0.000000 11.023622 3.937008 1.968504 12.204723 0.000000 1.968504 11.023622 0.000000 1.968504 12.204723 0.393701 1.968504 12.204723 3.937008 1.968504 12.204723 3.543307 1.968504 16.141733 0.393701 1.968504 16.141733 3.543307 1.968504 17.322834 -0.590551 1.968504 16.141733 -0.590551 1.968504 16.141733 4.527559 1.968504 17.322834 4.527559 1.968504 12.204723 0.393701 1.968504 12.204723 0.000000 5.905512 12.204723 0.000000 1.968504 12.204723 0.000000 13.818897 12.204723 0.000000 14.173228 12.204723 0.393701 12.204723 12.204723 0.393701 14.173228 11.811023 3.937008 5.905512 11.652785 3.543307 5.314961 11.811023 3.543307 5.905512 11.652785 3.937008 5.314960 3.937008 3.937008 14.173228 5.511811 3.937008 8.267716 3.937008 3.937008 8.267716 11.023622 3.937008 8.267716 11.708624 3.937008 6.500865 12.204724 3.937008 5.905512 11.811023 3.937008 5.905512 12.204723 3.937008 14.173228 11.438465 3.937008 7.041184 11.023622 3.937008 7.480315 12.204723 3.937008 1.968504 12.204723 3.543307 12.204724 12.204723 3.543307 1.968504 12.204723 3.543307 14.173228 12.204724 3.937008 5.905512 12.204723 3.937008 14.173228 4.882647 3.937008 5.314960 4.724409 3.543307 5.905512 4.882647 3.543307 5.314961 4.724409 3.937008 5.905512 5.314961 3.937008 4.882647 4.882647 3.543307 5.314961 5.314961 3.543307 4.882647 4.882647 3.937008 5.314960 5.905512 3.543307 4.724409 5.314961 3.937008 4.882647 5.314961 3.543307 4.882647 5.905512 3.937008 4.724409 10.629921 3.543307 4.724409 10.629921 3.937008 4.724409 11.220472 3.543307 4.882647 11.220472 3.937008 4.882647 11.652785 3.937008 5.314960 11.220472 3.543307 4.882647 11.652785 3.543307 5.314961 11.220472 3.937008 4.882647 2.749562 1.968504 14.173228 3.937008 2.559055 14.173228 2.749562 2.755905 14.173228 2.749562 1.181102 14.173228 3.937008 1.377953 14.173227 12.204723 3.937008 14.173228 3.937008 3.937008 14.173228 3.937008 0.000000 14.173228 12.204723 3.543307 14.173228 12.204723 0.000000 14.173228 12.204723 0.393701 14.173228 3.937008 0.000000 14.173228 3.937008 1.377953 8.267716 3.937008 0.000000 8.267716 3.937008 1.377953 14.173227 5.511811 3.543307 8.267716 3.937008 2.559055 8.267716 3.937008 3.543307 8.267716 3.937008 1.377953 8.267716 3.937008 0.000000 8.267716 5.511811 0.393701 8.267716 11.023622 0.000000 8.267716 11.023622 0.393701 8.267716 2.749562 1.181102 8.267716 2.749562 2.755905 8.267716 11.023622 0.000000 8.267716 11.023622 0.393701 7.480315 11.023622 0.000000 7.480315 11.023622 0.393701 8.267716 11.023622 0.393701 7.480315 11.438465 0.000000 7.041184 11.023622 0.000000 7.480315 11.438465 0.393701 7.041184 11.708624 0.000000 6.500865 11.708624 0.393701 6.500865 11.811023 0.393701 5.905512 11.811023 0.000000 5.905512 11.220472 0.393701 4.882647 5.905512 0.393701 4.724409 10.629921 0.393701 4.724409 5.314961 0.393701 4.882647 11.652785 0.393701 5.314961 4.882647 0.393701 5.314961 11.811023 0.393701 5.905512 4.724409 0.393701 5.905512 11.708624 0.393701 6.500865 4.826808 0.393701 6.500865 11.438465 0.393701 7.041184 5.096968 0.393701 7.041184 11.023622 0.393701 7.480315 5.511811 0.393701 7.480315 4.826808 0.393701 6.500865 4.724409 3.543307 5.905512 4.724409 0.393701 5.905512 4.826808 3.543307 6.500865 17.322834 4.527559 0.000000 34.094490 4.527559 14.173228 34.094490 4.527559 0.000000 17.322834 4.527559 1.968504 16.141733 4.527559 1.968504 16.141733 4.527559 14.173228 17.322834 -0.590551 1.968504 17.322834 4.527559 0.000000 17.322834 -0.590551 0.000000 17.322834 4.527559 1.968504 34.094490 -0.590551 0.000000 17.322834 -0.590551 1.968504 17.322834 -0.590551 0.000000 34.094490 -0.590551 14.173228 16.141733 -0.590551 1.968504 16.141733 -0.590551 14.173228 16.141733 -0.590551 14.173228 16.141733 0.393701 1.968504 16.141733 -0.590551 1.968504 16.141733 0.393701 12.204723 16.141733 0.393701 14.173228 16.141733 0.393701 1.968504 12.204723 0.393701 12.204723 12.204723 0.393701 1.968504 16.141733 0.393701 12.204723 12.204723 3.543307 12.204724 16.141733 3.543307 1.968504 12.204723 3.543307 1.968504 16.141733 3.543307 12.204723 16.141733 3.543307 14.173227 16.141733 3.543307 1.968504 16.141733 3.543307 12.204723 16.141733 4.527559 14.173228 16.141733 4.527559 1.968504 12.204723 3.543307 12.204724 12.204723 0.393701 14.173228 12.204723 0.393701 12.204723 12.204723 3.543307 14.173228 5.314961 3.543307 4.882647 10.629921 3.543307 4.724409 5.905512 3.543307 4.724409 11.220472 3.543307 4.882647 4.882647 3.543307 5.314961 11.652785 3.543307 5.314961 4.724409 3.543307 5.905512 11.811023 3.543307 5.905512 11.708624 3.543307 6.500865 4.826808 3.543307 6.500865 11.438465 3.543307 7.041184 5.096968 3.543307 7.041184 11.023622 3.543307 7.480315 5.511811 3.543307 7.480315 11.023622 3.543307 8.267716 5.511811 3.543307 8.267716 11.708624 3.543307 6.500865 11.811023 3.937008 5.905512 11.811023 3.543307 5.905512 11.708624 3.937008 6.500865 11.023622 3.937008 8.267716 5.511811 3.543307 8.267716 5.511811 3.937008 8.267716 11.023622 3.543307 8.267716 3.937008 3.937008 8.267716 5.511811 3.543307 8.267716 3.937008 3.543307 8.267716 5.511811 3.937008 8.267716 3.937008 3.937008 14.173228 3.937008 2.559055 8.267716 3.937008 2.559055 14.173228 3.937008 3.543307 8.267716 3.937008 3.937008 8.267716 11.438465 3.937008 7.041184 11.438465 3.543307 7.041184 11.023622 3.937008 7.480315 11.023622 3.543307 7.480315 11.023622 3.543307 8.267716 11.023622 3.937008 7.480315 11.023622 3.543307 7.480315 11.023622 3.937008 8.267716 3.937008 1.377953 14.173227 2.749562 1.181102 8.267716 3.937008 1.377953 8.267716 2.749562 1.181102 14.173228 2.749562 2.755905 14.173228 3.937008 2.559055 8.267716 2.749562 2.755905 8.267716 3.937008 2.559055 14.173228 2.749562 1.968504 14.173228 2.749562 1.181102 8.267716 2.749562 1.181102 14.173228 2.749562 2.755905 8.267716 2.749562 2.755905 14.173228 5.511811 3.543307 8.267716 5.511811 0.393701 7.480315 5.511811 0.393701 8.267716 5.511811 3.543307 7.480315 11.023622 0.393701 8.267716 5.511811 0.393701 7.480315 11.023622 0.393701 7.480315 5.511811 0.393701 8.267716 5.511811 3.543307 7.480315 5.096968 0.393701 7.041184 5.511811 0.393701 7.480315 5.096968 3.543307 7.041184 34.094490 -0.590551 14.173228 16.141733 0.393701 14.173228 16.141733 -0.590551 14.173228 16.141733 4.527559 14.173228 16.141733 3.543307 14.173227 34.094490 4.527559 14.173228 34.094490 4.527559 0.000000 34.094490 -0.590551 14.173228 34.094490 -0.590551 0.000000 34.094490 4.527559 14.173228 34.094490 4.527559 0.000000 17.322834 -0.590551 0.000000 17.322834 4.527559 0.000000 34.094490 -0.590551 0.000000 16.141733 0.393701 14.173228 16.141733 3.543307 12.204723 16.141733 0.393701 12.204723 16.141733 3.543307 14.173227 12.204723 0.393701 12.204723 16.141733 3.543307 12.204723 12.204723 3.543307 12.204724 16.141733 0.393701 12.204723 "
									            />
								</IndexedFaceSet>
							</Shape>
						</Group>
					</Transform>
					<Transform DEF="group_2_001_TRANSFORM"
					           translation="32.913387 -0.196854 4.724409"
					           scale="1.000000 1.000000 1.000000"
					           rotation="0.000000 0.000000 1.000000 1.570796"
					           >
						<Transform DEF="group_2_001_ifs_TRANSFORM"
						           translation="0.000000 0.000000 0.000000"
						           scale="1.000000 1.000000 1.000000"
						           rotation="0.000000 1.000000 0.000000 0.000000"
						           >
							<Group DEF="group_ME_ID15_002">
								<Shape>
									<Appearance>
									</Appearance>
									<IndexedFaceSet solid="false"
									                coordIndex="0 1 2 -1 1 0 3 -1 4 5 6 -1 5 4 7 -1 8 9 10 -1 9 8 11 -1 12 13 14 -1 13 12 15 -1 16 17 18 -1 17 16 19 -1 "
									                >
										<Coordinate DEF="coords_ME_ID15_002"
										            point="1.174759 0.393701 3.543307 0.393701 1.181102 3.543307 0.393701 0.393701 3.543307 1.174759 1.181102 3.543307 1.174759 0.393701 3.543307 0.393701 0.393701 0.000000 1.174759 0.393701 0.000000 0.393701 0.393701 3.543307 1.174759 1.181102 0.000000 1.174759 0.393701 3.543307 1.174759 0.393701 0.000000 1.174759 1.181102 3.543307 0.393701 1.181102 0.000000 1.174759 1.181102 3.543307 1.174759 1.181102 0.000000 0.393701 1.181102 3.543307 0.393701 0.393701 3.543307 0.393701 1.181102 0.000000 0.393701 0.393701 0.000000 0.393701 1.181102 3.543307 "
										            />
									</IndexedFaceSet>
								</Shape>
							</Group>
						</Transform>
					</Transform>
				</Transform>
				<Transform DEF="instance_1_TRANSFORM"
				           translation="0.000000 16.771654 5.905512"
				           scale="1.000000 1.000000 1.000000"
				           rotation="0.000000 1.000000 0.000000 0.000000"
				           >
					<Transform DEF="instance_1_ifs_TRANSFORM"
					           translation="0.000000 0.000000 0.000000"
					           scale="1.000000 1.000000 1.000000"
					           rotation="0.000000 1.000000 0.000000 0.000000"
					           >
						<Group DEF="group_ME_ID29">
							<Shape>
								<Appearance>
								</Appearance>
								<IndexedFaceSet solid="false"
								                coordIndex="0 1 2 -1 1 0 3 -1 4 5 6 -1 5 4 7 -1 5 7 8 -1 7 4 9 -1 8 10 11 -1 10 8 7 -1 11 10 12 -1 13 14 15 -1 14 13 16 -1 17 18 19 -1 18 17 20 -1 21 22 23 -1 22 21 24 -1 22 24 25 -1 25 24 26 -1 26 24 27 -1 28 23 22 -1 29 30 31 -1 32 33 34 -1 33 32 35 -1 33 35 36 -1 36 35 30 -1 36 30 29 -1 37 38 39 -1 38 37 40 -1 41 42 43 -1 42 41 44 -1 45 46 47 -1 46 45 48 -1 49 45 50 -1 45 49 48 -1 48 49 51 -1 51 49 52 -1 52 49 53 -1 52 53 54 -1 54 53 55 -1 56 51 52 -1 57 58 59 -1 58 60 61 -1 60 58 57 -1 60 57 62 -1 63 64 65 -1 64 63 66 -1 67 68 69 -1 68 67 70 -1 71 72 73 -1 72 71 74 -1 72 74 75 -1 73 76 77 -1 76 73 72 -1 77 76 78 -1 79 80 81 -1 80 79 82 -1 83 84 85 -1 84 83 86 -1 87 88 89 -1 88 87 90 -1 91 92 93 -1 92 91 94 -1 95 96 97 -1 96 95 98 -1 99 100 101 -1 100 99 102 -1 103 104 105 -1 104 103 106 -1 59 107 108 -1 107 59 109 -1 109 59 61 -1 61 59 58 -1 110 111 112 -1 111 110 113 -1 114 82 79 -1 82 114 115 -1 98 116 96 -1 116 98 117 -1 108 118 119 -1 118 108 109 -1 109 108 107 -1 112 120 121 -1 120 112 111 -1 122 115 114 -1 115 122 123 -1 117 124 116 -1 124 117 125 -1 126 127 128 -1 127 126 129 -1 121 130 131 -1 130 121 120 -1 "
								                >
									<Coordinate DEF="coords_ME_ID29"
									            point="7.480315 5.118110 3.937008 5.708661 6.299213 3.937008 5.708661 5.118110 3.937008 7.480315 6.299212 3.937008 0.000000 6.299212 3.937008 0.787402 6.299212 1.574803 0.000000 6.299212 1.574803 1.771654 6.299213 2.362205 7.480315 6.299212 1.574803 1.771654 6.299213 3.937008 5.708661 6.299213 2.362205 7.480315 6.299212 3.937008 5.708661 6.299213 3.937008 5.708661 6.299213 3.937008 5.708661 5.118110 2.362205 5.708661 5.118110 3.937008 5.708661 6.299213 2.362205 7.480315 5.118110 3.937008 5.708661 5.118110 2.362205 7.480315 5.118110 2.362205 5.708661 5.118110 3.937008 7.480315 0.000000 1.574803 7.480315 1.181102 2.362205 7.480315 0.000000 3.937008 7.480315 6.299212 1.574803 7.480315 5.118110 2.362205 7.480315 5.118110 3.937008 7.480315 6.299212 3.937008 7.480315 1.181102 3.937008 0.000000 6.299212 3.937008 0.000000 5.118110 2.362205 0.000000 5.118110 3.937008 0.000000 1.181102 3.937008 0.000000 0.000000 1.574803 0.000000 0.000000 3.937008 0.000000 1.181102 2.362205 0.000000 6.299212 1.574803 1.771654 5.118110 3.937008 0.000000 6.299212 3.937008 0.000000 5.118110 3.937008 1.771654 6.299213 3.937008 1.771654 6.299213 2.362205 1.771654 5.118110 3.937008 1.771654 5.118110 2.362205 1.771654 6.299213 3.937008 1.181102 1.181102 2.362205 0.000000 5.118110 2.362205 0.000000 1.181102 2.362205 1.771654 5.118110 2.362205 6.299213 0.000000 2.362205 1.181102 0.000000 2.362205 1.771654 6.299213 2.362205 5.708661 5.118110 2.362205 6.299213 1.181102 2.362205 7.480315 5.118110 2.362205 7.480315 1.181102 2.362205 5.708661 6.299213 2.362205 0.000000 6.299212 1.574803 0.787402 5.884369 1.135672 0.414843 5.884369 1.135672 7.480315 6.299212 1.574803 7.065472 5.884369 1.135672 0.787402 6.299212 1.574803 6.299213 1.181102 2.362205 7.480315 1.181102 3.937008 7.480315 1.181102 2.362205 6.299213 1.181102 3.937008 7.480315 0.000000 3.937008 6.299213 1.181102 3.937008 6.299213 0.000000 3.937008 7.480315 1.181102 3.937008 7.480315 0.000000 1.574803 6.299213 0.000000 2.362205 0.000000 0.000000 1.574803 7.480315 0.000000 3.937008 6.299213 0.000000 3.937008 1.181102 0.000000 2.362205 0.000000 0.000000 3.937008 1.181102 0.000000 3.937008 7.065472 0.414843 1.135672 7.480315 6.299212 1.574803 7.480315 0.000000 1.574803 7.065472 5.884369 1.135672 1.181102 0.000000 3.937008 0.000000 1.181102 3.937008 0.000000 0.000000 3.937008 1.181102 1.181102 3.937008 0.000000 1.181102 3.937008 1.181102 1.181102 2.362205 0.000000 1.181102 2.362205 1.181102 1.181102 3.937008 1.771654 5.118110 3.937008 0.000000 5.118110 2.362205 1.771654 5.118110 2.362205 0.000000 5.118110 3.937008 0.000000 6.299212 1.574803 0.414843 0.414843 1.135672 0.000000 0.000000 1.574803 0.414843 5.884369 1.135672 1.181102 1.181102 2.362205 1.181102 0.000000 3.937008 1.181102 0.000000 2.362205 1.181102 1.181102 3.937008 6.299213 1.181102 3.937008 6.299213 0.000000 2.362205 6.299213 0.000000 3.937008 6.299213 1.181102 2.362205 0.787402 5.614210 0.595353 0.685003 5.614210 0.595353 6.795312 5.614210 0.595353 7.480315 0.000000 1.574803 0.414843 0.414843 1.135672 7.065472 0.414843 1.135672 0.000000 0.000000 1.574803 6.795312 0.685003 0.595353 6.795312 5.614210 0.595353 0.685003 0.685003 0.595353 0.685003 5.614210 0.595353 6.692913 5.511811 0.000000 0.787402 5.511811 0.000000 0.685003 0.685003 0.595353 6.795312 0.685003 0.595353 6.692913 0.787402 0.000000 6.692913 5.511811 0.000000 0.787402 0.787402 0.000000 0.787402 5.511811 0.000000 6.692913 5.511811 0.000000 0.787402 0.787402 0.000000 0.787402 5.511811 0.000000 6.692913 0.787402 0.000000 0.787402 0.787402 0.000000 6.692913 0.787402 0.000000 "
									            />
								</IndexedFaceSet>
							</Shape>
						</Group>
					</Transform>
				</Transform>
			</Transform>
			<Transform DEF="group_3_TRANSFORM"
			           translation="19.500830 44.744331 12.992126"
			           scale="1.455015 1.000000 1.000000"
			           rotation="0.000000 0.000000 1.000000 1.570796"
			           >
				<Transform DEF="group_3_ifs_TRANSFORM"
				           translation="0.000001 -0.000000 0.000000"
				           scale="1.000000 1.000000 1.000000"
				           rotation="0.000000 0.000000 0.000000 0.000000"
				           >
					<Group DEF="group_ME_ID36">
						<Shape>
							<Appearance>
								<Material USE="MA_material_002" />
							</Appearance>
							<IndexedFaceSet solid="false"
							                coordIndex="0 1 2 -1 1 0 3 -1 4 5 6 -1 5 4 7 -1 8 9 10 -1 9 8 11 -1 12 13 14 -1 13 12 15 -1 16 17 18 -1 17 16 19 -1 20 21 22 -1 21 20 23 -1 "
							                >
								<Coordinate DEF="coords_ME_ID36"
								            point="20.564226 0.000000 5.905512 0.000000 3.937008 5.905512 0.000000 0.000000 5.905512 20.564226 3.937008 5.905512 20.564226 3.937008 0.000000 20.564226 0.000000 5.905512 20.564226 0.000000 0.000000 20.564226 3.937008 5.905512 0.000000 3.937008 5.905512 20.564226 3.937008 0.000000 0.000000 3.937008 0.000000 20.564226 3.937008 5.905512 0.000000 3.937008 5.905512 0.000000 0.000000 0.000000 0.000000 0.000000 5.905512 0.000000 3.937008 0.000000 20.564226 0.000000 5.905512 0.000000 0.000000 0.000000 20.564226 0.000000 0.000000 0.000000 0.000000 5.905512 20.564226 3.937008 0.000000 0.000000 0.000000 0.000000 0.000000 3.937008 0.000000 20.564226 0.000000 0.000000 "
								            />
							</IndexedFaceSet>
						</Shape>
					</Group>
				</Transform>
			</Transform>
			<Transform DEF="group_4_TRANSFORM"
			           translation="8.847287 40.776028 12.992126"
			           scale="0.890000 1.000000 1.000000"
			           rotation="0.000000 0.000000 1.000000 1.570796"
			           >
				<Transform DEF="group_4_ifs_TRANSFORM"
				           translation="0.000005 0.000000 0.000000"
				           scale="1.000000 1.000000 1.000000"
				           rotation="0.000000 0.000000 -0.000000 0.000000"
				           >
					<Group DEF="group_ME_ID43">
						<Shape>
							<Appearance>
								<Material USE="MA_material_002" />
							</Appearance>
							<IndexedFaceSet solid="false"
							                coordIndex="0 1 2 -1 1 0 3 -1 4 5 6 -1 5 4 7 -1 8 9 10 -1 9 8 11 -1 12 13 14 -1 13 12 15 -1 16 17 18 -1 17 16 19 -1 20 21 22 -1 21 20 23 -1 "
							                >
								<Coordinate DEF="coords_ME_ID43"
								            point="0.000000 1.157480 12.204723 0.000000 5.094488 0.000000 0.000000 1.157480 0.000000 0.000000 5.094488 9.224593 42.480312 1.157480 12.204723 0.000000 1.157480 0.000000 42.480316 1.157480 0.000000 0.000000 1.157480 12.204723 0.000000 1.157480 12.204723 42.480316 5.094488 9.224593 0.000000 5.094488 9.224593 42.480312 1.157480 12.204723 0.000000 5.094488 9.224593 42.480316 5.094488 0.000000 0.000000 5.094488 0.000000 42.480316 5.094488 9.224593 42.480316 5.094488 0.000000 0.000000 1.157480 0.000000 0.000000 5.094488 0.000000 42.480316 1.157480 0.000000 42.480316 5.094488 0.000000 42.480312 1.157480 12.204723 42.480316 1.157480 0.000000 42.480316 5.094488 9.224593 "
								            />
							</IndexedFaceSet>
						</Shape>
					</Group>
				</Transform>
			</Transform>
			<Transform DEF="group_5_TRANSFORM"
			           translation="37.453587 55.964802 4.724409"
			           scale="1.000000 1.000000 1.000000"
			           rotation="0.000000 0.000000 1.000000 1.570796"
			           >
				<Transform DEF="instance_2_TRANSFORM"
				           translation="1.771652 34.094490 0.000000"
				           scale="1.000000 1.000000 1.000000"
				           rotation="0.000000 0.000000 -1.000000 1.570796"
				           >
					<Transform DEF="instance_2_ifs_TRANSFORM"
					           translation="0.000000 0.000000 0.000000"
					           scale="1.000000 1.000000 1.000000"
					           rotation="0.000000 1.000000 0.000000 0.000000"
					           >
						<Group USE="group_ME_ID21" />
					</Transform>
					<Transform DEF="group_2_002_TRANSFORM"
					           translation="32.913387 -0.196854 4.724409"
					           scale="1.000000 1.000000 1.000000"
					           rotation="0.000000 0.000000 1.000000 1.570796"
					           >
						<Transform DEF="group_2_002_ifs_TRANSFORM"
						           translation="-0.000001 0.000001 0.000000"
						           scale="1.000000 1.000000 1.000000"
						           rotation="0.000000 1.000000 0.000000 0.000000"
						           >
							<Group USE="group_ME_ID15_002" />
						</Transform>
					</Transform>
				</Transform>
				<Transform DEF="instance_3_TRANSFORM"
				           translation="-0.000002 16.771654 5.905512"
				           scale="1.000000 1.000000 1.000000"
				           rotation="0.000000 1.000000 0.000000 0.000000"
				           >
					<Transform DEF="instance_3_ifs_TRANSFORM"
					           translation="0.000002 0.000000 0.000000"
					           scale="1.000000 1.000000 1.000000"
					           rotation="0.000000 1.000000 0.000000 0.000000"
					           >
						<Group USE="group_ME_ID29" />
					</Transform>
				</Transform>
			</Transform>
			<Transform DEF="group_6_TRANSFORM"
			           translation="3.968305 17.952755 12.992126"
			           scale="1.455015 1.000000 1.000000"
			           rotation="0.000000 1.000000 0.000000 0.000000"
			           >
				<Transform DEF="group_6_ifs_TRANSFORM"
				           translation="-0.000000 0.000000 0.000000"
				           scale="1.000000 1.000000 1.000000"
				           rotation="0.000000 1.000000 0.000000 0.000000"
				           >
					<Group DEF="group_ME_ID53">
						<Shape>
							<Appearance>
								<Material USE="MA_material_002" />
							</Appearance>
							<IndexedFaceSet solid="false"
							                coordIndex="0 1 2 -1 1 0 3 -1 4 5 6 -1 5 4 7 -1 8 9 10 -1 9 8 11 -1 12 13 14 -1 13 12 15 -1 16 17 18 -1 17 16 19 -1 20 21 22 -1 21 20 23 -1 "
							                >
								<Coordinate DEF="coords_ME_ID53"
								            point="20.564226 0.000000 5.905512 0.000000 3.937008 5.905512 0.000000 0.000000 5.905512 20.564226 3.937008 5.905512 20.564226 3.937008 0.000000 20.564226 0.000000 5.905512 20.564226 0.000000 0.000000 20.564226 3.937008 5.905512 0.000000 3.937008 5.905512 20.564226 3.937008 0.000000 0.000000 3.937008 0.000000 20.564226 3.937008 5.905512 0.000000 3.937008 5.905512 0.000000 0.000000 0.000000 0.000000 0.000000 5.905512 0.000000 3.937008 0.000000 20.564226 0.000000 5.905512 0.000000 0.000000 0.000000 20.564226 0.000000 0.000000 0.000000 0.000000 5.905512 20.564226 3.937008 0.000000 0.000000 0.000000 0.000000 0.000000 3.937008 0.000000 20.564226 0.000000 0.000000 "
								            />
							</IndexedFaceSet>
						</Shape>
					</Group>
				</Transform>
			</Transform>
			<Transform DEF="instance_4_TRANSFORM"
			           translation="11.233114 53.405750 0.000000"
			           scale="1.000000 1.000000 1.000000"
			           rotation="0.000000 1.000000 0.000000 0.000000"
			           >
				<Transform DEF="instance_4_ifs_TRANSFORM"
				           translation="0.000000 0.000000 0.000000"
				           scale="1.000000 1.000000 1.000000"
				           rotation="0.000000 1.000000 0.000000 0.000000"
				           >
					<Group DEF="group_ME_ID61">
						<Shape>
							<Appearance>
							</Appearance>
							<IndexedFaceSet solid="false"
							                coordIndex="0 1 2 -1 1 0 3 -1 4 5 6 -1 5 4 7 -1 5 7 8 -1 6 9 10 -1 9 6 5 -1 10 9 11 -1 12 13 14 -1 13 12 15 -1 13 15 16 -1 16 15 17 -1 17 15 18 -1 19 14 13 -1 20 21 22 -1 21 20 23 -1 23 20 24 -1 24 20 25 -1 26 27 28 -1 29 30 31 -1 30 29 32 -1 30 32 33 -1 33 32 27 -1 33 27 26 -1 34 35 36 -1 35 34 37 -1 35 37 38 -1 38 37 39 -1 39 37 40 -1 40 37 41 -1 42 36 35 -1 43 44 45 -1 44 43 46 -1 47 48 49 -1 50 51 52 -1 51 50 53 -1 51 53 54 -1 54 53 48 -1 54 48 47 -1 55 56 57 -1 56 55 58 -1 59 60 61 -1 60 59 62 -1 63 64 65 -1 64 66 67 -1 66 64 68 -1 68 64 63 -1 69 70 71 -1 70 69 72 -1 73 74 75 -1 74 73 76 -1 74 76 77 -1 75 78 79 -1 78 75 74 -1 79 78 80 -1 81 82 83 -1 82 81 84 -1 85 86 87 -1 86 85 88 -1 89 90 91 -1 90 89 92 -1 93 94 95 -1 94 93 96 -1 97 98 99 -1 98 97 100 -1 101 102 103 -1 102 101 104 -1 104 101 105 -1 105 101 106 -1 107 108 109 -1 108 107 110 -1 111 112 113 -1 112 114 115 -1 114 112 116 -1 116 112 111 -1 117 118 119 -1 118 117 120 -1 118 120 121 -1 121 120 122 -1 123 124 125 -1 124 123 126 -1 61 127 128 -1 127 61 60 -1 129 130 131 -1 130 129 132 -1 96 133 94 -1 133 96 134 -1 135 136 137 -1 136 135 138 -1 139 120 117 -1 120 139 140 -1 120 140 141 -1 120 141 122 -1 128 142 143 -1 142 128 127 -1 131 144 145 -1 144 131 130 -1 134 146 133 -1 146 134 147 -1 148 140 139 -1 140 148 149 -1 140 149 141 -1 150 151 152 -1 151 150 153 -1 145 154 155 -1 154 145 144 -1 "
							                >
								<Coordinate DEF="coords_ME_ID61"
								            point="4.330709 0.000000 7.874016 0.000000 4.330709 7.874016 0.000000 0.000000 7.874016 4.330709 4.330709 7.874016 12.598425 -0.000000 3.149606 8.267716 0.000000 4.724409 0.000000 0.000000 3.149606 12.598425 -0.000000 7.874016 8.267716 0.000000 7.874016 4.330709 0.000000 4.724409 0.000000 0.000000 7.874016 4.330709 0.000000 7.874016 4.330709 0.000000 4.724409 4.330709 4.330709 6.299213 4.330709 0.000000 7.874016 4.330709 12.598425 4.724409 4.330709 8.267716 6.299213 4.330709 8.267716 7.874016 4.330709 12.598425 7.874016 4.330709 4.330709 7.874016 0.000000 4.330709 7.874016 3.149606 4.330709 4.724409 0.000000 4.330709 4.724409 3.149606 4.330709 6.299213 4.330709 4.330709 6.299213 4.330709 4.330709 7.874016 -0.000000 12.598425 7.874016 0.000000 8.267716 4.724409 0.000000 8.267716 7.874016 0.000000 4.330709 7.874016 0.000000 0.000000 3.149606 0.000000 0.000000 7.874016 0.000000 4.330709 4.724409 -0.000000 12.598425 3.149606 12.598425 -0.000000 3.149606 12.598425 3.346457 4.724409 12.598425 -0.000000 7.874016 12.598425 11.023622 3.149606 12.598425 9.251968 4.724409 12.598425 9.251968 7.874016 12.598425 12.598425 7.874016 12.598425 12.598425 3.149606 12.598425 3.346457 7.874016 12.598425 -0.000000 7.874016 8.267716 3.346457 7.874016 8.267716 0.000000 7.874016 12.598425 3.346457 7.874016 8.267716 12.598425 7.874016 8.267716 9.251968 6.299213 8.267716 9.251968 7.874016 8.267716 3.346457 7.874016 8.267716 0.000000 4.724409 8.267716 0.000000 7.874016 8.267716 3.346457 6.299213 8.267716 12.598425 4.724409 8.267716 0.000000 4.724409 4.330709 12.598425 4.724409 4.330709 0.000000 4.724409 8.267716 12.598425 4.724409 12.598425 -0.000000 3.149606 0.829686 0.829686 2.271344 11.768739 0.829686 2.271344 0.000000 0.000000 3.149606 4.330709 8.267716 7.874016 3.149606 8.267716 6.299213 4.330709 8.267716 6.299213 0.000000 8.267716 4.724409 3.149606 8.267716 4.724409 0.000000 8.267716 7.874016 4.330709 4.330709 6.299213 3.149606 8.267716 6.299213 3.149606 4.330709 6.299213 4.330709 8.267716 6.299213 -0.000000 12.598425 3.149606 4.330709 12.598425 4.724409 12.598425 12.598425 3.149606 -0.000000 12.598425 7.874016 4.330709 12.598425 7.874016 8.267716 12.598425 4.724409 12.598425 12.598425 7.874016 8.267716 12.598425 7.874016 0.000000 8.267716 7.874016 4.330709 12.598425 7.874016 -0.000000 12.598425 7.874016 4.330709 8.267716 7.874016 3.149606 8.267716 6.299213 3.149606 4.330709 4.724409 3.149606 4.330709 6.299213 3.149606 8.267716 4.724409 3.149606 4.330709 4.724409 0.000000 8.267716 4.724409 0.000000 4.330709 4.724409 3.149606 8.267716 4.724409 -0.000000 12.598425 3.149606 0.829686 0.829686 2.271344 0.000000 0.000000 3.149606 0.829686 11.768739 2.271344 12.598425 9.251968 7.874016 8.267716 12.598425 7.874016 8.267716 9.251968 7.874016 12.598425 12.598425 7.874016 12.598425 9.251968 7.874016 9.448818 9.251968 4.724409 12.598425 9.251968 4.724409 9.448818 9.251968 6.299213 8.267716 9.251968 6.299213 8.267716 9.251968 7.874016 9.448818 3.346457 4.724409 12.598425 9.251968 4.724409 9.448818 9.251968 4.724409 12.598425 3.346457 4.724409 8.267716 3.346457 7.874016 9.448818 3.346457 6.299213 8.267716 3.346457 6.299213 12.598425 3.346457 4.724409 9.448818 3.346457 4.724409 12.598425 3.346457 7.874016 11.768739 0.829686 2.271344 12.598425 11.023622 3.149606 12.598425 -0.000000 3.149606 11.768739 11.023622 2.271344 12.598425 12.598425 3.149606 11.768739 11.768739 2.271344 8.267716 3.346457 6.299213 9.448818 9.251968 6.299213 8.267716 9.251968 6.299213 9.448818 3.346457 6.299213 1.370005 1.370005 1.190706 11.228419 1.370005 1.190706 -0.000000 12.598425 3.149606 11.768739 11.768739 2.271344 0.829686 11.768739 2.271344 12.598425 12.598425 3.149606 1.370005 1.370005 1.190706 1.370005 11.228419 1.190706 9.448818 9.251968 4.724409 9.448818 3.346457 6.299213 9.448818 3.346457 4.724409 9.448818 9.251968 6.299213 11.228419 1.370005 1.190706 11.228419 11.023622 1.190706 11.228419 11.228419 1.190706 1.574803 1.574803 0.000000 11.023622 1.574803 0.000000 11.228419 11.228419 1.190706 1.370005 11.228419 1.190706 1.574803 1.574803 0.000000 1.574803 11.023622 0.000000 11.023622 1.574803 0.000000 11.023622 11.023622 0.000000 11.023622 11.023622 0.000000 1.574803 1.574803 0.000000 1.574803 11.023622 0.000000 11.023622 1.574803 0.000000 11.023622 11.023622 0.000000 1.574803 11.023622 0.000000 "
								            />
							</IndexedFaceSet>
						</Shape>
					</Group>
				</Transform>
			</Transform>
			<Transform DEF="instance_5_TRANSFORM"
			           translation="14.382721 44.744331 10.629921"
			           scale="1.000000 1.000000 1.000000"
			           rotation="0.000000 1.000000 0.000000 0.000000"
			           >
				<Transform DEF="instance_5_ifs_TRANSFORM"
				           translation="0.000000 0.000000 0.000000"
				           scale="1.000000 1.000000 1.000000"
				           rotation="0.000000 1.000000 0.000000 0.000000"
				           >
					<Group DEF="group_ME_ID69">
						<Shape>
							<Appearance>
							</Appearance>
							<IndexedFaceSet solid="false"
							                coordIndex="0 1 2 -1 1 0 3 -1 4 5 6 -1 5 4 7 -1 5 7 8 -1 9 10 11 -1 10 9 12 -1 13 14 15 -1 14 13 16 -1 17 3 0 -1 3 17 18 -1 19 20 21 -1 20 19 22 -1 6 23 24 -1 23 6 5 -1 23 5 8 -1 23 8 25 -1 26 15 27 -1 15 26 13 -1 28 18 17 -1 18 28 29 -1 30 22 19 -1 22 30 31 -1 24 32 33 -1 32 24 23 -1 32 23 25 -1 32 25 34 -1 35 27 36 -1 27 35 26 -1 37 38 39 -1 38 37 40 -1 38 40 41 -1 39 42 43 -1 42 39 38 -1 43 42 44 -1 45 31 30 -1 31 45 46 -1 47 48 49 -1 48 47 50 -1 50 47 51 -1 52 53 54 -1 53 52 55 -1 56 57 58 -1 57 56 59 -1 60 61 62 -1 61 60 63 -1 64 65 66 -1 65 64 67 -1 68 69 70 -1 69 68 71 -1 72 73 74 -1 73 72 75 -1 76 77 78 -1 77 76 79 -1 77 79 80 -1 78 81 82 -1 81 78 77 -1 82 81 83 -1 "
							                >
								<Coordinate DEF="coords_ME_ID69"
								            point="0.685003 4.826808 0.595353 5.511811 4.724409 0.000000 0.787402 4.724409 0.000000 5.614210 4.826808 0.595353 5.511811 0.787402 0.000000 5.614210 4.724409 0.595353 5.614210 0.685003 0.595353 5.511811 4.724409 0.000000 5.614210 4.826808 0.595353 5.511811 4.724409 0.000000 0.787402 0.787402 0.000000 0.787402 4.724409 0.000000 5.511811 0.787402 0.000000 0.685003 4.826808 0.595353 0.787402 0.787402 0.000000 0.685003 0.685003 0.595353 0.787402 4.724409 0.000000 0.414843 5.096968 1.135672 5.884369 5.096968 1.135672 5.614210 0.685003 0.595353 0.787402 0.787402 0.000000 5.511811 0.787402 0.000000 0.685003 0.685003 0.595353 5.884369 4.724409 1.135672 5.884369 0.414843 1.135672 5.884369 5.096968 1.135672 0.414843 5.096968 1.135672 0.414843 0.414843 1.135672 0.000000 5.511811 1.574803 6.299213 5.511811 1.574803 5.884369 0.414843 1.135672 0.414843 0.414843 1.135672 6.299213 4.724409 1.574803 6.299213 0.000000 1.574803 6.299213 5.511811 1.574803 0.000000 5.511811 1.574803 0.000000 0.000000 1.574803 0.000000 5.511811 1.574803 1.181102 5.511811 2.362205 6.299213 5.511811 1.574803 0.000000 5.511811 3.937008 1.181102 5.511811 3.937008 5.118110 5.511811 2.362205 6.299213 5.511811 3.937008 5.118110 5.511811 3.937008 6.299213 0.000000 1.574803 0.000000 0.000000 1.574803 6.299213 4.724409 1.574803 6.299213 0.000000 3.937008 6.299213 0.000000 1.574803 6.299213 5.511811 3.937008 6.299213 5.511811 1.574803 0.000000 5.511811 3.937008 0.000000 0.000000 1.574803 0.000000 0.000000 3.937008 0.000000 5.511811 1.574803 1.181102 0.000000 3.937008 0.000000 5.511811 3.937008 0.000000 0.000000 3.937008 1.181102 5.511811 3.937008 1.181102 5.511811 2.362205 1.181102 0.000000 3.937008 1.181102 0.000000 2.362205 1.181102 5.511811 3.937008 5.118110 0.000000 2.362205 1.181102 5.511811 2.362205 1.181102 0.000000 2.362205 5.118110 5.511811 2.362205 5.118110 5.511811 3.937008 5.118110 0.000000 2.362205 5.118110 0.000000 3.937008 5.118110 5.511811 2.362205 6.299213 0.000000 3.937008 5.118110 5.511811 3.937008 5.118110 0.000000 3.937008 6.299213 5.511811 3.937008 6.299213 0.000000 1.574803 5.118110 0.000000 2.362205 0.000000 0.000000 1.574803 6.299213 0.000000 3.937008 5.118110 0.000000 3.937008 1.181102 0.000000 2.362205 0.000000 0.000000 3.937008 1.181102 0.000000 3.937008 "
								            />
							</IndexedFaceSet>
						</Shape>
					</Group>
				</Transform>
			</Transform>
			<Transform DEF="instance_6_TRANSFORM"
			           translation="22.472242 28.582676 10.629921"
			           scale="1.000000 1.000000 1.000000"
			           rotation="0.000000 0.000000 1.000000 1.570796"
			           >
				<Transform DEF="instance_6_ifs_TRANSFORM"
				           translation="-0.000000 0.000000 0.000000"
				           scale="1.000000 1.000000 1.000000"
				           rotation="0.000000 1.000000 0.000000 0.000000"
				           >
					<Group DEF="group_ME_ID77">
						<Shape>
							<Appearance>
							</Appearance>
							<IndexedFaceSet solid="false"
							                coordIndex="0 1 2 -1 1 0 3 -1 4 5 6 -1 5 4 7 -1 8 9 10 -1 11 12 13 -1 12 11 14 -1 12 14 15 -1 15 14 9 -1 15 9 8 -1 16 17 18 -1 17 16 19 -1 19 16 20 -1 20 16 21 -1 17 22 23 -1 22 17 19 -1 24 25 26 -1 25 24 27 -1 28 29 30 -1 29 28 31 -1 29 31 32 -1 30 33 34 -1 33 30 29 -1 34 33 35 -1 36 37 38 -1 37 36 39 -1 37 39 40 -1 38 41 42 -1 41 38 37 -1 42 41 43 -1 44 45 46 -1 45 44 47 -1 48 49 50 -1 49 48 51 -1 52 53 54 -1 53 52 55 -1 56 57 58 -1 57 56 59 -1 60 61 62 -1 61 60 63 -1 64 65 66 -1 65 64 67 -1 68 69 70 -1 69 68 71 -1 71 68 72 -1 73 74 75 -1 74 73 76 -1 77 78 79 -1 78 77 80 -1 55 81 53 -1 81 55 82 -1 83 84 85 -1 84 83 86 -1 84 86 87 -1 84 87 88 -1 75 89 90 -1 89 75 74 -1 79 91 92 -1 91 79 78 -1 82 93 81 -1 93 82 94 -1 95 86 83 -1 86 95 96 -1 86 96 97 -1 86 97 87 -1 90 98 99 -1 98 90 89 -1 92 100 101 -1 100 92 91 -1 102 103 104 -1 103 102 105 -1 106 96 95 -1 96 106 107 -1 96 107 97 -1 "
							                >
								<Coordinate DEF="coords_ME_ID77"
								            point="1.181102 5.511811 3.937008 0.000000 5.511811 2.362205 1.181102 5.511811 2.362205 0.000000 5.511811 3.937008 1.181102 5.511811 3.937008 0.000000 7.086615 3.937008 0.000000 5.511811 3.937008 1.181102 7.086615 3.937008 0.000000 7.086615 3.937008 0.000000 5.511811 2.362205 0.000000 5.511811 3.937008 0.000000 1.574803 3.937008 0.000000 0.000000 1.574803 0.000000 0.000000 3.937008 0.000000 1.574803 2.362205 0.000000 7.086615 1.574803 5.118110 0.000000 2.362205 1.181102 1.574803 2.362205 1.181102 0.000000 2.362205 1.181102 5.511811 2.362205 1.181102 7.086615 2.362205 5.118110 7.086615 2.362205 0.000000 5.511811 2.362205 0.000000 1.574803 2.362205 1.181102 7.086615 2.362205 1.181102 5.511811 3.937008 1.181102 5.511811 2.362205 1.181102 7.086615 3.937008 0.000000 7.086615 1.574803 1.181102 7.086615 2.362205 6.299213 7.086615 1.574803 0.000000 7.086615 3.937008 1.181102 7.086615 3.937008 5.118110 7.086615 2.362205 6.299213 7.086615 3.937008 5.118110 7.086615 3.937008 6.299213 0.000000 1.574803 5.118110 0.000000 2.362205 0.000000 0.000000 1.574803 6.299213 0.000000 3.937008 5.118110 0.000000 3.937008 1.181102 0.000000 2.362205 0.000000 0.000000 3.937008 1.181102 0.000000 3.937008 1.181102 0.000000 3.937008 0.000000 1.574803 3.937008 0.000000 0.000000 3.937008 1.181102 1.574803 3.937008 0.000000 1.574803 3.937008 1.181102 1.574803 2.362205 0.000000 1.574803 2.362205 1.181102 1.574803 3.937008 0.000000 7.086615 1.574803 0.414843 0.414843 1.135672 0.000000 0.000000 1.574803 0.414843 6.671771 1.135672 1.181102 1.574803 2.362205 1.181102 0.000000 3.937008 1.181102 0.000000 2.362205 1.181102 1.574803 3.937008 5.118110 7.086615 3.937008 5.118110 0.000000 2.362205 5.118110 0.000000 3.937008 5.118110 7.086615 2.362205 6.299213 0.000000 3.937008 5.118110 7.086615 3.937008 5.118110 0.000000 3.937008 6.299213 7.086615 3.937008 6.299213 6.299212 1.574803 6.299213 0.000000 3.937008 6.299213 0.000000 1.574803 6.299213 7.086615 3.937008 6.299213 7.086615 1.574803 0.000000 7.086615 1.574803 5.884369 6.671771 1.135672 0.414843 6.671771 1.135672 6.299213 7.086615 1.574803 6.299213 0.000000 1.574803 0.414843 0.414843 1.135672 5.884369 0.414843 1.135672 0.000000 0.000000 1.574803 0.685003 0.685003 0.595353 0.685003 6.401612 0.595353 5.884369 0.414843 1.135672 6.299213 6.299212 1.574803 6.299213 0.000000 1.574803 5.884369 6.299212 1.135672 5.884369 6.671771 1.135672 6.299213 7.086615 1.574803 5.614210 6.401612 0.595353 0.685003 6.401612 0.595353 0.685003 0.685003 0.595353 5.614210 0.685003 0.595353 0.787402 0.787402 0.000000 0.787402 6.299212 0.000000 5.614210 0.685003 0.595353 5.614210 6.299212 0.595353 5.614210 6.401612 0.595353 5.511811 6.299212 0.000000 0.787402 6.299212 0.000000 0.787402 0.787402 0.000000 5.511811 0.787402 0.000000 5.511811 6.299212 0.000000 0.787402 0.787402 0.000000 0.787402 6.299212 0.000000 5.511811 0.787402 0.000000 5.511811 0.787402 0.000000 5.511811 6.299212 0.000000 "
								            />
							</IndexedFaceSet>
						</Shape>
					</Group>
				</Transform>
			</Transform>
			<Transform DEF="instance_7_TRANSFORM"
			           translation="4.755707 17.952755 4.724409"
			           scale="1.000000 1.000000 1.000000"
			           rotation="0.000000 1.000000 0.000000 0.000000"
			           >
				<Transform DEF="instance_7_ifs_TRANSFORM"
				           translation="0.000000 0.000000 0.000000"
				           scale="1.000000 1.000000 1.000000"
				           rotation="0.000000 1.000000 0.000000 0.000000"
				           >
					<Group DEF="group_ME_ID85">
						<Shape>
							<Appearance>
							</Appearance>
							<IndexedFaceSet solid="false"
							                coordIndex="0 1 2 -1 1 0 3 -1 4 5 6 -1 5 4 7 -1 7 4 8 -1 8 4 9 -1 10 11 12 -1 11 10 13 -1 13 10 14 -1 13 14 15 -1 15 14 16 -1 15 16 17 -1 17 16 18 -1 17 18 19 -1 19 18 20 -1 19 20 21 -1 19 21 22 -1 19 22 23 -1 20 18 6 -1 20 6 5 -1 23 22 24 -1 17 25 26 -1 25 17 19 -1 26 25 27 -1 27 25 28 -1 28 25 29 -1 29 25 30 -1 26 27 31 -1 29 30 32 -1 31 33 34 -1 33 31 27 -1 34 33 35 -1 34 35 36 -1 34 36 37 -1 38 39 40 -1 39 38 41 -1 42 43 44 -1 43 42 45 -1 43 45 46 -1 46 45 39 -1 46 39 47 -1 47 39 41 -1 44 48 49 -1 48 44 43 -1 50 51 52 -1 51 50 53 -1 53 50 54 -1 54 50 55 -1 56 57 58 -1 57 56 59 -1 57 59 60 -1 57 60 61 -1 57 61 62 -1 59 56 52 -1 59 52 51 -1 62 61 63 -1 64 65 66 -1 65 64 67 -1 67 64 68 -1 67 68 69 -1 69 68 58 -1 69 58 70 -1 70 58 71 -1 71 58 72 -1 72 58 57 -1 71 72 73 -1 73 72 74 -1 74 72 75 -1 75 72 76 -1 71 73 77 -1 75 76 78 -1 77 79 80 -1 79 77 73 -1 80 79 81 -1 80 81 82 -1 80 82 83 -1 84 85 86 -1 85 84 87 -1 88 89 90 -1 89 88 91 -1 91 88 92 -1 91 92 93 -1 93 94 91 -1 94 93 95 -1 94 96 97 -1 96 94 95 -1 96 95 98 -1 96 98 99 -1 100 101 102 -1 101 100 103 -1 104 105 106 -1 105 104 107 -1 108 109 110 -1 109 108 111 -1 110 112 113 -1 112 110 109 -1 113 114 115 -1 114 113 112 -1 115 116 117 -1 116 115 114 -1 117 118 119 -1 118 117 116 -1 119 120 121 -1 120 119 118 -1 121 122 123 -1 122 121 120 -1 123 124 125 -1 124 123 122 -1 125 126 127 -1 126 125 124 -1 128 129 130 -1 129 128 131 -1 132 133 134 -1 133 132 135 -1 136 137 138 -1 137 136 139 -1 140 141 142 -1 141 140 143 -1 144 145 146 -1 145 144 147 -1 148 147 144 -1 147 148 149 -1 150 149 148 -1 149 150 151 -1 152 153 154 -1 153 152 155 -1 156 157 158 -1 157 156 159 -1 160 161 162 -1 161 160 163 -1 164 165 166 -1 165 164 167 -1 168 169 170 -1 169 168 171 -1 172 173 174 -1 173 172 175 -1 175 176 173 -1 176 175 177 -1 177 178 176 -1 178 177 179 -1 180 181 182 -1 181 180 183 -1 184 185 186 -1 185 184 187 -1 188 189 190 -1 189 188 191 -1 191 188 192 -1 191 192 193 -1 193 192 194 -1 193 194 195 -1 196 197 198 -1 197 196 199 -1 200 201 202 -1 201 200 203 -1 203 200 204 -1 203 204 205 -1 205 204 206 -1 205 206 207 -1 208 209 210 -1 209 208 211 -1 212 213 214 -1 213 212 215 -1 216 217 218 -1 217 216 219 -1 220 221 222 -1 221 220 223 -1 224 222 225 -1 222 224 220 -1 226 225 227 -1 225 226 224 -1 228 229 230 -1 229 228 231 -1 232 233 234 -1 233 232 235 -1 236 237 238 -1 237 236 239 -1 240 241 242 -1 241 240 243 -1 242 244 245 -1 244 242 241 -1 245 246 247 -1 246 245 244 -1 248 249 250 -1 249 248 251 -1 252 253 254 -1 253 252 255 -1 255 252 256 -1 255 256 257 -1 257 256 258 -1 257 258 259 -1 260 261 262 -1 261 260 263 -1 263 260 264 -1 263 264 265 -1 265 264 266 -1 265 266 267 -1 "
							                >
								<Coordinate DEF="coords_ME_ID85"
								            point="12.598425 0.000000 1.968504 12.598425 3.937008 5.905512 12.598425 0.000000 5.905512 12.598425 3.937008 1.968504 0.000000 3.937008 5.905512 5.118110 3.937008 4.724409 0.000000 3.937008 3.543307 4.527559 3.937008 4.882647 4.095246 3.937008 5.314960 3.937008 3.937008 5.905512 5.249344 3.937008 0.236220 20.472441 3.937008 0.000000 7.874016 3.937008 0.000000 23.097113 3.937008 0.236220 3.149606 3.937008 0.708661 25.196850 3.937008 0.708661 1.574803 3.937008 1.417323 26.771652 3.937008 1.417323 0.524934 3.937008 2.362205 12.598425 3.937008 1.968504 11.023622 3.937008 4.724409 11.614173 3.937008 4.882647 12.046487 3.937008 5.314960 12.598425 3.937008 5.905512 12.204723 3.937008 5.905512 15.748032 3.937008 1.968504 27.821522 3.937008 2.362205 17.322834 3.937008 4.724409 16.732285 3.937008 4.882647 16.299971 3.937008 5.314961 15.748032 3.937008 5.905512 28.346457 3.937008 3.543307 16.141733 3.937008 5.905512 23.228346 3.937008 4.724409 28.346457 3.937008 5.905511 23.818897 3.937008 4.882647 24.251211 3.937008 5.314961 24.409447 3.937008 5.905512 12.598425 0.000000 5.905512 12.204723 0.393701 5.905512 12.204723 0.000000 5.905512 12.598425 3.937008 5.905512 3.937008 0.000000 5.905512 3.937008 3.543307 5.905512 0.000000 0.000000 5.905511 3.937008 0.393701 5.905512 12.204723 3.543307 5.905512 12.204723 3.937008 5.905512 3.937008 3.937008 5.905512 0.000000 3.937008 5.905512 28.346457 0.000000 5.905511 23.228346 0.000000 4.724409 28.346457 0.000000 3.543307 23.818897 0.000000 4.882647 24.251211 0.000000 5.314961 24.409447 0.000000 5.905511 27.821522 0.000000 2.362205 15.748032 0.000000 1.968504 26.771652 0.000000 1.417323 17.322834 0.000000 4.724409 16.732285 0.000000 4.882647 16.299971 0.000000 5.314961 15.748032 0.000000 5.905511 16.141733 0.000000 5.905511 23.097113 0.000000 0.236220 7.874016 0.000000 0.000000 20.472441 0.000000 0.000000 5.249344 0.000000 0.236220 25.196850 0.000000 0.708661 3.149606 0.000000 0.708661 1.574803 0.000000 1.417323 0.524934 0.000000 2.362205 12.598425 0.000000 1.968504 11.023622 0.000000 4.724409 11.614173 0.000000 4.882647 12.046487 0.000000 5.314961 12.598425 0.000000 5.905512 0.000000 0.000000 3.543307 12.204723 0.000000 5.905512 5.118110 0.000000 4.724409 0.000000 0.000000 5.905511 4.527559 0.000000 4.882647 4.095246 0.000000 5.314961 3.937008 0.000000 5.905512 12.598425 0.000000 1.968504 15.748032 3.937008 1.968504 12.598425 3.937008 1.968504 15.748032 0.000000 1.968504 15.748032 0.000000 5.905511 16.141733 3.937008 5.905512 15.748032 3.937008 5.905512 16.141733 3.543307 5.905512 16.141733 0.000000 5.905511 16.141733 0.393701 5.905512 24.409449 3.543307 5.905512 24.409447 0.393701 5.905512 28.346457 3.937008 5.905511 24.409447 3.937008 5.905512 24.409447 0.000000 5.905511 28.346457 0.000000 5.905511 28.346457 3.937008 3.543307 28.346457 0.000000 5.905511 28.346457 0.000000 3.543307 28.346457 3.937008 5.905511 27.821522 0.000000 2.362205 28.346457 3.937008 3.543307 28.346457 0.000000 3.543307 27.821522 3.937008 2.362205 27.821522 3.937008 2.362205 26.771652 0.000000 1.417323 26.771652 3.937008 1.417323 27.821522 0.000000 2.362205 25.196850 0.000000 0.708661 25.196850 3.937008 0.708661 23.097113 0.000000 0.236220 23.097113 3.937008 0.236220 20.472441 0.000000 0.000000 20.472441 3.937008 0.000000 7.874016 0.000000 0.000000 7.874016 3.937008 0.000000 5.249344 0.000000 0.236220 5.249344 3.937008 0.236220 3.149606 0.000000 0.708661 3.149606 3.937008 0.708661 1.574803 0.000000 1.417323 1.574803 3.937008 1.417323 0.524934 0.000000 2.362205 0.524934 3.937008 2.362205 0.000000 3.937008 3.543307 0.524934 0.000000 2.362205 0.000000 0.000000 3.543307 0.524934 3.937008 2.362205 0.000000 3.937008 5.905512 0.000000 0.000000 3.543307 0.000000 0.000000 5.905511 0.000000 3.937008 3.543307 4.095246 3.937008 5.314960 3.937008 3.543307 5.905512 4.095246 3.543307 5.314961 3.937008 3.937008 5.905512 4.527559 3.937008 4.882647 4.095246 3.543307 5.314961 4.527559 3.543307 4.882647 4.095246 3.937008 5.314960 5.118110 3.543307 4.724409 4.527559 3.937008 4.882647 4.527559 3.543307 4.882647 5.118110 3.937008 4.724409 11.023622 3.543307 4.724409 11.023622 3.937008 4.724409 11.614173 3.543307 4.882647 11.614173 3.937008 4.882647 12.046487 3.937008 5.314960 11.614173 3.543307 4.882647 12.046487 3.543307 5.314961 11.614173 3.937008 4.882647 12.204723 3.937008 5.905512 12.046487 3.543307 5.314961 12.204723 3.543307 5.905512 12.046487 3.937008 5.314960 15.748032 3.937008 5.905512 15.748032 0.000000 1.968504 15.748032 0.000000 5.905511 15.748032 3.937008 1.968504 16.299971 3.543307 5.314961 16.141733 3.937008 5.905512 16.141733 3.543307 5.905512 16.299971 3.937008 5.314961 16.732285 3.543307 4.882647 16.299971 3.937008 5.314961 16.299971 3.543307 5.314961 16.732285 3.937008 4.882647 16.732285 3.543307 4.882647 17.322834 3.937008 4.724409 16.732285 3.937008 4.882647 17.322834 3.543307 4.724409 23.228346 3.937008 4.724409 23.228346 3.543307 4.724409 23.818897 3.937008 4.882647 23.818897 3.543307 4.882647 24.251211 3.543307 5.314961 23.818897 3.937008 4.882647 23.818897 3.543307 4.882647 24.251211 3.937008 5.314961 24.409449 3.543307 5.905512 24.251211 3.937008 5.314961 24.251211 3.543307 5.314961 24.409447 3.937008 5.905512 4.527559 3.543307 4.882647 11.023622 3.543307 4.724409 5.118110 3.543307 4.724409 11.614173 3.543307 4.882647 4.095246 3.543307 5.314961 12.046487 3.543307 5.314961 3.937008 3.543307 5.905512 12.204723 3.543307 5.905512 4.095245 0.393701 5.314961 3.937008 0.000000 5.905512 4.095246 0.000000 5.314961 3.937008 0.393701 5.905512 11.614173 0.393701 4.882647 5.118110 0.393701 4.724409 11.023622 0.393701 4.724409 4.527559 0.393701 4.882647 12.046487 0.393701 5.314961 4.095245 0.393701 5.314961 12.204723 0.393701 5.905512 3.937008 0.393701 5.905512 12.204723 0.393701 5.905512 12.046487 0.000000 5.314961 12.204723 0.000000 5.905512 12.046487 0.393701 5.314961 24.409447 0.000000 5.905511 24.251211 0.393701 5.314961 24.251211 0.000000 5.314961 24.409447 0.393701 5.905512 24.251211 0.000000 5.314961 23.818897 0.393701 4.882647 23.818897 0.000000 4.882647 24.251211 0.393701 5.314961 23.228346 0.000000 4.724409 23.818897 0.393701 4.882647 23.228346 0.393701 4.724409 23.818897 0.000000 4.882647 17.322834 0.000000 4.724409 17.322834 0.393701 4.724409 16.732285 0.000000 4.882647 16.732285 0.393701 4.882647 16.732285 0.000000 4.882647 16.299971 0.393701 5.314961 16.299971 0.000000 5.314961 16.732285 0.393701 4.882647 16.299971 0.000000 5.314961 16.141733 0.393701 5.905512 16.141733 0.000000 5.905511 16.299971 0.393701 5.314961 12.046487 0.393701 5.314961 11.614173 0.000000 4.882647 12.046487 0.000000 5.314961 11.614173 0.393701 4.882647 11.614173 0.000000 4.882647 11.023622 0.393701 4.724409 11.023622 0.000000 4.724409 11.614173 0.393701 4.882647 5.118110 0.393701 4.724409 5.118110 0.000000 4.724409 4.527559 0.393701 4.882647 4.527559 0.000000 4.882647 4.527559 0.393701 4.882647 4.095246 0.000000 5.314961 4.527559 0.000000 4.882647 4.095245 0.393701 5.314961 16.732285 3.543307 4.882647 23.228346 3.543307 4.724409 17.322834 3.543307 4.724409 23.818897 3.543307 4.882647 16.299971 3.543307 5.314961 24.251211 3.543307 5.314961 16.141733 3.543307 5.905512 24.409449 3.543307 5.905512 23.818897 0.393701 4.882647 17.322834 0.393701 4.724409 23.228346 0.393701 4.724409 16.732285 0.393701 4.882647 24.251211 0.393701 5.314961 16.299971 0.393701 5.314961 24.409447 0.393701 5.905512 16.141733 0.393701 5.905512 "
								            />
							</IndexedFaceSet>
						</Shape>
					</Group>
				</Transform>
			</Transform>
			<Transform DEF="instance_8_TRANSFORM"
			           translation="3.968306 23.070866 10.629921"
			           scale="1.000000 1.000000 1.000000"
			           rotation="0.000000 0.000000 -1.000000 1.570796"
			           >
				<Transform DEF="instance_8_ifs_TRANSFORM"
				           translation="0.000000 0.000000 0.000000"
				           scale="1.000000 1.000000 1.000000"
				           rotation="0.000000 1.000000 0.000000 0.000000"
				           >
					<Group USE="group_ME_ID69" />
				</Transform>
			</Transform>
			<Transform DEF="instance_9_TRANSFORM"
			           translation="12.629723 26.220472 0.000000"
			           scale="1.000000 1.000000 1.000000"
			           rotation="0.000000 0.000000 -1.000000 1.570796"
			           >
				<Transform DEF="instance_9_ifs_TRANSFORM"
				           translation="0.000001 0.000000 0.000000"
				           scale="1.000000 1.000000 1.000000"
				           rotation="0.000000 1.000000 0.000000 0.000000"
				           >
					<Group USE="group_ME_ID61" />
				</Transform>
			</Transform>
			<Transform DEF="instance_10_TRANSFORM"
			           translation="28.377752 23.070866 10.629921"
			           scale="1.000000 1.000000 1.000000"
			           rotation="0.000000 0.000000 -1.000000 1.570796"
			           >
				<Transform DEF="instance_10_ifs_TRANSFORM"
				           translation="0.000000 -0.000000 0.000000"
				           scale="1.000000 1.000000 1.000000"
				           rotation="0.000000 1.000000 0.000000 0.000000"
				           >
					<Group USE="group_ME_ID69" />
				</Transform>
			</Transform>
			<Transform DEF="instance_11_TRANSFORM"
			           translation="14.382721 69.153786 10.629921"
			           scale="1.000000 1.000000 1.000000"
			           rotation="0.000000 1.000000 0.000000 0.000000"
			           >
				<Transform DEF="instance_11_ifs_TRANSFORM"
				           translation="0.000000 0.000000 0.000000"
				           scale="1.000000 1.000000 1.000000"
				           rotation="0.000000 1.000000 0.000000 0.000000"
				           >
					<Group USE="group_ME_ID69" />
				</Transform>
			</Transform>
			<Transform DEF="instance_12_TRANSFORM"
			           translation="8.870910 63.248268 10.629921"
			           scale="1.000000 1.000000 1.000000"
			           rotation="-0.000000 -0.000000 -1.000000 3.141593"
			           >
				<Transform DEF="instance_12_ifs_TRANSFORM"
				           translation="0.000000 0.000001 0.000000"
				           scale="1.000000 1.000000 1.000000"
				           rotation="0.000000 1.000000 0.000000 0.000000"
				           >
					<Group USE="group_ME_ID77" />
				</Transform>
			</Transform>
			<Transform DEF="instance_13_TRANSFORM"
			           translation="19.500830 45.531731 4.724409"
			           scale="1.000000 1.000000 1.000000"
			           rotation="0.000000 0.000000 1.000000 1.570796"
			           >
				<Transform DEF="instance_13_ifs_TRANSFORM"
				           translation="0.000001 -0.000000 0.000000"
				           scale="1.000000 1.000000 1.000000"
				           rotation="0.000000 1.000000 0.000000 0.000000"
				           >
					<Group USE="group_ME_ID85" />
				</Transform>
			</Transform>
		</Transform>
		<Transform DEF="SketchUp_001_TRANSFORM"
		           translation="0.000000 0.000000 0.000000"
		           scale="1.000000 1.000000 1.000000"
		           rotation="-1.000000 0.000000 0.000000 1.570796"
		           >
			<Transform DEF="SketchUp_001_ifs_TRANSFORM"
			           translation="0.000000 0.000000 0.000000"
			           scale="1.000000 1.000000 1.000000"
			           rotation="0.000000 1.000000 0.000000 0.000000"
			           >
				<Group DEF="group_ME_ID103">
				</Group>
			</Transform>
		</Transform>
	</Scene>
</X3D>