<?xml version="1.0" encoding="UTF-8"?>
<!DOCTYPE X3D PUBLIC "ISO//Web3D//DTD X3D 3.0//EN" "http://www.web3d.org/specifications/x3d-3.0.dtd">
<X3D version="3.0" profile="Immersive" xmlns:xsd="http://www.w3.org/2001/XMLSchema-instance" xsd:noNamespaceSchemaLocation="http://www.web3d.org/specifications/x3d-3.0.xsd">
	<head>
		<meta name="filename" content="05-4 把頭絞項造.x3d" />
		<meta name="created" content="2025-12-29 13:25:52" />
		<meta name="generator" content="Blender 4.2.2 LTS" />
		<meta name="translator" content="Web3D X3D/VRML2 format v2.5.1" />
	</head>
	<Scene>
		<NavigationInfo headlight="true"
		                visibilityLimit="0.0"
		                type='"EXAMINE", "ANY"'
		                avatarSize="0.25, 1.75, 0.75"
		                />
		<Background DEF="WO_World"
		            groundColor="0.051 0.051 0.051"
		            skyColor="0.051 0.051 0.051"
		            />
		<Transform DEF="SketchUp_TRANSFORM"
		           translation="0.000000 0.000000 0.000000"
		           scale="0.025400 0.025400 0.025400"
		           rotation="-1.000000 0.000000 0.000000 1.570796"
		           >
			<Transform DEF="group_0_TRANSFORM"
			           translation="77.975174 -4.340217 0.000000"
			           scale="1.000000 1.000000 1.000000"
			           rotation="0.000000 0.000000 1.000000 1.570796"
			           >
				<Transform DEF="group_1_TRANSFORM"
				           translation="0.000000 19.633808 12.992126"
				           scale="1.000000 1.000000 1.000000"
				           rotation="0.000000 0.000000 -0.000000 0.000000"
				           >
					<Transform DEF="group_1_ifs_TRANSFORM"
					           translation="-0.000000 -0.000000 0.000001"
					           scale="1.000000 1.000000 1.000000"
					           rotation="0.000000 0.000000 -0.000000 0.000000"
					           >
						<Group DEF="group_ME_ID4">
							<Shape>
								<Appearance>
									<Material DEF="MA_material_003"
									          diffuseColor="1.000 1.000 1.000"
									          specularColor="0.401 0.401 0.401"
									          emissiveColor="0.000 0.000 0.000"
									          ambientIntensity="0.000"
									          shininess="0.500"
									          transparency="0.000"
									          />
								</Appearance>
								<IndexedFaceSet solid="false"
								                coordIndex="0 1 2 -1 1 0 3 -1 4 5 6 -1 5 4 7 -1 8 9 10 -1 9 8 11 -1 12 13 14 -1 13 12 15 -1 16 17 18 -1 17 16 19 -1 20 21 22 -1 21 20 23 -1 "
								                >
									<Coordinate DEF="coords_ME_ID4"
									            point="0.000000 5.094488 5.905512 0.000000 1.157480 0.000000 0.000000 1.157480 5.905512 0.000000 5.094488 0.000000 42.480316 5.094488 0.000000 0.000000 1.157480 0.000000 0.000000 5.094488 0.000000 42.480316 1.157480 0.000000 42.480316 1.157480 5.905512 0.000000 1.157480 0.000000 42.480316 1.157480 0.000000 0.000000 1.157480 5.905512 0.000000 1.157480 5.905512 42.480316 5.094488 5.905512 0.000000 5.094488 5.905512 42.480316 1.157480 5.905512 0.000000 5.094488 5.905512 42.480316 5.094488 0.000000 0.000000 5.094488 0.000000 42.480316 5.094488 5.905512 42.480316 5.094488 0.000000 42.480316 1.157480 5.905512 42.480316 1.157480 0.000000 42.480316 5.094488 5.905512 "
									            />
								</IndexedFaceSet>
							</Shape>
						</Group>
					</Transform>
				</Transform>
				<Transform DEF="group_2_TRANSFORM"
				           translation="22.767719 0.000001 4.724409"
				           scale="1.000000 1.000000 1.000000"
				           rotation="0.000000 0.000000 1.000000 1.570796"
				           >
					<Transform DEF="group_2_ifs_TRANSFORM"
					           translation="0.000003 -0.000002 0.000000"
					           scale="1.000000 1.000000 1.000000"
					           rotation="0.000000 0.000000 -0.000000 0.000000"
					           >
						<Group DEF="group_ME_ID13">
							<Shape>
								<Appearance>
									<Material USE="MA_material_003" />
								</Appearance>
								<IndexedFaceSet solid="false"
								                coordIndex="0 1 2 -1 1 0 3 -1 4 5 6 -1 5 4 7 -1 8 9 10 -1 9 8 11 -1 9 11 12 -1 12 11 13 -1 13 11 14 -1 14 11 15 -1 15 11 16 -1 9 17 18 -1 17 9 12 -1 19 20 21 -1 20 19 22 -1 23 24 25 -1 24 26 27 -1 26 24 28 -1 28 24 23 -1 28 23 29 -1 29 23 30 -1 28 29 31 -1 28 31 32 -1 28 32 33 -1 28 33 34 -1 35 36 37 -1 36 35 38 -1 39 40 41 -1 40 39 42 -1 43 41 44 -1 41 43 39 -1 45 44 46 -1 44 45 43 -1 47 48 49 -1 48 47 50 -1 50 47 51 -1 51 47 52 -1 48 53 54 -1 53 48 50 -1 55 56 57 -1 56 55 58 -1 58 55 54 -1 58 54 53 -1 59 60 61 -1 60 59 62 -1 62 59 63 -1 63 59 64 -1 64 59 65 -1 66 67 68 -1 67 66 69 -1 70 71 72 -1 71 70 73 -1 62 74 60 -1 74 62 75 -1 76 77 78 -1 77 76 79 -1 80 81 82 -1 81 80 83 -1 84 85 86 -1 85 84 87 -1 88 89 90 -1 89 88 91 -1 91 88 92 -1 91 92 93 -1 93 92 94 -1 94 92 95 -1 96 97 98 -1 99 100 101 -1 102 103 104 -1 103 102 100 -1 103 100 105 -1 105 100 99 -1 105 99 106 -1 107 108 109 -1 108 107 110 -1 111 112 113 -1 112 111 114 -1 115 116 117 -1 116 115 118 -1 118 115 119 -1 118 119 120 -1 121 122 123 -1 122 121 124 -1 125 126 127 -1 126 125 128 -1 129 130 131 -1 130 129 132 -1 132 129 133 -1 134 135 136 -1 135 134 137 -1 138 139 140 -1 139 138 141 -1 142 143 144 -1 143 142 145 -1 146 147 148 -1 147 146 149 -1 "
								                >
									<Coordinate DEF="coords_ME_ID13"
									            point="0.000000 5.905512 8.267716 0.000000 0.000000 0.000000 0.000000 0.000000 8.267716 0.000000 5.905512 0.000000 19.610188 0.000000 8.267716 0.000000 5.905512 8.267716 0.000000 0.000000 8.267716 19.610188 5.905512 8.267716 0.000000 5.905512 0.000000 19.610188 5.905512 1.181102 19.610188 5.905512 0.000000 0.000000 5.905512 8.267716 20.397591 5.905512 5.905512 20.295191 5.905512 6.500865 20.025032 5.905512 7.041184 19.610188 5.905512 7.480315 19.610188 5.905512 8.267716 20.791290 5.905512 5.905512 20.791290 5.905512 1.181102 0.000000 5.905512 0.000000 19.610188 0.000000 0.000000 0.000000 0.000000 0.000000 19.610188 5.905512 0.000000 20.791290 0.000000 1.968504 19.610188 0.000000 1.181102 20.791290 0.000000 1.181102 0.000000 0.000000 0.000000 19.610188 0.000000 0.000000 0.000000 0.000000 8.267716 20.397591 0.000000 5.905512 20.791290 0.000000 5.905512 20.295191 0.000000 6.500865 20.025032 0.000000 7.041184 19.610188 0.000000 7.480315 19.610188 0.000000 8.267716 19.610188 0.000000 7.480315 19.610188 5.905512 8.267716 19.610188 0.000000 8.267716 19.610188 5.905512 7.480315 20.025032 5.905512 7.041184 19.610188 0.000000 7.480315 20.025032 0.000000 7.041184 19.610188 5.905512 7.480315 20.295191 5.905512 6.500865 20.295191 0.000000 6.500865 20.397591 5.905512 5.905512 20.397591 0.000000 5.905512 34.075851 0.984252 5.905512 24.728298 1.377953 5.905512 24.728298 0.984252 5.905512 24.728298 4.527559 5.905512 24.728298 4.921260 5.905512 34.075851 4.921260 5.905512 20.791290 4.527559 5.905512 20.791290 1.377953 5.905512 20.791290 0.000000 5.905512 20.397591 5.905512 5.905512 20.397591 0.000000 5.905512 20.791290 5.905512 5.905512 20.791290 5.905512 1.181102 20.791290 0.000000 1.968504 20.791290 0.000000 1.181102 20.791290 1.377953 1.968504 20.791290 4.527559 1.968504 20.791290 4.527559 5.905512 20.791290 5.905512 5.905512 20.791290 5.905512 1.181102 19.610188 0.000000 1.181102 19.610188 5.905512 1.181102 20.791290 0.000000 1.181102 19.610188 5.905512 0.000000 19.610188 0.000000 1.181102 19.610188 0.000000 0.000000 19.610188 5.905512 1.181102 20.791290 0.000000 5.905512 20.791290 1.377953 5.905512 20.791290 4.527559 1.968504 24.728298 4.527559 5.905512 24.728298 4.527559 1.968504 20.791290 4.527559 5.905512 24.728298 1.377953 5.905512 20.791290 1.377953 1.968504 24.728298 1.377953 1.968504 20.791290 1.377953 5.905512 24.728298 1.377953 5.905512 24.728298 0.984252 1.968504 24.728298 0.984252 5.905512 24.728298 1.377953 1.968504 32.028606 0.984252 0.787402 25.909401 0.984252 0.000000 29.745142 0.984252 0.000000 25.909401 0.984252 1.181102 34.075851 0.984252 5.905512 24.728298 0.984252 1.181102 24.728298 0.984252 1.968504 24.728298 0.984252 5.905512 35.751923 2.952756 5.174428 34.075851 4.921260 5.905512 34.075851 0.984252 5.905512 24.728298 4.921260 1.968504 25.909401 4.921260 1.181102 24.728298 4.921260 1.181102 25.909401 4.921260 0.000000 32.028606 4.921260 0.787402 29.745142 4.921260 0.000000 34.075851 4.921260 5.905512 24.728298 4.921260 5.905512 24.728298 4.921260 5.905512 24.728298 4.527559 1.968504 24.728298 4.527559 5.905512 24.728298 4.921260 1.968504 24.728298 4.527559 1.968504 20.791290 1.377953 1.968504 20.791290 4.527559 1.968504 24.728298 1.377953 1.968504 24.728298 1.377953 1.968504 24.728298 0.984252 1.181102 24.728298 0.984252 1.968504 24.728298 4.921260 1.181102 24.728298 4.527559 1.968504 24.728298 4.921260 1.968504 25.909401 4.921260 1.181102 24.728298 0.984252 1.181102 24.728298 4.921260 1.181102 25.909401 0.984252 1.181102 25.909401 4.921260 1.181102 25.909401 0.984252 0.000000 25.909401 0.984252 1.181102 25.909401 4.921260 0.000000 29.745142 4.921260 0.000000 25.909401 0.984252 0.000000 25.909401 4.921260 0.000000 29.745142 0.984252 0.000000 31.713646 2.952756 0.000000 31.713646 2.952756 0.000000 32.028606 0.984252 0.787402 29.745142 0.984252 0.000000 33.997112 2.952756 0.787402 32.028606 0.984252 0.787402 35.751923 2.952756 5.174428 34.075851 0.984252 5.905512 33.997112 2.952756 0.787402 34.075851 4.921260 5.905512 33.997112 2.952756 0.787402 32.028606 4.921260 0.787402 35.751923 2.952756 5.174428 32.028606 4.921260 0.787402 31.713646 2.952756 0.000000 29.745142 4.921260 0.000000 33.997112 2.952756 0.787402 "
									            />
								</IndexedFaceSet>
							</Shape>
						</Group>
					</Transform>
				</Transform>
				<Transform DEF="instance_0_TRANSFORM"
				           translation="13.515749 29.059006 0.000000"
				           scale="1.000000 1.000000 1.000000"
				           rotation="0.000000 0.000000 -1.000000 1.570796"
				           >
					<Transform DEF="instance_0_ifs_TRANSFORM"
					           translation="0.000004 0.000001 0.000000"
					           scale="1.000000 1.000000 1.000000"
					           rotation="0.000000 1.000000 0.000000 0.000000"
					           >
						<Group DEF="group_ME_ID21_001">
							<Shape>
								<Appearance>
								</Appearance>
								<IndexedFaceSet solid="false"
								                coordIndex="0 1 2 -1 1 0 3 -1 4 5 6 -1 5 4 7 -1 5 7 8 -1 6 9 10 -1 9 6 5 -1 10 9 11 -1 12 13 14 -1 13 12 15 -1 13 15 16 -1 16 15 17 -1 17 15 18 -1 19 14 13 -1 20 21 22 -1 21 20 23 -1 23 20 24 -1 24 20 25 -1 26 27 28 -1 29 30 31 -1 30 29 32 -1 30 32 33 -1 33 32 27 -1 33 27 26 -1 34 35 36 -1 35 34 37 -1 35 37 38 -1 38 37 39 -1 39 37 40 -1 40 37 41 -1 42 36 35 -1 43 44 45 -1 44 43 46 -1 47 48 49 -1 50 51 52 -1 51 50 53 -1 51 53 54 -1 54 53 48 -1 54 48 47 -1 55 56 57 -1 56 55 58 -1 59 60 61 -1 60 59 62 -1 63 64 65 -1 64 66 67 -1 66 64 68 -1 68 64 63 -1 69 70 71 -1 70 69 72 -1 73 74 75 -1 74 73 76 -1 74 76 77 -1 75 78 79 -1 78 75 74 -1 79 78 80 -1 81 82 83 -1 82 81 84 -1 85 86 87 -1 86 85 88 -1 89 90 91 -1 90 89 92 -1 93 94 95 -1 94 93 96 -1 97 98 99 -1 98 97 100 -1 101 102 103 -1 102 101 104 -1 104 101 105 -1 105 101 106 -1 107 108 109 -1 108 107 110 -1 111 112 113 -1 112 114 115 -1 114 112 116 -1 116 112 111 -1 117 118 119 -1 118 117 120 -1 118 120 121 -1 121 120 122 -1 123 124 125 -1 124 123 126 -1 61 127 128 -1 127 61 60 -1 129 130 131 -1 130 129 132 -1 96 133 94 -1 133 96 134 -1 135 136 137 -1 136 135 138 -1 139 120 117 -1 120 139 140 -1 120 140 141 -1 120 141 122 -1 128 142 143 -1 142 128 127 -1 131 144 145 -1 144 131 130 -1 134 146 133 -1 146 134 147 -1 148 140 139 -1 140 148 149 -1 140 149 141 -1 150 151 152 -1 151 150 153 -1 145 154 155 -1 154 145 144 -1 "
								                >
									<Coordinate DEF="coords_ME_ID21_001"
									            point="4.330709 0.000000 7.874016 0.000000 4.330709 7.874016 0.000000 0.000000 7.874016 4.330709 4.330709 7.874016 12.598425 -0.000000 3.149606 8.267716 0.000000 4.724409 0.000000 0.000000 3.149606 12.598425 -0.000000 7.874016 8.267716 0.000000 7.874016 4.330709 0.000000 4.724409 0.000000 0.000000 7.874016 4.330709 0.000000 7.874016 4.330709 0.000000 4.724409 4.330709 4.330709 6.299213 4.330709 0.000000 7.874016 4.330709 12.598425 4.724409 4.330709 8.267716 6.299213 4.330709 8.267716 7.874016 4.330709 12.598425 7.874016 4.330709 4.330709 7.874016 0.000000 4.330709 7.874016 3.149606 4.330709 4.724409 0.000000 4.330709 4.724409 3.149606 4.330709 6.299213 4.330709 4.330709 6.299213 4.330709 4.330709 7.874016 -0.000000 12.598425 7.874016 0.000000 8.267716 4.724409 0.000000 8.267716 7.874016 0.000000 4.330709 7.874016 0.000000 0.000000 3.149606 0.000000 0.000000 7.874016 0.000000 4.330709 4.724409 -0.000000 12.598425 3.149606 12.598425 -0.000000 3.149606 12.598425 3.346457 4.724409 12.598425 -0.000000 7.874016 12.598425 11.023622 3.149606 12.598425 9.251968 4.724409 12.598425 9.251968 7.874016 12.598425 12.598425 7.874016 12.598425 12.598425 3.149606 12.598425 3.346457 7.874016 12.598425 -0.000000 7.874016 8.267716 3.346457 7.874016 8.267716 0.000000 7.874016 12.598425 3.346457 7.874016 8.267716 12.598425 7.874016 8.267716 9.251968 6.299213 8.267716 9.251968 7.874016 8.267716 3.346457 7.874016 8.267716 0.000000 4.724409 8.267716 0.000000 7.874016 8.267716 3.346457 6.299213 8.267716 12.598425 4.724409 8.267716 0.000000 4.724409 4.330709 12.598425 4.724409 4.330709 0.000000 4.724409 8.267716 12.598425 4.724409 12.598425 -0.000000 3.149606 0.829686 0.829686 2.271344 11.768739 0.829686 2.271344 0.000000 0.000000 3.149606 4.330709 8.267716 7.874016 3.149606 8.267716 6.299213 4.330709 8.267716 6.299213 0.000000 8.267716 4.724409 3.149606 8.267716 4.724409 0.000000 8.267716 7.874016 4.330709 4.330709 6.299213 3.149606 8.267716 6.299213 3.149606 4.330709 6.299213 4.330709 8.267716 6.299213 -0.000000 12.598425 3.149606 4.330709 12.598425 4.724409 12.598425 12.598425 3.149606 -0.000000 12.598425 7.874016 4.330709 12.598425 7.874016 8.267716 12.598425 4.724409 12.598425 12.598425 7.874016 8.267716 12.598425 7.874016 0.000000 8.267716 7.874016 4.330709 12.598425 7.874016 -0.000000 12.598425 7.874016 4.330709 8.267716 7.874016 3.149606 8.267716 6.299213 3.149606 4.330709 4.724409 3.149606 4.330709 6.299213 3.149606 8.267716 4.724409 3.149606 4.330709 4.724409 0.000000 8.267716 4.724409 0.000000 4.330709 4.724409 3.149606 8.267716 4.724409 -0.000000 12.598425 3.149606 0.829686 0.829686 2.271344 0.000000 0.000000 3.149606 0.829686 11.768739 2.271344 12.598425 9.251968 7.874016 8.267716 12.598425 7.874016 8.267716 9.251968 7.874016 12.598425 12.598425 7.874016 12.598425 9.251968 7.874016 9.448818 9.251968 4.724409 12.598425 9.251968 4.724409 9.448818 9.251968 6.299213 8.267716 9.251968 6.299213 8.267716 9.251968 7.874016 9.448818 3.346457 4.724409 12.598425 9.251968 4.724409 9.448818 9.251968 4.724409 12.598425 3.346457 4.724409 8.267716 3.346457 7.874016 9.448818 3.346457 6.299213 8.267716 3.346457 6.299213 12.598425 3.346457 4.724409 9.448818 3.346457 4.724409 12.598425 3.346457 7.874016 11.768739 0.829686 2.271344 12.598425 11.023622 3.149606 12.598425 -0.000000 3.149606 11.768739 11.023622 2.271344 12.598425 12.598425 3.149606 11.768739 11.768739 2.271344 8.267716 3.346457 6.299213 9.448818 9.251968 6.299213 8.267716 9.251968 6.299213 9.448818 3.346457 6.299213 1.370005 1.370005 1.190706 11.228419 1.370005 1.190706 -0.000000 12.598425 3.149606 11.768739 11.768739 2.271344 0.829686 11.768739 2.271344 12.598425 12.598425 3.149606 1.370005 1.370005 1.190706 1.370005 11.228419 1.190706 9.448818 9.251968 4.724409 9.448818 3.346457 6.299213 9.448818 3.346457 4.724409 9.448818 9.251968 6.299213 11.228419 1.370005 1.190706 11.228419 11.023622 1.190706 11.228419 11.228419 1.190706 1.574803 1.574803 0.000000 11.023622 1.574803 0.000000 11.228419 11.228419 1.190706 1.370005 11.228419 1.190706 1.574803 1.574803 0.000000 1.574803 11.023622 0.000000 11.023622 1.574803 0.000000 11.023622 11.023622 0.000000 11.023622 11.023622 0.000000 1.574803 1.574803 0.000000 1.574803 11.023622 0.000000 11.023622 1.574803 0.000000 11.023622 11.023622 0.000000 1.574803 11.023622 0.000000 "
									            />
								</IndexedFaceSet>
							</Shape>
						</Group>
					</Transform>
				</Transform>
				<Transform DEF="instance_1_TRANSFORM"
				           translation="7.610237 20.791290 4.724409"
				           scale="1.000000 1.000000 1.000000"
				           rotation="0.000000 0.000000 -0.000000 0.000000"
				           >
					<Transform DEF="instance_1_ifs_TRANSFORM"
					           translation="0.000000 0.000000 0.000000"
					           scale="1.000000 1.000000 1.000000"
					           rotation="0.000000 0.000000 -0.000000 0.000000"
					           >
						<Group DEF="group_ME_ID29_001">
							<Shape>
								<Appearance>
								</Appearance>
								<IndexedFaceSet solid="false"
								                coordIndex="0 1 2 -1 1 0 3 -1 4 5 6 -1 5 4 7 -1 7 4 8 -1 8 4 9 -1 10 11 12 -1 11 10 13 -1 13 10 14 -1 13 14 15 -1 15 14 16 -1 15 16 17 -1 17 16 18 -1 17 18 19 -1 17 19 20 -1 18 16 21 -1 21 16 6 -1 21 6 5 -1 20 19 22 -1 15 23 24 -1 23 15 17 -1 24 23 25 -1 25 23 26 -1 26 23 27 -1 24 25 28 -1 24 28 29 -1 26 27 30 -1 29 31 32 -1 31 29 28 -1 32 31 33 -1 32 33 34 -1 32 34 35 -1 36 37 38 -1 37 36 39 -1 40 41 42 -1 41 40 43 -1 43 40 44 -1 44 40 45 -1 46 47 48 -1 47 46 49 -1 49 46 50 -1 49 50 51 -1 51 50 52 -1 51 52 53 -1 53 52 54 -1 53 54 55 -1 53 55 56 -1 54 52 57 -1 57 52 42 -1 57 42 41 -1 56 55 58 -1 51 59 60 -1 59 51 53 -1 60 59 61 -1 61 59 62 -1 62 59 63 -1 60 61 64 -1 60 64 65 -1 62 63 66 -1 65 67 68 -1 67 65 64 -1 68 67 69 -1 68 69 70 -1 68 70 71 -1 72 73 74 -1 73 72 75 -1 76 77 78 -1 77 76 79 -1 80 81 82 -1 81 80 83 -1 84 85 86 -1 85 84 87 -1 87 84 88 -1 87 88 89 -1 89 90 87 -1 90 89 91 -1 90 92 93 -1 92 90 91 -1 92 91 94 -1 92 94 95 -1 96 97 98 -1 97 96 99 -1 100 99 96 -1 99 100 101 -1 100 102 101 -1 102 100 103 -1 104 105 106 -1 105 104 107 -1 108 109 110 -1 109 108 111 -1 112 109 111 -1 109 112 113 -1 114 113 112 -1 113 114 115 -1 116 117 118 -1 117 116 119 -1 120 121 122 -1 121 120 123 -1 124 125 126 -1 125 124 127 -1 128 129 130 -1 129 128 131 -1 132 133 134 -1 133 132 135 -1 136 137 138 -1 137 136 139 -1 140 141 142 -1 141 140 143 -1 144 145 146 -1 145 144 147 -1 148 149 150 -1 149 148 151 -1 152 153 154 -1 153 152 155 -1 153 155 156 -1 156 155 149 -1 156 149 157 -1 157 149 151 -1 154 158 159 -1 158 154 153 -1 160 161 162 -1 161 160 163 -1 164 162 165 -1 162 164 160 -1 166 164 165 -1 164 166 167 -1 168 169 170 -1 169 168 171 -1 172 173 174 -1 173 172 175 -1 176 172 177 -1 172 176 175 -1 178 177 179 -1 177 178 176 -1 180 181 182 -1 181 180 183 -1 184 185 186 -1 185 184 187 -1 187 188 185 -1 188 187 189 -1 188 190 191 -1 190 188 189 -1 192 193 194 -1 193 192 195 -1 196 197 198 -1 197 196 199 -1 197 200 198 -1 200 197 201 -1 201 202 200 -1 202 201 203 -1 204 205 206 -1 205 204 207 -1 206 208 209 -1 208 206 205 -1 210 208 211 -1 208 210 209 -1 212 213 214 -1 213 212 215 -1 216 217 218 -1 217 216 219 -1 216 220 221 -1 220 216 218 -1 221 222 223 -1 222 221 220 -1 224 225 226 -1 225 224 227 -1 227 224 228 -1 227 228 229 -1 229 228 230 -1 229 230 231 -1 232 233 234 -1 233 232 235 -1 235 232 236 -1 235 236 237 -1 237 236 238 -1 237 238 239 -1 240 241 242 -1 241 240 243 -1 243 240 244 -1 243 244 245 -1 245 244 246 -1 245 246 247 -1 248 249 250 -1 249 248 251 -1 251 248 252 -1 251 252 253 -1 253 252 254 -1 253 254 255 -1 "
								                >
									<Coordinate DEF="coords_ME_ID29_001"
									            point="5.511811 3.937008 0.000000 3.307087 0.000000 0.354331 3.307087 3.937008 0.354331 5.511811 0.000000 0.000000 0.000000 3.937008 5.905512 5.118110 3.937008 4.724409 0.000000 3.937008 3.543307 4.527559 3.937008 4.882647 4.095246 3.937008 5.314960 3.937008 3.937008 5.905512 3.307087 3.937008 0.354331 18.897636 3.937008 0.000000 5.511811 3.937008 0.000000 21.102362 3.937008 0.354331 1.653543 3.937008 1.062992 22.755903 3.937008 1.062992 0.551181 3.937008 2.125984 10.629921 3.937008 1.968504 9.645670 3.937008 4.882647 10.077983 3.937008 5.314960 10.629921 3.937008 5.905512 9.055119 3.937008 4.724409 10.236220 3.937008 5.905512 13.779528 3.937008 1.968504 23.858267 3.937008 2.125984 14.763780 3.937008 4.882647 14.331466 3.937008 5.314960 13.779528 3.937008 5.905512 15.354331 3.937008 4.724409 24.409447 3.937008 3.543307 14.173228 3.937008 5.905512 19.291338 3.937008 4.724409 24.409447 3.937008 5.905512 19.881889 3.937008 4.882647 20.314203 3.937008 5.314960 20.472441 3.937008 5.905512 18.897636 3.937008 0.000000 5.511811 0.000000 0.000000 5.511811 3.937008 0.000000 18.897636 0.000000 0.000000 24.409449 0.000000 5.905512 19.291338 0.000000 4.724409 24.409449 0.000000 3.543307 19.881889 0.000000 4.882647 20.314203 0.000000 5.314960 20.472441 0.000000 5.905512 21.102362 0.000000 0.354331 5.511811 0.000000 0.000000 18.897636 0.000000 0.000000 3.307087 0.000000 0.354331 22.755903 0.000000 1.062992 1.653543 0.000000 1.062992 23.858267 0.000000 2.125984 13.779528 0.000000 1.968504 14.763780 0.000000 4.882647 14.331466 0.000000 5.314960 13.779528 0.000000 5.905512 15.354331 0.000000 4.724409 14.173228 0.000000 5.905512 10.629921 0.000000 1.968504 0.551181 0.000000 2.125984 9.645670 0.000000 4.882647 10.077983 0.000000 5.314960 10.629921 0.000000 5.905512 9.055119 0.000000 4.724409 0.000000 0.000000 3.543307 10.236220 0.000000 5.905512 5.118110 0.000000 4.724409 0.000000 0.000000 5.905512 4.527559 0.000000 4.882647 4.095246 0.000000 5.314960 3.937008 0.000000 5.905512 3.307087 3.937008 0.354331 1.653543 0.000000 1.062992 1.653543 3.937008 1.062992 3.307087 0.000000 0.354331 10.629921 0.000000 1.968504 13.779528 3.937008 1.968504 10.629921 3.937008 1.968504 13.779528 0.000000 1.968504 13.779528 3.937008 5.905512 13.779528 0.000000 1.968504 13.779528 0.000000 5.905512 13.779528 3.937008 1.968504 13.779528 0.000000 5.905512 14.173228 3.937008 5.905512 13.779528 3.937008 5.905512 14.173228 3.543307 5.905512 14.173228 0.000000 5.905512 14.173227 0.393701 5.905511 20.472441 3.543307 5.905512 20.472441 0.393701 5.905511 24.409447 3.937008 5.905512 20.472441 3.937008 5.905512 20.472441 0.000000 5.905512 24.409449 0.000000 5.905512 14.331466 3.543307 5.314961 14.173228 3.937008 5.905512 14.173228 3.543307 5.905512 14.331466 3.937008 5.314960 14.763780 3.543307 4.882647 14.763780 3.937008 4.882647 15.354331 3.937008 4.724409 15.354331 3.543307 4.724410 15.354331 3.543307 4.724410 19.291338 3.937008 4.724409 15.354331 3.937008 4.724409 19.291338 3.543307 4.724410 19.291338 3.543307 4.724410 19.881889 3.937008 4.882647 19.291338 3.937008 4.724409 19.881889 3.543307 4.882647 20.314203 3.543307 5.314961 20.314203 3.937008 5.314960 20.472441 3.543307 5.905512 20.472441 3.937008 5.905512 24.409447 3.937008 3.543307 24.409449 0.000000 5.905512 24.409449 0.000000 3.543307 24.409447 3.937008 5.905512 23.858267 3.937008 2.125984 24.409449 0.000000 3.543307 23.858267 0.000000 2.125984 24.409447 3.937008 3.543307 23.858267 3.937008 2.125984 22.755903 0.000000 1.062992 22.755903 3.937008 1.062992 23.858267 0.000000 2.125984 22.755903 3.937008 1.062992 21.102362 0.000000 0.354331 21.102362 3.937008 0.354331 22.755903 0.000000 1.062992 21.102362 3.937008 0.354331 18.897636 0.000000 0.000000 18.897636 3.937008 0.000000 21.102362 0.000000 0.354331 1.653543 3.937008 1.062992 0.551181 0.000000 2.125984 0.551181 3.937008 2.125984 1.653543 0.000000 1.062992 0.000000 0.000000 3.543307 0.551181 3.937008 2.125984 0.551181 0.000000 2.125984 0.000000 3.937008 3.543307 0.000000 3.937008 5.905512 0.000000 0.000000 3.543307 0.000000 0.000000 5.905512 0.000000 3.937008 3.543307 10.629921 0.000000 5.905512 10.236220 0.393701 5.905511 10.236220 0.000000 5.905512 10.629921 3.937008 5.905512 3.937008 0.000000 5.905512 3.937008 3.543307 5.905512 0.000000 0.000000 5.905512 3.937008 0.393701 5.905511 10.236220 3.543307 5.905512 10.236220 3.937008 5.905512 3.937008 3.937008 5.905512 0.000000 3.937008 5.905512 4.095246 3.937008 5.314960 3.937008 3.543307 5.905512 4.095246 3.543307 5.314961 3.937008 3.937008 5.905512 4.527559 3.937008 4.882647 4.527559 3.543307 4.882647 5.118110 3.543307 4.724410 5.118110 3.937008 4.724409 9.055119 3.543307 4.724410 5.118110 3.937008 4.724409 5.118110 3.543307 4.724410 9.055119 3.937008 4.724409 9.645670 3.543307 4.882647 9.055119 3.937008 4.724409 9.055119 3.543307 4.724410 9.645670 3.937008 4.882647 10.077983 3.937008 5.314960 10.077983 3.543307 5.314961 10.236220 3.937008 5.905512 10.236220 3.543307 5.905512 10.629921 0.000000 1.968504 10.629921 3.937008 5.905512 10.629921 0.000000 5.905512 10.629921 3.937008 1.968504 10.236220 0.393701 5.905511 10.077983 0.000000 5.314960 10.236220 0.000000 5.905512 10.077983 0.393701 5.314961 9.645670 0.000000 4.882647 9.645669 0.393701 4.882647 9.055118 0.393701 4.724409 9.055119 0.000000 4.724409 9.055119 0.000000 4.724409 5.118110 0.393701 4.724409 5.118110 0.000000 4.724409 9.055118 0.393701 4.724409 5.118110 0.000000 4.724409 4.527559 0.393701 4.882647 4.527559 0.000000 4.882647 5.118110 0.393701 4.724409 4.095246 0.000000 5.314960 4.095246 0.393701 5.314961 3.937008 0.000000 5.905512 3.937008 0.393701 5.905511 20.472441 0.000000 5.905512 20.314203 0.393701 5.314961 20.314203 0.000000 5.314960 20.472441 0.393701 5.905511 19.881889 0.393701 4.882647 19.881889 0.000000 4.882647 19.291338 0.000000 4.724409 19.291338 0.393701 4.724409 15.354331 0.000000 4.724409 19.291338 0.393701 4.724409 15.354331 0.393701 4.724409 19.291338 0.000000 4.724409 14.763780 0.000000 4.882647 15.354331 0.393701 4.724409 14.763780 0.393701 4.882647 15.354331 0.000000 4.724409 14.331466 0.393701 5.314961 14.331466 0.000000 5.314960 14.173227 0.393701 5.905511 14.173228 0.000000 5.905512 19.881889 0.393701 4.882647 15.354331 0.393701 4.724409 19.291338 0.393701 4.724409 14.763780 0.393701 4.882647 20.314203 0.393701 5.314961 14.331466 0.393701 5.314961 20.472441 0.393701 5.905511 14.173227 0.393701 5.905511 14.763780 3.543307 4.882647 19.291338 3.543307 4.724410 15.354331 3.543307 4.724410 19.881889 3.543307 4.882647 14.331466 3.543307 5.314961 20.314203 3.543307 5.314961 14.173228 3.543307 5.905512 20.472441 3.543307 5.905512 4.527559 3.543307 4.882647 9.055119 3.543307 4.724410 5.118110 3.543307 4.724410 9.645670 3.543307 4.882647 4.095246 3.543307 5.314961 10.077983 3.543307 5.314961 3.937008 3.543307 5.905512 10.236220 3.543307 5.905512 9.645669 0.393701 4.882647 5.118110 0.393701 4.724409 9.055118 0.393701 4.724409 4.527559 0.393701 4.882647 10.077983 0.393701 5.314961 4.095246 0.393701 5.314961 10.236220 0.393701 5.905511 3.937008 0.393701 5.905511 "
									            />
								</IndexedFaceSet>
							</Shape>
						</Group>
					</Transform>
				</Transform>
				<Transform DEF="instance_2_TRANSFORM"
				           translation="6.822835 25.909405 10.629922"
				           scale="1.000000 1.000000 1.000000"
				           rotation="0.000000 0.000000 -1.000000 1.570796"
				           >
					<Transform DEF="instance_2_ifs_TRANSFORM"
					           translation="0.000004 0.000000 0.000001"
					           scale="1.000000 1.000000 1.000000"
					           rotation="0.000000 1.000000 0.000000 0.000000"
					           >
						<Group DEF="group_ME_ID37">
							<Shape>
								<Appearance>
								</Appearance>
								<IndexedFaceSet solid="false"
								                coordIndex="0 1 2 -1 1 0 3 -1 4 5 6 -1 5 4 7 -1 5 7 8 -1 9 10 11 -1 10 9 12 -1 13 14 15 -1 14 13 16 -1 17 3 0 -1 3 17 18 -1 19 20 21 -1 20 19 22 -1 6 23 24 -1 23 6 5 -1 23 5 8 -1 23 8 25 -1 26 15 27 -1 15 26 13 -1 28 18 17 -1 18 28 29 -1 30 22 19 -1 22 30 31 -1 24 32 33 -1 32 24 23 -1 32 23 25 -1 32 25 34 -1 35 27 36 -1 27 35 26 -1 37 38 39 -1 38 37 40 -1 38 40 41 -1 39 42 43 -1 42 39 38 -1 43 42 44 -1 45 31 30 -1 31 45 46 -1 47 48 49 -1 48 47 50 -1 50 47 51 -1 52 53 54 -1 53 52 55 -1 56 57 58 -1 57 56 59 -1 60 61 62 -1 61 60 63 -1 64 65 66 -1 65 64 67 -1 68 69 70 -1 69 68 71 -1 72 73 74 -1 73 72 75 -1 76 77 78 -1 77 76 79 -1 77 79 80 -1 78 81 82 -1 81 78 77 -1 82 81 83 -1 "
								                >
									<Coordinate DEF="coords_ME_ID37"
									            point="0.685003 4.826808 0.595353 5.511811 4.724409 0.000000 0.787402 4.724409 0.000000 5.614210 4.826808 0.595353 5.511811 0.787402 0.000000 5.614210 4.724409 0.595353 5.614210 0.685003 0.595353 5.511811 4.724409 0.000000 5.614210 4.826808 0.595353 5.511811 4.724409 0.000000 0.787402 0.787402 0.000000 0.787402 4.724409 0.000000 5.511811 0.787402 0.000000 0.685003 4.826808 0.595353 0.787402 0.787402 0.000000 0.685003 0.685003 0.595353 0.787402 4.724409 0.000000 0.414843 5.096968 1.135672 5.884369 5.096968 1.135672 5.614210 0.685003 0.595353 0.787402 0.787402 0.000000 5.511811 0.787402 0.000000 0.685003 0.685003 0.595353 5.884369 4.724409 1.135672 5.884369 0.414843 1.135672 5.884369 5.096968 1.135672 0.414843 5.096968 1.135672 0.414843 0.414843 1.135672 0.000000 5.511811 1.574803 6.299213 5.511811 1.574803 5.884369 0.414843 1.135672 0.414843 0.414843 1.135672 6.299213 4.724409 1.574803 6.299213 0.000000 1.574803 6.299213 5.511811 1.574803 0.000000 5.511811 1.574803 0.000000 0.000000 1.574803 0.000000 5.511811 1.574803 1.181102 5.511811 2.362205 6.299213 5.511811 1.574803 0.000000 5.511811 3.937008 1.181102 5.511811 3.937008 5.118110 5.511811 2.362205 6.299213 5.511811 3.937008 5.118110 5.511811 3.937008 6.299213 0.000000 1.574803 0.000000 0.000000 1.574803 6.299213 4.724409 1.574803 6.299213 0.000000 3.937008 6.299213 0.000000 1.574803 6.299213 5.511811 3.937008 6.299213 5.511811 1.574803 0.000000 5.511811 3.937008 0.000000 0.000000 1.574803 0.000000 0.000000 3.937008 0.000000 5.511811 1.574803 1.181102 0.000000 3.937008 0.000000 5.511811 3.937008 0.000000 0.000000 3.937008 1.181102 5.511811 3.937008 1.181102 5.511811 2.362205 1.181102 0.000000 3.937008 1.181102 0.000000 2.362205 1.181102 5.511811 3.937008 5.118110 0.000000 2.362205 1.181102 5.511811 2.362205 1.181102 0.000000 2.362205 5.118110 5.511811 2.362205 5.118110 5.511811 3.937008 5.118110 0.000000 2.362205 5.118110 0.000000 3.937008 5.118110 5.511811 2.362205 6.299213 0.000000 3.937008 5.118110 5.511811 3.937008 5.118110 0.000000 3.937008 6.299213 5.511811 3.937008 6.299213 0.000000 1.574803 5.118110 0.000000 2.362205 0.000000 0.000000 1.574803 6.299213 0.000000 3.937008 5.118110 0.000000 3.937008 1.181102 0.000000 2.362205 0.000000 0.000000 3.937008 1.181102 0.000000 3.937008 "
									            />
								</IndexedFaceSet>
							</Shape>
						</Group>
					</Transform>
				</Transform>
				<Transform DEF="instance_3_TRANSFORM"
				           translation="16.665354 19.610188 10.629922"
				           scale="1.000000 1.000000 1.000000"
				           rotation="0.000000 0.000000 -0.000000 0.000000"
				           >
					<Transform DEF="instance_3_ifs_TRANSFORM"
					           translation="0.000002 -0.000007 0.000001"
					           scale="1.000000 1.000000 1.000000"
					           rotation="0.000000 0.000000 -0.000000 0.000000"
					           >
						<Group DEF="group_ME_ID45">
							<Shape>
								<Appearance>
								</Appearance>
								<IndexedFaceSet solid="false"
								                coordIndex="0 1 2 -1 1 0 3 -1 4 5 6 -1 7 8 9 -1 8 7 10 -1 8 10 11 -1 11 10 5 -1 11 5 4 -1 12 13 14 -1 13 12 15 -1 16 17 18 -1 17 16 19 -1 19 16 20 -1 20 16 21 -1 18 22 23 -1 22 18 17 -1 24 25 26 -1 25 27 28 -1 27 25 24 -1 29 30 31 -1 30 29 32 -1 33 34 35 -1 34 33 36 -1 37 38 39 -1 38 37 40 -1 41 42 43 -1 42 41 44 -1 45 46 47 -1 46 45 48 -1 49 50 51 -1 50 49 52 -1 53 54 55 -1 54 56 57 -1 56 54 53 -1 56 53 58 -1 59 60 61 -1 60 59 62 -1 48 63 46 -1 63 48 64 -1 65 52 49 -1 52 65 66 -1 55 67 68 -1 67 57 69 -1 57 67 55 -1 57 55 54 -1 61 70 71 -1 70 61 60 -1 64 72 63 -1 72 64 73 -1 74 66 65 -1 66 74 75 -1 68 76 77 -1 76 68 69 -1 69 68 67 -1 71 78 79 -1 78 71 70 -1 80 81 82 -1 81 80 83 -1 "
								                >
									<Coordinate DEF="coords_ME_ID45"
									            point="6.299213 5.118110 3.937008 0.000000 6.299213 3.937008 0.000000 5.118110 3.937008 6.299213 6.299213 3.937008 0.000000 6.299213 3.937008 0.000000 5.118110 2.362205 0.000000 5.118110 3.937008 0.000000 1.181102 3.937008 0.000000 0.000000 1.574803 0.000000 0.000000 3.937008 0.000000 1.181102 2.362205 0.000000 6.299213 1.574803 6.299213 5.118110 3.937008 0.000000 5.118110 2.362205 6.299213 5.118110 2.362205 0.000000 5.118110 3.937008 6.299213 6.299213 1.574803 6.299213 1.181102 2.362205 6.299213 0.000000 1.574803 6.299213 5.118110 2.362205 6.299213 5.118110 3.937008 6.299213 6.299213 3.937008 6.299213 1.181102 3.937008 6.299213 0.000000 3.937008 0.000000 6.299213 3.937008 0.787402 6.299213 1.574803 0.000000 6.299213 1.574803 6.299213 6.299213 3.937008 6.299213 6.299213 1.574803 6.299213 0.000000 3.937008 0.000000 0.000000 1.574803 6.299213 0.000000 1.574803 0.000000 0.000000 3.937008 6.299213 0.000000 3.937008 0.000000 1.181102 3.937008 0.000000 0.000000 3.937008 6.299213 1.181102 3.937008 0.000000 1.181102 3.937008 6.299213 1.181102 2.362205 0.000000 1.181102 2.362205 6.299213 1.181102 3.937008 6.299213 1.181102 2.362205 0.000000 5.118110 2.362205 0.000000 1.181102 2.362205 6.299213 5.118110 2.362205 0.000000 6.299213 1.574803 0.414843 0.414843 1.135672 0.000000 0.000000 1.574803 0.414843 5.884369 1.135672 5.884369 0.414843 1.135672 6.299213 6.299213 1.574803 6.299213 0.000000 1.574803 5.884369 5.884369 1.135672 0.000000 6.299213 1.574803 0.787402 5.884369 1.135672 0.414843 5.884369 1.135672 6.299213 6.299213 1.574803 5.884369 5.884369 1.135672 0.787402 6.299213 1.574803 6.299213 0.000000 1.574803 0.414843 0.414843 1.135672 5.884369 0.414843 1.135672 0.000000 0.000000 1.574803 0.685003 0.685003 0.595353 0.685003 5.614210 0.595353 5.614210 0.685003 0.595353 5.614210 5.614210 0.595353 0.787402 5.614210 0.595353 0.685003 5.614210 0.595353 5.614210 5.614210 0.595353 0.685003 0.685003 0.595353 5.614210 0.685003 0.595353 0.787402 0.787402 0.000000 0.787402 5.511811 0.000000 5.511811 0.787402 0.000000 5.511811 5.511811 0.000000 5.511811 5.511811 0.000000 0.787402 5.511811 0.000000 0.787402 0.787402 0.000000 5.511811 0.787402 0.000000 5.511811 5.511811 0.000000 0.787402 0.787402 0.000000 0.787402 5.511811 0.000000 5.511811 0.787402 0.000000 "
									            />
								</IndexedFaceSet>
							</Shape>
						</Group>
					</Transform>
				</Transform>
				<Transform DEF="instance_4_TRANSFORM"
				           translation="27.295279 25.909399 10.629922"
				           scale="1.000000 1.000000 1.000000"
				           rotation="0.000000 0.000000 -1.000000 1.570796"
				           >
					<Transform DEF="instance_4_ifs_TRANSFORM"
					           translation="0.000008 0.000002 0.000001"
					           scale="1.000000 1.000000 1.000000"
					           rotation="0.000000 1.000000 0.000000 0.000000"
					           >
						<Group USE="group_ME_ID37" />
					</Transform>
				</Transform>
			</Transform>
			<Transform DEF="group_3_TRANSFORM"
			           translation="-1.971592 -3.672809 0.000000"
			           scale="1.000000 1.000000 1.000000"
			           rotation="0.000000 1.000000 0.000000 0.000000"
			           >
				<Transform DEF="group_1_001_TRANSFORM"
				           translation="-0.000000 19.633810 12.992126"
				           scale="1.000000 1.000000 1.000000"
				           rotation="0.000000 1.000000 0.000000 0.000000"
				           >
					<Transform DEF="group_1_001_ifs_TRANSFORM"
					           translation="-0.000000 0.000001 0.000001"
					           scale="1.000000 1.000000 1.000000"
					           rotation="0.000000 1.000000 0.000000 0.000000"
					           >
						<Group DEF="group_ME_ID54">
							<Shape>
								<Appearance>
									<Material USE="MA_material_003" />
								</Appearance>
								<IndexedFaceSet solid="false"
								                coordIndex="0 1 2 -1 1 0 3 -1 4 5 6 -1 5 4 7 -1 8 9 10 -1 9 8 11 -1 12 13 14 -1 13 12 15 -1 16 17 18 -1 17 16 19 -1 20 21 22 -1 21 20 23 -1 "
								                >
									<Coordinate DEF="coords_ME_ID54"
									            point="0.000000 5.094488 5.905512 0.000000 1.157480 0.000000 0.000000 1.157480 5.905512 0.000000 5.094488 0.000000 42.480316 5.094488 0.000000 0.000000 1.157480 0.000000 0.000000 5.094488 0.000000 42.480316 1.157480 0.000000 42.480316 1.157480 5.905512 0.000000 1.157480 0.000000 42.480316 1.157480 0.000000 0.000000 1.157480 5.905512 0.000000 1.157480 5.905512 42.480316 5.094488 5.905512 0.000000 5.094488 5.905512 42.480316 1.157480 5.905512 0.000000 5.094488 5.905512 42.480316 5.094488 0.000000 0.000000 5.094488 0.000000 42.480316 5.094488 5.905512 42.480316 5.094488 0.000000 42.480316 1.157480 5.905512 42.480316 1.157480 0.000000 42.480316 5.094488 5.905512 "
									            />
								</IndexedFaceSet>
							</Shape>
						</Group>
					</Transform>
				</Transform>
				<Transform DEF="group_2_001_TRANSFORM"
				           translation="22.767717 -0.000000 4.724409"
				           scale="1.000000 1.000000 1.000000"
				           rotation="0.000000 0.000000 1.000000 1.570796"
				           >
					<Transform DEF="group_2_001_ifs_TRANSFORM"
					           translation="-0.000000 -0.000002 0.000000"
					           scale="1.000000 1.000000 1.000000"
					           rotation="0.000000 0.000000 -0.000000 0.000000"
					           >
						<Group DEF="group_ME_ID61_001">
							<Shape>
								<Appearance>
									<Material USE="MA_material_003" />
								</Appearance>
								<IndexedFaceSet solid="false"
								                coordIndex="0 1 2 -1 1 0 3 -1 4 5 6 -1 5 4 7 -1 8 9 10 -1 9 8 11 -1 9 11 12 -1 12 11 13 -1 13 11 14 -1 14 11 15 -1 15 11 16 -1 9 17 18 -1 17 9 12 -1 19 20 21 -1 20 19 22 -1 23 24 25 -1 24 26 27 -1 26 24 28 -1 28 24 23 -1 28 23 29 -1 29 23 30 -1 28 29 31 -1 28 31 32 -1 28 32 33 -1 28 33 34 -1 35 36 37 -1 36 35 38 -1 39 40 41 -1 40 39 42 -1 43 41 44 -1 41 43 39 -1 45 44 46 -1 44 45 43 -1 47 48 49 -1 48 47 50 -1 50 47 51 -1 51 47 52 -1 48 53 54 -1 53 48 50 -1 55 56 57 -1 56 55 58 -1 58 55 54 -1 58 54 53 -1 59 60 61 -1 60 59 62 -1 62 59 63 -1 63 59 64 -1 64 59 65 -1 66 67 68 -1 67 66 69 -1 70 71 72 -1 71 70 73 -1 62 74 60 -1 74 62 75 -1 76 77 78 -1 77 76 79 -1 80 81 82 -1 81 80 83 -1 84 85 86 -1 85 84 87 -1 88 89 90 -1 89 88 91 -1 91 88 92 -1 91 92 93 -1 93 92 94 -1 94 92 95 -1 96 97 98 -1 99 100 101 -1 102 103 104 -1 103 102 100 -1 103 100 105 -1 105 100 99 -1 105 99 106 -1 107 108 109 -1 108 107 110 -1 111 112 113 -1 112 111 114 -1 115 116 117 -1 116 115 118 -1 118 115 119 -1 118 119 120 -1 121 122 123 -1 122 121 124 -1 125 126 127 -1 126 125 128 -1 129 130 131 -1 130 129 132 -1 132 129 133 -1 134 135 136 -1 135 134 137 -1 138 139 140 -1 139 138 141 -1 142 143 144 -1 143 142 145 -1 146 147 148 -1 147 146 149 -1 "
								                >
									<Coordinate DEF="coords_ME_ID61_001"
									            point="0.000000 5.905512 8.267716 0.000000 0.000000 0.000000 0.000000 0.000000 8.267716 0.000000 5.905512 0.000000 19.610188 0.000000 8.267716 0.000000 5.905512 8.267716 0.000000 0.000000 8.267716 19.610188 5.905512 8.267716 0.000000 5.905512 0.000000 19.610188 5.905512 1.181102 19.610188 5.905512 0.000000 0.000000 5.905512 8.267716 20.397591 5.905512 5.905512 20.295191 5.905512 6.500865 20.025032 5.905512 7.041184 19.610188 5.905512 7.480315 19.610188 5.905512 8.267716 20.791290 5.905512 5.905512 20.791290 5.905512 1.181102 0.000000 5.905512 0.000000 19.610188 0.000000 0.000000 0.000000 0.000000 0.000000 19.610188 5.905512 0.000000 20.791290 0.000000 1.968504 19.610188 0.000000 1.181102 20.791290 0.000000 1.181102 0.000000 0.000000 0.000000 19.610188 0.000000 0.000000 0.000000 0.000000 8.267716 20.397591 0.000000 5.905512 20.791290 0.000000 5.905512 20.295191 0.000000 6.500865 20.025032 0.000000 7.041184 19.610188 0.000000 7.480315 19.610188 0.000000 8.267716 19.610188 0.000000 7.480315 19.610188 5.905512 8.267716 19.610188 0.000000 8.267716 19.610188 5.905512 7.480315 20.025032 5.905512 7.041184 19.610188 0.000000 7.480315 20.025032 0.000000 7.041184 19.610188 5.905512 7.480315 20.295191 5.905512 6.500865 20.295191 0.000000 6.500865 20.397591 5.905512 5.905512 20.397591 0.000000 5.905512 34.075851 0.984252 5.905512 24.728298 1.377953 5.905512 24.728298 0.984252 5.905512 24.728298 4.527559 5.905512 24.728298 4.921260 5.905512 34.075851 4.921260 5.905512 20.791290 4.527559 5.905512 20.791290 1.377953 5.905512 20.791290 0.000000 5.905512 20.397591 5.905512 5.905512 20.397591 0.000000 5.905512 20.791290 5.905512 5.905512 20.791290 5.905512 1.181102 20.791290 0.000000 1.968504 20.791290 0.000000 1.181102 20.791290 1.377953 1.968504 20.791290 4.527559 1.968504 20.791290 4.527559 5.905512 20.791290 5.905512 5.905512 20.791290 5.905512 1.181102 19.610188 0.000000 1.181102 19.610188 5.905512 1.181102 20.791290 0.000000 1.181102 19.610188 5.905512 0.000000 19.610188 0.000000 1.181102 19.610188 0.000000 0.000000 19.610188 5.905512 1.181102 20.791290 0.000000 5.905512 20.791290 1.377953 5.905512 20.791290 4.527559 1.968504 24.728298 4.527559 5.905512 24.728298 4.527559 1.968504 20.791290 4.527559 5.905512 24.728298 1.377953 5.905512 20.791290 1.377953 1.968504 24.728298 1.377953 1.968504 20.791290 1.377953 5.905512 24.728298 1.377953 5.905512 24.728298 0.984252 1.968504 24.728298 0.984252 5.905512 24.728298 1.377953 1.968504 32.028606 0.984252 0.787402 25.909401 0.984252 0.000000 29.745142 0.984252 0.000000 25.909401 0.984252 1.181102 34.075851 0.984252 5.905512 24.728298 0.984252 1.181102 24.728298 0.984252 1.968504 24.728298 0.984252 5.905512 35.751923 2.952756 5.174428 34.075851 4.921260 5.905512 34.075851 0.984252 5.905512 24.728298 4.921260 1.968504 25.909401 4.921260 1.181102 24.728298 4.921260 1.181102 25.909401 4.921260 0.000000 32.028606 4.921260 0.787402 29.745142 4.921260 0.000000 34.075851 4.921260 5.905512 24.728298 4.921260 5.905512 24.728298 4.921260 5.905512 24.728298 4.527559 1.968504 24.728298 4.527559 5.905512 24.728298 4.921260 1.968504 24.728298 4.527559 1.968504 20.791290 1.377953 1.968504 20.791290 4.527559 1.968504 24.728298 1.377953 1.968504 24.728298 1.377953 1.968504 24.728298 0.984252 1.181102 24.728298 0.984252 1.968504 24.728298 4.921260 1.181102 24.728298 4.527559 1.968504 24.728298 4.921260 1.968504 25.909401 4.921260 1.181102 24.728298 0.984252 1.181102 24.728298 4.921260 1.181102 25.909401 0.984252 1.181102 25.909401 4.921260 1.181102 25.909401 0.984252 0.000000 25.909401 0.984252 1.181102 25.909401 4.921260 0.000000 29.745142 4.921260 0.000000 25.909401 0.984252 0.000000 25.909401 4.921260 0.000000 29.745142 0.984252 0.000000 31.713646 2.952756 0.000000 31.713646 2.952756 0.000000 32.028606 0.984252 0.787402 29.745142 0.984252 0.000000 33.997112 2.952756 0.787402 32.028606 0.984252 0.787402 35.751923 2.952756 5.174428 34.075851 0.984252 5.905512 33.997112 2.952756 0.787402 34.075851 4.921260 5.905512 33.997112 2.952756 0.787402 32.028606 4.921260 0.787402 35.751923 2.952756 5.174428 32.028606 4.921260 0.787402 31.713646 2.952756 0.000000 29.745142 4.921260 0.000000 33.997112 2.952756 0.787402 "
									            />
								</IndexedFaceSet>
							</Shape>
						</Group>
					</Transform>
				</Transform>
				<Transform DEF="instance_0_001_TRANSFORM"
				           translation="13.515748 29.059008 0.000000"
				           scale="1.000000 1.000000 1.000000"
				           rotation="0.000000 0.000000 -1.000000 1.570796"
				           >
					<Transform DEF="instance_0_001_ifs_TRANSFORM"
					           translation="0.000001 0.000002 0.000000"
					           scale="1.000000 1.000000 1.000000"
					           rotation="0.000000 0.000000 0.000000 0.000000"
					           >
						<Group USE="group_ME_ID21_001" />
					</Transform>
				</Transform>
				<Transform DEF="instance_1_001_TRANSFORM"
				           translation="7.610237 20.791288 4.724409"
				           scale="1.000000 1.000000 1.000000"
				           rotation="0.000000 1.000000 0.000000 0.000000"
				           >
					<Transform DEF="instance_1_001_ifs_TRANSFORM"
					           translation="0.000000 0.000000 0.000000"
					           scale="1.000000 1.000000 1.000000"
					           rotation="0.000000 1.000000 0.000000 0.000000"
					           >
						<Group USE="group_ME_ID29_001" />
					</Transform>
				</Transform>
				<Transform DEF="instance_2_001_TRANSFORM"
				           translation="6.822835 25.909403 10.629922"
				           scale="1.000000 1.000000 1.000000"
				           rotation="0.000000 0.000000 -1.000000 1.570796"
				           >
					<Transform DEF="instance_2_001_ifs_TRANSFORM"
					           translation="-0.000003 0.000000 0.000001"
					           scale="1.000000 1.000000 1.000000"
					           rotation="0.000000 0.000000 0.000000 0.000000"
					           >
						<Group USE="group_ME_ID37" />
					</Transform>
				</Transform>
				<Transform DEF="instance_3_001_TRANSFORM"
				           translation="16.665354 19.610188 10.629922"
				           scale="1.000000 1.000000 1.000000"
				           rotation="0.000000 1.000000 0.000000 0.000000"
				           >
					<Transform DEF="instance_3_001_ifs_TRANSFORM"
					           translation="0.000001 0.000001 0.000001"
					           scale="1.000000 1.000000 1.000000"
					           rotation="0.000000 1.000000 0.000000 0.000000"
					           >
						<Group USE="group_ME_ID45" />
					</Transform>
				</Transform>
				<Transform DEF="instance_4_001_TRANSFORM"
				           translation="27.295275 25.909403 10.629922"
				           scale="1.000000 1.000000 1.000000"
				           rotation="0.000000 0.000000 -1.000000 1.570796"
				           >
					<Transform DEF="instance_4_001_ifs_TRANSFORM"
					           translation="-0.000004 -0.000000 0.000001"
					           scale="1.000000 1.000000 1.000000"
					           rotation="0.000000 0.000000 0.000000 0.000000"
					           >
						<Group USE="group_ME_ID37" />
					</Transform>
				</Transform>
			</Transform>
		</Transform>
	</Scene>
</X3D>