<?xml version="1.0" encoding="UTF-8"?>
<!DOCTYPE X3D PUBLIC "ISO//Web3D//DTD X3D 3.0//EN" "http://www.web3d.org/specifications/x3d-3.0.dtd">
<X3D version="3.0" profile="Immersive" xmlns:xsd="http://www.w3.org/2001/XMLSchema-instance" xsd:noNamespaceSchemaLocation="http://www.web3d.org/specifications/x3d-3.0.xsd">
	<head>
		<meta name="filename" content="06-2-A 六鋪作重栱出單杪雙下昂 裡轉五鋪作出兩杪 並計心A.x3d" />
		<meta name="created" content="2025-12-28 14:00:22" />
		<meta name="generator" content="Blender 4.2.2 LTS" />
		<meta name="translator" content="Web3D X3D/VRML2 format v2.5.1" />
	</head>
	<Scene>
		<NavigationInfo headlight="true"
		                visibilityLimit="0.0"
		                type='"EXAMINE", "ANY"'
		                avatarSize="0.25, 1.75, 0.75"
		                />
		<Background DEF="WO_World"
		            groundColor="0.051 0.051 0.051"
		            skyColor="0.051 0.051 0.051"
		            />
		<Transform DEF="SketchUp_TRANSFORM"
		           translation="0.000000 0.000000 0.000000"
		           scale="1.000000 1.000000 1.000000"
		           rotation="-1.000000 0.000000 0.000000 1.570796"
		           >
			<Transform DEF="instance_0_TRANSFORM"
			           translation="-12.314460 667.716553 3.149606"
			           scale="1.000000 1.000000 1.000000"
			           rotation="0.000000 1.000000 0.000000 0.000000"
			           >
				<Transform DEF="group_0_001_TRANSFORM"
				           translation="59.274590 -666.141724 24.006845"
				           scale="1.000000 1.000000 1.000000"
				           rotation="0.000000 1.000000 0.000000 0.000000"
				           >
					<Transform DEF="group_0_001_ifs_TRANSFORM"
					           translation="0.000000 0.000000 0.000000"
					           scale="1.000000 1.000000 1.000000"
					           rotation="0.000000 1.000000 0.000000 0.000000"
					           >
						<Group DEF="group_ME_ID5_002">
							<Shape>
								<Appearance>
								</Appearance>
								<IndexedFaceSet solid="false"
								                coordIndex="0 1 2 -1 1 0 3 -1 4 5 6 -1 5 4 7 -1 8 9 10 -1 9 8 11 -1 12 13 14 -1 13 12 15 -1 16 17 18 -1 17 16 19 -1 20 21 22 -1 21 20 23 -1 "
								                >
									<Coordinate DEF="coords_ME_ID5_002"
									            point="8.661417 37.795273 8.267716 0.787402 37.795277 0.000000 0.000000 37.795277 0.000000 8.661417 37.795273 7.480315 0.787402 37.795277 0.000000 8.661417 0.000000 7.480315 0.787402 0.000000 0.000000 8.661417 37.795273 7.480315 0.000000 37.795277 0.000000 0.787402 0.000000 0.000000 0.000000 0.000000 0.000000 0.787402 37.795277 0.000000 8.661417 0.000000 8.267716 0.000000 37.795277 0.000000 0.000000 0.000000 0.000000 8.661417 37.795273 8.267716 8.661417 37.795273 7.480315 8.661417 0.000000 8.267716 8.661417 0.000000 7.480315 8.661417 37.795273 8.267716 8.661417 0.000000 7.480315 0.000000 0.000000 0.000000 0.787402 0.000000 0.000000 8.661417 0.000000 8.267716 "
									            />
								</IndexedFaceSet>
							</Shape>
						</Group>
					</Transform>
				</Transform>
				<Transform DEF="group_1_001_TRANSFORM"
				           translation="13.010996 -667.716553 63.182320"
				           scale="1.000000 1.000000 1.000000"
				           rotation="0.000000 1.000000 0.000000 0.000000"
				           >
					<Transform DEF="group_1_001_ifs_TRANSFORM"
					           translation="0.000000 0.000000 0.000000"
					           scale="1.000000 1.000000 1.000000"
					           rotation="0.000000 1.000000 0.000000 0.000000"
					           >
						<Group DEF="group_ME_ID14">
							<Shape>
								<Appearance>
								</Appearance>
								<IndexedFaceSet solid="false"
								                coordIndex="0 1 2 -1 1 0 3 -1 1 3 4 -1 4 3 5 -1 4 5 6 -1 6 5 7 -1 6 7 8 -1 8 7 9 -1 8 9 10 -1 10 9 11 -1 10 11 12 -1 12 11 13 -1 12 13 14 -1 14 13 15 -1 14 15 16 -1 16 15 17 -1 16 17 18 -1 18 17 19 -1 18 19 20 -1 20 19 21 -1 20 21 22 -1 22 21 23 -1 24 25 26 -1 25 24 27 -1 25 28 26 -1 28 25 29 -1 29 30 28 -1 30 29 31 -1 31 32 30 -1 32 31 33 -1 33 34 32 -1 34 33 35 -1 35 36 34 -1 36 35 37 -1 37 38 36 -1 38 37 39 -1 40 38 39 -1 38 40 41 -1 42 41 40 -1 41 42 43 -1 44 43 42 -1 43 44 45 -1 46 45 44 -1 45 46 47 -1 48 47 46 -1 47 48 49 -1 50 49 48 -1 49 50 51 -1 50 52 51 -1 52 50 53 -1 53 54 52 -1 54 53 55 -1 55 56 54 -1 56 55 57 -1 57 58 56 -1 58 57 59 -1 59 60 58 -1 60 59 61 -1 61 62 60 -1 62 61 63 -1 62 64 65 -1 64 62 63 -1 65 66 67 -1 66 65 64 -1 67 68 69 -1 68 67 66 -1 69 70 71 -1 70 69 68 -1 71 27 24 -1 27 71 70 -1 72 73 74 -1 73 72 75 -1 73 75 76 -1 76 75 77 -1 76 77 78 -1 78 77 79 -1 78 79 80 -1 80 79 81 -1 80 81 82 -1 82 81 83 -1 82 83 84 -1 84 83 85 -1 84 85 86 -1 86 85 87 -1 86 87 88 -1 88 87 89 -1 88 89 90 -1 90 89 91 -1 90 91 92 -1 92 91 93 -1 92 93 94 -1 94 93 95 -1 "
								                >
									<Coordinate DEF="coords_ME_ID14"
									            point="3.964784 0.000000 0.107320 2.334428 0.000000 0.107320 3.149606 0.000000 0.000000 4.724409 0.000000 0.421967 1.574803 0.000000 0.421967 5.376714 0.000000 0.922498 0.922498 0.000000 0.922498 5.877245 0.000000 1.574803 0.421967 0.000000 1.574803 6.191892 0.000000 2.334428 0.107320 0.000000 2.334428 6.299213 0.000000 3.149606 0.000000 0.000000 3.149606 6.191892 0.000000 3.964784 0.107320 0.000000 3.964784 5.877245 0.000000 4.724409 0.421967 0.000000 4.724409 5.376714 0.000000 5.376714 0.922498 0.000000 5.376714 4.724409 0.000000 5.877245 1.574803 0.000000 5.877245 3.964784 0.000000 6.191892 2.334428 0.000000 6.191892 3.149606 0.000000 6.299213 1.574803 0.000000 5.877245 0.922498 40.944881 5.376714 0.922498 0.000000 5.376714 1.574803 40.944881 5.877245 0.421967 0.000000 4.724409 0.421967 40.944881 4.724409 0.107320 0.000000 3.964784 0.107320 40.944881 3.964784 0.000000 0.000000 3.149606 0.000000 40.944881 3.149606 0.107320 0.000000 2.334428 0.107320 40.944881 2.334428 0.421967 0.000000 1.574803 0.421967 40.944881 1.574803 0.922498 0.000000 0.922498 0.922498 40.944881 0.922498 1.574803 40.944881 0.421967 1.574803 0.000000 0.421967 2.334428 40.944881 0.107320 2.334428 0.000000 0.107320 3.149606 40.944881 0.000000 3.149606 0.000000 0.000000 3.964784 40.944881 0.107320 3.964784 0.000000 0.107320 4.724409 40.944881 0.421967 4.724409 0.000000 0.421967 5.376714 40.944881 0.922498 5.376714 0.000000 0.922498 5.877245 0.000000 1.574803 5.877245 40.944881 1.574803 6.191892 0.000000 2.334428 6.191892 40.944881 2.334428 6.299213 0.000000 3.149606 6.299213 40.944881 3.149606 6.191892 0.000000 3.964784 6.191892 40.944881 3.964784 5.877245 0.000000 4.724409 5.877245 40.944881 4.724409 5.376714 0.000000 5.376714 5.376714 40.944881 5.376714 4.724409 40.944881 5.877245 4.724409 0.000000 5.877245 3.964784 40.944881 6.191892 3.964784 0.000000 6.191892 3.149606 40.944881 6.299213 3.149606 0.000000 6.299213 2.334428 40.944881 6.191892 2.334428 0.000000 6.191892 2.334428 40.944881 0.107320 3.964784 40.944881 0.107320 3.149606 40.944881 0.000000 1.574803 40.944881 0.421967 4.724409 40.944881 0.421967 0.922498 40.944881 0.922498 5.376714 40.944881 0.922498 0.421967 40.944881 1.574803 5.877245 40.944881 1.574803 0.107320 40.944881 2.334428 6.191892 40.944881 2.334428 0.000000 40.944881 3.149606 6.299213 40.944881 3.149606 0.107320 40.944881 3.964784 6.191892 40.944881 3.964784 0.421967 40.944881 4.724409 5.877245 40.944881 4.724409 0.922498 40.944881 5.376714 5.376714 40.944881 5.376714 1.574803 40.944881 5.877245 4.724409 40.944881 5.877245 2.334428 40.944881 6.191892 3.964784 40.944881 6.191892 3.149606 40.944881 6.299213 "
									            />
								</IndexedFaceSet>
							</Shape>
						</Group>
					</Transform>
				</Transform>
				<Transform DEF="group_2_001_TRANSFORM"
				           translation="48.250965 -666.141724 24.006845"
				           scale="1.000000 1.000000 1.000000"
				           rotation="0.000000 1.000000 0.000000 0.000000"
				           >
					<Transform DEF="group_2_001_ifs_TRANSFORM"
					           translation="0.000000 0.000000 0.000000"
					           scale="1.000000 1.000000 1.000000"
					           rotation="0.000000 1.000000 0.000000 0.000000"
					           >
						<Group DEF="group_ME_ID21">
							<Shape>
								<Appearance>
								</Appearance>
								<IndexedFaceSet solid="false"
								                coordIndex="0 1 2 -1 1 0 3 -1 4 5 6 -1 5 4 7 -1 8 9 10 -1 9 8 11 -1 12 13 14 -1 13 12 15 -1 16 17 18 -1 17 16 19 -1 20 21 22 -1 21 20 23 -1 "
								                >
									<Coordinate DEF="coords_ME_ID21"
									            point="0.000001 0.000000 9.064020 7.874016 0.000000 0.000000 8.661418 0.000000 0.000000 0.000001 0.000000 8.267716 0.000000 37.795273 8.267717 7.874016 0.000000 0.000000 0.000001 0.000000 8.267716 7.874016 37.795273 0.000001 8.661417 37.795273 0.000001 7.874016 0.000000 0.000000 7.874016 37.795273 0.000001 8.661418 0.000000 0.000000 8.661418 0.000000 0.000000 0.000000 37.795273 9.064020 0.000001 0.000000 9.064020 8.661417 37.795273 0.000001 0.000001 0.000000 9.064020 0.000000 37.795273 8.267717 0.000001 0.000000 8.267716 0.000000 37.795273 9.064020 0.000000 37.795273 8.267717 8.661417 37.795273 0.000001 7.874016 37.795273 0.000001 0.000000 37.795273 9.064020 "
									            />
								</IndexedFaceSet>
							</Shape>
						</Group>
					</Transform>
				</Transform>
				<Transform DEF="group_3_001_TRANSFORM"
				           translation="32.502937 -662.204712 26.377953"
				           scale="1.000000 1.000000 1.000000"
				           rotation="0.000000 1.000000 0.000000 0.000000"
				           >
					<Transform DEF="group_3_001_ifs_TRANSFORM"
					           translation="0.000000 0.000000 0.000000"
					           scale="1.000000 1.000000 1.000000"
					           rotation="0.000000 1.000000 0.000000 0.000000"
					           >
						<Group DEF="group_ME_ID28_002">
							<Shape>
								<Appearance>
								</Appearance>
								<IndexedFaceSet solid="false"
								                coordIndex="0 1 2 -1 1 0 3 -1 4 5 6 -1 5 4 7 -1 8 9 10 -1 9 8 11 -1 9 11 12 -1 10 9 13 -1 13 9 14 -1 10 13 15 -1 16 12 11 -1 12 16 17 -1 17 16 18 -1 19 12 17 -1 20 21 22 -1 21 20 23 -1 24 25 26 -1 25 24 27 -1 25 27 28 -1 26 29 30 -1 29 26 25 -1 30 29 31 -1 32 33 34 -1 33 32 35 -1 33 35 36 -1 37 34 33 -1 38 39 40 -1 39 38 41 -1 42 43 44 -1 43 42 45 -1 46 47 48 -1 47 46 49 -1 50 51 52 -1 51 50 53 -1 53 54 55 -1 54 53 50 -1 56 57 58 -1 57 56 59 -1 60 61 62 -1 61 60 63 -1 64 65 66 -1 65 64 67 -1 68 69 70 -1 69 68 71 -1 72 73 74 -1 75 76 77 -1 78 79 80 -1 79 78 81 -1 79 81 82 -1 79 82 83 -1 82 81 84 -1 85 86 87 -1 80 87 88 -1 87 80 79 -1 88 87 86 -1 88 86 89 -1 "
								                >
									<Coordinate DEF="coords_ME_ID28_002"
									            point="1.968504 15.748032 0.000000 1.968504 14.173228 4.571923 1.968504 14.173228 0.000000 1.968504 15.748032 4.571923 1.968504 14.173228 4.571923 3.543307 14.370078 0.000000 1.968504 14.173228 0.000000 3.543307 14.370078 3.461212 0.000000 0.000000 0.000000 1.968504 14.173228 0.000000 3.937008 0.000000 0.000000 0.000000 29.921259 0.000000 1.968504 15.748032 0.000000 3.543307 12.992126 0.000000 3.543307 14.370078 0.000000 3.937008 12.992126 0.000000 3.937008 29.921259 0.000000 3.543307 16.929132 0.000000 3.937008 16.929132 0.000000 3.543307 15.551181 0.000000 3.543307 15.551181 3.461212 1.968504 15.748032 0.000000 3.543307 15.551181 0.000000 1.968504 15.748032 4.571923 0.077696 13.385826 5.905512 1.968504 14.173228 4.571923 0.077696 16.535433 5.905512 3.543307 13.385826 3.461212 3.543307 14.370078 3.461212 1.968504 15.748032 4.571923 3.543307 16.535433 3.461212 3.543307 15.551181 3.461212 3.543307 12.992126 0.000000 3.543307 13.385826 3.461212 3.543307 12.992126 5.905512 3.543307 14.370078 0.000000 3.543307 14.370078 3.461212 3.543307 13.385826 5.905512 0.000000 29.921259 5.905511 3.937008 29.921259 0.000000 0.000000 29.921259 0.000000 3.937008 29.921259 5.905512 3.937008 29.921259 0.000000 3.937008 16.929132 5.905512 3.937008 16.929132 0.000000 3.937008 29.921259 5.905512 3.937008 16.929132 5.905512 3.543307 16.929132 0.000000 3.937008 16.929132 0.000000 3.543307 16.929132 5.905512 3.543307 16.929132 0.000000 3.543307 15.551181 3.461212 3.543307 15.551181 0.000000 3.543307 16.535433 3.461212 3.543307 16.929132 5.905512 3.543307 16.535433 5.905512 3.543307 12.992126 5.905512 3.937008 12.992126 0.000000 3.543307 12.992126 0.000000 3.937008 12.992126 5.905512 3.937008 12.992126 0.000000 3.937008 0.000000 5.905512 3.937008 0.000000 0.000000 3.937008 12.992126 5.905512 3.937008 0.000000 5.905512 0.000000 0.000000 0.000000 3.937008 0.000000 0.000000 0.000000 0.000000 5.905512 0.000000 29.921259 5.905511 0.000000 0.000000 0.000000 0.000000 0.000000 5.905512 0.000000 29.921259 0.000000 3.543307 13.385826 5.905512 3.543307 13.385826 3.461212 0.077696 13.385826 5.905512 3.543307 16.535433 5.905512 0.077696 16.535433 5.905512 3.543307 16.535433 3.461212 0.000000 0.000000 5.905512 0.077696 13.385826 5.905512 0.000000 29.921259 5.905511 3.937008 0.000000 5.905512 3.543307 12.992126 5.905512 3.543307 13.385826 5.905512 3.937008 12.992126 5.905512 3.543307 16.535433 5.905512 3.543307 16.929132 5.905512 0.077696 16.535433 5.905512 3.937008 29.921259 5.905512 3.937008 16.929132 5.905512 "
									            />
								</IndexedFaceSet>
							</Shape>
						</Group>
					</Transform>
				</Transform>
				<Transform DEF="group_4_001_TRANSFORM"
				           translation="54.077740 -666.141724 38.563225"
				           scale="1.000000 1.000000 1.000000"
				           rotation="0.000000 1.000000 0.000000 0.000000"
				           >
					<Transform DEF="group_4_001_ifs_TRANSFORM"
					           translation="0.000000 0.000000 0.000000"
					           scale="1.000000 1.000000 1.000000"
					           rotation="0.000000 1.000000 0.000000 0.000000"
					           >
						<Group DEF="group_ME_ID35_002">
							<Shape>
								<Appearance>
								</Appearance>
								<IndexedFaceSet solid="false"
								                coordIndex="0 1 2 -1 1 0 3 -1 4 5 6 -1 5 4 7 -1 8 9 10 -1 9 8 11 -1 9 11 12 -1 12 11 13 -1 13 11 14 -1 15 10 9 -1 16 17 18 -1 17 16 19 -1 20 21 22 -1 21 20 23 -1 21 23 24 -1 21 24 25 -1 26 22 27 -1 22 26 20 -1 28 29 30 -1 29 28 31 -1 32 33 34 -1 33 32 35 -1 36 37 38 -1 37 36 39 -1 40 41 42 -1 41 40 43 -1 44 45 46 -1 45 44 47 -1 "
								                >
									<Coordinate DEF="coords_ME_ID35_002"
									            point="7.874016 20.472441 0.311876 0.000000 20.472441 -3.625131 7.874016 20.472441 -3.625131 0.000000 20.472441 0.311876 0.000000 20.472441 0.311876 7.874016 17.322834 0.311876 0.000000 17.322834 0.311876 7.874016 20.472441 0.311876 0.000000 0.000000 4.248884 0.000000 17.322834 0.311876 0.000000 0.000000 -3.625131 0.000000 37.795273 4.248885 0.000000 20.472441 0.311876 0.000000 20.472441 -3.625131 0.000000 37.795273 -3.625131 0.000000 17.322834 -3.625131 0.000000 37.795273 -3.625131 7.874016 20.472441 -3.625131 0.000000 20.472441 -3.625131 7.874016 37.795273 -3.625131 7.874016 17.322834 0.311876 7.874016 37.795273 4.248885 7.874016 0.000000 4.248884 7.874016 20.472441 0.311876 7.874016 20.472441 -3.625131 7.874016 37.795273 -3.625131 7.874016 17.322834 -3.625131 7.874016 0.000000 -3.625131 0.000000 17.322834 0.311876 7.874016 17.322834 -3.625131 0.000000 17.322834 -3.625131 7.874016 17.322834 0.311876 7.874016 0.000000 4.248884 0.000000 37.795273 4.248885 0.000000 0.000000 4.248884 7.874016 37.795273 4.248885 0.000000 37.795273 4.248885 7.874016 37.795273 -3.625131 0.000000 37.795273 -3.625131 7.874016 37.795273 4.248885 0.000000 17.322834 -3.625131 7.874016 0.000000 -3.625131 0.000000 0.000000 -3.625131 7.874016 17.322834 -3.625131 7.874016 0.000000 4.248884 0.000000 0.000000 -3.625131 7.874016 0.000000 -3.625131 0.000000 0.000000 4.248884 "
									            />
								</IndexedFaceSet>
							</Shape>
						</Group>
					</Transform>
				</Transform>
				<Transform DEF="group_5_001_TRANSFORM"
				           translation="71.085609 -666.141724 32.274563"
				           scale="1.000000 1.000000 1.000000"
				           rotation="0.000000 1.000000 0.000000 0.000000"
				           >
					<Transform DEF="group_5_001_ifs_TRANSFORM"
					           translation="0.000000 0.000000 0.000000"
					           scale="1.000000 1.000000 1.000000"
					           rotation="0.000000 1.000000 0.000000 0.000000"
					           >
						<Group DEF="group_ME_ID42_002">
							<Shape>
								<Appearance>
								</Appearance>
								<IndexedFaceSet solid="false"
								                coordIndex="0 1 2 -1 1 0 3 -1 4 5 6 -1 5 4 7 -1 8 9 10 -1 9 8 11 -1 12 13 14 -1 13 12 15 -1 16 17 18 -1 17 16 19 -1 20 21 22 -1 21 20 23 -1 "
								                >
									<Coordinate DEF="coords_ME_ID42_002"
									            point="0.787402 37.795273 0.000000 0.000000 0.000000 0.000000 0.000000 37.795273 0.000000 0.787402 0.000000 0.000000 8.661417 0.000000 8.257166 0.000000 0.000000 0.000000 0.787402 0.000000 0.000000 8.661417 0.000000 9.044568 8.661417 0.000000 9.044568 0.000000 37.795273 0.000000 0.000000 0.000000 0.000000 8.661417 37.795277 9.044568 8.661417 37.795277 9.044568 0.787402 37.795273 0.000000 0.000000 37.795273 0.000000 8.661417 37.795277 8.257166 0.787402 37.795273 0.000000 8.661417 0.000000 8.257166 0.787402 0.000000 0.000000 8.661417 37.795277 8.257166 8.661417 37.795277 8.257166 8.661417 0.000000 9.044568 8.661417 0.000000 8.257166 8.661417 37.795277 9.044568 "
									            />
								</IndexedFaceSet>
							</Shape>
						</Group>
					</Transform>
				</Transform>
				<Transform DEF="group_6_001_TRANSFORM"
				           translation="79.747032 -666.141724 40.531727"
				           scale="1.000000 1.000000 1.000000"
				           rotation="0.000000 1.000000 0.000000 0.000000"
				           >
					<Transform DEF="group_6_001_ifs_TRANSFORM"
					           translation="0.000000 0.000000 0.000000"
					           scale="1.000000 1.000000 1.000000"
					           rotation="0.000000 1.000000 0.000000 0.000000"
					           >
						<Group DEF="group_ME_ID49_002">
							<Shape>
								<Appearance>
								</Appearance>
								<IndexedFaceSet solid="false"
								                coordIndex="0 1 2 -1 1 0 3 -1 4 5 6 -1 5 4 7 -1 8 9 10 -1 9 8 11 -1 12 13 14 -1 13 12 15 -1 16 17 18 -1 17 16 19 -1 20 21 22 -1 21 20 23 -1 "
								                >
									<Coordinate DEF="coords_ME_ID49_002"
									            point="11.811023 0.000000 0.787402 0.000000 37.795273 0.787402 0.000000 0.000000 0.787402 11.811023 37.795273 0.787402 11.811023 0.000000 0.787402 0.000000 0.000000 0.000000 11.811023 0.000000 0.000000 0.000000 0.000000 0.787402 11.811023 37.795273 0.000000 11.811023 0.000000 0.787402 11.811023 0.000000 0.000000 11.811023 37.795273 0.787402 0.000000 37.795273 0.787402 11.811023 37.795273 0.000000 0.000000 37.795273 0.000000 11.811023 37.795273 0.787402 0.000000 37.795273 0.787402 0.000000 0.000000 0.000000 0.000000 0.000000 0.787402 0.000000 37.795273 0.000000 11.811023 37.795273 0.000000 0.000000 0.000000 0.000000 0.000000 37.795273 0.000000 11.811023 0.000000 0.000000 "
									            />
								</IndexedFaceSet>
							</Shape>
						</Group>
					</Transform>
				</Transform>
				<Transform DEF="group_7_001_TRANSFORM"
				           translation="56.124985 -666.141724 18.110235"
				           scale="1.000000 1.000000 1.000000"
				           rotation="0.000000 1.000000 0.000000 0.000000"
				           >
					<Transform DEF="group_7_001_ifs_TRANSFORM"
					           translation="0.000000 0.000000 0.000000"
					           scale="1.000000 1.000000 1.000000"
					           rotation="0.000000 1.000000 0.000000 0.000000"
					           >
						<Group DEF="group_ME_ID56_002">
							<Shape>
								<Appearance>
								</Appearance>
								<IndexedFaceSet solid="false"
								                coordIndex="0 1 2 -1 1 0 3 -1 4 5 6 -1 5 4 7 -1 8 9 10 -1 9 8 11 -1 11 8 12 -1 12 8 13 -1 9 14 15 -1 14 9 11 -1 16 17 18 -1 17 16 19 -1 19 16 14 -1 14 16 15 -1 20 21 22 -1 21 20 23 -1 24 25 26 -1 25 24 27 -1 27 24 28 -1 29 30 31 -1 30 29 32 -1 32 29 33 -1 33 29 34 -1 28 35 27 -1 35 28 30 -1 35 30 32 -1 36 37 38 -1 37 36 39 -1 40 41 42 -1 41 40 43 -1 44 45 46 -1 45 44 47 -1 48 49 50 -1 49 48 51 -1 52 53 54 -1 53 52 55 -1 56 57 58 -1 57 56 59 -1 60 61 62 -1 61 60 63 -1 64 65 66 -1 65 64 67 -1 68 69 70 -1 69 68 71 -1 "
								                >
									<Coordinate DEF="coords_ME_ID56_002"
									            point="3.937008 20.472441 0.071893 0.000000 17.322834 1.509757 0.000000 20.472441 1.509757 3.937008 17.322834 0.071893 3.937008 20.472441 0.071893 0.000000 20.472441 0.000000 3.937008 20.472441 0.000000 0.000000 20.472441 1.509757 3.937008 37.795273 0.000000 3.937008 20.472441 0.071893 3.937008 20.472441 0.000000 3.937008 20.472441 1.961657 3.937008 20.472441 5.896610 3.937008 37.795277 5.896610 3.937008 17.322834 1.961657 3.937008 17.322834 0.071893 3.937008 17.322834 0.000000 3.937008 0.000000 5.896610 3.937008 0.000000 0.000000 3.937008 17.322834 5.896610 0.000000 17.322834 1.509757 3.937008 17.322834 0.000000 0.000000 17.322834 0.000000 3.937008 17.322834 0.071893 0.000000 17.322834 5.896610 0.000000 0.000000 0.000000 0.000000 0.000000 5.896610 0.000000 17.322834 0.000000 0.000000 17.322834 1.961657 0.000000 37.795277 5.896610 0.000000 20.472441 1.961657 0.000000 20.472441 5.896610 0.000000 20.472441 1.509757 0.000000 20.472441 0.000000 0.000000 37.795273 0.000000 0.000000 17.322834 1.509757 3.937008 37.795273 0.000000 0.000000 20.472441 0.000000 0.000000 37.795273 0.000000 3.937008 20.472441 0.000000 3.937008 20.472441 5.896610 0.000000 20.472441 1.961657 3.937008 20.472441 1.961657 0.000000 20.472441 5.896610 3.937008 17.322834 1.961657 0.000000 20.472441 1.961657 0.000000 17.322834 1.961657 3.937008 20.472441 1.961657 0.000000 17.322834 1.961657 3.937008 17.322834 5.896610 3.937008 17.322834 1.961657 0.000000 17.322834 5.896610 0.000000 0.000000 5.896610 3.937008 17.322834 5.896610 0.000000 17.322834 5.896610 3.937008 0.000000 5.896610 3.937008 0.000000 5.896610 0.000000 0.000000 0.000000 3.937008 0.000000 0.000000 0.000000 0.000000 5.896610 3.937008 17.322834 0.000000 0.000000 0.000000 0.000000 0.000000 17.322834 0.000000 3.937008 0.000000 0.000000 0.000000 37.795277 5.896610 3.937008 37.795273 0.000000 0.000000 37.795273 0.000000 3.937008 37.795277 5.896610 0.000000 20.472441 5.896610 3.937008 37.795277 5.896610 0.000000 37.795277 5.896610 3.937008 20.472441 5.896610 "
									            />
								</IndexedFaceSet>
							</Shape>
						</Group>
					</Transform>
				</Transform>
				<Transform DEF="group_8_001_TRANSFORM"
				           translation="34.471439 -662.204712 32.283466"
				           scale="1.000000 1.000000 1.000000"
				           rotation="0.000000 1.000000 0.000000 0.000000"
				           >
					<Transform DEF="group_8_001_ifs_TRANSFORM"
					           translation="0.000000 0.000000 0.000000"
					           scale="1.000000 1.000000 1.000000"
					           rotation="0.000000 1.000000 0.000000 0.000000"
					           >
						<Group DEF="group_ME_ID63_002">
							<Shape>
								<Appearance>
								</Appearance>
								<IndexedFaceSet solid="false"
								                coordIndex="0 1 2 -1 1 0 3 -1 4 5 6 -1 5 4 7 -1 8 9 10 -1 9 8 11 -1 12 13 14 -1 13 12 15 -1 16 17 18 -1 17 16 19 -1 20 21 22 -1 21 20 23 -1 "
								                >
									<Coordinate DEF="coords_ME_ID63_002"
									            point="13.779528 -3.937008 0.787402 0.000000 33.858265 0.787402 0.000000 -3.937008 0.787402 13.779528 33.858265 0.787402 13.779528 -3.937008 0.787402 0.000000 -3.937008 0.000000 13.779528 -3.937008 0.000000 0.000000 -3.937008 0.787402 13.779528 33.858265 0.000000 13.779528 -3.937008 0.787402 13.779528 -3.937008 0.000000 13.779528 33.858265 0.787402 0.000000 33.858265 0.787402 13.779528 33.858265 0.000000 0.000000 33.858265 0.000000 13.779528 33.858265 0.787402 0.000000 33.858265 0.787402 0.000000 -3.937008 0.000000 0.000000 -3.937008 0.787402 0.000000 33.858265 0.000000 13.779528 33.858265 0.000000 0.000000 -3.937008 0.000000 0.000000 33.858265 0.000000 13.779528 -3.937008 0.000000 "
									            />
								</IndexedFaceSet>
							</Shape>
						</Group>
					</Transform>
				</Transform>
				<Transform DEF="group_9_001_TRANSFORM"
				           translation="56.124985 -659.448853 1.574803"
				           scale="1.000000 1.000000 1.000000"
				           rotation="0.000000 1.000000 0.000000 0.000000"
				           >
					<Transform DEF="group_10_001_TRANSFORM"
					           translation="-42.629421 -0.393701 1.181102"
					           scale="1.000000 1.000000 1.000000"
					           rotation="0.000000 1.000000 0.000000 0.000000"
					           >
						<Transform DEF="group_10_001_ifs_TRANSFORM"
						           translation="0.000000 0.000000 0.000000"
						           scale="1.000000 1.000000 1.000000"
						           rotation="0.000000 1.000000 0.000000 0.000000"
						           >
							<Group DEF="group_ME_ID71_002">
								<Shape>
									<Appearance>
									</Appearance>
									<IndexedFaceSet solid="false"
									                coordIndex="0 1 2 -1 1 0 3 -1 4 5 6 -1 5 4 7 -1 7 8 5 -1 8 7 9 -1 8 9 10 -1 11 12 13 -1 12 11 14 -1 15 16 17 -1 16 15 18 -1 18 15 19 -1 19 15 20 -1 21 16 18 -1 22 23 24 -1 23 22 25 -1 26 27 28 -1 27 26 29 -1 30 31 32 -1 31 30 33 -1 34 35 36 -1 35 34 37 -1 38 39 40 -1 39 38 41 -1 "
									                >
										<Coordinate DEF="coords_ME_ID71_002"
										            point="0.000000 12.598426 0.000000 1.574803 12.496026 0.595353 1.574803 12.598425 0.000000 0.000000 12.496026 0.595353 0.000000 11.811023 2.362205 0.000000 5.905512 0.000000 0.000000 5.905512 2.362205 0.000000 11.811023 1.574803 0.000000 12.598426 0.000000 0.000000 12.225867 1.135672 0.000000 12.496026 0.595353 0.000000 12.496026 0.595353 1.574803 12.225867 1.135672 1.574803 12.496026 0.595353 0.000000 12.225867 1.135672 1.574803 12.598425 0.000000 1.574803 5.905512 2.362205 1.574803 5.905512 0.000000 1.574803 11.811023 1.574803 1.574803 12.225867 1.135672 1.574803 12.496026 0.595353 1.574803 11.811023 2.362205 1.574803 12.598425 0.000000 0.000000 5.905512 0.000000 0.000000 12.598426 0.000000 1.574803 5.905512 0.000000 0.000000 5.905512 2.362205 1.574803 11.811023 2.362205 0.000000 11.811023 2.362205 1.574803 5.905512 2.362205 0.000000 11.811023 1.574803 1.574803 11.811023 2.362205 1.574803 11.811023 1.574803 0.000000 11.811023 2.362205 0.000000 12.225867 1.135672 1.574803 11.811023 1.574803 1.574803 12.225867 1.135672 0.000000 11.811023 1.574803 1.574803 5.905512 2.362205 0.000000 5.905512 0.000000 1.574803 5.905512 0.000000 0.000000 5.905512 2.362205 "
										            />
									</IndexedFaceSet>
								</Shape>
							</Group>
						</Transform>
					</Transform>
					<Transform DEF="group_11_001_TRANSFORM"
					           translation="-42.629421 8.267716 1.181102"
					           scale="-1.000000 -1.000000 -1.000000"
					           rotation="-0.000000 1.000000 -0.000000 3.141593"
					           >
						<Transform DEF="group_11_001_ifs_TRANSFORM"
						           translation="0.000000 0.000000 -0.000000"
						           scale="1.000000 1.000000 1.000000"
						           rotation="0.000000 1.000000 0.000000 0.000000"
						           >
							<Group DEF="group_ME_ID78_002">
								<Shape>
									<Appearance>
									</Appearance>
									<IndexedFaceSet solid="false"
									                coordIndex="0 1 2 -1 3 2 1 -1 4 5 6 -1 5 7 6 -1 8 6 7 -1 7 9 8 -1 10 8 9 -1 11 12 13 -1 14 13 12 -1 15 16 17 -1 18 19 20 -1 20 19 15 -1 15 19 16 -1 21 16 19 -1 22 23 24 -1 25 24 23 -1 26 27 28 -1 29 28 27 -1 30 31 32 -1 33 32 31 -1 34 35 36 -1 37 36 35 -1 38 39 40 -1 41 40 39 -1 "
									                >
										<Coordinate DEF="coords_ME_ID78_002"
										            point="0.000000 12.496026 0.595353 0.000000 12.598426 0.000000 1.574803 12.496026 0.595353 1.574803 12.598425 0.000000 0.000000 12.496026 0.595353 0.000000 12.225867 1.135672 0.000000 12.598426 0.000000 0.000000 11.811023 1.574803 0.000000 5.905512 0.000000 0.000000 11.811023 2.362205 0.000000 5.905512 2.362205 0.000000 12.225867 1.135672 0.000000 12.496026 0.595353 1.574803 12.225867 1.135672 1.574803 12.496026 0.595353 1.574803 11.811023 1.574803 1.574803 5.905512 2.362205 1.574803 11.811023 2.362205 1.574803 12.496026 0.595353 1.574803 12.598425 0.000000 1.574803 12.225867 1.135672 1.574803 5.905512 0.000000 1.574803 5.905512 0.000000 1.574803 12.598425 0.000000 0.000000 5.905512 0.000000 0.000000 12.598426 0.000000 1.574803 5.905512 2.362205 0.000000 5.905512 2.362205 1.574803 11.811023 2.362205 0.000000 11.811023 2.362205 0.000000 11.811023 2.362205 0.000000 11.811023 1.574803 1.574803 11.811023 2.362205 1.574803 11.811023 1.574803 0.000000 11.811023 1.574803 0.000000 12.225867 1.135672 1.574803 11.811023 1.574803 1.574803 12.225867 1.135672 0.000000 5.905512 2.362205 1.574803 5.905512 2.362205 0.000000 5.905512 0.000000 1.574803 5.905512 0.000000 "
										            />
									</IndexedFaceSet>
								</Shape>
							</Group>
						</Transform>
					</Transform>
				</Transform>
			</Transform>
		</Transform>
	</Scene>
</X3D>