<?xml version="1.0" encoding="UTF-8"?>
<!DOCTYPE X3D PUBLIC "ISO//Web3D//DTD X3D 3.0//EN" "http://www.web3d.org/specifications/x3d-3.0.dtd">
<X3D version="3.0" profile="Immersive" xmlns:xsd="http://www.w3.org/2001/XMLSchema-instance" xsd:noNamespaceSchemaLocation="http://www.web3d.org/specifications/x3d-3.0.xsd">
	<head>
		<meta name="filename" content="19-1 平梁.x3d" />
		<meta name="created" content="2025-12-29 13:49:36" />
		<meta name="generator" content="Blender 4.2.2 LTS" />
		<meta name="translator" content="Web3D X3D/VRML2 format v2.5.1" />
	</head>
	<Scene>
		<NavigationInfo headlight="true"
		                visibilityLimit="0.0"
		                type='"EXAMINE", "ANY"'
		                avatarSize="0.25, 1.75, 0.75"
		                />
		<Background DEF="WO_World"
		            groundColor="0.051 0.051 0.051"
		            skyColor="0.051 0.051 0.051"
		            />
		<Transform DEF="SketchUp_TRANSFORM"
		           translation="0.000000 0.000000 0.000000"
		           scale="0.025400 0.025400 0.025400"
		           rotation="-1.000000 0.000000 0.000000 1.570796"
		           >
			<Transform DEF="SketchUp_ifs_TRANSFORM"
			           translation="0.000000 0.000000 0.000000"
			           scale="1.000000 1.000000 1.000000"
			           rotation="0.000000 1.000000 0.000000 0.000000"
			           >
				<Group DEF="group_ME_ID94">
				</Group>
			</Transform>
			<Transform DEF="group_0_TRANSFORM"
			           translation="-174.505356 60.758232 -0.000000"
			           scale="-1.000000 -1.000000 -1.000000"
			           rotation="-0.707107 -0.707107 0.000000 3.141593"
			           >
				<Transform DEF="group_0_ifs_TRANSFORM"
				           translation="-0.000014 0.000020 0.000000"
				           scale="1.000000 1.000000 1.000000"
				           rotation="0.000000 0.000000 0.000000 0.000000"
				           >
					<Group DEF="group_ME_ID20">
						<Shape>
							<Appearance>
								<Material DEF="MA_material_001"
								          diffuseColor="1.000 1.000 1.000"
								          specularColor="0.401 0.401 0.401"
								          emissiveColor="0.000 0.000 0.000"
								          ambientIntensity="0.000"
								          shininess="0.500"
								          transparency="0.000"
								          />
							</Appearance>
							<IndexedFaceSet solid="false"
							                coordIndex="0 1 2 -1 3 2 1 -1 2 3 4 -1 5 4 3 -1 1 6 3 -1 7 3 6 -1 8 9 0 -1 1 0 9 -1 10 0 11 -1 2 11 0 -1 12 13 14 -1 14 13 15 -1 15 13 16 -1 16 13 17 -1 17 13 18 -1 18 13 19 -1 19 13 20 -1 20 13 21 -1 13 22 21 -1 22 23 21 -1 24 21 23 -1 7 25 3 -1 5 3 25 -1 2 4 11 -1 26 11 4 -1 27 28 6 -1 7 6 28 -1 6 1 29 -1 9 8 30 -1 31 8 10 -1 0 10 8 -1 29 1 9 -1 32 33 34 -1 35 36 37 -1 38 37 36 -1 39 40 41 -1 42 41 40 -1 42 43 41 -1 44 41 43 -1 43 45 44 -1 46 44 45 -1 47 48 49 -1 50 49 48 -1 28 47 51 -1 49 51 47 -1 7 28 25 -1 51 25 28 -1 52 33 53 -1 54 53 33 -1 55 56 53 -1 52 53 56 -1 57 58 55 -1 56 55 58 -1 27 6 29 -1 59 47 27 -1 28 27 47 -1 8 31 30 -1 29 9 30 -1 60 32 61 -1 34 33 52 -1 61 32 34 -1 62 63 35 -1 36 35 63 -1 41 64 39 -1 44 65 41 -1 46 65 44 -1 66 48 59 -1 47 59 48 -1 67 52 56 -1 68 56 58 -1 69 70 29 -1 27 29 70 -1 71 72 70 -1 72 59 70 -1 27 70 59 -1 30 31 73 -1 69 29 30 -1 74 60 61 -1 34 52 67 -1 61 34 75 -1 76 77 62 -1 63 62 77 -1 41 78 64 -1 65 78 41 -1 46 79 65 -1 80 66 72 -1 59 72 66 -1 67 56 68 -1 70 69 71 -1 72 71 30 -1 69 30 71 -1 81 82 73 -1 30 73 82 -1 83 60 74 -1 74 61 84 -1 75 34 67 -1 84 61 75 -1 85 86 76 -1 77 76 86 -1 78 87 64 -1 88 67 68 -1 65 89 78 -1 79 89 65 -1 80 72 30 -1 79 90 89 -1 91 30 82 -1 83 74 92 -1 93 92 74 -1 94 74 84 -1 75 67 88 -1 95 84 75 -1 95 75 88 -1 96 97 85 -1 86 85 97 -1 98 99 87 -1 78 98 87 -1 89 98 78 -1 80 30 100 -1 90 101 89 -1 100 30 91 -1 102 103 104 -1 104 103 105 -1 106 105 103 -1 93 74 94 -1 84 95 107 -1 108 109 85 -1 110 99 98 -1 89 101 98 -1 90 111 101 -1 111 112 101 -1 112 113 110 -1 114 99 110 -1 101 110 98 -1 101 112 110 -1 "
							                >
								<Coordinate DEF="coords_ME_ID20"
								            point="50.256382 2.515034 1.574118 50.108746 4.151421 1.446154 44.066757 2.224895 1.767544 44.026264 3.866304 1.636232 23.858267 2.224895 1.767544 23.858267 3.866304 1.636231 49.989334 5.511811 1.397926 43.986771 5.511811 1.574803 54.784206 3.081013 1.196799 54.444366 4.693373 1.084852 50.407379 0.885827 1.771654 44.108166 0.590551 1.968504 23.858267 11.030334 13.442975 23.858267 10.433070 16.535433 23.858267 11.023622 5.458607 23.858267 10.433070 1.968504 23.858267 8.798726 1.767544 23.858267 7.157318 1.636231 23.858267 5.511811 1.574803 23.858267 3.866304 1.636231 23.858267 2.224895 1.767544 23.858267 0.590551 1.968504 23.858267 0.590551 16.535433 23.858267 0.006712 13.442975 23.858267 -0.000000 5.458607 23.858267 5.511811 1.574803 23.858267 0.590551 1.968504 50.108746 6.872201 1.446154 44.026264 7.157318 1.636231 54.276608 5.511811 1.063323 56.702183 5.511811 0.650284 55.131790 1.476378 1.377953 50.407379 0.885827 1.771654 44.108166 0.590551 1.968504 50.407379 0.330709 4.912746 55.525494 10.433070 16.535433 55.525494 0.590551 16.535433 23.858267 10.433070 16.535433 23.858267 0.590551 16.535433 55.525494 10.433070 16.535433 23.858267 10.433070 16.535433 55.525494 11.030334 13.442975 23.858267 11.030334 13.442975 23.858267 11.023622 5.458607 44.108166 11.023622 5.458607 23.858267 10.433070 1.968504 44.108166 10.433070 1.968504 44.066757 8.798726 1.767544 44.108166 10.433070 1.968504 23.858267 8.798726 1.767544 23.858267 10.433070 1.968504 23.858267 7.157318 1.636231 44.108166 0.000000 5.458607 23.858267 -0.000000 5.458607 23.858267 0.590551 1.968504 23.858267 0.006712 13.442975 55.525494 0.006712 13.442975 23.858267 0.590551 16.535433 55.525494 0.590551 16.535433 50.256382 8.508588 1.574118 55.131790 1.476378 1.377953 55.131790 0.992126 3.821025 61.824703 10.116704 15.708661 61.824703 0.906918 15.708661 61.824703 10.116704 15.708661 50.407379 10.692913 4.912746 50.407379 10.137795 1.771654 61.824703 0.361043 12.925448 61.824703 0.906918 15.708661 54.444366 6.330249 1.084852 54.268742 6.352202 1.099488 54.460205 6.405385 1.090069 54.784206 7.942609 1.196799 58.281395 2.362205 0.787402 58.281395 1.984252 2.183443 66.549118 1.069704 11.890397 66.549118 9.483971 14.055118 66.549118 1.539651 14.055118 61.824703 10.676003 12.925448 50.407379 10.137795 1.771654 55.131790 9.547244 1.377953 58.556450 2.568496 0.649874 59.856197 3.543307 0.000000 58.281395 2.362205 0.787402 69.698715 2.132696 10.337820 69.698715 8.534870 11.574802 69.698715 2.488751 11.574802 66.549118 9.483971 14.055118 66.549118 1.539651 14.055118 55.131790 10.031496 3.821025 55.131790 9.547244 1.377953 59.856197 7.480315 0.000000 58.556450 2.568496 0.649874 59.856197 3.543307 0.000000 71.273521 3.550019 8.267716 69.698715 2.488751 11.574802 71.273521 7.269404 8.267716 71.273521 3.550019 8.267716 66.549118 9.967341 11.890397 69.698715 8.534870 11.574802 58.281395 8.661417 0.787402 58.281395 9.039370 2.183443 71.273521 7.269404 8.267716 71.273521 7.487027 8.267716 71.273521 3.550019 8.267716 59.856197 3.543307 0.000000 59.856197 7.480315 0.000000 71.273521 3.550019 8.267716 71.273521 7.487027 8.267716 71.273521 7.269404 8.267716 69.698715 8.904350 10.337820 58.281395 8.661417 0.787402 59.856197 7.480315 0.000000 71.273521 7.487027 8.267716 71.273521 7.487027 8.267716 "
								            />
							</IndexedFaceSet>
						</Shape>
					</Group>
				</Transform>
				<Transform DEF="group_1_TRANSFORM"
				           translation="59.856186 3.543320 0.000000"
				           scale="1.000000 1.000000 1.000000"
				           rotation="0.000000 0.000000 0.000000 0.000000"
				           >
					<Transform DEF="group_1_ifs_TRANSFORM"
					           translation="-0.000000 0.000000 0.000000"
					           scale="1.000000 1.000000 1.000000"
					           rotation="0.000000 0.000000 0.000000 0.000000"
					           >
						<Group DEF="group_ME_ID4">
							<Shape>
								<Appearance>
									<Material USE="MA_material_001" />
								</Appearance>
								<IndexedFaceSet solid="false"
								                coordIndex="0 1 2 -1 3 2 1 -1 4 5 6 -1 5 7 6 -1 8 6 9 -1 6 7 9 -1 7 10 9 -1 9 10 11 -1 12 11 10 -1 13 14 15 -1 16 17 18 -1 18 17 19 -1 19 17 20 -1 17 21 20 -1 20 21 13 -1 21 22 13 -1 13 22 14 -1 23 14 22 -1 24 17 16 -1 25 26 27 -1 27 26 28 -1 29 28 30 -1 28 26 30 -1 30 26 31 -1 26 32 31 -1 33 31 32 -1 34 35 36 -1 37 36 35 -1 38 39 40 -1 41 40 39 -1 38 42 39 -1 42 43 39 -1 39 43 44 -1 43 45 44 -1 44 45 46 -1 47 46 45 -1 45 48 47 -1 49 47 48 -1 50 51 52 -1 53 52 51 -1 54 55 56 -1 57 56 55 -1 58 59 60 -1 61 60 59 -1 62 63 64 -1 65 64 63 -1 66 67 68 -1 69 68 67 -1 70 71 72 -1 72 71 73 -1 73 71 74 -1 74 71 75 -1 75 71 76 -1 77 76 71 -1 75 76 78 -1 79 80 81 -1 82 81 80 -1 83 84 85 -1 84 86 85 -1 86 87 85 -1 87 88 85 -1 85 88 89 -1 88 90 89 -1 91 89 90 -1 92 93 94 -1 95 94 93 -1 96 97 98 -1 99 98 97 -1 100 101 102 -1 103 102 101 -1 104 105 106 -1 107 106 105 -1 108 109 110 -1 111 110 109 -1 112 113 114 -1 115 114 113 -1 116 117 118 -1 119 118 117 -1 120 121 122 -1 123 122 121 -1 124 125 126 -1 127 126 125 -1 128 129 130 -1 131 130 129 -1 "
								                >
									<Coordinate DEF="coords_ME_ID4"
									            point="12.102325 3.937008 6.500865 12.204723 3.937008 5.905512 12.102325 0.000000 6.500865 12.204723 0.000000 5.905512 11.832167 0.000000 7.041184 12.102325 0.000000 6.500865 11.417322 0.000000 7.480315 12.204723 0.000000 5.905512 11.417322 0.000000 8.267716 0.000000 0.000000 0.000000 12.992126 0.000000 5.905512 10.236220 0.000000 0.000000 12.992126 0.000000 0.000000 12.992126 3.543307 5.905511 12.204723 3.937008 5.905512 12.992126 3.937008 5.905512 17.716536 0.000000 5.905512 16.929134 0.393701 5.905512 17.716536 3.937008 5.905512 16.929134 3.937008 5.905512 16.929134 3.543307 5.905511 12.992126 0.393701 5.905512 12.992126 0.000000 5.905512 12.204723 0.000000 5.905512 16.929134 0.000000 5.905512 11.832167 3.937008 7.041184 11.417322 3.937008 7.480315 12.102325 3.937008 6.500865 12.204723 3.937008 5.905512 12.992126 3.937008 5.905512 12.992126 3.937008 0.000000 10.236220 3.937008 0.000000 11.417322 3.937008 8.267716 0.000000 3.937008 0.000000 11.832167 3.937008 7.041184 12.102325 3.937008 6.500865 11.832167 0.000000 7.041184 12.102325 0.000000 6.500865 33.858269 3.937008 0.000000 16.929134 0.393701 0.000000 33.858269 0.000000 0.000000 16.929134 0.000000 0.000000 16.929134 3.937008 0.000000 16.929134 3.543307 0.000000 12.992126 0.393701 0.000000 12.992126 3.543307 0.000000 12.992126 0.000000 0.000000 10.236220 0.000000 0.000000 12.992126 3.937008 0.000000 10.236220 3.937008 0.000000 12.992126 0.393701 5.905512 12.992126 0.393701 0.000000 12.992126 0.000000 5.905512 12.992126 0.000000 0.000000 11.417322 3.937008 7.480315 11.832167 3.937008 7.041184 11.417322 0.000000 7.480315 11.832167 0.000000 7.041184 11.417322 3.937008 8.267716 11.417322 3.937008 7.480315 11.417322 0.000000 8.267716 11.417322 0.000000 7.480315 11.417322 3.937008 8.267716 11.417322 0.000000 8.267716 0.000000 3.937008 0.000000 0.000000 0.000000 0.000000 10.236220 0.000000 0.000000 10.236220 3.937008 0.000000 0.000000 0.000000 0.000000 0.000000 3.937008 0.000000 18.503937 0.000000 8.267716 33.858269 0.000000 8.267716 18.503937 0.000000 7.480315 18.089094 0.000000 7.041184 17.818935 0.000000 6.500865 17.716536 0.000000 5.905512 16.929134 0.000000 0.000000 33.858269 0.000000 0.000000 16.929134 0.000000 5.905512 17.716536 3.937008 5.905512 17.818935 3.937008 6.500865 17.716536 0.000000 5.905512 17.818935 0.000000 6.500865 18.503937 3.937008 8.267716 18.503937 3.937008 7.480315 33.858269 3.937008 8.267716 18.089094 3.937008 7.041184 17.818935 3.937008 6.500865 17.716536 3.937008 5.905512 33.858269 3.937008 0.000000 16.929134 3.937008 5.905512 16.929134 3.937008 0.000000 16.929134 3.937008 0.000000 16.929134 3.937008 5.905512 16.929134 3.543307 0.000000 16.929134 3.543307 5.905511 16.929134 3.543307 5.905511 12.992126 3.543307 5.905511 16.929134 3.543307 0.000000 12.992126 3.543307 0.000000 12.992126 3.937008 5.905512 12.992126 3.937008 0.000000 12.992126 3.543307 5.905511 12.992126 3.543307 0.000000 12.992126 0.393701 5.905512 16.929134 0.393701 5.905512 12.992126 0.393701 0.000000 16.929134 0.393701 0.000000 16.929134 0.393701 0.000000 16.929134 0.393701 5.905512 16.929134 0.000000 0.000000 16.929134 0.000000 5.905512 33.858269 3.937008 8.267716 33.858269 3.937008 0.000000 33.858269 0.000000 8.267716 33.858269 0.000000 0.000000 33.858269 3.937008 8.267716 33.858269 0.000000 8.267716 18.503937 3.937008 8.267716 18.503937 0.000000 8.267716 18.503937 3.937008 7.480315 18.503937 3.937008 8.267716 18.503937 0.000000 7.480315 18.503937 0.000000 8.267716 18.089094 3.937008 7.041184 18.503937 3.937008 7.480315 18.089094 0.000000 7.041184 18.503937 0.000000 7.480315 17.818935 3.937008 6.500865 18.089094 3.937008 7.041184 17.818935 0.000000 6.500865 18.089094 0.000000 7.041184 "
									            />
								</IndexedFaceSet>
							</Shape>
						</Group>
					</Transform>
				</Transform>
				<Transform DEF="instance_0_TRANSFORM"
				           translation="71.273514 8.661438 5.905512"
				           scale="1.000000 1.000000 1.000000"
				           rotation="0.000000 0.000000 -1.000000 1.570796"
				           >
					<Transform DEF="instance_0_ifs_TRANSFORM"
					           translation="-0.000014 0.000001 0.000000"
					           scale="1.000000 1.000000 1.000000"
					           rotation="-0.000000 0.000000 0.000000 0.000000"
					           >
						<Group DEF="group_ME_ID14">
							<Shape>
								<Appearance>
								</Appearance>
								<IndexedFaceSet solid="false"
								                coordIndex="0 1 2 -1 3 2 1 -1 4 5 6 -1 7 6 5 -1 8 9 10 -1 11 10 9 -1 12 13 14 -1 13 15 14 -1 14 15 16 -1 16 15 8 -1 8 15 9 -1 17 9 15 -1 18 19 12 -1 13 12 19 -1 20 21 22 -1 23 22 21 -1 24 25 26 -1 26 25 27 -1 27 25 28 -1 28 25 20 -1 21 20 25 -1 29 30 31 -1 32 31 30 -1 33 34 35 -1 36 37 34 -1 35 34 37 -1 38 39 36 -1 39 40 36 -1 37 36 40 -1 41 42 43 -1 44 43 42 -1 45 46 47 -1 48 47 46 -1 49 50 51 -1 51 50 52 -1 50 53 52 -1 54 52 53 -1 51 55 49 -1 56 49 55 -1 57 58 59 -1 60 59 58 -1 61 62 63 -1 64 63 62 -1 65 66 67 -1 68 69 66 -1 67 66 69 -1 70 71 68 -1 71 72 68 -1 69 68 72 -1 73 74 75 -1 76 75 74 -1 77 78 79 -1 80 79 78 -1 81 82 83 -1 84 83 82 -1 85 86 87 -1 87 86 88 -1 86 89 88 -1 90 88 89 -1 91 92 93 -1 94 93 92 -1 95 96 97 -1 98 97 96 -1 99 100 101 -1 102 101 100 -1 103 104 105 -1 106 105 104 -1 107 108 109 -1 110 109 108 -1 85 111 86 -1 111 112 86 -1 112 113 86 -1 89 86 113 -1 97 98 114 -1 115 114 98 -1 116 103 117 -1 105 117 103 -1 109 110 118 -1 119 118 110 -1 111 120 112 -1 120 121 112 -1 113 112 121 -1 114 115 122 -1 123 122 115 -1 124 116 125 -1 117 125 116 -1 118 119 126 -1 127 126 119 -1 128 129 130 -1 131 130 129 -1 "
								                >
									<Coordinate DEF="coords_ME_ID14"
									            point="5.118110 5.511811 3.937008 6.299213 5.511811 3.937008 5.118110 5.511811 2.362205 6.299213 5.511811 2.362205 5.118110 7.086615 2.362205 5.118110 7.086615 3.937008 5.118110 5.511811 2.362205 5.118110 5.511811 3.937008 1.181102 5.511811 2.362205 1.181102 1.574803 2.362205 0.000000 5.511811 2.362205 0.000000 1.574803 2.362205 5.118110 5.511811 2.362205 5.118110 1.574803 2.362205 5.118110 7.086615 2.362205 5.118110 0.000000 2.362205 1.181102 7.086615 2.362205 1.181102 -0.000000 2.362205 6.299213 5.511811 2.362205 6.299213 1.574803 2.362205 6.299213 1.574803 2.362205 6.299213 0.000000 1.574803 6.299213 1.574803 3.937008 6.299213 0.000000 3.937008 6.299213 7.086615 1.574803 6.299213 6.299213 1.574803 6.299213 7.086615 3.937008 6.299213 5.511811 3.937008 6.299213 5.511811 2.362205 6.299213 7.086615 3.937008 6.299213 5.511811 3.937008 5.118110 7.086615 3.937008 5.118110 5.511811 3.937008 5.118110 7.086615 3.937008 5.118110 7.086615 2.362205 6.299213 7.086615 3.937008 1.181102 7.086615 2.362205 6.299213 7.086615 1.574803 1.181102 7.086615 3.937008 0.000000 7.086615 3.937008 0.000000 7.086615 1.574803 1.181102 7.086615 3.937008 1.181102 7.086615 2.362205 1.181102 5.511811 3.937008 1.181102 5.511811 2.362205 1.181102 5.511811 3.937008 1.181102 5.511811 2.362205 0.000000 5.511811 3.937008 0.000000 5.511811 2.362205 0.000000 5.511811 2.362205 0.000000 1.574803 2.362205 0.000000 7.086615 1.574803 0.000000 0.000000 1.574803 0.000000 1.574803 3.937008 0.000000 0.000000 3.937008 0.000000 7.086615 3.937008 0.000000 5.511811 3.937008 1.181102 1.574803 3.937008 0.000000 1.574803 3.937008 1.181102 1.574803 2.362205 0.000000 1.574803 2.362205 1.181102 1.574803 3.937008 1.181102 1.574803 2.362205 1.181102 -0.000000 3.937008 1.181102 -0.000000 2.362205 1.181102 -0.000000 3.937008 1.181102 -0.000000 2.362205 0.000000 0.000000 3.937008 5.118110 0.000000 2.362205 0.000000 0.000000 1.574803 5.118110 0.000000 3.937008 6.299213 0.000000 3.937008 6.299213 0.000000 1.574803 5.118110 1.574803 2.362205 5.118110 1.574803 3.937008 5.118110 0.000000 2.362205 5.118110 0.000000 3.937008 5.118110 1.574803 3.937008 5.118110 1.574803 2.362205 6.299213 1.574803 3.937008 6.299213 1.574803 2.362205 6.299213 1.574803 3.937008 6.299213 0.000000 3.937008 5.118110 1.574803 3.937008 5.118110 0.000000 3.937008 5.884369 6.671771 1.135672 5.884369 6.299213 1.135672 6.299213 7.086615 1.574803 6.299213 6.299213 1.574803 5.884369 0.414843 1.135672 6.299213 0.000000 1.574803 1.181102 7.086615 3.937008 1.181102 5.511811 3.937008 0.000000 7.086615 3.937008 0.000000 5.511811 3.937008 6.299213 7.086615 1.574803 0.000000 7.086615 1.574803 5.884369 6.671771 1.135672 0.414843 6.671771 1.135672 1.181102 1.574803 3.937008 1.181102 -0.000000 3.937008 0.000000 1.574803 3.937008 0.000000 0.000000 3.937008 0.414843 6.671771 1.135672 0.000000 7.086615 1.574803 0.414843 0.414843 1.135672 0.000000 0.000000 1.574803 0.000000 0.000000 1.574803 6.299213 0.000000 1.574803 0.414843 0.414843 1.135672 5.884369 0.414843 1.135672 5.614210 6.401612 0.595353 5.614210 6.299213 0.595353 5.614210 0.685003 0.595353 5.614210 6.401612 0.595353 0.685003 6.401611 0.595353 0.685003 6.401611 0.595353 0.685003 0.685003 0.595353 0.685003 0.685003 0.595353 5.614210 0.685003 0.595353 5.511811 6.299213 0.000000 5.511811 0.787402 0.000000 5.511811 6.299213 0.000000 0.787402 6.299213 0.000000 0.787402 6.299213 0.000000 0.787402 0.787402 0.000000 0.787402 0.787402 0.000000 5.511811 0.787402 0.000000 5.511811 0.787402 0.000000 5.511811 6.299213 0.000000 0.787402 0.787402 0.000000 0.787402 6.299213 0.000000 "
									            />
								</IndexedFaceSet>
							</Shape>
						</Group>
					</Transform>
				</Transform>
			</Transform>
			<Transform DEF="group_2_TRANSFORM"
			           translation="15.380022 -3.543307 -0.000000"
			           scale="1.000000 1.000000 1.000000"
			           rotation="0.000000 1.000000 0.000000 0.000000"
			           >
				<Transform DEF="group_2_ifs_TRANSFORM"
				           translation="0.000002 -0.000000 -0.000000"
				           scale="1.000000 1.000000 1.000000"
				           rotation="0.000000 1.000000 0.000000 0.000000"
				           >
					<Group DEF="group_ME_ID42">
						<Shape>
							<Appearance>
								<Material USE="MA_material_001" />
							</Appearance>
							<IndexedFaceSet solid="false"
							                coordIndex="0 1 2 -1 1 0 3 -1 2 4 5 -1 4 2 1 -1 6 2 7 -1 2 6 0 -1 8 3 0 -1 3 8 9 -1 3 10 1 -1 10 3 11 -1 12 13 14 -1 13 12 15 -1 13 15 16 -1 13 16 17 -1 17 16 18 -1 18 16 19 -1 19 16 20 -1 20 16 21 -1 21 16 22 -1 22 16 23 -1 23 16 24 -1 25 2 5 -1 2 25 7 -1 4 10 26 -1 10 4 1 -1 27 6 7 -1 6 27 28 -1 29 0 6 -1 30 9 8 -1 9 11 3 -1 11 9 31 -1 8 0 29 -1 32 33 34 -1 35 36 37 -1 36 35 38 -1 39 40 41 -1 40 39 42 -1 43 40 44 -1 40 43 41 -1 45 44 46 -1 44 45 43 -1 47 48 49 -1 48 47 50 -1 50 51 48 -1 51 50 27 -1 27 25 51 -1 25 27 7 -1 33 52 53 -1 52 33 54 -1 55 52 54 -1 52 55 56 -1 57 56 55 -1 56 57 58 -1 29 6 28 -1 50 28 27 -1 28 50 59 -1 30 31 9 -1 30 8 29 -1 60 34 61 -1 54 33 32 -1 32 34 60 -1 62 38 35 -1 38 62 63 -1 42 64 40 -1 40 65 44 -1 44 65 46 -1 47 59 50 -1 59 47 66 -1 55 54 67 -1 57 55 68 -1 69 29 28 -1 29 69 70 -1 59 69 28 -1 69 59 71 -1 69 71 72 -1 73 31 30 -1 30 29 70 -1 60 61 74 -1 67 54 32 -1 75 32 60 -1 76 63 62 -1 63 76 77 -1 64 78 40 -1 40 78 65 -1 65 79 46 -1 66 71 59 -1 71 66 80 -1 68 55 67 -1 72 70 69 -1 72 30 70 -1 30 72 71 -1 81 73 30 -1 73 81 82 -1 74 61 83 -1 84 60 74 -1 67 32 75 -1 75 60 84 -1 85 77 76 -1 77 85 86 -1 64 87 78 -1 68 67 88 -1 78 89 65 -1 65 89 79 -1 30 71 80 -1 89 90 79 -1 81 30 91 -1 74 92 93 -1 92 74 83 -1 84 74 94 -1 88 67 75 -1 75 84 95 -1 88 75 95 -1 96 86 85 -1 86 96 97 -1 87 98 99 -1 87 99 78 -1 78 99 89 -1 100 30 80 -1 89 101 90 -1 91 30 100 -1 102 103 104 -1 103 102 105 -1 105 102 106 -1 94 74 93 -1 107 95 84 -1 86 108 109 -1 99 98 110 -1 99 101 89 -1 101 111 90 -1 101 112 111 -1 110 113 112 -1 110 98 114 -1 99 110 101 -1 110 112 101 -1 "
							                >
								<Coordinate DEF="coords_ME_ID42"
								            point="50.108746 4.151421 1.446154 44.066757 2.224895 1.767544 44.026264 3.866304 1.636232 50.256382 2.515034 1.574118 23.858267 2.224895 1.767544 23.858267 3.866304 1.636231 49.989334 5.511811 1.397926 43.986771 5.511811 1.574803 54.444366 4.693373 1.084852 54.784206 3.081013 1.196799 44.108166 0.590551 1.968504 50.407379 0.885827 1.771654 23.858267 0.006712 13.442975 23.858267 0.590551 1.968504 23.858267 -0.000000 5.458607 23.858267 0.590551 16.535433 23.858267 10.433070 16.535433 23.858267 2.224895 1.767544 23.858267 3.866304 1.636231 23.858267 5.511811 1.574803 23.858267 7.157318 1.636231 23.858267 8.798726 1.767544 23.858267 10.433070 1.968504 23.858267 11.023622 5.458607 23.858267 11.030334 13.442975 23.858267 5.511811 1.574803 23.858267 0.590551 1.968504 44.026264 7.157318 1.636231 50.108746 6.872201 1.446154 54.276608 5.511811 1.063323 56.702183 5.511811 0.650284 55.131790 1.476378 1.377953 50.407379 0.330709 4.912746 44.108166 0.590551 1.968504 50.407379 0.885827 1.771654 55.525494 0.590551 16.535433 23.858267 10.433070 16.535433 23.858267 0.590551 16.535433 55.525494 10.433070 16.535433 23.858267 10.433070 16.535433 55.525494 11.030334 13.442975 23.858267 11.030334 13.442975 55.525494 10.433070 16.535433 23.858267 11.023622 5.458607 44.108166 11.023622 5.458607 23.858267 10.433070 1.968504 44.108166 10.433070 1.968504 44.108166 10.433070 1.968504 23.858267 8.798726 1.767544 23.858267 10.433070 1.968504 44.066757 8.798726 1.767544 23.858267 7.157318 1.636231 23.858267 -0.000000 5.458607 23.858267 0.590551 1.968504 44.108166 0.000000 5.458607 55.525494 0.006712 13.442975 23.858267 0.006712 13.442975 55.525494 0.590551 16.535433 23.858267 0.590551 16.535433 50.256382 8.508588 1.574118 55.131790 0.992126 3.821025 55.131790 1.476378 1.377953 61.824703 0.906918 15.708661 61.824703 10.116704 15.708661 61.824703 10.116704 15.708661 50.407379 10.692913 4.912746 50.407379 10.137795 1.771654 61.824703 0.361043 12.925448 61.824703 0.906918 15.708661 54.268742 6.352202 1.099488 54.444366 6.330249 1.084852 54.784206 7.942609 1.196799 54.460205 6.405385 1.090069 58.281395 2.362205 0.787402 58.281395 1.984252 2.183443 66.549118 1.069704 11.890397 66.549118 1.539651 14.055118 66.549118 9.483971 14.055118 61.824703 10.676003 12.925448 50.407379 10.137795 1.771654 55.131790 9.547244 1.377953 59.856197 3.543307 0.000000 58.556450 2.568496 0.649874 58.281395 2.362205 0.787402 69.698715 2.132696 10.337820 69.698715 2.488751 11.574802 69.698715 8.534870 11.574802 66.549118 9.483971 14.055118 66.549118 1.539651 14.055118 55.131790 10.031496 3.821025 55.131790 9.547244 1.377953 59.856197 7.480315 0.000000 58.556450 2.568496 0.649874 59.856197 3.543307 0.000000 71.273521 3.550019 8.267716 69.698715 2.488751 11.574802 71.273521 3.550019 8.267716 71.273521 7.269404 8.267716 69.698715 8.534870 11.574802 66.549118 9.967341 11.890397 58.281395 8.661417 0.787402 58.281395 9.039370 2.183443 71.273521 7.487027 8.267716 59.856197 3.543307 0.000000 59.856197 7.480315 0.000000 71.273521 3.550019 8.267716 71.273521 7.269404 8.267716 71.273521 3.550019 8.267716 71.273521 7.269404 8.267716 71.273521 7.487027 8.267716 69.698715 8.904350 10.337820 58.281395 8.661417 0.787402 59.856197 7.480315 0.000000 71.273521 7.487027 8.267716 71.273521 7.487027 8.267716 "
								            />
							</IndexedFaceSet>
						</Shape>
					</Group>
				</Transform>
				<Transform DEF="group_1_001_TRANSFORM"
				           translation="59.856201 3.543307 0.000000"
				           scale="1.000000 1.000000 1.000000"
				           rotation="0.000000 1.000000 0.000000 0.000000"
				           >
					<Transform DEF="group_1_001_ifs_TRANSFORM"
					           translation="0.000008 0.000000 -0.000000"
					           scale="1.000000 1.000000 1.000000"
					           rotation="0.000000 1.000000 0.000000 0.000000"
					           >
						<Group DEF="group_ME_ID28">
							<Shape>
								<Appearance>
									<Material USE="MA_material_001" />
								</Appearance>
								<IndexedFaceSet solid="false"
								                coordIndex="0 1 2 -1 1 0 3 -1 4 5 6 -1 5 4 7 -1 7 4 8 -1 7 8 9 -1 7 9 10 -1 9 8 11 -1 9 11 12 -1 13 14 15 -1 16 17 18 -1 17 16 19 -1 19 16 20 -1 19 20 21 -1 21 20 14 -1 21 14 22 -1 22 14 23 -1 23 14 13 -1 24 17 19 -1 25 26 27 -1 26 25 28 -1 26 28 29 -1 29 28 30 -1 29 30 31 -1 30 28 32 -1 32 28 33 -1 34 35 36 -1 35 34 37 -1 38 39 40 -1 39 38 41 -1 41 42 39 -1 42 41 43 -1 43 41 44 -1 43 44 45 -1 45 44 46 -1 45 46 47 -1 45 48 49 -1 48 45 47 -1 50 51 52 -1 51 50 53 -1 54 55 56 -1 55 54 57 -1 58 59 60 -1 59 58 61 -1 62 63 64 -1 63 62 65 -1 66 67 68 -1 67 66 69 -1 70 71 72 -1 73 71 74 -1 71 73 72 -1 72 73 75 -1 75 73 76 -1 76 73 77 -1 77 73 78 -1 79 80 81 -1 80 79 82 -1 83 84 85 -1 84 83 86 -1 84 86 87 -1 87 86 88 -1 87 88 89 -1 87 89 90 -1 87 90 91 -1 92 93 94 -1 93 92 95 -1 96 97 98 -1 97 96 99 -1 100 101 102 -1 101 100 103 -1 104 105 106 -1 105 104 107 -1 108 109 110 -1 109 108 111 -1 112 113 114 -1 113 112 115 -1 116 117 118 -1 117 116 119 -1 120 121 122 -1 121 120 123 -1 124 125 126 -1 125 124 127 -1 128 129 130 -1 129 128 131 -1 "
								                >
									<Coordinate DEF="coords_ME_ID28"
									            point="12.204723 3.937008 5.905512 12.102325 0.000000 6.500865 12.204723 0.000000 5.905512 12.102325 3.937008 6.500865 12.992126 0.000000 5.905512 10.236220 0.000000 0.000000 12.992126 0.000000 0.000000 0.000000 0.000000 0.000000 12.204723 0.000000 5.905512 11.417322 0.000000 7.480315 11.417322 0.000000 8.267716 12.102325 0.000000 6.500865 11.832167 0.000000 7.041184 17.716536 0.000000 5.905512 16.929134 0.393701 5.905512 16.929134 0.000000 5.905512 12.992126 0.000000 5.905512 12.204723 3.937008 5.905512 12.204723 0.000000 5.905512 12.992126 3.543307 5.905511 12.992126 0.393701 5.905512 16.929134 3.543307 5.905511 16.929134 3.937008 5.905512 17.716536 3.937008 5.905512 12.992126 3.937008 5.905512 11.417322 3.937008 8.267716 10.236220 3.937008 0.000000 0.000000 3.937008 0.000000 11.417322 3.937008 7.480315 12.992126 3.937008 0.000000 12.204723 3.937008 5.905512 12.992126 3.937008 5.905512 12.102325 3.937008 6.500865 11.832167 3.937008 7.041184 12.102325 3.937008 6.500865 11.832167 0.000000 7.041184 12.102325 0.000000 6.500865 11.832167 3.937008 7.041184 12.992126 3.937008 0.000000 10.236220 0.000000 0.000000 10.236220 3.937008 0.000000 12.992126 3.543307 0.000000 12.992126 0.000000 0.000000 12.992126 0.393701 0.000000 16.929134 3.543307 0.000000 16.929134 0.393701 0.000000 16.929134 3.937008 0.000000 33.858269 3.937008 0.000000 33.858269 0.000000 0.000000 16.929134 0.000000 0.000000 12.992126 0.393701 0.000000 12.992126 0.000000 5.905512 12.992126 0.000000 0.000000 12.992126 0.393701 5.905512 11.832167 3.937008 7.041184 11.417322 0.000000 7.480315 11.832167 0.000000 7.041184 11.417322 3.937008 7.480315 11.417322 3.937008 7.480315 11.417322 0.000000 8.267716 11.417322 0.000000 7.480315 11.417322 3.937008 8.267716 11.417322 0.000000 8.267716 0.000000 3.937008 0.000000 0.000000 0.000000 0.000000 11.417322 3.937008 8.267716 10.236220 3.937008 0.000000 0.000000 0.000000 0.000000 0.000000 3.937008 0.000000 10.236220 0.000000 0.000000 16.929134 0.000000 5.905512 16.929134 0.000000 0.000000 17.716536 0.000000 5.905512 33.858269 0.000000 8.267716 33.858269 0.000000 0.000000 17.818935 0.000000 6.500865 18.089094 0.000000 7.041184 18.503937 0.000000 7.480315 18.503937 0.000000 8.267716 17.818935 3.937008 6.500865 17.716536 0.000000 5.905512 17.818935 0.000000 6.500865 17.716536 3.937008 5.905512 16.929134 3.937008 5.905512 33.858269 3.937008 0.000000 16.929134 3.937008 0.000000 17.716536 3.937008 5.905512 33.858269 3.937008 8.267716 17.818935 3.937008 6.500865 18.089094 3.937008 7.041184 18.503937 3.937008 7.480315 18.503937 3.937008 8.267716 16.929134 3.937008 5.905512 16.929134 3.543307 0.000000 16.929134 3.543307 5.905511 16.929134 3.937008 0.000000 12.992126 3.543307 5.905511 16.929134 3.543307 0.000000 12.992126 3.543307 0.000000 16.929134 3.543307 5.905511 12.992126 3.937008 0.000000 12.992126 3.543307 5.905511 12.992126 3.543307 0.000000 12.992126 3.937008 5.905512 16.929134 0.393701 5.905512 12.992126 0.393701 0.000000 16.929134 0.393701 0.000000 12.992126 0.393701 5.905512 16.929134 0.393701 5.905512 16.929134 0.000000 0.000000 16.929134 0.000000 5.905512 16.929134 0.393701 0.000000 33.858269 3.937008 0.000000 33.858269 0.000000 8.267716 33.858269 0.000000 0.000000 33.858269 3.937008 8.267716 33.858269 0.000000 8.267716 18.503937 3.937008 8.267716 18.503937 0.000000 8.267716 33.858269 3.937008 8.267716 18.503937 3.937008 8.267716 18.503937 0.000000 7.480315 18.503937 0.000000 8.267716 18.503937 3.937008 7.480315 18.503937 3.937008 7.480315 18.089094 0.000000 7.041184 18.503937 0.000000 7.480315 18.089094 3.937008 7.041184 18.089094 3.937008 7.041184 17.818935 0.000000 6.500865 18.089094 0.000000 7.041184 17.818935 3.937008 6.500865 "
									            />
								</IndexedFaceSet>
							</Shape>
						</Group>
					</Transform>
				</Transform>
				<Transform DEF="instance_0_001_TRANSFORM"
				           translation="71.273521 8.661417 5.905512"
				           scale="1.000000 1.000000 1.000000"
				           rotation="0.000000 0.000000 -1.000000 1.570796"
				           >
					<Transform DEF="instance_0_001_ifs_TRANSFORM"
					           translation="-0.000001 0.000008 0.000000"
					           scale="1.000000 1.000000 1.000000"
					           rotation="0.000000 0.000000 0.000000 0.000000"
					           >
						<Group DEF="group_ME_ID36">
							<Shape>
								<Appearance>
								</Appearance>
								<IndexedFaceSet solid="false"
								                coordIndex="0 1 2 -1 1 0 3 -1 4 5 6 -1 5 4 7 -1 8 9 10 -1 9 8 11 -1 12 13 14 -1 13 12 15 -1 15 12 16 -1 16 12 17 -1 17 12 10 -1 17 10 9 -1 13 18 19 -1 18 13 15 -1 20 21 22 -1 21 20 23 -1 23 20 24 -1 24 20 25 -1 25 20 26 -1 22 27 28 -1 27 22 21 -1 29 30 31 -1 30 29 32 -1 33 34 35 -1 34 33 36 -1 34 36 37 -1 35 38 39 -1 38 35 34 -1 39 38 40 -1 41 42 43 -1 42 41 44 -1 45 46 47 -1 46 45 48 -1 49 50 51 -1 50 49 52 -1 53 54 55 -1 54 53 56 -1 54 56 52 -1 52 56 50 -1 57 58 59 -1 58 57 60 -1 61 62 63 -1 62 61 64 -1 65 66 67 -1 66 65 68 -1 66 68 69 -1 67 70 71 -1 70 67 66 -1 71 70 72 -1 73 74 75 -1 74 73 76 -1 77 78 79 -1 78 77 80 -1 81 82 83 -1 82 81 84 -1 85 86 87 -1 86 85 88 -1 86 88 89 -1 89 88 90 -1 91 92 93 -1 92 91 94 -1 95 96 97 -1 96 95 98 -1 99 100 101 -1 100 99 102 -1 103 104 105 -1 104 103 106 -1 107 108 109 -1 108 107 110 -1 111 88 85 -1 88 111 112 -1 88 112 113 -1 88 113 90 -1 97 114 115 -1 114 97 96 -1 106 116 104 -1 116 106 117 -1 109 118 119 -1 118 109 108 -1 120 112 111 -1 112 120 121 -1 112 121 113 -1 115 122 123 -1 122 115 114 -1 117 124 116 -1 124 117 125 -1 119 126 127 -1 126 119 118 -1 128 129 130 -1 129 128 131 -1 "
								                >
									<Coordinate DEF="coords_ME_ID36"
									            point="6.299213 5.511811 3.937008 5.118110 5.511811 2.362205 6.299213 5.511811 2.362205 5.118110 5.511811 3.937008 5.118110 7.086615 3.937008 5.118110 5.511811 2.362205 5.118110 5.511811 3.937008 5.118110 7.086615 2.362205 6.299213 1.574803 2.362205 5.118110 5.511811 2.362205 5.118110 1.574803 2.362205 6.299213 5.511811 2.362205 5.118110 0.000000 2.362205 1.181102 1.574803 2.362205 1.181102 -0.000000 2.362205 1.181102 5.511811 2.362205 1.181102 7.086615 2.362205 5.118110 7.086615 2.362205 0.000000 5.511811 2.362205 0.000000 1.574803 2.362205 6.299213 6.299213 1.574803 6.299213 1.574803 2.362205 6.299213 0.000000 1.574803 6.299213 5.511811 2.362205 6.299213 5.511811 3.937008 6.299213 7.086615 3.937008 6.299213 7.086615 1.574803 6.299213 1.574803 3.937008 6.299213 0.000000 3.937008 6.299213 5.511811 3.937008 5.118110 7.086615 3.937008 5.118110 5.511811 3.937008 6.299213 7.086615 3.937008 0.000000 7.086615 1.574803 1.181102 7.086615 2.362205 6.299213 7.086615 1.574803 0.000000 7.086615 3.937008 1.181102 7.086615 3.937008 5.118110 7.086615 2.362205 6.299213 7.086615 3.937008 5.118110 7.086615 3.937008 1.181102 7.086615 2.362205 1.181102 5.511811 3.937008 1.181102 5.511811 2.362205 1.181102 7.086615 3.937008 1.181102 5.511811 2.362205 0.000000 5.511811 3.937008 0.000000 5.511811 2.362205 1.181102 5.511811 3.937008 0.000000 7.086615 3.937008 0.000000 5.511811 2.362205 0.000000 5.511811 3.937008 0.000000 7.086615 1.574803 0.000000 1.574803 3.937008 0.000000 0.000000 1.574803 0.000000 0.000000 3.937008 0.000000 1.574803 2.362205 0.000000 1.574803 3.937008 1.181102 1.574803 2.362205 0.000000 1.574803 2.362205 1.181102 1.574803 3.937008 1.181102 1.574803 2.362205 1.181102 -0.000000 3.937008 1.181102 -0.000000 2.362205 1.181102 1.574803 3.937008 6.299213 0.000000 1.574803 5.118110 0.000000 2.362205 0.000000 0.000000 1.574803 6.299213 0.000000 3.937008 5.118110 0.000000 3.937008 1.181102 -0.000000 2.362205 0.000000 0.000000 3.937008 1.181102 -0.000000 3.937008 5.118110 1.574803 3.937008 5.118110 0.000000 2.362205 5.118110 0.000000 3.937008 5.118110 1.574803 2.362205 5.118110 1.574803 2.362205 6.299213 1.574803 3.937008 6.299213 1.574803 2.362205 5.118110 1.574803 3.937008 6.299213 0.000000 3.937008 5.118110 1.574803 3.937008 5.118110 0.000000 3.937008 6.299213 1.574803 3.937008 5.884369 0.414843 1.135672 6.299213 6.299213 1.574803 6.299213 0.000000 1.574803 5.884369 6.299213 1.135672 6.299213 7.086615 1.574803 5.884369 6.671771 1.135672 1.181102 5.511811 3.937008 0.000000 7.086615 3.937008 0.000000 5.511811 3.937008 1.181102 7.086615 3.937008 0.000000 7.086615 1.574803 5.884369 6.671771 1.135672 0.414843 6.671771 1.135672 6.299213 7.086615 1.574803 1.181102 -0.000000 3.937008 0.000000 1.574803 3.937008 0.000000 0.000000 3.937008 1.181102 1.574803 3.937008 0.000000 7.086615 1.574803 0.414843 0.414843 1.135672 0.000000 0.000000 1.574803 0.414843 6.671771 1.135672 6.299213 0.000000 1.574803 0.414843 0.414843 1.135672 5.884369 0.414843 1.135672 0.000000 0.000000 1.574803 5.614210 0.685003 0.595353 5.614210 6.299213 0.595353 5.614210 6.401612 0.595353 5.614210 6.401612 0.595353 0.685003 6.401611 0.595353 0.685003 0.685003 0.595353 0.685003 6.401611 0.595353 0.685003 0.685003 0.595353 5.614210 0.685003 0.595353 5.511811 0.787402 0.000000 5.511811 6.299213 0.000000 5.511811 6.299213 0.000000 0.787402 6.299213 0.000000 0.787402 0.787402 0.000000 0.787402 6.299213 0.000000 0.787402 0.787402 0.000000 5.511811 0.787402 0.000000 5.511811 6.299213 0.000000 0.787402 0.787402 0.000000 0.787402 6.299213 0.000000 5.511811 0.787402 0.000000 "
									            />
								</IndexedFaceSet>
							</Shape>
						</Group>
					</Transform>
				</Transform>
			</Transform>
			<Transform DEF="group_3_TRANSFORM"
			           translation="-163.806885 -3.543307 -0.000000"
			           scale="1.000000 1.000000 1.000000"
			           rotation="0.000000 1.000000 0.000000 0.000000"
			           >
				<Transform DEF="group_3_ifs_TRANSFORM"
				           translation="0.000000 -0.000000 -0.000000"
				           scale="1.000000 1.000000 1.000000"
				           rotation="0.000000 1.000000 0.000000 0.000000"
				           >
					<Group DEF="group_ME_ID65">
						<Shape>
							<Appearance>
								<Material USE="MA_material_001" />
							</Appearance>
							<IndexedFaceSet solid="false"
							                coordIndex="0 1 2 -1 1 0 3 -1 1 4 5 -1 4 1 3 -1 2 6 7 -1 6 2 1 -1 8 2 9 -1 2 8 0 -1 0 10 3 -1 10 0 11 -1 5 12 13 -1 12 5 4 -1 6 5 14 -1 5 6 1 -1 10 4 3 -1 4 10 15 -1 6 16 7 -1 9 7 17 -1 7 9 2 -1 18 9 19 -1 9 18 8 -1 8 11 0 -1 11 8 20 -1 21 10 11 -1 13 22 23 -1 22 13 12 -1 14 13 24 -1 13 14 5 -1 15 12 4 -1 12 15 25 -1 6 14 16 -1 21 15 10 -1 26 16 27 -1 16 26 7 -1 17 28 29 -1 28 17 26 -1 26 17 7 -1 19 17 30 -1 17 19 9 -1 31 32 33 -1 32 31 34 -1 18 20 8 -1 20 18 35 -1 20 36 11 -1 36 20 37 -1 36 37 38 -1 36 21 11 -1 21 36 39 -1 40 41 42 -1 41 40 43 -1 24 23 44 -1 23 24 13 -1 25 22 12 -1 22 25 45 -1 46 24 47 -1 24 46 14 -1 48 25 15 -1 25 48 49 -1 14 46 16 -1 48 15 21 -1 16 50 27 -1 26 27 28 -1 29 27 50 -1 27 29 28 -1 30 29 51 -1 29 30 17 -1 52 33 53 -1 31 33 52 -1 54 34 31 -1 34 54 55 -1 34 56 32 -1 35 37 20 -1 37 35 57 -1 56 58 32 -1 38 59 39 -1 59 38 37 -1 38 39 36 -1 59 21 39 -1 60 43 40 -1 43 60 61 -1 43 62 41 -1 40 42 63 -1 62 64 41 -1 47 44 65 -1 44 47 24 -1 49 45 25 -1 45 49 66 -1 63 42 67 -1 46 47 50 -1 59 49 48 -1 16 46 50 -1 59 48 21 -1 29 50 51 -1 68 53 69 -1 52 53 68 -1 54 31 52 -1 70 55 54 -1 55 70 71 -1 55 56 34 -1 59 37 57 -1 72 73 58 -1 56 72 58 -1 74 61 60 -1 61 74 75 -1 61 76 43 -1 60 40 77 -1 76 62 43 -1 77 40 63 -1 62 78 64 -1 78 79 64 -1 47 65 50 -1 59 66 49 -1 80 67 81 -1 63 67 80 -1 51 50 82 -1 68 69 83 -1 84 52 68 -1 54 52 84 -1 70 54 85 -1 86 87 88 -1 87 86 89 -1 71 90 55 -1 55 91 56 -1 92 59 57 -1 72 93 73 -1 91 72 56 -1 75 94 61 -1 74 60 95 -1 94 76 61 -1 95 60 77 -1 76 96 62 -1 77 63 97 -1 96 78 62 -1 78 98 79 -1 65 99 50 -1 100 66 59 -1 80 81 101 -1 97 63 80 -1 50 102 82 -1 83 69 103 -1 104 68 83 -1 84 68 104 -1 85 54 84 -1 88 105 106 -1 105 88 87 -1 107 89 86 -1 89 107 108 -1 90 91 55 -1 93 109 73 -1 110 59 92 -1 111 93 72 -1 91 111 72 -1 94 112 76 -1 95 77 113 -1 112 96 76 -1 113 77 97 -1 96 114 78 -1 98 115 79 -1 114 98 78 -1 50 116 117 -1 116 50 99 -1 118 100 59 -1 100 118 119 -1 101 81 120 -1 121 80 101 -1 97 80 121 -1 50 117 102 -1 83 103 122 -1 104 83 123 -1 124 84 104 -1 85 84 124 -1 106 125 126 -1 125 106 105 -1 127 108 107 -1 108 127 128 -1 90 129 91 -1 93 130 109 -1 118 59 110 -1 111 131 93 -1 129 111 91 -1 112 132 96 -1 113 97 133 -1 96 132 114 -1 134 98 135 -1 98 134 115 -1 114 136 98 -1 101 137 138 -1 137 101 120 -1 121 101 139 -1 97 121 133 -1 140 141 142 -1 141 140 143 -1 143 140 144 -1 123 83 122 -1 104 123 145 -1 124 104 145 -1 126 146 147 -1 146 126 125 -1 148 128 127 -1 128 148 149 -1 131 130 93 -1 150 151 152 -1 151 150 153 -1 153 150 154 -1 111 155 131 -1 129 155 111 -1 156 114 132 -1 136 135 98 -1 139 101 138 -1 157 133 121 -1 146 158 147 -1 158 146 159 -1 146 160 161 -1 123 122 162 -1 123 163 145 -1 164 149 148 -1 149 164 165 -1 131 166 130 -1 149 167 168 -1 131 155 169 -1 "
							                >
								<Coordinate DEF="coords_ME_ID65"
								            point="90.024200 7.157318 1.636231 49.727695 5.511811 1.574803 49.688202 7.157318 1.636231 89.984703 5.511811 1.574803 90.024200 3.866304 1.636232 49.688202 3.866304 1.636232 43.725132 5.511811 1.397926 43.605721 6.872201 1.446154 90.064682 8.798726 1.767544 49.647713 8.798726 1.767544 95.987267 5.511811 1.397926 96.106674 6.872201 1.446154 90.064682 2.224895 1.767544 49.647713 2.224895 1.767544 43.605721 4.151421 1.446154 96.106674 4.151421 1.446154 39.437859 5.511811 1.063323 43.458084 8.508588 1.574118 90.106094 10.433070 1.968504 49.606297 10.433070 1.968504 96.254318 8.508588 1.574118 100.274536 5.511811 1.063323 90.106094 0.590551 1.968504 49.606297 0.590551 1.968504 43.458084 2.515034 1.574118 96.254318 2.515034 1.574118 39.445728 6.352202 1.099488 39.270096 6.330249 1.084852 39.254261 6.405385 1.090069 38.930256 7.942609 1.196799 43.307087 10.137795 1.771654 49.606297 11.023622 5.458607 90.106094 10.433070 1.968504 49.606297 10.433070 1.968504 90.106094 11.023622 5.458607 96.405304 10.137795 1.771654 100.266670 6.352202 1.099488 100.782143 7.942609 1.196799 100.458138 6.405385 1.090069 100.442299 6.330249 1.084852 90.106094 0.000000 5.458607 49.606297 0.590551 1.968504 90.106094 0.590551 1.968504 49.606297 0.000000 5.458607 43.307087 0.885827 1.771654 96.405304 0.885827 1.771654 39.270096 4.693373 1.084852 38.930256 3.081013 1.196799 100.442299 4.693373 1.084852 100.782143 3.081013 1.196799 37.012283 5.511811 0.650284 38.582676 9.547244 1.377953 43.307087 10.692913 4.912746 43.307087 10.137795 1.771654 38.188976 11.030334 13.442975 101.523422 11.030334 13.442975 96.405304 10.692913 4.912746 101.129723 9.547244 1.377953 96.405304 10.137795 1.771654 102.700119 5.511811 0.650284 101.523422 0.006712 13.442975 38.188976 0.006712 13.442975 43.307087 0.330709 4.912746 96.405304 0.330709 4.912746 43.307087 0.885827 1.771654 38.582676 1.476378 1.377953 101.129723 1.476378 1.377953 96.405304 0.885827 1.771654 38.582676 10.031496 3.821025 38.582676 9.547244 1.377953 38.188976 10.433070 16.535433 101.523422 10.433070 16.535433 101.129723 10.031496 3.821025 101.129723 9.547244 1.377953 101.523422 0.590551 16.535433 38.188976 0.590551 16.535433 31.889765 0.361043 12.925448 107.822632 0.361043 12.925448 38.582676 0.992126 3.821025 38.582676 1.476378 1.377953 101.129723 0.992126 3.821025 101.129723 1.476378 1.377953 35.433071 8.661417 0.787402 35.433071 9.039370 2.183443 31.889765 10.676003 12.925448 31.889765 10.116704 15.708661 101.523422 0.590551 16.535433 38.188976 10.433070 16.535433 38.188976 0.590551 16.535433 101.523422 10.433070 16.535433 107.822632 10.116704 15.708661 107.822632 10.676003 12.925448 104.279327 8.661417 0.787402 104.279327 9.039370 2.183443 31.889765 0.906918 15.708661 107.822632 0.906918 15.708661 27.165354 1.069704 11.890397 112.547043 1.069704 11.890397 35.433071 1.984252 2.183443 35.433071 2.362205 0.787402 104.279327 2.362205 0.787402 104.279327 1.984252 2.183443 33.858269 7.480315 0.000000 35.433071 8.661417 0.787402 27.165354 9.967341 11.890397 31.889765 10.116704 15.708661 31.889765 0.906918 15.708661 107.822632 0.906918 15.708661 107.822632 10.116704 15.708661 104.279327 8.661417 0.787402 105.854134 7.480315 0.000000 112.547043 9.967341 11.890397 27.165354 1.539651 14.055118 112.547043 1.539651 14.055118 24.015747 2.132696 10.337820 35.433071 2.362205 0.787402 35.158016 2.568496 0.649874 33.858269 3.543307 0.000000 105.854134 3.543307 0.000000 104.554382 2.568496 0.649874 104.279327 2.362205 0.787402 115.696648 2.132696 10.337820 33.858269 7.480315 0.000000 24.015747 8.904350 10.337820 27.165354 9.483971 14.055118 27.165354 9.483971 14.055118 27.165354 1.539651 14.055118 112.547043 1.539651 14.055118 112.547043 9.483971 14.055118 112.547043 9.483971 14.055118 105.854134 7.480315 0.000000 115.696648 8.904350 10.337820 24.015747 2.488751 11.574802 115.696648 2.488751 11.574802 35.158016 2.568496 0.649874 33.858269 3.543307 0.000000 22.440945 3.550019 8.267716 104.554382 2.568496 0.649874 105.854134 3.543307 0.000000 117.271454 3.550019 8.267716 33.858269 7.480315 0.000000 22.440945 7.269404 8.267716 22.440945 7.487027 8.267716 22.440945 3.550019 8.267716 33.858269 3.543307 0.000000 24.015747 8.534870 11.574802 24.015747 8.534870 11.574802 24.015747 2.488751 11.574802 115.696648 2.488751 11.574802 115.696648 8.534870 11.574802 117.271454 7.487027 8.267716 105.854134 3.543307 0.000000 105.854134 7.480315 0.000000 117.271454 3.550019 8.267716 117.271454 7.269404 8.267716 115.696648 8.534870 11.574802 22.440945 3.550019 8.267716 117.271454 3.550019 8.267716 22.440945 3.550019 8.267716 22.440945 7.269404 8.267716 22.440945 7.487027 8.267716 22.440945 7.269404 8.267716 22.440945 7.487027 8.267716 22.440945 7.487027 8.267716 117.271454 3.550019 8.267716 117.271454 7.269404 8.267716 117.271454 7.487027 8.267716 117.271454 7.269404 8.267716 117.271454 7.487027 8.267716 117.271454 7.487027 8.267716 "
								            />
							</IndexedFaceSet>
						</Shape>
					</Group>
				</Transform>
				<Transform DEF="group_4_TRANSFORM"
				           translation="105.854126 3.543307 0.000000"
				           scale="1.000000 1.000000 1.000000"
				           rotation="0.000000 1.000000 0.000000 0.000000"
				           >
					<Transform DEF="group_4_ifs_TRANSFORM"
					           translation="-0.000008 0.000000 -0.000000"
					           scale="1.000000 1.000000 1.000000"
					           rotation="0.000000 1.000000 0.000000 0.000000"
					           >
						<Group DEF="group_ME_ID50">
							<Shape>
								<Appearance>
									<Material USE="MA_material_001" />
								</Appearance>
								<IndexedFaceSet solid="false"
								                coordIndex="0 1 2 -1 1 0 3 -1 4 5 6 -1 5 4 7 -1 7 4 8 -1 7 8 9 -1 7 9 10 -1 9 8 11 -1 9 11 12 -1 13 14 15 -1 16 17 18 -1 17 16 19 -1 19 16 20 -1 19 20 21 -1 21 20 14 -1 21 14 22 -1 22 14 23 -1 23 14 13 -1 24 17 19 -1 25 26 27 -1 26 25 28 -1 26 28 29 -1 29 28 30 -1 29 30 31 -1 30 28 32 -1 32 28 33 -1 34 35 36 -1 35 34 37 -1 38 39 40 -1 39 38 41 -1 41 42 39 -1 42 41 43 -1 43 41 44 -1 43 44 45 -1 45 44 46 -1 45 46 47 -1 45 48 49 -1 48 45 47 -1 50 51 52 -1 51 50 53 -1 54 55 56 -1 55 54 57 -1 58 59 60 -1 59 58 61 -1 62 63 64 -1 63 62 65 -1 66 67 68 -1 67 66 69 -1 70 71 72 -1 73 71 74 -1 71 73 72 -1 72 73 75 -1 75 73 76 -1 76 73 77 -1 77 73 78 -1 79 80 81 -1 80 79 82 -1 83 84 85 -1 84 83 86 -1 84 86 87 -1 87 86 88 -1 87 88 89 -1 87 89 90 -1 87 90 91 -1 92 93 94 -1 93 92 95 -1 96 97 98 -1 97 96 99 -1 100 101 102 -1 101 100 103 -1 104 105 106 -1 105 104 107 -1 108 109 110 -1 109 108 111 -1 112 113 114 -1 113 112 115 -1 116 117 118 -1 117 116 119 -1 120 121 122 -1 121 120 123 -1 124 125 126 -1 125 124 127 -1 128 129 130 -1 129 128 131 -1 "
								                >
									<Coordinate DEF="coords_ME_ID50"
									            point="12.204723 3.937008 5.905512 12.102325 0.000000 6.500865 12.204723 0.000000 5.905512 12.102325 3.937008 6.500865 12.992126 0.000000 5.905512 10.236220 0.000000 0.000000 12.992126 0.000000 0.000000 0.000000 0.000000 0.000000 12.204723 0.000000 5.905512 11.417322 0.000000 7.480315 11.417322 0.000000 8.267716 12.102325 0.000000 6.500865 11.832167 0.000000 7.041184 17.716536 0.000000 5.905512 16.929134 0.393701 5.905512 16.929134 0.000000 5.905512 12.992126 0.000000 5.905512 12.204723 3.937008 5.905512 12.204723 0.000000 5.905512 12.992126 3.543307 5.905511 12.992126 0.393701 5.905512 16.929134 3.543307 5.905511 16.929134 3.937008 5.905512 17.716536 3.937008 5.905512 12.992126 3.937008 5.905512 11.417322 3.937008 8.267716 10.236220 3.937008 0.000000 0.000000 3.937008 0.000000 11.417322 3.937008 7.480315 12.992126 3.937008 0.000000 12.204723 3.937008 5.905512 12.992126 3.937008 5.905512 12.102325 3.937008 6.500865 11.832167 3.937008 7.041184 12.102325 3.937008 6.500865 11.832167 0.000000 7.041184 12.102325 0.000000 6.500865 11.832167 3.937008 7.041184 12.992126 3.937008 0.000000 10.236220 0.000000 0.000000 10.236220 3.937008 0.000000 12.992126 3.543307 0.000000 12.992126 0.000000 0.000000 12.992126 0.393701 0.000000 16.929134 3.543307 0.000000 16.929134 0.393701 0.000000 16.929134 3.937008 0.000000 33.858269 3.937008 0.000000 33.858269 0.000000 0.000000 16.929134 0.000000 0.000000 12.992126 0.393701 0.000000 12.992126 0.000000 5.905512 12.992126 0.000000 0.000000 12.992126 0.393701 5.905512 11.832167 3.937008 7.041184 11.417322 0.000000 7.480315 11.832167 0.000000 7.041184 11.417322 3.937008 7.480315 11.417322 3.937008 7.480315 11.417322 0.000000 8.267716 11.417322 0.000000 7.480315 11.417322 3.937008 8.267716 11.417322 0.000000 8.267716 0.000000 3.937008 0.000000 0.000000 0.000000 0.000000 11.417322 3.937008 8.267716 10.236220 3.937008 0.000000 0.000000 0.000000 0.000000 0.000000 3.937008 0.000000 10.236220 0.000000 0.000000 16.929134 0.000000 5.905512 16.929134 0.000000 0.000000 17.716536 0.000000 5.905512 33.858269 0.000000 8.267716 33.858269 0.000000 0.000000 17.818935 0.000000 6.500865 18.089094 0.000000 7.041184 18.503937 0.000000 7.480315 18.503937 0.000000 8.267716 17.818935 3.937008 6.500865 17.716536 0.000000 5.905512 17.818935 0.000000 6.500865 17.716536 3.937008 5.905512 16.929134 3.937008 5.905512 33.858269 3.937008 0.000000 16.929134 3.937008 0.000000 17.716536 3.937008 5.905512 33.858269 3.937008 8.267716 17.818935 3.937008 6.500865 18.089094 3.937008 7.041184 18.503937 3.937008 7.480315 18.503937 3.937008 8.267716 16.929134 3.937008 5.905512 16.929134 3.543307 0.000000 16.929134 3.543307 5.905511 16.929134 3.937008 0.000000 12.992126 3.543307 5.905511 16.929134 3.543307 0.000000 12.992126 3.543307 0.000000 16.929134 3.543307 5.905511 12.992126 3.937008 0.000000 12.992126 3.543307 5.905511 12.992126 3.543307 0.000000 12.992126 3.937008 5.905512 16.929134 0.393701 5.905512 12.992126 0.393701 0.000000 16.929134 0.393701 0.000000 12.992126 0.393701 5.905512 16.929134 0.393701 5.905512 16.929134 0.000000 0.000000 16.929134 0.000000 5.905512 16.929134 0.393701 0.000000 33.858269 3.937008 0.000000 33.858269 0.000000 8.267716 33.858269 0.000000 0.000000 33.858269 3.937008 8.267716 33.858269 0.000000 8.267716 18.503937 3.937008 8.267716 18.503937 0.000000 8.267716 33.858269 3.937008 8.267716 18.503937 3.937008 8.267716 18.503937 0.000000 7.480315 18.503937 0.000000 8.267716 18.503937 3.937008 7.480315 18.503937 3.937008 7.480315 18.089094 0.000000 7.041184 18.503937 0.000000 7.480315 18.089094 3.937008 7.041184 18.089094 3.937008 7.041184 17.818935 0.000000 6.500865 18.089094 0.000000 7.041184 17.818935 3.937008 6.500865 "
									            />
								</IndexedFaceSet>
							</Shape>
						</Group>
					</Transform>
				</Transform>
				<Transform DEF="group_5_TRANSFORM"
				           translation="33.858261 3.543307 0.000000"
				           scale="-1.000000 -1.000000 -1.000000"
				           rotation="-1.000000 0.000000 0.000000 3.141593"
				           >
					<Transform DEF="group_5_ifs_TRANSFORM"
					           translation="0.000015 0.000000 -0.000000"
					           scale="1.000000 1.000000 1.000000"
					           rotation="0.000000 0.000000 0.000000 0.000000"
					           >
						<Group DEF="group_ME_ID57">
							<Shape>
								<Appearance>
									<Material USE="MA_material_001" />
								</Appearance>
								<IndexedFaceSet solid="false"
								                coordIndex="0 1 2 -1 3 2 1 -1 4 5 6 -1 5 7 6 -1 8 6 9 -1 6 7 9 -1 7 10 9 -1 9 10 11 -1 12 11 10 -1 13 14 15 -1 16 17 18 -1 18 17 19 -1 19 17 20 -1 17 21 20 -1 20 21 13 -1 21 22 13 -1 13 22 14 -1 23 14 22 -1 24 17 16 -1 25 26 27 -1 27 26 28 -1 29 28 30 -1 28 26 30 -1 30 26 31 -1 26 32 31 -1 33 31 32 -1 34 35 36 -1 37 36 35 -1 38 39 40 -1 41 40 39 -1 38 42 39 -1 42 43 39 -1 39 43 44 -1 43 45 44 -1 44 45 46 -1 47 46 45 -1 45 48 47 -1 49 47 48 -1 50 51 52 -1 53 52 51 -1 54 55 56 -1 57 56 55 -1 58 59 60 -1 61 60 59 -1 62 63 64 -1 65 64 63 -1 66 67 68 -1 69 68 67 -1 70 71 72 -1 72 71 73 -1 73 71 74 -1 74 71 75 -1 75 71 76 -1 77 76 71 -1 75 76 78 -1 79 80 81 -1 82 81 80 -1 83 84 85 -1 84 86 85 -1 86 87 85 -1 87 88 85 -1 85 88 89 -1 88 90 89 -1 91 89 90 -1 92 93 94 -1 95 94 93 -1 96 97 98 -1 99 98 97 -1 100 101 102 -1 103 102 101 -1 104 105 106 -1 107 106 105 -1 108 109 110 -1 111 110 109 -1 112 113 114 -1 115 114 113 -1 116 117 118 -1 119 118 117 -1 120 121 122 -1 123 122 121 -1 124 125 126 -1 127 126 125 -1 128 129 130 -1 131 130 129 -1 "
								                >
									<Coordinate DEF="coords_ME_ID57"
									            point="12.102325 3.937008 6.500865 12.204723 3.937008 5.905512 12.102325 0.000000 6.500865 12.204723 0.000000 5.905512 11.832167 0.000000 7.041184 12.102325 0.000000 6.500865 11.417322 0.000000 7.480315 12.204723 0.000000 5.905512 11.417322 0.000000 8.267716 0.000000 0.000000 0.000000 12.992126 0.000000 5.905512 10.236220 0.000000 0.000000 12.992126 0.000000 0.000000 12.992126 3.543307 5.905511 12.204723 3.937008 5.905512 12.992126 3.937008 5.905512 17.716536 0.000000 5.905512 16.929134 0.393701 5.905512 17.716536 3.937008 5.905512 16.929134 3.937008 5.905512 16.929134 3.543307 5.905511 12.992126 0.393701 5.905512 12.992126 0.000000 5.905512 12.204723 0.000000 5.905512 16.929134 0.000000 5.905512 11.832167 3.937008 7.041184 11.417322 3.937008 7.480315 12.102325 3.937008 6.500865 12.204723 3.937008 5.905512 12.992126 3.937008 5.905512 12.992126 3.937008 0.000000 10.236220 3.937008 0.000000 11.417322 3.937008 8.267716 0.000000 3.937008 0.000000 11.832167 3.937008 7.041184 12.102325 3.937008 6.500865 11.832167 0.000000 7.041184 12.102325 0.000000 6.500865 33.858269 3.937008 0.000000 16.929134 0.393701 0.000000 33.858269 0.000000 0.000000 16.929134 0.000000 0.000000 16.929134 3.937008 0.000000 16.929134 3.543307 0.000000 12.992126 0.393701 0.000000 12.992126 3.543307 0.000000 12.992126 0.000000 0.000000 10.236220 0.000000 0.000000 12.992126 3.937008 0.000000 10.236220 3.937008 0.000000 12.992126 0.393701 5.905512 12.992126 0.393701 0.000000 12.992126 0.000000 5.905512 12.992126 0.000000 0.000000 11.417322 3.937008 7.480315 11.832167 3.937008 7.041184 11.417322 0.000000 7.480315 11.832167 0.000000 7.041184 11.417322 3.937008 8.267716 11.417322 3.937008 7.480315 11.417322 0.000000 8.267716 11.417322 0.000000 7.480315 11.417322 3.937008 8.267716 11.417322 0.000000 8.267716 0.000000 3.937008 0.000000 0.000000 0.000000 0.000000 10.236220 0.000000 0.000000 10.236220 3.937008 0.000000 0.000000 0.000000 0.000000 0.000000 3.937008 0.000000 18.503937 0.000000 8.267716 33.858269 0.000000 8.267716 18.503937 0.000000 7.480315 18.089094 0.000000 7.041184 17.818935 0.000000 6.500865 17.716536 0.000000 5.905512 16.929134 0.000000 0.000000 33.858269 0.000000 0.000000 16.929134 0.000000 5.905512 17.716536 3.937008 5.905512 17.818935 3.937008 6.500865 17.716536 0.000000 5.905512 17.818935 0.000000 6.500865 18.503937 3.937008 8.267716 18.503937 3.937008 7.480315 33.858269 3.937008 8.267716 18.089094 3.937008 7.041184 17.818935 3.937008 6.500865 17.716536 3.937008 5.905512 33.858269 3.937008 0.000000 16.929134 3.937008 5.905512 16.929134 3.937008 0.000000 16.929134 3.937008 0.000000 16.929134 3.937008 5.905512 16.929134 3.543307 0.000000 16.929134 3.543307 5.905511 16.929134 3.543307 5.905511 12.992126 3.543307 5.905511 16.929134 3.543307 0.000000 12.992126 3.543307 0.000000 12.992126 3.937008 5.905512 12.992126 3.937008 0.000000 12.992126 3.543307 5.905511 12.992126 3.543307 0.000000 12.992126 0.393701 5.905512 16.929134 0.393701 5.905512 12.992126 0.393701 0.000000 16.929134 0.393701 0.000000 16.929134 0.393701 0.000000 16.929134 0.393701 5.905512 16.929134 0.000000 0.000000 16.929134 0.000000 5.905512 33.858269 3.937008 8.267716 33.858269 3.937008 0.000000 33.858269 0.000000 8.267716 33.858269 0.000000 0.000000 33.858269 3.937008 8.267716 33.858269 0.000000 8.267716 18.503937 3.937008 8.267716 18.503937 0.000000 8.267716 18.503937 3.937008 7.480315 18.503937 3.937008 8.267716 18.503937 0.000000 7.480315 18.503937 0.000000 8.267716 18.089094 3.937008 7.041184 18.503937 3.937008 7.480315 18.089094 0.000000 7.041184 18.503937 0.000000 7.480315 17.818935 3.937008 6.500865 18.089094 3.937008 7.041184 17.818935 0.000000 6.500865 18.089094 0.000000 7.041184 "
									            />
								</IndexedFaceSet>
							</Shape>
						</Group>
					</Transform>
				</Transform>
				<Transform DEF="instance_1_TRANSFORM"
				           translation="117.271439 8.661416 5.905512"
				           scale="1.000000 1.000000 1.000000"
				           rotation="0.000000 0.000000 -1.000000 1.570796"
				           >
					<Transform DEF="instance_1_ifs_TRANSFORM"
					           translation="-0.000000 -0.000003 0.000000"
					           scale="1.000000 1.000000 1.000000"
					           rotation="0.000000 0.000000 0.000000 0.000000"
					           >
						<Group USE="group_ME_ID36" />
					</Transform>
				</Transform>
				<Transform DEF="instance_2_TRANSFORM"
				           translation="22.440933 8.661416 5.905512"
				           scale="-1.000000 -1.000000 -1.000000"
				           rotation="-0.707107 -0.707107 0.000000 3.141593"
				           >
					<Transform DEF="instance_2_ifs_TRANSFORM"
					           translation="-0.000000 0.000016 0.000000"
					           scale="1.000000 1.000000 1.000000"
					           rotation="0.000000 0.000000 0.000000 0.000000"
					           >
						<Group USE="group_ME_ID14" />
					</Transform>
				</Transform>
			</Transform>
			<Transform DEF="group_6_TRANSFORM"
			           translation="-163.806885 10.239577 -17.916742"
			           scale="1.000000 1.000000 1.000000"
			           rotation="1.000000 0.000000 0.000000 1.570796"
			           >
				<Transform DEF="group_6_ifs_TRANSFORM"
				           translation="0.000000 -0.000001 -0.000001"
				           scale="1.000000 1.000000 1.000000"
				           rotation="-0.000000 0.000000 0.000000 0.000000"
				           >
					<Group DEF="group_ME_ID88">
						<Shape>
							<Appearance>
								<Material USE="MA_material_001" />
							</Appearance>
							<IndexedFaceSet solid="false"
							                coordIndex="0 1 2 -1 1 0 3 -1 1 4 5 -1 4 1 3 -1 2 6 7 -1 6 2 1 -1 8 2 9 -1 2 8 0 -1 0 10 3 -1 10 0 11 -1 5 12 13 -1 12 5 4 -1 6 5 14 -1 5 6 1 -1 10 4 3 -1 4 10 15 -1 6 16 7 -1 9 7 17 -1 7 9 2 -1 18 9 19 -1 9 18 8 -1 8 11 0 -1 11 8 20 -1 21 10 11 -1 13 22 23 -1 22 13 12 -1 14 13 24 -1 13 14 5 -1 15 12 4 -1 12 15 25 -1 6 14 16 -1 21 15 10 -1 26 16 27 -1 16 26 7 -1 17 28 29 -1 28 17 26 -1 26 17 7 -1 19 17 30 -1 17 19 9 -1 31 32 33 -1 32 31 34 -1 18 20 8 -1 20 18 35 -1 20 36 11 -1 36 20 37 -1 36 37 38 -1 36 21 11 -1 21 36 39 -1 40 41 42 -1 41 40 43 -1 24 23 44 -1 23 24 13 -1 25 22 12 -1 22 25 45 -1 46 24 47 -1 24 46 14 -1 48 25 15 -1 25 48 49 -1 14 46 16 -1 48 15 21 -1 16 50 27 -1 26 27 28 -1 29 27 50 -1 27 29 28 -1 30 29 51 -1 29 30 17 -1 52 33 53 -1 31 33 52 -1 54 34 31 -1 34 54 55 -1 34 56 32 -1 35 37 20 -1 37 35 57 -1 56 58 32 -1 38 59 39 -1 59 38 37 -1 38 39 36 -1 59 21 39 -1 60 43 40 -1 43 60 61 -1 43 62 41 -1 40 42 63 -1 62 64 41 -1 47 44 65 -1 44 47 24 -1 49 45 25 -1 45 49 66 -1 63 42 67 -1 46 47 50 -1 59 49 48 -1 16 46 50 -1 59 48 21 -1 29 50 51 -1 68 53 69 -1 52 53 68 -1 54 31 52 -1 70 55 54 -1 55 70 71 -1 55 56 34 -1 59 37 57 -1 72 73 58 -1 56 72 58 -1 74 61 60 -1 61 74 75 -1 61 76 43 -1 60 40 77 -1 76 62 43 -1 77 40 63 -1 62 78 64 -1 78 79 64 -1 47 65 50 -1 59 66 49 -1 80 67 81 -1 63 67 80 -1 51 50 82 -1 68 69 83 -1 84 52 68 -1 54 52 84 -1 70 54 85 -1 86 87 88 -1 87 86 89 -1 71 90 55 -1 55 91 56 -1 92 59 57 -1 72 93 73 -1 91 72 56 -1 75 94 61 -1 74 60 95 -1 94 76 61 -1 95 60 77 -1 76 96 62 -1 77 63 97 -1 96 78 62 -1 78 98 79 -1 65 99 50 -1 100 66 59 -1 80 81 101 -1 97 63 80 -1 50 102 82 -1 83 69 103 -1 104 68 83 -1 84 68 104 -1 85 54 84 -1 88 105 106 -1 105 88 87 -1 107 89 86 -1 89 107 108 -1 90 91 55 -1 93 109 73 -1 110 59 92 -1 111 93 72 -1 91 111 72 -1 94 112 76 -1 95 77 113 -1 112 96 76 -1 113 77 97 -1 96 114 78 -1 98 115 79 -1 114 98 78 -1 50 116 117 -1 116 50 99 -1 118 100 59 -1 100 118 119 -1 101 81 120 -1 121 80 101 -1 97 80 121 -1 50 117 102 -1 83 103 122 -1 104 83 123 -1 124 84 104 -1 85 84 124 -1 106 125 126 -1 125 106 105 -1 127 108 107 -1 108 127 128 -1 90 129 91 -1 93 130 109 -1 118 59 110 -1 111 131 93 -1 129 111 91 -1 112 132 96 -1 113 97 133 -1 96 132 114 -1 134 98 135 -1 98 134 115 -1 114 136 98 -1 101 137 138 -1 137 101 120 -1 121 101 139 -1 97 121 133 -1 140 141 142 -1 141 140 143 -1 143 140 144 -1 123 83 122 -1 104 123 145 -1 124 104 145 -1 126 146 147 -1 146 126 125 -1 148 128 127 -1 128 148 149 -1 131 130 93 -1 150 151 152 -1 151 150 153 -1 153 150 154 -1 111 155 131 -1 129 155 111 -1 156 114 132 -1 136 135 98 -1 139 101 138 -1 157 133 121 -1 146 158 147 -1 158 146 159 -1 146 160 161 -1 123 122 162 -1 123 163 145 -1 164 149 148 -1 149 164 165 -1 131 166 130 -1 149 167 168 -1 131 155 169 -1 "
							                >
								<Coordinate DEF="coords_ME_ID88"
								            point="90.024200 7.157318 1.636231 49.727695 5.511811 1.574803 49.688202 7.157318 1.636231 89.984703 5.511811 1.574803 90.024200 3.866304 1.636232 49.688202 3.866304 1.636232 43.725132 5.511811 1.397926 43.605721 6.872201 1.446154 90.064682 8.798726 1.767544 49.647713 8.798726 1.767544 95.987267 5.511811 1.397926 96.106674 6.872201 1.446154 90.064682 2.224895 1.767544 49.647713 2.224895 1.767544 43.605721 4.151421 1.446154 96.106674 4.151421 1.446154 39.437859 5.511811 1.063323 43.458084 8.508588 1.574118 90.106094 10.433070 1.968504 49.606297 10.433070 1.968504 96.254318 8.508588 1.574118 100.274536 5.511811 1.063323 90.106094 0.590551 1.968504 49.606297 0.590551 1.968504 43.458084 2.515034 1.574118 96.254318 2.515034 1.574118 39.445728 6.352202 1.099488 39.270096 6.330249 1.084852 39.254261 6.405385 1.090069 38.930256 7.942609 1.196799 43.307087 10.137795 1.771654 49.606297 11.023622 5.458607 90.106094 10.433070 1.968504 49.606297 10.433070 1.968504 90.106094 11.023622 5.458607 96.405304 10.137795 1.771654 100.266670 6.352202 1.099488 100.782143 7.942609 1.196799 100.458138 6.405385 1.090069 100.442299 6.330249 1.084852 90.106094 0.000000 5.458607 49.606297 0.590551 1.968504 90.106094 0.590551 1.968504 49.606297 0.000000 5.458607 43.307087 0.885827 1.771654 96.405304 0.885827 1.771654 39.270096 4.693373 1.084852 38.930256 3.081013 1.196799 100.442299 4.693373 1.084852 100.782143 3.081013 1.196799 37.012283 5.511811 0.650284 38.582676 9.547244 1.377953 43.307087 10.692913 4.912746 43.307087 10.137795 1.771654 38.188976 11.030334 13.442975 101.523422 11.030334 13.442975 96.405304 10.692913 4.912746 101.129723 9.547244 1.377953 96.405304 10.137795 1.771654 102.700119 5.511811 0.650284 101.523422 0.006712 13.442975 38.188976 0.006712 13.442975 43.307087 0.330709 4.912746 96.405304 0.330709 4.912746 43.307087 0.885827 1.771654 38.582676 1.476378 1.377953 101.129723 1.476378 1.377953 96.405304 0.885827 1.771654 38.582676 10.031496 3.821025 38.582676 9.547244 1.377953 38.188976 10.433070 16.535433 101.523422 10.433070 16.535433 101.129723 10.031496 3.821025 101.129723 9.547244 1.377953 101.523422 0.590551 16.535433 38.188976 0.590551 16.535433 31.889765 0.361043 12.925448 107.822632 0.361043 12.925448 38.582676 0.992126 3.821025 38.582676 1.476378 1.377953 101.129723 0.992126 3.821025 101.129723 1.476378 1.377953 35.433071 8.661417 0.787402 35.433071 9.039370 2.183443 31.889765 10.676003 12.925448 31.889765 10.116704 15.708661 101.523422 0.590551 16.535433 38.188976 10.433070 16.535433 38.188976 0.590551 16.535433 101.523422 10.433070 16.535433 107.822632 10.116704 15.708661 107.822632 10.676003 12.925448 104.279327 8.661417 0.787402 104.279327 9.039370 2.183443 31.889765 0.906918 15.708661 107.822632 0.906918 15.708661 27.165354 1.069704 11.890397 112.547043 1.069704 11.890397 35.433071 1.984252 2.183443 35.433071 2.362205 0.787402 104.279327 2.362205 0.787402 104.279327 1.984252 2.183443 33.858269 7.480315 0.000000 35.433071 8.661417 0.787402 27.165354 9.967341 11.890397 31.889765 10.116704 15.708661 31.889765 0.906918 15.708661 107.822632 0.906918 15.708661 107.822632 10.116704 15.708661 104.279327 8.661417 0.787402 105.854134 7.480315 0.000000 112.547043 9.967341 11.890397 27.165354 1.539651 14.055118 112.547043 1.539651 14.055118 24.015747 2.132696 10.337820 35.433071 2.362205 0.787402 35.158016 2.568496 0.649874 33.858269 3.543307 0.000000 105.854134 3.543307 0.000000 104.554382 2.568496 0.649874 104.279327 2.362205 0.787402 115.696648 2.132696 10.337820 33.858269 7.480315 0.000000 24.015747 8.904350 10.337820 27.165354 9.483971 14.055118 27.165354 9.483971 14.055118 27.165354 1.539651 14.055118 112.547043 1.539651 14.055118 112.547043 9.483971 14.055118 112.547043 9.483971 14.055118 105.854134 7.480315 0.000000 115.696648 8.904350 10.337820 24.015747 2.488751 11.574802 115.696648 2.488751 11.574802 35.158016 2.568496 0.649874 33.858269 3.543307 0.000000 22.440945 3.550019 8.267716 104.554382 2.568496 0.649874 105.854134 3.543307 0.000000 117.271454 3.550019 8.267716 33.858269 7.480315 0.000000 22.440945 7.269404 8.267716 22.440945 7.487027 8.267716 22.440945 3.550019 8.267716 33.858269 3.543307 0.000000 24.015747 8.534870 11.574802 24.015747 8.534870 11.574802 24.015747 2.488751 11.574802 115.696648 2.488751 11.574802 115.696648 8.534870 11.574802 117.271454 7.487027 8.267716 105.854134 3.543307 0.000000 105.854134 7.480315 0.000000 117.271454 3.550019 8.267716 117.271454 7.269404 8.267716 115.696648 8.534870 11.574802 22.440945 3.550019 8.267716 117.271454 3.550019 8.267716 22.440945 3.550019 8.267716 22.440945 7.269404 8.267716 22.440945 7.487027 8.267716 22.440945 7.269404 8.267716 22.440945 7.487027 8.267716 22.440945 7.487027 8.267716 117.271454 3.550019 8.267716 117.271454 7.269404 8.267716 117.271454 7.487027 8.267716 117.271454 7.269404 8.267716 117.271454 7.487027 8.267716 117.271454 7.487027 8.267716 "
								            />
							</IndexedFaceSet>
						</Shape>
					</Group>
				</Transform>
				<Transform DEF="group_4_001_TRANSFORM"
				           translation="105.854126 3.543306 -0.000001"
				           scale="1.000000 1.000000 1.000000"
				           rotation="-0.000000 0.000000 0.000000 0.000000"
				           >
					<Transform DEF="group_4_001_ifs_TRANSFORM"
					           translation="-0.000008 -0.000001 -0.000001"
					           scale="1.000000 1.000000 1.000000"
					           rotation="-0.000000 0.000000 0.000000 0.000000"
					           >
						<Group DEF="group_ME_ID73">
							<Shape>
								<Appearance>
									<Material USE="MA_material_001" />
								</Appearance>
								<IndexedFaceSet solid="false"
								                coordIndex="0 1 2 -1 1 0 3 -1 4 5 6 -1 5 4 7 -1 7 4 8 -1 7 8 9 -1 7 9 10 -1 9 8 11 -1 9 11 12 -1 13 14 15 -1 16 17 18 -1 17 16 19 -1 19 16 20 -1 19 20 21 -1 21 20 14 -1 21 14 22 -1 22 14 23 -1 23 14 13 -1 24 17 19 -1 25 26 27 -1 26 25 28 -1 26 28 29 -1 29 28 30 -1 29 30 31 -1 30 28 32 -1 32 28 33 -1 34 35 36 -1 35 34 37 -1 38 39 40 -1 39 38 41 -1 41 42 39 -1 42 41 43 -1 43 41 44 -1 43 44 45 -1 45 44 46 -1 45 46 47 -1 45 48 49 -1 48 45 47 -1 50 51 52 -1 51 50 53 -1 54 55 56 -1 55 54 57 -1 58 59 60 -1 59 58 61 -1 62 63 64 -1 63 62 65 -1 66 67 68 -1 67 66 69 -1 70 71 72 -1 73 71 74 -1 71 73 72 -1 72 73 75 -1 75 73 76 -1 76 73 77 -1 77 73 78 -1 79 80 81 -1 80 79 82 -1 83 84 85 -1 84 83 86 -1 84 86 87 -1 87 86 88 -1 87 88 89 -1 87 89 90 -1 87 90 91 -1 92 93 94 -1 93 92 95 -1 96 97 98 -1 97 96 99 -1 100 101 102 -1 101 100 103 -1 104 105 106 -1 105 104 107 -1 108 109 110 -1 109 108 111 -1 112 113 114 -1 113 112 115 -1 116 117 118 -1 117 116 119 -1 120 121 122 -1 121 120 123 -1 124 125 126 -1 125 124 127 -1 128 129 130 -1 129 128 131 -1 "
								                >
									<Coordinate DEF="coords_ME_ID73"
									            point="12.204723 3.937008 5.905512 12.102325 0.000000 6.500865 12.204723 0.000000 5.905512 12.102325 3.937008 6.500865 12.992126 0.000000 5.905512 10.236220 0.000000 0.000000 12.992126 0.000000 0.000000 0.000000 0.000000 0.000000 12.204723 0.000000 5.905512 11.417322 0.000000 7.480315 11.417322 0.000000 8.267716 12.102325 0.000000 6.500865 11.832167 0.000000 7.041184 17.716536 0.000000 5.905512 16.929134 0.393701 5.905512 16.929134 0.000000 5.905512 12.992126 0.000000 5.905512 12.204723 3.937008 5.905512 12.204723 0.000000 5.905512 12.992126 3.543307 5.905511 12.992126 0.393701 5.905512 16.929134 3.543307 5.905511 16.929134 3.937008 5.905512 17.716536 3.937008 5.905512 12.992126 3.937008 5.905512 11.417322 3.937008 8.267716 10.236220 3.937008 0.000000 0.000000 3.937008 0.000000 11.417322 3.937008 7.480315 12.992126 3.937008 0.000000 12.204723 3.937008 5.905512 12.992126 3.937008 5.905512 12.102325 3.937008 6.500865 11.832167 3.937008 7.041184 12.102325 3.937008 6.500865 11.832167 0.000000 7.041184 12.102325 0.000000 6.500865 11.832167 3.937008 7.041184 12.992126 3.937008 0.000000 10.236220 0.000000 0.000000 10.236220 3.937008 0.000000 12.992126 3.543307 0.000000 12.992126 0.000000 0.000000 12.992126 0.393701 0.000000 16.929134 3.543307 0.000000 16.929134 0.393701 0.000000 16.929134 3.937008 0.000000 33.858269 3.937008 0.000000 33.858269 0.000000 0.000000 16.929134 0.000000 0.000000 12.992126 0.393701 0.000000 12.992126 0.000000 5.905512 12.992126 0.000000 0.000000 12.992126 0.393701 5.905512 11.832167 3.937008 7.041184 11.417322 0.000000 7.480315 11.832167 0.000000 7.041184 11.417322 3.937008 7.480315 11.417322 3.937008 7.480315 11.417322 0.000000 8.267716 11.417322 0.000000 7.480315 11.417322 3.937008 8.267716 11.417322 0.000000 8.267716 0.000000 3.937008 0.000000 0.000000 0.000000 0.000000 11.417322 3.937008 8.267716 10.236220 3.937008 0.000000 0.000000 0.000000 0.000000 0.000000 3.937008 0.000000 10.236220 0.000000 0.000000 16.929134 0.000000 5.905512 16.929134 0.000000 0.000000 17.716536 0.000000 5.905512 33.858269 0.000000 8.267716 33.858269 0.000000 0.000000 17.818935 0.000000 6.500865 18.089094 0.000000 7.041184 18.503937 0.000000 7.480315 18.503937 0.000000 8.267716 17.818935 3.937008 6.500865 17.716536 0.000000 5.905512 17.818935 0.000000 6.500865 17.716536 3.937008 5.905512 16.929134 3.937008 5.905512 33.858269 3.937008 0.000000 16.929134 3.937008 0.000000 17.716536 3.937008 5.905512 33.858269 3.937008 8.267716 17.818935 3.937008 6.500865 18.089094 3.937008 7.041184 18.503937 3.937008 7.480315 18.503937 3.937008 8.267716 16.929134 3.937008 5.905512 16.929134 3.543307 0.000000 16.929134 3.543307 5.905511 16.929134 3.937008 0.000000 12.992126 3.543307 5.905511 16.929134 3.543307 0.000000 12.992126 3.543307 0.000000 16.929134 3.543307 5.905511 12.992126 3.937008 0.000000 12.992126 3.543307 5.905511 12.992126 3.543307 0.000000 12.992126 3.937008 5.905512 16.929134 0.393701 5.905512 12.992126 0.393701 0.000000 16.929134 0.393701 0.000000 12.992126 0.393701 5.905512 16.929134 0.393701 5.905512 16.929134 0.000000 0.000000 16.929134 0.000000 5.905512 16.929134 0.393701 0.000000 33.858269 3.937008 0.000000 33.858269 0.000000 8.267716 33.858269 0.000000 0.000000 33.858269 3.937008 8.267716 33.858269 0.000000 8.267716 18.503937 3.937008 8.267716 18.503937 0.000000 8.267716 33.858269 3.937008 8.267716 18.503937 3.937008 8.267716 18.503937 0.000000 7.480315 18.503937 0.000000 8.267716 18.503937 3.937008 7.480315 18.503937 3.937008 7.480315 18.089094 0.000000 7.041184 18.503937 0.000000 7.480315 18.089094 3.937008 7.041184 18.089094 3.937008 7.041184 17.818935 0.000000 6.500865 18.089094 0.000000 7.041184 17.818935 3.937008 6.500865 "
									            />
								</IndexedFaceSet>
							</Shape>
						</Group>
					</Transform>
				</Transform>
				<Transform DEF="group_5_001_TRANSFORM"
				           translation="33.858261 3.543306 -0.000001"
				           scale="-1.000000 -1.000000 -1.000000"
				           rotation="-1.000000 0.000000 0.000000 3.141593"
				           >
					<Transform DEF="group_5_001_ifs_TRANSFORM"
					           translation="0.000015 -0.000000 -0.000002"
					           scale="1.000000 1.000000 1.000000"
					           rotation="0.000000 0.000000 0.000000 0.000000"
					           >
						<Group DEF="group_ME_ID80">
							<Shape>
								<Appearance>
									<Material USE="MA_material_001" />
								</Appearance>
								<IndexedFaceSet solid="false"
								                coordIndex="0 1 2 -1 3 2 1 -1 4 5 6 -1 5 7 6 -1 8 6 9 -1 6 7 9 -1 7 10 9 -1 9 10 11 -1 12 11 10 -1 13 14 15 -1 16 17 18 -1 18 17 19 -1 19 17 20 -1 17 21 20 -1 20 21 13 -1 21 22 13 -1 13 22 14 -1 23 14 22 -1 24 17 16 -1 25 26 27 -1 27 26 28 -1 29 28 30 -1 28 26 30 -1 30 26 31 -1 26 32 31 -1 33 31 32 -1 34 35 36 -1 37 36 35 -1 38 39 40 -1 41 40 39 -1 38 42 39 -1 42 43 39 -1 39 43 44 -1 43 45 44 -1 44 45 46 -1 47 46 45 -1 45 48 47 -1 49 47 48 -1 50 51 52 -1 53 52 51 -1 54 55 56 -1 57 56 55 -1 58 59 60 -1 61 60 59 -1 62 63 64 -1 65 64 63 -1 66 67 68 -1 69 68 67 -1 70 71 72 -1 72 71 73 -1 73 71 74 -1 74 71 75 -1 75 71 76 -1 77 76 71 -1 75 76 78 -1 79 80 81 -1 82 81 80 -1 83 84 85 -1 84 86 85 -1 86 87 85 -1 87 88 85 -1 85 88 89 -1 88 90 89 -1 91 89 90 -1 92 93 94 -1 95 94 93 -1 96 97 98 -1 99 98 97 -1 100 101 102 -1 103 102 101 -1 104 105 106 -1 107 106 105 -1 108 109 110 -1 111 110 109 -1 112 113 114 -1 115 114 113 -1 116 117 118 -1 119 118 117 -1 120 121 122 -1 123 122 121 -1 124 125 126 -1 127 126 125 -1 128 129 130 -1 131 130 129 -1 "
								                >
									<Coordinate DEF="coords_ME_ID80"
									            point="12.102325 3.937008 6.500865 12.204723 3.937008 5.905512 12.102325 0.000000 6.500865 12.204723 0.000000 5.905512 11.832167 0.000000 7.041184 12.102325 0.000000 6.500865 11.417322 0.000000 7.480315 12.204723 0.000000 5.905512 11.417322 0.000000 8.267716 0.000000 0.000000 0.000000 12.992126 0.000000 5.905512 10.236220 0.000000 0.000000 12.992126 0.000000 0.000000 12.992126 3.543307 5.905511 12.204723 3.937008 5.905512 12.992126 3.937008 5.905512 17.716536 0.000000 5.905512 16.929134 0.393701 5.905512 17.716536 3.937008 5.905512 16.929134 3.937008 5.905512 16.929134 3.543307 5.905511 12.992126 0.393701 5.905512 12.992126 0.000000 5.905512 12.204723 0.000000 5.905512 16.929134 0.000000 5.905512 11.832167 3.937008 7.041184 11.417322 3.937008 7.480315 12.102325 3.937008 6.500865 12.204723 3.937008 5.905512 12.992126 3.937008 5.905512 12.992126 3.937008 0.000000 10.236220 3.937008 0.000000 11.417322 3.937008 8.267716 0.000000 3.937008 0.000000 11.832167 3.937008 7.041184 12.102325 3.937008 6.500865 11.832167 0.000000 7.041184 12.102325 0.000000 6.500865 33.858269 3.937008 0.000000 16.929134 0.393701 0.000000 33.858269 0.000000 0.000000 16.929134 0.000000 0.000000 16.929134 3.937008 0.000000 16.929134 3.543307 0.000000 12.992126 0.393701 0.000000 12.992126 3.543307 0.000000 12.992126 0.000000 0.000000 10.236220 0.000000 0.000000 12.992126 3.937008 0.000000 10.236220 3.937008 0.000000 12.992126 0.393701 5.905512 12.992126 0.393701 0.000000 12.992126 0.000000 5.905512 12.992126 0.000000 0.000000 11.417322 3.937008 7.480315 11.832167 3.937008 7.041184 11.417322 0.000000 7.480315 11.832167 0.000000 7.041184 11.417322 3.937008 8.267716 11.417322 3.937008 7.480315 11.417322 0.000000 8.267716 11.417322 0.000000 7.480315 11.417322 3.937008 8.267716 11.417322 0.000000 8.267716 0.000000 3.937008 0.000000 0.000000 0.000000 0.000000 10.236220 0.000000 0.000000 10.236220 3.937008 0.000000 0.000000 0.000000 0.000000 0.000000 3.937008 0.000000 18.503937 0.000000 8.267716 33.858269 0.000000 8.267716 18.503937 0.000000 7.480315 18.089094 0.000000 7.041184 17.818935 0.000000 6.500865 17.716536 0.000000 5.905512 16.929134 0.000000 0.000000 33.858269 0.000000 0.000000 16.929134 0.000000 5.905512 17.716536 3.937008 5.905512 17.818935 3.937008 6.500865 17.716536 0.000000 5.905512 17.818935 0.000000 6.500865 18.503937 3.937008 8.267716 18.503937 3.937008 7.480315 33.858269 3.937008 8.267716 18.089094 3.937008 7.041184 17.818935 3.937008 6.500865 17.716536 3.937008 5.905512 33.858269 3.937008 0.000000 16.929134 3.937008 5.905512 16.929134 3.937008 0.000000 16.929134 3.937008 0.000000 16.929134 3.937008 5.905512 16.929134 3.543307 0.000000 16.929134 3.543307 5.905511 16.929134 3.543307 5.905511 12.992126 3.543307 5.905511 16.929134 3.543307 0.000000 12.992126 3.543307 0.000000 12.992126 3.937008 5.905512 12.992126 3.937008 0.000000 12.992126 3.543307 5.905511 12.992126 3.543307 0.000000 12.992126 0.393701 5.905512 16.929134 0.393701 5.905512 12.992126 0.393701 0.000000 16.929134 0.393701 0.000000 16.929134 0.393701 0.000000 16.929134 0.393701 5.905512 16.929134 0.000000 0.000000 16.929134 0.000000 5.905512 33.858269 3.937008 8.267716 33.858269 3.937008 0.000000 33.858269 0.000000 8.267716 33.858269 0.000000 0.000000 33.858269 3.937008 8.267716 33.858269 0.000000 8.267716 18.503937 3.937008 8.267716 18.503937 0.000000 8.267716 18.503937 3.937008 7.480315 18.503937 3.937008 8.267716 18.503937 0.000000 7.480315 18.503937 0.000000 8.267716 18.089094 3.937008 7.041184 18.503937 3.937008 7.480315 18.089094 0.000000 7.041184 18.503937 0.000000 7.480315 17.818935 3.937008 6.500865 18.089094 3.937008 7.041184 17.818935 0.000000 6.500865 18.089094 0.000000 7.041184 "
									            />
								</IndexedFaceSet>
							</Shape>
						</Group>
					</Transform>
				</Transform>
				<Transform DEF="instance_1_001_TRANSFORM"
				           translation="117.271439 8.661415 5.905511"
				           scale="1.000000 1.000000 1.000000"
				           rotation="-0.000000 -0.000000 -1.000000 1.570796"
				           >
					<Transform DEF="instance_1_001_ifs_TRANSFORM"
					           translation="-0.000000 -0.000005 -0.000000"
					           scale="1.000000 1.000000 1.000000"
					           rotation="-0.000000 -0.000000 0.000000 0.000000"
					           >
						<Group USE="group_ME_ID36" />
					</Transform>
				</Transform>
				<Transform DEF="instance_2_001_TRANSFORM"
				           translation="22.440933 8.661415 5.905511"
				           scale="-1.000000 -1.000000 -1.000000"
				           rotation="-0.707107 -0.707107 0.000000 3.141593"
				           >
					<Transform DEF="instance_2_001_ifs_TRANSFORM"
					           translation="-0.000000 0.000014 -0.000000"
					           scale="1.000000 1.000000 1.000000"
					           rotation="0.000000 -0.000000 0.000000 0.000000"
					           >
						<Group USE="group_ME_ID14" />
					</Transform>
				</Transform>
			</Transform>
		</Transform>
		<Transform DEF="SketchUp_001_TRANSFORM"
		           translation="0.000000 0.000000 0.000000"
		           scale="0.025400 0.025400 0.025400"
		           rotation="-1.000000 0.000000 0.000000 1.570796"
		           >
			<Transform DEF="SketchUp_001_ifs_TRANSFORM"
			           translation="0.000000 0.000000 0.000000"
			           scale="1.000000 1.000000 1.000000"
			           rotation="0.000000 1.000000 0.000000 0.000000"
			           >
				<Group DEF="group_ME_ID100">
				</Group>
			</Transform>
		</Transform>
		<Transform DEF="SketchUp_002_TRANSFORM"
		           translation="0.000000 0.000000 0.000000"
		           scale="0.025400 0.025400 0.025400"
		           rotation="-1.000000 0.000000 0.000000 1.570796"
		           >
			<Transform DEF="SketchUp_002_ifs_TRANSFORM"
			           translation="0.000000 0.000000 0.000000"
			           scale="1.000000 1.000000 1.000000"
			           rotation="0.000000 1.000000 0.000000 0.000000"
			           >
				<Group DEF="group_ME_ID104">
				</Group>
			</Transform>
		</Transform>
		<Transform DEF="SketchUp_003_TRANSFORM"
		           translation="0.000000 0.000000 0.000000"
		           scale="0.025400 0.025400 0.025400"
		           rotation="-1.000000 0.000000 0.000000 1.570796"
		           >
			<Transform DEF="SketchUp_003_ifs_TRANSFORM"
			           translation="0.000000 0.000000 0.000000"
			           scale="1.000000 1.000000 1.000000"
			           rotation="0.000000 1.000000 0.000000 0.000000"
			           >
				<Group DEF="group_ME_ID108_001">
				</Group>
			</Transform>
		</Transform>
		<Transform DEF="SketchUp_004_TRANSFORM"
		           translation="0.000000 0.000000 0.000000"
		           scale="0.025400 0.025400 0.025400"
		           rotation="-1.000000 0.000000 0.000000 1.570796"
		           >
			<Transform DEF="SketchUp_004_ifs_TRANSFORM"
			           translation="0.000000 0.000000 0.000000"
			           scale="1.000000 1.000000 1.000000"
			           rotation="0.000000 1.000000 0.000000 0.000000"
			           >
				<Group DEF="group_ME_ID112">
				</Group>
			</Transform>
		</Transform>
	</Scene>
</X3D>