<?xml version="1.0" encoding="UTF-8"?>
<!DOCTYPE X3D PUBLIC "ISO//Web3D//DTD X3D 3.0//EN" "http://www.web3d.org/specifications/x3d-3.0.dtd">
<X3D version="3.0" profile="Immersive" xmlns:xsd="http://www.w3.org/2001/XMLSchema-instance" xsd:noNamespaceSchemaLocation="http://www.web3d.org/specifications/x3d-3.0.xsd">
	<head>
		<meta name="filename" content="19-2 劄牽.x3d" />
		<meta name="created" content="2025-12-29 13:49:57" />
		<meta name="generator" content="Blender 4.2.2 LTS" />
		<meta name="translator" content="Web3D X3D/VRML2 format v2.5.1" />
	</head>
	<Scene>
		<NavigationInfo headlight="true"
		                visibilityLimit="0.0"
		                type='"EXAMINE", "ANY"'
		                avatarSize="0.25, 1.75, 0.75"
		                />
		<Background DEF="WO_World"
		            groundColor="0.051 0.051 0.051"
		            skyColor="0.051 0.051 0.051"
		            />
		<Transform DEF="SketchUp_TRANSFORM"
		           translation="0.000000 0.000000 0.000000"
		           scale="0.025400 0.025400 0.025400"
		           rotation="-1.000000 0.000000 0.000000 1.570796"
		           >
			<Transform DEF="SketchUp_ifs_TRANSFORM"
			           translation="0.000000 0.000000 0.000000"
			           scale="1.000000 1.000000 1.000000"
			           rotation="0.000000 1.000000 0.000000 0.000000"
			           >
				<Group DEF="group_ME_ID115">
				</Group>
			</Transform>
			<Transform DEF="group_0_TRANSFORM"
			           translation="207.009445 12.324031 -0.000000"
			           scale="1.000000 1.000000 1.000000"
			           rotation="0.000000 1.000000 0.000000 0.000000"
			           >
				<Transform DEF="group_0_ifs_TRANSFORM"
				           translation="0.000015 0.000000 -0.000000"
				           scale="1.000000 1.000000 1.000000"
				           rotation="0.000000 1.000000 0.000000 0.000000"
				           >
					<Group DEF="group_ME_ID28_001">
						<Shape>
							<Appearance>
								<Material DEF="MA_material_002"
								          diffuseColor="1.000 1.000 1.000"
								          specularColor="0.401 0.401 0.401"
								          emissiveColor="0.000 0.000 0.000"
								          ambientIntensity="0.000"
								          shininess="0.500"
								          transparency="0.000"
								          />
							</Appearance>
							<IndexedFaceSet solid="false"
							                coordIndex="0 1 2 -1 1 3 2 -1 0 2 4 -1 5 6 7 -1 6 5 8 -1 1 9 3 -1 10 11 12 -1 13 0 4 -1 4 10 12 -1 6 14 7 -1 14 6 15 -1 15 6 16 -1 16 6 17 -1 18 8 5 -1 8 18 19 -1 19 18 20 -1 19 20 21 -1 22 23 24 -1 25 9 1 -1 11 26 12 -1 13 4 27 -1 4 12 28 -1 29 30 24 -1 29 31 30 -1 32 33 34 -1 33 32 35 -1 36 9 25 -1 37 21 20 -1 21 37 38 -1 38 37 39 -1 39 37 40 -1 41 42 43 -1 43 44 22 -1 45 13 27 -1 24 23 46 -1 22 44 23 -1 26 47 12 -1 27 4 28 -1 28 12 48 -1 24 46 29 -1 49 50 51 -1 52 53 54 -1 55 45 56 -1 57 55 58 -1 59 39 40 -1 39 59 60 -1 60 59 61 -1 60 61 62 -1 63 64 65 -1 65 66 41 -1 43 42 44 -1 41 66 42 -1 45 27 56 -1 67 50 68 -1 44 50 67 -1 56 27 28 -1 28 48 69 -1 70 71 53 -1 68 50 49 -1 52 54 72 -1 70 53 52 -1 55 56 58 -1 57 58 73 -1 74 57 73 -1 75 74 76 -1 77 62 61 -1 62 77 78 -1 78 77 79 -1 78 79 80 -1 81 82 83 -1 83 84 63 -1 65 64 66 -1 63 84 64 -1 42 85 44 -1 66 85 42 -1 44 85 50 -1 56 28 86 -1 70 87 71 -1 86 28 69 -1 72 54 88 -1 89 52 72 -1 89 70 52 -1 58 56 90 -1 73 58 91 -1 74 73 76 -1 92 76 93 -1 76 92 75 -1 81 94 82 -1 94 81 95 -1 96 97 98 -1 97 96 99 -1 99 96 100 -1 100 96 101 -1 83 82 84 -1 64 102 66 -1 84 103 64 -1 66 104 85 -1 85 105 50 -1 56 86 90 -1 70 106 87 -1 106 70 107 -1 86 69 108 -1 72 88 109 -1 110 89 72 -1 89 110 111 -1 89 107 70 -1 107 89 111 -1 58 90 91 -1 73 91 112 -1 76 73 112 -1 113 93 114 -1 76 114 93 -1 113 115 93 -1 115 113 116 -1 117 118 94 -1 118 117 119 -1 94 120 82 -1 121 101 96 -1 101 121 122 -1 82 123 84 -1 66 102 104 -1 64 103 102 -1 84 123 103 -1 104 124 85 -1 85 124 105 -1 90 86 108 -1 107 125 106 -1 125 107 126 -1 127 72 109 -1 72 127 110 -1 128 111 110 -1 111 128 129 -1 111 126 107 -1 126 111 129 -1 91 90 130 -1 91 131 112 -1 76 112 114 -1 113 114 132 -1 116 113 133 -1 119 134 118 -1 118 120 94 -1 82 120 123 -1 135 122 121 -1 122 135 136 -1 136 135 137 -1 136 137 138 -1 102 139 104 -1 103 140 102 -1 123 141 103 -1 104 139 124 -1 90 108 130 -1 126 142 125 -1 142 126 143 -1 144 110 127 -1 110 144 128 -1 145 129 128 -1 129 143 126 -1 143 129 145 -1 143 145 146 -1 143 146 147 -1 91 130 131 -1 112 131 148 -1 114 112 148 -1 113 132 149 -1 132 114 148 -1 133 113 149 -1 134 150 118 -1 118 151 120 -1 120 152 123 -1 133 149 153 -1 153 154 155 -1 156 138 137 -1 138 156 157 -1 157 156 158 -1 157 158 159 -1 160 161 162 -1 134 160 150 -1 102 140 139 -1 103 141 140 -1 123 152 141 -1 143 163 142 -1 163 143 147 -1 164 128 144 -1 128 164 145 -1 165 145 164 -1 145 165 146 -1 166 147 146 -1 147 166 167 -1 167 166 168 -1 167 168 169 -1 170 167 169 -1 149 132 171 -1 132 148 172 -1 118 150 151 -1 151 152 120 -1 153 149 154 -1 155 154 173 -1 174 159 158 -1 159 174 175 -1 175 174 176 -1 175 176 177 -1 178 179 180 -1 161 178 181 -1 155 173 182 -1 182 183 184 -1 161 181 162 -1 160 162 150 -1 167 163 147 -1 163 167 185 -1 165 166 146 -1 166 165 186 -1 186 168 166 -1 168 186 187 -1 168 188 169 -1 188 168 189 -1 188 170 169 -1 170 188 190 -1 170 185 167 -1 185 170 191 -1 149 171 154 -1 132 172 171 -1 150 192 151 -1 151 193 152 -1 154 171 173 -1 194 177 176 -1 177 194 195 -1 195 194 196 -1 195 196 197 -1 198 199 200 -1 179 198 201 -1 184 202 203 -1 203 204 205 -1 179 206 180 -1 178 180 181 -1 182 173 183 -1 184 183 207 -1 162 181 192 -1 150 162 192 -1 187 189 168 -1 189 187 208 -1 192 209 193 -1 189 210 188 -1 210 189 211 -1 210 190 188 -1 190 210 212 -1 190 191 170 -1 191 190 213 -1 171 172 214 -1 192 193 151 -1 173 171 215 -1 216 197 196 -1 197 216 217 -1 218 219 220 -1 199 219 221 -1 205 222 223 -1 224 223 225 -1 198 200 201 -1 199 221 200 -1 179 201 206 -1 184 207 202 -1 203 202 204 -1 205 204 222 -1 180 206 226 -1 181 180 227 -1 173 215 183 -1 183 228 207 -1 181 227 192 -1 208 211 189 -1 211 208 229 -1 227 230 209 -1 192 227 209 -1 211 231 210 -1 212 213 190 -1 213 212 232 -1 231 212 210 -1 215 214 233 -1 171 214 215 -1 234 224 235 -1 236 237 238 -1 237 236 239 -1 240 220 241 -1 218 220 240 -1 219 218 221 -1 223 222 225 -1 224 225 235 -1 201 242 243 -1 242 244 243 -1 206 201 226 -1 207 228 202 -1 202 245 246 -1 246 245 247 -1 180 226 227 -1 183 215 228 -1 226 248 230 -1 249 211 229 -1 227 226 230 -1 250 231 211 -1 251 232 212 -1 228 233 252 -1 253 212 231 -1 215 233 228 -1 254 245 255 -1 256 257 243 -1 253 231 250 -1 258 256 243 -1 244 258 243 -1 247 245 259 -1 259 245 254 -1 201 243 260 -1 201 260 226 -1 202 228 261 -1 202 261 245 -1 226 260 248 -1 250 211 249 -1 260 262 248 -1 253 251 212 -1 261 252 263 -1 228 252 261 -1 260 243 262 -1 261 263 245 -1 "
							                >
								<Coordinate DEF="coords_ME_ID28_001"
								            point="11.574802 1.425026 11.574802 9.800333 1.895164 10.332673 11.574802 0.959646 10.259723 9.800333 1.500305 9.511533 12.204723 0.767717 10.392523 11.574802 1.425026 11.574802 9.800333 7.159954 10.332673 9.800333 1.895164 10.332673 11.574802 7.630093 11.574802 9.685040 1.535433 9.407249 11.574802 0.959646 10.259723 9.800333 1.500305 9.511533 19.842520 2.559055 0.000000 12.204723 1.258131 11.795275 9.685040 1.925710 10.159545 8.425197 2.559055 8.267716 8.425197 6.496063 8.267716 9.685040 7.129408 10.159545 12.204723 1.258131 11.795275 12.204723 7.796988 11.795275 14.724409 0.961429 12.677165 14.724409 8.093689 12.677165 11.574802 7.630093 11.574802 11.574802 8.095472 10.259723 9.800333 7.159954 10.332673 9.685040 1.925710 10.159545 9.685040 1.535433 9.407249 14.724409 0.426509 10.923725 21.102362 1.535433 1.867451 9.685040 7.519685 9.407249 9.685040 7.129408 10.159545 8.425197 6.496063 8.267716 19.842520 6.496063 0.000000 8.425197 2.559055 8.267716 8.425197 6.496063 8.267716 19.842520 2.559055 0.000000 8.425197 2.559055 8.267716 15.984252 0.813078 12.897637 15.984252 8.242041 12.897637 18.923885 8.371847 13.412072 18.923885 0.683271 13.412072 14.724409 8.093689 12.677165 14.724409 8.628610 10.923725 12.204723 7.796988 11.795275 12.204723 8.287401 10.392524 14.724409 0.961429 12.677165 9.800333 7.554813 9.511533 8.425197 2.559055 8.267716 21.102362 1.925710 0.629921 9.685040 7.519685 9.407249 19.842520 6.496063 0.000000 8.425197 6.496063 8.267716 22.526997 4.527559 0.698640 19.842520 2.559055 0.000000 19.842520 6.496063 0.000000 15.984252 0.813078 12.897637 15.984252 0.255906 11.056525 18.923885 0.683271 13.412072 18.923885 0.106627 11.366393 21.023623 0.590551 13.559054 21.023623 8.464567 13.559054 24.173227 0.590551 13.779528 24.173227 8.464567 13.779528 18.923885 8.371847 13.412072 18.923885 8.948490 11.366393 15.984252 8.242041 12.897637 15.984252 8.799212 11.056525 11.574802 8.095472 10.259723 9.800333 7.554813 9.511533 21.942257 1.703184 1.049869 22.526997 3.508064 0.698640 21.102362 1.925710 0.629921 22.526997 5.547055 0.698640 21.023623 0.000000 11.454927 21.023623 0.590551 13.559054 24.173227 0.590551 13.779528 24.173227 0.000000 11.587728 32.440945 0.590551 13.779528 32.440945 8.464567 13.779528 32.440945 1.104074 13.779528 32.440945 7.951044 13.779528 24.173227 8.464567 13.779528 24.173227 9.055119 11.587728 21.023623 8.464567 13.559054 21.023623 9.055119 11.454927 21.102362 7.519685 1.867451 21.942257 1.279528 3.112418 21.942257 1.703184 1.049869 21.102362 7.129408 0.629921 22.791740 4.527559 0.716334 23.622046 0.767717 3.734901 26.141733 0.426509 4.668627 32.440945 0.590551 13.779528 32.440945 0.000000 11.587728 32.440945 9.055118 11.587728 32.440945 8.464567 13.779528 37.559055 0.590551 13.779528 32.440945 1.104074 13.779528 32.440945 0.590551 13.779528 32.440945 7.951044 13.779528 32.440945 8.464567 13.779528 37.559055 8.464567 13.779528 23.622046 8.287401 3.734901 26.141731 8.628610 4.668627 21.942259 7.775590 3.112418 21.102362 7.129408 0.629921 23.622046 1.258131 1.259843 24.021767 3.112030 0.885487 23.622046 1.258131 1.259843 21.942257 7.351934 1.049869 24.021769 5.943088 0.885487 24.289680 4.527559 0.897967 27.401573 0.255906 4.668627 37.559055 0.000000 11.587728 32.440945 0.000000 4.668626 32.440945 0.590551 13.779528 37.559055 0.590551 13.779528 32.440945 8.464567 13.779528 37.559055 9.055119 11.587728 37.559055 8.464567 13.779528 32.440945 9.055119 4.668627 42.958378 0.590551 13.517060 42.958378 8.464567 13.517060 27.401573 8.799212 4.668626 21.942257 7.351934 1.049869 26.141731 0.961429 1.574803 26.386692 2.833552 1.181102 23.622046 7.796988 1.259843 26.386692 6.221567 1.181102 26.586168 4.527559 1.181102 26.141731 0.961429 1.574803 27.401573 0.813078 1.574803 37.480312 0.255906 4.668627 42.958378 0.590551 13.517060 42.958378 8.464567 13.517060 43.858269 0.590551 13.412072 43.858269 8.464567 13.412072 47.457813 0.749499 12.992126 47.457813 8.305619 12.992126 23.622046 7.796988 1.259843 26.141731 8.093690 1.574803 27.401573 8.242041 1.574803 27.401573 0.813078 1.574803 27.553812 2.696119 1.181102 26.141731 8.093690 1.574803 27.553812 6.358999 1.181102 32.440945 6.574803 1.181102 32.440945 2.480315 1.181102 32.440945 0.590551 1.574803 42.958378 0.000000 11.429631 42.958378 9.055119 11.429631 37.480312 8.799212 4.668627 32.440945 8.464567 1.574803 43.858269 0.590551 13.412072 43.858269 0.000000 11.366393 47.457813 0.749499 12.992126 48.897636 0.813078 12.677165 48.897636 8.242041 12.677165 51.057369 1.067394 12.204723 51.057369 7.987724 12.204723 43.858269 8.464567 13.412072 47.457813 8.305619 12.992126 43.858269 9.055119 11.366393 32.440945 0.590551 1.574803 27.401573 8.242041 1.574803 32.440945 8.464567 1.574803 37.328075 6.358999 1.181102 37.328075 2.696119 1.181102 38.495193 6.221567 1.181102 38.295719 4.527559 1.181102 38.495193 2.833552 1.181102 38.740154 0.426509 4.668627 37.480312 0.813078 1.574803 46.349171 0.126491 11.191348 52.677166 1.258131 11.574802 52.677166 7.796988 11.574802 53.757027 1.544236 11.154856 53.757027 7.510882 11.154856 48.897636 8.242041 12.677165 51.057369 7.987724 12.204723 47.457813 8.872329 11.113440 46.349171 8.928627 11.191348 48.897636 0.813078 12.677165 47.457813 0.182790 11.113440 51.057369 1.067394 12.204723 37.480312 0.813078 1.574803 37.480312 8.242041 1.574803 38.740154 8.093689 1.574803 40.592209 4.527559 0.897967 40.860123 5.943088 0.885487 40.860123 3.112030 0.885487 38.740154 0.961429 1.574803 38.740154 8.628610 4.668627 37.480312 8.242041 1.574803 55.196854 1.925710 10.104987 55.196854 7.129408 10.104987 55.556801 2.180026 9.842520 55.556801 6.875092 9.842520 52.677166 7.796988 11.574802 53.757027 7.510882 11.154856 52.677166 8.287401 10.259723 51.057369 8.506749 10.639153 51.057369 0.548369 10.639153 52.677166 1.258131 11.574802 52.677166 0.767717 10.259723 53.757027 1.544236 11.154856 48.897636 8.799212 10.923725 48.897636 0.255906 10.923725 41.259842 7.796988 1.259843 38.740154 8.093689 1.574803 42.090149 4.527559 0.716334 42.354893 5.547055 0.698640 42.354893 3.508064 0.698640 41.259842 1.258131 1.259843 38.740154 0.961429 1.574803 41.259842 0.767717 3.734901 56.456696 2.559055 8.267716 56.456696 6.496063 8.267716 55.196854 7.519685 9.374387 55.196854 7.129408 10.104987 55.556801 6.875092 9.842520 53.757027 7.958380 10.006769 53.757027 1.096738 10.006769 55.196854 1.925710 10.104987 55.556801 2.180026 9.842520 55.196854 1.535433 9.374387 42.939632 7.775590 3.112418 41.259842 8.287401 3.734901 42.939632 1.279528 3.112418 42.939632 7.351934 1.049869 41.259842 7.796988 1.259843 42.354893 4.527559 0.698640 42.939632 1.703184 1.049869 41.259842 1.258131 1.259843 56.456696 2.559055 8.267716 55.556801 1.827896 9.216291 56.456696 6.496063 8.267716 45.039368 2.559055 0.000000 45.039368 6.496063 0.000000 56.456696 2.559055 8.267716 55.556801 7.227221 9.216291 56.456696 6.496063 8.267716 52.677166 8.287401 10.259723 45.039368 6.496063 0.000000 53.757027 7.958380 10.006769 45.039368 2.559055 0.000000 52.677166 0.767717 10.259723 53.757027 1.096738 10.006769 42.939632 7.351934 1.049869 43.779526 7.129408 0.629921 45.039368 6.496063 0.000000 43.779526 1.925710 0.629921 42.939632 1.703184 1.049869 45.039368 2.559055 0.000000 55.556801 1.827896 9.216291 56.456696 2.559055 8.267716 55.556801 7.227221 9.216291 56.456696 6.496063 8.267716 55.196854 7.519685 9.374387 55.196854 1.535433 9.374387 43.779526 7.519685 1.867451 43.779526 1.535433 1.867451 43.779526 7.129408 0.629921 43.779526 1.925710 0.629921 "
								            />
							</IndexedFaceSet>
						</Shape>
					</Group>
				</Transform>
				<Transform DEF="group_1_TRANSFORM"
				           translation="45.039398 1.377954 0.000000"
				           scale="1.000000 1.000000 1.000000"
				           rotation="0.000000 1.000000 0.000000 0.000000"
				           >
					<Transform DEF="group_2_TRANSFORM"
					           translation="0.000015 1.181103 -0.000000"
					           scale="1.000000 1.000000 1.000000"
					           rotation="0.000000 1.000000 0.000000 0.000000"
					           >
						<Transform DEF="group_2_ifs_TRANSFORM"
						           translation="0.000015 0.000001 -0.000000"
						           scale="1.000000 1.000000 1.000000"
						           rotation="0.000000 1.000000 0.000000 0.000000"
						           >
							<Group DEF="group_ME_ID5">
								<Shape>
									<Appearance>
										<Material USE="MA_material_002" />
									</Appearance>
									<IndexedFaceSet solid="false"
									                coordIndex="0 1 2 -1 3 1 4 -1 1 3 2 -1 2 3 5 -1 5 3 6 -1 6 3 7 -1 7 3 8 -1 9 10 11 -1 10 9 12 -1 12 9 13 -1 13 9 14 -1 10 15 16 -1 15 10 12 -1 17 18 19 -1 18 17 20 -1 20 17 16 -1 20 16 15 -1 21 22 23 -1 22 21 24 -1 25 26 27 -1 26 25 28 -1 28 25 29 -1 29 25 30 -1 26 31 32 -1 31 26 28 -1 33 34 35 -1 34 33 36 -1 36 33 32 -1 36 32 31 -1 37 38 39 -1 38 37 40 -1 41 42 43 -1 42 41 44 -1 45 46 47 -1 46 45 48 -1 49 50 51 -1 50 49 52 -1 53 54 55 -1 54 53 56 -1 57 58 59 -1 58 57 60 -1 61 62 63 -1 62 61 64 -1 62 64 65 -1 65 64 66 -1 65 66 67 -1 65 67 68 -1 65 68 69 -1 70 71 72 -1 71 70 73 -1 74 75 76 -1 75 74 77 -1 78 79 80 -1 79 78 81 -1 82 83 84 -1 83 82 85 -1 84 83 86 -1 86 83 87 -1 82 88 89 -1 88 82 84 -1 90 91 92 -1 91 90 93 -1 94 95 96 -1 95 94 97 -1 95 97 98 -1 98 97 99 -1 95 98 100 -1 95 100 101 -1 102 103 104 -1 103 102 105 -1 106 107 108 -1 107 106 109 -1 110 111 112 -1 111 110 113 -1 114 115 116 -1 115 114 117 -1 118 119 120 -1 119 118 121 -1 122 123 124 -1 123 122 125 -1 "
									                >
										<Coordinate DEF="coords_ME_ID5"
										            point="16.929134 0.000000 5.905512 16.929134 0.000000 0.000000 17.716536 0.000000 5.905512 25.196850 0.000000 8.267716 25.196850 0.000000 0.000000 17.818935 0.000000 6.500865 18.089094 0.000000 7.041184 18.503937 0.000000 7.480315 18.503937 0.000000 8.267716 17.716536 0.000000 5.905512 16.929134 0.393701 5.905512 16.929134 0.000000 5.905512 16.929134 3.543307 5.905512 16.929134 3.937008 5.905512 17.716536 3.937008 5.905512 12.992126 3.543307 5.905512 12.992126 0.393701 5.905512 12.992126 0.000000 5.905512 12.204723 3.937008 5.905512 12.204723 0.000000 5.905512 12.992126 3.937008 5.905512 16.929134 0.393701 5.905512 16.929134 0.000000 0.000000 16.929134 0.000000 5.905512 16.929134 0.393701 0.000000 25.196850 3.937008 0.000000 16.929134 3.543307 0.000000 16.929134 3.937008 0.000000 16.929134 0.393701 0.000000 16.929134 0.000000 0.000000 25.196850 0.000000 0.000000 12.992126 0.393701 0.000000 12.992126 3.543307 0.000000 12.992126 3.937008 0.000000 0.000000 0.000000 0.000000 0.000000 3.937008 0.000000 12.992126 0.000000 0.000000 25.196850 3.937008 0.000000 25.196850 0.000000 8.267716 25.196850 0.000000 0.000000 25.196850 3.937008 8.267716 25.196850 0.000000 8.267716 18.503937 3.937008 8.267716 18.503937 0.000000 8.267716 25.196850 3.937008 8.267716 18.503937 3.937008 8.267716 18.503937 0.000000 7.480315 18.503937 0.000000 8.267716 18.503937 3.937008 7.480315 18.503937 3.937008 7.480315 18.089094 0.000000 7.041184 18.503937 0.000000 7.480315 18.089094 3.937008 7.041184 18.089094 3.937008 7.041184 17.818935 0.000000 6.500865 18.089094 0.000000 7.041184 17.818935 3.937008 6.500865 17.818935 3.937008 6.500865 17.716536 0.000000 5.905512 17.818935 0.000000 6.500865 17.716536 3.937008 5.905512 16.929134 3.937008 5.905512 25.196850 3.937008 0.000000 16.929134 3.937008 0.000000 17.716536 3.937008 5.905512 25.196850 3.937008 8.267716 17.818935 3.937008 6.500865 18.089094 3.937008 7.041184 18.503937 3.937008 7.480315 18.503937 3.937008 8.267716 16.929134 3.937008 5.905512 16.929134 3.543307 0.000000 16.929134 3.543307 5.905512 16.929134 3.937008 0.000000 12.992126 3.543307 5.905512 16.929134 3.543307 0.000000 12.992126 3.543307 0.000000 16.929134 3.543307 5.905512 12.992126 3.937008 0.000000 12.992126 3.543307 5.905512 12.992126 3.543307 0.000000 12.992126 3.937008 5.905512 0.000000 3.937008 0.000000 11.417322 3.937008 7.480315 12.204723 3.937008 5.905512 11.417322 3.937008 8.267716 12.102325 3.937008 6.500865 11.832167 3.937008 7.041184 12.992126 3.937008 5.905512 12.992126 3.937008 0.000000 12.204723 3.937008 5.905512 12.102325 0.000000 6.500865 12.204723 0.000000 5.905512 12.102325 3.937008 6.500865 0.000000 0.000000 0.000000 11.417322 0.000000 7.480315 11.417322 0.000000 8.267716 12.992126 0.000000 0.000000 12.204723 0.000000 5.905512 12.992126 0.000000 5.905512 12.102325 0.000000 6.500865 11.832167 0.000000 7.041184 12.992126 0.000000 0.000000 12.992126 0.393701 5.905512 12.992126 0.000000 5.905512 12.992126 0.393701 0.000000 16.929134 0.393701 5.905512 12.992126 0.393701 0.000000 16.929134 0.393701 0.000000 12.992126 0.393701 5.905512 11.417322 0.000000 8.267716 0.000000 3.937008 0.000000 0.000000 0.000000 0.000000 11.417322 3.937008 8.267716 11.417322 3.937008 7.480315 11.417322 0.000000 8.267716 11.417322 0.000000 7.480315 11.417322 3.937008 8.267716 11.832167 3.937008 7.041184 11.417322 0.000000 7.480315 11.832167 0.000000 7.041184 11.417322 3.937008 7.480315 12.102325 3.937008 6.500865 11.832167 0.000000 7.041184 12.102325 0.000000 6.500865 11.832167 3.937008 7.041184 "
										            />
									</IndexedFaceSet>
								</Shape>
							</Group>
						</Transform>
					</Transform>
					<Transform DEF="instance_0_TRANSFORM"
					           translation="11.417343 6.299214 5.905512"
					           scale="1.000000 1.000000 1.000000"
					           rotation="0.000000 0.000000 -1.000000 1.570796"
					           >
						<Transform DEF="instance_0_ifs_TRANSFORM"
						           translation="-0.000003 0.000032 0.000000"
						           scale="1.000000 1.000000 1.000000"
						           rotation="0.000000 0.000000 0.000000 0.000000"
						           >
							<Group DEF="group_ME_ID15">
								<Shape>
									<Appearance>
									</Appearance>
									<IndexedFaceSet solid="false"
									                coordIndex="0 1 2 -1 1 0 3 -1 4 5 6 -1 5 4 7 -1 8 9 10 -1 9 8 11 -1 12 13 14 -1 13 12 15 -1 11 16 17 -1 16 11 8 -1 16 8 14 -1 16 14 13 -1 9 18 19 -1 18 9 11 -1 20 21 22 -1 21 20 23 -1 23 20 24 -1 24 20 25 -1 25 20 26 -1 22 27 28 -1 27 22 21 -1 29 30 31 -1 30 29 32 -1 33 34 35 -1 34 33 36 -1 34 36 37 -1 35 38 39 -1 38 35 34 -1 39 38 40 -1 41 42 43 -1 42 41 44 -1 45 46 47 -1 46 45 48 -1 49 50 51 -1 50 49 52 -1 53 54 55 -1 54 53 56 -1 57 58 59 -1 58 57 60 -1 61 62 63 -1 62 61 64 -1 62 64 60 -1 60 64 58 -1 65 66 67 -1 66 65 68 -1 69 70 71 -1 70 69 72 -1 73 74 75 -1 74 73 76 -1 74 76 77 -1 75 78 79 -1 78 75 74 -1 79 78 80 -1 81 82 83 -1 82 81 84 -1 85 86 87 -1 86 85 88 -1 86 88 89 -1 86 89 90 -1 91 92 93 -1 92 91 94 -1 95 96 97 -1 96 95 98 -1 99 100 101 -1 100 99 102 -1 103 104 105 -1 104 103 106 -1 107 108 109 -1 108 107 110 -1 111 88 85 -1 88 111 112 -1 88 112 113 -1 88 113 89 -1 97 114 115 -1 114 97 96 -1 106 116 104 -1 116 106 117 -1 109 118 119 -1 118 109 108 -1 120 112 111 -1 112 120 121 -1 112 121 113 -1 115 122 123 -1 122 115 114 -1 117 124 116 -1 124 117 125 -1 119 126 127 -1 126 119 118 -1 128 129 130 -1 129 128 131 -1 "
									                >
										<Coordinate DEF="coords_ME_ID15"
										            point="6.299213 5.511811 3.937008 5.118110 5.511811 2.362205 6.299213 5.511811 2.362205 5.118110 5.511811 3.937008 5.118110 7.086615 3.937008 5.118110 5.511811 2.362205 5.118110 5.511811 3.937008 5.118110 7.086615 2.362205 5.118110 0.000000 2.362205 1.181102 1.574803 2.362205 1.181102 0.000000 2.362205 1.181102 5.511811 2.362205 6.299213 1.574803 2.362205 5.118110 5.511811 2.362205 5.118110 1.574803 2.362205 6.299213 5.511811 2.362205 5.118110 7.086615 2.362205 1.181102 7.086615 2.362205 0.000000 5.511811 2.362205 0.000000 1.574803 2.362205 6.299213 6.299213 1.574803 6.299213 1.574803 2.362205 6.299213 0.000000 1.574803 6.299213 5.511811 2.362205 6.299213 5.511811 3.937008 6.299213 7.086615 3.937008 6.299213 7.086615 1.574803 6.299213 1.574803 3.937008 6.299213 0.000000 3.937008 6.299213 5.511811 3.937008 5.118110 7.086615 3.937008 5.118110 5.511811 3.937008 6.299213 7.086615 3.937008 0.000000 7.086615 1.574803 1.181102 7.086615 2.362205 6.299213 7.086615 1.574803 0.000000 7.086615 3.937008 1.181102 7.086615 3.937008 5.118110 7.086615 2.362205 6.299213 7.086615 3.937008 5.118110 7.086615 3.937008 5.118110 1.574803 3.937008 5.118110 0.000000 2.362205 5.118110 0.000000 3.937008 5.118110 1.574803 2.362205 5.118110 1.574803 2.362205 6.299213 1.574803 3.937008 6.299213 1.574803 2.362205 5.118110 1.574803 3.937008 1.181102 7.086615 2.362205 1.181102 5.511811 3.937008 1.181102 5.511811 2.362205 1.181102 7.086615 3.937008 1.181102 5.511811 2.362205 0.000000 5.511811 3.937008 0.000000 5.511811 2.362205 1.181102 5.511811 3.937008 0.000000 7.086615 3.937008 0.000000 5.511811 2.362205 0.000000 5.511811 3.937008 0.000000 7.086615 1.574803 0.000000 1.574803 3.937008 0.000000 0.000000 1.574803 0.000000 0.000000 3.937008 0.000000 1.574803 2.362205 0.000000 1.574803 3.937008 1.181102 1.574803 2.362205 0.000000 1.574803 2.362205 1.181102 1.574803 3.937008 1.181102 1.574803 2.362205 1.181102 0.000000 3.937008 1.181102 0.000000 2.362205 1.181102 1.574803 3.937008 6.299213 0.000000 1.574803 5.118110 0.000000 2.362205 0.000000 0.000000 1.574803 6.299213 0.000000 3.937008 5.118110 0.000000 3.937008 1.181102 0.000000 2.362205 0.000000 0.000000 3.937008 1.181102 0.000000 3.937008 6.299213 0.000000 3.937008 5.118110 1.574803 3.937008 5.118110 0.000000 3.937008 6.299213 1.574803 3.937008 5.884369 0.414843 1.135672 6.299213 6.299213 1.574803 6.299213 0.000000 1.574803 5.884369 6.299213 1.135672 5.884369 6.671771 1.135672 6.299213 7.086615 1.574803 1.181102 5.511811 3.937008 0.000000 7.086615 3.937008 0.000000 5.511811 3.937008 1.181102 7.086615 3.937008 0.000000 7.086615 1.574803 5.884369 6.671771 1.135672 0.414843 6.671771 1.135672 6.299213 7.086615 1.574803 1.181102 0.000000 3.937008 0.000000 1.574803 3.937008 0.000000 0.000000 3.937008 1.181102 1.574803 3.937008 0.000000 7.086615 1.574803 0.414843 0.414843 1.135672 0.000000 0.000000 1.574803 0.414843 6.671771 1.135672 6.299213 0.000000 1.574803 0.414843 0.414843 1.135672 5.884369 0.414843 1.135672 0.000000 0.000000 1.574803 5.614210 0.685003 0.595353 5.614210 6.299213 0.595353 5.614210 6.401612 0.595353 5.614210 6.401612 0.595353 0.685003 6.401612 0.595353 0.685003 0.685003 0.595353 0.685003 6.401612 0.595353 0.685003 0.685003 0.595353 5.614210 0.685003 0.595353 5.511811 0.787402 0.000000 5.511811 6.299213 0.000000 5.511811 6.299213 0.000000 0.787402 6.299213 0.000000 0.787402 0.787402 0.000000 0.787402 6.299213 0.000000 0.787402 0.787402 0.000000 5.511811 0.787402 0.000000 5.511811 6.299213 0.000000 0.787402 0.787402 0.000000 0.787402 6.299213 0.000000 5.511811 0.787402 0.000000 "
										            />
									</IndexedFaceSet>
								</Shape>
							</Group>
						</Transform>
					</Transform>
				</Transform>
				<Transform DEF="group_3_TRANSFORM"
				           translation="0.000015 2.559055 0.000000"
				           scale="1.000000 1.000000 1.000000"
				           rotation="0.000000 1.000000 0.000000 0.000000"
				           >
					<Transform DEF="group_3_ifs_TRANSFORM"
					           translation="0.000015 0.000001 0.000000"
					           scale="1.000000 1.000000 1.000000"
					           rotation="0.000000 1.000000 0.000000 0.000000"
					           >
						<Group DEF="group_ME_ID22">
							<Shape>
								<Appearance>
									<Material USE="MA_material_002" />
								</Appearance>
								<IndexedFaceSet solid="false"
								                coordIndex="0 1 2 -1 1 0 3 -1 4 5 6 -1 5 4 7 -1 8 9 10 -1 9 8 11 -1 12 13 14 -1 13 12 15 -1 16 17 18 -1 17 16 19 -1 20 21 22 -1 21 20 23 -1 "
								                >
									<Coordinate DEF="coords_ME_ID22"
									            point="19.842520 0.000000 0.000000 0.000000 0.000000 8.267716 0.000000 0.000000 0.000000 8.425197 0.000000 8.267716 19.842520 3.937008 0.000000 0.000000 0.000000 0.000000 0.000000 3.937008 0.000000 19.842520 0.000000 0.000000 8.425197 0.000000 8.267716 19.842520 3.937008 0.000000 8.425197 3.937008 8.267716 19.842520 0.000000 0.000000 0.000000 0.000000 8.267716 8.425197 3.937008 8.267716 0.000000 3.937008 8.267716 8.425197 0.000000 8.267716 0.000000 3.937008 8.267716 0.000000 0.000000 0.000000 0.000000 0.000000 8.267716 0.000000 3.937008 0.000000 0.000000 3.937008 8.267716 19.842520 3.937008 0.000000 0.000000 3.937008 0.000000 8.425197 3.937008 8.267716 "
									            />
								</IndexedFaceSet>
							</Shape>
						</Group>
					</Transform>
				</Transform>
			</Transform>
			<Transform DEF="group_0_001_TRANSFORM"
			           translation="207.009445 12.324031 -0.000000"
			           scale="1.000000 1.000000 1.000000"
			           rotation="0.000000 1.000000 0.000000 0.000000"
			           >
				<Transform DEF="group_0_001_ifs_TRANSFORM"
				           translation="0.000015 0.000000 -0.000000"
				           scale="1.000000 1.000000 1.000000"
				           rotation="0.000000 1.000000 0.000000 0.000000"
				           >
					<Group DEF="group_ME_ID34">
					</Group>
				</Transform>
			</Transform>
			<Transform DEF="group_4_TRANSFORM"
			           translation="207.009445 9.961826 -11.181102"
			           scale="1.000000 1.000000 1.000000"
			           rotation="-1.000000 0.000000 0.000000 1.570796"
			           >
				<Transform DEF="group_4_ifs_TRANSFORM"
				           translation="0.000015 0.000001 0.000001"
				           scale="1.000000 1.000000 1.000000"
				           rotation="0.000000 0.000000 0.000000 0.000000"
				           >
					<Group DEF="group_ME_ID57_001">
						<Shape>
							<Appearance>
								<Material USE="MA_material_002" />
							</Appearance>
							<IndexedFaceSet solid="false"
							                coordIndex="0 1 2 -1 1 3 2 -1 0 2 4 -1 5 6 7 -1 6 5 8 -1 1 9 3 -1 10 11 12 -1 13 0 4 -1 4 10 12 -1 6 14 7 -1 14 6 15 -1 15 6 16 -1 16 6 17 -1 18 8 5 -1 8 18 19 -1 19 18 20 -1 19 20 21 -1 22 23 24 -1 25 9 1 -1 11 26 12 -1 13 4 27 -1 4 12 28 -1 29 30 24 -1 29 31 30 -1 32 33 34 -1 33 32 35 -1 36 9 25 -1 37 21 20 -1 21 37 38 -1 38 37 39 -1 39 37 40 -1 41 42 43 -1 43 44 22 -1 45 13 27 -1 24 23 46 -1 22 44 23 -1 26 47 12 -1 27 4 28 -1 28 12 48 -1 24 46 29 -1 49 50 51 -1 52 53 54 -1 55 45 56 -1 57 55 58 -1 59 39 40 -1 39 59 60 -1 60 59 61 -1 60 61 62 -1 63 64 65 -1 65 66 41 -1 43 42 44 -1 41 66 42 -1 45 27 56 -1 67 50 68 -1 44 50 67 -1 56 27 28 -1 28 48 69 -1 70 71 53 -1 68 50 49 -1 52 54 72 -1 70 53 52 -1 55 56 58 -1 57 58 73 -1 74 57 73 -1 75 74 76 -1 77 62 61 -1 62 77 78 -1 78 77 79 -1 78 79 80 -1 81 82 83 -1 83 84 63 -1 65 64 66 -1 63 84 64 -1 42 85 44 -1 66 85 42 -1 44 85 50 -1 56 28 86 -1 70 87 71 -1 86 28 69 -1 72 54 88 -1 89 52 72 -1 89 70 52 -1 58 56 90 -1 73 58 91 -1 74 73 76 -1 92 76 93 -1 76 92 75 -1 81 94 82 -1 94 81 95 -1 96 97 98 -1 97 96 99 -1 99 96 100 -1 100 96 101 -1 83 82 84 -1 64 102 66 -1 84 103 64 -1 66 104 85 -1 85 105 50 -1 56 86 90 -1 70 106 87 -1 106 70 107 -1 86 69 108 -1 72 88 109 -1 110 89 72 -1 89 110 111 -1 89 107 70 -1 107 89 111 -1 58 90 91 -1 73 91 112 -1 76 73 112 -1 113 93 114 -1 76 114 93 -1 113 115 93 -1 115 113 116 -1 117 118 94 -1 118 117 119 -1 94 120 82 -1 121 101 96 -1 101 121 122 -1 82 123 84 -1 66 102 104 -1 64 103 102 -1 84 123 103 -1 104 124 85 -1 85 124 105 -1 90 86 108 -1 107 125 106 -1 125 107 126 -1 127 72 109 -1 72 127 110 -1 128 111 110 -1 111 128 129 -1 111 126 107 -1 126 111 129 -1 91 90 130 -1 91 131 112 -1 76 112 114 -1 113 114 132 -1 116 113 133 -1 119 134 118 -1 118 120 94 -1 82 120 123 -1 135 122 121 -1 122 135 136 -1 136 135 137 -1 136 137 138 -1 102 139 104 -1 103 140 102 -1 123 141 103 -1 104 139 124 -1 90 108 130 -1 126 142 125 -1 142 126 143 -1 144 110 127 -1 110 144 128 -1 145 129 128 -1 129 143 126 -1 143 129 145 -1 143 145 146 -1 143 146 147 -1 91 130 131 -1 112 131 148 -1 114 112 148 -1 113 132 149 -1 132 114 148 -1 133 113 149 -1 134 150 118 -1 118 151 120 -1 120 152 123 -1 133 149 153 -1 153 154 155 -1 156 138 137 -1 138 156 157 -1 157 156 158 -1 157 158 159 -1 160 161 162 -1 134 160 150 -1 102 140 139 -1 103 141 140 -1 123 152 141 -1 143 163 142 -1 163 143 147 -1 164 128 144 -1 128 164 145 -1 165 145 164 -1 145 165 146 -1 166 147 146 -1 147 166 167 -1 167 166 168 -1 167 168 169 -1 170 167 169 -1 149 132 171 -1 132 148 172 -1 118 150 151 -1 151 152 120 -1 153 149 154 -1 155 154 173 -1 174 159 158 -1 159 174 175 -1 175 174 176 -1 175 176 177 -1 178 179 180 -1 161 178 181 -1 155 173 182 -1 182 183 184 -1 161 181 162 -1 160 162 150 -1 167 163 147 -1 163 167 185 -1 165 166 146 -1 166 165 186 -1 186 168 166 -1 168 186 187 -1 168 188 169 -1 188 168 189 -1 188 170 169 -1 170 188 190 -1 170 185 167 -1 185 170 191 -1 149 171 154 -1 132 172 171 -1 150 192 151 -1 151 193 152 -1 154 171 173 -1 194 177 176 -1 177 194 195 -1 195 194 196 -1 195 196 197 -1 198 199 200 -1 179 198 201 -1 184 202 203 -1 203 204 205 -1 179 206 180 -1 178 180 181 -1 182 173 183 -1 184 183 207 -1 162 181 192 -1 150 162 192 -1 187 189 168 -1 189 187 208 -1 192 209 193 -1 189 210 188 -1 210 189 211 -1 210 190 188 -1 190 210 212 -1 190 191 170 -1 191 190 213 -1 171 172 214 -1 192 193 151 -1 173 171 215 -1 216 197 196 -1 197 216 217 -1 218 219 220 -1 199 219 221 -1 205 222 223 -1 224 223 225 -1 198 200 201 -1 199 221 200 -1 179 201 206 -1 184 207 202 -1 203 202 204 -1 205 204 222 -1 180 206 226 -1 181 180 227 -1 173 215 183 -1 183 228 207 -1 181 227 192 -1 208 211 189 -1 211 208 229 -1 227 230 209 -1 192 227 209 -1 211 231 210 -1 212 213 190 -1 213 212 232 -1 231 212 210 -1 215 214 233 -1 171 214 215 -1 234 224 235 -1 236 237 238 -1 237 236 239 -1 240 220 241 -1 218 220 240 -1 219 218 221 -1 223 222 225 -1 224 225 235 -1 201 242 243 -1 242 244 243 -1 206 201 226 -1 207 228 202 -1 202 245 246 -1 246 245 247 -1 180 226 227 -1 183 215 228 -1 226 248 230 -1 249 211 229 -1 227 226 230 -1 250 231 211 -1 251 232 212 -1 228 233 252 -1 253 212 231 -1 215 233 228 -1 254 245 255 -1 256 257 243 -1 253 231 250 -1 258 256 243 -1 244 258 243 -1 247 245 259 -1 259 245 254 -1 201 243 260 -1 201 260 226 -1 202 228 261 -1 202 261 245 -1 226 260 248 -1 250 211 249 -1 260 262 248 -1 253 251 212 -1 261 252 263 -1 228 252 261 -1 260 243 262 -1 261 263 245 -1 "
							                >
								<Coordinate DEF="coords_ME_ID57_001"
								            point="11.574802 1.425026 11.574802 9.800333 1.895164 10.332673 11.574802 0.959646 10.259723 9.800333 1.500305 9.511533 12.204723 0.767717 10.392523 11.574802 1.425026 11.574802 9.800333 7.159954 10.332673 9.800333 1.895164 10.332673 11.574802 7.630093 11.574802 9.685040 1.535433 9.407249 11.574802 0.959646 10.259723 9.800333 1.500305 9.511533 19.842520 2.559055 0.000000 12.204723 1.258131 11.795275 9.685040 1.925710 10.159545 8.425197 2.559055 8.267716 8.425197 6.496063 8.267716 9.685040 7.129408 10.159545 12.204723 1.258131 11.795275 12.204723 7.796988 11.795275 14.724409 0.961429 12.677165 14.724409 8.093689 12.677165 11.574802 7.630093 11.574802 11.574802 8.095472 10.259723 9.800333 7.159954 10.332673 9.685040 1.925710 10.159545 9.685040 1.535433 9.407249 14.724409 0.426509 10.923725 21.102362 1.535433 1.867451 9.685040 7.519685 9.407249 9.685040 7.129408 10.159545 8.425197 6.496063 8.267716 19.842520 6.496063 0.000000 8.425197 2.559055 8.267716 8.425197 6.496063 8.267716 19.842520 2.559055 0.000000 8.425197 2.559055 8.267716 15.984252 0.813078 12.897637 15.984252 8.242041 12.897637 18.923885 8.371847 13.412072 18.923885 0.683271 13.412072 14.724409 8.093689 12.677165 14.724409 8.628610 10.923725 12.204723 7.796988 11.795275 12.204723 8.287401 10.392524 14.724409 0.961429 12.677165 9.800333 7.554813 9.511533 8.425197 2.559055 8.267716 21.102362 1.925710 0.629921 9.685040 7.519685 9.407249 19.842520 6.496063 0.000000 8.425197 6.496063 8.267716 22.526997 4.527559 0.698640 19.842520 2.559055 0.000000 19.842520 6.496063 0.000000 15.984252 0.813078 12.897637 15.984252 0.255906 11.056525 18.923885 0.683271 13.412072 18.923885 0.106627 11.366393 21.023623 0.590551 13.559054 21.023623 8.464567 13.559054 24.173227 0.590551 13.779528 24.173227 8.464567 13.779528 18.923885 8.371847 13.412072 18.923885 8.948490 11.366393 15.984252 8.242041 12.897637 15.984252 8.799212 11.056525 11.574802 8.095472 10.259723 9.800333 7.554813 9.511533 21.942257 1.703184 1.049869 22.526997 3.508064 0.698640 21.102362 1.925710 0.629921 22.526997 5.547055 0.698640 21.023623 0.000000 11.454927 21.023623 0.590551 13.559054 24.173227 0.590551 13.779528 24.173227 0.000000 11.587728 32.440945 0.590551 13.779528 32.440945 8.464567 13.779528 32.440945 1.104074 13.779528 32.440945 7.951044 13.779528 24.173227 8.464567 13.779528 24.173227 9.055119 11.587728 21.023623 8.464567 13.559054 21.023623 9.055119 11.454927 21.102362 7.519685 1.867451 21.942257 1.279528 3.112418 21.942257 1.703184 1.049869 21.102362 7.129408 0.629921 22.791740 4.527559 0.716334 23.622046 0.767717 3.734901 26.141733 0.426509 4.668627 32.440945 0.590551 13.779528 32.440945 0.000000 11.587728 32.440945 9.055118 11.587728 32.440945 8.464567 13.779528 37.559055 0.590551 13.779528 32.440945 1.104074 13.779528 32.440945 0.590551 13.779528 32.440945 7.951044 13.779528 32.440945 8.464567 13.779528 37.559055 8.464567 13.779528 23.622046 8.287401 3.734901 26.141731 8.628610 4.668627 21.942259 7.775590 3.112418 21.102362 7.129408 0.629921 23.622046 1.258131 1.259843 24.021767 3.112030 0.885487 23.622046 1.258131 1.259843 21.942257 7.351934 1.049869 24.021769 5.943088 0.885487 24.289680 4.527559 0.897967 27.401573 0.255906 4.668627 37.559055 0.000000 11.587728 32.440945 0.000000 4.668626 32.440945 0.590551 13.779528 37.559055 0.590551 13.779528 32.440945 8.464567 13.779528 37.559055 9.055119 11.587728 37.559055 8.464567 13.779528 32.440945 9.055119 4.668627 42.958378 0.590551 13.517060 42.958378 8.464567 13.517060 27.401573 8.799212 4.668626 21.942257 7.351934 1.049869 26.141731 0.961429 1.574803 26.386692 2.833552 1.181102 23.622046 7.796988 1.259843 26.386692 6.221567 1.181102 26.586168 4.527559 1.181102 26.141731 0.961429 1.574803 27.401573 0.813078 1.574803 37.480312 0.255906 4.668627 42.958378 0.590551 13.517060 42.958378 8.464567 13.517060 43.858269 0.590551 13.412072 43.858269 8.464567 13.412072 47.457813 0.749499 12.992126 47.457813 8.305619 12.992126 23.622046 7.796988 1.259843 26.141731 8.093690 1.574803 27.401573 8.242041 1.574803 27.401573 0.813078 1.574803 27.553812 2.696119 1.181102 26.141731 8.093690 1.574803 27.553812 6.358999 1.181102 32.440945 6.574803 1.181102 32.440945 2.480315 1.181102 32.440945 0.590551 1.574803 42.958378 0.000000 11.429631 42.958378 9.055119 11.429631 37.480312 8.799212 4.668627 32.440945 8.464567 1.574803 43.858269 0.590551 13.412072 43.858269 0.000000 11.366393 47.457813 0.749499 12.992126 48.897636 0.813078 12.677165 48.897636 8.242041 12.677165 51.057369 1.067394 12.204723 51.057369 7.987724 12.204723 43.858269 8.464567 13.412072 47.457813 8.305619 12.992126 43.858269 9.055119 11.366393 32.440945 0.590551 1.574803 27.401573 8.242041 1.574803 32.440945 8.464567 1.574803 37.328075 6.358999 1.181102 37.328075 2.696119 1.181102 38.495193 6.221567 1.181102 38.295719 4.527559 1.181102 38.495193 2.833552 1.181102 38.740154 0.426509 4.668627 37.480312 0.813078 1.574803 46.349171 0.126491 11.191348 52.677166 1.258131 11.574802 52.677166 7.796988 11.574802 53.757027 1.544236 11.154856 53.757027 7.510882 11.154856 48.897636 8.242041 12.677165 51.057369 7.987724 12.204723 47.457813 8.872329 11.113440 46.349171 8.928627 11.191348 48.897636 0.813078 12.677165 47.457813 0.182790 11.113440 51.057369 1.067394 12.204723 37.480312 0.813078 1.574803 37.480312 8.242041 1.574803 38.740154 8.093689 1.574803 40.592209 4.527559 0.897967 40.860123 5.943088 0.885487 40.860123 3.112030 0.885487 38.740154 0.961429 1.574803 38.740154 8.628610 4.668627 37.480312 8.242041 1.574803 55.196854 1.925710 10.104987 55.196854 7.129408 10.104987 55.556801 2.180026 9.842520 55.556801 6.875092 9.842520 52.677166 7.796988 11.574802 53.757027 7.510882 11.154856 52.677166 8.287401 10.259723 51.057369 8.506749 10.639153 51.057369 0.548369 10.639153 52.677166 1.258131 11.574802 52.677166 0.767717 10.259723 53.757027 1.544236 11.154856 48.897636 8.799212 10.923725 48.897636 0.255906 10.923725 41.259842 7.796988 1.259843 38.740154 8.093689 1.574803 42.090149 4.527559 0.716334 42.354893 5.547055 0.698640 42.354893 3.508064 0.698640 41.259842 1.258131 1.259843 38.740154 0.961429 1.574803 41.259842 0.767717 3.734901 56.456696 2.559055 8.267716 56.456696 6.496063 8.267716 55.196854 7.519685 9.374387 55.196854 7.129408 10.104987 55.556801 6.875092 9.842520 53.757027 7.958380 10.006769 53.757027 1.096738 10.006769 55.196854 1.925710 10.104987 55.556801 2.180026 9.842520 55.196854 1.535433 9.374387 42.939632 7.775590 3.112418 41.259842 8.287401 3.734901 42.939632 1.279528 3.112418 42.939632 7.351934 1.049869 41.259842 7.796988 1.259843 42.354893 4.527559 0.698640 42.939632 1.703184 1.049869 41.259842 1.258131 1.259843 56.456696 2.559055 8.267716 55.556801 1.827896 9.216291 56.456696 6.496063 8.267716 45.039368 2.559055 0.000000 45.039368 6.496063 0.000000 56.456696 2.559055 8.267716 55.556801 7.227221 9.216291 56.456696 6.496063 8.267716 52.677166 8.287401 10.259723 45.039368 6.496063 0.000000 53.757027 7.958380 10.006769 45.039368 2.559055 0.000000 52.677166 0.767717 10.259723 53.757027 1.096738 10.006769 42.939632 7.351934 1.049869 43.779526 7.129408 0.629921 45.039368 6.496063 0.000000 43.779526 1.925710 0.629921 42.939632 1.703184 1.049869 45.039368 2.559055 0.000000 55.556801 1.827896 9.216291 56.456696 2.559055 8.267716 55.556801 7.227221 9.216291 56.456696 6.496063 8.267716 55.196854 7.519685 9.374387 55.196854 1.535433 9.374387 43.779526 7.519685 1.867451 43.779526 1.535433 1.867451 43.779526 7.129408 0.629921 43.779526 1.925710 0.629921 "
								            />
							</IndexedFaceSet>
						</Shape>
					</Group>
				</Transform>
				<Transform DEF="group_1_001_TRANSFORM"
				           translation="45.039398 1.377953 0.000001"
				           scale="1.000000 1.000000 1.000000"
				           rotation="0.000000 0.000000 0.000000 0.000000"
				           >
					<Transform DEF="group_2_001_TRANSFORM"
					           translation="0.000015 1.181103 0.000001"
					           scale="1.000000 1.000000 1.000000"
					           rotation="0.000000 0.000000 0.000000 0.000000"
					           >
						<Transform DEF="group_2_001_ifs_TRANSFORM"
						           translation="0.000015 -0.000000 0.000001"
						           scale="1.000000 1.000000 1.000000"
						           rotation="0.000000 0.000000 0.000000 0.000000"
						           >
							<Group DEF="group_ME_ID43">
								<Shape>
									<Appearance>
										<Material USE="MA_material_002" />
									</Appearance>
									<IndexedFaceSet solid="false"
									                coordIndex="0 1 2 -1 3 1 4 -1 1 3 2 -1 2 3 5 -1 5 3 6 -1 6 3 7 -1 7 3 8 -1 9 10 11 -1 10 9 12 -1 12 9 13 -1 13 9 14 -1 10 15 16 -1 15 10 12 -1 17 18 19 -1 18 17 20 -1 20 17 16 -1 20 16 15 -1 21 22 23 -1 22 21 24 -1 25 26 27 -1 26 25 28 -1 28 25 29 -1 29 25 30 -1 26 31 32 -1 31 26 28 -1 33 34 35 -1 34 33 36 -1 36 33 32 -1 36 32 31 -1 37 38 39 -1 38 37 40 -1 41 42 43 -1 42 41 44 -1 45 46 47 -1 46 45 48 -1 49 50 51 -1 50 49 52 -1 53 54 55 -1 54 53 56 -1 57 58 59 -1 58 57 60 -1 61 62 63 -1 62 61 64 -1 62 64 65 -1 65 64 66 -1 65 66 67 -1 65 67 68 -1 65 68 69 -1 70 71 72 -1 71 70 73 -1 74 75 76 -1 75 74 77 -1 78 79 80 -1 79 78 81 -1 82 83 84 -1 83 82 85 -1 84 83 86 -1 86 83 87 -1 82 88 89 -1 88 82 84 -1 90 91 92 -1 91 90 93 -1 94 95 96 -1 95 94 97 -1 95 97 98 -1 98 97 99 -1 95 98 100 -1 95 100 101 -1 102 103 104 -1 103 102 105 -1 106 107 108 -1 107 106 109 -1 110 111 112 -1 111 110 113 -1 114 115 116 -1 115 114 117 -1 118 119 120 -1 119 118 121 -1 122 123 124 -1 123 122 125 -1 "
									                >
										<Coordinate DEF="coords_ME_ID43"
										            point="16.929134 0.000000 5.905512 16.929134 0.000000 0.000000 17.716536 0.000000 5.905512 25.196850 0.000000 8.267716 25.196850 0.000000 0.000000 17.818935 0.000000 6.500865 18.089094 0.000000 7.041184 18.503937 0.000000 7.480315 18.503937 0.000000 8.267716 17.716536 0.000000 5.905512 16.929134 0.393701 5.905512 16.929134 0.000000 5.905512 16.929134 3.543307 5.905512 16.929134 3.937008 5.905512 17.716536 3.937008 5.905512 12.992126 3.543307 5.905512 12.992126 0.393701 5.905512 12.992126 0.000000 5.905512 12.204723 3.937008 5.905512 12.204723 0.000000 5.905512 12.992126 3.937008 5.905512 16.929134 0.393701 5.905512 16.929134 0.000000 0.000000 16.929134 0.000000 5.905512 16.929134 0.393701 0.000000 25.196850 3.937008 0.000000 16.929134 3.543307 0.000000 16.929134 3.937008 0.000000 16.929134 0.393701 0.000000 16.929134 0.000000 0.000000 25.196850 0.000000 0.000000 12.992126 0.393701 0.000000 12.992126 3.543307 0.000000 12.992126 3.937008 0.000000 0.000000 0.000000 0.000000 0.000000 3.937008 0.000000 12.992126 0.000000 0.000000 25.196850 3.937008 0.000000 25.196850 0.000000 8.267716 25.196850 0.000000 0.000000 25.196850 3.937008 8.267716 25.196850 0.000000 8.267716 18.503937 3.937008 8.267716 18.503937 0.000000 8.267716 25.196850 3.937008 8.267716 18.503937 3.937008 8.267716 18.503937 0.000000 7.480315 18.503937 0.000000 8.267716 18.503937 3.937008 7.480315 18.503937 3.937008 7.480315 18.089094 0.000000 7.041184 18.503937 0.000000 7.480315 18.089094 3.937008 7.041184 18.089094 3.937008 7.041184 17.818935 0.000000 6.500865 18.089094 0.000000 7.041184 17.818935 3.937008 6.500865 17.818935 3.937008 6.500865 17.716536 0.000000 5.905512 17.818935 0.000000 6.500865 17.716536 3.937008 5.905512 16.929134 3.937008 5.905512 25.196850 3.937008 0.000000 16.929134 3.937008 0.000000 17.716536 3.937008 5.905512 25.196850 3.937008 8.267716 17.818935 3.937008 6.500865 18.089094 3.937008 7.041184 18.503937 3.937008 7.480315 18.503937 3.937008 8.267716 16.929134 3.937008 5.905512 16.929134 3.543307 0.000000 16.929134 3.543307 5.905512 16.929134 3.937008 0.000000 12.992126 3.543307 5.905512 16.929134 3.543307 0.000000 12.992126 3.543307 0.000000 16.929134 3.543307 5.905512 12.992126 3.937008 0.000000 12.992126 3.543307 5.905512 12.992126 3.543307 0.000000 12.992126 3.937008 5.905512 0.000000 3.937008 0.000000 11.417322 3.937008 7.480315 12.204723 3.937008 5.905512 11.417322 3.937008 8.267716 12.102325 3.937008 6.500865 11.832167 3.937008 7.041184 12.992126 3.937008 5.905512 12.992126 3.937008 0.000000 12.204723 3.937008 5.905512 12.102325 0.000000 6.500865 12.204723 0.000000 5.905512 12.102325 3.937008 6.500865 0.000000 0.000000 0.000000 11.417322 0.000000 7.480315 11.417322 0.000000 8.267716 12.992126 0.000000 0.000000 12.204723 0.000000 5.905512 12.992126 0.000000 5.905512 12.102325 0.000000 6.500865 11.832167 0.000000 7.041184 12.992126 0.000000 0.000000 12.992126 0.393701 5.905512 12.992126 0.000000 5.905512 12.992126 0.393701 0.000000 16.929134 0.393701 5.905512 12.992126 0.393701 0.000000 16.929134 0.393701 0.000000 12.992126 0.393701 5.905512 11.417322 0.000000 8.267716 0.000000 3.937008 0.000000 0.000000 0.000000 0.000000 11.417322 3.937008 8.267716 11.417322 3.937008 7.480315 11.417322 0.000000 8.267716 11.417322 0.000000 7.480315 11.417322 3.937008 8.267716 11.832167 3.937008 7.041184 11.417322 0.000000 7.480315 11.832167 0.000000 7.041184 11.417322 3.937008 7.480315 12.102325 3.937008 6.500865 11.832167 0.000000 7.041184 12.102325 0.000000 6.500865 11.832167 3.937008 7.041184 "
										            />
									</IndexedFaceSet>
								</Shape>
							</Group>
						</Transform>
					</Transform>
					<Transform DEF="instance_0_001_TRANSFORM"
					           translation="11.417343 6.299214 5.905512"
					           scale="1.000000 1.000000 1.000000"
					           rotation="0.000000 0.000000 -1.000000 1.570796"
					           >
						<Transform DEF="instance_0_001_ifs_TRANSFORM"
						           translation="-0.000000 0.000032 0.000002"
						           scale="1.000000 1.000000 1.000000"
						           rotation="0.000000 0.000000 0.000000 0.000000"
						           >
							<Group USE="group_ME_ID15" />
						</Transform>
					</Transform>
				</Transform>
				<Transform DEF="group_3_001_TRANSFORM"
				           translation="0.000015 2.559056 0.000001"
				           scale="1.000000 1.000000 1.000000"
				           rotation="0.000000 0.000000 0.000000 0.000000"
				           >
					<Transform DEF="group_3_001_ifs_TRANSFORM"
					           translation="0.000015 -0.000000 0.000001"
					           scale="1.000000 1.000000 1.000000"
					           rotation="0.000000 0.000000 0.000000 0.000000"
					           >
						<Group DEF="group_ME_ID51">
							<Shape>
								<Appearance>
									<Material USE="MA_material_002" />
								</Appearance>
								<IndexedFaceSet solid="false"
								                coordIndex="0 1 2 -1 1 0 3 -1 4 5 6 -1 5 4 7 -1 8 9 10 -1 9 8 11 -1 12 13 14 -1 13 12 15 -1 16 17 18 -1 17 16 19 -1 20 21 22 -1 21 20 23 -1 "
								                >
									<Coordinate DEF="coords_ME_ID51"
									            point="19.842520 0.000000 0.000000 0.000000 0.000000 8.267716 0.000000 0.000000 0.000000 8.425197 0.000000 8.267716 19.842520 3.937008 0.000000 0.000000 0.000000 0.000000 0.000000 3.937008 0.000000 19.842520 0.000000 0.000000 8.425197 0.000000 8.267716 19.842520 3.937008 0.000000 8.425197 3.937008 8.267716 19.842520 0.000000 0.000000 0.000000 0.000000 8.267716 8.425197 3.937008 8.267716 0.000000 3.937008 8.267716 8.425197 0.000000 8.267716 0.000000 3.937008 8.267716 0.000000 0.000000 0.000000 0.000000 0.000000 8.267716 0.000000 3.937008 0.000000 0.000000 3.937008 8.267716 19.842520 3.937008 0.000000 0.000000 3.937008 0.000000 8.425197 3.937008 8.267716 "
									            />
								</IndexedFaceSet>
							</Shape>
						</Group>
					</Transform>
				</Transform>
			</Transform>
			<Transform DEF="group_4_001_TRANSFORM"
			           translation="207.009445 9.961826 -11.181102"
			           scale="1.000000 1.000000 1.000000"
			           rotation="-1.000000 0.000000 0.000000 1.570796"
			           >
				<Transform DEF="group_4_001_ifs_TRANSFORM"
				           translation="0.000015 0.000001 0.000001"
				           scale="1.000000 1.000000 1.000000"
				           rotation="0.000000 0.000000 0.000000 0.000000"
				           >
					<Group DEF="group_ME_ID63">
					</Group>
				</Transform>
			</Transform>
			<Transform DEF="group_5_TRANSFORM"
			           translation="9.725992 12.324031 -0.000000"
			           scale="1.000000 1.000000 1.000000"
			           rotation="0.000000 1.000000 0.000000 0.000000"
			           >
				<Transform DEF="group_5_ifs_TRANSFORM"
				           translation="0.000000 0.000000 0.000000"
				           scale="1.000000 1.000000 1.000000"
				           rotation="0.000000 1.000000 0.000000 0.000000"
				           >
					<Group DEF="group_ME_ID68">
						<Shape>
							<Appearance>
								<Material USE="MA_material_002" />
							</Appearance>
							<IndexedFaceSet solid="false"
							                coordIndex="0 1 2 -1 1 0 3 -1 3 0 4 -1 3 4 5 -1 6 7 8 -1 7 6 9 -1 10 11 12 -1 11 10 13 -1 13 10 2 -1 13 2 1 -1 14 15 16 -1 15 14 17 -1 18 19 20 -1 19 18 21 -1 19 21 22 -1 19 22 23 -1 23 22 24 -1 24 22 25 -1 25 22 26 -1 26 22 27 -1 6 8 28 -1 7 29 8 -1 30 31 32 -1 31 30 33 -1 33 30 11 -1 11 30 12 -1 34 35 36 -1 17 34 15 -1 28 37 38 -1 15 39 16 -1 39 40 41 -1 29 42 43 -1 28 8 37 -1 8 29 43 -1 44 45 46 -1 45 44 47 -1 47 44 32 -1 47 32 31 -1 48 49 50 -1 35 48 51 -1 38 52 53 -1 53 54 55 -1 35 51 36 -1 34 36 15 -1 38 37 52 -1 15 40 39 -1 40 56 41 -1 43 42 57 -1 8 43 37 -1 55 58 59 -1 59 60 61 -1 46 62 63 -1 62 46 45 -1 64 65 66 -1 49 64 67 -1 49 67 50 -1 48 50 51 -1 53 52 54 -1 55 54 58 -1 36 51 68 -1 15 36 40 -1 37 69 52 -1 68 56 40 -1 70 71 72 -1 71 70 73 -1 74 75 76 -1 75 74 77 -1 43 57 69 -1 37 43 69 -1 59 58 60 -1 61 60 78 -1 62 79 63 -1 79 62 80 -1 80 62 81 -1 81 62 82 -1 65 83 84 -1 61 78 85 -1 65 84 66 -1 64 66 67 -1 50 67 86 -1 51 50 87 -1 52 88 54 -1 54 89 58 -1 51 87 68 -1 36 68 40 -1 52 69 88 -1 68 90 56 -1 91 72 92 -1 72 91 70 -1 75 93 94 -1 93 70 91 -1 70 93 75 -1 70 75 77 -1 70 77 73 -1 76 94 95 -1 94 76 75 -1 69 57 96 -1 58 89 60 -1 60 97 98 -1 99 100 85 -1 99 101 100 -1 102 103 104 -1 103 102 105 -1 106 107 108 -1 108 107 83 -1 83 109 84 -1 85 78 110 -1 66 111 112 -1 67 66 86 -1 50 86 113 -1 50 113 87 -1 54 88 114 -1 54 114 89 -1 68 87 90 -1 69 96 88 -1 115 92 116 -1 92 115 91 -1 117 91 115 -1 91 117 93 -1 94 117 118 -1 117 94 93 -1 95 118 119 -1 118 95 94 -1 60 89 97 -1 98 97 120 -1 85 110 99 -1 121 97 122 -1 123 124 125 -1 126 127 112 -1 83 107 109 -1 111 128 112 -1 66 112 86 -1 113 86 129 -1 87 113 130 -1 88 131 114 -1 114 132 89 -1 87 130 90 -1 88 96 131 -1 133 116 134 -1 116 133 115 -1 135 115 133 -1 115 135 117 -1 118 135 136 -1 135 118 117 -1 119 136 137 -1 136 119 118 -1 89 138 97 -1 120 97 121 -1 123 125 136 -1 133 124 123 -1 128 126 112 -1 86 112 139 -1 86 139 129 -1 113 129 130 -1 114 131 132 -1 89 132 138 -1 133 134 140 -1 135 133 123 -1 135 123 136 -1 136 141 137 -1 136 125 141 -1 133 140 124 -1 "
							                >
								<Coordinate DEF="coords_ME_ID68"
								            point="24.015747 0.590551 13.779528 15.748032 8.464567 13.779528 15.748032 0.590551 13.779528 24.015747 8.464567 13.779528 24.015747 1.104074 13.779528 24.015747 7.951044 13.779528 15.748032 8.464567 13.779528 24.015747 9.055118 11.587728 15.748032 9.055119 11.587728 24.015747 8.464567 13.779528 12.598425 0.590551 13.559054 10.498688 8.371847 13.412072 10.498688 0.683271 13.412072 12.598425 8.464567 13.559054 24.015747 0.590551 13.779528 15.748032 0.000000 11.587728 24.015747 0.000000 11.587728 15.748032 0.590551 13.779528 24.015747 0.000000 4.668627 24.015747 0.590551 13.779528 24.015747 0.000000 11.587728 24.015747 0.590551 1.574803 24.015747 8.464567 1.574803 24.015747 1.104074 13.779528 24.015747 7.951044 13.779528 24.015747 8.464567 13.779528 24.015747 9.055118 11.587728 24.015747 9.055119 4.668627 12.598425 8.464567 13.559054 24.015747 9.055119 4.668627 7.559055 0.813078 12.897637 6.299213 8.093689 12.677165 6.299213 0.961429 12.677165 7.559055 8.242041 12.897637 12.598425 0.590551 13.559054 10.498688 0.683271 13.412072 12.598425 0.000000 11.454927 12.598425 9.055119 11.454927 10.498688 8.371847 13.412072 24.015747 0.000000 4.668627 18.976377 0.255906 4.668627 24.015747 0.590551 1.574803 24.015747 8.464567 1.574803 18.976377 8.799212 4.668627 3.779527 1.258131 11.795275 3.149606 7.630093 11.574802 3.149606 1.425026 11.574802 3.779527 7.796988 11.795275 7.559055 0.813078 12.897637 6.299213 0.961429 12.677165 7.559055 0.255906 11.056525 10.498688 0.106627 11.366393 10.498688 8.948490 11.366393 7.559055 8.242041 12.897637 7.559055 8.799212 11.056525 6.299213 8.093689 12.677165 18.976377 0.813078 1.574803 18.976377 8.242041 1.574803 6.299213 8.628610 10.923725 3.779527 7.796988 11.795275 3.779527 8.287401 10.392524 3.149606 7.630093 11.574802 1.375135 7.159954 10.332673 1.375135 1.895164 10.332673 3.779527 1.258131 11.795275 3.149606 1.425026 11.574802 3.779527 0.767717 10.392524 6.299213 0.426509 10.923725 17.716536 0.426509 4.668627 17.716536 8.628610 4.668627 19.128614 2.696119 1.181102 24.015747 0.590551 1.574803 18.976377 0.813078 1.574803 24.015747 2.480315 1.181102 24.015747 8.464567 1.574803 19.128614 6.358999 1.181102 18.976377 8.242041 1.574803 24.015747 6.574803 1.181102 3.149606 8.095472 10.259723 1.259843 1.925710 10.159545 0.000000 2.559055 8.267716 0.000000 6.496063 8.267716 1.259843 7.129408 10.159545 1.375135 1.895164 10.332673 3.149606 0.959646 10.259723 1.375135 7.159954 10.332673 12.677165 1.535433 1.867451 15.196851 0.767717 3.734901 15.196851 8.287401 3.734901 12.677165 7.519685 1.867451 17.716536 0.961429 1.574803 17.961496 2.833552 1.181102 17.716536 0.961429 1.574803 18.160973 4.527559 1.181102 17.961496 6.221567 1.181102 17.716536 8.093690 1.574803 17.716536 8.093690 1.574803 11.417322 6.496063 0.000000 3.149606 8.095472 10.259723 1.259843 7.519685 9.407249 1.259843 7.129408 10.159545 0.000000 6.496063 8.267716 11.417322 6.496063 0.000000 0.000000 2.559055 8.267716 0.000000 6.496063 8.267716 11.417322 2.559055 0.000000 0.000000 2.559055 8.267716 1.259843 1.535433 9.407249 1.259843 1.925710 10.159545 1.375135 1.500305 9.511533 1.375135 7.554813 9.511533 3.149606 0.959646 10.259723 11.417322 2.559055 0.000000 13.517060 1.279528 3.112418 13.517060 7.775590 3.112418 15.596571 3.112030 0.885487 15.196851 1.258131 1.259843 15.864484 4.527559 0.897967 15.596571 5.943088 0.885487 15.196851 7.796988 1.259843 1.375135 7.554813 9.511533 1.259843 7.519685 9.407249 0.000000 6.496063 8.267716 14.101799 4.527559 0.698640 11.417322 2.559055 0.000000 11.417322 6.496063 0.000000 1.259843 1.535433 9.407249 0.000000 2.559055 8.267716 1.375135 1.500305 9.511533 13.517060 1.703184 1.049869 15.196851 1.258131 1.259843 15.196851 7.796988 1.259843 13.517060 7.351934 1.049869 14.101799 3.508064 0.698640 13.517060 1.703184 1.049869 14.366543 4.527559 0.716334 14.101799 5.547055 0.698640 13.517060 7.351934 1.049869 12.677165 7.129408 0.629921 12.677165 1.925710 0.629921 12.677165 1.925710 0.629921 12.677165 7.129408 0.629921 "
								            />
							</IndexedFaceSet>
						</Shape>
					</Group>
				</Transform>
			</Transform>
			<Transform DEF="group_6_TRANSFORM"
			           translation="1.300796 14.883085 0.000000"
			           scale="1.000000 1.000000 1.000000"
			           rotation="0.000000 1.000000 0.000000 0.000000"
			           >
				<Transform DEF="group_6_ifs_TRANSFORM"
				           translation="0.000000 0.000002 0.000000"
				           scale="1.000000 1.000000 1.000000"
				           rotation="0.000000 1.000000 0.000000 0.000000"
				           >
					<Group DEF="group_ME_ID75">
						<Shape>
							<Appearance>
								<Material USE="MA_material_002" />
							</Appearance>
							<IndexedFaceSet solid="false"
							                coordIndex="0 1 2 -1 1 0 3 -1 4 5 6 -1 5 4 7 -1 8 9 10 -1 9 8 11 -1 12 13 14 -1 13 12 15 -1 16 17 18 -1 17 16 19 -1 20 21 22 -1 21 20 23 -1 "
							                >
								<Coordinate DEF="coords_ME_ID75"
								            point="19.842520 0.000000 0.000000 0.000000 0.000000 8.267716 0.000000 0.000000 0.000000 8.425197 0.000000 8.267716 19.842520 3.937008 0.000000 0.000000 0.000000 0.000000 0.000000 3.937008 0.000000 19.842520 0.000000 0.000000 8.425197 0.000000 8.267716 19.842520 3.937008 0.000000 8.425197 3.937008 8.267716 19.842520 0.000000 0.000000 0.000000 0.000000 8.267716 8.425197 3.937008 8.267716 0.000000 3.937008 8.267716 8.425197 0.000000 8.267716 0.000000 3.937008 8.267716 0.000000 0.000000 0.000000 0.000000 0.000000 8.267716 0.000000 3.937008 0.000000 0.000000 3.937008 8.267716 19.842520 3.937008 0.000000 0.000000 3.937008 0.000000 8.425197 3.937008 8.267716 "
								            />
							</IndexedFaceSet>
						</Shape>
					</Group>
				</Transform>
			</Transform>
			<Transform DEF="group_7_TRANSFORM"
			           translation="33.741741 12.324031 -0.000000"
			           scale="1.000000 1.000000 1.000000"
			           rotation="0.000000 1.000000 0.000000 0.000000"
			           >
				<Transform DEF="group_8_TRANSFORM"
				           translation="12.598431 1.377954 0.000000"
				           scale="1.000000 1.000000 1.000000"
				           rotation="0.000000 1.000000 0.000000 0.000000"
				           >
					<Transform DEF="group_9_TRANSFORM"
					           translation="0.000004 1.181103 -0.000000"
					           scale="1.000000 1.000000 1.000000"
					           rotation="0.000000 1.000000 0.000000 0.000000"
					           >
						<Transform DEF="group_9_ifs_TRANSFORM"
						           translation="0.000004 0.000001 -0.000000"
						           scale="1.000000 1.000000 1.000000"
						           rotation="0.000000 1.000000 0.000000 0.000000"
						           >
							<Group DEF="group_ME_ID84">
								<Shape>
									<Appearance>
										<Material USE="MA_material_002" />
									</Appearance>
									<IndexedFaceSet solid="false"
									                coordIndex="0 1 2 -1 3 1 4 -1 1 3 2 -1 2 3 5 -1 5 3 6 -1 6 3 7 -1 7 3 8 -1 9 10 11 -1 10 9 12 -1 12 9 13 -1 13 9 14 -1 10 15 16 -1 15 10 12 -1 17 18 19 -1 18 17 20 -1 20 17 16 -1 20 16 15 -1 21 22 23 -1 22 21 24 -1 25 26 27 -1 26 25 28 -1 28 25 29 -1 29 25 30 -1 26 31 32 -1 31 26 28 -1 33 34 35 -1 34 33 36 -1 36 33 32 -1 36 32 31 -1 37 38 39 -1 38 37 40 -1 41 42 43 -1 42 41 44 -1 45 46 47 -1 46 45 48 -1 49 50 51 -1 50 49 52 -1 53 54 55 -1 54 53 56 -1 57 58 59 -1 58 57 60 -1 61 62 63 -1 62 61 64 -1 62 64 65 -1 65 64 66 -1 65 66 67 -1 65 67 68 -1 65 68 69 -1 70 71 72 -1 71 70 73 -1 74 75 76 -1 75 74 77 -1 78 79 80 -1 79 78 81 -1 82 83 84 -1 83 82 85 -1 84 83 86 -1 86 83 87 -1 82 88 89 -1 88 82 84 -1 90 91 92 -1 91 90 93 -1 94 95 96 -1 95 94 97 -1 95 97 98 -1 98 97 99 -1 95 98 100 -1 95 100 101 -1 102 103 104 -1 103 102 105 -1 106 107 108 -1 107 106 109 -1 110 111 112 -1 111 110 113 -1 114 115 116 -1 115 114 117 -1 118 119 120 -1 119 118 121 -1 122 123 124 -1 123 122 125 -1 "
									                >
										<Coordinate DEF="coords_ME_ID84"
										            point="16.929134 0.000000 5.905512 16.929134 0.000000 0.000000 17.716536 0.000000 5.905512 25.196850 0.000000 8.267716 25.196850 0.000000 0.000000 17.818935 0.000000 6.500865 18.089094 0.000000 7.041184 18.503937 0.000000 7.480315 18.503937 0.000000 8.267716 17.716536 0.000000 5.905512 16.929134 0.393701 5.905512 16.929134 0.000000 5.905512 16.929134 3.543307 5.905512 16.929134 3.937008 5.905512 17.716536 3.937008 5.905512 12.992126 3.543307 5.905512 12.992126 0.393701 5.905512 12.992126 0.000000 5.905512 12.204723 3.937008 5.905512 12.204723 0.000000 5.905512 12.992126 3.937008 5.905512 16.929134 0.393701 5.905512 16.929134 0.000000 0.000000 16.929134 0.000000 5.905512 16.929134 0.393701 0.000000 25.196850 3.937008 0.000000 16.929134 3.543307 0.000000 16.929134 3.937008 0.000000 16.929134 0.393701 0.000000 16.929134 0.000000 0.000000 25.196850 0.000000 0.000000 12.992126 0.393701 0.000000 12.992126 3.543307 0.000000 12.992126 3.937008 0.000000 0.000000 0.000000 0.000000 0.000000 3.937008 0.000000 12.992126 0.000000 0.000000 25.196850 3.937008 0.000000 25.196850 0.000000 8.267716 25.196850 0.000000 0.000000 25.196850 3.937008 8.267716 25.196850 0.000000 8.267716 18.503937 3.937008 8.267716 18.503937 0.000000 8.267716 25.196850 3.937008 8.267716 18.503937 3.937008 8.267716 18.503937 0.000000 7.480315 18.503937 0.000000 8.267716 18.503937 3.937008 7.480315 18.503937 3.937008 7.480315 18.089094 0.000000 7.041184 18.503937 0.000000 7.480315 18.089094 3.937008 7.041184 18.089094 3.937008 7.041184 17.818935 0.000000 6.500865 18.089094 0.000000 7.041184 17.818935 3.937008 6.500865 17.818935 3.937008 6.500865 17.716536 0.000000 5.905512 17.818935 0.000000 6.500865 17.716536 3.937008 5.905512 16.929134 3.937008 5.905512 25.196850 3.937008 0.000000 16.929134 3.937008 0.000000 17.716536 3.937008 5.905512 25.196850 3.937008 8.267716 17.818935 3.937008 6.500865 18.089094 3.937008 7.041184 18.503937 3.937008 7.480315 18.503937 3.937008 8.267716 16.929134 3.937008 5.905512 16.929134 3.543307 0.000000 16.929134 3.543307 5.905512 16.929134 3.937008 0.000000 12.992126 3.543307 5.905512 16.929134 3.543307 0.000000 12.992126 3.543307 0.000000 16.929134 3.543307 5.905512 12.992126 3.937008 0.000000 12.992126 3.543307 5.905512 12.992126 3.543307 0.000000 12.992126 3.937008 5.905512 0.000000 3.937008 0.000000 11.417322 3.937008 7.480315 12.204723 3.937008 5.905512 11.417322 3.937008 8.267716 12.102325 3.937008 6.500865 11.832167 3.937008 7.041184 12.992126 3.937008 5.905512 12.992126 3.937008 0.000000 12.204723 3.937008 5.905512 12.102325 0.000000 6.500865 12.204723 0.000000 5.905512 12.102325 3.937008 6.500865 0.000000 0.000000 0.000000 11.417322 0.000000 7.480315 11.417322 0.000000 8.267716 12.992126 0.000000 0.000000 12.204723 0.000000 5.905512 12.992126 0.000000 5.905512 12.102325 0.000000 6.500865 11.832167 0.000000 7.041184 12.992126 0.000000 0.000000 12.992126 0.393701 5.905512 12.992126 0.000000 5.905512 12.992126 0.393701 0.000000 16.929134 0.393701 5.905512 12.992126 0.393701 0.000000 16.929134 0.393701 0.000000 12.992126 0.393701 5.905512 11.417322 0.000000 8.267716 0.000000 3.937008 0.000000 0.000000 0.000000 0.000000 11.417322 3.937008 8.267716 11.417322 3.937008 7.480315 11.417322 0.000000 8.267716 11.417322 0.000000 7.480315 11.417322 3.937008 8.267716 11.832167 3.937008 7.041184 11.417322 0.000000 7.480315 11.832167 0.000000 7.041184 11.417322 3.937008 7.480315 12.102325 3.937008 6.500865 11.832167 0.000000 7.041184 12.102325 0.000000 6.500865 11.832167 3.937008 7.041184 "
										            />
									</IndexedFaceSet>
								</Shape>
							</Group>
						</Transform>
					</Transform>
					<Transform DEF="instance_1_TRANSFORM"
					           translation="11.417324 6.299214 5.905512"
					           scale="1.000000 1.000000 1.000000"
					           rotation="0.000000 0.000000 -1.000000 1.570796"
					           >
						<Transform DEF="instance_1_ifs_TRANSFORM"
						           translation="-0.000003 0.000005 0.000000"
						           scale="1.000000 1.000000 1.000000"
						           rotation="0.000000 0.000000 0.000000 0.000000"
						           >
							<Group USE="group_ME_ID15" />
						</Transform>
					</Transform>
				</Transform>
				<Transform DEF="group_10_TRANSFORM"
				           translation="0.000004 0.000000 -0.000000"
				           scale="1.000000 1.000000 1.000000"
				           rotation="0.000000 1.000000 0.000000 0.000000"
				           >
					<Transform DEF="group_10_ifs_TRANSFORM"
					           translation="0.000004 0.000000 -0.000000"
					           scale="1.000000 1.000000 1.000000"
					           rotation="0.000000 1.000000 0.000000 0.000000"
					           >
						<Group DEF="group_ME_ID92">
							<Shape>
								<Appearance>
									<Material USE="MA_material_002" />
								</Appearance>
								<IndexedFaceSet solid="false"
								                coordIndex="0 1 2 -1 1 0 3 -1 3 0 4 -1 4 0 5 -1 4 5 6 -1 4 6 7 -1 8 9 10 -1 11 9 12 -1 13 11 12 -1 11 13 14 -1 15 16 17 -1 16 15 18 -1 19 20 21 -1 20 19 22 -1 20 23 21 -1 24 25 23 -1 8 10 26 -1 12 9 8 -1 13 12 27 -1 28 18 15 -1 18 28 29 -1 22 30 20 -1 20 24 23 -1 24 31 25 -1 8 26 32 -1 33 34 35 -1 34 33 36 -1 12 8 37 -1 27 12 37 -1 38 29 28 -1 29 38 39 -1 39 38 40 -1 39 40 41 -1 30 42 20 -1 20 42 24 -1 43 31 24 -1 44 45 46 -1 45 44 47 -1 32 26 48 -1 37 8 32 -1 47 35 45 -1 35 47 33 -1 33 47 49 -1 33 49 50 -1 51 33 50 -1 51 36 33 -1 36 51 52 -1 27 37 53 -1 53 54 55 -1 56 41 40 -1 41 56 57 -1 57 56 58 -1 57 58 59 -1 60 61 62 -1 30 60 42 -1 42 43 24 -1 43 63 31 -1 44 49 47 -1 49 44 64 -1 32 48 65 -1 37 32 54 -1 49 66 50 -1 66 49 67 -1 66 51 50 -1 51 66 68 -1 68 52 51 -1 52 68 69 -1 53 37 54 -1 55 54 70 -1 71 59 58 -1 59 71 72 -1 72 71 73 -1 72 73 74 -1 75 76 77 -1 61 75 78 -1 55 70 79 -1 79 80 81 -1 61 78 62 -1 60 62 42 -1 42 62 43 -1 43 82 63 -1 64 67 49 -1 67 64 83 -1 65 48 84 -1 70 32 65 -1 54 32 70 -1 67 85 66 -1 85 67 86 -1 85 68 66 -1 68 85 87 -1 87 69 68 -1 69 87 88 -1 89 74 73 -1 74 89 90 -1 90 89 91 -1 90 91 92 -1 93 94 95 -1 76 93 96 -1 81 97 98 -1 98 99 100 -1 76 101 77 -1 75 77 78 -1 79 70 80 -1 81 80 102 -1 62 78 43 -1 78 82 43 -1 82 103 63 -1 83 86 67 -1 86 83 104 -1 65 84 105 -1 70 65 106 -1 86 107 85 -1 107 87 85 -1 108 88 87 -1 105 84 109 -1 110 111 112 -1 111 110 113 -1 114 115 116 -1 94 115 117 -1 100 118 119 -1 120 119 121 -1 93 95 96 -1 94 117 95 -1 76 96 101 -1 81 102 97 -1 98 97 99 -1 100 99 118 -1 122 123 124 -1 78 122 82 -1 106 105 125 -1 82 124 103 -1 124 126 103 -1 127 86 104 -1 106 65 105 -1 128 107 86 -1 129 87 107 -1 129 108 87 -1 130 109 131 -1 105 109 130 -1 132 120 133 -1 134 135 136 -1 135 134 137 -1 138 116 139 -1 114 116 138 -1 115 114 117 -1 119 118 121 -1 120 121 133 -1 140 141 142 -1 141 143 142 -1 123 140 124 -1 125 105 144 -1 144 145 146 -1 146 145 147 -1 122 124 82 -1 124 148 126 -1 128 86 127 -1 148 149 126 -1 129 107 128 -1 130 131 145 -1 144 105 130 -1 150 145 151 -1 152 153 142 -1 154 152 142 -1 143 154 142 -1 147 145 155 -1 155 145 150 -1 140 142 148 -1 140 148 124 -1 144 130 145 -1 148 142 149 -1 "
								                >
									<Coordinate DEF="coords_ME_ID92"
									            point="0.000000 0.590551 13.779528 0.000000 0.000000 4.668627 0.000000 0.000000 11.587728 0.000000 0.590551 1.574803 0.000000 8.464567 1.574803 0.000000 8.464567 13.779528 0.000000 9.055119 11.587728 0.000000 9.055119 4.668627 5.039370 0.255906 4.668627 0.000000 0.000000 4.668627 0.000000 0.590551 1.574803 0.000000 0.000000 11.587728 5.118110 0.000000 11.587728 5.118110 0.590551 13.779528 0.000000 0.590551 13.779528 5.118110 0.590551 13.779528 0.000000 8.464567 13.779528 0.000000 0.590551 13.779528 5.118110 8.464567 13.779528 0.000000 8.464567 13.779528 5.118110 9.055119 11.587728 0.000000 9.055119 11.587728 5.118110 8.464567 13.779528 0.000000 9.055119 4.668627 5.039370 8.799212 4.668627 0.000000 8.464567 1.574803 5.039370 0.813078 1.574803 10.517435 0.590551 13.517060 10.517435 0.590551 13.517060 10.517435 8.464567 13.517060 10.517435 8.464567 13.517060 5.039370 8.242041 1.574803 6.299213 0.426509 4.668627 4.887132 2.696119 1.181102 0.000000 0.590551 1.574803 0.000000 2.480315 1.181102 5.039370 0.813078 1.574803 10.517435 0.000000 11.429631 11.417322 0.590551 13.412072 11.417322 8.464567 13.412072 15.016872 0.749499 12.992126 15.016872 8.305619 12.992126 10.517435 9.055119 11.429631 6.299213 8.628610 4.668627 5.039370 8.242041 1.574803 0.000000 6.574803 1.181102 0.000000 8.464567 1.574803 4.887132 6.358999 1.181102 6.299213 0.961429 1.574803 6.054251 6.221567 1.181102 5.854775 4.527559 1.181102 6.054251 2.833552 1.181102 6.299213 0.961429 1.574803 11.417322 0.590551 13.412072 11.417322 0.000000 11.366393 15.016872 0.749499 12.992126 16.456694 0.813078 12.677165 16.456694 8.242041 12.677165 18.616423 1.067394 12.204723 18.616423 7.987724 12.204723 11.417322 8.464567 13.412072 15.016872 8.305619 12.992126 11.417322 9.055119 11.366393 6.299213 8.093689 1.574803 6.299213 8.093689 1.574803 8.818897 0.767717 3.734901 8.151264 4.527559 0.897967 8.419177 5.943088 0.885487 8.419177 3.112030 0.885487 8.818897 1.258131 1.259843 13.908227 0.126491 11.191348 20.236219 1.258131 11.574802 20.236219 7.796988 11.574802 21.316084 1.544236 11.154856 21.316084 7.510882 11.154856 16.456694 8.242041 12.677165 18.616423 7.987724 12.204723 15.016872 8.872329 11.113440 13.908227 8.928627 11.191348 16.456694 0.813078 12.677165 15.016872 0.182790 11.113440 18.616423 1.067394 12.204723 8.818897 8.287401 3.734901 8.818897 7.796988 1.259843 8.818897 1.258131 1.259843 9.649205 4.527559 0.716334 9.913948 5.547055 0.698640 9.913948 3.508064 0.698640 10.498688 1.703184 1.049869 22.755903 1.925710 10.104987 22.755903 7.129408 10.104987 23.115860 2.180026 9.842520 23.115860 6.875092 9.842520 20.236219 7.796988 11.574802 21.316084 7.510882 11.154856 20.236219 8.287401 10.259723 18.616423 8.506749 10.639153 18.616423 0.548369 10.639153 20.236219 1.258131 11.574802 20.236219 0.767717 10.259723 21.316084 1.544236 11.154856 16.456694 8.799212 10.923725 16.456694 0.255906 10.923725 8.818897 7.796988 1.259843 10.498688 7.351934 1.049869 10.498688 1.279528 3.112418 15.016872 0.182790 11.113440 9.913948 4.527559 0.698640 11.338582 1.925710 0.629921 10.498688 1.703184 1.049869 24.015747 2.559055 8.267716 23.115860 6.875092 9.842520 23.115860 2.180026 9.842520 24.015747 6.496063 8.267716 22.755903 7.519685 9.374387 22.755903 7.129408 10.104987 23.115860 6.875092 9.842520 21.316084 7.958380 10.006769 21.316084 1.096738 10.006769 22.755903 1.925710 10.104987 23.115860 2.180026 9.842520 22.755903 1.535433 9.374387 15.016872 8.872329 11.113440 16.456694 8.799212 10.923725 10.498688 7.775590 3.112418 16.456694 0.255906 10.923725 10.498688 7.351934 1.049869 11.338582 7.129408 0.629921 12.598425 6.496063 0.000000 12.598425 2.559055 0.000000 11.338582 1.535433 1.867451 11.338582 1.925710 0.629921 24.015747 2.559055 8.267716 23.115860 1.827896 9.216291 24.015747 6.496063 8.267716 12.598425 2.559055 0.000000 12.598425 6.496063 0.000000 24.015747 2.559055 8.267716 23.115860 7.227221 9.216291 24.015747 6.496063 8.267716 18.616423 8.506749 10.639153 20.236219 8.287401 10.259723 12.598425 6.496063 0.000000 21.316084 7.958380 10.006769 18.616423 0.548369 10.639153 12.598425 2.559055 0.000000 20.236219 0.767717 10.259723 21.316084 1.096738 10.006769 11.338582 7.519685 1.867451 11.338582 7.129408 0.629921 23.115860 1.827896 9.216291 24.015747 2.559055 8.267716 23.115860 7.227221 9.216291 24.015747 6.496063 8.267716 22.755903 7.519685 9.374387 22.755903 1.535433 9.374387 "
									            />
								</IndexedFaceSet>
							</Shape>
						</Group>
					</Transform>
				</Transform>
			</Transform>
			<Transform DEF="group_11_TRANSFORM"
			           translation="301.537018 -2.046047 -0.000000"
			           scale="1.000000 1.000000 1.000000"
			           rotation="0.000000 0.000000 1.000000 1.570796"
			           >
				<Transform DEF="group_8_001_TRANSFORM"
				           translation="12.598425 1.377931 0.000000"
				           scale="1.000000 1.000000 1.000000"
				           rotation="0.000000 0.000000 -0.000000 0.000000"
				           >
					<Transform DEF="group_9_001_TRANSFORM"
					           translation="-0.000000 1.181062 -0.000000"
					           scale="1.000000 1.000000 1.000000"
					           rotation="0.000000 0.000000 -0.000000 0.000000"
					           >
						<Transform DEF="group_9_001_ifs_TRANSFORM"
						           translation="0.000001 -0.000030 -0.000000"
						           scale="1.000000 1.000000 1.000000"
						           rotation="0.000000 0.000000 -0.000000 0.000000"
						           >
							<Group DEF="group_ME_ID101">
								<Shape>
									<Appearance>
										<Material USE="MA_material_002" />
									</Appearance>
									<IndexedFaceSet solid="false"
									                coordIndex="0 1 2 -1 3 1 4 -1 1 3 2 -1 2 3 5 -1 5 3 6 -1 6 3 7 -1 7 3 8 -1 9 10 11 -1 10 9 12 -1 12 9 13 -1 13 9 14 -1 10 15 16 -1 15 10 12 -1 17 18 19 -1 18 17 20 -1 20 17 16 -1 20 16 15 -1 21 22 23 -1 22 21 24 -1 25 26 27 -1 26 25 28 -1 28 25 29 -1 29 25 30 -1 26 31 32 -1 31 26 28 -1 33 34 35 -1 34 33 36 -1 36 33 32 -1 36 32 31 -1 37 38 39 -1 38 37 40 -1 41 42 43 -1 42 41 44 -1 45 46 47 -1 46 45 48 -1 49 50 51 -1 50 49 52 -1 53 54 55 -1 54 53 56 -1 57 58 59 -1 58 57 60 -1 61 62 63 -1 62 61 64 -1 62 64 65 -1 65 64 66 -1 65 66 67 -1 65 67 68 -1 65 68 69 -1 70 71 72 -1 71 70 73 -1 74 75 76 -1 75 74 77 -1 78 79 80 -1 79 78 81 -1 82 83 84 -1 83 82 85 -1 84 83 86 -1 86 83 87 -1 82 88 89 -1 88 82 84 -1 90 91 92 -1 91 90 93 -1 94 95 96 -1 95 94 97 -1 95 97 98 -1 98 97 99 -1 95 98 100 -1 95 100 101 -1 102 103 104 -1 103 102 105 -1 106 107 108 -1 107 106 109 -1 110 111 112 -1 111 110 113 -1 114 115 116 -1 115 114 117 -1 118 119 120 -1 119 118 121 -1 122 123 124 -1 123 122 125 -1 "
									                >
										<Coordinate DEF="coords_ME_ID101"
										            point="16.929134 0.000000 5.905512 16.929134 0.000000 0.000000 17.716536 0.000000 5.905512 25.196850 0.000000 8.267716 25.196850 0.000000 0.000000 17.818935 0.000000 6.500865 18.089094 0.000000 7.041184 18.503937 0.000000 7.480315 18.503937 0.000000 8.267716 17.716536 0.000000 5.905512 16.929134 0.393701 5.905512 16.929134 0.000000 5.905512 16.929134 3.543307 5.905512 16.929134 3.937008 5.905512 17.716536 3.937008 5.905512 12.992126 3.543307 5.905512 12.992126 0.393701 5.905512 12.992126 0.000000 5.905512 12.204723 3.937008 5.905512 12.204723 0.000000 5.905512 12.992126 3.937008 5.905512 16.929134 0.393701 5.905512 16.929134 0.000000 0.000000 16.929134 0.000000 5.905512 16.929134 0.393701 0.000000 25.196850 3.937008 0.000000 16.929134 3.543307 0.000000 16.929134 3.937008 0.000000 16.929134 0.393701 0.000000 16.929134 0.000000 0.000000 25.196850 0.000000 0.000000 12.992126 0.393701 0.000000 12.992126 3.543307 0.000000 12.992126 3.937008 0.000000 0.000000 0.000000 0.000000 0.000000 3.937008 0.000000 12.992126 0.000000 0.000000 25.196850 3.937008 0.000000 25.196850 0.000000 8.267716 25.196850 0.000000 0.000000 25.196850 3.937008 8.267716 25.196850 0.000000 8.267716 18.503937 3.937008 8.267716 18.503937 0.000000 8.267716 25.196850 3.937008 8.267716 18.503937 3.937008 8.267716 18.503937 0.000000 7.480315 18.503937 0.000000 8.267716 18.503937 3.937008 7.480315 18.503937 3.937008 7.480315 18.089094 0.000000 7.041184 18.503937 0.000000 7.480315 18.089094 3.937008 7.041184 18.089094 3.937008 7.041184 17.818935 0.000000 6.500865 18.089094 0.000000 7.041184 17.818935 3.937008 6.500865 17.818935 3.937008 6.500865 17.716536 0.000000 5.905512 17.818935 0.000000 6.500865 17.716536 3.937008 5.905512 16.929134 3.937008 5.905512 25.196850 3.937008 0.000000 16.929134 3.937008 0.000000 17.716536 3.937008 5.905512 25.196850 3.937008 8.267716 17.818935 3.937008 6.500865 18.089094 3.937008 7.041184 18.503937 3.937008 7.480315 18.503937 3.937008 8.267716 16.929134 3.937008 5.905512 16.929134 3.543307 0.000000 16.929134 3.543307 5.905512 16.929134 3.937008 0.000000 12.992126 3.543307 5.905512 16.929134 3.543307 0.000000 12.992126 3.543307 0.000000 16.929134 3.543307 5.905512 12.992126 3.937008 0.000000 12.992126 3.543307 5.905512 12.992126 3.543307 0.000000 12.992126 3.937008 5.905512 0.000000 3.937008 0.000000 11.417322 3.937008 7.480315 12.204723 3.937008 5.905512 11.417322 3.937008 8.267716 12.102325 3.937008 6.500865 11.832167 3.937008 7.041184 12.992126 3.937008 5.905512 12.992126 3.937008 0.000000 12.204723 3.937008 5.905512 12.102325 0.000000 6.500865 12.204723 0.000000 5.905512 12.102325 3.937008 6.500865 0.000000 0.000000 0.000000 11.417322 0.000000 7.480315 11.417322 0.000000 8.267716 12.992126 0.000000 0.000000 12.204723 0.000000 5.905512 12.992126 0.000000 5.905512 12.102325 0.000000 6.500865 11.832167 0.000000 7.041184 12.992126 0.000000 0.000000 12.992126 0.393701 5.905512 12.992126 0.000000 5.905512 12.992126 0.393701 0.000000 16.929134 0.393701 5.905512 12.992126 0.393701 0.000000 16.929134 0.393701 0.000000 12.992126 0.393701 5.905512 11.417322 0.000000 8.267716 0.000000 3.937008 0.000000 0.000000 0.000000 0.000000 11.417322 3.937008 8.267716 11.417322 3.937008 7.480315 11.417322 0.000000 8.267716 11.417322 0.000000 7.480315 11.417322 3.937008 8.267716 11.832167 3.937008 7.041184 11.417322 0.000000 7.480315 11.832167 0.000000 7.041184 11.417322 3.937008 7.480315 12.102325 3.937008 6.500865 11.832167 0.000000 7.041184 12.102325 0.000000 6.500865 11.832167 3.937008 7.041184 "
										            />
									</IndexedFaceSet>
								</Shape>
							</Group>
						</Transform>
					</Transform>
					<Transform DEF="instance_1_001_TRANSFORM"
					           translation="11.417323 6.299165 5.905512"
					           scale="1.000000 1.000000 1.000000"
					           rotation="0.000000 0.000000 -1.000000 1.570796"
					           >
						<Transform DEF="instance_1_001_ifs_TRANSFORM"
						           translation="0.000000 0.000000 0.000000"
						           scale="1.000000 1.000000 1.000000"
						           rotation="0.000000 1.000000 0.000000 0.000000"
						           >
							<Group USE="group_ME_ID15" />
						</Transform>
					</Transform>
				</Transform>
				<Transform DEF="group_10_001_TRANSFORM"
				           translation="-0.000000 -0.000031 0.000000"
				           scale="1.000000 1.000000 1.000000"
				           rotation="0.000000 0.000000 -0.000000 0.000000"
				           >
					<Transform DEF="group_10_001_ifs_TRANSFORM"
					           translation="-0.000000 -0.000031 0.000000"
					           scale="1.000000 1.000000 1.000000"
					           rotation="0.000000 0.000000 -0.000000 0.000000"
					           >
						<Group DEF="group_ME_ID109">
							<Shape>
								<Appearance>
									<Material USE="MA_material_002" />
								</Appearance>
								<IndexedFaceSet solid="false"
								                coordIndex="0 1 2 -1 1 0 3 -1 3 0 4 -1 4 0 5 -1 4 5 6 -1 4 6 7 -1 8 9 10 -1 11 9 12 -1 13 11 12 -1 11 13 14 -1 15 16 17 -1 16 15 18 -1 19 20 21 -1 20 19 22 -1 20 23 21 -1 24 25 23 -1 8 10 26 -1 12 9 8 -1 13 12 27 -1 28 18 15 -1 18 28 29 -1 22 30 20 -1 20 24 23 -1 24 31 25 -1 8 26 32 -1 33 34 35 -1 34 33 36 -1 12 8 37 -1 27 12 37 -1 38 29 28 -1 29 38 39 -1 39 38 40 -1 39 40 41 -1 30 42 20 -1 20 42 24 -1 43 31 24 -1 44 45 46 -1 45 44 47 -1 32 26 48 -1 37 8 32 -1 47 35 45 -1 35 47 33 -1 33 47 49 -1 33 49 50 -1 51 33 50 -1 51 36 33 -1 36 51 52 -1 27 37 53 -1 53 54 55 -1 56 41 40 -1 41 56 57 -1 57 56 58 -1 57 58 59 -1 60 61 62 -1 30 60 42 -1 42 43 24 -1 43 63 31 -1 44 49 47 -1 49 44 64 -1 32 48 65 -1 37 32 54 -1 49 66 50 -1 66 49 67 -1 66 51 50 -1 51 66 68 -1 68 52 51 -1 52 68 69 -1 53 37 54 -1 55 54 70 -1 71 59 58 -1 59 71 72 -1 72 71 73 -1 72 73 74 -1 75 76 77 -1 61 75 78 -1 55 70 79 -1 79 80 81 -1 61 78 62 -1 60 62 42 -1 42 62 43 -1 43 82 63 -1 64 67 49 -1 67 64 83 -1 65 48 84 -1 70 32 65 -1 54 32 70 -1 67 85 66 -1 85 67 86 -1 85 68 66 -1 68 85 87 -1 87 69 68 -1 69 87 88 -1 89 74 73 -1 74 89 90 -1 90 89 91 -1 90 91 92 -1 93 94 95 -1 76 93 96 -1 81 97 98 -1 98 99 100 -1 76 101 77 -1 75 77 78 -1 79 70 80 -1 81 80 102 -1 62 78 43 -1 78 82 43 -1 82 103 63 -1 83 86 67 -1 86 83 104 -1 65 84 105 -1 70 65 106 -1 86 107 85 -1 107 87 85 -1 108 88 87 -1 105 84 109 -1 110 111 112 -1 111 110 113 -1 114 115 116 -1 94 115 117 -1 100 118 119 -1 120 119 121 -1 93 95 96 -1 94 117 95 -1 76 96 101 -1 81 102 97 -1 98 97 99 -1 100 99 118 -1 122 123 124 -1 78 122 82 -1 106 105 125 -1 82 124 103 -1 124 126 103 -1 127 86 104 -1 106 65 105 -1 128 107 86 -1 129 87 107 -1 129 108 87 -1 130 109 131 -1 105 109 130 -1 132 120 133 -1 134 135 136 -1 135 134 137 -1 138 116 139 -1 114 116 138 -1 115 114 117 -1 119 118 121 -1 120 121 133 -1 140 141 142 -1 141 143 142 -1 123 140 124 -1 125 105 144 -1 144 145 146 -1 146 145 147 -1 122 124 82 -1 124 148 126 -1 128 86 127 -1 148 149 126 -1 129 107 128 -1 130 131 145 -1 144 105 130 -1 150 145 151 -1 152 153 142 -1 154 152 142 -1 143 154 142 -1 147 145 155 -1 155 145 150 -1 140 142 148 -1 140 148 124 -1 144 130 145 -1 148 142 149 -1 "
								                >
									<Coordinate DEF="coords_ME_ID109"
									            point="0.000000 0.590551 13.779528 0.000000 0.000000 4.668627 0.000000 0.000000 11.587728 0.000000 0.590551 1.574803 0.000000 8.464567 1.574803 0.000000 8.464567 13.779528 0.000000 9.055119 11.587728 0.000000 9.055119 4.668627 5.039370 0.255906 4.668627 0.000000 0.000000 4.668627 0.000000 0.590551 1.574803 0.000000 0.000000 11.587728 5.118110 0.000000 11.587728 5.118110 0.590551 13.779528 0.000000 0.590551 13.779528 5.118110 0.590551 13.779528 0.000000 8.464567 13.779528 0.000000 0.590551 13.779528 5.118110 8.464567 13.779528 0.000000 8.464567 13.779528 5.118110 9.055119 11.587728 0.000000 9.055119 11.587728 5.118110 8.464567 13.779528 0.000000 9.055119 4.668627 5.039370 8.799212 4.668627 0.000000 8.464567 1.574803 5.039370 0.813078 1.574803 10.517435 0.590551 13.517060 10.517435 0.590551 13.517060 10.517435 8.464567 13.517060 10.517435 8.464567 13.517060 5.039370 8.242041 1.574803 6.299213 0.426509 4.668627 4.887132 2.696119 1.181102 0.000000 0.590551 1.574803 0.000000 2.480315 1.181102 5.039370 0.813078 1.574803 10.517435 0.000000 11.429631 11.417322 0.590551 13.412072 11.417322 8.464567 13.412072 15.016872 0.749499 12.992126 15.016872 8.305619 12.992126 10.517435 9.055119 11.429631 6.299213 8.628610 4.668627 5.039370 8.242041 1.574803 0.000000 6.574803 1.181102 0.000000 8.464567 1.574803 4.887132 6.358999 1.181102 6.299213 0.961429 1.574803 6.054251 6.221567 1.181102 5.854775 4.527559 1.181102 6.054251 2.833552 1.181102 6.299213 0.961429 1.574803 11.417322 0.590551 13.412072 11.417322 0.000000 11.366393 15.016872 0.749499 12.992126 16.456694 0.813078 12.677165 16.456694 8.242041 12.677165 18.616423 1.067394 12.204723 18.616423 7.987724 12.204723 11.417322 8.464567 13.412072 15.016872 8.305619 12.992126 11.417322 9.055119 11.366393 6.299213 8.093689 1.574803 6.299213 8.093689 1.574803 8.818897 0.767717 3.734901 8.151264 4.527559 0.897967 8.419177 5.943088 0.885487 8.419177 3.112030 0.885487 8.818897 1.258131 1.259843 13.908227 0.126491 11.191348 20.236219 1.258131 11.574802 20.236219 7.796988 11.574802 21.316084 1.544236 11.154856 21.316084 7.510882 11.154856 16.456694 8.242041 12.677165 18.616423 7.987724 12.204723 15.016872 8.872329 11.113440 13.908227 8.928627 11.191348 16.456694 0.813078 12.677165 15.016872 0.182790 11.113440 18.616423 1.067394 12.204723 8.818897 8.287401 3.734901 8.818897 7.796988 1.259843 8.818897 1.258131 1.259843 9.649205 4.527559 0.716334 9.913948 5.547055 0.698640 9.913948 3.508064 0.698640 10.498688 1.703184 1.049869 22.755903 1.925710 10.104987 22.755903 7.129408 10.104987 23.115860 2.180026 9.842520 23.115860 6.875092 9.842520 20.236219 7.796988 11.574802 21.316084 7.510882 11.154856 20.236219 8.287401 10.259723 18.616423 8.506749 10.639153 18.616423 0.548369 10.639153 20.236219 1.258131 11.574802 20.236219 0.767717 10.259723 21.316084 1.544236 11.154856 16.456694 8.799212 10.923725 16.456694 0.255906 10.923725 8.818897 7.796988 1.259843 10.498688 7.351934 1.049869 10.498688 1.279528 3.112418 15.016872 0.182790 11.113440 9.913948 4.527559 0.698640 11.338582 1.925710 0.629921 10.498688 1.703184 1.049869 24.015747 2.559055 8.267716 23.115860 6.875092 9.842520 23.115860 2.180026 9.842520 24.015747 6.496063 8.267716 22.755903 7.519685 9.374387 22.755903 7.129408 10.104987 23.115860 6.875092 9.842520 21.316084 7.958380 10.006769 21.316084 1.096738 10.006769 22.755903 1.925710 10.104987 23.115860 2.180026 9.842520 22.755903 1.535433 9.374387 15.016872 8.872329 11.113440 16.456694 8.799212 10.923725 10.498688 7.775590 3.112418 16.456694 0.255906 10.923725 10.498688 7.351934 1.049869 11.338582 7.129408 0.629921 12.598425 6.496063 0.000000 12.598425 2.559055 0.000000 11.338582 1.535433 1.867451 11.338582 1.925710 0.629921 24.015747 2.559055 8.267716 23.115860 1.827896 9.216291 24.015747 6.496063 8.267716 12.598425 2.559055 0.000000 12.598425 6.496063 0.000000 24.015747 2.559055 8.267716 23.115860 7.227221 9.216291 24.015747 6.496063 8.267716 18.616423 8.506749 10.639153 20.236219 8.287401 10.259723 12.598425 6.496063 0.000000 21.316084 7.958380 10.006769 18.616423 0.548369 10.639153 12.598425 2.559055 0.000000 20.236219 0.767717 10.259723 21.316084 1.096738 10.006769 11.338582 7.519685 1.867451 11.338582 7.129408 0.629921 23.115860 1.827896 9.216291 24.015747 2.559055 8.267716 23.115860 7.227221 9.216291 24.015747 6.496063 8.267716 22.755903 7.519685 9.374387 22.755903 1.535433 9.374387 "
									            />
								</IndexedFaceSet>
							</Shape>
						</Group>
					</Transform>
				</Transform>
			</Transform>
		</Transform>
		<Transform DEF="SketchUp_001_TRANSFORM"
		           translation="0.000000 0.000000 0.000000"
		           scale="0.025400 0.025400 0.025400"
		           rotation="-1.000000 0.000000 0.000000 1.570796"
		           >
			<Transform DEF="SketchUp_001_ifs_TRANSFORM"
			           translation="0.000000 0.000000 0.000000"
			           scale="1.000000 1.000000 1.000000"
			           rotation="0.000000 1.000000 0.000000 0.000000"
			           >
				<Group DEF="group_ME_ID119">
				</Group>
			</Transform>
		</Transform>
		<Transform DEF="SketchUp_002_TRANSFORM"
		           translation="0.000000 0.000000 0.000000"
		           scale="0.025400 0.025400 0.025400"
		           rotation="-1.000000 0.000000 0.000000 1.570796"
		           >
			<Transform DEF="SketchUp_002_ifs_TRANSFORM"
			           translation="0.000000 0.000000 0.000000"
			           scale="1.000000 1.000000 1.000000"
			           rotation="0.000000 1.000000 0.000000 0.000000"
			           >
				<Group DEF="group_ME_ID123_001">
				</Group>
			</Transform>
		</Transform>
		<Transform DEF="SketchUp_003_TRANSFORM"
		           translation="0.000000 0.000000 0.000000"
		           scale="0.025400 0.025400 0.025400"
		           rotation="-1.000000 0.000000 0.000000 1.570796"
		           >
			<Transform DEF="SketchUp_003_ifs_TRANSFORM"
			           translation="0.000000 0.000000 0.000000"
			           scale="1.000000 1.000000 1.000000"
			           rotation="0.000000 1.000000 0.000000 0.000000"
			           >
				<Group DEF="group_ME_ID127">
				</Group>
			</Transform>
		</Transform>
		<Transform DEF="SketchUp_004_TRANSFORM"
		           translation="0.000000 0.000000 0.000000"
		           scale="0.025400 0.025400 0.025400"
		           rotation="-1.000000 0.000000 0.000000 1.570796"
		           >
			<Transform DEF="SketchUp_004_ifs_TRANSFORM"
			           translation="0.000000 0.000000 0.000000"
			           scale="1.000000 1.000000 1.000000"
			           rotation="0.000000 1.000000 0.000000 0.000000"
			           >
				<Group DEF="group_ME_ID131_001">
				</Group>
			</Transform>
		</Transform>
	</Scene>
</X3D>