<?xml version="1.0" encoding="UTF-8"?>
<!DOCTYPE X3D PUBLIC "ISO//Web3D//DTD X3D 3.0//EN" "http://www.web3d.org/specifications/x3d-3.0.dtd">
<X3D version="3.0" profile="Immersive" xmlns:xsd="http://www.w3.org/2001/XMLSchema-instance" xsd:noNamespaceSchemaLocation="http://www.web3d.org/specifications/x3d-3.0.xsd">
	<head>
		<meta name="filename" content="19-4 四椽栿.x3d" />
		<meta name="created" content="2025-12-29 13:50:39" />
		<meta name="generator" content="Blender 4.2.2 LTS" />
		<meta name="translator" content="Web3D X3D/VRML2 format v2.5.1" />
	</head>
	<Scene>
		<NavigationInfo headlight="true"
		                visibilityLimit="0.0"
		                type='"EXAMINE", "ANY"'
		                avatarSize="0.25, 1.75, 0.75"
		                />
		<Background DEF="WO_World"
		            groundColor="0.051 0.051 0.051"
		            skyColor="0.051 0.051 0.051"
		            />
		<Transform DEF="SketchUp_TRANSFORM"
		           translation="0.000000 0.000000 0.000000"
		           scale="0.025400 0.025400 0.025400"
		           rotation="-1.000000 0.000000 0.000000 1.570796"
		           >
			<Transform DEF="SketchUp_ifs_TRANSFORM"
			           translation="0.000000 0.000000 0.000000"
			           scale="1.000000 1.000000 1.000000"
			           rotation="0.000000 1.000000 0.000000 0.000000"
			           >
				<Group DEF="group_ME_ID92_001">
					<Shape>
						<Appearance>
							<Material DEF="MA_material_004"
							          diffuseColor="1.000 1.000 1.000"
							          specularColor="0.401 0.401 0.401"
							          emissiveColor="0.000 0.000 0.000"
							          ambientIntensity="0.000"
							          shininess="0.500"
							          transparency="0.000"
							          />
						</Appearance>
						<IndexedFaceSet solid="false"
						                coordIndex="0 1 2 -1 1 0 3 -1 3 0 4 -1 4 0 5 -1 5 0 6 -1 6 0 7 -1 7 0 8 -1 8 0 9 -1 6 10 5 -1 "
						                >
							<Coordinate DEF="coords_ME_ID92_001"
							            point="-121.304558 -73.815514 2.362205 -125.241570 -73.815514 -0.000000 -121.304558 -73.815514 -0.000000 -129.178589 -73.815514 -0.000000 -133.115585 -73.815514 -0.000000 -137.052597 -73.815514 -0.000000 -139.677261 -73.815514 0.787402 -137.052597 -73.815514 1.417323 -133.115585 -73.815514 1.889764 -127.866234 -73.815514 2.204725 -140.989594 -73.815514 -0.000000 "
							            />
						</IndexedFaceSet>
					</Shape>
				</Group>
			</Transform>
			<Transform DEF="group_0_TRANSFORM"
			           translation="-68.613251 -68.750916 0.000000"
			           scale="1.000000 1.000000 1.000000"
			           rotation="0.000000 0.000000 1.000000 1.570796"
			           >
				<Transform DEF="group_1_TRANSFORM"
				           translation="36.406235 3.346464 0.000000"
				           scale="1.000000 1.000000 1.000000"
				           rotation="0.000000 0.000000 -0.000000 0.000000"
				           >
					<Transform DEF="group_2_TRANSFORM"
					           translation="-0.000002 1.181112 0.000000"
					           scale="1.000000 1.000000 1.000000"
					           rotation="0.000000 0.000000 -0.000000 0.000000"
					           >
						<Transform DEF="group_2_ifs_TRANSFORM"
						           translation="-0.000002 0.000005 0.000000"
						           scale="1.000000 1.000000 1.000000"
						           rotation="0.000000 0.000000 -0.000000 0.000000"
						           >
							<Group DEF="group_ME_ID5_001">
								<Shape>
									<Appearance>
										<Material USE="MA_material_004" />
									</Appearance>
									<IndexedFaceSet solid="false"
									                coordIndex="0 1 2 -1 1 0 3 -1 3 0 4 -1 4 0 5 -1 1 6 7 -1 6 1 3 -1 8 9 10 -1 9 8 11 -1 11 8 7 -1 11 7 6 -1 12 13 14 -1 13 12 15 -1 16 17 18 -1 17 16 19 -1 18 17 20 -1 18 20 21 -1 20 17 22 -1 22 17 23 -1 24 25 26 -1 25 24 27 -1 28 29 30 -1 29 28 31 -1 32 33 34 -1 33 32 35 -1 36 37 38 -1 37 36 39 -1 39 36 40 -1 37 39 41 -1 37 41 42 -1 37 42 43 -1 37 43 44 -1 45 46 47 -1 46 45 48 -1 49 50 51 -1 52 50 53 -1 50 52 51 -1 51 52 54 -1 54 52 55 -1 55 52 56 -1 56 52 57 -1 58 59 60 -1 59 58 61 -1 62 63 64 -1 63 62 65 -1 66 67 68 -1 67 66 69 -1 70 71 72 -1 71 70 73 -1 71 73 74 -1 71 74 75 -1 74 73 76 -1 74 76 77 -1 78 79 80 -1 79 78 81 -1 82 83 84 -1 83 82 85 -1 86 87 88 -1 87 86 89 -1 90 91 92 -1 91 90 93 -1 94 95 96 -1 95 94 97 -1 97 94 98 -1 98 94 99 -1 95 100 101 -1 100 95 97 -1 102 103 104 -1 103 102 105 -1 105 102 101 -1 105 101 100 -1 106 107 108 -1 107 106 109 -1 110 111 112 -1 111 110 113 -1 114 115 116 -1 115 114 117 -1 118 119 120 -1 119 118 121 -1 122 123 124 -1 123 122 125 -1 "
									                >
										<Coordinate DEF="coords_ME_ID5_001"
										            point="34.212597 3.937008 0.000000 16.929134 3.543307 0.000000 16.929134 3.937008 0.000000 16.929134 0.393701 0.000000 16.929134 0.000000 0.000000 34.212597 0.000000 0.000000 12.992126 0.393701 0.000000 12.992126 3.543307 0.000000 12.992126 3.937008 0.000000 0.000000 0.000000 0.000000 0.000000 3.937008 0.000000 12.992126 0.000000 0.000000 11.417322 0.000000 8.267716 0.000000 3.937008 0.000000 0.000000 0.000000 0.000000 11.417322 3.937008 8.267716 0.000000 3.937008 0.000000 11.417322 3.937008 7.480315 12.992126 3.937008 0.000000 11.417322 3.937008 8.267716 12.204723 3.937008 5.905511 12.992126 3.937008 5.905512 12.102325 3.937008 6.500865 11.832166 3.937008 7.041184 12.992126 3.543307 0.000000 12.992126 3.937008 5.905512 12.992126 3.543307 5.905512 12.992126 3.937008 0.000000 12.992126 3.543307 5.905512 16.929134 3.543307 0.000000 12.992126 3.543307 0.000000 16.929134 3.543307 5.905512 16.929134 3.937008 5.905512 16.929134 3.543307 0.000000 16.929134 3.543307 5.905512 16.929134 3.937008 0.000000 16.929134 3.937008 0.000000 34.212597 3.937008 8.267716 34.212597 3.937008 0.000000 17.716536 3.937008 5.905511 16.929134 3.937008 5.905512 17.818935 3.937008 6.500865 18.089094 3.937008 7.041184 18.503937 3.937008 7.480315 18.503937 3.937008 8.267716 34.212597 3.937008 0.000000 34.212597 0.000000 8.267716 34.212597 0.000000 0.000000 34.212597 3.937008 8.267716 16.929134 0.000000 5.905512 16.929134 0.000000 0.000000 17.716536 0.000000 5.905512 34.212597 0.000000 8.267716 34.212597 0.000000 0.000000 17.818935 0.000000 6.500865 18.089094 0.000000 7.041184 18.503937 0.000000 7.480315 18.503937 0.000000 8.267716 16.929134 0.393701 5.905512 16.929134 0.000000 0.000000 16.929134 0.000000 5.905512 16.929134 0.393701 0.000000 16.929134 0.393701 5.905512 12.992126 0.393701 0.000000 16.929134 0.393701 0.000000 12.992126 0.393701 5.905512 12.992126 0.000000 0.000000 12.992126 0.393701 5.905512 12.992126 0.000000 5.905512 12.992126 0.393701 0.000000 12.992126 0.000000 5.905512 0.000000 0.000000 0.000000 12.992126 0.000000 0.000000 12.204723 0.000000 5.905512 11.417322 0.000000 7.480315 11.417322 0.000000 8.267716 12.102325 0.000000 6.500865 11.832167 0.000000 7.041184 11.417322 3.937008 7.480315 11.417322 0.000000 8.267716 11.417322 0.000000 7.480315 11.417322 3.937008 8.267716 11.832166 3.937008 7.041184 11.417322 0.000000 7.480315 11.832167 0.000000 7.041184 11.417322 3.937008 7.480315 12.102325 3.937008 6.500865 11.832167 0.000000 7.041184 12.102325 0.000000 6.500865 11.832166 3.937008 7.041184 12.204723 3.937008 5.905511 12.102325 0.000000 6.500865 12.204723 0.000000 5.905512 12.102325 3.937008 6.500865 17.716536 0.000000 5.905512 16.929134 0.393701 5.905512 16.929134 0.000000 5.905512 16.929134 3.543307 5.905512 16.929134 3.937008 5.905512 17.716536 3.937008 5.905511 12.992126 3.543307 5.905512 12.992126 0.393701 5.905512 12.992126 0.000000 5.905512 12.204723 3.937008 5.905511 12.204723 0.000000 5.905512 12.992126 3.937008 5.905512 17.818935 3.937008 6.500865 17.716536 0.000000 5.905512 17.818935 0.000000 6.500865 17.716536 3.937008 5.905511 18.089094 3.937008 7.041184 17.818935 0.000000 6.500865 18.089094 0.000000 7.041184 17.818935 3.937008 6.500865 18.503937 3.937008 7.480315 18.089094 0.000000 7.041184 18.503937 0.000000 7.480315 18.089094 3.937008 7.041184 18.503937 3.937008 8.267716 18.503937 0.000000 7.480315 18.503937 0.000000 8.267716 18.503937 3.937008 7.480315 34.212597 0.000000 8.267716 18.503937 3.937008 8.267716 18.503937 0.000000 8.267716 34.212597 3.937008 8.267716 "
										            />
									</IndexedFaceSet>
								</Shape>
							</Group>
						</Transform>
					</Transform>
					<Transform DEF="instance_0_TRANSFORM"
					           translation="18.503937 0.000007 5.905512"
					           scale="1.000000 1.000000 1.000000"
					           rotation="0.000000 0.000000 1.000000 1.570796"
					           >
						<Transform DEF="instance_0_ifs_TRANSFORM"
						           translation="0.000006 0.000001 0.000000"
						           scale="1.000000 1.000000 1.000000"
						           rotation="0.000000 0.000000 -0.000000 0.000000"
						           >
							<Group DEF="group_ME_ID15_001">
								<Shape>
									<Appearance>
									</Appearance>
									<IndexedFaceSet solid="false"
									                coordIndex="0 1 2 -1 1 0 3 -1 4 5 6 -1 5 4 7 -1 8 9 10 -1 9 8 11 -1 12 13 14 -1 13 12 15 -1 11 16 17 -1 16 11 8 -1 16 8 14 -1 16 14 13 -1 9 18 19 -1 18 9 11 -1 20 21 22 -1 21 20 23 -1 23 20 24 -1 24 20 25 -1 25 20 26 -1 22 27 28 -1 27 22 21 -1 29 30 31 -1 30 29 32 -1 33 34 35 -1 34 33 36 -1 34 36 37 -1 35 38 39 -1 38 35 34 -1 39 38 40 -1 41 42 43 -1 42 41 44 -1 45 46 47 -1 46 45 48 -1 49 50 51 -1 50 49 52 -1 53 54 55 -1 54 53 56 -1 57 58 59 -1 58 57 60 -1 61 62 63 -1 62 61 64 -1 62 64 60 -1 60 64 58 -1 65 66 67 -1 66 65 68 -1 69 70 71 -1 70 69 72 -1 73 74 75 -1 74 73 76 -1 74 76 77 -1 75 78 79 -1 78 75 74 -1 79 78 80 -1 81 82 83 -1 82 81 84 -1 85 86 87 -1 86 85 88 -1 86 88 89 -1 86 89 90 -1 91 92 93 -1 92 91 94 -1 95 96 97 -1 96 95 98 -1 99 100 101 -1 100 99 102 -1 103 104 105 -1 104 103 106 -1 107 108 109 -1 108 107 110 -1 111 88 85 -1 88 111 112 -1 88 112 113 -1 88 113 89 -1 97 114 115 -1 114 97 96 -1 106 116 104 -1 116 106 117 -1 109 118 119 -1 118 109 108 -1 120 112 111 -1 112 120 121 -1 112 121 113 -1 115 122 123 -1 122 115 114 -1 117 124 116 -1 124 117 125 -1 119 126 127 -1 126 119 118 -1 128 129 130 -1 129 128 131 -1 "
									                >
										<Coordinate DEF="coords_ME_ID15_001"
										            point="6.299213 5.511811 3.937008 5.118110 5.511811 2.362205 6.299213 5.511811 2.362205 5.118110 5.511811 3.937008 5.118110 7.086615 3.937008 5.118110 5.511811 2.362205 5.118110 5.511811 3.937008 5.118110 7.086615 2.362205 5.118110 0.000000 2.362205 1.181102 1.574803 2.362205 1.181102 0.000000 2.362205 1.181102 5.511811 2.362205 6.299213 1.574803 2.362205 5.118110 5.511811 2.362205 5.118110 1.574803 2.362205 6.299213 5.511811 2.362205 5.118110 7.086615 2.362205 1.181102 7.086615 2.362205 0.000000 5.511811 2.362205 0.000000 1.574803 2.362205 6.299213 6.299213 1.574803 6.299213 1.574803 2.362205 6.299213 0.000000 1.574803 6.299213 5.511811 2.362205 6.299213 5.511811 3.937008 6.299213 7.086615 3.937008 6.299213 7.086615 1.574803 6.299213 1.574803 3.937008 6.299213 0.000000 3.937008 6.299213 5.511811 3.937008 5.118110 7.086615 3.937008 5.118110 5.511811 3.937008 6.299213 7.086615 3.937008 0.000000 7.086615 1.574803 1.181102 7.086615 2.362205 6.299213 7.086615 1.574803 0.000000 7.086615 3.937008 1.181102 7.086615 3.937008 5.118110 7.086615 2.362205 6.299213 7.086615 3.937008 5.118110 7.086615 3.937008 5.118110 1.574803 3.937008 5.118110 0.000000 2.362205 5.118110 0.000000 3.937008 5.118110 1.574803 2.362205 5.118110 1.574803 2.362205 6.299213 1.574803 3.937008 6.299213 1.574803 2.362205 5.118110 1.574803 3.937008 1.181102 7.086615 2.362205 1.181102 5.511811 3.937008 1.181102 5.511811 2.362205 1.181102 7.086615 3.937008 1.181102 5.511811 2.362205 0.000000 5.511811 3.937008 0.000000 5.511811 2.362205 1.181102 5.511811 3.937008 0.000000 7.086615 3.937008 0.000000 5.511811 2.362205 0.000000 5.511811 3.937008 0.000000 7.086615 1.574803 0.000000 1.574803 3.937008 0.000000 0.000000 1.574803 0.000000 0.000000 3.937008 0.000000 1.574803 2.362205 0.000000 1.574803 3.937008 1.181102 1.574803 2.362205 0.000000 1.574803 2.362205 1.181102 1.574803 3.937008 1.181102 1.574803 2.362205 1.181102 0.000000 3.937008 1.181102 0.000000 2.362205 1.181102 1.574803 3.937008 6.299213 0.000000 1.574803 5.118110 0.000000 2.362205 0.000000 0.000000 1.574803 6.299213 0.000000 3.937008 5.118110 0.000000 3.937008 1.181102 0.000000 2.362205 0.000000 0.000000 3.937008 1.181102 0.000000 3.937008 6.299213 0.000000 3.937008 5.118110 1.574803 3.937008 5.118110 0.000000 3.937008 6.299213 1.574803 3.937008 5.884369 0.414843 1.135672 6.299213 6.299213 1.574803 6.299213 0.000000 1.574803 5.884369 6.299213 1.135672 5.884369 6.671771 1.135672 6.299213 7.086615 1.574803 0.000000 5.511811 3.937008 1.181102 7.086615 3.937008 0.000000 7.086615 3.937008 1.181102 5.511811 3.937008 0.000000 7.086615 1.574803 5.884369 6.671771 1.135672 0.414843 6.671771 1.135672 6.299213 7.086615 1.574803 1.181102 0.000000 3.937008 0.000000 1.574803 3.937008 0.000000 0.000000 3.937008 1.181102 1.574803 3.937008 0.000000 7.086615 1.574803 0.414843 0.414843 1.135672 0.000000 0.000000 1.574803 0.414843 6.671771 1.135672 6.299213 0.000000 1.574803 0.414843 0.414843 1.135672 5.884369 0.414843 1.135672 0.000000 0.000000 1.574803 5.614210 0.685003 0.595353 5.614210 6.299213 0.595353 5.614210 6.401611 0.595353 5.614210 6.401611 0.595353 0.685003 6.401612 0.595353 0.685003 0.685003 0.595353 0.685003 6.401612 0.595353 0.685003 0.685003 0.595353 5.614210 0.685003 0.595353 5.511811 0.787402 0.000000 5.511811 6.299213 0.000000 5.511811 6.299213 0.000000 0.787402 6.299213 0.000000 0.787402 0.787402 0.000000 0.787402 6.299213 0.000000 0.787402 0.787402 0.000000 5.511811 0.787402 0.000000 0.787402 6.299213 0.000000 5.511811 0.787402 0.000000 0.787402 0.787402 0.000000 5.511811 6.299213 0.000000 "
										            />
									</IndexedFaceSet>
								</Shape>
							</Group>
						</Transform>
					</Transform>
				</Transform>
				<Transform DEF="group_3_TRANSFORM"
				           translation="-56.259846 0.000013 0.000000"
				           scale="1.000000 1.000000 1.000000"
				           rotation="0.000000 0.000000 -0.000000 0.000000"
				           >
					<Transform DEF="group_3_ifs_TRANSFORM"
					           translation="-0.000013 0.000013 0.000000"
					           scale="1.000000 1.000000 1.000000"
					           rotation="0.000000 0.000000 -0.000000 0.000000"
					           >
						<Group DEF="group_ME_ID22_002">
							<Shape>
								<Appearance>
									<Material USE="MA_material_004" />
								</Appearance>
								<IndexedFaceSet solid="false"
								                coordIndex="0 1 2 -1 1 3 2 -1 0 2 4 -1 5 6 7 -1 1 8 3 -1 9 10 11 -1 12 0 4 -1 13 9 14 -1 15 5 7 -1 5 16 6 -1 8 17 3 -1 16 18 6 -1 10 19 11 -1 9 11 14 -1 12 4 20 -1 15 7 21 -1 13 14 22 -1 23 24 25 -1 24 23 26 -1 26 23 27 -1 26 27 28 -1 8 29 17 -1 10 30 19 -1 18 16 31 -1 32 33 34 -1 33 32 35 -1 36 34 37 -1 34 36 32 -1 38 12 20 -1 39 13 22 -1 40 15 21 -1 41 37 42 -1 37 41 36 -1 43 28 27 -1 28 43 44 -1 45 46 47 -1 46 45 48 -1 48 45 25 -1 48 25 24 -1 49 50 51 -1 51 52 53 -1 29 54 17 -1 18 31 55 -1 30 56 19 -1 35 57 33 -1 57 35 58 -1 34 59 60 -1 59 34 33 -1 37 60 61 -1 60 37 34 -1 38 20 62 -1 40 21 63 -1 39 22 64 -1 42 61 65 -1 61 42 37 -1 66 42 67 -1 42 66 41 -1 68 53 69 -1 70 44 43 -1 44 70 71 -1 72 40 63 -1 73 74 75 -1 74 73 76 -1 76 73 47 -1 76 47 46 -1 77 78 79 -1 79 80 49 -1 51 50 52 -1 49 80 50 -1 53 52 69 -1 29 81 54 -1 30 82 56 -1 55 31 83 -1 58 84 57 -1 84 58 85 -1 33 86 59 -1 86 33 57 -1 60 87 88 -1 87 60 59 -1 61 88 89 -1 88 61 60 -1 90 38 62 -1 91 39 64 -1 65 89 92 -1 89 65 61 -1 67 65 93 -1 65 67 42 -1 94 67 95 -1 67 94 66 -1 68 69 96 -1 83 31 97 -1 98 68 99 -1 72 63 100 -1 101 72 100 -1 102 101 103 -1 104 105 106 -1 105 104 107 -1 107 104 75 -1 107 75 74 -1 108 109 110 -1 110 111 77 -1 79 78 80 -1 77 111 78 -1 112 113 114 -1 115 116 112 -1 114 117 118 -1 81 119 54 -1 82 120 56 -1 85 121 84 -1 121 85 122 -1 57 123 86 -1 123 57 84 -1 59 124 87 -1 124 59 86 -1 87 125 88 -1 125 87 126 -1 88 127 89 -1 127 88 125 -1 90 62 128 -1 91 64 129 -1 93 92 130 -1 92 93 65 -1 89 131 92 -1 131 89 127 -1 95 93 132 -1 93 95 67 -1 94 133 134 -1 133 94 95 -1 118 135 136 -1 68 96 99 -1 81 137 119 -1 138 139 140 -1 101 100 103 -1 141 102 103 -1 102 141 142 -1 143 142 144 -1 106 145 146 -1 145 106 105 -1 147 148 149 -1 108 150 109 -1 150 108 149 -1 110 109 111 -1 151 152 115 -1 153 154 151 -1 114 113 117 -1 112 116 113 -1 115 152 116 -1 118 117 135 -1 155 156 82 -1 82 156 120 -1 122 157 121 -1 157 122 158 -1 84 159 123 -1 159 84 121 -1 86 160 124 -1 160 86 123 -1 124 126 87 -1 126 124 161 -1 161 124 162 -1 126 163 125 -1 163 126 164 -1 125 165 127 -1 165 125 163 -1 166 90 128 -1 167 91 129 -1 92 168 130 -1 168 92 131 -1 132 130 169 -1 130 132 93 -1 127 170 131 -1 170 127 165 -1 95 171 133 -1 171 95 132 -1 172 173 174 -1 173 172 175 -1 173 175 176 -1 173 176 177 -1 177 176 178 -1 178 176 179 -1 179 176 180 -1 180 176 181 -1 181 176 182 -1 182 176 183 -1 182 183 184 -1 185 129 186 -1 129 185 187 -1 136 135 188 -1 136 188 138 -1 137 189 119 -1 140 139 190 -1 138 188 139 -1 142 141 144 -1 191 166 192 -1 193 144 194 -1 144 193 143 -1 148 195 196 -1 195 148 147 -1 149 148 150 -1 197 198 199 -1 199 200 153 -1 151 154 152 -1 153 200 154 -1 201 202 203 -1 204 205 201 -1 206 207 204 -1 203 208 209 -1 155 210 156 -1 158 211 157 -1 211 158 212 -1 157 213 121 -1 213 159 121 -1 123 214 160 -1 214 123 159 -1 160 162 124 -1 162 160 215 -1 161 164 126 -1 164 161 216 -1 216 161 217 -1 217 161 162 -1 164 218 163 -1 218 164 219 -1 163 220 165 -1 220 163 218 -1 166 128 192 -1 221 167 129 -1 131 222 168 -1 222 131 170 -1 130 223 169 -1 223 130 168 -1 132 224 171 -1 224 132 169 -1 165 225 170 -1 225 165 220 -1 169 226 224 -1 226 169 223 -1 223 227 226 -1 227 223 228 -1 228 229 227 -1 229 228 230 -1 231 232 233 -1 232 231 234 -1 235 236 237 -1 236 235 238 -1 239 240 241 -1 240 239 242 -1 187 221 129 -1 209 243 244 -1 155 245 210 -1 246 247 248 -1 246 244 249 -1 250 191 192 -1 191 250 251 -1 197 252 198 -1 252 197 253 -1 199 198 200 -1 254 255 206 -1 256 231 254 -1 203 202 208 -1 201 205 202 -1 204 207 205 -1 206 255 207 -1 209 208 243 -1 212 257 211 -1 257 212 258 -1 211 213 157 -1 213 214 159 -1 214 215 160 -1 215 214 259 -1 215 217 162 -1 217 215 216 -1 216 215 260 -1 216 219 164 -1 219 216 261 -1 168 228 223 -1 228 168 222 -1 170 262 222 -1 262 170 225 -1 222 230 228 -1 230 222 262 -1 234 231 263 -1 244 243 264 -1 246 249 247 -1 257 265 266 -1 265 257 258 -1 244 264 249 -1 263 231 256 -1 254 231 255 -1 213 267 268 -1 267 213 257 -1 257 213 211 -1 213 268 214 -1 267 259 214 -1 259 260 215 -1 260 259 269 -1 260 261 216 -1 261 260 270 -1 266 271 269 -1 271 266 265 -1 257 266 267 -1 269 270 260 -1 270 269 271 -1 267 214 268 -1 267 269 259 -1 266 269 267 -1 "
								                >
									<Coordinate DEF="coords_ME_ID22_002"
									            point="97.334251 11.827897 14.412066 100.146393 11.181102 13.046656 85.916924 11.827896 4.657511 88.729073 11.181102 3.622509 84.792061 12.086614 4.890387 100.146393 10.045335 14.610673 100.146393 11.181102 13.046656 97.334251 11.827897 14.412066 100.708824 10.922385 12.773574 85.916924 11.827896 4.657511 88.729073 11.181102 3.622509 81.417488 11.025327 2.024747 96.209389 12.086614 14.719283 84.792061 12.086614 4.890387 79.542725 11.188658 2.099738 97.334244 10.535331 16.422947 100.708824 9.849338 14.248219 89.291504 10.922385 3.415508 100.708824 10.922385 12.773574 84.792061 10.731329 1.771654 81.417488 12.474690 5.589014 96.209389 12.086614 14.719283 75.793190 11.319323 2.249719 100.146393 2.946791 14.610673 97.334244 10.535331 16.422947 97.334244 2.456795 16.422947 100.146393 10.045335 14.610673 100.708824 3.142789 14.248219 100.708824 9.849338 14.248219 102.771072 9.973754 10.896132 89.291504 10.922385 3.415508 102.958542 9.065345 11.529809 81.417488 11.025327 2.024747 84.553764 9.128537 1.381830 81.254547 9.415970 1.629271 84.792061 10.731329 1.771654 79.542725 11.188658 2.099738 79.428490 9.575058 1.702313 92.834816 12.474690 15.640937 81.417488 12.474690 5.589014 96.209389 10.731329 16.830708 75.793190 11.319323 2.249719 75.725594 9.704099 1.850429 102.958542 3.926782 11.529809 102.958542 9.065345 11.529809 96.209389 2.260797 16.830708 92.834808 11.025327 18.053993 92.834808 1.966800 18.053993 96.209389 10.731329 16.830708 97.334244 2.456795 16.422947 97.334251 1.164230 14.412066 100.146393 2.946791 14.610673 100.146393 1.811024 13.046656 100.708824 3.142789 14.248219 91.353752 9.973754 1.992380 102.771072 9.973754 10.896132 85.916924 10.535331 1.687289 85.600075 8.946225 1.303356 85.916924 10.535331 1.687289 84.322052 7.497502 1.129061 81.097031 7.778469 1.370937 79.318031 7.933457 1.442098 79.542725 12.690289 5.796014 92.834816 12.474690 15.640937 72.981041 11.417322 2.296588 75.660904 8.060904 1.588383 72.981041 11.417322 2.296588 72.946220 9.800956 1.896752 102.958542 3.926782 11.529809 100.708824 2.069741 12.773574 104.083405 4.527559 8.267716 104.083405 8.464567 8.267716 92.834808 11.025327 18.053993 90.960052 1.803468 18.416449 87.210510 11.319323 19.141357 87.210510 1.672802 19.141357 90.960052 11.188658 18.416449 92.834808 1.966800 18.053993 92.834816 0.517435 15.640937 96.209389 2.260797 16.830708 96.209389 0.905512 14.719283 102.958542 9.758155 10.725456 91.353752 9.973754 1.992380 102.958542 9.758155 10.725456 88.274132 8.480291 0.946815 88.729073 10.045335 1.312336 85.292473 7.328413 1.056280 84.186234 6.496063 1.059822 80.979988 6.496063 1.278395 79.226234 6.496063 1.337053 90.960052 12.690289 15.914019 79.542725 12.690289 5.796014 75.603088 6.496063 1.472450 72.913208 8.156656 1.634178 69.044037 11.417322 2.362205 69.040703 9.800956 1.961844 102.771072 3.018373 10.896132 104.083405 8.464567 8.267716 104.083405 4.527559 8.267716 102.958542 3.233971 10.725456 90.960052 12.690289 15.914019 90.960052 11.188658 18.416449 87.210510 11.319323 19.141357 87.210510 12.862766 16.460182 84.398369 1.574803 19.367891 80.461357 11.417322 19.685040 80.461357 1.574803 19.685040 84.398369 11.417322 19.367891 87.210510 1.672802 19.141357 87.210510 0.129359 16.460182 90.960052 1.803468 18.416449 90.960052 0.301837 15.914019 97.334251 1.164230 14.412066 85.916924 1.164230 4.657511 100.146393 1.811024 13.046656 96.209389 0.905512 14.719283 84.792068 0.905512 4.890387 88.729073 1.811024 3.622509 100.708824 2.069741 12.773574 91.541222 9.758155 1.863004 88.729073 10.045335 1.312336 88.696793 8.333001 0.890461 89.291504 9.849338 1.237345 87.829895 6.886286 0.717956 85.141693 6.496063 1.001062 81.097031 5.213657 1.370937 84.322052 5.494625 1.129061 79.318031 5.058669 1.442098 75.793190 12.862766 6.210015 69.044037 11.417322 2.362205 72.882225 6.496063 1.510724 75.660904 4.931223 1.588383 69.038506 8.156656 1.698756 47.244091 9.800956 1.961844 47.244091 11.417322 2.362205 89.291504 2.069741 3.415508 102.771072 3.018373 10.896132 104.083405 8.464567 8.267716 102.958542 3.233971 10.725456 91.541222 3.233971 1.863004 104.083405 4.527559 8.267716 84.398369 12.992126 16.630859 84.398369 11.417322 19.367891 80.461357 11.417322 19.685040 80.461357 12.992126 16.869806 47.244091 11.417322 19.685040 47.244091 1.574803 19.685040 80.461357 1.574803 19.685040 80.461357 0.000000 16.869806 84.398369 1.574803 19.367891 84.398369 0.000000 16.630859 92.834816 0.517435 15.640937 81.417488 0.517435 5.589014 90.960052 0.301837 15.914019 79.542725 0.301837 5.796014 91.541222 9.758155 1.863004 89.291504 9.849338 1.237345 90.782753 7.606077 0.368971 91.541222 9.065345 0.674916 88.117424 6.786087 0.679619 87.725685 6.496063 0.696026 85.233162 5.653379 1.060728 85.292473 5.663712 1.056280 81.254547 3.576156 1.629271 84.553764 3.863588 1.381830 79.428490 3.417068 1.702313 87.210510 12.862766 16.460182 75.793190 12.862766 6.210015 72.913208 4.835470 1.634178 69.037476 6.496063 1.574803 75.725594 3.288028 1.850429 47.244091 8.156656 1.698756 47.244091 0.000000 16.869806 47.244091 1.574803 2.362205 47.244091 0.000000 6.520516 47.244091 1.574803 19.685040 47.244091 11.417322 19.685040 47.244091 3.191171 1.961844 47.244091 4.835470 1.698756 47.244091 6.496063 1.574803 47.244091 8.156656 1.698756 47.244091 9.800956 1.961844 47.244091 11.417322 2.362205 47.244091 12.992126 16.869806 47.244091 12.992126 6.520516 47.244091 12.992126 6.520516 47.244091 11.417322 2.362205 69.044037 12.992126 6.520516 91.353752 3.018373 1.992380 92.666084 8.464567 0.000000 92.666084 4.527559 0.000000 84.398369 12.992126 16.630859 72.981041 12.992126 6.339390 47.244091 11.417322 19.685040 47.244091 12.992126 16.869806 47.244091 1.574803 19.685040 47.244091 0.000000 16.869806 84.398369 0.000000 16.630859 72.981041 0.000000 6.339390 87.210510 0.129359 16.460182 75.793190 0.129359 6.210015 85.916924 1.164230 4.657511 81.417488 1.966800 2.024747 88.729073 1.811024 3.622509 84.792068 0.905512 4.890387 79.542725 1.803468 2.099738 81.417488 0.517435 5.589014 75.793190 1.672802 2.249719 84.792068 2.260797 1.771654 89.291504 2.069741 3.415508 91.541222 9.065345 0.674916 91.016640 7.481158 0.228637 92.666084 8.464567 0.000000 90.595901 7.218221 0.323557 88.013763 6.496063 0.666048 87.829895 6.105840 0.717956 85.600075 4.045900 1.303356 85.296516 5.642405 1.059534 81.417488 1.966800 2.024747 84.792068 2.260797 1.771654 79.542725 1.803468 2.099738 72.981041 12.992126 6.339390 72.946220 3.191171 1.896752 69.038506 4.835470 1.698756 47.244091 6.496063 1.574803 75.793190 1.672802 2.249719 47.244091 4.835470 1.698756 47.244091 3.191171 1.961844 69.040703 3.191171 1.961844 47.244091 1.574803 2.362205 69.044037 1.574803 2.362205 69.044037 1.574803 2.362205 47.244091 0.000000 6.520516 47.244091 1.574803 2.362205 69.044037 0.000000 6.520516 69.044037 0.000000 6.520516 47.244091 0.000000 16.869806 47.244091 0.000000 6.520516 80.461357 0.000000 16.869806 47.244091 12.992126 16.869806 69.044037 12.992126 6.520516 47.244091 12.992126 6.520516 80.461357 12.992126 16.869806 85.916924 2.456795 1.687289 91.353752 3.018373 1.992380 92.666084 8.464567 0.000000 91.541222 3.233971 1.863004 91.541222 3.926782 0.674916 92.666084 4.527559 0.000000 89.291504 3.142789 1.237345 69.044037 12.992126 6.520516 80.461357 12.992126 16.869806 69.044037 0.000000 6.520516 80.461357 0.000000 16.869806 79.542725 0.301837 5.796014 72.981041 1.574803 2.296588 75.793190 0.129359 6.210015 91.016640 5.510969 0.228637 92.666084 4.527559 0.000000 88.117424 6.206039 0.679619 88.274132 4.511835 0.946815 85.916924 2.456795 1.687289 72.981041 1.574803 2.296588 72.981041 0.000000 6.339390 88.729073 2.946791 1.312336 91.541222 3.926782 0.674916 90.782753 5.386050 0.368971 90.595901 5.773905 0.323557 90.595901 6.496063 0.323557 88.696793 4.659125 0.890461 88.729073 2.946791 1.312336 89.291504 3.142789 1.237345 "
									            />
								</IndexedFaceSet>
							</Shape>
						</Group>
					</Transform>
				</Transform>
			</Transform>
			<Transform DEF="group_4_TRANSFORM"
			           translation="-164.611664 -68.067474 -0.000000"
			           scale="1.000000 1.000000 1.000000"
			           rotation="0.000000 1.000000 0.000000 0.000000"
			           >
				<Transform DEF="group_5_TRANSFORM"
				           translation="12.204712 -0.000008 -0.000000"
				           scale="1.000000 1.000000 1.000000"
				           rotation="0.000000 1.000000 0.000000 0.000000"
				           >
					<Transform DEF="group_5_ifs_TRANSFORM"
					           translation="-0.000015 -0.000008 -0.000000"
					           scale="1.000000 1.000000 1.000000"
					           rotation="0.000000 1.000000 0.000000 0.000000"
					           >
						<Group DEF="group_ME_ID30">
							<Shape>
								<Appearance>
									<Material USE="MA_material_004" />
								</Appearance>
								<IndexedFaceSet solid="false"
								                coordIndex="0 1 2 -1 1 3 2 -1 4 2 5 -1 2 4 0 -1 6 7 8 -1 7 6 9 -1 9 6 10 -1 9 10 11 -1 1 12 3 -1 13 14 15 -1 16 15 17 -1 15 16 18 -1 19 20 21 -1 20 19 22 -1 20 22 23 -1 20 23 24 -1 24 23 25 -1 24 25 26 -1 24 26 27 -1 24 27 28 -1 24 28 29 -1 24 29 30 -1 24 30 31 -1 32 11 10 -1 11 32 33 -1 34 35 36 -1 35 34 37 -1 37 34 8 -1 37 8 7 -1 38 39 40 -1 40 41 42 -1 12 43 3 -1 14 44 15 -1 45 46 47 -1 46 45 48 -1 49 50 51 -1 50 49 52 -1 53 54 55 -1 54 53 56 -1 39 57 58 -1 57 39 38 -1 59 60 61 -1 60 59 62 -1 63 62 59 -1 62 63 64 -1 65 64 63 -1 64 65 66 -1 66 67 68 -1 68 67 69 -1 70 71 72 -1 71 70 69 -1 42 73 74 -1 74 75 76 -1 77 78 79 -1 78 77 80 -1 80 77 36 -1 80 36 35 -1 81 82 83 -1 12 81 43 -1 40 39 41 -1 42 41 73 -1 44 84 15 -1 48 85 46 -1 52 49 86 -1 87 53 88 -1 89 61 90 -1 61 89 59 -1 91 59 89 -1 59 91 63 -1 66 65 67 -1 92 63 91 -1 63 92 65 -1 69 67 93 -1 72 94 95 -1 94 72 71 -1 69 93 71 -1 74 73 75 -1 76 75 96 -1 78 97 79 -1 97 78 98 -1 98 78 99 -1 99 78 100 -1 101 102 103 -1 82 101 104 -1 76 96 105 -1 105 106 107 -1 81 83 43 -1 82 104 83 -1 88 53 108 -1 84 109 15 -1 85 110 46 -1 86 49 111 -1 112 53 113 -1 114 90 115 -1 90 114 89 -1 116 89 114 -1 89 116 91 -1 67 65 93 -1 117 91 116 -1 91 117 92 -1 93 92 118 -1 92 93 65 -1 95 119 120 -1 119 95 94 -1 71 118 94 -1 118 71 93 -1 108 53 112 -1 112 113 121 -1 99 122 98 -1 122 99 123 -1 124 125 126 -1 126 127 102 -1 128 129 107 -1 130 131 129 -1 101 103 104 -1 102 127 103 -1 105 96 106 -1 107 106 128 -1 84 132 109 -1 85 133 110 -1 86 111 134 -1 133 135 110 -1 136 115 137 -1 115 136 114 -1 138 114 136 -1 114 138 139 -1 114 139 116 -1 140 116 139 -1 116 140 117 -1 118 117 141 -1 117 118 92 -1 120 142 143 -1 142 120 119 -1 134 111 144 -1 94 141 119 -1 141 94 118 -1 121 113 145 -1 146 147 131 -1 148 149 150 -1 149 148 151 -1 152 153 124 -1 126 125 127 -1 124 153 125 -1 128 130 129 -1 130 146 131 -1 132 154 109 -1 154 155 156 -1 145 157 158 -1 154 156 109 -1 145 113 157 -1 133 159 135 -1 159 160 135 -1 161 137 162 -1 137 161 136 -1 138 136 161 -1 139 138 161 -1 140 139 161 -1 141 140 163 -1 140 141 117 -1 143 164 165 -1 164 143 142 -1 166 144 167 -1 119 168 142 -1 168 119 163 -1 163 119 141 -1 134 144 166 -1 169 170 171 -1 164 162 165 -1 162 164 161 -1 172 173 174 -1 155 175 176 -1 175 172 176 -1 158 177 178 -1 178 177 169 -1 155 176 156 -1 158 157 177 -1 159 179 160 -1 140 161 164 -1 140 164 163 -1 166 167 180 -1 168 164 142 -1 163 164 168 -1 169 177 170 -1 172 174 176 -1 "
								                >
									<Coordinate DEF="coords_ME_ID30"
									            point="19.685040 1.574803 19.685040 15.748032 1.574803 19.228346 19.685040 0.000000 16.869806 15.748032 0.000000 16.525723 63.779530 1.574803 19.685040 63.779530 0.000000 16.869806 15.748032 1.574803 19.228346 13.123360 11.274407 18.923885 13.123360 1.717718 18.923885 15.748032 11.417322 19.228346 19.685040 1.574803 19.685040 19.685040 11.417322 19.685040 13.123360 1.717718 18.923885 19.685040 0.000000 16.869806 15.748032 0.000000 16.525723 27.165354 0.000000 6.520516 63.779530 0.000000 16.869806 63.779530 0.000000 6.520516 19.685040 0.000000 16.869806 63.779530 0.000000 6.520516 63.779530 1.574803 19.685040 63.779530 0.000000 16.869806 63.779530 1.574803 2.362205 63.779530 3.191171 1.961844 63.779530 11.417322 19.685040 63.779530 4.835470 1.698756 63.779530 6.496063 1.574803 63.779530 8.156656 1.698756 63.779530 9.800956 1.961844 63.779530 11.417322 2.362205 63.779530 12.992126 6.520515 63.779530 12.992126 16.869806 63.779530 1.574803 19.685040 63.779530 11.417322 19.685040 9.448818 1.917800 17.858267 7.874016 10.845661 17.401575 7.874016 2.146465 17.401575 9.448818 11.074326 17.858267 19.685040 11.417322 19.685040 19.685040 12.992126 16.869806 15.748032 11.417322 19.228346 15.748032 12.992126 16.525723 13.123360 11.274407 18.923885 13.123360 0.188648 16.296333 13.123360 0.188648 16.296333 63.779530 0.000000 6.520516 27.165354 1.574803 2.362205 63.779530 1.574803 2.362205 27.165354 0.000000 6.520516 27.165354 11.417322 2.362205 63.779530 12.992126 6.520515 63.779530 11.417322 2.362205 27.165354 12.992126 6.520516 27.165354 12.992126 6.520516 63.779530 12.992126 16.869806 63.779530 12.992126 6.520515 19.685040 12.992126 16.869806 63.779530 11.417322 19.685040 63.779530 12.992126 16.869806 27.210703 3.191171 1.961844 63.779530 1.574803 2.362205 27.165354 1.574803 2.362205 63.779530 3.191171 1.961844 27.254135 4.835470 1.698756 63.779530 4.835470 1.698756 27.295343 6.496063 1.574803 63.779530 6.496063 1.574803 53.881485 8.156651 1.699064 63.779530 8.156656 1.698756 63.779530 9.800956 1.961844 63.779530 11.417322 2.362205 27.210703 9.800956 1.961844 27.165354 11.417322 2.362205 13.123360 12.803477 16.296333 9.448818 11.074326 17.858267 9.448818 12.539371 15.493471 7.874016 10.845661 17.401575 4.724409 2.603794 15.574803 3.937008 10.131084 15.118110 3.937008 2.861042 15.118110 4.724409 10.388331 15.574803 9.448818 1.917800 17.858267 7.874016 2.146465 17.401575 9.448818 0.452756 15.493471 9.448818 0.452756 15.493471 20.866140 0.389764 5.868464 20.866140 12.602363 5.868464 19.685040 12.992126 16.869806 15.748032 12.992126 16.525723 21.031372 3.480827 1.730119 20.866140 1.870079 2.125984 21.189617 5.119744 1.471337 21.314436 6.496063 1.371682 27.254135 8.156656 1.698756 21.031372 9.511298 1.730119 20.866140 11.122047 2.125984 7.874016 12.237532 15.149388 1.574803 3.632785 12.377952 1.312336 3.861449 12.073491 1.312336 9.130676 12.073491 1.574803 9.359342 12.377952 4.724409 2.603794 15.574803 3.937008 2.861042 15.118110 4.724409 1.358268 13.773054 7.874016 0.754593 15.149388 4.724409 10.388331 15.574803 4.724409 11.633859 13.773054 3.937008 10.131084 15.118110 13.123360 12.803477 16.296333 20.866140 0.389764 5.868464 20.866140 1.870079 2.125984 20.866140 11.122047 2.125984 9.448818 12.539371 15.493471 20.866140 12.602363 5.868464 16.520782 4.044651 1.279060 16.141733 2.460630 1.653543 16.883808 5.657970 1.040756 17.060772 6.496063 0.989151 21.189617 7.872382 1.471337 16.520782 8.947475 1.279060 16.141733 10.531496 1.653543 7.874016 12.237532 15.149388 0.000000 4.527559 8.267716 0.000000 8.464567 8.267716 1.312336 3.861449 12.073491 1.574803 2.716535 11.364469 1.574803 3.632785 12.377952 3.937008 1.697835 13.428970 3.937008 11.294291 13.428970 1.574803 9.359342 12.377952 1.574803 10.275590 11.364469 1.312336 9.130676 12.073491 7.874016 0.754593 15.149388 16.141733 1.169291 4.564361 16.141733 11.822834 4.564361 16.141733 2.460630 1.653543 13.807490 4.807765 0.668569 12.992126 3.346457 0.944882 14.491959 6.118866 0.542100 14.588380 6.303560 0.524284 14.682228 6.496063 0.522861 16.883808 7.334156 1.040756 13.807490 8.184361 0.668569 12.992126 9.645669 0.944882 16.141733 10.531496 1.653543 4.724409 11.633859 13.773054 1.312336 9.973754 11.135079 0.000000 8.464567 8.267716 11.417322 8.464567 0.000000 0.000000 4.527559 8.267716 0.000000 8.464567 8.267716 11.417322 4.527559 0.000000 0.000000 4.527559 8.267716 1.312336 3.018373 11.135079 4.724409 1.358268 13.773054 3.937008 1.697835 13.428970 16.141733 1.169291 4.564361 16.141733 11.822834 4.564361 3.937008 11.294291 13.428970 12.992126 2.338583 2.608206 12.992126 3.346457 0.944882 13.067336 5.362880 0.224476 11.417322 4.527559 0.000000 14.588380 6.688566 0.524284 13.067336 7.629246 0.224476 11.417322 8.464567 0.000000 12.992126 10.653543 2.608206 12.992126 9.645669 0.944882 14.491959 6.873260 0.542100 1.312336 9.973754 11.135079 11.417322 8.464567 0.000000 0.000000 8.464567 8.267716 1.312336 3.018373 11.135079 0.000000 4.527559 8.267716 11.417322 4.527559 0.000000 1.574803 2.716535 11.364469 12.992126 2.338583 2.608206 12.992126 10.653543 2.608206 1.574803 10.275590 11.364469 11.417322 4.527559 0.000000 11.417322 8.464567 0.000000 "
									            />
								</IndexedFaceSet>
							</Shape>
						</Group>
					</Transform>
				</Transform>
				<Transform DEF="group_6_TRANSFORM"
				           translation="110.433060 -0.000008 0.000000"
				           scale="1.000000 1.000000 1.000000"
				           rotation="0.000000 1.000000 0.000000 0.000000"
				           >
					<Transform DEF="group_1_001_TRANSFORM"
					           translation="36.406239 3.346451 0.000000"
					           scale="1.000000 1.000000 1.000000"
					           rotation="0.000000 1.000000 0.000000 0.000000"
					           >
						<Transform DEF="group_2_001_TRANSFORM"
						           translation="-0.000002 1.181095 0.000000"
						           scale="1.000000 1.000000 1.000000"
						           rotation="0.000000 1.000000 0.000000 0.000000"
						           >
							<Transform DEF="group_2_001_ifs_TRANSFORM"
							           translation="-0.000002 -0.000004 0.000000"
							           scale="1.000000 1.000000 1.000000"
							           rotation="0.000000 1.000000 0.000000 0.000000"
							           >
								<Group DEF="group_ME_ID39">
									<Shape>
										<Appearance>
											<Material USE="MA_material_004" />
										</Appearance>
										<IndexedFaceSet solid="false"
										                coordIndex="0 1 2 -1 1 0 3 -1 3 0 4 -1 4 0 5 -1 1 6 7 -1 6 1 3 -1 8 9 10 -1 9 8 11 -1 11 8 7 -1 11 7 6 -1 12 13 14 -1 13 12 15 -1 16 17 18 -1 17 16 19 -1 18 17 20 -1 18 20 21 -1 20 17 22 -1 22 17 23 -1 24 25 26 -1 25 24 27 -1 28 29 30 -1 29 28 31 -1 32 33 34 -1 33 32 35 -1 36 37 38 -1 37 36 39 -1 39 36 40 -1 37 39 41 -1 37 41 42 -1 37 42 43 -1 37 43 44 -1 45 46 47 -1 46 45 48 -1 49 50 51 -1 52 50 53 -1 50 52 51 -1 51 52 54 -1 54 52 55 -1 55 52 56 -1 56 52 57 -1 58 59 60 -1 59 58 61 -1 62 63 64 -1 63 62 65 -1 66 67 68 -1 67 66 69 -1 70 71 72 -1 71 70 73 -1 71 73 74 -1 71 74 75 -1 74 73 76 -1 74 76 77 -1 78 79 80 -1 79 78 81 -1 82 83 84 -1 83 82 85 -1 86 87 88 -1 87 86 89 -1 90 91 92 -1 91 90 93 -1 94 95 96 -1 95 94 97 -1 97 94 98 -1 98 94 99 -1 95 100 101 -1 100 95 97 -1 102 103 104 -1 103 102 105 -1 105 102 101 -1 105 101 100 -1 106 107 108 -1 107 106 109 -1 110 111 112 -1 111 110 113 -1 114 115 116 -1 115 114 117 -1 118 119 120 -1 119 118 121 -1 122 123 124 -1 123 122 125 -1 "
										                >
											<Coordinate DEF="coords_ME_ID39"
											            point="34.212597 3.937008 0.000000 16.929134 3.543307 0.000000 16.929134 3.937008 0.000000 16.929134 0.393701 0.000000 16.929134 0.000000 0.000000 34.212597 0.000000 0.000000 12.992126 0.393701 0.000000 12.992126 3.543307 0.000000 12.992126 3.937008 0.000000 0.000000 0.000000 0.000000 0.000000 3.937008 0.000000 12.992126 0.000000 0.000000 11.417322 0.000000 8.267716 0.000000 3.937008 0.000000 0.000000 0.000000 0.000000 11.417322 3.937008 8.267716 0.000000 3.937008 0.000000 11.417322 3.937008 7.480315 12.992126 3.937008 0.000000 11.417322 3.937008 8.267716 12.204723 3.937008 5.905511 12.992126 3.937008 5.905512 12.102325 3.937008 6.500865 11.832166 3.937008 7.041184 12.992126 3.543307 0.000000 12.992126 3.937008 5.905512 12.992126 3.543307 5.905512 12.992126 3.937008 0.000000 12.992126 3.543307 5.905512 16.929134 3.543307 0.000000 12.992126 3.543307 0.000000 16.929134 3.543307 5.905512 16.929134 3.937008 5.905512 16.929134 3.543307 0.000000 16.929134 3.543307 5.905512 16.929134 3.937008 0.000000 16.929134 3.937008 0.000000 34.212597 3.937008 8.267716 34.212597 3.937008 0.000000 17.716536 3.937008 5.905511 16.929134 3.937008 5.905512 17.818935 3.937008 6.500865 18.089094 3.937008 7.041184 18.503937 3.937008 7.480315 18.503937 3.937008 8.267716 34.212597 3.937008 0.000000 34.212597 0.000000 8.267716 34.212597 0.000000 0.000000 34.212597 3.937008 8.267716 16.929134 0.000000 5.905512 16.929134 0.000000 0.000000 17.716536 0.000000 5.905512 34.212597 0.000000 8.267716 34.212597 0.000000 0.000000 17.818935 0.000000 6.500865 18.089094 0.000000 7.041184 18.503937 0.000000 7.480315 18.503937 0.000000 8.267716 16.929134 0.393701 5.905512 16.929134 0.000000 0.000000 16.929134 0.000000 5.905512 16.929134 0.393701 0.000000 16.929134 0.393701 5.905512 12.992126 0.393701 0.000000 16.929134 0.393701 0.000000 12.992126 0.393701 5.905512 12.992126 0.000000 0.000000 12.992126 0.393701 5.905512 12.992126 0.000000 5.905512 12.992126 0.393701 0.000000 12.992126 0.000000 5.905512 0.000000 0.000000 0.000000 12.992126 0.000000 0.000000 12.204723 0.000000 5.905512 11.417322 0.000000 7.480315 11.417322 0.000000 8.267716 12.102325 0.000000 6.500865 11.832167 0.000000 7.041184 11.417322 3.937008 7.480315 11.417322 0.000000 8.267716 11.417322 0.000000 7.480315 11.417322 3.937008 8.267716 11.832166 3.937008 7.041184 11.417322 0.000000 7.480315 11.832167 0.000000 7.041184 11.417322 3.937008 7.480315 12.102325 3.937008 6.500865 11.832167 0.000000 7.041184 12.102325 0.000000 6.500865 11.832166 3.937008 7.041184 12.204723 3.937008 5.905511 12.102325 0.000000 6.500865 12.204723 0.000000 5.905512 12.102325 3.937008 6.500865 17.716536 0.000000 5.905512 16.929134 0.393701 5.905512 16.929134 0.000000 5.905512 16.929134 3.543307 5.905512 16.929134 3.937008 5.905512 17.716536 3.937008 5.905511 12.992126 3.543307 5.905512 12.992126 0.393701 5.905512 12.992126 0.000000 5.905512 12.204723 3.937008 5.905511 12.204723 0.000000 5.905512 12.992126 3.937008 5.905512 17.818935 3.937008 6.500865 17.716536 0.000000 5.905512 17.818935 0.000000 6.500865 17.716536 3.937008 5.905511 18.089094 3.937008 7.041184 17.818935 0.000000 6.500865 18.089094 0.000000 7.041184 17.818935 3.937008 6.500865 18.503937 3.937008 7.480315 18.089094 0.000000 7.041184 18.503937 0.000000 7.480315 18.089094 3.937008 7.041184 18.503937 3.937008 8.267716 18.503937 0.000000 7.480315 18.503937 0.000000 8.267716 18.503937 3.937008 7.480315 34.212597 0.000000 8.267716 18.503937 3.937008 8.267716 18.503937 0.000000 8.267716 34.212597 3.937008 8.267716 "
											            />
										</IndexedFaceSet>
									</Shape>
								</Group>
							</Transform>
						</Transform>
						<Transform DEF="instance_0_001_TRANSFORM"
						           translation="18.503935 -0.000008 5.905512"
						           scale="1.000000 1.000000 1.000000"
						           rotation="0.000000 0.000000 1.000000 1.570796"
						           >
							<Transform DEF="instance_0_001_ifs_TRANSFORM"
							           translation="-0.000008 -0.000000 0.000000"
							           scale="1.000000 1.000000 1.000000"
							           rotation="0.000000 0.000000 -0.000000 0.000000"
							           >
								<Group USE="group_ME_ID15_001" />
							</Transform>
						</Transform>
					</Transform>
					<Transform DEF="group_3_001_TRANSFORM"
					           translation="-56.259853 -0.000008 0.000000"
					           scale="1.000000 1.000000 1.000000"
					           rotation="0.000000 1.000000 0.000000 0.000000"
					           >
						<Transform DEF="group_3_001_ifs_TRANSFORM"
						           translation="-0.000015 -0.000008 0.000000"
						           scale="1.000000 1.000000 1.000000"
						           rotation="0.000000 1.000000 0.000000 0.000000"
						           >
							<Group DEF="group_ME_ID47">
								<Shape>
									<Appearance>
										<Material USE="MA_material_004" />
									</Appearance>
									<IndexedFaceSet solid="false"
									                coordIndex="0 1 2 -1 1 3 2 -1 0 2 4 -1 5 6 7 -1 1 8 3 -1 9 10 11 -1 12 0 4 -1 13 9 14 -1 15 5 7 -1 5 16 6 -1 8 17 3 -1 16 18 6 -1 10 19 11 -1 9 11 14 -1 12 4 20 -1 15 7 21 -1 13 14 22 -1 23 24 25 -1 24 23 26 -1 26 23 27 -1 26 27 28 -1 8 29 17 -1 10 30 19 -1 18 16 31 -1 32 33 34 -1 33 32 35 -1 36 34 37 -1 34 36 32 -1 38 12 20 -1 39 13 22 -1 40 15 21 -1 41 37 42 -1 37 41 36 -1 43 28 27 -1 28 43 44 -1 45 46 47 -1 46 45 48 -1 48 45 25 -1 48 25 24 -1 49 50 51 -1 51 52 53 -1 29 54 17 -1 18 31 55 -1 30 56 19 -1 35 57 33 -1 57 35 58 -1 34 59 60 -1 59 34 33 -1 37 60 61 -1 60 37 34 -1 38 20 62 -1 40 21 63 -1 39 22 64 -1 42 61 65 -1 61 42 37 -1 66 42 67 -1 42 66 41 -1 68 53 69 -1 70 44 43 -1 44 70 71 -1 72 40 63 -1 73 74 75 -1 74 73 76 -1 76 73 47 -1 76 47 46 -1 77 78 79 -1 79 80 49 -1 51 50 52 -1 49 80 50 -1 53 52 69 -1 29 81 54 -1 30 82 56 -1 55 31 83 -1 58 84 57 -1 84 58 85 -1 33 86 59 -1 86 33 57 -1 60 87 88 -1 87 60 59 -1 61 88 89 -1 88 61 60 -1 90 38 62 -1 91 39 64 -1 65 89 92 -1 89 65 61 -1 67 65 93 -1 65 67 42 -1 94 67 95 -1 67 94 66 -1 68 69 96 -1 83 31 97 -1 98 68 99 -1 72 63 100 -1 101 72 100 -1 102 101 103 -1 104 105 106 -1 105 104 107 -1 107 104 75 -1 107 75 74 -1 108 109 110 -1 110 111 77 -1 79 78 80 -1 77 111 78 -1 112 113 114 -1 115 116 112 -1 114 117 118 -1 81 119 54 -1 82 120 56 -1 85 121 84 -1 121 85 122 -1 57 123 86 -1 123 57 84 -1 59 124 87 -1 124 59 86 -1 87 125 88 -1 125 87 126 -1 88 127 89 -1 127 88 125 -1 90 62 128 -1 91 64 129 -1 93 92 130 -1 92 93 65 -1 89 131 92 -1 131 89 127 -1 95 93 132 -1 93 95 67 -1 94 133 134 -1 133 94 95 -1 118 135 136 -1 68 96 99 -1 81 137 119 -1 138 139 140 -1 101 100 103 -1 141 102 103 -1 102 141 142 -1 143 142 144 -1 106 145 146 -1 145 106 105 -1 147 148 149 -1 108 150 109 -1 150 108 149 -1 110 109 111 -1 151 152 115 -1 153 154 151 -1 114 113 117 -1 112 116 113 -1 115 152 116 -1 118 117 135 -1 155 156 82 -1 82 156 120 -1 122 157 121 -1 157 122 158 -1 84 159 123 -1 159 84 121 -1 86 160 124 -1 160 86 123 -1 124 126 87 -1 126 124 161 -1 161 124 162 -1 126 163 125 -1 163 126 164 -1 125 165 127 -1 165 125 163 -1 166 90 128 -1 167 91 129 -1 92 168 130 -1 168 92 131 -1 132 130 169 -1 130 132 93 -1 127 170 131 -1 170 127 165 -1 95 171 133 -1 171 95 132 -1 172 173 174 -1 173 172 175 -1 173 175 176 -1 173 176 177 -1 177 176 178 -1 178 176 179 -1 179 176 180 -1 180 176 181 -1 181 176 182 -1 182 176 183 -1 182 183 184 -1 185 129 186 -1 129 185 187 -1 136 135 188 -1 136 188 138 -1 137 189 119 -1 140 139 190 -1 138 188 139 -1 142 141 144 -1 191 166 192 -1 193 144 194 -1 144 193 143 -1 148 195 196 -1 195 148 147 -1 149 148 150 -1 197 198 199 -1 199 200 153 -1 151 154 152 -1 153 200 154 -1 201 202 203 -1 204 205 201 -1 206 207 204 -1 203 208 209 -1 155 210 156 -1 158 211 157 -1 211 158 212 -1 157 213 121 -1 213 159 121 -1 123 214 160 -1 214 123 159 -1 160 162 124 -1 162 160 215 -1 161 164 126 -1 164 161 216 -1 216 161 217 -1 217 161 162 -1 164 218 163 -1 218 164 219 -1 163 220 165 -1 220 163 218 -1 166 128 192 -1 221 167 129 -1 131 222 168 -1 222 131 170 -1 130 223 169 -1 223 130 168 -1 132 224 171 -1 224 132 169 -1 165 225 170 -1 225 165 220 -1 169 226 224 -1 226 169 223 -1 223 227 226 -1 227 223 228 -1 228 229 227 -1 229 228 230 -1 231 232 233 -1 232 231 234 -1 235 236 237 -1 236 235 238 -1 239 240 241 -1 240 239 242 -1 187 221 129 -1 209 243 244 -1 155 245 210 -1 246 247 248 -1 246 244 249 -1 250 191 192 -1 191 250 251 -1 197 252 198 -1 252 197 253 -1 199 198 200 -1 254 255 206 -1 256 231 254 -1 203 202 208 -1 201 205 202 -1 204 207 205 -1 206 255 207 -1 209 208 243 -1 212 257 211 -1 257 212 258 -1 211 213 157 -1 213 214 159 -1 214 215 160 -1 215 214 259 -1 215 217 162 -1 217 215 216 -1 216 215 260 -1 216 219 164 -1 219 216 261 -1 168 228 223 -1 228 168 222 -1 170 262 222 -1 262 170 225 -1 222 230 228 -1 230 222 262 -1 234 231 263 -1 244 243 264 -1 246 249 247 -1 257 265 266 -1 265 257 258 -1 244 264 249 -1 263 231 256 -1 254 231 255 -1 213 267 268 -1 267 213 257 -1 257 213 211 -1 213 268 214 -1 267 259 214 -1 259 260 215 -1 260 259 269 -1 260 261 216 -1 261 260 270 -1 266 271 269 -1 271 266 265 -1 257 266 267 -1 269 270 260 -1 270 269 271 -1 267 214 268 -1 267 269 259 -1 266 269 267 -1 "
									                >
										<Coordinate DEF="coords_ME_ID47"
										            point="97.334251 11.827897 14.412066 100.146393 11.181102 13.046656 85.916924 11.827896 4.657511 88.729073 11.181102 3.622509 84.792061 12.086614 4.890387 100.146393 10.045335 14.610673 100.146393 11.181102 13.046656 97.334251 11.827897 14.412066 100.708824 10.922385 12.773574 85.916924 11.827896 4.657511 88.729073 11.181102 3.622509 81.417488 11.025327 2.024747 96.209389 12.086614 14.719283 84.792061 12.086614 4.890387 79.542725 11.188658 2.099738 97.334244 10.535331 16.422947 100.708824 9.849338 14.248219 89.291504 10.922385 3.415508 100.708824 10.922385 12.773574 84.792061 10.731329 1.771654 81.417488 12.474690 5.589014 96.209389 12.086614 14.719283 75.793190 11.319323 2.249719 100.146393 2.946791 14.610673 97.334244 10.535331 16.422947 97.334244 2.456795 16.422947 100.146393 10.045335 14.610673 100.708824 3.142789 14.248219 100.708824 9.849338 14.248219 102.771072 9.973754 10.896132 89.291504 10.922385 3.415508 102.958542 9.065345 11.529809 81.417488 11.025327 2.024747 84.553764 9.128537 1.381830 81.254547 9.415970 1.629271 84.792061 10.731329 1.771654 79.542725 11.188658 2.099738 79.428490 9.575058 1.702313 92.834816 12.474690 15.640937 81.417488 12.474690 5.589014 96.209389 10.731329 16.830708 75.793190 11.319323 2.249719 75.725594 9.704099 1.850429 102.958542 3.926782 11.529809 102.958542 9.065345 11.529809 96.209389 2.260797 16.830708 92.834808 11.025327 18.053993 92.834808 1.966800 18.053993 96.209389 10.731329 16.830708 97.334244 2.456795 16.422947 97.334251 1.164230 14.412066 100.146393 2.946791 14.610673 100.146393 1.811024 13.046656 100.708824 3.142789 14.248219 91.353752 9.973754 1.992380 102.771072 9.973754 10.896132 85.916924 10.535331 1.687289 85.600075 8.946225 1.303356 85.916924 10.535331 1.687289 84.322052 7.497502 1.129061 81.097031 7.778469 1.370937 79.318031 7.933457 1.442098 79.542725 12.690289 5.796014 92.834816 12.474690 15.640937 72.981041 11.417322 2.296588 75.660904 8.060904 1.588383 72.981041 11.417322 2.296588 72.946220 9.800956 1.896752 102.958542 3.926782 11.529809 100.708824 2.069741 12.773574 104.083405 4.527559 8.267716 104.083405 8.464567 8.267716 92.834808 11.025327 18.053993 90.960052 1.803468 18.416449 87.210510 11.319323 19.141357 87.210510 1.672802 19.141357 90.960052 11.188658 18.416449 92.834808 1.966800 18.053993 92.834816 0.517435 15.640937 96.209389 2.260797 16.830708 96.209389 0.905512 14.719283 102.958542 9.758155 10.725456 91.353752 9.973754 1.992380 102.958542 9.758155 10.725456 88.274132 8.480291 0.946815 88.729073 10.045335 1.312336 85.292473 7.328413 1.056280 84.186234 6.496063 1.059822 80.979988 6.496063 1.278395 79.226234 6.496063 1.337053 90.960052 12.690289 15.914019 79.542725 12.690289 5.796014 75.603088 6.496063 1.472450 72.913208 8.156656 1.634178 69.044037 11.417322 2.362205 69.040703 9.800956 1.961844 102.771072 3.018373 10.896132 104.083405 8.464567 8.267716 104.083405 4.527559 8.267716 102.958542 3.233971 10.725456 90.960052 12.690289 15.914019 90.960052 11.188658 18.416449 87.210510 11.319323 19.141357 87.210510 12.862766 16.460182 84.398369 1.574803 19.367891 80.461357 11.417322 19.685040 80.461357 1.574803 19.685040 84.398369 11.417322 19.367891 87.210510 1.672802 19.141357 87.210510 0.129359 16.460182 90.960052 1.803468 18.416449 90.960052 0.301837 15.914019 97.334251 1.164230 14.412066 85.916924 1.164230 4.657511 100.146393 1.811024 13.046656 96.209389 0.905512 14.719283 84.792068 0.905512 4.890387 88.729073 1.811024 3.622509 100.708824 2.069741 12.773574 91.541222 9.758155 1.863004 88.729073 10.045335 1.312336 88.696793 8.333001 0.890461 89.291504 9.849338 1.237345 87.829895 6.886286 0.717956 85.141693 6.496063 1.001062 81.097031 5.213657 1.370937 84.322052 5.494625 1.129061 79.318031 5.058669 1.442098 75.793190 12.862766 6.210015 69.044037 11.417322 2.362205 72.882225 6.496063 1.510724 75.660904 4.931223 1.588383 69.038506 8.156656 1.698756 47.244091 9.800956 1.961844 47.244091 11.417322 2.362205 89.291504 2.069741 3.415508 102.771072 3.018373 10.896132 104.083405 8.464567 8.267716 102.958542 3.233971 10.725456 91.541222 3.233971 1.863004 104.083405 4.527559 8.267716 84.398369 12.992126 16.630859 84.398369 11.417322 19.367891 80.461357 11.417322 19.685040 80.461357 12.992126 16.869806 47.244091 11.417322 19.685040 47.244091 1.574803 19.685040 80.461357 1.574803 19.685040 80.461357 0.000000 16.869806 84.398369 1.574803 19.367891 84.398369 0.000000 16.630859 92.834816 0.517435 15.640937 81.417488 0.517435 5.589014 90.960052 0.301837 15.914019 79.542725 0.301837 5.796014 91.541222 9.758155 1.863004 89.291504 9.849338 1.237345 90.782753 7.606077 0.368971 91.541222 9.065345 0.674916 88.117424 6.786087 0.679619 87.725685 6.496063 0.696026 85.233162 5.653379 1.060728 85.292473 5.663712 1.056280 81.254547 3.576156 1.629271 84.553764 3.863588 1.381830 79.428490 3.417068 1.702313 87.210510 12.862766 16.460182 75.793190 12.862766 6.210015 72.913208 4.835470 1.634178 69.037476 6.496063 1.574803 75.725594 3.288028 1.850429 47.244091 8.156656 1.698756 47.244091 0.000000 16.869806 47.244091 1.574803 2.362205 47.244091 0.000000 6.520516 47.244091 1.574803 19.685040 47.244091 11.417322 19.685040 47.244091 3.191171 1.961844 47.244091 4.835470 1.698756 47.244091 6.496063 1.574803 47.244091 8.156656 1.698756 47.244091 9.800956 1.961844 47.244091 11.417322 2.362205 47.244091 12.992126 16.869806 47.244091 12.992126 6.520516 47.244091 12.992126 6.520516 47.244091 11.417322 2.362205 69.044037 12.992126 6.520516 91.353752 3.018373 1.992380 92.666084 8.464567 0.000000 92.666084 4.527559 0.000000 84.398369 12.992126 16.630859 72.981041 12.992126 6.339390 47.244091 11.417322 19.685040 47.244091 12.992126 16.869806 47.244091 1.574803 19.685040 47.244091 0.000000 16.869806 84.398369 0.000000 16.630859 72.981041 0.000000 6.339390 87.210510 0.129359 16.460182 75.793190 0.129359 6.210015 85.916924 1.164230 4.657511 81.417488 1.966800 2.024747 88.729073 1.811024 3.622509 84.792068 0.905512 4.890387 79.542725 1.803468 2.099738 81.417488 0.517435 5.589014 75.793190 1.672802 2.249719 84.792068 2.260797 1.771654 89.291504 2.069741 3.415508 91.541222 9.065345 0.674916 91.016640 7.481158 0.228637 92.666084 8.464567 0.000000 90.595901 7.218221 0.323557 88.013763 6.496063 0.666048 87.829895 6.105840 0.717956 85.600075 4.045900 1.303356 85.296516 5.642405 1.059534 81.417488 1.966800 2.024747 84.792068 2.260797 1.771654 79.542725 1.803468 2.099738 72.981041 12.992126 6.339390 72.946220 3.191171 1.896752 69.038506 4.835470 1.698756 47.244091 6.496063 1.574803 75.793190 1.672802 2.249719 47.244091 4.835470 1.698756 47.244091 3.191171 1.961844 69.040703 3.191171 1.961844 47.244091 1.574803 2.362205 69.044037 1.574803 2.362205 69.044037 1.574803 2.362205 47.244091 0.000000 6.520516 47.244091 1.574803 2.362205 69.044037 0.000000 6.520516 69.044037 0.000000 6.520516 47.244091 0.000000 16.869806 47.244091 0.000000 6.520516 80.461357 0.000000 16.869806 47.244091 12.992126 16.869806 69.044037 12.992126 6.520516 47.244091 12.992126 6.520516 80.461357 12.992126 16.869806 85.916924 2.456795 1.687289 91.353752 3.018373 1.992380 92.666084 8.464567 0.000000 91.541222 3.233971 1.863004 91.541222 3.926782 0.674916 92.666084 4.527559 0.000000 89.291504 3.142789 1.237345 69.044037 12.992126 6.520516 80.461357 12.992126 16.869806 69.044037 0.000000 6.520516 80.461357 0.000000 16.869806 79.542725 0.301837 5.796014 72.981041 1.574803 2.296588 75.793190 0.129359 6.210015 91.016640 5.510969 0.228637 92.666084 4.527559 0.000000 88.117424 6.206039 0.679619 88.274132 4.511835 0.946815 85.916924 2.456795 1.687289 72.981041 1.574803 2.296588 72.981041 0.000000 6.339390 88.729073 2.946791 1.312336 91.541222 3.926782 0.674916 90.782753 5.386050 0.368971 90.595901 5.773905 0.323557 90.595901 6.496063 0.323557 88.696793 4.659125 0.890461 88.729073 2.946791 1.312336 89.291504 3.142789 1.237345 "
										            />
									</IndexedFaceSet>
								</Shape>
							</Group>
						</Transform>
					</Transform>
				</Transform>
				<Transform DEF="group_7_TRANSFORM"
				           translation="-0.000015 4.527554 0.000000"
				           scale="1.000000 1.000000 1.000000"
				           rotation="0.000000 1.000000 0.000000 0.000000"
				           >
					<Transform DEF="group_7_ifs_TRANSFORM"
					           translation="-0.000015 -0.000004 -0.000000"
					           scale="1.000000 1.000000 1.000000"
					           rotation="0.000000 1.000000 0.000000 0.000000"
					           >
						<Group DEF="group_ME_ID54">
							<Shape>
								<Appearance>
									<Material USE="MA_material_004" />
								</Appearance>
								<IndexedFaceSet solid="false"
								                coordIndex="0 1 2 -1 1 0 3 -1 4 5 6 -1 5 4 7 -1 8 9 10 -1 9 8 11 -1 12 13 14 -1 13 12 15 -1 16 17 18 -1 17 16 19 -1 20 21 22 -1 21 20 23 -1 "
								                >
									<Coordinate DEF="coords_ME_ID54"
									            point="0.000000 0.000000 8.267716 0.000000 3.937008 0.000000 0.000000 0.000000 0.000000 0.000000 3.937008 8.267716 12.204723 0.000000 8.267716 0.000000 0.000000 0.000000 23.622046 0.000000 0.000000 0.000000 0.000000 8.267716 12.204723 0.000000 8.267716 0.000000 3.937008 8.267716 0.000000 0.000000 8.267716 12.204723 3.937008 8.267716 0.000000 3.937008 8.267716 23.622046 3.937008 0.000000 0.000000 3.937008 0.000000 12.204723 3.937008 8.267716 23.622046 3.937008 0.000000 0.000000 0.000000 0.000000 0.000000 3.937008 0.000000 23.622046 0.000000 0.000000 23.622046 0.000000 0.000000 12.204723 3.937008 8.267716 12.204723 0.000000 8.267716 23.622046 3.937008 0.000000 "
									            />
								</IndexedFaceSet>
							</Shape>
						</Group>
					</Transform>
				</Transform>
			</Transform>
			<Transform DEF="group_8_TRANSFORM"
			           translation="-164.611664 -71.413940 -18.307087"
			           scale="1.000000 1.000000 1.000000"
			           rotation="-1.000000 0.000000 0.000000 1.570796"
			           >
				<Transform DEF="group_9_TRANSFORM"
				           translation="12.204712 0.000002 -0.000001"
				           scale="1.000000 1.000000 1.000000"
				           rotation="0.000000 0.000000 0.000000 0.000000"
				           >
					<Transform DEF="group_9_ifs_TRANSFORM"
					           translation="-0.000015 0.000002 -0.000001"
					           scale="1.000000 1.000000 1.000000"
					           rotation="0.000000 0.000000 0.000000 0.000000"
					           >
						<Group DEF="group_ME_ID62">
							<Shape>
								<Appearance>
									<Material USE="MA_material_004" />
								</Appearance>
								<IndexedFaceSet solid="false"
								                coordIndex="0 1 2 -1 1 3 2 -1 4 2 5 -1 2 4 0 -1 6 7 8 -1 7 6 9 -1 9 6 10 -1 9 10 11 -1 1 12 3 -1 13 14 15 -1 16 15 17 -1 15 16 18 -1 19 20 21 -1 20 19 22 -1 20 22 23 -1 20 23 24 -1 24 23 25 -1 24 25 26 -1 24 26 27 -1 24 27 28 -1 24 28 29 -1 24 29 30 -1 24 30 31 -1 32 11 10 -1 11 32 33 -1 34 35 36 -1 35 34 37 -1 37 34 8 -1 37 8 7 -1 38 39 40 -1 40 41 42 -1 12 43 3 -1 14 44 15 -1 45 46 47 -1 46 45 48 -1 49 50 51 -1 50 49 52 -1 53 54 55 -1 54 53 56 -1 39 57 58 -1 57 39 38 -1 59 60 61 -1 60 59 62 -1 63 62 59 -1 62 63 64 -1 65 64 63 -1 64 65 66 -1 66 67 68 -1 68 67 69 -1 70 71 72 -1 71 70 69 -1 42 73 74 -1 74 75 76 -1 77 78 79 -1 78 77 80 -1 80 77 36 -1 80 36 35 -1 81 82 83 -1 12 81 43 -1 40 39 41 -1 42 41 73 -1 44 84 15 -1 48 85 46 -1 52 49 86 -1 87 53 88 -1 89 61 90 -1 61 89 59 -1 91 59 89 -1 59 91 63 -1 66 65 67 -1 92 63 91 -1 63 92 65 -1 69 67 93 -1 72 94 95 -1 94 72 71 -1 69 93 71 -1 74 73 75 -1 76 75 96 -1 78 97 79 -1 97 78 98 -1 98 78 99 -1 99 78 100 -1 101 102 103 -1 82 101 104 -1 76 96 105 -1 105 106 107 -1 81 83 43 -1 82 104 83 -1 88 53 108 -1 84 109 15 -1 85 110 46 -1 86 49 111 -1 112 53 113 -1 114 90 115 -1 90 114 89 -1 116 89 114 -1 89 116 91 -1 67 65 93 -1 117 91 116 -1 91 117 92 -1 93 92 118 -1 92 93 65 -1 95 119 120 -1 119 95 94 -1 71 118 94 -1 118 71 93 -1 108 53 112 -1 112 113 121 -1 99 122 98 -1 122 99 123 -1 124 125 126 -1 126 127 102 -1 128 129 107 -1 130 131 129 -1 101 103 104 -1 102 127 103 -1 105 96 106 -1 107 106 128 -1 84 132 109 -1 85 133 110 -1 86 111 134 -1 133 135 110 -1 136 115 137 -1 115 136 114 -1 138 114 136 -1 114 138 139 -1 114 139 116 -1 140 116 139 -1 116 140 117 -1 118 117 141 -1 117 118 92 -1 120 142 143 -1 142 120 119 -1 134 111 144 -1 94 141 119 -1 141 94 118 -1 121 113 145 -1 146 147 131 -1 148 149 150 -1 149 148 151 -1 152 153 124 -1 126 125 127 -1 124 153 125 -1 128 130 129 -1 130 146 131 -1 132 154 109 -1 154 155 156 -1 145 157 158 -1 154 156 109 -1 145 113 157 -1 133 159 135 -1 159 160 135 -1 161 137 162 -1 137 161 136 -1 138 136 161 -1 139 138 161 -1 140 139 161 -1 141 140 163 -1 140 141 117 -1 143 164 165 -1 164 143 142 -1 166 144 167 -1 119 168 142 -1 168 119 163 -1 163 119 141 -1 134 144 166 -1 169 170 171 -1 164 162 165 -1 162 164 161 -1 172 173 174 -1 155 175 176 -1 175 172 176 -1 158 177 178 -1 178 177 169 -1 155 176 156 -1 158 157 177 -1 159 179 160 -1 140 161 164 -1 140 164 163 -1 166 167 180 -1 168 164 142 -1 163 164 168 -1 169 177 170 -1 172 174 176 -1 "
								                >
									<Coordinate DEF="coords_ME_ID62"
									            point="19.685040 1.574803 19.685040 15.748032 1.574803 19.228346 19.685040 0.000000 16.869806 15.748032 0.000000 16.525723 63.779530 1.574803 19.685040 63.779530 0.000000 16.869806 15.748032 1.574803 19.228346 13.123360 11.274407 18.923885 13.123360 1.717718 18.923885 15.748032 11.417322 19.228346 19.685040 1.574803 19.685040 19.685040 11.417322 19.685040 13.123360 1.717718 18.923885 19.685040 0.000000 16.869806 15.748032 0.000000 16.525723 27.165354 0.000000 6.520516 63.779530 0.000000 16.869806 63.779530 0.000000 6.520516 19.685040 0.000000 16.869806 63.779530 0.000000 6.520516 63.779530 1.574803 19.685040 63.779530 0.000000 16.869806 63.779530 1.574803 2.362205 63.779530 3.191171 1.961844 63.779530 11.417322 19.685040 63.779530 4.835470 1.698756 63.779530 6.496063 1.574803 63.779530 8.156656 1.698756 63.779530 9.800956 1.961844 63.779530 11.417322 2.362205 63.779530 12.992126 6.520515 63.779530 12.992126 16.869806 63.779530 1.574803 19.685040 63.779530 11.417322 19.685040 9.448818 1.917800 17.858267 7.874016 10.845661 17.401575 7.874016 2.146465 17.401575 9.448818 11.074326 17.858267 19.685040 11.417322 19.685040 19.685040 12.992126 16.869806 15.748032 11.417322 19.228346 15.748032 12.992126 16.525723 13.123360 11.274407 18.923885 13.123360 0.188648 16.296333 13.123360 0.188648 16.296333 63.779530 0.000000 6.520516 27.165354 1.574803 2.362205 63.779530 1.574803 2.362205 27.165354 0.000000 6.520516 27.165354 11.417322 2.362205 63.779530 12.992126 6.520515 63.779530 11.417322 2.362205 27.165354 12.992126 6.520516 27.165354 12.992126 6.520516 63.779530 12.992126 16.869806 63.779530 12.992126 6.520515 19.685040 12.992126 16.869806 63.779530 11.417322 19.685040 63.779530 12.992126 16.869806 27.210703 3.191171 1.961844 63.779530 1.574803 2.362205 27.165354 1.574803 2.362205 63.779530 3.191171 1.961844 27.254135 4.835470 1.698756 63.779530 4.835470 1.698756 27.295343 6.496063 1.574803 63.779530 6.496063 1.574803 53.881485 8.156651 1.699064 63.779530 8.156656 1.698756 63.779530 9.800956 1.961844 63.779530 11.417322 2.362205 27.210703 9.800956 1.961844 27.165354 11.417322 2.362205 13.123360 12.803477 16.296333 9.448818 11.074326 17.858267 9.448818 12.539371 15.493471 7.874016 10.845661 17.401575 4.724409 2.603794 15.574803 3.937008 10.131084 15.118110 3.937008 2.861042 15.118110 4.724409 10.388331 15.574803 9.448818 1.917800 17.858267 7.874016 2.146465 17.401575 9.448818 0.452756 15.493471 9.448818 0.452756 15.493471 20.866140 0.389764 5.868464 20.866140 12.602363 5.868464 19.685040 12.992126 16.869806 15.748032 12.992126 16.525723 21.031372 3.480827 1.730119 20.866140 1.870079 2.125984 21.189617 5.119744 1.471337 21.314436 6.496063 1.371682 27.254135 8.156656 1.698756 21.031372 9.511298 1.730119 20.866140 11.122047 2.125984 7.874016 12.237532 15.149388 1.574803 3.632785 12.377952 1.312336 3.861449 12.073491 1.312336 9.130676 12.073491 1.574803 9.359342 12.377952 4.724409 2.603794 15.574803 3.937008 2.861042 15.118110 4.724409 1.358268 13.773054 7.874016 0.754593 15.149388 4.724409 10.388331 15.574803 4.724409 11.633859 13.773054 3.937008 10.131084 15.118110 13.123360 12.803477 16.296333 20.866140 0.389764 5.868464 20.866140 1.870079 2.125984 20.866140 11.122047 2.125984 9.448818 12.539371 15.493471 20.866140 12.602363 5.868464 16.520782 4.044651 1.279060 16.141733 2.460630 1.653543 16.883808 5.657970 1.040756 17.060772 6.496063 0.989151 21.189617 7.872382 1.471337 16.520782 8.947475 1.279060 16.141733 10.531496 1.653543 7.874016 12.237532 15.149388 0.000000 4.527559 8.267716 0.000000 8.464567 8.267716 1.312336 3.861449 12.073491 1.574803 2.716535 11.364469 1.574803 3.632785 12.377952 3.937008 1.697835 13.428970 3.937008 11.294291 13.428970 1.574803 9.359342 12.377952 1.574803 10.275590 11.364469 1.312336 9.130676 12.073491 7.874016 0.754593 15.149388 16.141733 1.169291 4.564361 16.141733 11.822834 4.564361 16.141733 2.460630 1.653543 13.807490 4.807765 0.668569 12.992126 3.346457 0.944882 14.491959 6.118866 0.542100 14.588380 6.303560 0.524284 14.682228 6.496063 0.522861 16.883808 7.334156 1.040756 13.807490 8.184361 0.668569 12.992126 9.645669 0.944882 16.141733 10.531496 1.653543 4.724409 11.633859 13.773054 1.312336 9.973754 11.135079 0.000000 8.464567 8.267716 11.417322 8.464567 0.000000 0.000000 4.527559 8.267716 0.000000 8.464567 8.267716 11.417322 4.527559 0.000000 0.000000 4.527559 8.267716 1.312336 3.018373 11.135079 4.724409 1.358268 13.773054 3.937008 1.697835 13.428970 16.141733 1.169291 4.564361 16.141733 11.822834 4.564361 3.937008 11.294291 13.428970 12.992126 2.338583 2.608206 12.992126 3.346457 0.944882 13.067336 5.362880 0.224476 11.417322 4.527559 0.000000 14.588380 6.688566 0.524284 13.067336 7.629246 0.224476 11.417322 8.464567 0.000000 12.992126 10.653543 2.608206 12.992126 9.645669 0.944882 14.491959 6.873260 0.542100 1.312336 9.973754 11.135079 11.417322 8.464567 0.000000 0.000000 8.464567 8.267716 1.312336 3.018373 11.135079 0.000000 4.527559 8.267716 11.417322 4.527559 0.000000 1.574803 2.716535 11.364469 12.992126 2.338583 2.608206 12.992126 10.653543 2.608206 1.574803 10.275590 11.364469 11.417322 4.527559 0.000000 11.417322 8.464567 0.000000 "
									            />
								</IndexedFaceSet>
							</Shape>
						</Group>
					</Transform>
				</Transform>
				<Transform DEF="group_10_TRANSFORM"
				           translation="110.433060 0.000002 -0.000001"
				           scale="1.000000 1.000000 1.000000"
				           rotation="0.000000 0.000000 0.000000 0.000000"
				           >
					<Transform DEF="group_11_TRANSFORM"
					           translation="36.406239 3.346459 -0.000002"
					           scale="1.000000 1.000000 1.000000"
					           rotation="0.000000 0.000000 0.000000 0.000000"
					           >
						<Transform DEF="group_2_002_TRANSFORM"
						           translation="-0.000002 1.181101 -0.000002"
						           scale="1.000000 1.000000 1.000000"
						           rotation="0.000000 0.000000 0.000000 0.000000"
						           >
							<Transform DEF="group_2_002_ifs_TRANSFORM"
							           translation="-0.000002 0.000002 -0.000002"
							           scale="1.000000 1.000000 1.000000"
							           rotation="0.000000 0.000000 0.000000 0.000000"
							           >
								<Group DEF="group_ME_ID71">
									<Shape>
										<Appearance>
											<Material USE="MA_material_004" />
										</Appearance>
										<IndexedFaceSet solid="false"
										                coordIndex="0 1 2 -1 1 0 3 -1 3 0 4 -1 4 0 5 -1 1 6 7 -1 6 1 3 -1 8 9 10 -1 9 8 11 -1 11 8 7 -1 11 7 6 -1 12 13 14 -1 13 12 15 -1 16 17 18 -1 17 16 19 -1 18 17 20 -1 18 20 21 -1 20 17 22 -1 22 17 23 -1 24 25 26 -1 25 24 27 -1 28 29 30 -1 29 28 31 -1 32 33 34 -1 33 32 35 -1 36 37 38 -1 37 36 39 -1 39 36 40 -1 37 39 41 -1 37 41 42 -1 37 42 43 -1 37 43 44 -1 45 46 47 -1 46 45 48 -1 49 50 51 -1 52 50 53 -1 50 52 51 -1 51 52 54 -1 54 52 55 -1 55 52 56 -1 56 52 57 -1 58 59 60 -1 59 58 61 -1 62 63 64 -1 63 62 65 -1 66 67 68 -1 67 66 69 -1 70 71 72 -1 71 70 73 -1 71 73 74 -1 71 74 75 -1 74 73 76 -1 74 76 77 -1 78 79 80 -1 79 78 81 -1 82 83 84 -1 83 82 85 -1 86 87 88 -1 87 86 89 -1 90 91 92 -1 91 90 93 -1 94 95 96 -1 95 94 97 -1 97 94 98 -1 98 94 99 -1 95 100 101 -1 100 95 97 -1 102 103 104 -1 103 102 105 -1 105 102 101 -1 105 101 100 -1 106 107 108 -1 107 106 109 -1 110 111 112 -1 111 110 113 -1 114 115 116 -1 115 114 117 -1 118 119 120 -1 119 118 121 -1 122 123 124 -1 123 122 125 -1 "
										                >
											<Coordinate DEF="coords_ME_ID71"
											            point="34.212597 3.937008 0.000000 16.929134 3.543307 0.000000 16.929134 3.937008 0.000000 16.929134 0.393701 0.000000 16.929134 0.000000 0.000000 34.212597 0.000000 0.000000 12.992126 0.393701 0.000000 12.992126 3.543307 0.000000 12.992126 3.937008 0.000000 0.000000 0.000000 0.000000 0.000000 3.937008 0.000000 12.992126 0.000000 0.000000 11.417322 0.000000 8.267716 0.000000 3.937008 0.000000 0.000000 0.000000 0.000000 11.417322 3.937008 8.267716 0.000000 3.937008 0.000000 11.417322 3.937008 7.480315 12.992126 3.937008 0.000000 11.417322 3.937008 8.267716 12.204723 3.937008 5.905511 12.992126 3.937008 5.905512 12.102325 3.937008 6.500865 11.832166 3.937008 7.041184 12.992126 3.543307 0.000000 12.992126 3.937008 5.905512 12.992126 3.543307 5.905512 12.992126 3.937008 0.000000 12.992126 3.543307 5.905512 16.929134 3.543307 0.000000 12.992126 3.543307 0.000000 16.929134 3.543307 5.905512 16.929134 3.937008 5.905512 16.929134 3.543307 0.000000 16.929134 3.543307 5.905512 16.929134 3.937008 0.000000 16.929134 3.937008 0.000000 34.212597 3.937008 8.267716 34.212597 3.937008 0.000000 17.716536 3.937008 5.905511 16.929134 3.937008 5.905512 17.818935 3.937008 6.500865 18.089094 3.937008 7.041184 18.503937 3.937008 7.480315 18.503937 3.937008 8.267716 34.212597 3.937008 0.000000 34.212597 0.000000 8.267716 34.212597 0.000000 0.000000 34.212597 3.937008 8.267716 16.929134 0.000000 5.905512 16.929134 0.000000 0.000000 17.716536 0.000000 5.905512 34.212597 0.000000 8.267716 34.212597 0.000000 0.000000 17.818935 0.000000 6.500865 18.089094 0.000000 7.041184 18.503937 0.000000 7.480315 18.503937 0.000000 8.267716 16.929134 0.393701 5.905512 16.929134 0.000000 0.000000 16.929134 0.000000 5.905512 16.929134 0.393701 0.000000 16.929134 0.393701 5.905512 12.992126 0.393701 0.000000 16.929134 0.393701 0.000000 12.992126 0.393701 5.905512 12.992126 0.000000 0.000000 12.992126 0.393701 5.905512 12.992126 0.000000 5.905512 12.992126 0.393701 0.000000 12.992126 0.000000 5.905512 0.000000 0.000000 0.000000 12.992126 0.000000 0.000000 12.204723 0.000000 5.905512 11.417322 0.000000 7.480315 11.417322 0.000000 8.267716 12.102325 0.000000 6.500865 11.832167 0.000000 7.041184 11.417322 3.937008 7.480315 11.417322 0.000000 8.267716 11.417322 0.000000 7.480315 11.417322 3.937008 8.267716 11.832166 3.937008 7.041184 11.417322 0.000000 7.480315 11.832167 0.000000 7.041184 11.417322 3.937008 7.480315 12.102325 3.937008 6.500865 11.832167 0.000000 7.041184 12.102325 0.000000 6.500865 11.832166 3.937008 7.041184 12.204723 3.937008 5.905511 12.102325 0.000000 6.500865 12.204723 0.000000 5.905512 12.102325 3.937008 6.500865 17.716536 0.000000 5.905512 16.929134 0.393701 5.905512 16.929134 0.000000 5.905512 16.929134 3.543307 5.905512 16.929134 3.937008 5.905512 17.716536 3.937008 5.905511 12.992126 3.543307 5.905512 12.992126 0.393701 5.905512 12.992126 0.000000 5.905512 12.204723 3.937008 5.905511 12.204723 0.000000 5.905512 12.992126 3.937008 5.905512 17.818935 3.937008 6.500865 17.716536 0.000000 5.905512 17.818935 0.000000 6.500865 17.716536 3.937008 5.905511 18.089094 3.937008 7.041184 17.818935 0.000000 6.500865 18.089094 0.000000 7.041184 17.818935 3.937008 6.500865 18.503937 3.937008 7.480315 18.089094 0.000000 7.041184 18.503937 0.000000 7.480315 18.089094 3.937008 7.041184 18.503937 3.937008 8.267716 18.503937 0.000000 7.480315 18.503937 0.000000 8.267716 18.503937 3.937008 7.480315 34.212597 0.000000 8.267716 18.503937 3.937008 8.267716 18.503937 0.000000 8.267716 34.212597 3.937008 8.267716 "
											            />
										</IndexedFaceSet>
									</Shape>
								</Group>
							</Transform>
						</Transform>
						<Transform DEF="instance_0_002_TRANSFORM"
						           translation="18.503935 0.000001 5.905509"
						           scale="1.000000 1.000000 1.000000"
						           rotation="0.000000 -0.000000 1.000000 1.570796"
						           >
							<Transform DEF="instance_0_002_ifs_TRANSFORM"
							           translation="-0.000001 -0.000000 -0.000002"
							           scale="1.000000 1.000000 1.000000"
							           rotation="0.000000 -0.000000 -0.000000 0.000000"
							           >
								<Group USE="group_ME_ID15_001" />
							</Transform>
						</Transform>
					</Transform>
					<Transform DEF="group_12_TRANSFORM"
					           translation="-56.259853 0.000002 -0.000001"
					           scale="1.000000 1.000000 1.000000"
					           rotation="0.000000 0.000000 0.000000 0.000000"
					           >
						<Transform DEF="group_12_ifs_TRANSFORM"
						           translation="-0.000015 0.000002 -0.000001"
						           scale="1.000000 1.000000 1.000000"
						           rotation="0.000000 0.000000 0.000000 0.000000"
						           >
							<Group DEF="group_ME_ID79">
								<Shape>
									<Appearance>
										<Material USE="MA_material_004" />
									</Appearance>
									<IndexedFaceSet solid="false"
									                coordIndex="0 1 2 -1 1 3 2 -1 0 2 4 -1 5 6 7 -1 1 8 3 -1 9 10 11 -1 12 0 4 -1 13 9 14 -1 15 5 7 -1 5 16 6 -1 8 17 3 -1 16 18 6 -1 10 19 11 -1 9 11 14 -1 12 4 20 -1 15 7 21 -1 13 14 22 -1 23 24 25 -1 24 23 26 -1 26 23 27 -1 26 27 28 -1 8 29 17 -1 10 30 19 -1 18 16 31 -1 32 33 34 -1 33 32 35 -1 36 34 37 -1 34 36 32 -1 38 12 20 -1 39 13 22 -1 40 15 21 -1 41 37 42 -1 37 41 36 -1 43 28 27 -1 28 43 44 -1 45 46 47 -1 46 45 48 -1 48 45 25 -1 48 25 24 -1 49 50 51 -1 51 52 53 -1 29 54 17 -1 18 31 55 -1 30 56 19 -1 35 57 33 -1 57 35 58 -1 34 59 60 -1 59 34 33 -1 37 60 61 -1 60 37 34 -1 38 20 62 -1 40 21 63 -1 39 22 64 -1 42 61 65 -1 61 42 37 -1 66 42 67 -1 42 66 41 -1 68 53 69 -1 70 44 43 -1 44 70 71 -1 72 40 63 -1 73 74 75 -1 74 73 76 -1 76 73 47 -1 76 47 46 -1 77 78 79 -1 79 80 49 -1 51 50 52 -1 49 80 50 -1 53 52 69 -1 29 81 54 -1 30 82 56 -1 55 31 83 -1 58 84 57 -1 84 58 85 -1 33 86 59 -1 86 33 57 -1 60 87 88 -1 87 60 59 -1 61 88 89 -1 88 61 60 -1 90 38 62 -1 91 39 64 -1 65 89 92 -1 89 65 61 -1 67 65 93 -1 65 67 42 -1 94 67 95 -1 67 94 66 -1 68 69 96 -1 83 31 97 -1 98 68 99 -1 72 63 100 -1 101 72 100 -1 102 101 103 -1 104 105 106 -1 105 104 107 -1 107 104 75 -1 107 75 74 -1 108 109 110 -1 110 111 77 -1 79 78 80 -1 77 111 78 -1 112 113 114 -1 115 116 112 -1 114 117 118 -1 81 119 54 -1 82 120 56 -1 85 121 84 -1 121 85 122 -1 57 123 86 -1 123 57 84 -1 59 124 87 -1 124 59 86 -1 87 125 88 -1 125 87 126 -1 88 127 89 -1 127 88 125 -1 90 62 128 -1 91 64 129 -1 93 92 130 -1 92 93 65 -1 89 131 92 -1 131 89 127 -1 95 93 132 -1 93 95 67 -1 94 133 134 -1 133 94 95 -1 118 135 136 -1 68 96 99 -1 81 137 119 -1 138 139 140 -1 101 100 103 -1 141 102 103 -1 102 141 142 -1 143 142 144 -1 106 145 146 -1 145 106 105 -1 147 148 149 -1 108 150 109 -1 150 108 149 -1 110 109 111 -1 151 152 115 -1 153 154 151 -1 114 113 117 -1 112 116 113 -1 115 152 116 -1 118 117 135 -1 155 156 82 -1 82 156 120 -1 122 157 121 -1 157 122 158 -1 84 159 123 -1 159 84 121 -1 86 160 124 -1 160 86 123 -1 124 126 87 -1 126 124 161 -1 161 124 162 -1 126 163 125 -1 163 126 164 -1 125 165 127 -1 165 125 163 -1 166 90 128 -1 167 91 129 -1 92 168 130 -1 168 92 131 -1 132 130 169 -1 130 132 93 -1 127 170 131 -1 170 127 165 -1 95 171 133 -1 171 95 132 -1 172 173 174 -1 173 172 175 -1 173 175 176 -1 173 176 177 -1 177 176 178 -1 178 176 179 -1 179 176 180 -1 180 176 181 -1 181 176 182 -1 182 176 183 -1 182 183 184 -1 185 129 186 -1 129 185 187 -1 136 135 188 -1 136 188 138 -1 137 189 119 -1 140 139 190 -1 138 188 139 -1 142 141 144 -1 191 166 192 -1 193 143 144 -1 143 193 194 -1 147 195 148 -1 195 147 196 -1 149 148 150 -1 197 198 199 -1 199 200 153 -1 151 154 152 -1 153 200 154 -1 201 202 203 -1 204 205 201 -1 206 207 204 -1 203 208 209 -1 155 210 156 -1 158 211 157 -1 211 158 212 -1 157 213 121 -1 213 159 121 -1 123 214 160 -1 214 123 159 -1 160 162 124 -1 162 160 215 -1 161 164 126 -1 164 161 216 -1 216 161 217 -1 217 161 162 -1 164 218 163 -1 218 164 219 -1 163 220 165 -1 220 163 218 -1 166 128 192 -1 221 167 129 -1 131 222 168 -1 222 131 170 -1 130 223 169 -1 223 130 168 -1 132 224 171 -1 224 132 169 -1 165 225 170 -1 225 165 220 -1 169 226 224 -1 226 169 223 -1 223 227 226 -1 227 223 228 -1 228 229 227 -1 229 228 230 -1 231 232 233 -1 232 231 234 -1 235 236 237 -1 236 235 238 -1 239 240 241 -1 240 239 242 -1 187 221 129 -1 209 243 244 -1 155 245 210 -1 246 247 248 -1 246 244 249 -1 250 191 192 -1 191 250 251 -1 197 252 198 -1 252 197 253 -1 199 198 200 -1 254 255 206 -1 256 231 254 -1 203 202 208 -1 201 205 202 -1 204 207 205 -1 206 255 207 -1 209 208 243 -1 212 257 211 -1 257 212 258 -1 211 213 157 -1 213 214 159 -1 214 215 160 -1 215 214 259 -1 215 217 162 -1 217 215 216 -1 216 215 260 -1 216 219 164 -1 219 216 261 -1 168 228 223 -1 228 168 222 -1 170 262 222 -1 262 170 225 -1 222 230 228 -1 230 222 262 -1 234 231 263 -1 244 243 264 -1 246 249 247 -1 257 265 266 -1 265 257 258 -1 244 264 249 -1 263 231 256 -1 254 231 255 -1 213 267 268 -1 267 213 257 -1 257 213 211 -1 213 268 214 -1 267 259 214 -1 259 260 215 -1 260 259 269 -1 260 261 216 -1 261 260 270 -1 266 271 269 -1 271 266 265 -1 257 266 267 -1 269 270 260 -1 270 269 271 -1 267 214 268 -1 267 269 259 -1 266 269 267 -1 "
									                >
										<Coordinate DEF="coords_ME_ID79"
										            point="97.334251 11.827897 14.412066 100.146393 11.181102 13.046656 85.916924 11.827897 4.657511 88.729073 11.181102 3.622509 84.792061 12.086614 4.890387 100.146393 10.045335 14.610673 100.146393 11.181102 13.046656 97.334251 11.827897 14.412066 100.708824 10.922385 12.773574 85.916924 11.827897 4.657511 88.729073 11.181102 3.622509 81.417488 11.025327 2.024747 96.209389 12.086614 14.719284 84.792061 12.086614 4.890387 79.542725 11.188658 2.099738 97.334244 10.535331 16.422947 100.708824 9.849338 14.248219 89.291504 10.922385 3.415508 100.708824 10.922385 12.773574 84.792061 10.731329 1.771654 81.417488 12.474690 5.589014 96.209389 12.086614 14.719284 75.793190 11.319323 2.249719 100.146393 2.946791 14.610673 97.334244 10.535331 16.422947 97.334244 2.456795 16.422947 100.146393 10.045335 14.610673 100.708824 3.142789 14.248219 100.708824 9.849338 14.248219 102.771072 9.973754 10.896132 89.291504 10.922385 3.415508 102.958542 9.065345 11.529809 81.417488 11.025327 2.024747 84.553764 9.128537 1.381830 81.254547 9.415970 1.629271 84.792061 10.731329 1.771654 79.542725 11.188658 2.099738 79.428490 9.575058 1.702313 92.834816 12.474690 15.640937 81.417488 12.474690 5.589014 96.209389 10.731329 16.830708 75.793190 11.319323 2.249719 75.725594 9.704099 1.850429 102.958542 3.926782 11.529809 102.958542 9.065345 11.529809 96.209389 2.260797 16.830708 92.834808 11.025327 18.053993 92.834808 1.966800 18.053993 96.209389 10.731329 16.830708 97.334244 2.456795 16.422947 97.334251 1.164230 14.412066 100.146393 2.946791 14.610673 100.146393 1.811024 13.046656 100.708824 3.142789 14.248219 91.353752 9.973754 1.992380 102.771072 9.973754 10.896132 85.916924 10.535331 1.687289 85.600075 8.946225 1.303356 85.916924 10.535331 1.687289 84.322052 7.497502 1.129061 81.097031 7.778469 1.370937 79.318031 7.933457 1.442098 79.542725 12.690289 5.796014 92.834816 12.474690 15.640937 72.981041 11.417322 2.296588 75.660904 8.060904 1.588383 72.981041 11.417322 2.296588 72.946220 9.800955 1.896752 102.958542 3.926782 11.529809 100.708824 2.069741 12.773574 104.083405 4.527559 8.267716 104.083405 8.464567 8.267716 92.834808 11.025327 18.053993 90.960052 1.803468 18.416449 87.210510 11.319323 19.141357 87.210510 1.672802 19.141357 90.960052 11.188658 18.416449 92.834808 1.966800 18.053993 92.834816 0.517435 15.640937 96.209389 2.260797 16.830708 96.209389 0.905512 14.719284 102.958542 9.758155 10.725456 91.353752 9.973754 1.992380 102.958542 9.758155 10.725456 88.274132 8.480291 0.946815 88.729073 10.045335 1.312336 85.292473 7.328413 1.056280 84.186234 6.496063 1.059822 80.979988 6.496063 1.278395 79.226234 6.496063 1.337053 90.960052 12.690289 15.914018 79.542725 12.690289 5.796014 75.603088 6.496063 1.472450 72.913208 8.156656 1.634178 69.044037 11.417322 2.362205 69.040703 9.800955 1.961844 102.771072 3.018373 10.896132 104.083405 8.464567 8.267716 104.083405 4.527559 8.267716 102.958542 3.233971 10.725456 90.960052 12.690289 15.914018 90.960052 11.188658 18.416449 87.210510 11.319323 19.141357 87.210510 12.862766 16.460182 84.398369 1.574803 19.367891 80.461357 11.417322 19.685040 80.461357 1.574803 19.685040 84.398369 11.417322 19.367891 87.210510 1.672802 19.141357 87.210510 0.129359 16.460182 90.960052 1.803468 18.416449 90.960052 0.301837 15.914019 97.334251 1.164230 14.412066 85.916924 1.164230 4.657511 100.146393 1.811024 13.046656 96.209389 0.905512 14.719284 84.792068 0.905512 4.890387 88.729073 1.811024 3.622509 100.708824 2.069741 12.773574 91.541222 9.758155 1.863004 88.729073 10.045335 1.312336 88.696793 8.333001 0.890461 89.291504 9.849338 1.237345 87.829895 6.886286 0.717956 85.141693 6.496063 1.001062 81.097031 5.213657 1.370937 84.322052 5.494625 1.129061 79.318031 5.058668 1.442098 75.793190 12.862766 6.210015 69.044037 11.417322 2.362205 72.882225 6.496063 1.510724 75.660904 4.931223 1.588383 69.038506 8.156656 1.698756 28.833040 9.800956 1.961844 28.833040 11.417322 2.362205 89.291504 2.069741 3.415508 102.771072 3.018373 10.896132 104.083405 8.464567 8.267716 102.958542 3.233971 10.725456 91.541222 3.233971 1.863004 104.083405 4.527559 8.267716 84.398369 12.992126 16.630859 84.398369 11.417322 19.367891 80.461357 11.417322 19.685040 80.461357 12.992126 16.869806 28.833040 11.417322 19.685040 28.833040 1.574803 19.685040 80.461357 1.574803 19.685040 80.461357 0.000000 16.869806 84.398369 1.574803 19.367891 84.398369 0.000000 16.630859 92.834816 0.517435 15.640937 81.417488 0.517435 5.589014 90.960052 0.301837 15.914019 79.542725 0.301837 5.796014 91.541222 9.758155 1.863004 89.291504 9.849338 1.237345 90.782753 7.606077 0.368971 91.541222 9.065345 0.674916 88.117424 6.786087 0.679619 87.725685 6.496063 0.696026 85.233162 5.653379 1.060728 85.292473 5.663712 1.056280 81.254547 3.576156 1.629271 84.553764 3.863588 1.381830 79.428490 3.417068 1.702313 87.210510 12.862766 16.460182 75.793190 12.862766 6.210015 72.913208 4.835470 1.634178 69.037476 6.496063 1.574803 75.725594 3.288028 1.850429 28.833040 8.156656 1.698756 28.833040 0.000000 16.869806 28.833040 1.574803 2.362205 28.833040 0.000000 6.520516 28.833040 1.574803 19.685040 28.833040 11.417322 19.685040 28.833040 3.191171 1.961844 28.833040 4.835470 1.698756 28.833040 6.496063 1.574803 28.833040 8.156656 1.698756 28.833040 9.800956 1.961844 28.833040 11.417322 2.362205 28.833040 12.992126 16.869806 28.833040 12.992126 6.520515 28.833040 12.992126 6.520515 28.833040 11.417322 2.362205 69.044037 12.992126 6.520516 91.353752 3.018373 1.992380 92.666084 8.464567 -0.000000 92.666084 4.527559 0.000000 84.398369 12.992126 16.630859 72.981041 12.992126 6.339390 28.833040 12.992126 16.869806 28.833040 11.417322 19.685040 28.833040 0.000000 16.869806 28.833040 1.574803 19.685040 84.398369 0.000000 16.630859 72.981041 0.000000 6.339390 87.210510 0.129359 16.460182 75.793190 0.129359 6.210015 85.916924 1.164230 4.657511 81.417488 1.966800 2.024747 88.729073 1.811024 3.622509 84.792068 0.905512 4.890387 79.542725 1.803468 2.099738 81.417488 0.517435 5.589014 75.793190 1.672802 2.249719 84.792068 2.260797 1.771654 89.291504 2.069741 3.415508 91.541222 9.065345 0.674916 91.016640 7.481158 0.228637 92.666084 8.464567 -0.000000 90.595901 7.218221 0.323557 88.013763 6.496063 0.666048 87.829895 6.105840 0.717956 85.600075 4.045900 1.303356 85.296516 5.642406 1.059534 81.417488 1.966800 2.024747 84.792068 2.260797 1.771654 79.542725 1.803468 2.099738 72.981041 12.992126 6.339390 72.946220 3.191171 1.896752 69.038506 4.835470 1.698756 28.833040 6.496063 1.574803 75.793190 1.672802 2.249719 28.833040 4.835470 1.698756 28.833040 3.191171 1.961844 69.040703 3.191171 1.961844 28.833040 1.574803 2.362205 69.044037 1.574803 2.362205 69.044037 1.574803 2.362205 28.833040 0.000000 6.520516 28.833040 1.574803 2.362205 69.044037 0.000000 6.520516 69.044037 0.000000 6.520516 28.833040 0.000000 16.869806 28.833040 0.000000 6.520516 80.461357 0.000000 16.869806 28.833040 12.992126 16.869806 69.044037 12.992126 6.520516 28.833040 12.992126 6.520515 80.461357 12.992126 16.869806 85.916924 2.456795 1.687289 91.353752 3.018373 1.992380 92.666084 8.464567 -0.000000 91.541222 3.233971 1.863004 91.541222 3.926782 0.674916 92.666084 4.527559 0.000000 89.291504 3.142789 1.237345 69.044037 12.992126 6.520516 80.461357 12.992126 16.869806 69.044037 0.000000 6.520516 80.461357 0.000000 16.869806 79.542725 0.301837 5.796014 72.981041 1.574803 2.296588 75.793190 0.129359 6.210015 91.016640 5.510969 0.228637 92.666084 4.527559 0.000000 88.117424 6.206039 0.679619 88.274132 4.511835 0.946815 85.916924 2.456795 1.687289 72.981041 1.574803 2.296588 72.981041 0.000000 6.339390 88.729073 2.946791 1.312336 91.541222 3.926782 0.674916 90.782753 5.386050 0.368971 90.595901 5.773905 0.323557 90.595901 6.496063 0.323557 88.696793 4.659125 0.890461 88.729073 2.946791 1.312336 89.291504 3.142789 1.237345 "
										            />
									</IndexedFaceSet>
								</Shape>
							</Group>
						</Transform>
					</Transform>
				</Transform>
				<Transform DEF="group_13_TRANSFORM"
				           translation="-0.000015 4.527564 -0.000002"
				           scale="1.000000 1.000000 1.000000"
				           rotation="0.000000 0.000000 0.000000 0.000000"
				           >
					<Transform DEF="group_13_ifs_TRANSFORM"
					           translation="-0.000015 0.000002 -0.000002"
					           scale="1.000000 1.000000 1.000000"
					           rotation="0.000000 0.000000 0.000000 0.000000"
					           >
						<Group DEF="group_ME_ID86">
							<Shape>
								<Appearance>
									<Material USE="MA_material_004" />
								</Appearance>
								<IndexedFaceSet solid="false"
								                coordIndex="0 1 2 -1 1 0 3 -1 4 5 6 -1 5 4 7 -1 8 9 10 -1 9 8 11 -1 12 13 14 -1 13 12 15 -1 16 17 18 -1 17 16 19 -1 20 21 22 -1 21 20 23 -1 "
								                >
									<Coordinate DEF="coords_ME_ID86"
									            point="0.000000 0.000000 8.267716 0.000000 3.937008 0.000000 0.000000 0.000000 0.000000 0.000000 3.937008 8.267716 12.204723 0.000000 8.267716 0.000000 0.000000 0.000000 23.622046 0.000000 0.000000 0.000000 0.000000 8.267716 12.204723 0.000000 8.267716 0.000000 3.937008 8.267716 0.000000 0.000000 8.267716 12.204723 3.937008 8.267716 0.000000 3.937008 8.267716 23.622046 3.937008 0.000000 0.000000 3.937008 0.000000 12.204723 3.937008 8.267716 23.622046 3.937008 0.000000 0.000000 0.000000 0.000000 0.000000 3.937008 0.000000 23.622046 0.000000 0.000000 23.622046 0.000000 0.000000 12.204723 3.937008 8.267716 12.204723 0.000000 8.267716 23.622046 3.937008 0.000000 "
									            />
								</IndexedFaceSet>
							</Shape>
						</Group>
					</Transform>
				</Transform>
			</Transform>
		</Transform>
		<Transform DEF="SketchUp_001_TRANSFORM"
		           translation="0.000000 0.000000 0.000000"
		           scale="0.025400 0.025400 0.025400"
		           rotation="-1.000000 0.000000 0.000000 1.570796"
		           >
			<Transform DEF="SketchUp_001_ifs_TRANSFORM"
			           translation="0.000000 0.000000 0.000000"
			           scale="1.000000 1.000000 1.000000"
			           rotation="0.000000 1.000000 0.000000 0.000000"
			           >
				<Group DEF="group_ME_ID98">
				</Group>
			</Transform>
		</Transform>
		<Transform DEF="SketchUp_002_TRANSFORM"
		           translation="0.000000 0.000000 0.000000"
		           scale="0.025400 0.025400 0.025400"
		           rotation="-1.000000 0.000000 0.000000 1.570796"
		           >
			<Transform DEF="SketchUp_002_ifs_TRANSFORM"
			           translation="0.000000 0.000000 0.000000"
			           scale="1.000000 1.000000 1.000000"
			           rotation="0.000000 1.000000 0.000000 0.000000"
			           >
				<Group DEF="group_ME_ID104_001">
				</Group>
			</Transform>
		</Transform>
		<Transform DEF="SketchUp_003_TRANSFORM"
		           translation="0.000000 0.000000 0.000000"
		           scale="0.025400 0.025400 0.025400"
		           rotation="-1.000000 0.000000 0.000000 1.570796"
		           >
			<Transform DEF="SketchUp_003_ifs_TRANSFORM"
			           translation="0.000000 0.000000 0.000000"
			           scale="1.000000 1.000000 1.000000"
			           rotation="0.000000 1.000000 0.000000 0.000000"
			           >
				<Group DEF="group_ME_ID108_002">
				</Group>
			</Transform>
		</Transform>
		<Transform DEF="SketchUp_004_TRANSFORM"
		           translation="0.000000 0.000000 0.000000"
		           scale="0.025400 0.025400 0.025400"
		           rotation="-1.000000 0.000000 0.000000 1.570796"
		           >
			<Transform DEF="SketchUp_004_ifs_TRANSFORM"
			           translation="0.000000 0.000000 0.000000"
			           scale="1.000000 1.000000 1.000000"
			           rotation="0.000000 1.000000 0.000000 0.000000"
			           >
				<Group DEF="group_ME_ID112_001">
				</Group>
			</Transform>
		</Transform>
		<Transform DEF="SketchUp_005_TRANSFORM"
		           translation="0.000000 0.000000 0.000000"
		           scale="0.025400 0.025400 0.025400"
		           rotation="-1.000000 0.000000 0.000000 1.570796"
		           >
			<Transform DEF="SketchUp_005_ifs_TRANSFORM"
			           translation="0.000000 0.000000 0.000000"
			           scale="1.000000 1.000000 1.000000"
			           rotation="0.000000 1.000000 0.000000 0.000000"
			           >
				<Group DEF="group_ME_ID116">
				</Group>
			</Transform>
		</Transform>
		<Transform DEF="SketchUp_006_TRANSFORM"
		           translation="0.000000 0.000000 0.000000"
		           scale="0.025400 0.025400 0.025400"
		           rotation="-1.000000 0.000000 0.000000 1.570796"
		           >
			<Transform DEF="SketchUp_006_ifs_TRANSFORM"
			           translation="0.000000 0.000000 0.000000"
			           scale="1.000000 1.000000 1.000000"
			           rotation="0.000000 1.000000 0.000000 0.000000"
			           >
				<Group DEF="group_ME_ID120">
				</Group>
			</Transform>
		</Transform>
		<Transform DEF="SketchUp_007_TRANSFORM"
		           translation="0.000000 0.000000 0.000000"
		           scale="0.025400 0.025400 0.025400"
		           rotation="-1.000000 0.000000 0.000000 1.570796"
		           >
			<Transform DEF="SketchUp_007_ifs_TRANSFORM"
			           translation="0.000000 0.000000 0.000000"
			           scale="1.000000 1.000000 1.000000"
			           rotation="0.000000 1.000000 0.000000 0.000000"
			           >
				<Group DEF="group_ME_ID124">
				</Group>
			</Transform>
		</Transform>
		<Transform DEF="SketchUp_008_TRANSFORM"
		           translation="0.000000 0.000000 0.000000"
		           scale="0.025400 0.025400 0.025400"
		           rotation="-1.000000 0.000000 0.000000 1.570796"
		           >
			<Transform DEF="SketchUp_008_ifs_TRANSFORM"
			           translation="0.000000 0.000000 0.000000"
			           scale="1.000000 1.000000 1.000000"
			           rotation="0.000000 1.000000 0.000000 0.000000"
			           >
				<Group DEF="group_ME_ID128">
				</Group>
			</Transform>
		</Transform>
		<Transform DEF="SketchUp_009_TRANSFORM"
		           translation="0.000000 0.000000 0.000000"
		           scale="0.025400 0.025400 0.025400"
		           rotation="-1.000000 0.000000 0.000000 1.570796"
		           >
			<Transform DEF="SketchUp_009_ifs_TRANSFORM"
			           translation="0.000000 0.000000 0.000000"
			           scale="1.000000 1.000000 1.000000"
			           rotation="0.000000 1.000000 0.000000 0.000000"
			           >
				<Group DEF="group_ME_ID132">
				</Group>
			</Transform>
		</Transform>
		<Transform DEF="SketchUp_010_TRANSFORM"
		           translation="0.000000 0.000000 0.000000"
		           scale="0.025400 0.025400 0.025400"
		           rotation="-1.000000 0.000000 0.000000 1.570796"
		           >
			<Transform DEF="SketchUp_010_ifs_TRANSFORM"
			           translation="0.000000 0.000000 0.000000"
			           scale="1.000000 1.000000 1.000000"
			           rotation="0.000000 1.000000 0.000000 0.000000"
			           >
				<Group DEF="group_ME_ID136">
				</Group>
			</Transform>
		</Transform>
		<Transform DEF="SketchUp_011_TRANSFORM"
		           translation="0.000000 0.000000 0.000000"
		           scale="0.025400 0.025400 0.025400"
		           rotation="-1.000000 0.000000 0.000000 1.570796"
		           >
			<Transform DEF="SketchUp_011_ifs_TRANSFORM"
			           translation="0.000000 0.000000 0.000000"
			           scale="1.000000 1.000000 1.000000"
			           rotation="0.000000 1.000000 0.000000 0.000000"
			           >
				<Group DEF="group_ME_ID140">
				</Group>
			</Transform>
		</Transform>
	</Scene>
</X3D>