<?xml version="1.0" encoding="UTF-8"?>
<!DOCTYPE X3D PUBLIC "ISO//Web3D//DTD X3D 3.0//EN" "http://www.web3d.org/specifications/x3d-3.0.dtd">
<X3D version="3.0" profile="Immersive" xmlns:xsd="http://www.w3.org/2001/XMLSchema-instance" xsd:noNamespaceSchemaLocation="http://www.web3d.org/specifications/x3d-3.0.xsd">
	<head>
		<meta name="filename" content="20-3 殺梭柱.x3d" />
		<meta name="created" content="2025-12-29 13:52:36" />
		<meta name="generator" content="Blender 4.2.2 LTS" />
		<meta name="translator" content="Web3D X3D/VRML2 format v2.5.1" />
	</head>
	<Scene>
		<NavigationInfo headlight="true"
		                visibilityLimit="0.0"
		                type='"EXAMINE", "ANY"'
		                avatarSize="0.25, 1.75, 0.75"
		                />
		<Background DEF="WO_World"
		            groundColor="0.051 0.051 0.051"
		            skyColor="0.051 0.051 0.051"
		            />
		<Transform DEF="SketchUp_TRANSFORM"
		           translation="0.000000 0.000000 0.000000"
		           scale="0.025400 0.025400 0.025400"
		           rotation="-1.000000 0.000000 0.000000 1.570796"
		           >
			<Transform DEF="SketchUp_ifs_TRANSFORM"
			           translation="0.000000 0.000000 0.000000"
			           scale="1.000000 1.000000 1.000000"
			           rotation="0.000000 1.000000 0.000000 0.000000"
			           >
				<Group DEF="group_ME_ID77">
				</Group>
			</Transform>
			<Transform DEF="group_0_TRANSFORM"
			           translation="-7.676922 -45.773945 0.000000"
			           scale="1.000000 1.000000 1.000000"
			           rotation="0.000000 1.000000 0.000000 0.000000"
			           >
				<Transform DEF="group_0_ifs_TRANSFORM"
				           translation="-0.000001 -0.000004 0.000000"
				           scale="1.000000 1.000000 1.000000"
				           rotation="0.000000 1.000000 0.000000 0.000000"
				           >
					<Group DEF="group_ME_ID3_002">
						<Shape>
							<Appearance>
								<Material DEF="MA_material_009"
								          diffuseColor="1.000 1.000 1.000"
								          specularColor="0.401 0.401 0.401"
								          emissiveColor="0.000 0.000 0.000"
								          ambientIntensity="0.000"
								          shininess="0.500"
								          transparency="0.000"
								          />
							</Appearance>
							<IndexedFaceSet solid="false"
							                coordIndex="0 1 2 -1 1 0 3 -1 3 4 1 -1 4 3 5 -1 2 6 7 -1 6 2 1 -1 8 2 9 -1 2 8 0 -1 10 0 11 -1 0 10 3 -1 4 12 13 -1 12 4 5 -1 1 14 6 -1 14 1 4 -1 15 3 10 -1 3 15 5 -1 16 17 18 -1 17 16 19 -1 19 16 20 -1 19 20 21 -1 19 21 22 -1 22 21 23 -1 23 21 24 -1 23 24 25 -1 25 24 26 -1 25 26 27 -1 25 27 28 -1 28 27 29 -1 29 27 30 -1 29 30 31 -1 9 7 32 -1 7 9 2 -1 33 9 34 -1 9 33 8 -1 0 35 11 -1 35 0 8 -1 36 37 38 -1 37 36 39 -1 13 40 41 -1 40 13 12 -1 14 13 42 -1 13 14 4 -1 43 5 15 -1 5 43 12 -1 44 39 36 -1 39 44 45 -1 42 41 46 -1 41 42 13 -1 46 47 48 -1 47 46 41 -1 48 49 50 -1 49 48 47 -1 51 49 52 -1 49 51 50 -1 53 52 54 -1 52 53 51 -1 55 54 56 -1 54 55 53 -1 57 56 58 -1 56 57 55 -1 59 57 58 -1 57 59 60 -1 61 60 59 -1 60 61 62 -1 63 62 61 -1 62 63 64 -1 34 64 63 -1 64 34 65 -1 9 65 34 -1 65 9 32 -1 33 63 66 -1 63 33 34 -1 8 67 35 -1 67 8 33 -1 37 68 38 -1 68 37 69 -1 70 71 72 -1 71 70 73 -1 41 74 47 -1 74 41 40 -1 43 40 12 -1 40 43 75 -1 44 76 45 -1 76 44 77 -1 78 73 70 -1 73 78 79 -1 47 80 49 -1 80 47 74 -1 52 80 81 -1 80 52 49 -1 54 81 82 -1 81 54 52 -1 56 82 83 -1 82 56 54 -1 58 83 84 -1 83 58 56 -1 85 58 84 -1 58 85 59 -1 86 59 85 -1 59 86 61 -1 66 61 86 -1 61 66 63 -1 33 87 67 -1 87 33 66 -1 69 88 68 -1 88 69 89 -1 71 90 72 -1 90 71 91 -1 92 93 94 -1 93 92 95 -1 74 75 96 -1 75 74 40 -1 77 97 76 -1 97 77 98 -1 99 79 78 -1 79 99 100 -1 101 95 92 -1 95 101 102 -1 80 96 103 -1 96 80 74 -1 81 103 104 -1 103 81 80 -1 82 104 105 -1 104 82 81 -1 82 106 83 -1 106 82 105 -1 83 107 84 -1 107 83 106 -1 85 107 108 -1 107 85 84 -1 86 108 109 -1 108 86 85 -1 66 109 87 -1 109 66 86 -1 89 110 88 -1 110 89 111 -1 91 112 90 -1 112 91 113 -1 93 114 94 -1 114 93 115 -1 116 117 118 -1 117 116 119 -1 120 98 121 -1 98 120 97 -1 99 122 100 -1 122 99 123 -1 124 102 101 -1 102 124 125 -1 126 119 116 -1 119 126 127 -1 128 121 129 -1 121 128 120 -1 130 129 131 -1 129 130 128 -1 132 131 133 -1 131 132 130 -1 132 134 135 -1 134 132 133 -1 135 136 137 -1 136 135 134 -1 138 136 139 -1 136 138 137 -1 140 139 141 -1 139 140 138 -1 111 141 110 -1 141 111 140 -1 113 142 112 -1 142 113 143 -1 115 144 114 -1 144 115 145 -1 117 146 118 -1 146 117 147 -1 148 149 150 -1 149 148 151 -1 149 151 152 -1 152 151 153 -1 152 153 154 -1 154 153 155 -1 154 155 156 -1 156 155 157 -1 156 157 158 -1 158 157 159 -1 158 159 160 -1 160 159 161 -1 160 161 162 -1 162 161 163 -1 164 123 165 -1 123 164 122 -1 124 166 125 -1 166 124 167 -1 168 127 126 -1 127 168 169 -1 170 165 171 -1 165 170 164 -1 172 171 173 -1 171 172 170 -1 174 173 175 -1 173 174 172 -1 174 176 177 -1 176 174 175 -1 178 176 179 -1 176 178 177 -1 180 179 181 -1 179 180 178 -1 182 181 183 -1 181 182 180 -1 143 183 142 -1 183 143 182 -1 145 184 144 -1 184 145 185 -1 147 186 146 -1 186 147 187 -1 187 188 186 -1 188 187 189 -1 189 190 188 -1 190 189 191 -1 192 190 191 -1 190 192 193 -1 194 193 192 -1 193 194 195 -1 196 195 194 -1 195 196 197 -1 198 197 196 -1 197 198 199 -1 198 200 199 -1 200 198 201 -1 201 202 200 -1 202 201 203 -1 203 204 202 -1 204 203 205 -1 205 206 204 -1 206 205 207 -1 206 169 168 -1 169 206 207 -1 208 167 209 -1 167 208 166 -1 210 209 211 -1 209 210 208 -1 212 211 213 -1 211 212 210 -1 214 213 215 -1 213 214 212 -1 214 216 217 -1 216 214 215 -1 217 218 219 -1 218 217 216 -1 220 218 221 -1 218 220 219 -1 222 221 223 -1 221 222 220 -1 185 223 184 -1 223 185 222 -1 "
							                >
								<Coordinate DEF="coords_ME_ID3_002"
								            point="12.655928 3.879505 117.329834 13.401598 6.141193 117.894165 12.197019 4.338414 117.894165 14.001191 5.892834 117.329834 13.824590 8.267716 117.894165 14.473584 8.267716 117.329834 12.632502 6.459764 118.110229 11.608378 4.927054 118.110229 10.642599 2.534242 117.329834 10.394239 3.133835 117.894165 14.305669 5.766715 116.535423 12.888966 3.646467 116.535423 14.001191 10.642599 117.329834 13.401598 10.394239 117.894165 12.992126 8.267716 118.110229 14.803149 8.267716 116.535423 3.902931 6.459764 118.110229 3.902931 10.075669 118.110229 3.543307 8.267716 118.110229 4.927054 11.608378 118.110229 4.927054 4.927054 118.110229 6.459764 3.902931 118.110229 6.459764 12.632502 118.110229 8.267716 12.992126 118.110229 8.267716 3.543307 118.110229 10.075669 12.632502 118.110229 10.075669 3.902931 118.110229 11.608378 4.927054 118.110229 11.608378 11.608378 118.110229 12.632502 10.075669 118.110229 12.632502 6.459764 118.110229 12.992126 8.267716 118.110229 10.075669 3.902931 118.110229 8.267716 2.061848 117.329834 8.267716 2.710844 117.894165 10.768719 2.229764 116.535423 14.996760 5.480455 111.548553 12.888966 3.646467 116.535423 13.417903 3.117529 111.548553 14.305669 5.766715 116.535423 12.655928 12.655928 117.329834 12.197019 12.197019 117.894165 12.632502 10.075669 118.110229 14.305669 10.768719 116.535423 15.551181 8.267716 111.548553 14.803149 8.267716 116.535423 11.608378 11.608378 118.110229 10.394239 13.401598 117.894165 10.075669 12.632502 118.110229 8.267716 13.824590 117.894165 8.267716 12.992126 118.110229 6.459764 12.632502 118.110229 6.141193 13.401598 117.894165 4.927054 11.608378 118.110229 4.338414 12.197019 117.894165 3.902931 10.075669 118.110229 3.133835 10.394239 117.894165 3.543307 8.267716 118.110229 2.710844 8.267716 117.894165 3.133835 6.141193 117.894165 3.902931 6.459764 118.110229 4.338414 4.338414 117.894165 4.927054 4.927054 118.110229 6.141193 3.133835 117.894165 6.459764 3.902931 118.110229 8.267716 3.543307 118.110229 5.892834 2.534242 117.329834 8.267716 1.732283 116.535423 11.054977 1.538673 111.548553 10.768719 2.229764 116.535423 15.602980 5.229351 98.425194 13.417903 3.117529 111.548553 13.881885 2.653549 98.425194 14.996760 5.480455 111.548553 10.642599 14.001191 117.329834 12.888966 12.888966 116.535423 14.305669 10.768719 116.535423 14.996760 11.054977 111.548553 16.207348 8.267716 98.425194 15.551181 8.267716 111.548553 8.267716 14.473584 117.329834 5.892834 14.001191 117.329834 3.879505 12.655928 117.329834 2.534242 10.642599 117.329834 2.061848 8.267716 117.329834 2.534241 5.892834 117.329834 3.879505 3.879505 117.329834 5.766714 2.229764 116.535423 8.267716 0.984252 111.548553 8.267716 1.732283 116.535423 11.306083 0.932453 98.425194 11.054977 1.538673 111.548553 15.906091 5.103798 78.740158 13.881885 2.653549 98.425194 14.113874 2.421558 78.740158 15.602980 5.229351 98.425194 10.768719 14.305669 116.535423 12.888966 12.888966 116.535423 13.417903 13.417903 111.548553 15.602980 11.306083 98.425194 14.996760 11.054977 111.548553 16.535433 8.267716 78.740158 16.207348 8.267716 98.425194 8.267716 14.803149 116.535423 5.766715 14.305669 116.535423 3.646467 12.888966 116.535423 2.229764 10.768719 116.535423 1.732283 8.267716 116.535423 2.229764 5.766715 116.535423 3.646467 3.646467 116.535423 5.480455 1.538673 111.548553 5.766714 2.229764 116.535423 8.267716 0.328084 98.425194 8.267716 0.984252 111.548553 11.431634 0.629342 78.740158 11.306083 0.932453 98.425194 15.906091 5.103798 0.000000 14.113874 2.421558 78.740158 14.113874 2.421558 0.000000 15.906091 5.103798 78.740158 10.768719 14.305669 116.535423 11.054977 14.996760 111.548553 13.417903 13.417903 111.548553 13.881885 13.881885 98.425194 15.906091 11.431634 78.740158 15.602980 11.306083 98.425194 16.535433 8.267716 0.000000 16.535433 8.267716 78.740158 8.267716 14.803149 116.535423 8.267716 15.551181 111.548553 5.766715 14.305669 116.535423 5.480455 14.996760 111.548553 3.646467 12.888966 116.535423 3.117529 13.417903 111.548553 1.538673 11.054977 111.548553 2.229764 10.768719 116.535423 0.984252 8.267716 111.548553 1.732283 8.267716 116.535423 2.229764 5.766715 116.535423 1.538673 5.480455 111.548553 3.646467 3.646467 116.535423 3.117529 3.117529 111.548553 5.229351 0.932453 98.425194 5.480455 1.538673 111.548553 8.267716 0.000000 78.740158 8.267716 0.328084 98.425194 11.431634 0.629342 0.000000 11.431634 0.629342 78.740158 0.629342 11.431634 0.000000 0.629342 5.103798 0.000000 0.000000 8.267716 0.000000 2.421558 14.113874 0.000000 2.421558 2.421558 0.000000 5.103798 15.906091 0.000000 5.103798 0.629342 0.000000 8.267716 16.535433 0.000000 8.267716 0.000000 0.000000 11.431634 15.906091 0.000000 11.431634 0.629342 0.000000 14.113874 14.113874 0.000000 14.113874 2.421558 0.000000 15.906091 11.431634 0.000000 15.906091 5.103798 0.000000 16.535433 8.267716 0.000000 11.054977 14.996760 111.548553 11.306083 15.602980 98.425194 13.881885 13.881885 98.425194 14.113874 14.113874 78.740158 15.906091 11.431634 0.000000 15.906091 11.431634 78.740158 8.267716 15.551181 111.548553 8.267716 16.207348 98.425194 5.480455 14.996760 111.548553 5.229351 15.602980 98.425194 3.117529 13.417903 111.548553 2.653549 13.881885 98.425194 0.932453 11.306083 98.425194 1.538673 11.054977 111.548553 0.984252 8.267716 111.548553 0.328084 8.267716 98.425194 1.538673 5.480455 111.548553 0.932453 5.229351 98.425194 3.117529 3.117529 111.548553 2.653549 2.653549 98.425194 5.103798 0.629342 78.740158 5.229351 0.932453 98.425194 8.267716 0.000000 0.000000 8.267716 0.000000 78.740158 5.103798 0.629342 0.000000 5.103798 0.629342 78.740158 2.421558 2.421558 0.000000 2.421558 2.421558 78.740158 0.629342 5.103798 78.740158 0.629342 5.103798 0.000000 0.000000 8.267716 78.740158 0.000000 8.267716 0.000000 0.629342 11.431634 78.740158 0.629342 11.431634 0.000000 2.421558 14.113874 78.740158 2.421558 14.113874 0.000000 5.103798 15.906091 0.000000 5.103798 15.906091 78.740158 8.267716 16.535433 0.000000 8.267716 16.535433 78.740158 11.431634 15.906091 0.000000 11.431634 15.906091 78.740158 14.113874 14.113874 0.000000 14.113874 14.113874 78.740158 11.306083 15.602980 98.425194 11.431634 15.906091 78.740158 8.267716 16.207348 98.425194 8.267716 16.535433 78.740158 5.229351 15.602980 98.425194 5.103798 15.906091 78.740158 2.653549 13.881885 98.425194 2.421558 14.113874 78.740158 0.629342 11.431634 78.740158 0.932453 11.306083 98.425194 0.000000 8.267716 78.740158 0.328084 8.267716 98.425194 0.932453 5.229351 98.425194 0.629342 5.103798 78.740158 2.653549 2.653549 98.425194 2.421558 2.421558 78.740158 "
								            />
							</IndexedFaceSet>
						</Shape>
					</Group>
				</Transform>
			</Transform>
			<Transform DEF="group_1_TRANSFORM"
			           translation="-13.318969 -51.400265 -7.127565"
			           scale="1.000000 1.000000 1.000000"
			           rotation="0.000000 1.000000 0.000000 0.000000"
			           >
				<Transform DEF="group_1_ifs_TRANSFORM"
				           translation="-0.000001 -0.000008 -0.000001"
				           scale="1.000000 1.000000 1.000000"
				           rotation="0.000000 1.000000 0.000000 0.000000"
				           >
					<Group DEF="group_ME_ID12_004">
						<Shape>
							<Appearance>
								<Material USE="MA_material_009" />
							</Appearance>
							<IndexedFaceSet solid="false"
							                coordIndex="0 1 2 -1 1 0 3 -1 4 2 5 -1 2 4 0 -1 6 7 8 -1 7 6 9 -1 9 6 10 -1 9 10 11 -1 11 10 12 -1 11 12 13 -1 13 12 14 -1 13 14 15 -1 15 14 16 -1 15 16 17 -1 17 16 18 -1 18 16 19 -1 18 19 20 -1 20 19 21 -1 20 21 22 -1 22 21 23 -1 7 24 8 -1 24 7 25 -1 24 25 26 -1 26 25 27 -1 26 27 28 -1 28 27 29 -1 28 29 30 -1 30 29 31 -1 30 31 32 -1 30 32 33 -1 33 32 34 -1 33 34 35 -1 35 34 36 -1 35 36 37 -1 37 36 22 -1 37 22 23 -1 3 38 1 -1 38 3 39 -1 40 41 42 -1 41 40 43 -1 44 4 5 -1 4 44 45 -1 42 46 47 -1 46 42 41 -1 48 45 44 -1 45 48 49 -1 50 48 51 -1 48 50 49 -1 52 51 53 -1 51 52 50 -1 53 54 52 -1 54 53 55 -1 55 56 54 -1 56 55 57 -1 58 56 57 -1 56 58 59 -1 60 59 58 -1 59 60 61 -1 61 62 63 -1 62 61 60 -1 63 64 65 -1 64 63 62 -1 66 64 67 -1 64 66 65 -1 68 67 69 -1 67 68 66 -1 39 69 38 -1 69 39 68 -1 70 43 40 -1 43 70 71 -1 47 72 73 -1 72 47 46 -1 74 72 75 -1 72 74 73 -1 76 75 77 -1 75 76 74 -1 78 77 79 -1 77 78 76 -1 80 79 81 -1 79 80 78 -1 82 80 81 -1 80 82 83 -1 84 83 82 -1 83 84 85 -1 86 85 84 -1 85 86 87 -1 88 87 86 -1 87 88 89 -1 90 88 91 -1 88 90 89 -1 92 91 93 -1 91 92 90 -1 94 93 95 -1 93 94 92 -1 70 95 71 -1 95 70 94 -1 "
							                >
								<Coordinate DEF="coords_ME_ID12_004"
								            point="4.440805 13.909762 3.930123 4.780432 17.691256 3.504618 4.028246 13.909762 3.504618 5.161587 17.533375 3.930123 5.161587 10.286150 3.930123 4.780432 10.128270 3.504618 5.161587 10.286150 3.930123 4.578325 13.909762 3.930123 4.440805 13.909762 3.930123 5.288639 10.338776 3.930123 7.214199 7.214199 3.930123 7.311440 7.311440 3.930123 10.286150 5.161587 3.930123 10.338776 5.288639 3.930123 13.909762 4.440805 3.930123 13.909762 4.578325 3.930123 17.533375 5.161587 3.930123 17.480749 5.288639 3.930123 20.508085 7.311440 3.930123 20.605328 7.214199 3.930123 22.530886 10.338776 3.930123 22.657938 10.286150 3.930123 23.241199 13.909762 3.930123 23.378719 13.909762 3.930123 5.161587 17.533375 3.930123 5.288639 17.480749 3.930123 7.214199 20.605328 3.930123 7.311440 20.508085 3.930123 10.286150 22.657938 3.930123 10.338776 22.530888 3.930123 13.909762 23.378719 3.930123 13.909762 23.241199 3.930123 17.480749 22.530888 3.930123 17.533375 22.657938 3.930123 20.508085 20.508085 3.930123 20.605328 20.605328 3.930123 22.530888 17.480749 3.930123 22.657938 17.533375 3.930123 6.922475 20.897051 3.504618 7.214199 20.605328 3.930123 4.780432 17.691256 3.504618 4.028246 13.909762 3.079113 4.028246 13.909762 3.504618 4.780432 17.691256 3.079113 6.922475 6.922475 3.504618 7.214199 7.214199 3.930123 4.780432 10.128270 3.079113 4.780432 10.128270 3.504618 10.128270 4.780432 3.504618 10.286150 5.161587 3.930123 13.909762 4.440805 3.930123 13.909762 4.028246 3.504618 17.533375 5.161587 3.930123 17.691256 4.780432 3.504618 20.605328 7.214199 3.930123 20.897051 6.922475 3.504618 22.657938 10.286150 3.930123 23.039093 10.128270 3.504618 23.791279 13.909762 3.504618 23.378719 13.909762 3.930123 23.039093 17.691256 3.504618 22.657938 17.533375 3.930123 20.897051 20.897051 3.504618 20.605328 20.605328 3.930123 17.691256 23.039093 3.504618 17.533375 22.657938 3.930123 13.909762 23.378719 3.930123 13.909762 23.791279 3.504618 10.286150 22.657938 3.930123 10.128270 23.039093 3.504618 6.922475 20.897051 3.504618 6.922475 20.897051 3.079113 6.922475 6.922475 3.079113 6.922475 6.922475 3.504618 10.128270 4.780432 3.504618 10.128270 4.780432 3.079113 13.909762 4.028246 3.504618 13.909762 4.028246 3.079113 17.691256 4.780432 3.504618 17.691256 4.780432 3.079113 20.897051 6.922475 3.504618 20.897051 6.922475 3.079113 23.039093 10.128270 3.079113 23.039093 10.128270 3.504618 23.791279 13.909762 3.079113 23.791279 13.909762 3.504618 23.039093 17.691256 3.079113 23.039093 17.691256 3.504618 20.897051 20.897051 3.079113 20.897051 20.897051 3.504618 17.691256 23.039093 3.504618 17.691256 23.039093 3.079113 13.909762 23.791279 3.504618 13.909762 23.791279 3.079113 10.128270 23.039093 3.504618 10.128270 23.039093 3.079113 "
								            />
							</IndexedFaceSet>
						</Shape>
					</Group>
				</Transform>
			</Transform>
			<Transform DEF="group_1_001_TRANSFORM"
			           translation="-13.318969 -51.400265 -7.127565"
			           scale="1.000000 1.000000 1.000000"
			           rotation="0.000000 1.000000 0.000000 0.000000"
			           >
				<Transform DEF="group_1_001_ifs_TRANSFORM"
				           translation="-0.000001 -0.000008 -0.000001"
				           scale="1.000000 1.000000 1.000000"
				           rotation="0.000000 1.000000 0.000000 0.000000"
				           >
					<Group DEF="group_ME_ID18">
						<Shape>
							<Appearance>
								<Material USE="MA_material_009" />
							</Appearance>
							<IndexedFaceSet solid="false"
							                coordIndex="0 1 2 -1 1 0 3 -1 4 2 5 -1 2 4 0 -1 6 7 8 -1 7 6 9 -1 9 6 10 -1 9 10 11 -1 11 10 12 -1 11 12 13 -1 13 12 14 -1 13 14 15 -1 15 14 16 -1 15 16 17 -1 17 16 18 -1 18 16 19 -1 18 19 20 -1 20 19 21 -1 20 21 22 -1 22 21 23 -1 7 24 8 -1 24 7 25 -1 24 25 26 -1 26 25 27 -1 26 27 28 -1 28 27 29 -1 28 29 30 -1 30 29 31 -1 30 31 32 -1 30 32 33 -1 33 32 34 -1 33 34 35 -1 35 34 36 -1 35 36 37 -1 37 36 22 -1 37 22 23 -1 3 38 1 -1 38 3 39 -1 40 41 42 -1 41 40 43 -1 43 40 44 -1 43 44 45 -1 45 44 46 -1 45 46 47 -1 47 46 48 -1 47 48 49 -1 49 48 50 -1 49 50 51 -1 51 50 52 -1 51 52 53 -1 53 52 54 -1 53 54 55 -1 4 56 57 -1 56 4 5 -1 58 59 60 -1 59 58 61 -1 62 59 63 -1 59 62 60 -1 64 63 65 -1 63 64 62 -1 66 65 67 -1 65 66 64 -1 68 67 69 -1 67 68 66 -1 70 68 69 -1 68 70 71 -1 72 71 70 -1 71 72 73 -1 74 73 72 -1 73 74 75 -1 76 75 74 -1 75 76 77 -1 39 76 38 -1 76 39 77 -1 57 78 79 -1 78 57 56 -1 79 61 58 -1 61 79 78 -1 "
							                >
								<Coordinate DEF="coords_ME_ID18"
								            point="8.586727 26.760708 0.567341 13.909762 27.819525 0.000000 8.586727 26.760708 0.000000 13.909762 27.819525 0.567341 4.074075 23.745451 0.567341 4.074075 23.745451 0.000000 1.058818 8.586727 0.567341 0.945671 13.909762 0.567341 0.000000 13.909762 0.567341 1.932504 8.948620 0.567341 4.074075 4.074075 0.567341 4.742766 4.742766 0.567341 8.586727 1.058818 0.567341 8.948620 1.932504 0.567341 13.909762 0.000000 0.567341 13.909762 0.945671 0.567341 19.232800 1.058818 0.567341 18.870907 1.932504 0.567341 23.076759 4.742766 0.567341 23.745451 4.074075 0.567341 25.887020 8.948620 0.567341 26.760708 8.586727 0.567341 26.873854 13.909762 0.567341 27.819525 13.909762 0.567341 1.058818 19.232800 0.567341 1.932504 18.870907 0.567341 4.074075 23.745451 0.567341 4.742766 23.076759 0.567341 8.586727 26.760708 0.567341 8.948620 25.887020 0.567341 13.909762 27.819525 0.567341 13.909762 26.873854 0.567341 18.870907 25.887020 0.567341 19.232800 26.760708 0.567341 23.076759 23.076759 0.567341 23.745451 23.745451 0.567341 25.887020 18.870907 0.567341 26.760708 19.232800 0.567341 19.232800 26.760708 0.000000 19.232800 26.760708 0.567341 1.058818 19.232800 0.000000 1.058818 8.586727 0.000000 0.000000 13.909762 0.000000 4.074075 4.074075 0.000000 4.074075 23.745451 0.000000 8.586727 1.058818 0.000000 8.586727 26.760708 0.000000 13.909762 0.000000 0.000000 13.909762 27.819525 0.000000 19.232800 1.058818 0.000000 19.232800 26.760708 0.000000 23.745451 4.074075 0.000000 23.745451 23.745451 0.000000 26.760708 8.586727 0.000000 26.760708 19.232800 0.000000 27.819525 13.909762 0.000000 1.058818 19.232800 0.000000 1.058818 19.232800 0.567341 1.058818 8.586727 0.567341 4.074075 4.074075 0.000000 4.074075 4.074075 0.567341 1.058818 8.586727 0.000000 8.586727 1.058818 0.567341 8.586727 1.058818 0.000000 13.909762 0.000000 0.567341 13.909762 0.000000 0.000000 19.232800 1.058818 0.567341 19.232800 1.058818 0.000000 23.745451 4.074075 0.567341 23.745451 4.074075 0.000000 26.760708 8.586727 0.000000 26.760708 8.586727 0.567341 27.819525 13.909762 0.000000 27.819525 13.909762 0.567341 26.760708 19.232800 0.000000 26.760708 19.232800 0.567341 23.745451 23.745451 0.000000 23.745451 23.745451 0.567341 0.000000 13.909762 0.000000 0.000000 13.909762 0.567341 "
								            />
							</IndexedFaceSet>
						</Shape>
					</Group>
				</Transform>
			</Transform>
			<Transform DEF="group_1_002_TRANSFORM"
			           translation="-13.318969 -51.400265 -7.127565"
			           scale="1.000000 1.000000 1.000000"
			           rotation="0.000000 1.000000 0.000000 0.000000"
			           >
				<Transform DEF="group_1_002_ifs_TRANSFORM"
				           translation="-0.000001 -0.000008 -0.000001"
				           scale="1.000000 1.000000 1.000000"
				           rotation="0.000000 1.000000 0.000000 0.000000"
				           >
					<Group DEF="group_ME_ID24_001">
						<Shape>
							<Appearance>
								<Material USE="MA_material_009" />
							</Appearance>
							<IndexedFaceSet solid="false"
							                coordIndex="0 1 2 -1 1 0 3 -1 4 2 5 -1 2 4 0 -1 6 7 8 -1 7 6 9 -1 7 9 10 -1 10 9 11 -1 10 11 12 -1 12 11 13 -1 12 13 14 -1 14 13 15 -1 14 15 16 -1 16 15 17 -1 16 17 18 -1 18 17 19 -1 18 19 20 -1 20 19 21 -1 22 1 3 -1 1 22 23 -1 2 24 25 -1 24 2 1 -1 26 5 27 -1 5 26 4 -1 5 25 28 -1 25 5 2 -1 29 27 30 -1 27 29 26 -1 31 30 32 -1 30 31 29 -1 33 32 34 -1 32 33 31 -1 35 33 34 -1 33 35 36 -1 37 36 35 -1 36 37 38 -1 39 38 37 -1 38 39 40 -1 39 41 40 -1 41 39 42 -1 43 42 44 -1 42 43 41 -1 45 44 46 -1 44 45 43 -1 47 46 48 -1 46 47 45 -1 49 48 50 -1 48 49 47 -1 49 23 22 -1 23 49 50 -1 23 24 1 -1 24 23 51 -1 25 52 53 -1 52 25 24 -1 27 28 54 -1 28 27 5 -1 28 53 55 -1 53 28 25 -1 30 54 56 -1 54 30 27 -1 32 56 57 -1 56 32 30 -1 34 57 58 -1 57 34 32 -1 59 34 58 -1 34 59 35 -1 60 35 59 -1 35 60 37 -1 61 37 60 -1 37 61 39 -1 61 42 39 -1 42 61 62 -1 44 62 63 -1 62 44 42 -1 46 63 64 -1 63 46 44 -1 48 64 65 -1 64 48 46 -1 50 65 66 -1 65 50 48 -1 50 51 23 -1 51 50 66 -1 24 67 52 -1 67 24 51 -1 52 68 53 -1 68 52 69 -1 54 55 70 -1 55 54 28 -1 53 71 55 -1 71 53 68 -1 56 70 72 -1 70 56 54 -1 57 72 73 -1 72 57 56 -1 58 73 74 -1 73 58 57 -1 75 58 74 -1 58 75 59 -1 76 59 75 -1 59 76 60 -1 77 60 76 -1 60 77 61 -1 77 62 61 -1 62 77 78 -1 63 78 79 -1 78 63 62 -1 64 79 80 -1 79 64 63 -1 65 80 81 -1 80 65 64 -1 66 81 82 -1 81 66 65 -1 66 67 51 -1 67 66 82 -1 67 69 52 -1 69 67 83 -1 70 71 84 -1 71 70 55 -1 72 84 85 -1 84 72 70 -1 73 85 86 -1 85 73 72 -1 74 86 87 -1 86 74 73 -1 88 74 87 -1 74 88 75 -1 89 75 88 -1 75 89 76 -1 90 76 89 -1 76 90 77 -1 91 77 90 -1 77 91 78 -1 79 91 92 -1 91 79 78 -1 80 92 93 -1 92 80 79 -1 81 93 94 -1 93 81 80 -1 82 94 95 -1 94 82 81 -1 82 83 67 -1 83 82 95 -1 "
							                >
								<Coordinate DEF="coords_ME_ID24_001"
								            point="6.256855 10.739824 7.127565 5.506985 13.909762 6.161906 6.146608 10.694159 6.161906 5.626315 13.909762 7.127565 8.052481 8.052481 7.127565 7.968102 7.968102 6.161906 6.256855 10.739824 7.127565 6.256855 17.079700 7.127565 5.626315 13.909762 7.127565 8.052481 8.052481 7.127565 8.052481 19.767044 7.127565 10.739824 6.256855 7.127565 10.739824 21.562672 7.127565 13.909762 5.626315 7.127565 13.909762 22.193211 7.127565 17.079700 6.256855 7.127565 17.079700 21.562672 7.127565 19.767044 8.052481 7.127565 19.767044 19.767044 7.127565 21.562672 10.739824 7.127565 21.562672 17.079700 7.127565 22.193211 13.909762 7.127565 6.256855 17.079700 7.127565 6.146608 17.125366 6.161906 5.149546 13.909762 5.260942 5.816378 10.557373 5.260942 10.739824 6.256855 7.127565 10.694159 6.146608 6.161906 7.715354 7.715354 5.260942 13.909762 5.626315 7.127565 13.909762 5.506985 6.161906 17.079700 6.256855 7.127565 17.125366 6.146608 6.161906 19.767044 8.052481 7.127565 19.851425 7.968102 6.161906 21.672916 10.694159 6.161906 21.562672 10.739824 7.127565 22.312540 13.909762 6.161906 22.193211 13.909762 7.127565 21.672916 17.125366 6.161906 21.562672 17.079700 7.127565 19.767044 19.767044 7.127565 19.851425 19.851425 6.161906 17.079700 21.562672 7.127565 17.125366 21.672916 6.161906 13.909762 22.193211 7.127565 13.909762 22.312540 6.161906 10.739824 21.562672 7.127565 10.694159 21.672916 6.161906 8.052481 19.767044 7.127565 7.968102 19.851425 6.161906 5.816378 17.262154 5.260942 4.578325 13.909762 4.485989 5.288639 10.338776 4.485989 10.557373 5.816378 5.260942 7.311440 7.311440 4.485989 13.909762 5.149546 5.260942 17.262152 5.816378 5.260942 20.104172 7.715354 5.260942 22.003147 10.557373 5.260942 22.669981 13.909762 5.260942 22.003147 17.262152 5.260942 20.104172 20.104172 5.260942 17.262154 22.003147 5.260942 13.909762 22.669981 5.260942 10.557373 22.003147 5.260942 7.715354 20.104172 5.260942 5.288639 17.480749 4.485989 5.288639 10.338776 3.930123 4.578325 13.909762 3.930123 10.338776 5.288639 4.485989 7.311440 7.311440 3.930123 13.909762 4.578325 4.485989 17.480749 5.288639 4.485989 20.508085 7.311440 4.485989 22.530886 10.338776 4.485989 23.241199 13.909762 4.485989 22.530888 17.480749 4.485989 20.508085 20.508085 4.485989 17.480749 22.530888 4.485989 13.909762 23.241199 4.485989 10.338776 22.530888 4.485989 7.311440 20.508085 4.485989 5.288639 17.480749 3.930123 10.338776 5.288639 3.930123 13.909762 4.578325 3.930123 17.480749 5.288639 3.930123 20.508085 7.311440 3.930123 22.530886 10.338776 3.930123 23.241199 13.909762 3.930123 22.530888 17.480749 3.930123 20.508085 20.508085 3.930123 17.480749 22.530888 3.930123 13.909762 23.241199 3.930123 10.338776 22.530888 3.930123 7.311440 20.508085 3.930123 "
								            />
							</IndexedFaceSet>
						</Shape>
					</Group>
				</Transform>
			</Transform>
			<Transform DEF="group_1_003_TRANSFORM"
			           translation="-13.318969 -51.400265 -7.127565"
			           scale="1.000000 1.000000 1.000000"
			           rotation="0.000000 1.000000 0.000000 0.000000"
			           >
				<Transform DEF="group_1_003_ifs_TRANSFORM"
				           translation="-0.000001 -0.000008 -0.000001"
				           scale="1.000000 1.000000 1.000000"
				           rotation="0.000000 1.000000 0.000000 0.000000"
				           >
					<Group DEF="group_ME_ID30_001">
						<Shape>
							<Appearance>
								<Material USE="MA_material_009" />
							</Appearance>
							<IndexedFaceSet solid="false"
							                coordIndex="0 1 2 -1 1 0 3 -1 0 4 5 -1 4 0 2 -1 6 3 0 -1 3 6 7 -1 3 8 1 -1 8 3 9 -1 5 10 11 -1 10 5 4 -1 12 0 5 -1 0 12 6 -1 13 7 6 -1 7 13 14 -1 7 9 3 -1 9 7 15 -1 9 16 8 -1 16 9 17 -1 18 10 19 -1 10 18 11 -1 12 11 20 -1 11 12 5 -1 21 6 12 -1 6 21 13 -1 22 23 24 -1 23 22 25 -1 25 22 26 -1 25 26 27 -1 27 26 28 -1 27 28 29 -1 29 28 30 -1 29 30 31 -1 31 30 32 -1 31 32 33 -1 33 32 34 -1 34 32 35 -1 34 35 36 -1 36 35 37 -1 36 37 38 -1 38 37 39 -1 23 21 24 -1 21 23 40 -1 21 40 13 -1 13 40 41 -1 13 41 14 -1 14 41 42 -1 14 42 43 -1 43 42 44 -1 43 44 45 -1 43 45 46 -1 46 45 47 -1 46 47 48 -1 48 47 49 -1 48 49 50 -1 50 49 38 -1 50 38 39 -1 14 15 7 -1 15 14 43 -1 15 17 9 -1 17 15 51 -1 17 52 16 -1 52 17 53 -1 54 19 55 -1 19 54 18 -1 56 11 18 -1 11 56 20 -1 24 12 20 -1 12 24 21 -1 57 22 56 -1 22 57 26 -1 58 26 57 -1 26 58 28 -1 59 28 58 -1 28 59 30 -1 60 30 59 -1 30 60 32 -1 60 35 32 -1 35 60 61 -1 61 37 35 -1 37 61 62 -1 62 39 37 -1 39 62 63 -1 39 64 50 -1 64 39 63 -1 50 65 48 -1 65 50 64 -1 48 51 46 -1 51 48 65 -1 46 15 43 -1 15 46 51 -1 56 24 20 -1 24 56 22 -1 65 17 51 -1 17 65 53 -1 66 53 67 -1 53 66 52 -1 68 55 69 -1 55 68 54 -1 54 56 18 -1 56 54 57 -1 68 57 54 -1 57 68 58 -1 59 68 70 -1 68 59 58 -1 60 70 71 -1 70 60 59 -1 71 61 60 -1 61 71 72 -1 72 62 61 -1 62 72 73 -1 74 62 73 -1 62 74 63 -1 67 63 74 -1 63 67 64 -1 64 53 65 -1 53 64 67 -1 66 74 75 -1 74 66 67 -1 70 69 76 -1 69 70 68 -1 71 76 77 -1 76 71 70 -1 72 77 78 -1 77 72 71 -1 79 72 78 -1 72 79 73 -1 75 73 79 -1 73 75 74 -1 "
							                >
								<Coordinate DEF="coords_ME_ID30_001"
								            point="5.148488 22.671038 1.569838 8.948620 25.887020 0.567341 4.742766 23.076759 0.567341 9.168195 25.356920 1.569838 1.932504 18.870907 0.567341 2.462605 18.651331 1.569838 5.693319 22.126207 2.420531 9.463056 24.645063 2.420531 13.909762 26.873854 0.567341 13.909762 26.300076 1.569838 0.945671 13.909762 0.567341 1.519448 13.909762 1.569838 3.174461 18.356470 2.420531 6.351444 21.468081 3.079113 9.819230 23.785183 3.079113 13.909762 25.529570 2.420531 18.870907 25.887020 0.567341 18.651331 25.356920 1.569838 2.462605 9.168195 1.569838 1.932504 8.948620 0.567341 2.289956 13.909762 2.420531 4.034344 18.000296 3.079113 4.034344 9.819230 3.079113 4.028246 13.909762 3.079113 3.220686 13.909762 3.079113 4.780432 10.128270 3.079113 6.351444 6.351444 3.079113 6.922475 6.922475 3.079113 9.819230 4.034344 3.079113 10.128270 4.780432 3.079113 13.909762 3.220686 3.079113 13.909762 4.028246 3.079113 18.000296 4.034344 3.079113 17.691256 4.780432 3.079113 20.897051 6.922475 3.079113 21.468082 6.351444 3.079113 23.039093 10.128270 3.079113 23.785181 9.819230 3.079113 23.791279 13.909762 3.079113 24.598839 13.909762 3.079113 4.780432 17.691256 3.079113 6.922475 20.897051 3.079113 10.128270 23.039093 3.079113 13.909762 24.598839 3.079113 13.909762 23.791279 3.079113 17.691256 23.039093 3.079113 18.000296 23.785181 3.079113 20.897051 20.897051 3.079113 21.468081 21.468082 3.079113 23.039093 17.691256 3.079113 23.785183 18.000296 3.079113 18.356470 24.645063 2.420531 23.076759 23.076759 0.567341 22.671038 22.671038 1.569838 5.148488 5.148488 1.569838 4.742766 4.742766 0.567341 3.174461 9.463056 2.420531 5.693319 5.693319 2.420531 9.463056 3.174461 2.420531 13.909762 2.289956 2.420531 18.356470 3.174461 2.420531 22.126207 5.693319 2.420531 24.645063 9.463056 2.420531 25.529570 13.909762 2.420531 24.645063 18.356470 2.420531 22.126207 22.126207 2.420531 25.887020 18.870907 0.567341 25.356920 18.651331 1.569838 9.168195 2.462605 1.569838 8.948620 1.932504 0.567341 13.909762 1.519448 1.569838 18.651331 2.462605 1.569838 22.671038 5.148487 1.569838 25.356920 9.168195 1.569838 26.300076 13.909762 1.569838 26.873854 13.909762 0.567341 13.909762 0.945671 0.567341 18.870907 1.932504 0.567341 23.076759 4.742766 0.567341 25.887020 8.948620 0.567341 "
								            />
							</IndexedFaceSet>
						</Shape>
					</Group>
				</Transform>
			</Transform>
			<Transform DEF="group_2_TRANSFORM"
			           translation="-7.676922 -125.301506 0.000000"
			           scale="1.000000 1.000000 1.000000"
			           rotation="0.000000 1.000000 0.000000 0.000000"
			           >
				<Transform DEF="group_2_ifs_TRANSFORM"
				           translation="-0.000001 -0.000015 0.000000"
				           scale="1.000000 1.000000 1.000000"
				           rotation="0.000000 1.000000 0.000000 0.000000"
				           >
					<Group DEF="group_ME_ID37">
						<Shape>
							<Appearance>
								<Material USE="MA_material_009" />
							</Appearance>
							<IndexedFaceSet solid="false"
							                coordIndex="0 1 2 -1 1 0 3 -1 4 1 5 -1 1 4 2 -1 6 7 8 -1 7 6 9 -1 9 6 10 -1 9 10 11 -1 9 11 12 -1 12 11 13 -1 13 11 14 -1 13 14 15 -1 13 15 16 -1 16 15 17 -1 16 17 18 -1 18 17 19 -1 18 19 20 -1 20 19 21 -1 22 3 0 -1 3 22 23 -1 24 1 3 -1 1 24 25 -1 26 5 27 -1 5 26 4 -1 1 28 5 -1 28 1 25 -1 29 23 22 -1 23 29 30 -1 31 30 29 -1 30 31 32 -1 33 31 34 -1 31 33 32 -1 35 34 36 -1 34 35 33 -1 37 36 38 -1 36 37 35 -1 37 39 40 -1 39 37 38 -1 40 41 42 -1 41 40 39 -1 42 43 44 -1 43 42 41 -1 44 45 46 -1 45 44 43 -1 46 47 48 -1 47 46 45 -1 47 49 48 -1 49 47 50 -1 50 27 49 -1 27 50 26 -1 23 24 3 -1 24 23 51 -1 52 25 24 -1 25 52 53 -1 27 28 54 -1 28 27 5 -1 25 55 28 -1 55 25 53 -1 30 51 23 -1 51 30 56 -1 30 57 56 -1 57 30 32 -1 33 57 32 -1 57 33 58 -1 59 33 35 -1 33 59 58 -1 60 35 37 -1 35 60 59 -1 61 37 40 -1 37 61 60 -1 62 40 42 -1 40 62 61 -1 62 44 63 -1 44 62 42 -1 63 46 64 -1 46 63 44 -1 64 48 65 -1 48 64 46 -1 65 49 66 -1 49 65 48 -1 49 54 66 -1 54 49 27 -1 67 24 51 -1 24 67 52 -1 68 53 52 -1 53 68 69 -1 55 54 28 -1 54 55 70 -1 53 71 55 -1 71 53 69 -1 51 72 67 -1 72 51 56 -1 56 73 72 -1 73 56 57 -1 58 73 57 -1 73 58 74 -1 59 74 58 -1 74 59 75 -1 76 59 60 -1 59 76 75 -1 77 60 61 -1 60 77 76 -1 78 61 62 -1 61 78 77 -1 79 62 63 -1 62 79 78 -1 80 63 64 -1 63 80 79 -1 81 64 65 -1 64 81 80 -1 81 66 82 -1 66 81 65 -1 82 54 70 -1 54 82 66 -1 83 52 67 -1 52 83 68 -1 84 85 86 -1 85 84 87 -1 71 70 55 -1 70 71 88 -1 85 89 90 -1 89 85 87 -1 67 91 83 -1 91 67 72 -1 72 92 91 -1 92 72 73 -1 74 92 73 -1 92 74 93 -1 75 93 74 -1 93 75 94 -1 95 75 76 -1 75 95 94 -1 96 76 77 -1 76 96 95 -1 97 77 78 -1 77 97 96 -1 98 78 79 -1 78 98 97 -1 99 79 80 -1 79 99 98 -1 99 81 100 -1 81 99 80 -1 100 82 101 -1 82 100 81 -1 101 70 88 -1 70 101 82 -1 102 86 103 -1 86 102 84 -1 104 105 106 -1 105 104 107 -1 89 108 90 -1 108 89 109 -1 107 110 105 -1 110 107 111 -1 112 102 103 -1 102 112 113 -1 114 113 112 -1 113 114 115 -1 116 115 114 -1 115 116 117 -1 116 118 117 -1 118 116 119 -1 120 119 121 -1 119 120 118 -1 122 121 123 -1 121 122 120 -1 124 123 125 -1 123 124 122 -1 126 125 127 -1 125 126 124 -1 126 128 129 -1 128 126 127 -1 129 130 131 -1 130 129 128 -1 132 130 133 -1 130 132 131 -1 109 133 108 -1 133 109 132 -1 134 106 135 -1 106 134 104 -1 136 137 138 -1 137 136 139 -1 111 140 110 -1 140 111 141 -1 139 142 137 -1 142 139 143 -1 144 134 135 -1 134 144 145 -1 146 145 144 -1 145 146 147 -1 148 147 146 -1 147 148 149 -1 148 150 149 -1 150 148 151 -1 152 151 153 -1 151 152 150 -1 154 153 155 -1 153 154 152 -1 156 155 157 -1 155 156 154 -1 158 157 159 -1 157 158 156 -1 158 160 161 -1 160 158 159 -1 161 162 163 -1 162 161 160 -1 164 162 165 -1 162 164 163 -1 141 165 140 -1 165 141 164 -1 166 138 167 -1 138 166 136 -1 168 169 170 -1 169 168 171 -1 143 172 142 -1 172 143 173 -1 171 174 169 -1 174 171 175 -1 176 166 167 -1 166 176 177 -1 178 177 176 -1 177 178 179 -1 180 179 178 -1 179 180 181 -1 180 182 181 -1 182 180 183 -1 184 183 185 -1 183 184 182 -1 186 185 187 -1 185 186 184 -1 188 187 189 -1 187 188 186 -1 190 189 191 -1 189 190 188 -1 190 192 193 -1 192 190 191 -1 193 194 195 -1 194 193 192 -1 196 194 197 -1 194 196 195 -1 173 197 172 -1 197 173 196 -1 198 170 199 -1 170 198 168 -1 171 200 201 -1 200 171 168 -1 175 202 174 -1 202 175 203 -1 171 204 175 -1 204 171 201 -1 205 198 199 -1 198 205 206 -1 207 206 205 -1 206 207 208 -1 209 208 207 -1 208 209 210 -1 209 211 210 -1 211 209 212 -1 213 212 214 -1 212 213 211 -1 215 214 216 -1 214 215 213 -1 217 216 218 -1 216 217 215 -1 219 218 220 -1 218 219 217 -1 219 221 222 -1 221 219 220 -1 222 223 224 -1 223 222 221 -1 225 223 226 -1 223 225 224 -1 203 226 202 -1 226 203 225 -1 168 227 200 -1 227 168 198 -1 200 228 201 -1 228 200 229 -1 175 230 203 -1 230 175 204 -1 201 231 204 -1 231 201 228 -1 198 232 227 -1 232 198 206 -1 206 233 232 -1 233 206 208 -1 233 210 234 -1 210 233 208 -1 234 211 235 -1 211 234 210 -1 235 213 236 -1 213 235 211 -1 236 215 237 -1 215 236 213 -1 238 215 217 -1 215 238 237 -1 239 217 219 -1 217 239 238 -1 240 219 222 -1 219 240 239 -1 241 222 224 -1 222 241 240 -1 225 241 224 -1 241 225 242 -1 203 242 225 -1 242 203 230 -1 200 243 229 -1 243 200 227 -1 244 245 246 -1 245 244 247 -1 247 244 248 -1 247 248 249 -1 247 249 250 -1 250 249 251 -1 251 249 252 -1 251 252 253 -1 253 252 254 -1 253 254 255 -1 253 255 256 -1 256 255 257 -1 257 255 258 -1 257 258 259 -1 204 260 230 -1 260 204 231 -1 227 261 243 -1 261 227 232 -1 232 262 261 -1 262 232 233 -1 262 234 263 -1 234 262 233 -1 263 235 264 -1 235 263 234 -1 264 236 265 -1 236 264 235 -1 265 237 266 -1 237 265 236 -1 267 237 238 -1 237 267 266 -1 268 238 239 -1 238 268 267 -1 269 239 240 -1 239 269 268 -1 270 240 241 -1 240 270 269 -1 242 270 241 -1 270 242 271 -1 230 271 242 -1 271 230 260 -1 "
							                >
								<Coordinate DEF="coords_ME_ID37"
								            point="10.831258 2.078779 0.000000 8.267716 0.783971 0.212963 8.267716 1.568859 0.000000 11.131621 1.353638 0.212963 5.704175 2.078779 0.000000 5.403811 1.353638 0.212963 2.078779 5.704175 0.000000 2.078779 10.831258 0.000000 1.568859 8.267716 0.000000 3.530909 13.004523 0.000000 3.530909 3.530909 0.000000 5.704175 2.078779 0.000000 5.704175 14.456653 0.000000 8.267716 14.966573 0.000000 8.267716 1.568859 0.000000 10.831258 2.078779 0.000000 10.831258 14.456653 0.000000 13.004523 3.530909 0.000000 13.004524 13.004524 0.000000 14.456653 5.704175 0.000000 14.456653 10.831258 0.000000 14.966573 8.267716 0.000000 13.004523 3.530909 0.000000 13.559523 2.975909 0.212963 11.351274 0.823351 0.789116 8.267716 0.209994 0.789116 3.530909 3.530909 0.000000 2.975909 2.975909 0.212963 5.184160 0.823351 0.789116 14.456653 5.704175 0.000000 15.181795 5.403811 0.212963 14.966573 8.267716 0.000000 15.751461 8.267716 0.212963 15.181795 11.131621 0.212963 14.456653 10.831258 0.000000 13.559523 13.559524 0.212963 13.004524 13.004524 0.000000 11.131621 15.181795 0.212963 10.831258 14.456653 0.000000 8.267716 14.966573 0.000000 8.267716 15.751461 0.212963 5.704175 14.456653 0.000000 5.403811 15.181795 0.212963 3.530909 13.004523 0.000000 2.975909 13.559523 0.212963 2.078779 10.831258 0.000000 1.353638 11.131621 0.212963 1.568859 8.267716 0.000000 0.783971 8.267716 0.212963 1.353638 5.403811 0.212963 2.078779 5.704175 0.000000 13.965386 2.570046 0.789116 11.431635 0.629342 1.574803 8.267716 0.000000 1.574803 2.570046 2.570046 0.789116 5.103798 0.629342 1.574803 15.712081 5.184160 0.789116 16.325439 8.267716 0.789116 15.712081 11.351274 0.789116 13.965387 13.965386 0.789116 11.351274 15.712081 0.789116 8.267716 16.325439 0.789116 5.184160 15.712081 0.789116 2.570046 13.965387 0.789116 0.823351 11.351274 0.789116 0.209994 8.267716 0.789116 0.823351 5.184160 0.789116 14.113874 2.421558 1.574803 11.431634 0.629342 78.740158 8.267716 0.000000 78.740158 2.421558 2.421558 1.574803 5.103798 0.629342 78.740158 15.906091 5.103798 1.574803 16.535433 8.267716 1.574803 15.906091 11.431635 1.574803 14.113874 14.113874 1.574803 11.431635 15.906091 1.574803 8.267716 16.535433 1.574803 5.103798 15.906091 1.574803 2.421558 14.113874 1.574803 0.629342 11.431635 1.574803 0.000000 8.267716 1.574803 0.629342 5.103798 1.574803 14.113874 2.421558 78.740158 11.306083 0.932453 98.425194 8.267716 0.000000 78.740158 11.431634 0.629342 78.740158 8.267716 0.328084 98.425194 2.421558 2.421558 78.740158 5.229351 0.932453 98.425194 5.103798 0.629342 78.740158 15.906091 5.103798 78.740158 16.535433 8.267716 78.740158 15.906091 11.431634 78.740158 14.113874 14.113874 78.740158 11.431634 15.906091 78.740158 8.267716 16.535433 78.740158 5.103798 15.906091 78.740158 2.421558 14.113874 78.740158 0.629342 11.431635 78.740158 0.000000 8.267716 78.740158 0.629342 5.103798 78.740158 13.881885 2.653549 98.425194 14.113874 2.421558 78.740158 11.054977 1.538673 111.548553 8.267716 0.328084 98.425194 11.306083 0.932453 98.425194 8.267716 0.984252 111.548553 2.421558 2.421558 78.740158 2.653549 2.653549 98.425194 5.229351 0.932453 98.425194 5.480455 1.538673 111.548553 15.906091 5.103798 78.740158 15.602980 5.229351 98.425194 16.535433 8.267716 78.740158 16.207348 8.267716 98.425194 15.906091 11.431634 78.740158 15.602980 11.306083 98.425194 13.881885 13.881885 98.425194 14.113874 14.113874 78.740158 11.306083 15.602980 98.425194 11.431634 15.906091 78.740158 8.267716 16.207348 98.425194 8.267716 16.535433 78.740158 5.229351 15.602980 98.425194 5.103798 15.906091 78.740158 2.653549 13.881885 98.425194 2.421558 14.113874 78.740158 0.629342 11.431635 78.740158 0.932453 11.306083 98.425194 0.000000 8.267716 78.740158 0.328084 8.267716 98.425194 0.932453 5.229351 98.425194 0.629342 5.103798 78.740158 13.417903 3.117529 111.548553 13.881885 2.653549 98.425194 10.768719 2.229764 116.535423 8.267716 0.984252 111.548553 11.054977 1.538673 111.548553 8.267716 1.732283 116.535423 2.653549 2.653549 98.425194 3.117529 3.117529 111.548553 5.480455 1.538673 111.548553 5.766714 2.229764 116.535423 15.602980 5.229351 98.425194 14.996760 5.480455 111.548553 16.207348 8.267716 98.425194 15.551181 8.267716 111.548553 15.602980 11.306083 98.425194 14.996760 11.054977 111.548553 13.417903 13.417903 111.548553 13.881885 13.881885 98.425194 11.054977 14.996760 111.548553 11.306083 15.602980 98.425194 8.267716 15.551181 111.548553 8.267716 16.207348 98.425194 5.480455 14.996760 111.548553 5.229351 15.602980 98.425194 3.117529 13.417903 111.548553 2.653549 13.881885 98.425194 0.932453 11.306083 98.425194 1.538673 11.054977 111.548553 0.328084 8.267716 98.425194 0.984252 8.267716 111.548553 1.538673 5.480455 111.548553 0.932453 5.229351 98.425194 12.888966 3.646467 116.535423 13.417903 3.117529 111.548553 10.642599 2.534242 117.329834 8.267716 1.732283 116.535423 10.768719 2.229764 116.535423 8.267716 2.061848 117.329834 3.117529 3.117529 111.548553 3.646467 3.646467 116.535423 5.766714 2.229764 116.535423 5.892834 2.534242 117.329834 14.996760 5.480455 111.548553 14.305669 5.766715 116.535423 15.551181 8.267716 111.548553 14.803149 8.267716 116.535423 14.996760 11.054977 111.548553 14.305669 10.768719 116.535423 12.888966 12.888966 116.535423 13.417903 13.417903 111.548553 10.768719 14.305669 116.535423 11.054977 14.996760 111.548553 8.267716 14.803149 116.535423 8.267716 15.551181 111.548553 5.766715 14.305669 116.535423 5.480455 14.996760 111.548553 3.646467 12.888966 116.535423 3.117529 13.417903 111.548553 1.538673 11.054977 111.548553 2.229764 10.768719 116.535423 0.984252 8.267716 111.548553 1.732283 8.267716 116.535423 2.229764 5.766715 116.535423 1.538673 5.480455 111.548553 12.655928 3.879505 117.329834 12.888966 3.646467 116.535423 10.394239 3.133835 117.894165 8.267716 2.710844 117.894165 3.646467 3.646467 116.535423 3.879505 3.879505 117.329834 6.141193 3.133835 117.894165 14.305669 5.766715 116.535423 14.001191 5.892834 117.329834 14.803149 8.267716 116.535423 14.473584 8.267716 117.329834 14.305669 10.768719 116.535423 14.001191 10.642599 117.329834 12.655928 12.655928 117.329834 12.888966 12.888966 116.535423 10.642599 14.001191 117.329834 10.768719 14.305669 116.535423 8.267716 14.473584 117.329834 8.267716 14.803149 116.535423 5.892834 14.001191 117.329834 5.766715 14.305669 116.535423 3.879505 12.655928 117.329834 3.646467 12.888966 116.535423 2.229764 10.768719 116.535423 2.534242 10.642599 117.329834 1.732283 8.267716 116.535423 2.061848 8.267716 117.329834 2.534241 5.892834 117.329834 2.229764 5.766715 116.535423 12.197019 4.338414 117.894165 8.267716 3.543307 118.110229 10.075669 3.902931 118.110229 4.338414 4.338414 117.894165 6.459764 3.902931 118.110229 13.401598 6.141193 117.894165 13.824590 8.267716 117.894165 13.401598 10.394239 117.894165 12.197019 12.197019 117.894165 10.394239 13.401598 117.894165 8.267716 13.824590 117.894165 6.141193 13.401598 117.894165 4.338414 12.197019 117.894165 3.133835 10.394239 117.894165 2.710844 8.267716 117.894165 3.133835 6.141193 117.894165 11.608378 4.927055 118.110229 3.902931 6.459764 118.110229 3.902931 10.075669 118.110229 3.543307 8.267716 118.110229 4.927054 11.608378 118.110229 4.927054 4.927055 118.110229 6.459764 3.902931 118.110229 6.459764 12.632502 118.110229 8.267716 12.992126 118.110229 8.267716 3.543307 118.110229 10.075669 12.632502 118.110229 10.075669 3.902931 118.110229 11.608378 4.927055 118.110229 11.608378 11.608378 118.110229 12.632502 10.075669 118.110229 12.632502 6.459764 118.110229 12.992126 8.267716 118.110229 4.927054 4.927055 118.110229 12.632502 6.459764 118.110229 12.992126 8.267716 118.110229 12.632502 10.075669 118.110229 11.608378 11.608378 118.110229 10.075669 12.632502 118.110229 8.267716 12.992126 118.110229 6.459764 12.632502 118.110229 4.927054 11.608378 118.110229 3.902931 10.075669 118.110229 3.543307 8.267716 118.110229 3.902931 6.459764 118.110229 "
								            />
							</IndexedFaceSet>
						</Shape>
					</Group>
				</Transform>
			</Transform>
			<Transform DEF="group_3_TRANSFORM"
			           translation="-13.464325 -131.088913 -7.127565"
			           scale="1.000000 1.000000 1.000000"
			           rotation="0.000000 1.000000 0.000000 0.000000"
			           >
				<Transform DEF="group_3_ifs_TRANSFORM"
				           translation="-0.000001 0.000000 -0.000001"
				           scale="1.000000 1.000000 1.000000"
				           rotation="0.000000 1.000000 0.000000 0.000000"
				           >
					<Group DEF="group_ME_ID44">
						<Shape>
							<Appearance>
								<Material USE="MA_material_009" />
							</Appearance>
							<IndexedFaceSet solid="false"
							                coordIndex="0 1 2 -1 1 0 3 -1 4 0 5 -1 0 4 3 -1 3 6 1 -1 6 3 7 -1 2 8 9 -1 8 2 1 -1 10 2 11 -1 2 10 0 -1 5 12 4 -1 12 5 13 -1 3 14 7 -1 14 3 4 -1 5 10 15 -1 10 5 0 -1 16 17 18 -1 17 16 19 -1 17 19 20 -1 20 19 6 -1 20 6 21 -1 21 6 7 -1 21 7 22 -1 22 7 23 -1 23 7 14 -1 23 14 24 -1 24 14 25 -1 24 25 26 -1 26 25 27 -1 26 27 28 -1 28 27 29 -1 29 27 30 -1 16 31 32 -1 31 16 18 -1 31 18 33 -1 31 33 34 -1 34 33 35 -1 34 35 36 -1 36 35 37 -1 36 37 38 -1 38 37 39 -1 38 39 40 -1 40 39 41 -1 40 41 42 -1 40 42 43 -1 43 42 44 -1 43 44 29 -1 29 44 28 -1 1 19 8 -1 19 1 6 -1 9 45 46 -1 45 9 8 -1 11 9 47 -1 9 11 2 -1 48 11 49 -1 11 48 10 -1 13 50 12 -1 50 13 51 -1 4 25 14 -1 25 4 12 -1 13 15 52 -1 15 13 5 -1 48 15 10 -1 15 48 53 -1 12 27 25 -1 27 12 50 -1 50 30 27 -1 30 50 54 -1 30 55 29 -1 55 30 54 -1 29 56 43 -1 56 29 55 -1 43 57 40 -1 57 43 56 -1 38 57 58 -1 57 38 40 -1 36 58 59 -1 58 36 38 -1 34 59 60 -1 59 34 36 -1 31 60 61 -1 60 31 34 -1 32 61 62 -1 61 32 31 -1 45 32 62 -1 32 45 16 -1 8 16 45 -1 16 8 19 -1 45 63 46 -1 63 45 62 -1 9 64 47 -1 64 9 46 -1 49 47 65 -1 47 49 11 -1 66 50 51 -1 50 66 54 -1 67 13 52 -1 13 67 51 -1 53 52 15 -1 52 53 68 -1 66 55 54 -1 55 66 69 -1 55 70 56 -1 70 55 69 -1 56 71 57 -1 71 56 70 -1 58 71 72 -1 71 58 57 -1 59 72 73 -1 72 59 58 -1 60 73 74 -1 73 60 59 -1 61 74 75 -1 74 61 60 -1 62 75 63 -1 75 62 61 -1 46 76 64 -1 76 46 63 -1 65 64 77 -1 64 65 47 -1 78 51 67 -1 51 78 66 -1 68 67 52 -1 67 68 79 -1 78 69 66 -1 69 78 80 -1 80 70 69 -1 70 80 81 -1 71 81 82 -1 81 71 70 -1 72 82 83 -1 82 72 71 -1 73 83 84 -1 83 73 72 -1 85 73 84 -1 73 85 74 -1 74 86 75 -1 86 74 85 -1 63 86 76 -1 86 63 75 -1 77 76 87 -1 76 77 64 -1 79 78 67 -1 78 79 88 -1 78 89 80 -1 89 78 88 -1 80 90 81 -1 90 80 89 -1 81 91 82 -1 91 81 90 -1 83 91 92 -1 91 83 82 -1 84 92 93 -1 92 84 83 -1 85 93 94 -1 93 85 84 -1 86 94 95 -1 94 86 85 -1 76 95 87 -1 95 76 86 -1 "
							                >
								<Coordinate DEF="coords_ME_ID44"
								            point="14.055118 1.914639 1.966300 9.615124 3.336025 2.593895 9.409159 2.838778 1.966300 14.055118 2.452855 2.593895 18.495111 3.336025 2.593895 18.701078 2.838778 1.966300 9.980554 4.218248 3.144663 14.055118 3.407767 3.144663 5.851079 5.851079 2.593895 5.470504 5.470503 1.966300 14.055118 1.591587 1.495761 9.285531 2.540317 1.495761 22.259157 5.851079 2.593895 22.639732 5.470504 1.966300 18.129683 4.218248 3.144663 18.824705 2.540317 1.495761 4.218248 9.980554 3.144663 4.982086 10.296945 3.144663 4.234539 14.055118 3.144663 6.526304 6.526304 3.144663 7.110920 7.110919 3.144663 10.296945 4.982086 3.144663 14.055118 4.234539 3.144663 17.813292 4.982086 3.144663 20.999315 7.110920 3.144663 21.583933 6.526304 3.144663 23.128149 10.296945 3.144663 23.891987 9.980554 3.144663 23.875696 14.055118 3.144663 23.891987 18.129683 3.144663 24.702469 14.055118 3.144663 4.218248 18.129683 3.144663 3.407767 14.055118 3.144663 4.982086 17.813292 3.144663 6.526304 21.583933 3.144663 7.110919 20.999315 3.144663 9.980553 23.891987 3.144663 10.296945 23.128151 3.144663 14.055118 24.702469 3.144663 14.055118 23.875696 3.144663 18.129683 23.891987 3.144663 17.813292 23.128149 3.144663 20.999315 20.999315 3.144663 21.583933 21.583933 3.144663 23.128149 17.813292 3.144663 3.336025 9.615124 2.593895 2.838778 9.409158 1.966300 5.242071 5.242071 1.495761 14.055118 0.551181 0.551181 8.887385 1.579107 0.551181 24.774212 9.615124 2.593895 25.271458 9.409159 1.966300 22.868164 5.242071 1.495761 19.222851 1.579107 0.551181 25.657379 14.055119 2.593895 24.774212 18.495111 2.593895 22.259155 22.259157 2.593895 18.495111 24.774212 2.593895 14.055118 25.657379 2.593895 9.615124 24.774212 2.593895 5.851079 22.259157 2.593895 3.336025 18.495111 2.593895 2.452855 14.055118 2.593895 1.914639 14.055118 1.966300 2.540317 9.285531 1.495761 4.506393 4.506392 0.551181 26.195595 14.055118 1.966300 25.569918 9.285531 1.495761 23.603844 4.506393 0.551181 25.271458 18.701078 1.966300 22.639732 22.639732 1.966300 18.701078 25.271458 1.966300 14.055118 26.195595 1.966300 9.409158 25.271458 1.966300 5.470503 22.639732 1.966300 2.838778 18.701078 1.966300 1.591587 14.055118 1.495761 1.579107 8.887385 0.551181 26.518650 14.055118 1.495761 26.531130 8.887385 0.551181 25.569918 18.824705 1.495761 22.868164 22.868166 1.495761 18.824705 25.569918 1.495761 14.055118 26.518650 1.495761 9.285531 25.569920 1.495761 5.242071 22.868164 1.495761 2.540317 18.824705 1.495761 0.551181 14.055118 0.551181 27.559055 14.055118 0.551181 26.531130 19.222851 0.551181 23.603844 23.603844 0.551181 19.222851 26.531130 0.551181 14.055118 27.559055 0.551181 8.887385 26.531130 0.551181 4.506392 23.603844 0.551181 1.579107 19.222851 0.551181 "
								            />
							</IndexedFaceSet>
						</Shape>
					</Group>
				</Transform>
			</Transform>
			<Transform DEF="group_3_001_TRANSFORM"
			           translation="-13.464325 -131.088913 -7.127565"
			           scale="1.000000 1.000000 1.000000"
			           rotation="0.000000 1.000000 0.000000 0.000000"
			           >
				<Transform DEF="group_3_001_ifs_TRANSFORM"
				           translation="-0.000001 0.000000 -0.000001"
				           scale="1.000000 1.000000 1.000000"
				           rotation="0.000000 1.000000 0.000000 0.000000"
				           >
					<Group DEF="group_ME_ID50_002">
						<Shape>
							<Appearance>
								<Material USE="MA_material_009" />
							</Appearance>
							<IndexedFaceSet solid="false"
							                coordIndex="0 1 2 -1 1 0 3 -1 0 4 3 -1 4 0 5 -1 3 6 1 -1 6 3 7 -1 2 8 9 -1 8 2 1 -1 10 11 12 -1 11 10 13 -1 5 14 4 -1 14 5 15 -1 3 16 7 -1 16 3 4 -1 17 10 18 -1 10 17 13 -1 7 19 6 -1 19 7 20 -1 1 21 8 -1 21 1 6 -1 9 22 23 -1 22 9 8 -1 12 24 25 -1 24 12 11 -1 15 26 14 -1 26 15 27 -1 4 28 16 -1 28 4 14 -1 29 18 30 -1 18 29 17 -1 31 7 16 -1 7 31 20 -1 19 21 6 -1 21 19 32 -1 8 33 22 -1 33 8 21 -1 23 34 35 -1 34 23 22 -1 24 36 25 -1 36 24 37 -1 27 38 26 -1 38 27 39 -1 14 40 28 -1 40 14 26 -1 41 29 30 -1 29 41 42 -1 43 16 28 -1 16 43 31 -1 32 33 21 -1 33 32 44 -1 22 45 34 -1 45 22 33 -1 34 46 35 -1 46 34 47 -1 37 48 36 -1 48 37 49 -1 38 50 51 -1 50 38 39 -1 26 52 40 -1 52 26 38 -1 53 42 41 -1 42 53 54 -1 40 43 28 -1 43 40 55 -1 44 45 33 -1 45 44 56 -1 45 47 34 -1 47 45 57 -1 47 58 46 -1 58 47 59 -1 60 48 49 -1 48 60 61 -1 51 62 63 -1 62 51 50 -1 52 51 64 -1 51 52 38 -1 65 54 53 -1 54 65 66 -1 52 55 40 -1 55 52 67 -1 56 57 45 -1 57 56 68 -1 57 59 47 -1 59 57 69 -1 59 70 58 -1 70 59 71 -1 72 61 60 -1 61 72 73 -1 63 74 75 -1 74 63 62 -1 64 63 76 -1 63 64 51 -1 65 77 66 -1 77 65 78 -1 52 79 67 -1 79 52 64 -1 80 57 68 -1 57 80 69 -1 69 71 59 -1 71 69 81 -1 71 82 70 -1 82 71 83 -1 73 84 85 -1 84 73 72 -1 83 74 82 -1 74 83 75 -1 76 75 86 -1 75 76 63 -1 87 78 88 -1 78 87 77 -1 64 89 79 -1 89 64 76 -1 80 81 69 -1 81 80 90 -1 81 83 71 -1 83 81 91 -1 84 92 85 -1 92 84 93 -1 91 75 83 -1 75 91 86 -1 93 88 92 -1 88 93 87 -1 94 76 86 -1 76 94 89 -1 90 91 81 -1 91 90 95 -1 95 86 91 -1 86 95 94 -1 "
							                >
								<Coordinate DEF="coords_ME_ID50_002"
								            point="14.055119 4.510129 4.522615 10.883056 6.397082 5.009935 10.402410 5.236699 4.522615 14.055118 5.766119 5.009935 17.227180 6.397082 5.009935 17.707827 5.236699 4.522615 11.263367 7.315235 5.919522 14.055118 6.759921 5.919522 8.193911 8.193911 5.009935 7.305792 7.305791 4.522615 14.055118 4.510129 3.695844 10.402410 5.236699 4.522615 10.402410 5.236699 3.695844 14.055119 4.510129 4.522615 19.916325 8.193911 5.009935 20.804443 7.305792 4.522615 16.846869 7.315235 5.919522 17.707827 5.236699 4.522615 17.707827 5.236698 3.695844 11.491577 7.866181 7.127565 14.055118 7.356261 7.127565 8.896634 8.896634 5.919522 6.397082 10.883055 5.009935 5.236699 10.402409 4.522615 7.305792 7.305791 4.522615 7.305792 7.305792 3.695844 21.713154 10.883056 5.009935 22.873537 10.402410 4.522615 19.213602 8.896635 5.919522 20.804443 7.305792 4.522615 20.804443 7.305792 3.695844 16.618660 7.866181 7.127565 9.318311 9.318311 7.127565 7.315235 11.263367 5.919522 5.766119 14.055118 5.009935 4.510129 14.055118 4.522615 5.236699 10.402409 3.695844 5.236699 10.402409 4.522615 22.344118 14.055118 5.009935 23.600107 14.055118 4.522615 20.795002 11.263367 5.919522 22.873537 10.402409 3.695844 22.873537 10.402410 4.522615 18.791925 9.318311 7.127565 7.866181 11.491577 7.127565 6.759921 14.055118 5.919522 5.236699 17.707827 4.522615 6.397082 17.227180 5.009935 4.510129 14.055118 3.695844 4.510129 14.055118 4.522615 22.873537 17.707829 4.522615 21.713154 17.227180 5.009935 21.350315 14.055119 5.919522 23.600107 14.055118 3.695844 23.600107 14.055118 4.522615 20.244055 11.491577 7.127565 7.356261 14.055118 7.127565 7.315235 16.846869 5.919522 7.305791 20.804443 4.522615 8.193911 19.916325 5.009935 5.236699 17.707827 4.522615 5.236699 17.707827 3.695844 20.804443 20.804443 4.522615 19.916325 19.916325 5.009935 20.795002 16.846869 5.919522 22.873537 17.707829 3.695844 22.873537 17.707829 4.522615 20.753975 14.055118 7.127565 7.866181 16.618658 7.127565 8.896634 19.213602 5.919522 10.402409 22.873537 4.522615 10.883055 21.713154 5.009935 7.305791 20.804443 4.522615 7.305792 20.804443 3.695844 17.707827 22.873537 4.522615 17.227180 21.713154 5.009935 19.213602 19.213602 5.919522 20.804443 20.804443 4.522615 20.804443 20.804443 3.695844 20.244055 16.618660 7.127565 9.318311 18.791925 7.127565 11.263367 20.795002 5.919522 14.055118 23.600107 4.522615 14.055118 22.344118 5.009935 10.402409 22.873537 4.522615 10.402409 22.873537 3.695844 16.846869 20.795002 5.919522 17.707827 22.873537 4.522615 17.707827 22.873537 3.695844 18.791925 18.791925 7.127565 11.491576 20.244055 7.127565 14.055118 21.350315 5.919522 14.055118 23.600107 3.695844 14.055118 23.600107 4.522615 16.618658 20.244055 7.127565 14.055118 20.753975 7.127565 "
								            />
							</IndexedFaceSet>
						</Shape>
					</Group>
				</Transform>
			</Transform>
			<Transform DEF="group_3_002_TRANSFORM"
			           translation="-13.464325 -131.088913 -7.127565"
			           scale="1.000000 1.000000 1.000000"
			           rotation="0.000000 1.000000 0.000000 0.000000"
			           >
				<Transform DEF="group_3_002_ifs_TRANSFORM"
				           translation="-0.000001 0.000000 -0.000001"
				           scale="1.000000 1.000000 1.000000"
				           rotation="0.000000 1.000000 0.000000 0.000000"
				           >
					<Group DEF="group_ME_ID56">
						<Shape>
							<Appearance>
								<Material USE="MA_material_009" />
							</Appearance>
							<IndexedFaceSet solid="false"
							                coordIndex="0 1 2 -1 1 0 3 -1 4 0 5 -1 0 4 3 -1 6 7 8 -1 7 6 9 -1 9 6 10 -1 9 10 11 -1 11 10 12 -1 11 12 13 -1 13 12 14 -1 13 14 15 -1 15 14 16 -1 16 14 17 -1 16 17 18 -1 18 17 19 -1 18 19 20 -1 20 19 21 -1 20 21 22 -1 22 21 23 -1 7 24 8 -1 24 7 25 -1 24 25 26 -1 26 25 27 -1 26 27 28 -1 28 27 29 -1 28 29 30 -1 30 29 31 -1 30 31 32 -1 32 31 33 -1 32 33 34 -1 32 34 35 -1 35 34 36 -1 35 36 37 -1 37 36 22 -1 37 22 23 -1 2 38 39 -1 38 2 1 -1 40 41 42 -1 41 40 43 -1 41 43 44 -1 44 43 45 -1 44 45 46 -1 46 45 47 -1 46 47 48 -1 48 47 49 -1 48 49 50 -1 50 49 51 -1 50 51 52 -1 52 51 53 -1 52 53 54 -1 54 53 55 -1 56 5 57 -1 5 56 4 -1 58 56 57 -1 56 58 59 -1 60 59 58 -1 59 60 61 -1 62 61 60 -1 61 62 63 -1 62 64 63 -1 64 62 65 -1 66 65 67 -1 65 66 64 -1 68 67 69 -1 67 68 66 -1 70 69 71 -1 69 70 68 -1 72 70 71 -1 70 72 73 -1 73 74 75 -1 74 73 72 -1 75 76 77 -1 76 75 74 -1 78 76 79 -1 76 78 77 -1 38 79 39 -1 79 38 78 -1 "
							                >
								<Coordinate DEF="coords_ME_ID56"
								            point="14.055118 0.000000 0.000000 8.676457 1.069882 0.551181 8.676457 1.069882 0.000000 14.055118 0.000000 0.551181 19.433779 1.069882 0.551181 19.433779 1.069882 0.000000 1.069882 8.676457 0.551181 0.551181 14.055118 0.551181 0.000000 14.055118 0.551181 1.579107 8.887385 0.551181 4.116649 4.116649 0.551181 4.506393 4.506392 0.551181 8.676457 1.069882 0.551181 8.887385 1.579107 0.551181 14.055118 0.000000 0.551181 14.055118 0.551181 0.551181 19.222851 1.579107 0.551181 19.433779 1.069882 0.551181 23.603844 4.506393 0.551181 23.993587 4.116649 0.551181 26.531130 8.887385 0.551181 27.040354 8.676457 0.551181 27.559055 14.055118 0.551181 28.110235 14.055118 0.551181 1.069882 19.433779 0.551181 1.579107 19.222851 0.551181 4.116649 23.993587 0.551181 4.506392 23.603844 0.551181 8.676457 27.040354 0.551181 8.887385 26.531130 0.551181 14.055118 28.110235 0.551181 14.055118 27.559055 0.551181 19.433779 27.040354 0.551181 19.222851 26.531130 0.551181 23.603844 23.603844 0.551181 23.993587 23.993587 0.551181 26.531130 19.222851 0.551181 27.040354 19.433779 0.551181 4.116649 4.116649 0.551181 4.116649 4.116649 0.000000 1.069882 19.433779 0.000000 1.069882 8.676457 0.000000 0.000000 14.055118 0.000000 4.116649 23.993587 0.000000 4.116649 4.116649 0.000000 8.676457 27.040354 0.000000 8.676457 1.069882 0.000000 14.055118 28.110235 0.000000 14.055118 0.000000 0.000000 19.433779 27.040354 0.000000 19.433779 1.069882 0.000000 23.993587 23.993587 0.000000 23.993587 4.116649 0.000000 27.040354 19.433779 0.000000 27.040354 8.676457 0.000000 28.110235 14.055118 0.000000 23.993587 4.116649 0.551181 23.993587 4.116649 0.000000 27.040354 8.676457 0.000000 27.040354 8.676457 0.551181 28.110235 14.055118 0.000000 28.110235 14.055118 0.551181 27.040354 19.433779 0.000000 27.040354 19.433779 0.551181 23.993587 23.993587 0.551181 23.993587 23.993587 0.000000 19.433779 27.040354 0.551181 19.433779 27.040354 0.000000 14.055118 28.110235 0.551181 14.055118 28.110235 0.000000 8.676457 27.040354 0.551181 8.676457 27.040354 0.000000 4.116649 23.993587 0.000000 4.116649 23.993587 0.551181 1.069882 19.433779 0.000000 1.069882 19.433779 0.551181 0.000000 14.055118 0.000000 0.000000 14.055118 0.551181 1.069882 8.676457 0.551181 1.069882 8.676457 0.000000 "
								            />
							</IndexedFaceSet>
						</Shape>
					</Group>
				</Transform>
			</Transform>
			<Transform DEF="group_3_003_TRANSFORM"
			           translation="-13.464325 -131.088913 -7.127565"
			           scale="1.000000 1.000000 1.000000"
			           rotation="0.000000 1.000000 0.000000 0.000000"
			           >
				<Transform DEF="group_3_003_ifs_TRANSFORM"
				           translation="-0.000001 0.000000 -0.000001"
				           scale="1.000000 1.000000 1.000000"
				           rotation="0.000000 1.000000 0.000000 0.000000"
				           >
					<Group DEF="group_ME_ID62_001">
						<Shape>
							<Appearance>
								<Material USE="MA_material_009" />
							</Appearance>
							<IndexedFaceSet solid="false"
							                coordIndex="0 1 2 -1 1 0 3 -1 4 2 5 -1 2 4 0 -1 6 7 8 -1 7 6 9 -1 9 6 10 -1 9 10 11 -1 11 10 12 -1 11 12 13 -1 13 12 14 -1 13 14 15 -1 15 14 16 -1 16 14 17 -1 16 17 18 -1 18 17 19 -1 18 19 20 -1 20 19 21 -1 20 21 22 -1 22 21 23 -1 7 24 8 -1 24 7 25 -1 24 25 26 -1 26 25 27 -1 26 27 28 -1 28 27 29 -1 28 29 30 -1 30 29 31 -1 30 31 32 -1 32 31 33 -1 32 33 34 -1 32 34 35 -1 35 34 36 -1 35 36 37 -1 37 36 22 -1 37 22 23 -1 38 3 39 -1 3 38 1 -1 40 5 41 -1 5 40 4 -1 42 40 41 -1 40 42 43 -1 43 44 45 -1 44 43 42 -1 45 46 47 -1 46 45 44 -1 48 46 49 -1 46 48 47 -1 50 49 51 -1 49 50 48 -1 52 50 51 -1 50 52 53 -1 54 53 52 -1 53 54 55 -1 56 54 57 -1 54 56 55 -1 58 57 59 -1 57 58 56 -1 60 58 59 -1 58 60 61 -1 62 61 60 -1 61 62 63 -1 38 63 62 -1 63 38 39 -1 "
							                >
								<Coordinate DEF="coords_ME_ID62_001"
								            point="17.813292 23.128149 3.695844 20.999315 20.999315 3.144663 17.813292 23.128149 3.144663 20.999315 20.999315 3.695844 14.055118 23.875696 3.695844 14.055118 23.875696 3.144663 4.982086 10.296945 3.695844 4.510129 14.055118 3.695844 4.234539 14.055118 3.695844 5.236699 10.402409 3.695844 7.110920 7.110919 3.695844 7.305792 7.305792 3.695844 10.296945 4.982086 3.695844 10.402410 5.236699 3.695844 14.055118 4.234539 3.695844 14.055118 4.510129 3.695844 17.707827 5.236698 3.695844 17.813292 4.982086 3.695844 20.804443 7.305792 3.695844 20.999315 7.110920 3.695844 22.873537 10.402409 3.695844 23.128149 10.296945 3.695844 23.600107 14.055118 3.695844 23.875696 14.055118 3.695844 4.982086 17.813292 3.695844 5.236699 17.707827 3.695844 7.110919 20.999315 3.695844 7.305792 20.804443 3.695844 10.296945 23.128149 3.695844 10.402409 22.873537 3.695844 14.055118 23.875696 3.695844 14.055118 23.600107 3.695844 17.813292 23.128149 3.695844 17.707827 22.873537 3.695844 20.804443 20.804443 3.695844 20.999315 20.999315 3.695844 22.873537 17.707829 3.695844 23.128149 17.813292 3.695844 23.128149 17.813292 3.144663 23.128149 17.813292 3.695844 10.296945 23.128149 3.695844 10.296945 23.128151 3.144663 7.110919 20.999315 3.144663 7.110919 20.999315 3.695844 4.982086 17.813292 3.144663 4.982086 17.813292 3.695844 4.234539 14.055118 3.144663 4.234539 14.055118 3.695844 4.982086 10.296945 3.695844 4.982086 10.296945 3.144663 7.110920 7.110919 3.695844 7.110920 7.110919 3.144663 10.296945 4.982086 3.144663 10.296945 4.982086 3.695844 14.055118 4.234539 3.144663 14.055118 4.234539 3.695844 17.813292 4.982086 3.695844 17.813292 4.982086 3.144663 20.999315 7.110920 3.695844 20.999315 7.110920 3.144663 23.128149 10.296945 3.144663 23.128149 10.296945 3.695844 23.875696 14.055118 3.144663 23.875696 14.055118 3.695844 "
								            />
							</IndexedFaceSet>
						</Shape>
					</Group>
				</Transform>
			</Transform>
			<Transform DEF="instance_0_TRANSFORM"
			           translation="-5.629678 -31.207020 118.108711"
			           scale="1.000000 1.000000 1.000000"
			           rotation="0.000000 0.000000 -1.000000 1.570796"
			           >
				<Transform DEF="instance_0_ifs_TRANSFORM"
				           translation="-0.000000 -0.000001 0.000008"
				           scale="1.000000 1.000000 1.000000"
				           rotation="0.000000 0.000000 0.000000 0.000000"
				           >
					<Group DEF="group_ME_ID70">
						<Shape>
							<Appearance>
							</Appearance>
							<IndexedFaceSet solid="false"
							                coordIndex="0 1 2 -1 1 0 3 -1 4 5 6 -1 5 4 7 -1 5 7 8 -1 6 9 10 -1 9 6 5 -1 10 9 11 -1 12 13 14 -1 13 12 15 -1 13 15 16 -1 16 15 17 -1 17 15 18 -1 19 14 13 -1 20 21 22 -1 21 20 23 -1 23 20 24 -1 24 20 25 -1 26 27 28 -1 29 30 31 -1 30 29 32 -1 30 32 33 -1 33 32 27 -1 33 27 26 -1 34 35 36 -1 35 34 37 -1 37 34 38 -1 38 34 39 -1 39 34 40 -1 36 41 42 -1 41 36 35 -1 43 44 45 -1 44 43 46 -1 47 48 49 -1 50 51 52 -1 51 50 53 -1 51 53 54 -1 54 53 48 -1 54 48 47 -1 55 56 57 -1 56 55 58 -1 59 60 61 -1 60 59 62 -1 63 64 65 -1 64 66 67 -1 66 64 68 -1 68 64 63 -1 69 70 71 -1 70 69 72 -1 73 74 75 -1 74 73 76 -1 74 76 77 -1 75 78 79 -1 78 75 74 -1 79 78 80 -1 81 82 83 -1 82 81 84 -1 85 86 87 -1 86 85 88 -1 89 90 91 -1 90 89 92 -1 93 94 95 -1 94 93 96 -1 97 98 99 -1 98 97 100 -1 101 102 103 -1 102 101 104 -1 104 101 105 -1 105 101 106 -1 107 108 109 -1 108 107 110 -1 111 112 113 -1 112 114 115 -1 114 112 116 -1 116 112 111 -1 117 118 119 -1 118 117 120 -1 118 120 121 -1 118 121 122 -1 123 124 125 -1 124 123 126 -1 61 127 128 -1 127 61 60 -1 129 130 131 -1 130 129 132 -1 96 133 94 -1 133 96 134 -1 135 136 137 -1 136 135 138 -1 139 120 117 -1 120 139 140 -1 120 140 141 -1 120 141 121 -1 128 142 143 -1 142 128 127 -1 131 144 145 -1 144 131 130 -1 134 146 133 -1 146 134 147 -1 148 140 139 -1 140 148 149 -1 140 149 141 -1 150 151 152 -1 151 150 153 -1 145 154 155 -1 154 145 144 -1 "
							                >
								<Coordinate DEF="coords_ME_ID70"
								            point="4.330709 0.000000 7.874016 0.000000 4.330709 7.874016 0.000000 0.000000 7.874016 4.330709 4.330709 7.874016 12.598425 0.000000 3.149606 8.267716 0.000000 4.724409 0.000000 0.000000 3.149606 12.598425 0.000000 7.874016 8.267716 0.000000 7.874016 4.330709 0.000000 4.724409 0.000000 0.000000 7.874016 4.330709 0.000000 7.874016 4.330709 0.000000 4.724409 4.330709 4.330709 6.299213 4.330709 0.000000 7.874016 4.330709 12.598425 4.724409 4.330709 8.267716 6.299213 4.330709 8.267716 7.874016 4.330709 12.598425 7.874016 4.330709 4.330709 7.874016 0.000000 4.330709 7.874016 3.149606 4.330709 4.724409 0.000000 4.330709 4.724409 3.149606 4.330709 6.299213 4.330709 4.330709 6.299213 4.330709 4.330709 7.874016 0.000000 12.598425 7.874016 0.000000 8.267716 4.724409 0.000000 8.267716 7.874016 0.000000 4.330709 7.874016 0.000000 0.000000 3.149606 0.000000 0.000000 7.874016 0.000000 4.330709 4.724409 0.000000 12.598425 3.149606 12.598425 11.023622 3.149606 12.598425 4.330709 4.724409 12.598425 0.000000 3.149606 12.598425 8.267716 4.724409 12.598425 8.267716 7.874016 12.598425 12.598425 7.874016 12.598425 12.598425 3.149606 12.598425 4.330709 7.874016 12.598425 0.000000 7.874016 12.598425 0.000000 7.874016 8.267716 4.330709 7.874016 8.267716 0.000000 7.874016 12.598425 4.330709 7.874016 8.267716 12.598425 7.874016 8.267716 8.267716 6.299213 8.267716 8.267716 7.874016 8.267716 4.330709 7.874016 8.267716 0.000000 4.724409 8.267716 0.000000 7.874016 8.267716 4.330709 6.299213 8.267716 12.598425 4.724409 8.267716 0.000000 4.724409 4.330709 12.598425 4.724409 4.330709 0.000000 4.724409 8.267716 12.598425 4.724409 12.598425 0.000000 3.149606 0.829686 0.829686 2.271344 11.768739 0.829686 2.271344 0.000000 0.000000 3.149606 4.330709 8.267716 7.874016 3.149606 8.267716 6.299213 4.330709 8.267716 6.299213 0.000000 8.267716 4.724409 3.149606 8.267716 4.724409 0.000000 8.267716 7.874016 4.330709 4.330709 6.299213 3.149606 8.267716 6.299213 3.149606 4.330709 6.299213 4.330709 8.267716 6.299213 0.000000 12.598425 3.149606 4.330709 12.598425 4.724409 12.598425 12.598425 3.149606 0.000000 12.598425 7.874016 4.330709 12.598425 7.874016 8.267716 12.598425 4.724409 12.598425 12.598425 7.874016 8.267716 12.598425 7.874016 4.330709 8.267716 7.874016 0.000000 12.598425 7.874016 0.000000 8.267716 7.874016 4.330709 12.598425 7.874016 3.149606 8.267716 6.299213 3.149606 4.330709 4.724409 3.149606 4.330709 6.299213 3.149606 8.267716 4.724409 3.149606 4.330709 4.724409 0.000000 8.267716 4.724409 0.000000 4.330709 4.724409 3.149606 8.267716 4.724409 0.000000 12.598425 3.149606 0.829686 0.829686 2.271344 0.000000 0.000000 3.149606 0.829686 11.768739 2.271344 12.598425 8.267716 7.874016 8.267716 12.598425 7.874016 8.267716 8.267716 7.874016 12.598425 12.598425 7.874016 12.598425 8.267716 7.874016 9.448818 8.267716 4.724409 12.598425 8.267716 4.724409 9.448818 8.267716 6.299213 8.267716 8.267716 6.299213 8.267716 8.267716 7.874016 12.598425 4.330709 4.724409 9.448818 8.267716 4.724409 9.448818 4.330709 4.724409 12.598425 8.267716 4.724409 8.267716 4.330709 7.874016 9.448818 4.330709 6.299213 8.267716 4.330709 6.299213 12.598425 4.330709 4.724409 9.448818 4.330709 4.724409 12.598425 4.330709 7.874016 11.768739 0.829686 2.271344 12.598425 11.023622 3.149606 12.598425 0.000000 3.149606 11.768739 11.023622 2.271344 11.768739 11.768739 2.271344 12.598425 12.598425 3.149606 9.448818 4.330709 6.299213 8.267716 8.267716 6.299213 8.267716 4.330709 6.299213 9.448818 8.267716 6.299213 1.370005 1.370005 1.190706 11.228419 1.370005 1.190706 0.000000 12.598425 3.149606 11.768739 11.768739 2.271344 0.829686 11.768739 2.271344 12.598425 12.598425 3.149606 1.370005 1.370005 1.190706 1.370005 11.228419 1.190706 9.448818 8.267716 4.724409 9.448818 4.330709 6.299213 9.448818 4.330709 4.724409 9.448818 8.267716 6.299213 11.228419 1.370005 1.190706 11.228419 11.023622 1.190706 11.228419 11.228419 1.190706 1.574803 1.574803 0.000000 11.023622 1.574803 0.000000 11.228419 11.228419 1.190706 1.370005 11.228419 1.190706 1.574803 1.574803 0.000000 1.574803 11.023622 0.000000 11.023622 1.574803 0.000000 11.023622 11.023622 0.000000 11.023622 11.023622 0.000000 1.574803 1.574803 0.000000 1.574803 11.023622 0.000000 11.023622 1.574803 0.000000 11.023622 11.023622 0.000000 1.574803 11.023622 0.000000 "
								            />
							</IndexedFaceSet>
						</Shape>
					</Group>
				</Transform>
			</Transform>
			<Transform DEF="instance_1_TRANSFORM"
			           translation="-5.708418 -110.734573 118.110229"
			           scale="1.000000 1.000000 1.000000"
			           rotation="0.000000 0.000000 -1.000000 1.570796"
			           >
				<Transform DEF="instance_1_ifs_TRANSFORM"
				           translation="0.000015 -0.000001 0.000008"
				           scale="1.000000 1.000000 1.000000"
				           rotation="0.000000 0.000000 0.000000 0.000000"
				           >
					<Group USE="group_ME_ID70" />
				</Transform>
			</Transform>
		</Transform>
	</Scene>
</X3D>