<?xml version="1.0" encoding="UTF-8"?>
<!DOCTYPE X3D PUBLIC "ISO//Web3D//DTD X3D 3.0//EN" "http://www.web3d.org/specifications/x3d-3.0.dtd">
<X3D version="3.0" profile="Immersive" xmlns:xsd="http://www.w3.org/2001/XMLSchema-instance" xsd:noNamespaceSchemaLocation="http://www.web3d.org/specifications/x3d-3.0.xsd">
	<head>
		<meta name="filename" content="22-1造角樑之制.x3d" />
		<meta name="created" content="2025-12-29 13:53:48" />
		<meta name="generator" content="Blender 4.2.2 LTS" />
		<meta name="translator" content="Web3D X3D/VRML2 format v2.5.1" />
	</head>
	<Scene>
		<NavigationInfo headlight="true"
		                visibilityLimit="0.0"
		                type='"EXAMINE", "ANY"'
		                avatarSize="0.25, 1.75, 0.75"
		                />
		<Background DEF="WO_World"
		            groundColor="0.051 0.051 0.051"
		            skyColor="0.051 0.051 0.051"
		            />
		<Transform DEF="SketchUp_TRANSFORM"
		           translation="0.000000 0.000000 0.000000"
		           scale="0.025400 0.025400 0.025400"
		           rotation="-1.000000 0.000000 0.000000 1.570796"
		           >
			<Transform DEF="SketchUp_ifs_TRANSFORM"
			           translation="0.000000 0.000000 0.000000"
			           scale="1.000000 1.000000 1.000000"
			           rotation="0.000000 1.000000 0.000000 0.000000"
			           >
				<Group DEF="group_ME_ID173_002">
				</Group>
			</Transform>
			<Transform DEF="group_0_TRANSFORM"
			           translation="-28.297039 483.474213 71.527687"
			           scale="1.000000 1.000000 1.000000"
			           rotation="0.000000 1.000000 0.000000 0.000000"
			           >
				<Transform DEF="group_0_ifs_TRANSFORM"
				           translation="-0.000006 0.000031 0.000008"
				           scale="1.000000 1.000000 1.000000"
				           rotation="0.000000 1.000000 0.000000 0.000000"
				           >
					<Group DEF="group_ME_ID3_003">
						<Shape>
							<Appearance>
								<Material DEF="MA_material_011"
								          diffuseColor="1.000 1.000 1.000"
								          specularColor="0.401 0.401 0.401"
								          emissiveColor="0.000 0.000 0.000"
								          ambientIntensity="0.000"
								          shininess="0.500"
								          transparency="0.000"
								          />
							</Appearance>
							<IndexedFaceSet solid="false"
							                coordIndex="0 1 2 -1 1 0 3 -1 4 5 6 -1 5 4 7 -1 5 7 8 -1 8 7 9 -1 8 9 10 -1 10 9 11 -1 10 11 12 -1 12 11 13 -1 12 13 14 -1 14 13 15 -1 14 15 16 -1 16 15 17 -1 16 17 18 -1 18 17 19 -1 18 19 20 -1 20 19 21 -1 20 21 22 -1 22 21 23 -1 22 23 24 -1 24 23 25 -1 24 25 26 -1 26 25 27 -1 28 2 29 -1 2 28 0 -1 30 31 32 -1 31 30 33 -1 31 33 34 -1 34 33 35 -1 34 35 36 -1 36 35 37 -1 36 37 38 -1 38 37 39 -1 38 39 40 -1 40 39 41 -1 40 41 42 -1 42 41 43 -1 43 41 44 -1 43 44 45 -1 43 45 46 -1 46 45 47 -1 46 47 48 -1 48 47 49 -1 48 49 50 -1 50 49 51 -1 50 51 52 -1 52 51 53 -1 3 54 1 -1 54 3 55 -1 56 57 58 -1 57 56 59 -1 58 60 61 -1 60 58 57 -1 61 62 63 -1 62 61 60 -1 62 64 63 -1 64 62 65 -1 65 66 64 -1 66 65 67 -1 67 29 66 -1 29 67 28 -1 68 54 55 -1 54 68 69 -1 70 69 68 -1 69 70 71 -1 72 71 70 -1 71 72 73 -1 74 73 72 -1 73 74 75 -1 76 75 74 -1 75 76 77 -1 78 77 76 -1 77 78 79 -1 78 80 79 -1 80 78 81 -1 81 82 80 -1 82 81 83 -1 83 84 82 -1 84 83 85 -1 85 86 84 -1 86 85 87 -1 87 88 86 -1 88 87 89 -1 89 90 88 -1 90 89 91 -1 90 92 93 -1 92 90 91 -1 93 94 95 -1 94 93 92 -1 95 59 56 -1 59 95 94 -1 "
							                >
								<Coordinate DEF="coords_ME_ID3_003"
								            point="0.067075 55.669292 1.459018 0.263730 0.000000 0.984252 0.067075 0.000000 1.459018 0.263730 55.669292 0.984252 2.477990 0.000000 0.067075 1.459018 0.000000 0.067075 1.968504 0.000000 0.000000 2.952756 0.000000 0.263730 0.984252 0.000000 0.263730 3.360446 0.000000 0.576561 0.576561 0.000000 0.576561 3.673278 0.000000 0.984252 0.263730 0.000000 0.984252 3.869933 0.000000 1.459018 0.067075 0.000000 1.459018 3.937008 0.000000 1.968504 0.000000 0.000000 1.968504 3.869933 0.000000 2.477990 0.067075 0.000000 2.477990 3.673278 0.000000 2.952756 0.263730 0.000000 2.952756 3.360446 0.000000 3.360446 0.576561 0.000000 3.360446 2.952756 0.000000 3.673278 0.984252 0.000000 3.673278 2.477990 0.000000 3.869933 1.459018 0.000000 3.869933 1.968504 0.000000 3.937008 0.000000 55.669292 1.968504 0.000000 0.000000 1.968504 1.459018 55.669292 0.067075 2.477990 55.669292 0.067075 1.968504 55.669292 0.000000 0.984252 55.669292 0.263730 2.952756 55.669292 0.263730 0.576561 55.669292 0.576561 3.360446 55.669292 0.576561 0.263730 55.669292 0.984252 3.673278 55.669292 0.984252 0.067075 55.669292 1.459018 3.869933 55.669292 1.459018 0.000000 55.669292 1.968504 3.937008 55.669292 1.968504 3.869933 55.669292 2.477990 0.067075 55.669292 2.477990 0.263730 55.669292 2.952756 3.673278 55.669292 2.952756 0.576561 55.669292 3.360446 3.360446 55.669292 3.360446 0.984252 55.669292 3.673278 2.952756 55.669292 3.673278 1.459018 55.669292 3.869933 2.477990 55.669292 3.869933 1.968504 55.669292 3.937008 0.576561 0.000000 0.576561 0.576561 55.669292 0.576561 1.968504 0.000000 3.937008 1.459018 55.669292 3.869933 1.459018 0.000000 3.869933 1.968504 55.669292 3.937008 0.984252 55.669292 3.673278 0.984252 0.000000 3.673278 0.576561 55.669292 3.360446 0.576561 0.000000 3.360446 0.263730 0.000000 2.952756 0.263730 55.669292 2.952756 0.067075 0.000000 2.477990 0.067075 55.669292 2.477990 0.984252 55.669292 0.263730 0.984252 0.000000 0.263730 1.459018 55.669292 0.067075 1.459018 0.000000 0.067075 1.968504 55.669292 0.000000 1.968504 0.000000 0.000000 2.477990 55.669292 0.067075 2.477990 0.000000 0.067075 2.952756 55.669292 0.263730 2.952756 0.000000 0.263730 3.360446 55.669292 0.576561 3.360446 0.000000 0.576561 3.673278 0.000000 0.984252 3.673278 55.669292 0.984252 3.869933 0.000000 1.459018 3.869933 55.669292 1.459018 3.937008 0.000000 1.968504 3.937008 55.669292 1.968504 3.869933 0.000000 2.477990 3.869933 55.669292 2.477990 3.673278 0.000000 2.952756 3.673278 55.669292 2.952756 3.360446 0.000000 3.360446 3.360446 55.669292 3.360446 2.952756 55.669292 3.673278 2.952756 0.000000 3.673278 2.477990 55.669292 3.869933 2.477990 0.000000 3.869933 "
								            />
							</IndexedFaceSet>
						</Shape>
					</Group>
				</Transform>
			</Transform>
			<Transform DEF="group_1_TRANSFORM"
			           translation="-14.517510 525.216248 71.527687"
			           scale="1.000000 1.000000 1.000000"
			           rotation="0.000000 0.000000 1.000000 1.570796"
			           >
				<Transform DEF="group_1_ifs_TRANSFORM"
				           translation="0.000060 0.000001 0.000008"
				           scale="1.000000 1.000000 1.000000"
				           rotation="0.000000 0.000000 -0.000000 0.000000"
				           >
					<Group DEF="group_ME_ID12_005">
						<Shape>
							<Appearance>
								<Material USE="MA_material_011" />
							</Appearance>
							<IndexedFaceSet solid="false"
							                coordIndex="0 1 2 -1 1 0 3 -1 4 5 6 -1 5 4 7 -1 5 7 8 -1 8 7 9 -1 8 9 10 -1 10 9 11 -1 10 11 12 -1 12 11 13 -1 12 13 14 -1 14 13 15 -1 14 15 16 -1 16 15 17 -1 16 17 18 -1 18 17 19 -1 18 19 20 -1 20 19 21 -1 20 21 22 -1 22 21 23 -1 22 23 24 -1 24 23 25 -1 24 25 26 -1 26 25 27 -1 28 2 29 -1 2 28 0 -1 30 31 32 -1 31 30 33 -1 31 33 34 -1 34 33 35 -1 34 35 36 -1 36 35 37 -1 36 37 38 -1 38 37 39 -1 38 39 40 -1 40 39 41 -1 40 41 42 -1 42 41 43 -1 43 41 44 -1 43 44 45 -1 43 45 46 -1 46 45 47 -1 46 47 48 -1 48 47 49 -1 48 49 50 -1 50 49 51 -1 50 51 52 -1 52 51 53 -1 3 54 1 -1 54 3 55 -1 56 57 58 -1 57 56 59 -1 58 60 61 -1 60 58 57 -1 61 62 63 -1 62 61 60 -1 62 64 63 -1 64 62 65 -1 65 66 64 -1 66 65 67 -1 67 29 66 -1 29 67 28 -1 68 54 55 -1 54 68 69 -1 70 69 68 -1 69 70 71 -1 72 71 70 -1 71 72 73 -1 74 73 72 -1 73 74 75 -1 76 75 74 -1 75 76 77 -1 78 77 76 -1 77 78 79 -1 78 80 79 -1 80 78 81 -1 81 82 80 -1 82 81 83 -1 83 84 82 -1 84 83 85 -1 85 86 84 -1 86 85 87 -1 87 88 86 -1 88 87 89 -1 89 90 88 -1 90 89 91 -1 90 92 93 -1 92 90 91 -1 93 94 95 -1 94 93 92 -1 95 59 56 -1 59 95 94 -1 "
							                >
								<Coordinate DEF="coords_ME_ID12_005"
								            point="0.067075 55.669292 1.459018 0.263730 0.000000 0.984252 0.067075 0.000000 1.459018 0.263730 55.669292 0.984252 2.477990 0.000000 0.067075 1.459018 0.000000 0.067075 1.968504 0.000000 0.000000 2.952756 0.000000 0.263730 0.984252 0.000000 0.263730 3.360446 0.000000 0.576561 0.576561 0.000000 0.576561 3.673278 0.000000 0.984252 0.263730 0.000000 0.984252 3.869933 0.000000 1.459018 0.067075 0.000000 1.459018 3.937008 0.000000 1.968504 0.000000 0.000000 1.968504 3.869933 0.000000 2.477990 0.067075 0.000000 2.477990 3.673278 0.000000 2.952756 0.263730 0.000000 2.952756 3.360446 0.000000 3.360446 0.576561 0.000000 3.360446 2.952756 0.000000 3.673278 0.984252 0.000000 3.673278 2.477990 0.000000 3.869933 1.459018 0.000000 3.869933 1.968504 0.000000 3.937008 0.000000 55.669292 1.968504 0.000000 0.000000 1.968504 1.459018 55.669292 0.067075 2.477990 55.669292 0.067075 1.968504 55.669292 0.000000 0.984252 55.669292 0.263730 2.952756 55.669292 0.263730 0.576561 55.669292 0.576561 3.360446 55.669292 0.576561 0.263730 55.669292 0.984252 3.673278 55.669292 0.984252 0.067075 55.669292 1.459018 3.869933 55.669292 1.459018 0.000000 55.669292 1.968504 3.937008 55.669292 1.968504 3.869933 55.669292 2.477990 0.067075 55.669292 2.477990 0.263730 55.669292 2.952756 3.673278 55.669292 2.952756 0.576561 55.669292 3.360446 3.360446 55.669292 3.360446 0.984252 55.669292 3.673278 2.952756 55.669292 3.673278 1.459018 55.669292 3.869933 2.477990 55.669292 3.869933 1.968504 55.669292 3.937008 0.576561 0.000000 0.576561 0.576561 55.669292 0.576561 1.968504 0.000000 3.937008 1.459018 55.669292 3.869933 1.459018 0.000000 3.869933 1.968504 55.669292 3.937008 0.984252 55.669292 3.673278 0.984252 0.000000 3.673278 0.576561 55.669292 3.360446 0.576561 0.000000 3.360446 0.263730 0.000000 2.952756 0.263730 55.669292 2.952756 0.067075 0.000000 2.477990 0.067075 55.669292 2.477990 0.984252 55.669292 0.263730 0.984252 0.000000 0.263730 1.459018 55.669292 0.067075 1.459018 0.000000 0.067075 1.968504 55.669292 0.000000 1.968504 0.000000 0.000000 2.477990 55.669292 0.067075 2.477990 0.000000 0.067075 2.952756 55.669292 0.263730 2.952756 0.000000 0.263730 3.360446 55.669292 0.576561 3.360446 0.000000 0.576561 3.673278 0.000000 0.984252 3.673278 55.669292 0.984252 3.869933 0.000000 1.459018 3.869933 55.669292 1.459018 3.937008 0.000000 1.968504 3.937008 55.669292 1.968504 3.869933 0.000000 2.477990 3.869933 55.669292 2.477990 3.673278 0.000000 2.952756 3.673278 55.669292 2.952756 3.360446 0.000000 3.360446 3.360446 55.669292 3.360446 2.952756 55.669292 3.673278 2.952756 0.000000 3.673278 2.477990 55.669292 3.869933 2.477990 0.000000 3.869933 "
								            />
							</IndexedFaceSet>
						</Shape>
					</Group>
				</Transform>
			</Transform>
			<Transform DEF="group_2_TRANSFORM"
			           translation="70.078743 600.849060 67.590675"
			           scale="-1.000000 -1.000000 -1.000000"
			           rotation="-0.707107 -0.707107 0.000000 3.141593"
			           >
				<Transform DEF="group_2_ifs_TRANSFORM"
				           translation="-0.000005 0.000005 0.000006"
				           scale="1.000000 1.000000 1.000000"
				           rotation="0.000000 0.000000 0.000000 0.000000"
				           >
					<Group DEF="group_ME_ID19_002">
						<Shape>
							<Appearance>
								<Material USE="MA_material_011" />
							</Appearance>
							<IndexedFaceSet solid="false"
							                coordIndex="0 1 2 -1 3 2 1 -1 4 5 6 -1 7 6 5 -1 8 9 10 -1 11 10 9 -1 12 13 14 -1 15 14 13 -1 16 17 18 -1 19 18 17 -1 20 21 22 -1 23 22 21 -1 "
							                >
								<Coordinate DEF="coords_ME_ID19_002"
								            point="0.000000 0.000000 11.811023 3.937008 0.000000 11.811023 0.000000 0.000000 0.000000 3.937008 0.000000 0.000000 3.937008 116.092308 11.811023 3.937008 116.092308 0.000000 3.937008 0.000000 11.811023 3.937008 0.000000 0.000000 3.937008 116.092308 11.811023 3.937008 0.000000 11.811023 0.000000 116.092308 11.811023 0.000000 0.000000 11.811023 0.000000 116.092308 0.000000 0.000000 116.092308 11.811023 0.000000 0.000000 0.000000 0.000000 0.000000 11.811023 3.937008 116.092308 0.000000 0.000000 116.092308 0.000000 3.937008 0.000000 0.000000 0.000000 0.000000 0.000000 3.937008 116.092308 11.811023 0.000000 116.092308 11.811023 3.937008 116.092308 0.000000 0.000000 116.092308 0.000000 "
								            />
							</IndexedFaceSet>
						</Shape>
					</Group>
				</Transform>
			</Transform>
			<Transform DEF="group_3_TRANSFORM"
			           translation="43.307087 185.882629 67.590675"
			           scale="1.000000 1.000000 1.000000"
			           rotation="0.000000 1.000000 0.000000 0.000000"
			           >
				<Transform DEF="group_3_ifs_TRANSFORM"
				           translation="0.000004 0.000015 0.000008"
				           scale="1.000000 1.000000 1.000000"
				           rotation="0.000000 1.000000 0.000000 0.000000"
				           >
					<Group DEF="group_ME_ID26_005">
						<Shape>
							<Appearance>
								<Material USE="MA_material_011" />
							</Appearance>
							<IndexedFaceSet solid="false"
							                coordIndex="0 1 2 -1 1 0 3 -1 4 5 6 -1 5 4 7 -1 8 9 10 -1 9 8 11 -1 12 13 14 -1 13 12 15 -1 16 17 18 -1 17 16 19 -1 20 21 22 -1 21 20 23 -1 "
							                >
								<Coordinate DEF="coords_ME_ID26_005"
								            point="3.937008 321.617065 11.811023 0.000000 321.617065 0.000000 3.937008 321.617065 0.000000 0.000000 321.617065 11.811023 3.937008 437.801086 0.000000 3.937008 321.617065 11.811023 3.937008 321.617065 0.000000 3.937008 437.801086 11.811023 3.937008 321.617065 11.811023 0.000000 437.801086 11.811023 0.000000 321.617065 11.811023 3.937008 437.801086 11.811023 0.000000 437.801086 11.811023 0.000000 321.617065 0.000000 0.000000 321.617065 11.811023 0.000000 437.801086 0.000000 3.937008 437.801086 0.000000 0.000000 321.617065 0.000000 0.000000 437.801086 0.000000 3.937008 321.617065 0.000000 0.000000 437.801086 11.811023 3.937008 437.801086 0.000000 0.000000 437.801086 0.000000 3.937008 437.801086 11.811023 "
								            />
							</IndexedFaceSet>
						</Shape>
					</Group>
				</Transform>
			</Transform>
			<Transform DEF="group_4_TRANSFORM"
			           translation="13.385828 583.463989 -80.039368"
			           scale="-1.000000 -1.000000 -1.000000"
			           rotation="-0.000000 1.000000 -0.000000 3.141593"
			           >
				<Transform DEF="group_4_ifs_TRANSFORM"
				           translation="0.000001 -0.000061 -0.000009"
				           scale="1.000000 1.000000 1.000000"
				           rotation="0.000000 -0.000000 0.000000 0.000000"
				           >
					<Group DEF="group_ME_ID33_003">
						<Shape>
							<Appearance>
								<Material USE="MA_material_011" />
							</Appearance>
							<IndexedFaceSet solid="false"
							                coordIndex="0 1 2 -1 3 2 1 -1 4 0 5 -1 2 5 0 -1 2 3 6 -1 7 6 3 -1 1 8 3 -1 9 3 8 -1 0 10 1 -1 11 1 10 -1 4 5 12 -1 13 12 5 -1 5 2 14 -1 6 14 2 -1 4 15 0 -1 10 0 15 -1 16 17 18 -1 17 19 18 -1 18 19 20 -1 20 19 21 -1 19 22 21 -1 22 23 21 -1 21 23 24 -1 24 23 25 -1 23 26 25 -1 25 26 27 -1 26 28 27 -1 28 29 27 -1 27 29 30 -1 31 30 29 -1 3 9 7 -1 32 7 9 -1 8 33 9 -1 34 9 33 -1 8 1 35 -1 11 35 1 -1 36 37 38 -1 39 38 37 -1 12 13 40 -1 41 40 13 -1 5 14 13 -1 42 13 14 -1 12 43 4 -1 15 4 43 -1 44 45 36 -1 37 36 45 -1 13 42 41 -1 46 41 42 -1 41 46 47 -1 48 47 46 -1 47 48 49 -1 50 49 48 -1 50 51 49 -1 52 49 51 -1 51 53 52 -1 54 52 53 -1 53 55 54 -1 56 54 55 -1 55 57 56 -1 58 56 57 -1 59 60 57 -1 58 57 60 -1 61 62 59 -1 60 59 62 -1 63 64 61 -1 62 61 64 -1 65 34 63 -1 64 63 34 -1 32 9 65 -1 34 65 9 -1 34 33 64 -1 66 64 33 -1 33 8 67 -1 35 67 8 -1 68 38 69 -1 39 69 38 -1 70 71 72 -1 73 72 71 -1 40 41 74 -1 47 74 41 -1 75 43 40 -1 12 40 43 -1 76 77 44 -1 45 44 77 -1 78 79 70 -1 71 70 79 -1 74 47 80 -1 49 80 47 -1 49 52 80 -1 81 80 52 -1 52 54 81 -1 82 81 54 -1 54 56 82 -1 83 82 56 -1 56 58 83 -1 84 83 58 -1 60 85 58 -1 84 58 85 -1 62 86 60 -1 85 60 86 -1 64 66 62 -1 86 62 66 -1 66 33 87 -1 67 87 33 -1 88 68 89 -1 69 89 68 -1 90 72 91 -1 73 91 72 -1 92 93 94 -1 95 94 93 -1 40 74 75 -1 96 75 74 -1 97 77 98 -1 76 98 77 -1 99 100 78 -1 79 78 100 -1 101 102 92 -1 93 92 102 -1 74 80 96 -1 103 96 80 -1 80 81 103 -1 104 103 81 -1 81 82 104 -1 105 104 82 -1 105 82 106 -1 83 106 82 -1 106 83 107 -1 84 107 83 -1 84 85 107 -1 108 107 85 -1 85 86 108 -1 109 108 86 -1 86 66 109 -1 87 109 66 -1 110 88 111 -1 89 111 88 -1 112 90 113 -1 91 113 90 -1 114 94 115 -1 95 115 94 -1 116 117 118 -1 118 117 119 -1 117 120 119 -1 119 120 121 -1 120 122 121 -1 122 123 121 -1 121 123 124 -1 123 125 124 -1 124 125 126 -1 125 127 126 -1 126 127 128 -1 128 127 129 -1 127 130 129 -1 131 129 130 -1 98 132 97 -1 133 97 132 -1 134 100 135 -1 99 135 100 -1 136 137 101 -1 102 101 137 -1 132 138 133 -1 139 133 138 -1 138 140 139 -1 141 139 140 -1 140 142 141 -1 143 141 142 -1 143 142 144 -1 145 144 142 -1 144 145 146 -1 147 146 145 -1 147 148 146 -1 149 146 148 -1 148 150 149 -1 151 149 150 -1 150 110 151 -1 111 151 110 -1 152 112 153 -1 113 153 112 -1 154 114 155 -1 115 155 114 -1 154 155 156 -1 157 156 155 -1 158 156 159 -1 157 159 156 -1 160 158 161 -1 159 161 158 -1 162 160 163 -1 161 163 160 -1 164 165 163 -1 162 163 165 -1 166 167 164 -1 165 164 167 -1 168 167 169 -1 166 169 167 -1 170 168 171 -1 169 171 168 -1 172 170 173 -1 171 173 170 -1 174 172 175 -1 173 175 172 -1 175 137 174 -1 136 174 137 -1 135 176 134 -1 177 134 176 -1 176 178 177 -1 179 177 178 -1 178 180 179 -1 181 179 180 -1 180 182 181 -1 183 181 182 -1 183 182 184 -1 185 184 182 -1 184 185 186 -1 187 186 185 -1 187 188 186 -1 189 186 188 -1 188 190 189 -1 191 189 190 -1 190 152 191 -1 153 191 152 -1 "
							                >
								<Coordinate DEF="coords_ME_ID33_003"
								            point="14.001191 5.892834 117.329834 12.655928 3.879505 117.329834 13.401598 6.141193 117.894165 12.197019 4.338414 117.894165 14.473584 8.267716 117.329834 13.824590 8.267716 117.894165 12.632502 6.459764 118.110229 11.608378 4.927054 118.110229 10.642599 2.534242 117.329834 10.394239 3.133835 117.894165 14.305669 5.766715 116.535423 12.888966 3.646467 116.535423 14.001191 10.642599 117.329834 13.401598 10.394239 117.894165 12.992126 8.267716 118.110229 14.803149 8.267716 116.535423 12.992126 8.267716 118.110229 12.632502 6.459764 118.110229 12.632502 10.075669 118.110229 11.608378 4.927054 118.110229 11.608378 11.608378 118.110229 10.075669 12.632502 118.110229 10.075669 3.902931 118.110229 8.267716 3.543307 118.110229 8.267716 12.992126 118.110229 6.459764 12.632502 118.110229 6.459764 3.902931 118.110229 4.927054 11.608378 118.110229 4.927054 4.927054 118.110229 3.902931 6.459764 118.110229 3.902931 10.075669 118.110229 3.543307 8.267716 118.110229 10.075669 3.902931 118.110229 8.267716 2.061848 117.329834 8.267716 2.710843 117.894165 10.768719 2.229764 116.535423 14.305669 5.766715 116.535423 14.996760 5.480455 111.548553 12.888966 3.646467 116.535423 13.417903 3.117529 111.548553 12.655928 12.655928 117.329834 12.197019 12.197019 117.894165 12.632502 10.075669 118.110229 14.305669 10.768719 116.535423 14.803149 8.267716 116.535423 15.551181 8.267716 111.548553 11.608378 11.608378 118.110229 10.394239 13.401598 117.894165 10.075669 12.632502 118.110229 8.267716 13.824590 117.894165 8.267716 12.992126 118.110229 6.459764 12.632502 118.110229 6.141193 13.401598 117.894165 4.927054 11.608378 118.110229 4.338414 12.197019 117.894165 3.902931 10.075669 118.110229 3.133835 10.394239 117.894165 3.543307 8.267716 118.110229 2.710843 8.267716 117.894165 3.902931 6.459764 118.110229 3.133835 6.141193 117.894165 4.927054 4.927054 118.110229 4.338414 4.338414 117.894165 6.459764 3.902931 118.110229 6.141193 3.133835 117.894165 8.267716 3.543307 118.110229 5.892834 2.534242 117.329834 8.267716 1.732283 116.535423 10.768719 2.229764 116.535423 11.054977 1.538673 111.548553 14.996760 5.480455 111.548553 15.602980 5.229351 98.425194 13.417903 3.117529 111.548553 13.881885 2.653549 98.425194 10.642599 14.001192 117.329834 12.888966 12.888966 116.535423 14.305669 10.768719 116.535423 14.996760 11.054977 111.548553 15.551181 8.267716 111.548553 16.207348 8.267716 98.425194 8.267716 14.473584 117.329834 5.892834 14.001192 117.329834 3.879505 12.655928 117.329834 2.534242 10.642599 117.329834 2.061848 8.267716 117.329834 2.534242 5.892834 117.329834 3.879505 3.879505 117.329834 5.766714 2.229764 116.535423 8.267716 1.732283 116.535423 8.267716 0.984252 111.548553 11.054977 1.538673 111.548553 11.306083 0.932453 98.425194 15.602980 5.229351 98.425194 15.906091 5.103798 78.740158 13.881885 2.653549 98.425194 14.113874 2.421558 78.740158 10.768719 14.305669 116.535423 13.417903 13.417903 111.548553 12.888966 12.888966 116.535423 14.996760 11.054977 111.548553 15.602980 11.306083 98.425194 16.207348 8.267716 98.425194 16.535433 8.267716 78.740158 8.267716 14.803149 116.535423 5.766715 14.305669 116.535423 3.646467 12.888966 116.535423 2.229764 10.768719 116.535423 1.732283 8.267716 116.535423 2.229764 5.766715 116.535423 3.646467 3.646467 116.535423 5.766714 2.229764 116.535423 5.480455 1.538673 111.548553 8.267716 0.984252 111.548553 8.267716 0.328084 98.425194 11.306083 0.932453 98.425194 11.431634 0.629342 78.740158 16.535433 8.267716 78.740158 15.906091 11.431635 78.740158 15.906091 5.103798 78.740158 14.113874 2.421558 78.740158 14.113874 14.113874 78.740158 11.431634 0.629342 78.740158 11.431634 15.906091 78.740158 8.267716 16.535433 78.740158 8.267716 0.000000 78.740158 5.103798 15.906091 78.740158 5.103798 0.629342 78.740158 2.421558 14.113874 78.740158 2.421558 2.421558 78.740158 0.629342 5.103798 78.740158 0.629342 11.431635 78.740158 0.000000 8.267716 78.740158 10.768719 14.305669 116.535423 11.054977 14.996759 111.548553 13.881885 13.881885 98.425194 13.417903 13.417903 111.548553 15.602980 11.306083 98.425194 15.906091 11.431635 78.740158 8.267716 14.803149 116.535423 8.267716 15.551181 111.548553 5.766715 14.305669 116.535423 5.480455 14.996759 111.548553 3.646467 12.888966 116.535423 3.117529 13.417903 111.548553 1.538673 11.054977 111.548553 2.229764 10.768719 116.535423 0.984252 8.267716 111.548553 1.732283 8.267716 116.535423 2.229764 5.766715 116.535423 1.538673 5.480455 111.548553 3.646467 3.646467 116.535423 3.117529 3.117529 111.548553 5.480455 1.538673 111.548553 5.229351 0.932453 98.425194 8.267716 0.328084 98.425194 8.267716 0.000000 78.740158 5.229351 0.932453 98.425194 5.103798 0.629342 78.740158 2.653549 2.653549 98.425194 2.421558 2.421558 78.740158 0.932453 5.229351 98.425194 0.629342 5.103798 78.740158 0.328084 8.267716 98.425194 0.000000 8.267716 78.740158 0.629342 11.431635 78.740158 0.932453 11.306083 98.425194 2.421558 14.113874 78.740158 2.653549 13.881885 98.425194 5.229351 15.602980 98.425194 5.103798 15.906091 78.740158 8.267716 16.207350 98.425194 8.267716 16.535433 78.740158 11.306083 15.602980 98.425194 11.431634 15.906091 78.740158 13.881885 13.881885 98.425194 14.113874 14.113874 78.740158 11.054977 14.996759 111.548553 11.306083 15.602980 98.425194 8.267716 15.551181 111.548553 8.267716 16.207350 98.425194 5.480455 14.996759 111.548553 5.229351 15.602980 98.425194 3.117529 13.417903 111.548553 2.653549 13.881885 98.425194 0.932453 11.306083 98.425194 1.538673 11.054977 111.548553 0.328084 8.267716 98.425194 0.984252 8.267716 111.548553 1.538673 5.480455 111.548553 0.932453 5.229351 98.425194 3.117529 3.117529 111.548553 2.653549 2.653549 98.425194 "
								            />
							</IndexedFaceSet>
						</Shape>
					</Group>
				</Transform>
			</Transform>
			<Transform DEF="group_5_TRANSFORM"
			           translation="-55.711494 497.893524 65.527596"
			           scale="1.000000 1.000000 1.000000"
			           rotation="0.000000 1.000000 0.000000 0.000000"
			           >
				<Transform DEF="group_6_TRANSFORM"
				           translation="0.000000 0.000061 39.515533"
				           scale="1.000000 1.000000 1.000000"
				           rotation="0.000000 1.000000 0.000000 0.000000"
				           >
					<Transform DEF="group_6_ifs_TRANSFORM"
					           translation="0.000000 0.000061 0.000015"
					           scale="1.000000 1.000000 1.000000"
					           rotation="0.000000 1.000000 0.000000 0.000000"
					           >
						<Group DEF="group_ME_ID41_002">
							<Shape>
								<Appearance>
									<Material USE="MA_material_011" />
								</Appearance>
								<IndexedFaceSet solid="false"
								                coordIndex="0 1 2 -1 1 0 3 -1 4 5 6 -1 5 4 7 -1 7 4 8 -1 9 10 11 -1 10 9 12 -1 12 9 13 -1 12 13 14 -1 14 13 15 -1 16 17 18 -1 17 16 19 -1 20 21 22 -1 21 20 23 -1 21 23 24 -1 24 23 25 -1 24 25 26 -1 27 28 29 -1 28 27 30 -1 31 32 33 -1 32 31 34 -1 35 36 37 -1 36 35 38 -1 38 35 39 -1 40 41 42 -1 41 40 43 -1 44 45 46 -1 45 44 47 -1 "
								                >
									<Coordinate DEF="coords_ME_ID41_002"
									            point="7.072235 2.061242 56.059750 0.000000 5.010993 51.381863 5.010993 0.000000 51.381863 2.061242 7.072235 56.059750 29.864397 34.875389 25.063250 5.010993 0.000000 51.381863 0.000000 5.010993 51.381863 34.875389 29.864397 25.063250 30.142786 34.597000 25.063250 34.875389 29.864397 25.063250 7.072235 2.061242 56.059750 5.010993 0.000000 51.381863 36.507027 31.496033 30.119732 36.873131 31.862137 23.773977 79.940842 74.929848 0.366637 79.839409 74.828415 0.000000 7.072235 2.061242 56.059750 31.496035 36.507027 30.119732 2.061242 7.072235 56.059750 36.507027 31.496033 30.119732 2.061242 7.072235 56.059750 29.864397 34.875389 25.063250 0.000000 5.010993 51.381863 31.496035 36.507027 30.119732 31.862137 36.873131 23.773977 74.929848 79.940842 0.366637 74.828415 79.839409 0.000000 31.862137 36.873131 23.773977 30.142786 34.597000 25.063250 29.864397 34.875389 25.063250 32.140526 36.594742 23.773977 32.140526 36.594742 23.773977 34.875389 29.864397 25.063250 30.142786 34.597000 25.063250 36.873131 31.862137 23.773977 74.828415 79.839409 0.000000 32.140526 36.594742 23.773977 31.862137 36.873131 23.773977 36.873131 31.862137 23.773977 79.839409 74.828415 0.000000 74.828415 79.839409 0.000000 79.940842 74.929848 0.366637 79.839409 74.828415 0.000000 74.929848 79.940842 0.366637 36.507027 31.496033 30.119732 74.929848 79.940842 0.366637 31.496035 36.507027 30.119732 79.940842 74.929848 0.366637 "
									            />
								</IndexedFaceSet>
							</Shape>
						</Group>
					</Transform>
				</Transform>
				<Transform DEF="group_6_001_TRANSFORM"
				           translation="0.000000 0.000061 39.515533"
				           scale="1.000000 1.000000 1.000000"
				           rotation="0.000000 1.000000 0.000000 0.000000"
				           >
					<Transform DEF="group_6_001_ifs_TRANSFORM"
					           translation="0.000000 0.000061 0.000015"
					           scale="1.000000 1.000000 1.000000"
					           rotation="0.000000 1.000000 0.000000 0.000000"
					           >
						<Group DEF="group_ME_ID47_002">
						</Group>
					</Transform>
				</Transform>
				<Transform DEF="group_7_TRANSFORM"
				           translation="2.339630 2.339661 39.882172"
				           scale="1.000000 1.000000 1.000000"
				           rotation="0.000000 1.000000 0.000000 0.000000"
				           >
					<Transform DEF="group_7_ifs_TRANSFORM"
					           translation="-0.000008 0.000061 0.000008"
					           scale="1.000000 1.000000 1.000000"
					           rotation="0.000000 1.000000 0.000000 0.000000"
					           >
						<Group DEF="group_ME_ID54_001">
							<Shape>
								<Appearance>
									<Material USE="MA_material_011" />
								</Appearance>
								<IndexedFaceSet solid="false"
								                coordIndex="0 1 2 -1 1 0 3 -1 1 3 4 -1 4 3 5 -1 6 7 8 -1 7 6 9 -1 10 11 12 -1 11 10 13 -1 14 15 16 -1 15 14 17 -1 18 19 20 -1 19 18 21 -1 22 23 24 -1 23 22 25 -1 26 27 28 -1 27 26 29 -1 30 31 32 -1 31 30 33 -1 33 30 34 -1 33 34 35 -1 "
								                >
									<Coordinate DEF="coords_ME_ID54_001"
									            point="0.441695 4.895911 56.695515 29.434793 33.889008 29.753096 0.000000 4.454216 55.693111 29.838818 34.293030 30.788698 72.868607 77.322823 0.000000 73.232681 77.686897 1.062967 4.454216 0.000000 55.693108 0.441695 4.895911 56.695515 0.000000 4.454216 55.693111 4.895911 0.441695 56.695515 4.895911 0.441695 56.695515 29.838818 34.293030 30.788698 0.441695 4.895911 56.695515 34.293030 29.838818 30.788698 34.293030 29.838818 30.788698 73.232681 77.686897 1.062967 29.838818 34.293030 30.788698 77.686897 73.232681 1.062967 73.232681 77.686897 1.062967 77.322823 72.868607 0.000000 72.868607 77.322823 0.000000 77.686897 73.232681 1.062967 72.868607 77.322823 0.000000 33.889008 29.434793 29.753096 29.434793 33.889008 29.753096 77.322823 72.868607 0.000000 29.434793 33.889008 29.753096 4.454216 0.000000 55.693108 0.000000 4.454216 55.693111 33.889008 29.434793 29.753096 33.889008 29.434793 29.753096 4.895911 0.441695 56.695515 4.454216 0.000000 55.693108 34.293030 29.838818 30.788698 77.322823 72.868607 0.000000 77.686897 73.232681 1.062967 "
									            />
								</IndexedFaceSet>
							</Shape>
						</Group>
					</Transform>
				</Transform>
				<Transform DEF="group_8_TRANSFORM"
				           translation="42.103745 47.671539 45.631279"
				           scale="1.000000 1.000000 1.000000"
				           rotation="-0.408526 0.169217 -0.896923 0.865273"
				           >
					<Transform DEF="group_9_TRANSFORM"
					           translation="7.873997 61.850334 -0.000022"
					           scale="1.000000 1.000000 1.000000"
					           rotation="0.000000 -1.000000 0.000000 1.570796"
					           >
						<Transform DEF="group_9_ifs_TRANSFORM"
						           translation="0.000026 -0.000006 0.000001"
						           scale="1.000000 1.000000 1.000000"
						           rotation="0.000000 0.000000 0.000000 0.000000"
						           >
							<Group DEF="group_ME_ID62_002">
								<Shape>
									<Appearance>
										<Material USE="MA_material_011" />
									</Appearance>
									<IndexedFaceSet solid="false"
									                coordIndex="0 1 2 -1 1 0 3 -1 1 3 4 -1 4 3 5 -1 6 7 8 -1 7 6 9 -1 7 9 10 -1 10 9 11 -1 10 11 12 -1 12 11 13 -1 12 13 5 -1 12 5 3 -1 12 3 14 -1 12 14 15 -1 15 14 16 -1 16 14 17 -1 17 14 18 -1 17 18 19 -1 19 18 20 -1 20 18 21 -1 21 18 22 -1 22 18 23 -1 23 18 24 -1 24 18 25 -1 25 18 26 -1 25 26 27 -1 27 26 28 -1 28 29 30 -1 29 28 26 -1 29 26 31 -1 19 32 17 -1 12 33 34 -1 33 12 35 -1 35 12 15 -1 36 37 38 -1 37 36 39 -1 40 41 42 -1 41 40 43 -1 44 40 42 -1 40 44 45 -1 46 45 44 -1 45 46 47 -1 48 46 49 -1 46 48 47 -1 50 48 49 -1 48 50 51 -1 52 53 54 -1 53 52 55 -1 56 57 58 -1 57 56 59 -1 60 61 62 -1 61 60 63 -1 64 62 65 -1 62 64 60 -1 66 64 65 -1 64 66 67 -1 68 66 69 -1 66 68 67 -1 70 68 69 -1 68 70 71 -1 72 73 74 -1 73 72 75 -1 76 77 78 -1 77 76 79 -1 80 78 81 -1 78 80 76 -1 82 81 83 -1 81 82 80 -1 84 83 85 -1 83 84 82 -1 86 85 87 -1 85 86 84 -1 88 89 90 -1 89 88 91 -1 92 88 90 -1 88 92 93 -1 94 92 95 -1 92 94 93 -1 96 97 98 -1 97 96 99 -1 100 98 101 -1 98 100 96 -1 102 101 103 -1 101 102 100 -1 104 105 106 -1 105 104 107 -1 108 106 109 -1 106 108 104 -1 110 109 111 -1 109 110 108 -1 112 111 113 -1 111 112 110 -1 114 113 115 -1 113 114 112 -1 116 117 118 -1 117 116 119 -1 120 118 121 -1 118 120 116 -1 122 123 124 -1 123 122 125 -1 126 124 127 -1 124 126 122 -1 128 126 127 -1 126 128 129 -1 130 129 128 -1 129 130 131 -1 132 133 134 -1 133 132 135 -1 133 135 136 -1 137 138 139 -1 140 141 142 -1 141 140 143 -1 143 140 144 -1 145 146 147 -1 146 145 148 -1 148 145 149 -1 148 149 150 -1 150 149 133 -1 150 133 151 -1 151 133 152 -1 152 133 153 -1 153 133 154 -1 154 133 136 -1 154 136 155 -1 154 155 138 -1 154 138 156 -1 156 138 137 -1 156 137 157 -1 156 157 158 -1 156 158 159 -1 156 159 160 -1 156 160 161 -1 156 161 162 -1 156 162 143 -1 143 162 163 -1 143 163 141 -1 164 165 166 -1 165 164 153 -1 153 164 167 -1 153 167 152 -1 "
									                >
										<Coordinate DEF="coords_ME_ID62_002"
										            point="0.000000 -85.249382 7.874016 0.522728 59.912071 7.874016 0.000000 59.921257 7.874016 1.383251 -87.970825 7.874016 0.969853 60.183006 7.874016 1.203660 60.650616 7.874016 0.510158 61.996220 7.874016 0.692439 62.984093 7.874016 0.458632 62.516479 7.874016 0.831146 61.583549 7.874016 1.139565 63.255035 7.874016 1.152135 61.170883 7.874016 1.662292 63.245846 7.874016 1.160920 61.082180 7.874016 3.985407 -89.567200 7.874016 1.805764 66.537270 7.874016 3.135924 66.595245 7.874016 4.155731 65.739281 7.874016 7.038215 -89.567200 7.874016 4.417478 66.709137 7.874016 4.885091 66.942940 7.874016 5.405355 66.891411 7.874016 5.818023 66.570427 7.874016 6.233596 66.154854 7.874016 6.707139 65.965126 7.874016 7.206886 66.067566 7.874016 9.640370 -87.970825 7.874016 7.567607 66.428284 7.874016 7.670039 66.928032 7.874016 11.023622 67.401573 7.874016 7.480315 67.401573 7.874016 11.023622 -85.249382 7.874016 4.146541 66.262009 7.874016 0.864306 65.595810 7.874016 0.806325 64.265648 7.874016 1.335035 66.066536 7.874016 0.000000 -85.249382 7.874016 -0.000000 59.921257 0.000000 0.000000 -85.249382 0.000000 0.000000 59.921257 7.874016 1.383251 -87.970825 7.874016 0.000000 -85.249382 0.000000 1.383251 -87.970825 0.000000 0.000000 -85.249382 7.874016 3.985407 -89.567200 0.000000 3.985407 -89.567200 7.874016 7.038215 -89.567200 0.000000 7.038215 -89.567200 7.874016 9.640370 -87.970825 7.874016 9.640371 -87.970825 0.000000 11.023623 -85.249382 0.000000 11.023622 -85.249382 7.874016 11.023622 67.401573 -0.000000 11.023622 -85.249382 7.874016 11.023623 -85.249382 0.000000 11.023622 67.401573 7.874016 7.480315 67.401573 7.874016 11.023622 67.401573 -0.000000 7.480315 67.401573 -0.000000 11.023622 67.401573 7.874016 7.670039 66.928032 7.874016 7.480315 67.401573 -0.000000 7.670039 66.928032 -0.000000 7.480315 67.401573 7.874016 7.567607 66.428284 7.874016 7.567607 66.428284 -0.000000 7.206886 66.067566 -0.000000 7.206886 66.067566 7.874016 6.707139 65.965126 7.874016 6.707139 65.965126 -0.000000 6.233596 66.154854 -0.000000 6.233596 66.154854 7.874016 5.818023 66.570427 -0.000000 6.233596 66.154854 7.874016 6.233596 66.154854 -0.000000 5.818023 66.570427 7.874016 5.405355 66.891411 7.874016 5.818023 66.570427 -0.000000 5.405355 66.891411 -0.000000 5.818023 66.570427 7.874016 4.885091 66.942940 7.874016 4.885091 66.942940 -0.000000 4.417478 66.709137 7.874016 4.417478 66.709137 -0.000000 4.146541 66.262009 7.874016 4.146541 66.262009 -0.000000 4.155731 65.739281 7.874016 4.155731 65.739281 -0.000000 3.135924 66.595245 7.874016 4.155731 65.739281 -0.000000 3.135924 66.595245 -0.000000 4.155731 65.739281 7.874016 1.805764 66.537270 -0.000000 1.805764 66.537270 7.874016 1.335035 66.066536 7.874016 1.335035 66.066536 -0.000000 0.864306 65.595810 7.874016 1.335035 66.066536 -0.000000 0.864306 65.595810 -0.000000 1.335035 66.066536 7.874016 0.806325 64.265648 7.874016 0.806325 64.265648 -0.000000 1.662292 63.245846 7.874016 1.662292 63.245846 -0.000000 1.139565 63.255035 7.874016 1.662292 63.245846 -0.000000 1.139565 63.255032 -0.000000 1.662292 63.245846 7.874016 0.692439 62.984093 7.874016 0.692439 62.984093 -0.000000 0.458632 62.516479 7.874016 0.458632 62.516479 -0.000000 0.510158 61.996220 7.874016 0.510158 61.996220 -0.000000 0.831146 61.583549 7.874016 0.831146 61.583549 0.000000 1.152135 61.170883 7.874016 0.831146 61.583549 0.000000 1.152135 61.170883 -0.000000 0.831146 61.583549 7.874016 1.160920 61.082180 7.874016 1.160920 61.082180 0.000000 1.203660 60.650616 7.874016 1.160920 61.082180 0.000000 1.203660 60.650616 -0.000000 1.160920 61.082180 7.874016 0.969853 60.183006 7.874016 0.969853 60.183006 -0.000000 0.522728 59.912071 0.000000 0.522728 59.912071 7.874016 -0.000000 59.921257 0.000000 0.000000 59.921257 7.874016 0.864306 65.595810 -0.000000 1.662292 63.245846 -0.000000 0.806325 64.265648 -0.000000 1.335035 66.066536 -0.000000 1.805764 66.537270 -0.000000 4.417478 66.709137 -0.000000 4.155731 65.739281 -0.000000 4.146541 66.262009 -0.000000 11.023622 67.401573 -0.000000 7.670039 66.928032 -0.000000 7.480315 67.401573 -0.000000 9.640371 -87.970825 0.000000 11.023623 -85.249382 0.000000 0.692439 62.984093 -0.000000 0.510158 61.996220 -0.000000 0.458632 62.516479 -0.000000 0.831146 61.583549 0.000000 1.139565 63.255032 -0.000000 1.152135 61.170883 -0.000000 1.160920 61.082180 0.000000 1.203660 60.650616 -0.000000 1.383251 -87.970825 0.000000 3.985407 -89.567200 0.000000 3.135924 66.595245 -0.000000 7.038215 -89.567200 0.000000 4.885091 66.942940 -0.000000 5.405355 66.891411 -0.000000 5.818023 66.570427 -0.000000 6.233596 66.154854 -0.000000 6.707139 65.965126 -0.000000 7.206886 66.067566 -0.000000 7.567607 66.428284 -0.000000 0.522728 59.912071 0.000000 0.000000 -85.249382 0.000000 -0.000000 59.921257 0.000000 0.969853 60.183006 -0.000000 "
										            />
									</IndexedFaceSet>
								</Shape>
							</Group>
						</Transform>
					</Transform>
					<Transform DEF="group_10_TRANSFORM"
					           translation="0.393683 41.633816 11.023610"
					           scale="1.000000 1.000000 1.000000"
					           rotation="0.000000 -0.000000 0.000000 0.000000"
					           >
						<Transform DEF="group_10_ifs_TRANSFORM"
						           translation="0.000007 -0.000005 0.000005"
						           scale="1.000000 1.000000 1.000000"
						           rotation="0.000000 -0.000000 0.000000 0.000000"
						           >
							<Group DEF="group_ME_ID69_001">
								<Shape>
									<Appearance>
										<Material USE="MA_material_011" />
									</Appearance>
									<IndexedFaceSet solid="false"
									                coordIndex="0 1 2 -1 2 3 4 -1 3 2 1 -1 5 6 7 -1 6 5 8 -1 8 5 9 -1 8 9 10 -1 8 10 11 -1 12 13 14 -1 13 12 15 -1 16 17 18 -1 17 16 19 -1 17 19 20 -1 17 20 21 -1 17 21 22 -1 22 21 23 -1 24 25 26 -1 25 24 27 -1 28 29 30 -1 29 28 31 -1 32 33 34 -1 33 32 35 -1 36 37 38 -1 37 36 39 -1 40 41 42 -1 41 40 43 -1 "
									                >
										<Coordinate DEF="coords_ME_ID69_001"
										            point="7.086615 87.618111 0.000000 7.086614 22.992125 0.000000 0.000000 87.618111 0.000000 7.086615 3.326174 0.000000 0.000000 3.326174 0.000000 0.000000 3.326174 1.574803 0.000000 3.326174 0.000000 0.000000 3.326174 0.393701 0.000000 87.618111 0.000000 0.000000 85.661942 5.777483 0.000000 112.386658 11.435068 0.000000 113.208664 8.853180 0.000000 113.208664 8.853180 7.086615 87.618111 0.000000 0.000000 87.618111 0.000000 7.086615 113.208664 8.853180 7.086615 3.326174 0.393701 7.086615 85.661942 5.777483 7.086615 3.326174 1.574803 7.086615 3.326174 0.000000 7.086614 22.992125 0.000000 7.086615 87.618111 0.000000 7.086614 112.386658 11.435068 7.086615 113.208664 8.853180 7.086615 3.326174 0.393701 0.000000 3.326174 0.000000 7.086615 3.326174 0.000000 0.000000 3.326174 0.393701 7.086615 3.326174 1.574803 0.000000 85.661942 5.777483 0.000000 3.326174 1.574803 7.086615 85.661942 5.777483 0.000000 85.661942 5.777483 7.086614 112.386658 11.435068 0.000000 112.386658 11.435068 7.086615 85.661942 5.777483 0.000000 113.208664 8.853180 7.086614 112.386658 11.435068 7.086615 113.208664 8.853180 0.000000 112.386658 11.435068 7.086615 3.326174 1.574803 0.000000 3.326174 0.393701 7.086615 3.326174 0.393701 0.000000 3.326174 1.574803 "
										            />
									</IndexedFaceSet>
								</Shape>
							</Group>
						</Transform>
					</Transform>
				</Transform>
			</Transform>
			<Transform DEF="group_11_TRANSFORM"
			           translation="-75.414574 452.771271 -20.737404"
			           scale="1.000000 1.000000 1.000000"
			           rotation="0.000000 -1.000000 0.000000 1.570796"
			           >
				<Transform DEF="group_12_TRANSFORM"
				           translation="51.449612 45.246246 0.000002"
				           scale="1.000000 1.000000 1.000000"
				           rotation="0.000000 0.000000 0.000000 0.000000"
				           >
					<Transform DEF="group_6_002_TRANSFORM"
					           translation="0.000003 0.000092 39.515530"
					           scale="1.000000 1.000000 1.000000"
					           rotation="0.000000 0.000000 0.000000 0.000000"
					           >
						<Transform DEF="group_6_002_ifs_TRANSFORM"
						           translation="0.000003 0.000092 0.000010"
						           scale="1.000000 1.000000 1.000000"
						           rotation="0.000000 0.000000 0.000000 0.000000"
						           >
							<Group DEF="group_ME_ID78_002">
								<Shape>
									<Appearance>
										<Material USE="MA_material_011" />
									</Appearance>
									<IndexedFaceSet solid="false"
									                coordIndex="0 1 2 -1 1 0 3 -1 4 5 6 -1 5 4 7 -1 7 4 8 -1 9 10 11 -1 10 9 12 -1 12 9 13 -1 12 13 14 -1 14 13 15 -1 16 17 18 -1 17 16 19 -1 20 21 22 -1 21 20 23 -1 21 23 24 -1 24 23 25 -1 24 25 26 -1 27 28 29 -1 28 27 30 -1 31 32 33 -1 32 31 34 -1 35 36 37 -1 36 35 38 -1 38 35 39 -1 40 41 42 -1 41 40 43 -1 44 45 46 -1 45 44 47 -1 "
									                >
										<Coordinate DEF="coords_ME_ID78_002"
										            point="7.072235 2.061242 56.059750 0.000000 5.010993 51.381863 5.010993 0.000000 51.381863 2.061242 7.072235 56.059750 29.864397 34.875389 25.063250 5.010993 0.000000 51.381863 0.000000 5.010993 51.381863 34.875389 29.864397 25.063250 30.142786 34.597000 25.063250 34.875389 29.864397 25.063250 7.072235 2.061242 56.059750 5.010993 0.000000 51.381863 36.507027 31.496033 30.119732 36.873131 31.862137 23.773977 79.940842 74.929848 0.366637 79.839409 74.828415 0.000000 7.072235 2.061242 56.059750 31.496035 36.507027 30.119732 2.061242 7.072235 56.059750 36.507027 31.496033 30.119732 2.061242 7.072235 56.059750 29.864397 34.875389 25.063250 0.000000 5.010993 51.381863 31.496035 36.507027 30.119732 31.862137 36.873131 23.773977 74.929848 79.940842 0.366637 74.828415 79.839409 0.000000 31.862137 36.873131 23.773977 30.142786 34.597000 25.063250 29.864397 34.875389 25.063250 32.140526 36.594742 23.773977 32.140526 36.594742 23.773977 34.875389 29.864397 25.063250 30.142786 34.597000 25.063250 36.873131 31.862137 23.773977 74.828415 79.839409 0.000000 32.140526 36.594742 23.773977 31.862137 36.873131 23.773977 36.873131 31.862137 23.773977 79.839409 74.828415 0.000000 74.828415 79.839409 0.000000 79.940842 74.929848 0.366637 79.839409 74.828415 0.000000 74.929848 79.940842 0.366637 36.507027 31.496033 30.119732 74.929848 79.940842 0.366637 31.496035 36.507027 30.119732 79.940842 74.929848 0.366637 "
										            />
									</IndexedFaceSet>
								</Shape>
							</Group>
						</Transform>
					</Transform>
					<Transform DEF="group_6_003_TRANSFORM"
					           translation="0.000003 0.000092 39.515530"
					           scale="1.000000 1.000000 1.000000"
					           rotation="0.000000 0.000000 0.000000 0.000000"
					           >
						<Transform DEF="group_6_003_ifs_TRANSFORM"
						           translation="0.000003 0.000092 0.000010"
						           scale="1.000000 1.000000 1.000000"
						           rotation="0.000000 0.000000 0.000000 0.000000"
						           >
							<Group DEF="group_ME_ID84_003">
							</Group>
						</Transform>
					</Transform>
					<Transform DEF="group_7_001_TRANSFORM"
					           translation="2.339633 2.339722 39.882168"
					           scale="1.000000 1.000000 1.000000"
					           rotation="0.000000 0.000000 0.000000 0.000000"
					           >
						<Transform DEF="group_7_001_ifs_TRANSFORM"
						           translation="0.000003 0.000031 0.000018"
						           scale="1.000000 1.000000 1.000000"
						           rotation="0.000000 0.000000 0.000000 0.000000"
						           >
							<Group DEF="group_ME_ID89_001">
								<Shape>
									<Appearance>
										<Material USE="MA_material_011" />
									</Appearance>
									<IndexedFaceSet solid="false"
									                coordIndex="0 1 2 -1 1 0 3 -1 1 3 4 -1 4 3 5 -1 6 7 8 -1 7 6 9 -1 10 11 12 -1 11 10 13 -1 14 15 16 -1 15 14 17 -1 18 19 20 -1 19 18 21 -1 22 23 24 -1 23 22 25 -1 26 27 28 -1 27 26 29 -1 30 31 32 -1 31 30 33 -1 33 30 34 -1 33 34 35 -1 "
									                >
										<Coordinate DEF="coords_ME_ID89_001"
										            point="0.441695 4.895911 56.695515 29.434793 33.889008 29.753096 0.000000 4.454216 55.693111 29.838818 34.293030 30.788698 72.868607 77.322823 0.000000 73.232681 77.686897 1.062967 4.454216 0.000000 55.693108 0.441695 4.895911 56.695515 0.000000 4.454216 55.693111 4.895911 0.441695 56.695515 4.895911 0.441695 56.695515 29.838818 34.293030 30.788698 0.441695 4.895911 56.695515 34.293030 29.838818 30.788698 34.293030 29.838818 30.788698 73.232681 77.686897 1.062967 29.838818 34.293030 30.788698 77.686897 73.232681 1.062967 73.232681 77.686897 1.062967 77.322823 72.868607 0.000000 72.868607 77.322823 0.000000 77.686897 73.232681 1.062967 72.868607 77.322823 0.000000 33.889008 29.434793 29.753096 29.434793 33.889008 29.753096 77.322823 72.868607 0.000000 29.434793 33.889008 29.753096 4.454216 0.000000 55.693108 0.000000 4.454216 55.693111 33.889008 29.434793 29.753096 33.889008 29.434793 29.753096 4.895911 0.441695 56.695515 4.454216 0.000000 55.693108 34.293030 29.838818 30.788698 77.322823 72.868607 0.000000 77.686897 73.232681 1.062967 "
										            />
									</IndexedFaceSet>
								</Shape>
							</Group>
						</Transform>
					</Transform>
					<Transform DEF="group_8_001_TRANSFORM"
					           translation="42.103748 47.671600 45.631275"
					           scale="1.000000 1.000000 1.000000"
					           rotation="-0.408526 0.169217 -0.896923 0.865273"
					           >
						<Transform DEF="group_9_001_TRANSFORM"
						           translation="7.874025 61.850399 -0.000015"
						           scale="1.000000 1.000000 1.000000"
						           rotation="0.000000 -1.000000 0.000000 1.570796"
						           >
							<Transform DEF="group_9_001_ifs_TRANSFORM"
							           translation="-0.000006 -0.000011 0.000005"
							           scale="1.000000 1.000000 1.000000"
							           rotation="-0.000000 -0.000000 -0.000000 0.000000"
							           >
								<Group DEF="group_ME_ID97_001">
									<Shape>
										<Appearance>
											<Material USE="MA_material_011" />
										</Appearance>
										<IndexedFaceSet solid="false"
										                coordIndex="0 1 2 -1 1 0 3 -1 1 3 4 -1 4 3 5 -1 6 7 8 -1 7 6 9 -1 7 9 10 -1 10 9 11 -1 10 11 12 -1 12 11 13 -1 12 13 5 -1 12 5 3 -1 12 3 14 -1 12 14 15 -1 15 14 16 -1 16 14 17 -1 17 14 18 -1 17 18 19 -1 19 18 20 -1 20 18 21 -1 21 18 22 -1 22 18 23 -1 23 18 24 -1 24 18 25 -1 25 18 26 -1 25 26 27 -1 27 26 28 -1 28 29 30 -1 29 28 26 -1 29 26 31 -1 19 32 17 -1 12 33 34 -1 33 12 35 -1 35 12 15 -1 36 37 38 -1 37 36 39 -1 40 41 42 -1 41 40 43 -1 44 40 42 -1 40 44 45 -1 46 45 44 -1 45 46 47 -1 48 46 49 -1 46 48 47 -1 50 48 49 -1 48 50 51 -1 52 53 54 -1 53 52 55 -1 56 57 58 -1 57 56 59 -1 60 61 62 -1 61 60 63 -1 64 62 65 -1 62 64 60 -1 66 64 65 -1 64 66 67 -1 68 66 69 -1 66 68 67 -1 70 68 69 -1 68 70 71 -1 72 73 74 -1 73 72 75 -1 76 77 78 -1 77 76 79 -1 80 78 81 -1 78 80 76 -1 82 81 83 -1 81 82 80 -1 84 83 85 -1 83 84 82 -1 86 85 87 -1 85 86 84 -1 88 89 90 -1 89 88 91 -1 92 88 90 -1 88 92 93 -1 94 92 95 -1 92 94 93 -1 96 97 98 -1 97 96 99 -1 100 98 101 -1 98 100 96 -1 102 101 103 -1 101 102 100 -1 104 105 106 -1 105 104 107 -1 108 106 109 -1 106 108 104 -1 110 109 111 -1 109 110 108 -1 112 111 113 -1 111 112 110 -1 114 113 115 -1 113 114 112 -1 116 117 118 -1 117 116 119 -1 120 118 121 -1 118 120 116 -1 122 123 124 -1 123 122 125 -1 126 124 127 -1 124 126 122 -1 128 126 127 -1 126 128 129 -1 130 129 128 -1 129 130 131 -1 132 133 134 -1 133 132 135 -1 133 135 136 -1 137 138 139 -1 140 141 142 -1 141 140 143 -1 143 140 144 -1 145 146 147 -1 146 145 148 -1 148 145 149 -1 148 149 150 -1 150 149 133 -1 150 133 151 -1 151 133 152 -1 152 133 153 -1 153 133 154 -1 154 133 136 -1 154 136 155 -1 154 155 138 -1 154 138 156 -1 156 138 137 -1 156 137 157 -1 156 157 158 -1 156 158 159 -1 156 159 160 -1 156 160 161 -1 156 161 162 -1 156 162 143 -1 143 162 163 -1 143 163 141 -1 164 165 166 -1 165 164 153 -1 153 164 167 -1 153 167 152 -1 "
										                >
											<Coordinate DEF="coords_ME_ID97_001"
											            point="0.000000 -85.249382 7.874016 0.522728 59.912071 7.874016 0.000000 59.921257 7.874016 1.383251 -87.970825 7.874016 0.969853 60.183006 7.874016 1.203660 60.650616 7.874016 0.510158 61.996220 7.874016 0.692439 62.984093 7.874016 0.458632 62.516479 7.874016 0.831146 61.583549 7.874016 1.139565 63.255035 7.874016 1.152135 61.170883 7.874016 1.662292 63.245846 7.874016 1.160920 61.082180 7.874016 3.985407 -89.567200 7.874016 1.805764 66.537270 7.874016 3.135924 66.595245 7.874016 4.155731 65.739281 7.874016 7.038215 -89.567200 7.874016 4.417478 66.709137 7.874016 4.885091 66.942940 7.874016 5.405355 66.891411 7.874016 5.818023 66.570427 7.874016 6.233596 66.154854 7.874016 6.707139 65.965126 7.874016 7.206886 66.067566 7.874016 9.640370 -87.970825 7.874016 7.567607 66.428284 7.874016 7.670039 66.928032 7.874016 11.023622 67.401573 7.874016 7.480315 67.401573 7.874016 11.023622 -85.249382 7.874016 4.146541 66.262009 7.874016 0.864306 65.595810 7.874016 0.806325 64.265648 7.874016 1.335035 66.066536 7.874016 0.000000 -85.249382 7.874016 -0.000000 59.921257 0.000000 0.000000 -85.249382 0.000000 0.000000 59.921257 7.874016 1.383251 -87.970825 7.874016 0.000000 -85.249382 0.000000 1.383251 -87.970825 0.000000 0.000000 -85.249382 7.874016 3.985407 -89.567200 0.000000 3.985407 -89.567200 7.874016 7.038215 -89.567200 0.000000 7.038215 -89.567200 7.874016 9.640370 -87.970825 7.874016 9.640371 -87.970825 0.000000 11.023623 -85.249382 0.000000 11.023622 -85.249382 7.874016 11.023622 67.401573 -0.000000 11.023622 -85.249382 7.874016 11.023623 -85.249382 0.000000 11.023622 67.401573 7.874016 7.480315 67.401573 7.874016 11.023622 67.401573 -0.000000 7.480315 67.401573 -0.000000 11.023622 67.401573 7.874016 7.670039 66.928032 7.874016 7.480315 67.401573 -0.000000 7.670039 66.928032 -0.000000 7.480315 67.401573 7.874016 7.567607 66.428284 7.874016 7.567607 66.428284 -0.000000 7.206886 66.067566 -0.000000 7.206886 66.067566 7.874016 6.707139 65.965126 7.874016 6.707139 65.965126 -0.000000 6.233596 66.154854 -0.000000 6.233596 66.154854 7.874016 5.818023 66.570427 -0.000000 6.233596 66.154854 7.874016 6.233596 66.154854 -0.000000 5.818023 66.570427 7.874016 5.405355 66.891411 7.874016 5.818023 66.570427 -0.000000 5.405355 66.891411 -0.000000 5.818023 66.570427 7.874016 4.885091 66.942940 7.874016 4.885091 66.942940 -0.000000 4.417478 66.709137 7.874016 4.417478 66.709137 -0.000000 4.146541 66.262009 7.874016 4.146541 66.262009 -0.000000 4.155731 65.739281 7.874016 4.155731 65.739281 -0.000000 3.135924 66.595245 7.874016 4.155731 65.739281 -0.000000 3.135924 66.595245 -0.000000 4.155731 65.739281 7.874016 1.805764 66.537270 -0.000000 1.805764 66.537270 7.874016 1.335035 66.066536 7.874016 1.335035 66.066536 -0.000000 0.864306 65.595810 7.874016 1.335035 66.066536 -0.000000 0.864306 65.595810 -0.000000 1.335035 66.066536 7.874016 0.806325 64.265648 7.874016 0.806325 64.265648 -0.000000 1.662292 63.245846 7.874016 1.662292 63.245846 -0.000000 1.139565 63.255035 7.874016 1.662292 63.245846 -0.000000 1.139565 63.255032 -0.000000 1.662292 63.245846 7.874016 0.692439 62.984093 7.874016 0.692439 62.984093 -0.000000 0.458632 62.516479 7.874016 0.458632 62.516479 -0.000000 0.510158 61.996220 7.874016 0.510158 61.996220 -0.000000 0.831146 61.583549 7.874016 0.831146 61.583549 0.000000 1.152135 61.170883 7.874016 0.831146 61.583549 0.000000 1.152135 61.170883 -0.000000 0.831146 61.583549 7.874016 1.160920 61.082180 7.874016 1.160920 61.082180 0.000000 1.203660 60.650616 7.874016 1.160920 61.082180 0.000000 1.203660 60.650616 -0.000000 1.160920 61.082180 7.874016 0.969853 60.183006 7.874016 0.969853 60.183006 -0.000000 0.522728 59.912071 0.000000 0.522728 59.912071 7.874016 -0.000000 59.921257 0.000000 0.000000 59.921257 7.874016 0.864306 65.595810 -0.000000 1.662292 63.245846 -0.000000 0.806325 64.265648 -0.000000 1.335035 66.066536 -0.000000 1.805764 66.537270 -0.000000 4.417478 66.709137 -0.000000 4.155731 65.739281 -0.000000 4.146541 66.262009 -0.000000 11.023622 67.401573 -0.000000 7.670039 66.928032 -0.000000 7.480315 67.401573 -0.000000 9.640371 -87.970825 0.000000 11.023623 -85.249382 0.000000 0.692439 62.984093 -0.000000 0.510158 61.996220 -0.000000 0.458632 62.516479 -0.000000 0.831146 61.583549 0.000000 1.139565 63.255032 -0.000000 1.152135 61.170883 -0.000000 1.160920 61.082180 0.000000 1.203660 60.650616 -0.000000 1.383251 -87.970825 0.000000 3.985407 -89.567200 0.000000 3.135924 66.595245 -0.000000 7.038215 -89.567200 0.000000 4.885091 66.942940 -0.000000 5.405355 66.891411 -0.000000 5.818023 66.570427 -0.000000 6.233596 66.154854 -0.000000 6.707139 65.965126 -0.000000 7.206886 66.067566 -0.000000 7.567607 66.428284 -0.000000 0.522728 59.912071 0.000000 0.000000 -85.249382 0.000000 -0.000000 59.921257 0.000000 0.969853 60.183006 -0.000000 "
											            />
										</IndexedFaceSet>
									</Shape>
								</Group>
							</Transform>
						</Transform>
						<Transform DEF="group_10_001_TRANSFORM"
						           translation="0.393678 41.633877 11.023624"
						           scale="1.000000 1.000000 1.000000"
						           rotation="0.000000 0.000000 0.000000 0.000000"
						           >
							<Transform DEF="group_10_001_ifs_TRANSFORM"
							           translation="-0.000029 -0.000004 -0.000027"
							           scale="1.000000 1.000000 1.000000"
							           rotation="0.000000 0.000000 0.000000 0.000000"
							           >
								<Group DEF="group_ME_ID104_003">
									<Shape>
										<Appearance>
											<Material USE="MA_material_011" />
										</Appearance>
										<IndexedFaceSet solid="false"
										                coordIndex="0 1 2 -1 2 3 4 -1 3 2 1 -1 5 6 7 -1 6 5 8 -1 8 5 9 -1 8 9 10 -1 8 10 11 -1 12 13 14 -1 13 12 15 -1 16 17 18 -1 17 16 19 -1 17 19 20 -1 17 20 21 -1 17 21 22 -1 22 21 23 -1 24 25 26 -1 25 24 27 -1 28 29 30 -1 29 28 31 -1 32 33 34 -1 33 32 35 -1 36 37 38 -1 37 36 39 -1 40 41 42 -1 41 40 43 -1 "
										                >
											<Coordinate DEF="coords_ME_ID104_003"
											            point="7.086615 87.618111 0.000000 7.086614 22.992125 0.000000 0.000000 87.618111 0.000000 7.086615 3.326174 0.000000 0.000000 3.326174 0.000000 0.000000 3.326174 1.574803 0.000000 3.326174 0.000000 0.000000 3.326174 0.393701 0.000000 87.618111 0.000000 0.000000 85.661942 5.777483 0.000000 112.386658 11.435068 0.000000 113.208664 8.853180 0.000000 113.208664 8.853180 7.086615 87.618111 0.000000 0.000000 87.618111 0.000000 7.086615 113.208664 8.853180 7.086615 3.326174 0.393701 7.086615 85.661942 5.777483 7.086615 3.326174 1.574803 7.086615 3.326174 0.000000 7.086614 22.992125 0.000000 7.086615 87.618111 0.000000 7.086614 112.386658 11.435068 7.086615 113.208664 8.853180 7.086615 3.326174 0.393701 0.000000 3.326174 0.000000 7.086615 3.326174 0.000000 0.000000 3.326174 0.393701 7.086615 3.326174 1.574803 0.000000 85.661942 5.777483 0.000000 3.326174 1.574803 7.086615 85.661942 5.777483 0.000000 85.661942 5.777483 7.086614 112.386658 11.435068 0.000000 112.386658 11.435068 7.086615 85.661942 5.777483 0.000000 113.208664 8.853180 7.086614 112.386658 11.435068 7.086615 113.208664 8.853180 0.000000 112.386658 11.435068 7.086615 3.326174 1.574803 0.000000 3.326174 0.393701 7.086615 3.326174 0.393701 0.000000 3.326174 1.574803 "
											            />
										</IndexedFaceSet>
									</Shape>
								</Group>
							</Transform>
						</Transform>
					</Transform>
				</Transform>
				<Transform DEF="group_13_TRANSFORM"
				           translation="177.115921 148.077911 2.063084"
				           scale="-1.000000 -1.000000 -1.000000"
				           rotation="-0.707107 -0.707107 0.000000 3.141593"
				           >
					<Transform DEF="group_13_ifs_TRANSFORM"
					           translation="-0.000012 -0.000018 0.000010"
					           scale="1.000000 1.000000 1.000000"
					           rotation="0.000000 -0.000000 0.000000 0.000000"
					           >
						<Group DEF="group_ME_ID111_001">
							<Shape>
								<Appearance>
									<Material USE="MA_material_011" />
								</Appearance>
								<IndexedFaceSet solid="false"
								                coordIndex="0 1 2 -1 3 2 1 -1 4 5 6 -1 7 6 5 -1 8 9 10 -1 11 10 9 -1 12 13 14 -1 15 14 13 -1 16 17 18 -1 19 18 17 -1 20 21 22 -1 23 22 21 -1 "
								                >
									<Coordinate DEF="coords_ME_ID111_001"
									            point="0.000000 0.000000 11.811023 3.937008 0.000000 11.811023 0.000000 0.000000 0.000000 3.937008 0.000000 0.000000 3.937008 98.375771 11.811023 3.937008 98.375771 0.000000 3.937008 0.000000 11.811023 3.937008 0.000000 0.000000 3.937008 98.375771 11.811023 3.937008 0.000000 11.811023 0.000000 98.375778 11.811023 0.000000 0.000000 11.811023 0.000000 98.375778 0.000000 0.000000 98.375778 11.811023 0.000000 0.000000 0.000000 0.000000 0.000000 11.811023 3.937008 98.375771 0.000000 0.000000 98.375778 0.000000 3.937008 0.000000 0.000000 0.000000 0.000000 0.000000 3.937008 98.375771 11.811023 0.000000 98.375778 11.811023 3.937008 98.375771 0.000000 0.000000 98.375778 0.000000 "
									            />
								</IndexedFaceSet>
							</Shape>
						</Group>
					</Transform>
				</Transform>
				<Transform DEF="group_14_TRANSFORM"
				           translation="150.344269 -266.888550 2.063090"
				           scale="1.000000 1.000000 1.000000"
				           rotation="0.000000 0.000000 0.000000 0.000000"
				           >
					<Transform DEF="group_14_ifs_TRANSFORM"
					           translation="0.000009 0.000000 0.000010"
					           scale="1.000000 1.000000 1.000000"
					           rotation="0.000000 0.000000 0.000000 0.000000"
					           >
						<Group DEF="group_ME_ID118">
							<Shape>
								<Appearance>
									<Material USE="MA_material_011" />
								</Appearance>
								<IndexedFaceSet solid="false"
								                coordIndex="0 1 2 -1 1 0 3 -1 4 5 6 -1 5 4 7 -1 8 9 10 -1 9 8 11 -1 12 13 14 -1 13 12 15 -1 16 17 18 -1 17 16 19 -1 20 21 22 -1 21 20 23 -1 "
								                >
									<Coordinate DEF="coords_ME_ID118"
									            point="3.937008 345.628754 11.811023 0.000000 345.628754 0.000000 3.937008 345.628754 0.000000 0.000000 345.628754 11.811023 3.937008 437.801086 0.000000 3.937008 345.628754 11.811023 3.937008 345.628754 0.000000 3.937008 437.801086 11.811023 3.937008 345.628754 11.811023 0.000000 437.801086 11.811023 0.000000 345.628754 11.811023 3.937008 437.801086 11.811023 0.000000 437.801086 11.811023 0.000000 345.628754 0.000000 0.000000 345.628754 11.811023 0.000000 437.801086 0.000000 3.937008 437.801086 0.000000 0.000000 345.628754 0.000000 0.000000 437.801086 0.000000 3.937008 345.628754 0.000000 0.000000 437.801086 11.811023 3.937008 437.801086 0.000000 0.000000 437.801086 0.000000 3.937008 437.801086 11.811023 "
									            />
								</IndexedFaceSet>
							</Shape>
						</Group>
					</Transform>
				</Transform>
			</Transform>
			<Transform DEF="group_15_TRANSFORM"
			           translation="-99.657692 813.096741 108.511536"
			           scale="1.000000 1.000000 1.000000"
			           rotation="0.995884 -0.090633 0.000000 3.141593"
			           >
				<Transform DEF="group_16_TRANSFORM"
				           translation="129.665955 299.629883 -300.559448"
				           scale="1.000000 1.000000 1.000000"
				           rotation="0.595862 -0.407703 -0.691901 2.823984"
				           >
					<Transform DEF="group_16_ifs_TRANSFORM"
					           translation="0.000061 -0.000037 0.000011"
					           scale="1.000000 1.000000 1.000000"
					           rotation="0.000000 0.000000 0.000000 0.000000"
					           >
						<Group DEF="group_ME_ID126_002">
							<Shape>
								<Appearance>
									<Material USE="MA_material_011" />
								</Appearance>
								<IndexedFaceSet solid="false"
								                coordIndex="0 1 2 -1 1 0 3 -1 4 5 6 -1 5 4 7 -1 8 9 10 -1 9 8 11 -1 12 13 14 -1 13 12 15 -1 16 17 18 -1 17 16 19 -1 20 21 22 -1 21 20 23 -1 "
								                >
									<Coordinate DEF="coords_ME_ID126_002"
									            point="3.937008 345.628754 11.811023 0.000000 345.628754 0.000000 3.937008 345.628754 0.000000 0.000000 345.628754 11.811023 3.937008 437.801086 0.000000 3.937008 345.628754 11.811023 3.937008 345.628754 0.000000 3.937008 437.801086 11.811023 3.937008 345.628754 11.811023 0.000000 437.801086 11.811023 0.000000 345.628754 11.811023 3.937008 437.801086 11.811023 0.000000 437.801086 11.811023 0.000000 345.628754 0.000000 0.000000 345.628754 11.811023 0.000000 437.801086 0.000000 3.937008 437.801086 0.000000 0.000000 345.628754 0.000000 0.000000 437.801086 0.000000 3.937008 345.628754 0.000000 0.000000 437.801086 11.811023 3.937008 437.801086 0.000000 0.000000 437.801086 0.000000 3.937008 437.801086 11.811023 "
									            />
								</IndexedFaceSet>
							</Shape>
						</Group>
					</Transform>
				</Transform>
				<Transform DEF="group_17_TRANSFORM"
				           translation="76.647881 171.745056 -3.832156"
				           scale="1.000000 1.000000 1.000000"
				           rotation="0.595862 -0.407703 -0.691901 2.823984"
				           >
					<Transform DEF="group_18_TRANSFORM"
					           translation="125.666336 102.831673 2.063081"
					           scale="-1.000000 -1.000000 -1.000000"
					           rotation="-0.707107 -0.707107 0.000000 3.141593"
					           >
						<Transform DEF="group_18_ifs_TRANSFORM"
						           translation="-0.000119 -0.000072 0.000002"
						           scale="1.000000 1.000000 1.000000"
						           rotation="-0.000000 0.000000 -0.000000 0.000000"
						           >
							<Group DEF="group_ME_ID134_001">
								<Shape>
									<Appearance>
										<Material USE="MA_material_011" />
									</Appearance>
									<IndexedFaceSet solid="false"
									                coordIndex="0 1 2 -1 3 2 1 -1 4 5 6 -1 7 6 5 -1 8 9 10 -1 11 10 9 -1 12 13 14 -1 15 14 13 -1 16 17 18 -1 19 18 17 -1 20 21 22 -1 23 22 21 -1 "
									                >
										<Coordinate DEF="coords_ME_ID134_001"
										            point="0.000000 0.000000 11.811023 3.937008 0.000000 11.811023 0.000000 0.000000 0.000000 3.937008 0.000000 0.000000 3.937008 98.375771 11.811023 3.937008 98.375771 0.000000 3.937008 0.000000 11.811023 3.937008 0.000000 0.000000 3.937008 98.375771 11.811023 3.937008 0.000000 11.811023 0.000000 98.375778 11.811023 0.000000 0.000000 11.811023 0.000000 98.375778 0.000000 0.000000 98.375778 11.811023 0.000000 0.000000 0.000000 0.000000 0.000000 11.811023 3.937008 98.375771 0.000000 0.000000 98.375778 0.000000 3.937008 0.000000 0.000000 0.000000 0.000000 0.000000 3.937008 98.375771 11.811023 0.000000 98.375778 11.811023 3.937008 98.375771 0.000000 0.000000 98.375778 0.000000 "
										            />
									</IndexedFaceSet>
								</Shape>
							</Group>
						</Transform>
					</Transform>
					<Transform DEF="group_19_TRANSFORM"
					           translation="-0.000029 0.000001 39.515518"
					           scale="1.000000 1.000000 1.000000"
					           rotation="0.000000 0.000000 0.000000 0.000000"
					           >
						<Transform DEF="group_19_ifs_TRANSFORM"
						           translation="0.000093 0.000031 -0.000000"
						           scale="1.000000 1.000000 1.000000"
						           rotation="0.000000 0.000000 0.000000 0.000000"
						           >
							<Group DEF="group_ME_ID141_003">
								<Shape>
									<Appearance>
										<Material USE="MA_material_011" />
									</Appearance>
									<IndexedFaceSet solid="false"
									                coordIndex="0 1 2 -1 1 0 3 -1 4 5 6 -1 5 4 7 -1 7 4 8 -1 9 10 11 -1 10 9 12 -1 12 9 13 -1 12 13 14 -1 14 13 15 -1 16 17 18 -1 17 16 19 -1 20 21 22 -1 21 20 23 -1 21 23 24 -1 24 23 25 -1 24 25 26 -1 27 28 29 -1 28 27 30 -1 31 32 33 -1 32 31 34 -1 35 36 37 -1 36 35 38 -1 38 35 39 -1 40 41 42 -1 41 40 43 -1 44 45 46 -1 45 44 47 -1 "
									                >
										<Coordinate DEF="coords_ME_ID141_003"
										            point="7.072235 2.061242 56.059750 0.000000 5.010993 51.381863 5.010993 0.000000 51.381863 2.061242 7.072235 56.059750 29.864397 34.875389 25.063250 5.010993 0.000000 51.381863 0.000000 5.010993 51.381863 34.875389 29.864397 25.063250 30.142786 34.597000 25.063250 34.875389 29.864397 25.063250 7.072235 2.061242 56.059750 5.010993 0.000000 51.381863 36.507027 31.496033 30.119732 36.873131 31.862137 23.773977 79.940842 74.929848 0.366637 79.839409 74.828415 0.000000 7.072235 2.061242 56.059750 31.496035 36.507027 30.119732 2.061242 7.072235 56.059750 36.507027 31.496033 30.119732 2.061242 7.072235 56.059750 29.864397 34.875389 25.063250 0.000000 5.010993 51.381863 31.496035 36.507027 30.119732 31.862137 36.873131 23.773977 74.929848 79.940842 0.366637 74.828415 79.839409 0.000000 31.862137 36.873131 23.773977 30.142786 34.597000 25.063250 29.864397 34.875389 25.063250 32.140526 36.594742 23.773977 32.140526 36.594742 23.773977 34.875389 29.864397 25.063250 30.142786 34.597000 25.063250 36.873131 31.862137 23.773977 74.828415 79.839409 0.000000 32.140526 36.594742 23.773977 31.862137 36.873131 23.773977 36.873131 31.862137 23.773977 79.839409 74.828415 0.000000 74.828415 79.839409 0.000000 79.940842 74.929848 0.366637 79.839409 74.828415 0.000000 74.929848 79.940842 0.366637 36.507027 31.496033 30.119732 74.929848 79.940842 0.366637 31.496035 36.507027 30.119732 79.940842 74.929848 0.366637 "
										            />
									</IndexedFaceSet>
								</Shape>
							</Group>
						</Transform>
					</Transform>
					<Transform DEF="group_19_001_TRANSFORM"
					           translation="-0.000029 0.000001 39.515518"
					           scale="1.000000 1.000000 1.000000"
					           rotation="0.000000 0.000000 0.000000 0.000000"
					           >
						<Transform DEF="group_19_001_ifs_TRANSFORM"
						           translation="0.000093 0.000031 -0.000000"
						           scale="1.000000 1.000000 1.000000"
						           rotation="0.000000 0.000000 0.000000 0.000000"
						           >
							<Group DEF="group_ME_ID147_001">
							</Group>
						</Transform>
					</Transform>
					<Transform DEF="group_20_TRANSFORM"
					           translation="2.339616 2.339651 39.882149"
					           scale="1.000000 1.000000 1.000000"
					           rotation="0.000000 0.000000 0.000000 0.000000"
					           >
						<Transform DEF="group_20_ifs_TRANSFORM"
						           translation="0.000016 -0.000010 0.000001"
						           scale="1.000000 1.000000 1.000000"
						           rotation="0.000000 0.000000 0.000000 0.000000"
						           >
							<Group DEF="group_ME_ID152">
								<Shape>
									<Appearance>
										<Material USE="MA_material_011" />
									</Appearance>
									<IndexedFaceSet solid="false"
									                coordIndex="0 1 2 -1 1 0 3 -1 1 3 4 -1 4 3 5 -1 6 7 8 -1 7 6 9 -1 10 11 12 -1 11 10 13 -1 14 15 16 -1 15 14 17 -1 18 19 20 -1 19 18 21 -1 22 23 24 -1 23 22 25 -1 26 27 28 -1 27 26 29 -1 30 31 32 -1 31 30 33 -1 33 30 34 -1 33 34 35 -1 "
									                >
										<Coordinate DEF="coords_ME_ID152"
										            point="0.441695 4.895911 56.695515 29.434793 33.889008 29.753096 0.000000 4.454216 55.693111 29.838818 34.293030 30.788698 72.868607 77.322823 0.000000 73.232681 77.686897 1.062967 4.454216 0.000000 55.693108 0.441695 4.895911 56.695515 0.000000 4.454216 55.693111 4.895911 0.441695 56.695515 4.895911 0.441695 56.695515 29.838818 34.293030 30.788698 0.441695 4.895911 56.695515 34.293030 29.838818 30.788698 34.293030 29.838818 30.788698 73.232681 77.686897 1.062967 29.838818 34.293030 30.788698 77.686897 73.232681 1.062967 73.232681 77.686897 1.062967 77.322823 72.868607 0.000000 72.868607 77.322823 0.000000 77.686897 73.232681 1.062967 72.868607 77.322823 0.000000 33.889008 29.434793 29.753096 29.434793 33.889008 29.753096 77.322823 72.868607 0.000000 29.434793 33.889008 29.753096 4.454216 0.000000 55.693108 0.000000 4.454216 55.693111 33.889008 29.434793 29.753096 33.889008 29.434793 29.753096 4.895911 0.441695 56.695515 4.454216 0.000000 55.693108 34.293030 29.838818 30.788698 77.322823 72.868607 0.000000 77.686897 73.232681 1.062967 "
										            />
									</IndexedFaceSet>
								</Shape>
							</Group>
						</Transform>
					</Transform>
					<Transform DEF="group_21_TRANSFORM"
					           translation="42.103722 47.671520 45.631268"
					           scale="1.000000 1.000000 1.000000"
					           rotation="-0.408526 0.169217 -0.896924 0.865273"
					           >
						<Transform DEF="group_9_002_TRANSFORM"
						           translation="7.874018 61.850349 0.000011"
						           scale="1.000000 1.000000 1.000000"
						           rotation="-0.000000 -1.000000 -0.000000 1.570796"
						           >
							<Transform DEF="group_9_002_ifs_TRANSFORM"
							           translation="0.000012 0.000004 -0.000017"
							           scale="1.000000 1.000000 1.000000"
							           rotation="-0.000000 -0.000000 -0.000000 0.000000"
							           >
								<Group DEF="group_ME_ID160">
									<Shape>
										<Appearance>
											<Material USE="MA_material_011" />
										</Appearance>
										<IndexedFaceSet solid="false"
										                coordIndex="0 1 2 -1 1 0 3 -1 1 3 4 -1 4 3 5 -1 6 7 8 -1 7 6 9 -1 7 9 10 -1 10 9 11 -1 10 11 12 -1 12 11 13 -1 12 13 5 -1 12 5 3 -1 12 3 14 -1 12 14 15 -1 15 14 16 -1 16 14 17 -1 17 14 18 -1 17 18 19 -1 19 18 20 -1 20 18 21 -1 21 18 22 -1 22 18 23 -1 23 18 24 -1 24 18 25 -1 25 18 26 -1 25 26 27 -1 27 26 28 -1 28 29 30 -1 29 28 26 -1 29 26 31 -1 19 32 17 -1 12 33 34 -1 33 12 35 -1 35 12 15 -1 36 37 38 -1 37 36 39 -1 40 41 42 -1 41 40 43 -1 44 40 42 -1 40 44 45 -1 46 45 44 -1 45 46 47 -1 48 46 49 -1 46 48 47 -1 50 48 49 -1 48 50 51 -1 52 53 54 -1 53 52 55 -1 56 57 58 -1 57 56 59 -1 60 61 62 -1 61 60 63 -1 64 62 65 -1 62 64 60 -1 66 64 65 -1 64 66 67 -1 68 66 69 -1 66 68 67 -1 70 68 69 -1 68 70 71 -1 72 73 74 -1 73 72 75 -1 76 77 78 -1 77 76 79 -1 80 78 81 -1 78 80 76 -1 82 81 83 -1 81 82 80 -1 84 83 85 -1 83 84 82 -1 86 85 87 -1 85 86 84 -1 88 89 90 -1 89 88 91 -1 92 88 90 -1 88 92 93 -1 94 92 95 -1 92 94 93 -1 96 97 98 -1 97 96 99 -1 100 98 101 -1 98 100 96 -1 102 101 103 -1 101 102 100 -1 104 105 106 -1 105 104 107 -1 108 106 109 -1 106 108 104 -1 110 109 111 -1 109 110 108 -1 112 111 113 -1 111 112 110 -1 114 113 115 -1 113 114 112 -1 116 117 118 -1 117 116 119 -1 120 118 121 -1 118 120 116 -1 122 123 124 -1 123 122 125 -1 126 124 127 -1 124 126 122 -1 128 126 127 -1 126 128 129 -1 130 129 128 -1 129 130 131 -1 132 133 134 -1 133 132 135 -1 133 135 136 -1 137 138 139 -1 140 141 142 -1 141 140 143 -1 143 140 144 -1 145 146 147 -1 146 145 148 -1 148 145 149 -1 148 149 150 -1 150 149 133 -1 150 133 151 -1 151 133 152 -1 152 133 153 -1 153 133 154 -1 154 133 136 -1 154 136 155 -1 154 155 138 -1 154 138 156 -1 156 138 137 -1 156 137 157 -1 156 157 158 -1 156 158 159 -1 156 159 160 -1 156 160 161 -1 156 161 162 -1 156 162 143 -1 143 162 163 -1 143 163 141 -1 164 165 166 -1 165 164 153 -1 153 164 167 -1 153 167 152 -1 "
										                >
											<Coordinate DEF="coords_ME_ID160"
											            point="0.000000 -85.249382 7.874016 0.522728 59.912071 7.874016 0.000000 59.921257 7.874016 1.383251 -87.970825 7.874016 0.969853 60.183006 7.874016 1.203660 60.650616 7.874016 0.510158 61.996220 7.874016 0.692439 62.984093 7.874016 0.458632 62.516479 7.874016 0.831146 61.583549 7.874016 1.139565 63.255035 7.874016 1.152135 61.170883 7.874016 1.662292 63.245846 7.874016 1.160920 61.082180 7.874016 3.985407 -89.567200 7.874016 1.805764 66.537270 7.874016 3.135924 66.595245 7.874016 4.155731 65.739281 7.874016 7.038215 -89.567200 7.874016 4.417478 66.709137 7.874016 4.885091 66.942940 7.874016 5.405355 66.891411 7.874016 5.818023 66.570427 7.874016 6.233596 66.154854 7.874016 6.707139 65.965126 7.874016 7.206886 66.067566 7.874016 9.640370 -87.970825 7.874016 7.567607 66.428284 7.874016 7.670039 66.928032 7.874016 11.023622 67.401573 7.874016 7.480315 67.401573 7.874016 11.023622 -85.249382 7.874016 4.146541 66.262009 7.874016 0.864306 65.595810 7.874016 0.806325 64.265648 7.874016 1.335035 66.066536 7.874016 0.000000 -85.249382 7.874016 -0.000000 59.921257 0.000000 0.000000 -85.249382 0.000000 0.000000 59.921257 7.874016 1.383251 -87.970825 7.874016 0.000000 -85.249382 0.000000 1.383251 -87.970825 0.000000 0.000000 -85.249382 7.874016 3.985407 -89.567200 0.000000 3.985407 -89.567200 7.874016 7.038215 -89.567200 0.000000 7.038215 -89.567200 7.874016 9.640370 -87.970825 7.874016 9.640371 -87.970825 0.000000 11.023623 -85.249382 0.000000 11.023622 -85.249382 7.874016 11.023622 67.401573 -0.000000 11.023622 -85.249382 7.874016 11.023623 -85.249382 0.000000 11.023622 67.401573 7.874016 7.480315 67.401573 7.874016 11.023622 67.401573 -0.000000 7.480315 67.401573 -0.000000 11.023622 67.401573 7.874016 7.670039 66.928032 7.874016 7.480315 67.401573 -0.000000 7.670039 66.928032 -0.000000 7.480315 67.401573 7.874016 7.567607 66.428284 7.874016 7.567607 66.428284 -0.000000 7.206886 66.067566 -0.000000 7.206886 66.067566 7.874016 6.707139 65.965126 7.874016 6.707139 65.965126 -0.000000 6.233596 66.154854 -0.000000 6.233596 66.154854 7.874016 5.818023 66.570427 -0.000000 6.233596 66.154854 7.874016 6.233596 66.154854 -0.000000 5.818023 66.570427 7.874016 5.405355 66.891411 7.874016 5.818023 66.570427 -0.000000 5.405355 66.891411 -0.000000 5.818023 66.570427 7.874016 4.885091 66.942940 7.874016 4.885091 66.942940 -0.000000 4.417478 66.709137 7.874016 4.417478 66.709137 -0.000000 4.146541 66.262009 7.874016 4.146541 66.262009 -0.000000 4.155731 65.739281 7.874016 4.155731 65.739281 -0.000000 3.135924 66.595245 7.874016 4.155731 65.739281 -0.000000 3.135924 66.595245 -0.000000 4.155731 65.739281 7.874016 1.805764 66.537270 -0.000000 1.805764 66.537270 7.874016 1.335035 66.066536 7.874016 1.335035 66.066536 -0.000000 0.864306 65.595810 7.874016 1.335035 66.066536 -0.000000 0.864306 65.595810 -0.000000 1.335035 66.066536 7.874016 0.806325 64.265648 7.874016 0.806325 64.265648 -0.000000 1.662292 63.245846 7.874016 1.662292 63.245846 -0.000000 1.139565 63.255035 7.874016 1.662292 63.245846 -0.000000 1.139565 63.255032 -0.000000 1.662292 63.245846 7.874016 0.692439 62.984093 7.874016 0.692439 62.984093 -0.000000 0.458632 62.516479 7.874016 0.458632 62.516479 -0.000000 0.510158 61.996220 7.874016 0.510158 61.996220 -0.000000 0.831146 61.583549 7.874016 0.831146 61.583549 0.000000 1.152135 61.170883 7.874016 0.831146 61.583549 0.000000 1.152135 61.170883 -0.000000 0.831146 61.583549 7.874016 1.160920 61.082180 7.874016 1.160920 61.082180 0.000000 1.203660 60.650616 7.874016 1.160920 61.082180 0.000000 1.203660 60.650616 -0.000000 1.160920 61.082180 7.874016 0.969853 60.183006 7.874016 0.969853 60.183006 -0.000000 0.522728 59.912071 0.000000 0.522728 59.912071 7.874016 -0.000000 59.921257 0.000000 0.000000 59.921257 7.874016 0.864306 65.595810 -0.000000 1.662292 63.245846 -0.000000 0.806325 64.265648 -0.000000 1.335035 66.066536 -0.000000 1.805764 66.537270 -0.000000 4.417478 66.709137 -0.000000 4.155731 65.739281 -0.000000 4.146541 66.262009 -0.000000 11.023622 67.401573 -0.000000 7.670039 66.928032 -0.000000 7.480315 67.401573 -0.000000 9.640371 -87.970825 0.000000 11.023623 -85.249382 0.000000 0.692439 62.984093 -0.000000 0.510158 61.996220 -0.000000 0.458632 62.516479 -0.000000 0.831146 61.583549 0.000000 1.139565 63.255032 -0.000000 1.152135 61.170883 -0.000000 1.160920 61.082180 0.000000 1.203660 60.650616 -0.000000 1.383251 -87.970825 0.000000 3.985407 -89.567200 0.000000 3.135924 66.595245 -0.000000 7.038215 -89.567200 0.000000 4.885091 66.942940 -0.000000 5.405355 66.891411 -0.000000 5.818023 66.570427 -0.000000 6.233596 66.154854 -0.000000 6.707139 65.965126 -0.000000 7.206886 66.067566 -0.000000 7.567607 66.428284 -0.000000 0.522728 59.912071 0.000000 0.000000 -85.249382 0.000000 -0.000000 59.921257 0.000000 0.969853 60.183006 -0.000000 "
											            />
										</IndexedFaceSet>
									</Shape>
								</Group>
							</Transform>
						</Transform>
						<Transform DEF="group_10_002_TRANSFORM"
						           translation="0.393690 41.633743 11.023608"
						           scale="1.000000 1.000000 1.000000"
						           rotation="0.000000 -0.000000 -0.000000 0.000000"
						           >
							<Transform DEF="group_10_002_ifs_TRANSFORM"
							           translation="-0.000002 -0.000106 0.000003"
							           scale="1.000000 1.000000 1.000000"
							           rotation="0.000000 -0.000000 -0.000000 0.000000"
							           >
								<Group DEF="group_ME_ID167">
									<Shape>
										<Appearance>
											<Material USE="MA_material_011" />
										</Appearance>
										<IndexedFaceSet solid="false"
										                coordIndex="0 1 2 -1 2 3 4 -1 3 2 1 -1 5 6 7 -1 6 5 8 -1 8 5 9 -1 8 9 10 -1 8 10 11 -1 12 13 14 -1 13 12 15 -1 16 17 18 -1 17 16 19 -1 17 19 20 -1 17 20 21 -1 17 21 22 -1 22 21 23 -1 24 25 26 -1 25 24 27 -1 28 29 30 -1 29 28 31 -1 32 33 34 -1 33 32 35 -1 36 37 38 -1 37 36 39 -1 40 41 42 -1 41 40 43 -1 "
										                >
											<Coordinate DEF="coords_ME_ID167"
											            point="7.086615 87.618111 0.000000 7.086614 22.992125 0.000000 0.000000 87.618111 0.000000 7.086615 3.326174 0.000000 0.000000 3.326174 0.000000 0.000000 3.326174 1.574803 0.000000 3.326174 0.000000 0.000000 3.326174 0.393701 0.000000 87.618111 0.000000 0.000000 85.661942 5.777483 0.000000 112.386658 11.435068 0.000000 113.208664 8.853180 0.000000 113.208664 8.853180 7.086615 87.618111 0.000000 0.000000 87.618111 0.000000 7.086615 113.208664 8.853180 7.086615 3.326174 0.393701 7.086615 85.661942 5.777483 7.086615 3.326174 1.574803 7.086615 3.326174 0.000000 7.086614 22.992125 0.000000 7.086615 87.618111 0.000000 7.086614 112.386658 11.435068 7.086615 113.208664 8.853180 7.086615 3.326174 0.393701 0.000000 3.326174 0.000000 7.086615 3.326174 0.000000 0.000000 3.326174 0.393701 7.086615 3.326174 1.574803 0.000000 85.661942 5.777483 0.000000 3.326174 1.574803 7.086615 85.661942 5.777483 0.000000 85.661942 5.777483 7.086614 112.386658 11.435068 0.000000 112.386658 11.435068 7.086615 85.661942 5.777483 0.000000 113.208664 8.853180 7.086614 112.386658 11.435068 7.086615 113.208664 8.853180 0.000000 112.386658 11.435068 7.086615 3.326174 1.574803 0.000000 3.326174 0.393701 7.086615 3.326174 0.393701 0.000000 3.326174 1.574803 "
											            />
										</IndexedFaceSet>
									</Shape>
								</Group>
							</Transform>
						</Transform>
					</Transform>
				</Transform>
			</Transform>
		</Transform>
		<Transform DEF="SketchUp_001_TRANSFORM"
		           translation="0.000000 0.000000 0.000000"
		           scale="0.025400 0.025400 0.025400"
		           rotation="-1.000000 0.000000 0.000000 1.570796"
		           >
			<Transform DEF="SketchUp_001_ifs_TRANSFORM"
			           translation="0.000000 0.000000 0.000000"
			           scale="1.000000 1.000000 1.000000"
			           rotation="0.000000 1.000000 0.000000 0.000000"
			           >
				<Group DEF="group_ME_ID177_001">
				</Group>
			</Transform>
		</Transform>
		<Transform DEF="SketchUp_002_TRANSFORM"
		           translation="0.000000 0.000000 0.000000"
		           scale="0.025400 0.025400 0.025400"
		           rotation="-1.000000 0.000000 0.000000 1.570796"
		           >
			<Transform DEF="SketchUp_002_ifs_TRANSFORM"
			           translation="0.000000 0.000000 0.000000"
			           scale="1.000000 1.000000 1.000000"
			           rotation="0.000000 1.000000 0.000000 0.000000"
			           >
				<Group DEF="group_ME_ID181_001">
				</Group>
			</Transform>
		</Transform>
	</Scene>
</X3D>