<?xml version="1.0" encoding="UTF-8"?>
<!DOCTYPE X3D PUBLIC "ISO//Web3D//DTD X3D 3.0//EN" "http://www.web3d.org/specifications/x3d-3.0.dtd">
<X3D version="3.0" profile="Immersive" xmlns:xsd="http://www.w3.org/2001/XMLSchema-instance" xsd:noNamespaceSchemaLocation="http://www.web3d.org/specifications/x3d-3.0.xsd">
	<head>
		<meta name="filename" content="24-1 造替木之制.x3d" />
		<meta name="created" content="2025-12-29 13:56:22" />
		<meta name="generator" content="Blender 4.2.2 LTS" />
		<meta name="translator" content="Web3D X3D/VRML2 format v2.5.1" />
	</head>
	<Scene>
		<NavigationInfo headlight="true"
		                visibilityLimit="0.0"
		                type='"EXAMINE", "ANY"'
		                avatarSize="0.25, 1.75, 0.75"
		                />
		<Background DEF="WO_World"
		            groundColor="0.051 0.051 0.051"
		            skyColor="0.051 0.051 0.051"
		            />
		<Transform DEF="SketchUp_TRANSFORM"
		           translation="0.000000 0.000000 0.000000"
		           scale="0.025400 0.025400 0.025400"
		           rotation="-1.000000 0.000000 0.000000 1.570796"
		           >
			<Transform DEF="group_0_TRANSFORM"
			           translation="-100.144768 1.150367 -47.701653"
			           scale="1.000000 1.000000 1.000000"
			           rotation="0.000000 1.000000 0.000000 0.000000"
			           >
				<Transform DEF="instance_0_TRANSFORM"
				           translation="27.767708 0.102399 20.900703"
				           scale="1.000000 1.000000 1.000000"
				           rotation="0.000000 0.000000 1.000000 1.570796"
				           >
					<Transform DEF="instance_0_ifs_TRANSFORM"
					           translation="0.000000 0.000008 -0.000002"
					           scale="1.000000 1.000000 1.000000"
					           rotation="0.000000 0.000000 -0.000000 0.000000"
					           >
						<Group DEF="group_ME_ID5_004">
							<Shape>
								<Appearance>
								</Appearance>
								<IndexedFaceSet solid="false"
								                coordIndex="0 1 2 -1 1 0 3 -1 1 3 4 -1 5 6 7 -1 6 5 8 -1 9 10 11 -1 10 9 12 -1 13 14 15 -1 14 13 16 -1 2 17 18 -1 17 2 1 -1 17 1 19 -1 19 1 4 -1 20 21 22 -1 21 20 23 -1 24 8 5 -1 8 24 25 -1 26 16 13 -1 16 26 27 -1 18 28 29 -1 28 18 17 -1 28 17 19 -1 28 19 30 -1 31 22 32 -1 22 31 20 -1 33 25 24 -1 25 33 34 -1 35 27 26 -1 27 35 36 -1 37 38 39 -1 38 37 40 -1 40 37 41 -1 42 32 43 -1 32 42 31 -1 44 45 46 -1 45 44 47 -1 45 47 48 -1 46 49 50 -1 49 46 45 -1 50 49 51 -1 52 53 54 -1 53 52 55 -1 53 55 56 -1 54 57 58 -1 57 54 53 -1 58 57 59 -1 60 61 62 -1 61 60 63 -1 64 65 66 -1 65 64 67 -1 68 69 70 -1 69 68 71 -1 69 71 72 -1 72 71 73 -1 73 71 74 -1 75 70 69 -1 76 77 78 -1 77 76 79 -1 80 81 82 -1 83 84 85 -1 84 83 86 -1 84 86 87 -1 87 86 81 -1 87 81 80 -1 88 89 90 -1 89 88 91 -1 92 93 94 -1 93 92 95 -1 96 97 98 -1 97 96 99 -1 100 101 102 -1 101 100 103 -1 104 105 106 -1 105 104 107 -1 "
								                >
									<Coordinate DEF="coords_ME_ID5_004"
									            point="5.511811 0.787402 0.000000 5.614210 6.299213 0.595353 5.614210 0.685003 0.595353 5.511811 6.299213 0.000000 5.614210 6.401612 0.595353 5.614210 0.685003 0.595353 0.787402 0.787402 0.000000 5.511811 0.787402 0.000000 0.685003 0.685003 0.595353 5.511811 6.299213 0.000000 0.787402 0.787402 0.000000 0.787402 6.299213 0.000000 5.511811 0.787402 0.000000 0.685003 6.401612 0.595353 5.511811 6.299213 0.000000 0.787402 6.299213 0.000000 5.614210 6.401612 0.595353 5.884369 6.299212 1.135672 5.884369 0.414843 1.135672 5.884369 6.671771 1.135672 0.685003 6.401612 0.595353 0.787402 0.787402 0.000000 0.685003 0.685003 0.595353 0.787402 6.299213 0.000000 5.884369 0.414843 1.135672 0.414843 0.414843 1.135672 0.414843 6.671771 1.135672 5.884369 6.671771 1.135672 6.299213 6.299213 1.574803 6.299213 0.000000 1.574803 6.299213 7.086615 1.574803 0.414843 6.671771 1.135672 0.414843 0.414843 1.135672 6.299213 0.000000 1.574803 0.000000 0.000000 1.574803 0.000000 7.086615 1.574803 6.299213 7.086615 1.574803 6.299213 6.299213 1.574803 6.299213 0.000000 3.937008 6.299213 0.000000 1.574803 6.299213 7.086615 3.937008 6.299213 7.086615 1.574803 0.000000 7.086615 1.574803 0.000000 0.000000 1.574803 6.299213 0.000000 1.574803 5.118110 0.000000 2.362205 0.000000 0.000000 1.574803 6.299213 0.000000 3.937008 5.118110 0.000000 3.937008 1.181102 0.000000 2.362205 0.000000 0.000000 3.937008 1.181102 0.000000 3.937008 0.000000 7.086615 1.574803 1.181102 7.086615 2.362205 6.299213 7.086615 1.574803 0.000000 7.086615 3.937008 1.181102 7.086615 3.937008 5.118110 7.086615 2.362205 6.299213 7.086615 3.937008 5.118110 7.086615 3.937008 6.299213 0.000000 3.937008 5.118110 7.086615 3.937008 5.118110 0.000000 3.937008 6.299213 7.086615 3.937008 0.000000 7.086615 3.937008 0.000000 0.000000 1.574803 0.000000 0.000000 3.937008 0.000000 7.086615 1.574803 5.118110 0.000000 3.937008 5.118110 0.787402 3.149606 5.118110 0.000000 2.362205 5.118110 7.086615 3.937008 5.118110 6.299213 3.149606 5.118110 6.299213 2.362205 5.118110 7.086615 2.362205 5.118110 0.787402 2.362205 5.118110 0.000000 2.362205 1.181102 0.787402 2.362205 1.181102 0.000000 2.362205 5.118110 0.787402 2.362205 1.181102 7.086615 2.362205 1.181102 6.299213 3.149606 1.181102 6.299213 2.362205 1.181102 0.787402 2.362205 1.181102 0.000000 3.937008 1.181102 0.000000 2.362205 1.181102 0.787402 3.149606 1.181102 7.086615 3.937008 1.181102 0.000000 3.937008 0.000000 7.086615 3.937008 0.000000 0.000000 3.937008 1.181102 7.086615 3.937008 1.181102 6.299213 2.362205 5.118110 7.086615 2.362205 1.181102 7.086615 2.362205 5.118110 6.299213 2.362205 1.181102 6.299213 3.149606 5.118110 6.299213 2.362205 1.181102 6.299213 2.362205 5.118110 6.299213 3.149606 5.118110 0.787402 3.149606 1.181102 6.299213 3.149606 1.181102 0.787402 3.149606 5.118110 6.299213 3.149606 5.118110 0.787402 3.149606 1.181102 0.787402 2.362205 5.118110 0.787402 2.362205 1.181102 0.787402 3.149606 "
									            />
								</IndexedFaceSet>
							</Shape>
						</Group>
					</Transform>
				</Transform>
				<Transform DEF="instance_1_TRANSFORM"
				           translation="21.074799 0.102399 29.168423"
				           scale="1.000000 1.000000 1.000000"
				           rotation="0.000000 1.000000 0.000000 0.000000"
				           >
					<Transform DEF="instance_1_ifs_TRANSFORM"
					           translation="-0.000008 0.000000 -0.000002"
					           scale="1.000000 1.000000 1.000000"
					           rotation="0.000000 1.000000 0.000000 0.000000"
					           >
						<Group DEF="group_ME_ID15_002">
							<Shape>
								<Appearance>
								</Appearance>
								<IndexedFaceSet solid="false"
								                coordIndex="0 1 2 -1 1 0 3 -1 4 5 6 -1 7 8 9 -1 8 7 10 -1 8 10 11 -1 11 10 5 -1 11 5 4 -1 12 13 14 -1 13 12 15 -1 16 17 18 -1 17 16 19 -1 19 16 20 -1 20 16 21 -1 18 22 23 -1 22 18 17 -1 24 25 26 -1 25 27 28 -1 27 25 24 -1 29 30 31 -1 30 29 32 -1 33 34 35 -1 34 33 36 -1 37 38 39 -1 38 37 40 -1 41 42 43 -1 42 41 44 -1 45 46 47 -1 46 45 48 -1 49 50 51 -1 50 49 52 -1 53 54 55 -1 54 56 57 -1 56 54 53 -1 56 53 58 -1 59 60 61 -1 60 59 62 -1 48 63 46 -1 63 48 64 -1 65 52 49 -1 52 65 66 -1 55 67 68 -1 67 57 69 -1 57 67 55 -1 57 55 54 -1 61 70 71 -1 70 61 60 -1 64 72 63 -1 72 64 73 -1 74 66 65 -1 66 74 75 -1 68 76 77 -1 76 68 69 -1 69 68 67 -1 71 78 79 -1 78 71 70 -1 80 81 82 -1 81 80 83 -1 "
								                >
									<Coordinate DEF="coords_ME_ID15_002"
									            point="6.299213 5.118110 3.937008 0.000000 6.299213 3.937008 0.000000 5.118110 3.937008 6.299213 6.299213 3.937008 0.000000 6.299213 3.937008 0.000000 5.118110 2.362205 0.000000 5.118110 3.937008 0.000000 1.181102 3.937008 0.000000 0.000000 1.574803 0.000000 0.000000 3.937008 0.000000 1.181102 2.362205 0.000000 6.299213 1.574803 6.299213 5.118110 3.937008 0.000000 5.118110 2.362205 6.299213 5.118110 2.362205 0.000000 5.118110 3.937008 6.299213 6.299213 1.574803 6.299213 1.181102 2.362205 6.299213 0.000000 1.574803 6.299213 5.118110 2.362205 6.299213 5.118110 3.937008 6.299213 6.299213 3.937008 6.299213 1.181102 3.937008 6.299213 0.000000 3.937008 0.000000 6.299213 3.937008 0.787402 6.299213 1.574803 0.000000 6.299213 1.574803 6.299213 6.299213 3.937008 6.299213 6.299213 1.574803 6.299213 0.000000 3.937008 0.000000 0.000000 1.574803 6.299213 0.000000 1.574803 0.000000 0.000000 3.937008 6.299213 0.000000 3.937008 0.000000 1.181102 3.937008 0.000000 0.000000 3.937008 6.299213 1.181102 3.937008 0.000000 1.181102 3.937008 6.299213 1.181102 2.362205 0.000000 1.181102 2.362205 6.299213 1.181102 3.937008 6.299213 1.181102 2.362205 0.000000 5.118110 2.362205 0.000000 1.181102 2.362205 6.299213 5.118110 2.362205 0.000000 6.299213 1.574803 0.414843 0.414843 1.135672 0.000000 0.000000 1.574803 0.414843 5.884369 1.135672 5.884369 0.414843 1.135672 6.299213 6.299213 1.574803 6.299213 0.000000 1.574803 5.884369 5.884369 1.135672 0.000000 6.299213 1.574803 0.787402 5.884369 1.135672 0.414843 5.884369 1.135672 6.299213 6.299213 1.574803 5.884369 5.884369 1.135672 0.787402 6.299213 1.574803 6.299213 0.000000 1.574803 0.414843 0.414843 1.135672 5.884369 0.414843 1.135672 0.000000 0.000000 1.574803 0.685003 0.685003 0.595353 0.685003 5.614210 0.595353 5.614210 0.685003 0.595353 5.614210 5.614210 0.595353 0.787402 5.614210 0.595353 0.685003 5.614210 0.595353 5.614210 5.614210 0.595353 0.685003 0.685003 0.595353 5.614210 0.685003 0.595353 0.787402 0.787402 0.000000 0.787402 5.511811 0.000000 5.511811 0.787402 0.000000 5.511811 5.511811 0.000000 5.511811 5.511811 0.000000 0.787402 5.511811 0.000000 0.787402 0.787402 0.000000 5.511811 0.787402 0.000000 5.511811 5.511811 0.000000 0.787402 0.787402 0.000000 0.787402 5.511811 0.000000 5.511811 0.787402 0.000000 "
									            />
								</IndexedFaceSet>
							</Shape>
						</Group>
					</Transform>
				</Transform>
				<Transform DEF="instance_2_TRANSFORM"
				           translation="14.775581 0.102399 29.168421"
				           scale="1.000000 1.000000 1.000000"
				           rotation="0.000000 0.000000 1.000000 1.570796"
				           >
					<Transform DEF="instance_2_ifs_TRANSFORM"
					           translation="0.000000 0.000000 0.000000"
					           scale="1.000000 1.000000 1.000000"
					           rotation="0.000000 0.000000 -0.000000 0.000000"
					           >
						<Group DEF="group_ME_ID23">
							<Shape>
								<Appearance>
								</Appearance>
								<IndexedFaceSet solid="false"
								                coordIndex="0 1 2 -1 1 0 3 -1 4 5 6 -1 5 4 7 -1 5 7 8 -1 9 10 11 -1 10 9 12 -1 13 14 15 -1 14 13 16 -1 17 3 0 -1 3 17 18 -1 19 20 21 -1 20 19 22 -1 6 23 24 -1 23 6 5 -1 23 5 8 -1 23 8 25 -1 26 15 27 -1 15 26 13 -1 28 18 17 -1 18 28 29 -1 30 22 19 -1 22 30 31 -1 24 32 33 -1 32 24 23 -1 32 23 25 -1 32 25 34 -1 35 27 36 -1 27 35 26 -1 37 38 39 -1 38 37 40 -1 38 40 41 -1 39 42 43 -1 42 39 38 -1 43 42 44 -1 45 31 30 -1 31 45 46 -1 47 48 49 -1 48 47 50 -1 50 47 51 -1 52 53 54 -1 53 52 55 -1 56 57 58 -1 57 56 59 -1 60 61 62 -1 61 60 63 -1 64 65 66 -1 65 64 67 -1 68 69 70 -1 69 68 71 -1 72 73 74 -1 73 72 75 -1 76 77 78 -1 77 76 79 -1 77 79 80 -1 78 81 82 -1 81 78 77 -1 82 81 83 -1 "
								                >
									<Coordinate DEF="coords_ME_ID23"
									            point="0.685003 4.826808 0.595353 5.511811 4.724409 0.000000 0.787402 4.724409 0.000000 5.614210 4.826808 0.595353 5.511811 0.787402 0.000000 5.614210 4.724409 0.595353 5.614210 0.685003 0.595353 5.511811 4.724409 0.000000 5.614210 4.826808 0.595353 5.511811 4.724409 0.000000 0.787402 0.787402 0.000000 0.787402 4.724409 0.000000 5.511811 0.787402 0.000000 0.685003 4.826808 0.595353 0.787402 0.787402 0.000000 0.685003 0.685003 0.595353 0.787402 4.724409 0.000000 0.414843 5.096968 1.135672 5.884369 5.096968 1.135672 5.614210 0.685003 0.595353 0.787402 0.787402 0.000000 5.511811 0.787402 0.000000 0.685003 0.685003 0.595353 5.884369 4.724409 1.135672 5.884369 0.414843 1.135672 5.884369 5.096968 1.135672 0.414843 5.096968 1.135672 0.414843 0.414843 1.135672 0.000000 5.511811 1.574803 6.299213 5.511811 1.574803 5.884369 0.414843 1.135672 0.414843 0.414843 1.135672 6.299213 4.724409 1.574803 6.299213 0.000000 1.574803 6.299213 5.511811 1.574803 0.000000 5.511811 1.574803 0.000000 0.000000 1.574803 0.000000 5.511811 1.574803 1.181102 5.511811 2.362205 6.299213 5.511811 1.574803 0.000000 5.511811 3.937008 1.181102 5.511811 3.937008 5.118110 5.511811 2.362205 6.299213 5.511811 3.937008 5.118110 5.511811 3.937008 6.299213 0.000000 1.574803 0.000000 0.000000 1.574803 6.299213 4.724409 1.574803 6.299213 0.000000 3.937008 6.299213 0.000000 1.574803 6.299213 5.511811 3.937008 6.299213 5.511811 1.574803 0.000000 5.511811 3.937008 0.000000 0.000000 1.574803 0.000000 0.000000 3.937008 0.000000 5.511811 1.574803 1.181102 0.000000 3.937008 0.000000 5.511811 3.937008 0.000000 0.000000 3.937008 1.181102 5.511811 3.937008 1.181102 5.511811 2.362205 1.181102 0.000000 3.937008 1.181102 0.000000 2.362205 1.181102 5.511811 3.937008 5.118110 0.000000 2.362205 1.181102 5.511811 2.362205 1.181102 0.000000 2.362205 5.118110 5.511811 2.362205 5.118110 5.511811 3.937008 5.118110 0.000000 2.362205 5.118110 0.000000 3.937008 5.118110 5.511811 2.362205 6.299213 0.000000 3.937008 5.118110 5.511811 3.937008 5.118110 0.000000 3.937008 6.299213 5.511811 3.937008 6.299213 0.000000 1.574803 5.118110 0.000000 2.362205 0.000000 0.000000 1.574803 6.299213 0.000000 3.937008 5.118110 0.000000 3.937008 1.181102 0.000000 2.362205 0.000000 0.000000 3.937008 1.181102 0.000000 3.937008 "
									            />
								</IndexedFaceSet>
							</Shape>
						</Group>
					</Transform>
				</Transform>
				<Transform DEF="instance_3_TRANSFORM"
				           translation="10.051178 1.283501 23.262911"
				           scale="1.000000 1.000000 1.000000"
				           rotation="0.000000 1.000000 0.000000 0.000000"
				           >
					<Transform DEF="instance_3_ifs_TRANSFORM"
					           translation="-0.000008 0.000000 -0.000002"
					           scale="1.000000 1.000000 1.000000"
					           rotation="0.000000 1.000000 0.000000 0.000000"
					           >
						<Group DEF="group_ME_ID31_001">
							<Shape>
								<Appearance>
								</Appearance>
								<IndexedFaceSet solid="false"
								                coordIndex="0 1 2 -1 1 0 3 -1 4 5 6 -1 5 4 7 -1 7 4 8 -1 7 8 9 -1 7 9 10 -1 10 11 12 -1 11 10 13 -1 13 10 14 -1 14 10 15 -1 15 10 9 -1 15 9 16 -1 15 16 17 -1 17 16 18 -1 17 18 19 -1 19 18 20 -1 20 18 21 -1 19 20 22 -1 20 21 23 -1 23 21 24 -1 24 21 25 -1 26 27 28 -1 22 29 30 -1 29 22 20 -1 30 29 31 -1 30 31 28 -1 30 28 32 -1 32 28 33 -1 33 28 27 -1 33 27 34 -1 19 35 36 -1 35 19 22 -1 36 35 37 -1 36 37 38 -1 36 38 39 -1 40 3 0 -1 3 40 41 -1 42 43 44 -1 43 42 45 -1 43 45 46 -1 43 46 47 -1 43 47 48 -1 48 49 50 -1 49 48 51 -1 51 48 52 -1 52 48 53 -1 53 48 47 -1 53 47 54 -1 53 54 55 -1 55 54 56 -1 56 54 57 -1 56 57 58 -1 58 57 59 -1 58 59 60 -1 60 59 61 -1 61 59 62 -1 63 64 65 -1 64 63 66 -1 66 63 67 -1 66 67 68 -1 68 67 69 -1 68 69 70 -1 70 69 71 -1 70 71 72 -1 56 73 74 -1 73 56 65 -1 65 56 58 -1 73 65 64 -1 74 73 75 -1 74 75 76 -1 74 76 77 -1 2 78 79 -1 78 2 1 -1 80 81 82 -1 81 80 83 -1 83 80 84 -1 85 86 87 -1 86 85 88 -1 89 90 91 -1 90 89 92 -1 90 92 93 -1 94 95 96 -1 95 94 97 -1 94 98 97 -1 98 94 99 -1 99 100 98 -1 100 99 101 -1 101 102 100 -1 102 101 103 -1 104 102 103 -1 102 104 105 -1 106 105 104 -1 105 106 107 -1 108 107 106 -1 107 108 109 -1 110 111 112 -1 111 110 113 -1 113 110 114 -1 115 116 117 -1 116 115 118 -1 119 115 117 -1 115 119 120 -1 120 121 122 -1 121 120 119 -1 122 123 124 -1 123 122 121 -1 124 125 126 -1 125 124 123 -1 126 127 128 -1 127 126 125 -1 128 129 130 -1 129 128 127 -1 131 132 133 -1 132 131 134 -1 135 136 137 -1 136 135 138 -1 139 140 141 -1 140 139 142 -1 143 144 145 -1 144 143 146 -1 145 41 40 -1 41 145 144 -1 147 78 148 -1 78 147 79 -1 149 148 150 -1 148 149 147 -1 151 152 153 -1 152 151 154 -1 152 154 155 -1 156 157 158 -1 157 156 159 -1 160 159 156 -1 159 160 161 -1 160 162 161 -1 162 160 163 -1 163 164 162 -1 164 163 165 -1 166 164 165 -1 164 166 167 -1 168 167 166 -1 167 168 169 -1 170 169 168 -1 169 170 171 -1 172 106 173 -1 106 172 108 -1 174 106 104 -1 106 174 173 -1 175 104 103 -1 104 175 174 -1 175 101 176 -1 101 175 103 -1 176 99 177 -1 99 176 101 -1 177 94 178 -1 94 177 99 -1 178 96 179 -1 96 178 94 -1 170 180 181 -1 180 170 168 -1 168 182 180 -1 182 168 166 -1 183 166 165 -1 166 183 182 -1 183 163 184 -1 163 183 165 -1 184 160 185 -1 160 184 163 -1 185 156 186 -1 156 185 160 -1 156 187 186 -1 187 156 158 -1 "
								                >
									<Coordinate DEF="coords_ME_ID31_001"
									            point="3.149606 3.937008 0.708661 1.574803 0.000000 1.417323 1.574803 3.937008 1.417323 3.149606 0.000000 0.708661 5.249344 3.937008 0.236220 11.417322 3.937008 0.000000 7.874016 3.937008 0.000000 11.417322 3.937008 0.787402 3.149606 3.937008 0.708661 1.574803 3.937008 1.417323 16.929134 3.937008 0.787402 20.472441 3.937008 0.000000 16.929134 3.937008 0.000000 23.097113 3.937008 0.236220 25.196850 3.937008 0.708661 26.771652 3.937008 1.417323 0.524934 3.937008 2.362205 27.821522 3.937008 2.362205 0.000000 3.937008 3.543307 28.346457 3.937008 3.543307 5.118110 3.937008 4.724409 0.000000 3.937008 5.905512 17.322834 3.937008 4.724409 4.527559 3.937008 4.882647 4.095246 3.937008 5.314961 3.937008 3.937008 5.905512 12.204723 3.937008 5.905512 12.598425 3.937008 5.905512 12.046487 3.937008 5.314961 11.023622 3.937008 4.724409 16.732285 3.937008 4.882647 11.614173 3.937008 4.882647 16.299971 3.937008 5.314961 16.141733 3.937008 5.905512 15.748032 3.937008 5.905512 23.228346 3.937008 4.724409 28.346457 3.937008 5.905512 23.818897 3.937008 4.882647 24.251211 3.937008 5.314961 24.409447 3.937008 5.905512 5.249344 3.937008 0.236220 5.249344 0.000000 0.236220 20.472441 0.000000 0.000000 16.929134 0.000000 0.787402 16.929134 0.000000 -0.000000 23.097113 0.000000 0.236220 25.196850 0.000000 0.708661 26.771652 0.000000 1.417323 11.417322 0.000000 0.787402 7.874016 0.000000 0.000000 11.417322 0.000000 -0.000000 5.249344 0.000000 0.236220 3.149606 0.000000 0.708661 1.574803 0.000000 1.417323 27.821522 0.000000 2.362205 0.524934 0.000000 2.362205 0.000000 0.000000 3.543307 28.346457 0.000000 3.543307 23.228346 0.000000 4.724409 28.346457 0.000000 5.905512 23.818897 0.000000 4.882647 24.251211 0.000000 5.314961 24.409447 0.000000 5.905512 16.732285 0.000000 4.882647 11.023622 0.000000 4.724409 17.322834 0.000000 4.724409 11.614173 0.000000 4.882647 16.299971 0.000000 5.314961 12.046487 0.000000 5.314961 16.141733 0.000000 5.905512 12.204723 0.000000 5.905512 15.748032 0.000000 5.905512 12.598425 0.000000 5.905512 5.118110 0.000000 4.724409 0.000000 0.000000 5.905512 4.527559 0.000000 4.882647 4.095246 0.000000 5.314961 3.937008 0.000000 5.905512 0.524934 0.000000 2.362205 0.524934 3.937008 2.362205 12.204723 0.000000 5.905512 12.204723 3.937008 5.905512 11.614173 1.968504 5.905512 12.598425 3.937008 5.905512 12.598425 0.000000 5.905512 12.598425 0.000000 5.905512 15.748032 3.937008 5.905512 12.598425 3.937008 5.905512 15.748032 0.000000 5.905512 15.748032 0.000000 5.905512 16.141733 3.937008 5.905512 15.748032 3.937008 5.905512 16.141733 0.000000 5.905512 16.732285 1.968504 5.905512 16.811401 1.968504 5.610236 16.141733 3.937008 5.905512 16.732285 1.968504 5.905512 16.299971 3.937008 5.314961 16.732285 3.937008 4.882647 17.027559 1.968504 5.394080 17.322834 3.937008 4.724409 17.397932 1.968504 5.294838 23.228346 3.937008 4.724409 23.153248 1.968504 5.294838 23.523621 1.968504 5.394080 23.818897 3.937008 4.882647 23.739779 1.968504 5.610236 24.251211 3.937008 5.314961 23.818897 1.968504 5.905512 24.409447 3.937008 5.905512 24.409447 0.000000 5.905512 24.409447 3.937008 5.905512 23.818897 1.968504 5.905512 28.346457 3.937008 5.905512 28.346457 0.000000 5.905512 28.346457 3.937008 3.543307 28.346457 0.000000 5.905512 28.346457 0.000000 3.543307 28.346457 3.937008 5.905512 27.821522 0.000000 2.362205 27.821522 3.937008 2.362205 26.771652 0.000000 1.417323 26.771652 3.937008 1.417323 25.196850 0.000000 0.708661 25.196850 3.937008 0.708661 23.097113 0.000000 0.236220 23.097113 3.937008 0.236220 20.472441 0.000000 0.000000 20.472441 3.937008 0.000000 16.929134 0.000000 -0.000000 16.929134 3.937008 0.000000 16.929134 3.937008 0.787402 16.929134 0.000000 -0.000000 16.929134 0.000000 0.787402 16.929134 3.937008 0.000000 16.929134 3.937008 0.787402 11.417322 0.000000 0.787402 11.417322 3.937008 0.787402 16.929134 0.000000 0.787402 11.417322 0.000000 -0.000000 11.417322 3.937008 0.787402 11.417322 0.000000 0.787402 11.417322 3.937008 0.000000 11.417322 3.937008 0.000000 7.874016 0.000000 0.000000 7.874016 3.937008 0.000000 11.417322 0.000000 -0.000000 0.000000 3.937008 3.543307 0.000000 0.000000 3.543307 0.000000 3.937008 5.905512 0.000000 0.000000 5.905512 0.000000 0.000000 5.905512 3.937008 3.937008 5.905512 0.000000 3.937008 5.905512 3.937008 0.000000 5.905512 4.527559 1.968504 5.905512 4.606678 1.968504 5.610236 3.937008 3.937008 5.905512 4.527559 1.968504 5.905512 4.095246 3.937008 5.314961 4.822835 1.968504 5.394080 4.527559 3.937008 4.882647 5.118110 3.937008 4.724409 5.193209 1.968504 5.294838 11.023622 3.937008 4.724409 10.948524 1.968504 5.294838 11.318897 1.968504 5.394080 11.614173 3.937008 4.882647 11.535054 1.968504 5.610236 12.046487 3.937008 5.314961 11.614173 1.968504 5.905512 12.204723 3.937008 5.905512 24.409447 0.000000 5.905512 24.251211 0.000000 5.314961 23.818897 0.000000 4.882647 23.228346 0.000000 4.724409 17.322834 0.000000 4.724409 16.732285 0.000000 4.882647 16.299971 0.000000 5.314961 16.141733 0.000000 5.905512 12.046487 0.000000 5.314961 12.204723 0.000000 5.905512 11.614173 0.000000 4.882647 11.023622 0.000000 4.724409 5.118110 0.000000 4.724409 4.527559 0.000000 4.882647 4.095246 0.000000 5.314961 3.937008 0.000000 5.905512 "
									            />
								</IndexedFaceSet>
							</Shape>
						</Group>
					</Transform>
				</Transform>
				<Transform DEF="instance_4_TRANSFORM"
				           translation="47.933064 1.283501 31.530624"
				           scale="1.000000 1.000000 1.000000"
				           rotation="0.000000 0.000000 1.000000 1.570796"
				           >
					<Transform DEF="instance_4_ifs_TRANSFORM"
					           translation="0.000000 0.000000 -0.000002"
					           scale="1.000000 1.000000 1.000000"
					           rotation="0.000000 0.000000 -0.000000 0.000000"
					           >
						<Group DEF="group_ME_ID39_001">
							<Shape>
								<Appearance>
								</Appearance>
								<IndexedFaceSet solid="false"
								                coordIndex="0 1 2 -1 1 0 3 -1 4 5 6 -1 5 4 7 -1 7 4 8 -1 8 4 9 -1 9 4 10 -1 10 4 11 -1 11 4 12 -1 12 4 13 -1 14 15 16 -1 15 14 17 -1 18 19 20 -1 19 18 21 -1 21 18 22 -1 21 22 23 -1 21 23 24 -1 21 24 25 -1 21 25 26 -1 21 26 27 -1 28 29 30 -1 29 28 31 -1 32 33 34 -1 33 32 35 -1 36 37 38 -1 37 36 39 -1 40 41 42 -1 41 40 43 -1 44 45 46 -1 45 44 47 -1 48 49 50 -1 49 48 51 -1 52 53 54 -1 53 52 55 -1 56 57 58 -1 57 56 59 -1 "
								                >
									<Coordinate DEF="coords_ME_ID39_001"
									            point="3.937008 3.144641 4.891967 0.000000 3.144641 1.742360 3.937008 3.144641 1.742360 0.000000 3.144641 4.891967 0.000000 44.094631 4.688798 0.000000 3.144641 1.742360 0.000000 3.144641 4.891967 0.000000 3.932043 0.954959 0.000000 5.506846 0.430024 0.000000 7.869051 0.167557 0.000000 39.370224 -0.035611 0.000000 41.732430 0.226856 0.000000 43.522476 0.823538 0.000000 44.094631 1.539192 0.000000 3.932043 0.954959 3.937008 3.144641 1.742360 0.000000 3.144641 1.742360 3.937008 3.932043 0.954959 3.937008 3.932043 0.954959 3.937008 3.144641 4.891967 3.937008 3.144641 1.742360 3.937008 44.094631 4.688798 3.937008 5.506846 0.430024 3.937008 7.869051 0.167557 3.937008 39.370224 -0.035611 3.937008 41.732430 0.226856 3.937008 43.522476 0.823538 3.937008 44.094631 1.539192 0.000000 3.144641 4.891967 3.937008 44.094631 4.688798 0.000000 44.094631 4.688798 3.937008 3.144641 4.891967 0.000000 44.094631 4.688798 3.937008 44.094631 1.539192 0.000000 44.094631 1.539192 3.937008 44.094631 4.688798 0.000000 44.094631 1.539192 3.937008 43.522476 0.823538 0.000000 43.522476 0.823538 3.937008 44.094631 1.539192 3.937008 43.522476 0.823538 0.000000 41.732430 0.226856 0.000000 43.522476 0.823538 3.937008 41.732430 0.226856 3.937008 41.732430 0.226856 0.000000 39.370224 -0.035611 0.000000 41.732430 0.226856 3.937008 39.370224 -0.035611 0.000000 39.370224 -0.035611 3.937008 7.869051 0.167557 0.000000 7.869051 0.167557 3.937008 39.370224 -0.035611 0.000000 7.869051 0.167557 3.937008 5.506846 0.430024 0.000000 5.506846 0.430024 3.937008 7.869051 0.167557 3.937008 5.506846 0.430024 0.000000 3.932043 0.954959 0.000000 5.506846 0.430024 3.937008 3.932043 0.954959 "
									            />
								</IndexedFaceSet>
							</Shape>
						</Group>
					</Transform>
				</Transform>
				<Transform DEF="instance_5_TRANSFORM"
				           translation="39.185032 0.102399 29.168423"
				           scale="1.000000 1.000000 1.000000"
				           rotation="0.000000 0.000000 1.000000 1.570796"
				           >
					<Transform DEF="instance_5_ifs_TRANSFORM"
					           translation="0.000000 0.000008 -0.000002"
					           scale="1.000000 1.000000 1.000000"
					           rotation="0.000000 0.000000 -0.000000 0.000000"
					           >
						<Group USE="group_ME_ID23" />
					</Transform>
				</Transform>
				<Transform DEF="instance_6_TRANSFORM"
				           translation="47.933064 1.181102 2.362198"
				           scale="1.000000 1.000000 1.000000"
				           rotation="0.000000 0.000000 1.000000 1.570796"
				           >
					<Transform DEF="instance_6_ifs_TRANSFORM"
					           translation="0.000000 0.000000 -0.000004"
					           scale="1.000000 1.000000 1.000000"
					           rotation="0.000000 0.000000 -0.000000 0.000000"
					           >
						<Group DEF="group_ME_ID48">
							<Shape>
								<Appearance>
								</Appearance>
								<IndexedFaceSet solid="false"
								                coordIndex="0 1 2 -1 1 0 3 -1 4 5 6 -1 5 4 7 -1 7 4 8 -1 8 4 9 -1 9 4 10 -1 10 4 11 -1 11 4 12 -1 12 4 13 -1 14 15 16 -1 15 14 17 -1 18 19 20 -1 19 18 21 -1 21 18 22 -1 21 22 23 -1 21 23 24 -1 21 24 25 -1 21 25 26 -1 21 26 27 -1 28 29 30 -1 29 28 31 -1 32 33 34 -1 33 32 35 -1 36 37 38 -1 37 36 39 -1 40 41 42 -1 41 40 43 -1 44 45 46 -1 45 44 47 -1 48 49 50 -1 49 48 51 -1 52 53 54 -1 53 52 55 -1 56 57 58 -1 57 56 59 -1 "
								                >
									<Coordinate DEF="coords_ME_ID48"
									            point="3.937008 4.724409 4.724409 0.000000 4.724409 1.574803 3.937008 4.724409 1.574803 0.000000 4.724409 4.724409 0.000000 42.519684 4.724409 0.000000 4.724409 1.574803 0.000000 4.724409 4.724409 0.000000 5.511811 0.787402 0.000000 7.086615 0.262467 0.000000 9.448818 0.000000 0.000000 37.795273 0.000000 0.000000 40.157478 0.262467 0.000000 41.947525 0.859149 0.000000 42.519684 1.574803 0.000000 5.511811 0.787402 3.937008 4.724409 1.574803 0.000000 4.724409 1.574803 3.937008 5.511811 0.787402 3.937008 5.511811 0.787402 3.937008 4.724409 4.724409 3.937008 4.724409 1.574803 3.937008 42.519684 4.724409 3.937008 7.086615 0.262467 3.937008 9.448818 0.000000 3.937008 37.795273 0.000000 3.937008 40.157478 0.262467 3.937008 41.947525 0.859149 3.937008 42.519684 1.574803 0.000000 4.724409 4.724409 3.937008 42.519684 4.724409 0.000000 42.519684 4.724409 3.937008 4.724409 4.724409 0.000000 42.519684 4.724409 3.937008 42.519684 1.574803 0.000000 42.519684 1.574803 3.937008 42.519684 4.724409 0.000000 42.519684 1.574803 3.937008 41.947525 0.859149 0.000000 41.947525 0.859149 3.937008 42.519684 1.574803 3.937008 41.947525 0.859149 0.000000 40.157478 0.262467 0.000000 41.947525 0.859149 3.937008 40.157478 0.262467 3.937008 40.157478 0.262467 0.000000 37.795273 0.000000 0.000000 40.157478 0.262467 3.937008 37.795273 0.000000 0.000000 37.795273 0.000000 3.937008 9.448818 0.000000 0.000000 9.448818 0.000000 3.937008 37.795273 0.000000 0.000000 9.448818 0.000000 3.937008 7.086615 0.262467 0.000000 7.086615 0.262467 3.937008 9.448818 0.000000 3.937008 7.086615 0.262467 0.000000 5.511811 0.787402 0.000000 7.086615 0.262467 3.937008 5.511811 0.787402 "
									            />
								</IndexedFaceSet>
							</Shape>
						</Group>
					</Transform>
				</Transform>
				<Transform DEF="instance_7_TRANSFORM"
				           translation="12.019676 1.283501 50.156612"
				           scale="1.000000 1.000000 1.000000"
				           rotation="0.000000 1.000000 0.000000 0.000000"
				           >
					<Transform DEF="instance_7_ifs_TRANSFORM"
					           translation="-0.000015 0.000000 0.000000"
					           scale="1.000000 1.000000 1.000000"
					           rotation="0.000000 1.000000 0.000000 0.000000"
					           >
						<Group DEF="group_ME_ID56_003">
							<Shape>
								<Appearance>
								</Appearance>
								<IndexedFaceSet solid="false"
								                coordIndex="0 1 2 -1 1 0 3 -1 4 3 5 -1 3 4 1 -1 6 7 8 -1 7 6 9 -1 7 9 10 -1 7 10 11 -1 11 12 13 -1 12 11 14 -1 14 11 15 -1 15 11 10 -1 15 10 16 -1 15 16 17 -1 17 16 18 -1 17 18 19 -1 19 18 20 -1 20 18 21 -1 20 21 22 -1 22 21 23 -1 23 21 24 -1 25 26 27 -1 26 25 28 -1 28 25 29 -1 28 29 30 -1 30 29 31 -1 30 31 32 -1 32 33 30 -1 33 32 34 -1 19 35 36 -1 35 19 27 -1 27 19 20 -1 35 27 26 -1 36 35 37 -1 36 37 38 -1 36 38 39 -1 40 2 41 -1 2 40 0 -1 42 43 44 -1 43 42 45 -1 4 46 47 -1 46 4 5 -1 44 48 49 -1 48 44 43 -1 50 51 52 -1 51 50 53 -1 51 53 54 -1 55 56 57 -1 56 55 58 -1 59 60 61 -1 60 59 62 -1 63 64 65 -1 64 63 66 -1 67 68 69 -1 68 67 70 -1 71 72 73 -1 72 71 74 -1 75 76 77 -1 76 75 78 -1 79 80 81 -1 80 79 82 -1 83 84 85 -1 84 83 86 -1 87 88 89 -1 88 87 90 -1 91 92 93 -1 92 91 94 -1 95 96 97 -1 96 95 98 -1 99 100 101 -1 100 99 102 -1 103 104 105 -1 104 103 106 -1 107 108 109 -1 108 107 110 -1 111 112 113 -1 112 111 114 -1 115 116 117 -1 116 115 118 -1 118 115 119 -1 120 121 122 -1 121 120 123 -1 123 124 121 -1 124 123 125 -1 126 125 127 -1 125 126 124 -1 126 128 129 -1 128 126 127 -1 129 130 131 -1 130 129 128 -1 131 132 133 -1 132 131 130 -1 133 134 135 -1 134 133 132 -1 136 137 138 -1 137 136 139 -1 137 139 140 -1 141 142 143 -1 142 141 144 -1 145 146 147 -1 146 145 148 -1 148 145 149 -1 47 150 151 -1 150 47 46 -1 151 152 153 -1 152 151 150 -1 153 154 155 -1 154 153 152 -1 156 42 157 -1 42 156 45 -1 158 159 160 -1 159 158 161 -1 161 158 162 -1 161 162 163 -1 163 164 165 -1 164 163 166 -1 166 163 167 -1 167 163 162 -1 167 162 168 -1 167 168 169 -1 169 168 170 -1 169 170 171 -1 171 170 172 -1 172 170 173 -1 171 172 174 -1 172 173 175 -1 175 173 176 -1 176 173 177 -1 174 178 179 -1 178 174 172 -1 179 178 180 -1 179 180 181 -1 179 181 182 -1 182 181 183 -1 182 183 184 -1 184 183 185 -1 186 182 184 -1 171 187 188 -1 187 171 174 -1 188 187 189 -1 188 189 190 -1 188 190 191 -1 192 48 193 -1 48 192 49 -1 194 195 196 -1 195 194 197 -1 198 199 200 -1 199 198 201 -1 199 202 203 -1 202 199 201 -1 203 204 205 -1 204 203 202 -1 206 204 207 -1 204 206 205 -1 208 207 209 -1 207 208 206 -1 210 209 211 -1 209 210 208 -1 210 212 213 -1 212 210 211 -1 214 193 215 -1 193 214 192 -1 194 215 197 -1 215 194 214 -1 "
								                >
									<Coordinate DEF="coords_ME_ID56_003"
									            point="9.566550 1.968504 5.610236 9.645670 0.000000 4.882647 10.077983 0.000000 5.314961 9.350394 1.968504 5.394080 9.055119 0.000000 4.724409 8.980020 1.968504 5.294838 18.110235 0.000000 0.000000 14.960629 0.000000 0.787402 14.960629 0.000000 -0.000000 20.629921 0.000000 0.354331 22.519684 0.000000 1.062992 9.448818 0.000000 0.787402 6.299213 0.000000 0.000000 9.448818 0.000000 -0.000000 3.779527 0.000000 0.354331 1.889764 0.000000 1.062992 23.779526 0.000000 2.125984 0.629921 0.000000 2.125984 24.409447 0.000000 3.543307 0.000000 0.000000 3.543307 19.291338 0.000000 4.724409 24.409447 0.000000 5.905512 19.881889 0.000000 4.882647 20.314203 0.000000 5.314961 20.472441 0.000000 5.905512 14.763780 0.000000 4.882647 9.055119 0.000000 4.724409 15.354331 0.000000 4.724409 9.645670 0.000000 4.882647 14.331466 0.000000 5.314961 10.077983 0.000000 5.314961 14.173228 0.000000 5.905512 13.779528 0.000000 5.905512 10.236220 0.000000 5.905512 10.629921 0.000000 5.905512 5.118110 0.000000 4.724409 0.000000 0.000000 5.905512 4.527559 0.000000 4.882647 4.095246 0.000000 5.314961 3.937008 0.000000 5.905512 9.645670 1.968504 5.905512 10.236220 0.000000 5.905512 9.566550 1.968504 5.610236 9.645670 3.937008 4.882647 9.350394 1.968504 5.394080 10.077983 3.937008 5.314961 5.193209 1.968504 5.294838 5.118110 0.000000 4.724409 9.055119 3.937008 4.724409 8.980020 1.968504 5.294838 0.000000 0.000000 5.905512 3.937008 3.937008 5.905512 0.000000 3.937008 5.905512 3.937008 0.000000 5.905512 4.527559 1.968504 5.905512 0.000000 3.937008 5.905512 0.000000 0.000000 3.543307 0.000000 0.000000 5.905512 0.000000 3.937008 3.543307 0.000000 0.000000 3.543307 0.629921 3.937008 2.125984 0.629921 0.000000 2.125984 0.000000 3.937008 3.543307 1.889764 3.937008 1.062992 0.629921 0.000000 2.125984 0.629921 3.937008 2.125984 1.889764 0.000000 1.062992 3.779527 3.937008 0.354331 1.889764 0.000000 1.062992 1.889764 3.937008 1.062992 3.779527 0.000000 0.354331 6.299213 3.937008 0.000000 3.779527 0.000000 0.354331 3.779527 3.937008 0.354331 6.299213 0.000000 0.000000 9.448818 3.937008 0.000000 6.299213 0.000000 0.000000 6.299213 3.937008 0.000000 9.448818 0.000000 -0.000000 9.448818 0.000000 -0.000000 9.448818 3.937008 0.787402 9.448818 0.000000 0.787402 9.448818 3.937008 0.000000 9.448818 3.937008 0.787402 14.960629 0.000000 0.787402 9.448818 0.000000 0.787402 14.960629 3.937008 0.787402 14.960629 3.937008 0.787402 14.960629 0.000000 -0.000000 14.960629 0.000000 0.787402 14.960629 3.937008 0.000000 14.960629 3.937008 0.000000 18.110235 0.000000 0.000000 14.960629 0.000000 -0.000000 18.110235 3.937008 0.000000 20.629921 3.937008 0.354331 18.110235 0.000000 0.000000 18.110235 3.937008 0.000000 20.629921 0.000000 0.354331 22.519684 3.937008 1.062992 20.629921 0.000000 0.354331 20.629921 3.937008 0.354331 22.519684 0.000000 1.062992 23.779526 3.937008 2.125984 22.519684 0.000000 1.062992 22.519684 3.937008 1.062992 23.779526 0.000000 2.125984 23.779526 3.937008 2.125984 24.409447 0.000000 3.543307 23.779526 0.000000 2.125984 24.409447 3.937008 3.543307 24.409447 3.937008 3.543307 24.409447 0.000000 5.905512 24.409447 0.000000 3.543307 24.409447 3.937008 5.905512 20.472441 0.000000 5.905512 20.472441 3.937008 5.905512 19.881889 1.968504 5.905512 24.409447 3.937008 5.905512 24.409447 0.000000 5.905512 19.881889 1.968504 5.905512 20.314203 0.000000 5.314961 20.472441 0.000000 5.905512 19.802771 1.968504 5.610236 19.881889 0.000000 4.882647 19.586615 1.968504 5.394080 19.291338 0.000000 4.724409 19.216240 1.968504 5.294838 15.429428 1.968504 5.294838 15.354331 0.000000 4.724409 15.059054 1.968504 5.394080 14.763780 0.000000 4.882647 14.842898 1.968504 5.610236 14.331466 0.000000 5.314961 14.763780 1.968504 5.905512 14.173228 0.000000 5.905512 13.779528 0.000000 5.905512 14.173228 3.937008 5.905512 13.779528 3.937008 5.905512 14.173228 0.000000 5.905512 14.763780 1.968504 5.905512 10.629921 0.000000 5.905512 13.779528 3.937008 5.905512 10.629921 3.937008 5.905512 13.779528 0.000000 5.905512 10.236220 0.000000 5.905512 10.236220 3.937008 5.905512 9.645670 1.968504 5.905512 10.629921 3.937008 5.905512 10.629921 0.000000 5.905512 4.822835 1.968504 5.394080 4.527559 0.000000 4.882647 4.606678 1.968504 5.610236 4.095246 0.000000 5.314961 4.527559 1.968504 5.905512 3.937008 0.000000 5.905512 10.236220 3.937008 5.905512 9.645670 1.968504 5.905512 3.779527 3.937008 0.354331 9.448818 3.937008 0.000000 6.299213 3.937008 0.000000 9.448818 3.937008 0.787402 1.889764 3.937008 1.062992 14.960629 3.937008 0.787402 18.110235 3.937008 0.000000 14.960629 3.937008 0.000000 20.629921 3.937008 0.354331 22.519684 3.937008 1.062992 0.629921 3.937008 2.125984 23.779526 3.937008 2.125984 0.000000 3.937008 3.543307 24.409447 3.937008 3.543307 5.118110 3.937008 4.724409 0.000000 3.937008 5.905512 15.354331 3.937008 4.724409 4.527559 3.937008 4.882647 4.095246 3.937008 5.314961 3.937008 3.937008 5.905512 9.055119 3.937008 4.724409 14.763780 3.937008 4.882647 9.645670 3.937008 4.882647 10.077983 3.937008 5.314961 14.331466 3.937008 5.314961 10.236220 3.937008 5.905512 13.779528 3.937008 5.905512 10.629921 3.937008 5.905512 14.173228 3.937008 5.905512 19.291338 3.937008 4.724409 24.409447 3.937008 5.905512 19.881889 3.937008 4.882647 20.314203 3.937008 5.314961 20.472441 3.937008 5.905512 5.193209 1.968504 5.294838 5.118110 3.937008 4.724409 4.606678 1.968504 5.610236 3.937008 3.937008 5.905512 4.527559 1.968504 5.905512 4.095246 3.937008 5.314961 20.472441 3.937008 5.905512 19.802771 1.968504 5.610236 19.881889 1.968504 5.905512 20.314203 3.937008 5.314961 19.881889 3.937008 4.882647 19.586615 1.968504 5.394080 19.291338 3.937008 4.724409 19.216240 1.968504 5.294838 15.429428 1.968504 5.294838 15.354331 3.937008 4.724409 15.059054 1.968504 5.394080 14.763780 3.937008 4.882647 14.842898 1.968504 5.610236 14.331466 3.937008 5.314961 14.173228 3.937008 5.905512 14.763780 1.968504 5.905512 4.822835 1.968504 5.394080 4.527559 3.937008 4.882647 "
									            />
								</IndexedFaceSet>
							</Shape>
						</Group>
					</Transform>
				</Transform>
				<Transform DEF="instance_8_TRANSFORM"
				           translation="10.838577 0.102399 64.329842"
				           scale="1.000000 1.000000 1.000000"
				           rotation="0.000000 0.000000 1.000000 1.570796"
				           >
					<Transform DEF="instance_8_ifs_TRANSFORM"
					           translation="0.000000 0.000008 0.000002"
					           scale="1.000000 1.000000 1.000000"
					           rotation="0.000000 0.000000 -0.000000 0.000000"
					           >
						<Group USE="group_ME_ID23" />
					</Transform>
				</Transform>
				<Transform DEF="instance_9_TRANSFORM"
				           translation="43.122036 0.102399 64.329842"
				           scale="1.000000 1.000000 1.000000"
				           rotation="0.000000 0.000000 1.000000 1.570796"
				           >
					<Transform DEF="instance_9_ifs_TRANSFORM"
					           translation="0.000000 0.000004 0.000002"
					           scale="1.000000 1.000000 1.000000"
					           rotation="0.000000 0.000000 -0.000000 0.000000"
					           >
						<Group USE="group_ME_ID23" />
					</Transform>
				</Transform>
				<Transform DEF="instance_10_TRANSFORM"
				           translation="21.074799 0.102399 64.329842"
				           scale="1.000000 1.000000 1.000000"
				           rotation="0.000000 1.000000 0.000000 0.000000"
				           >
					<Transform DEF="instance_10_ifs_TRANSFORM"
					           translation="-0.000008 0.000000 0.000002"
					           scale="1.000000 1.000000 1.000000"
					           rotation="0.000000 1.000000 0.000000 0.000000"
					           >
						<Group DEF="group_ME_ID66_003">
							<Shape>
								<Appearance>
								</Appearance>
								<IndexedFaceSet solid="false"
								                coordIndex="0 1 2 -1 1 0 3 -1 4 5 6 -1 7 8 9 -1 8 7 10 -1 8 10 11 -1 11 10 5 -1 11 5 4 -1 12 13 14 -1 13 12 15 -1 15 12 16 -1 16 17 18 -1 17 16 19 -1 19 16 12 -1 20 21 22 -1 21 20 23 -1 21 23 24 -1 24 23 25 -1 25 23 26 -1 27 22 21 -1 28 29 30 -1 29 28 31 -1 31 28 32 -1 33 34 35 -1 34 33 36 -1 37 38 39 -1 38 37 40 -1 41 42 43 -1 42 41 44 -1 44 41 45 -1 45 46 47 -1 46 45 48 -1 48 45 41 -1 49 50 51 -1 50 49 52 -1 53 54 55 -1 54 53 56 -1 57 58 59 -1 58 57 60 -1 61 62 63 -1 62 61 64 -1 65 66 67 -1 66 65 68 -1 69 70 71 -1 70 69 72 -1 73 74 75 -1 74 73 76 -1 77 78 79 -1 78 77 80 -1 80 77 81 -1 81 77 82 -1 83 84 85 -1 84 83 86 -1 56 87 54 -1 87 56 88 -1 89 76 73 -1 76 89 90 -1 79 91 92 -1 91 79 93 -1 93 79 80 -1 80 79 78 -1 85 94 95 -1 94 85 84 -1 88 96 87 -1 96 88 97 -1 98 90 89 -1 90 98 99 -1 92 100 101 -1 100 92 93 -1 93 92 91 -1 95 102 103 -1 102 95 94 -1 104 105 106 -1 105 104 107 -1 "
								                >
									<Coordinate DEF="coords_ME_ID66_003"
									            point="6.299213 5.118110 3.937008 0.000000 6.299213 3.937008 0.000000 5.118110 3.937008 6.299213 6.299213 3.937008 0.000000 6.299213 3.937008 0.000000 5.118110 2.362205 0.000000 5.118110 3.937008 0.000000 1.181102 3.937008 0.000000 0.000000 1.574803 0.000000 0.000000 3.937008 0.000000 1.181102 2.362205 0.000000 6.299213 1.574803 6.299213 5.118110 3.937008 5.511811 5.118110 2.362205 6.299213 5.118110 2.362205 5.511811 5.118110 3.149606 0.787402 5.118110 3.149606 0.000000 5.118110 2.362205 0.787402 5.118110 2.362205 0.000000 5.118110 3.937008 6.299213 0.000000 1.574803 6.299213 1.181102 2.362205 6.299213 0.000000 3.937008 6.299213 6.299213 1.574803 6.299213 5.118110 2.362205 6.299213 5.118110 3.937008 6.299213 6.299213 3.937008 6.299213 1.181102 3.937008 0.000000 6.299213 3.937008 0.787402 6.299213 1.574803 0.000000 6.299213 1.574803 6.299213 6.299213 1.574803 6.299213 6.299213 3.937008 6.299213 0.000000 3.937008 0.000000 0.000000 1.574803 6.299213 0.000000 1.574803 0.000000 0.000000 3.937008 6.299213 0.000000 3.937008 0.000000 1.181102 3.937008 0.000000 0.000000 3.937008 6.299213 1.181102 3.937008 0.000000 1.181102 3.937008 0.787402 1.181102 2.362205 0.000000 1.181102 2.362205 0.787402 1.181102 3.149606 5.511811 1.181102 3.149606 6.299213 1.181102 2.362205 5.511811 1.181102 2.362205 6.299213 1.181102 3.937008 0.787402 1.181102 2.362205 0.000000 5.118110 2.362205 0.000000 1.181102 2.362205 0.787402 5.118110 2.362205 0.000000 6.299213 1.574803 0.414843 0.414843 1.135672 0.000000 0.000000 1.574803 0.414843 5.884369 1.135672 0.787402 5.118110 3.149606 0.787402 1.181102 2.362205 0.787402 1.181102 3.149606 0.787402 5.118110 2.362205 5.511811 1.181102 3.149606 0.787402 5.118110 3.149606 0.787402 1.181102 3.149606 5.511811 5.118110 3.149606 5.511811 5.118110 2.362205 5.511811 1.181102 3.149606 5.511811 1.181102 2.362205 5.511811 5.118110 3.149606 6.299213 1.181102 2.362205 5.511811 5.118110 2.362205 5.511811 1.181102 2.362205 6.299213 5.118110 2.362205 5.884369 0.414843 1.135672 6.299213 6.299213 1.574803 6.299213 0.000000 1.574803 5.884369 5.884369 1.135672 0.000000 6.299213 1.574803 0.787402 5.884369 1.135672 0.414843 5.884369 1.135672 5.884369 5.884369 1.135672 6.299213 6.299213 1.574803 0.787402 6.299213 1.574803 6.299213 0.000000 1.574803 0.414843 0.414843 1.135672 5.884369 0.414843 1.135672 0.000000 0.000000 1.574803 0.685003 0.685003 0.595353 0.685003 5.614210 0.595353 5.614210 0.685003 0.595353 5.614210 5.614210 0.595353 0.787402 5.614210 0.595353 0.685003 5.614210 0.595353 5.614210 5.614210 0.595353 0.685003 0.685003 0.595353 5.614210 0.685003 0.595353 0.787402 0.787402 0.000000 0.787402 5.511811 0.000000 5.511811 0.787402 0.000000 5.511811 5.511811 0.000000 5.511811 5.511811 0.000000 0.787402 5.511811 0.000000 0.787402 0.787402 0.000000 5.511811 0.787402 0.000000 5.511811 5.511811 0.000000 0.787402 0.787402 0.000000 0.787402 5.511811 0.000000 5.511811 0.787402 0.000000 "
									            />
								</IndexedFaceSet>
							</Shape>
						</Group>
					</Transform>
				</Transform>
				<Transform DEF="instance_11_TRANSFORM"
				           translation="6.114159 1.283501 58.424328"
				           scale="1.000000 1.000000 1.000000"
				           rotation="0.000000 1.000000 0.000000 0.000000"
				           >
					<Transform DEF="instance_11_ifs_TRANSFORM"
					           translation="-0.000015 0.000000 0.000001"
					           scale="1.000000 1.000000 1.000000"
					           rotation="0.000000 1.000000 0.000000 0.000000"
					           >
						<Group DEF="group_ME_ID74_001">
							<Shape>
								<Appearance>
								</Appearance>
								<IndexedFaceSet solid="false"
								                coordIndex="0 1 2 -1 1 0 3 -1 4 5 6 -1 5 4 7 -1 5 7 8 -1 5 8 9 -1 9 8 10 -1 10 11 12 -1 11 10 13 -1 13 10 14 -1 14 10 8 -1 14 8 15 -1 14 15 16 -1 16 15 17 -1 16 17 18 -1 18 17 19 -1 19 17 20 -1 19 20 21 -1 21 20 22 -1 22 20 23 -1 24 25 26 -1 25 24 27 -1 27 24 28 -1 27 28 29 -1 29 28 30 -1 29 30 31 -1 31 30 32 -1 31 32 33 -1 18 34 35 -1 34 18 19 -1 34 19 26 -1 34 26 25 -1 35 34 36 -1 35 36 37 -1 35 37 38 -1 39 40 41 -1 40 39 42 -1 43 44 45 -1 44 43 46 -1 46 43 47 -1 46 47 48 -1 48 47 49 -1 49 50 51 -1 50 49 52 -1 52 49 53 -1 53 49 47 -1 53 47 54 -1 53 54 55 -1 55 54 56 -1 55 56 57 -1 57 56 58 -1 58 56 59 -1 58 59 60 -1 60 59 61 -1 61 59 62 -1 63 64 65 -1 64 63 66 -1 66 63 67 -1 66 67 68 -1 68 67 69 -1 68 69 70 -1 70 69 71 -1 70 71 72 -1 57 73 74 -1 73 57 58 -1 73 58 65 -1 73 65 64 -1 74 73 75 -1 74 75 76 -1 74 76 77 -1 78 79 80 -1 79 78 81 -1 82 83 84 -1 83 82 85 -1 85 82 86 -1 87 88 89 -1 88 87 90 -1 90 91 88 -1 91 90 92 -1 93 92 94 -1 92 93 91 -1 93 95 96 -1 95 93 94 -1 96 97 98 -1 97 96 95 -1 98 99 100 -1 99 98 97 -1 100 101 102 -1 101 100 99 -1 103 104 105 -1 104 103 106 -1 104 106 107 -1 108 109 110 -1 109 108 111 -1 112 113 114 -1 113 112 115 -1 116 117 118 -1 117 116 119 -1 120 121 122 -1 121 120 123 -1 124 125 126 -1 125 124 127 -1 128 129 130 -1 129 128 131 -1 132 133 134 -1 133 132 135 -1 136 137 138 -1 137 136 139 -1 140 141 142 -1 141 140 143 -1 144 145 146 -1 145 144 147 -1 148 149 150 -1 149 148 151 -1 152 153 154 -1 153 152 155 -1 156 157 158 -1 157 156 159 -1 160 161 162 -1 161 160 163 -1 163 160 164 -1 165 166 167 -1 166 165 168 -1 166 169 170 -1 169 166 168 -1 171 169 172 -1 169 171 170 -1 171 173 174 -1 173 171 172 -1 174 175 176 -1 175 174 173 -1 176 177 178 -1 177 176 175 -1 178 179 180 -1 179 178 177 -1 181 182 183 -1 182 181 184 -1 182 184 185 -1 86 183 85 -1 183 86 181 -1 186 187 188 -1 187 186 189 -1 186 190 189 -1 190 186 191 -1 191 192 190 -1 192 191 193 -1 193 194 192 -1 194 193 195 -1 196 194 195 -1 194 196 197 -1 198 197 196 -1 197 198 199 -1 200 198 201 -1 198 200 199 -1 202 203 204 -1 203 202 205 -1 206 202 207 -1 202 206 205 -1 207 208 206 -1 208 207 209 -1 209 210 208 -1 210 209 211 -1 212 210 211 -1 210 212 213 -1 214 213 212 -1 213 214 215 -1 216 214 217 -1 214 216 215 -1 "
								                >
									<Coordinate DEF="coords_ME_ID74_001"
									            point="34.803150 3.937008 1.062992 35.748028 0.000000 2.125984 34.803150 0.000000 1.062992 35.748028 3.937008 2.125984 31.496063 0.000000 0.000000 20.472441 0.000000 0.787402 20.472441 0.000000 -0.000000 33.385826 0.000000 0.354331 34.803150 0.000000 1.062992 18.110235 0.000000 0.787402 15.748032 0.000000 0.787402 4.724409 0.000000 0.000000 15.748032 0.000000 -0.000000 2.834646 0.000000 0.354331 1.417323 0.000000 1.062992 35.748028 0.000000 2.125984 0.472441 0.000000 2.125984 36.220470 0.000000 3.543307 0.000000 0.000000 3.543307 31.102362 0.000000 4.724409 36.220470 0.000000 5.905512 31.692911 0.000000 4.882647 32.125229 0.000000 5.314961 32.283466 0.000000 5.905512 20.669291 0.000000 4.882647 14.960629 0.000000 4.724409 21.259842 0.000000 4.724409 15.551181 0.000000 4.882647 20.236977 0.000000 5.314961 15.983494 0.000000 5.314961 20.078739 0.000000 5.905512 16.141733 0.000000 5.905512 19.685040 0.000000 5.905512 16.535433 0.000000 5.905512 5.118110 0.000000 4.724409 0.000000 0.000000 5.905512 4.527559 0.000000 4.882647 4.095246 0.000000 5.314961 3.937008 0.000000 5.905512 34.803150 3.937008 1.062992 33.385826 0.000000 0.354331 33.385826 3.937008 0.354331 34.803150 0.000000 1.062992 2.834646 3.937008 0.354331 15.748032 3.937008 0.000000 4.724409 3.937008 0.000000 15.748032 3.937008 0.787402 1.417323 3.937008 1.062992 18.110235 3.937008 0.787402 20.472441 3.937008 0.787402 31.496063 3.937008 0.000000 20.472441 3.937008 0.000000 33.385826 3.937008 0.354331 34.803150 3.937008 1.062992 0.472441 3.937008 2.125984 35.748028 3.937008 2.125984 0.000000 3.937008 3.543307 36.220470 3.937008 3.543307 5.118110 3.937008 4.724409 0.000000 3.937008 5.905512 4.527559 3.937008 4.882647 4.095246 3.937008 5.314961 3.937008 3.937008 5.905512 15.551181 3.937008 4.882647 21.259842 3.937008 4.724409 14.960629 3.937008 4.724409 20.669291 3.937008 4.882647 15.983494 3.937008 5.314961 20.236977 3.937008 5.314961 16.141733 3.937008 5.905512 20.078741 3.937008 5.905512 16.535433 3.937008 5.905512 19.685040 3.937008 5.905512 31.102362 3.937008 4.724409 36.220470 3.937008 5.905512 31.692911 3.937008 4.882647 32.125229 3.937008 5.314961 32.283466 3.937008 5.905512 35.748028 3.937008 2.125984 36.220470 0.000000 3.543307 35.748028 0.000000 2.125984 36.220470 3.937008 3.543307 16.141733 0.000000 5.905512 16.141733 3.937008 5.905512 15.551181 1.968504 5.905512 16.535433 3.937008 5.905512 16.535433 0.000000 5.905512 15.551181 1.968504 5.905512 15.983494 0.000000 5.314961 16.141733 0.000000 5.905512 15.472062 1.968504 5.610236 15.551181 0.000000 4.882647 15.255905 1.968504 5.394080 14.960629 0.000000 4.724409 14.885530 1.968504 5.294838 5.193209 1.968504 5.294838 5.118110 0.000000 4.724409 4.822835 1.968504 5.394080 4.527559 0.000000 4.882647 4.606678 1.968504 5.610236 4.095246 0.000000 5.314961 4.527559 1.968504 5.905512 3.937008 0.000000 5.905512 0.000000 0.000000 5.905512 3.937008 3.937008 5.905512 0.000000 3.937008 5.905512 3.937008 0.000000 5.905512 4.527559 1.968504 5.905512 0.000000 3.937008 5.905512 0.000000 0.000000 3.543307 0.000000 0.000000 5.905512 0.000000 3.937008 3.543307 0.000000 0.000000 3.543307 0.472441 3.937008 2.125984 0.472441 0.000000 2.125984 0.000000 3.937008 3.543307 0.472441 0.000000 2.125984 1.417323 3.937008 1.062992 1.417323 0.000000 1.062992 0.472441 3.937008 2.125984 2.834646 3.937008 0.354331 1.417323 0.000000 1.062992 1.417323 3.937008 1.062992 2.834646 0.000000 0.354331 4.724409 3.937008 0.000000 2.834646 0.000000 0.354331 2.834646 3.937008 0.354331 4.724409 0.000000 0.000000 15.748032 3.937008 0.000000 4.724409 0.000000 0.000000 4.724409 3.937008 0.000000 15.748032 0.000000 -0.000000 15.748032 0.000000 -0.000000 15.748032 3.937008 0.787402 15.748032 0.000000 0.787402 15.748032 3.937008 0.000000 18.110235 3.937008 0.787402 15.748032 0.000000 0.787402 15.748032 3.937008 0.787402 18.110235 0.000000 0.787402 20.472441 3.937008 0.787402 18.110235 0.000000 0.787402 18.110235 3.937008 0.787402 20.472441 0.000000 0.787402 20.472441 3.937008 0.787402 20.472441 0.000000 -0.000000 20.472441 0.000000 0.787402 20.472441 3.937008 0.000000 31.496063 3.937008 0.000000 20.472441 0.000000 -0.000000 20.472441 3.937008 0.000000 31.496063 0.000000 0.000000 33.385826 3.937008 0.354331 31.496063 0.000000 0.000000 31.496063 3.937008 0.000000 33.385826 0.000000 0.354331 36.220470 3.937008 3.543307 36.220470 0.000000 5.905512 36.220470 0.000000 3.543307 36.220470 3.937008 5.905512 32.283466 0.000000 5.905512 32.283466 3.937008 5.905512 31.692911 1.968504 5.905512 36.220470 3.937008 5.905512 36.220470 0.000000 5.905512 31.692911 1.968504 5.905512 32.125229 0.000000 5.314961 32.283466 0.000000 5.905512 31.613794 1.968504 5.610236 31.397638 1.968504 5.394080 31.692911 0.000000 4.882647 31.102362 0.000000 4.724409 31.027266 1.968504 5.294838 21.334942 1.968504 5.294838 21.259842 0.000000 4.724409 20.964567 1.968504 5.394080 20.669291 0.000000 4.882647 20.748409 1.968504 5.610236 20.236977 0.000000 5.314961 20.669291 1.968504 5.905512 20.078739 0.000000 5.905512 19.685040 0.000000 5.905512 20.078741 3.937008 5.905512 19.685040 3.937008 5.905512 20.078739 0.000000 5.905512 20.669291 1.968504 5.905512 20.748409 1.968504 5.610236 20.078741 3.937008 5.905512 20.669291 1.968504 5.905512 20.236977 3.937008 5.314961 20.669291 3.937008 4.882647 20.964567 1.968504 5.394080 21.259842 3.937008 4.724409 21.334942 1.968504 5.294838 31.102362 3.937008 4.724409 31.027266 1.968504 5.294838 31.397638 1.968504 5.394080 31.692911 3.937008 4.882647 31.613794 1.968504 5.610236 32.125229 3.937008 5.314961 32.283466 3.937008 5.905512 31.692911 1.968504 5.905512 4.606678 1.968504 5.610236 3.937008 3.937008 5.905512 4.527559 1.968504 5.905512 4.095246 3.937008 5.314961 4.527559 3.937008 4.882647 4.822835 1.968504 5.394080 5.118110 3.937008 4.724409 5.193209 1.968504 5.294838 14.960629 3.937008 4.724409 14.885530 1.968504 5.294838 15.255905 1.968504 5.394080 15.551181 3.937008 4.882647 15.472062 1.968504 5.610236 15.983494 3.937008 5.314961 16.141733 3.937008 5.905512 15.551181 1.968504 5.905512 "
									            />
								</IndexedFaceSet>
							</Shape>
						</Group>
					</Transform>
				</Transform>
				<Transform DEF="instance_12_TRANSFORM"
				           translation="27.767708 0.102399 47.794407"
				           scale="1.000000 1.000000 1.000000"
				           rotation="0.000000 0.000000 1.000000 1.570796"
				           >
					<Transform DEF="instance_12_ifs_TRANSFORM"
					           translation="0.000000 0.000008 0.000000"
					           scale="1.000000 1.000000 1.000000"
					           rotation="0.000000 0.000000 -0.000000 0.000000"
					           >
						<Group USE="group_ME_ID5_004" />
					</Transform>
				</Transform>
				<Transform DEF="instance_13_TRANSFORM"
				           translation="21.074799 0.102399 56.062119"
				           scale="1.000000 1.000000 1.000000"
				           rotation="0.000000 1.000000 0.000000 0.000000"
				           >
					<Transform DEF="instance_13_ifs_TRANSFORM"
					           translation="-0.000008 0.000000 0.000000"
					           scale="1.000000 1.000000 1.000000"
					           rotation="0.000000 1.000000 0.000000 0.000000"
					           >
						<Group USE="group_ME_ID66_003" />
					</Transform>
				</Transform>
				<Transform DEF="instance_14_TRANSFORM"
				           translation="16.744080 0.102399 56.062119"
				           scale="1.000000 1.000000 1.000000"
				           rotation="0.000000 0.000000 1.000000 1.570796"
				           >
					<Transform DEF="instance_14_ifs_TRANSFORM"
					           translation="0.000000 0.000008 0.000000"
					           scale="1.000000 1.000000 1.000000"
					           rotation="0.000000 0.000000 -0.000000 0.000000"
					           >
						<Group USE="group_ME_ID23" />
					</Transform>
				</Transform>
				<Transform DEF="instance_15_TRANSFORM"
				           translation="48.425186 1.283501 66.692047"
				           scale="1.000000 1.000000 1.000000"
				           rotation="0.000000 0.000000 1.000000 1.570796"
				           >
					<Transform DEF="instance_15_ifs_TRANSFORM"
					           translation="0.000000 0.000004 0.000004"
					           scale="1.000000 1.000000 1.000000"
					           rotation="0.000000 0.000000 -0.000000 0.000000"
					           >
						<Group DEF="group_ME_ID85">
							<Shape>
								<Appearance>
								</Appearance>
								<IndexedFaceSet solid="false"
								                coordIndex="0 1 2 -1 1 0 3 -1 4 5 6 -1 5 4 7 -1 7 4 8 -1 8 4 9 -1 9 4 10 -1 10 4 11 -1 11 4 12 -1 12 4 13 -1 14 15 16 -1 15 14 17 -1 18 19 20 -1 19 18 21 -1 21 18 22 -1 21 22 23 -1 21 23 24 -1 21 24 25 -1 21 25 26 -1 21 26 27 -1 28 29 30 -1 29 28 31 -1 32 33 34 -1 33 32 35 -1 36 37 38 -1 37 36 39 -1 40 41 42 -1 41 40 43 -1 44 45 46 -1 45 44 47 -1 48 49 50 -1 49 48 51 -1 52 53 54 -1 53 52 55 -1 56 57 58 -1 57 56 59 -1 "
								                >
									<Coordinate DEF="coords_ME_ID85"
									            point="3.937008 -1.181102 4.724409 0.000000 -1.181102 1.574803 3.937008 -1.181102 1.574803 0.000000 -1.181102 4.724409 0.000000 48.425194 4.724409 0.000000 -1.181102 1.574803 0.000000 -1.181102 4.724409 0.000000 -0.393701 0.787402 0.000000 1.181102 0.262467 0.000000 3.543307 0.000000 0.000000 43.700787 0.000000 0.000000 46.062992 0.262467 0.000000 47.853039 0.859149 0.000000 48.425194 1.574803 0.000000 -0.393701 0.787402 3.937008 -1.181102 1.574803 0.000000 -1.181102 1.574803 3.937008 -0.393701 0.787402 3.937008 -0.393701 0.787402 3.937008 -1.181102 4.724409 3.937008 -1.181102 1.574803 3.937008 48.425198 4.724409 3.937008 1.181102 0.262467 3.937008 3.543307 0.000000 3.937008 43.700787 0.000000 3.937008 46.062992 0.262467 3.937008 47.853039 0.859149 3.937008 48.425198 1.574803 3.937008 -1.181102 4.724409 0.000000 48.425194 4.724409 0.000000 -1.181102 4.724409 3.937008 48.425198 4.724409 0.000000 48.425194 4.724409 3.937008 48.425198 1.574803 0.000000 48.425194 1.574803 3.937008 48.425198 4.724409 0.000000 48.425194 1.574803 3.937008 47.853039 0.859149 0.000000 47.853039 0.859149 3.937008 48.425198 1.574803 3.937008 47.853039 0.859149 0.000000 46.062992 0.262467 0.000000 47.853039 0.859149 3.937008 46.062992 0.262467 3.937008 46.062992 0.262467 0.000000 43.700787 0.000000 0.000000 46.062992 0.262467 3.937008 43.700787 0.000000 0.000000 43.700787 0.000000 3.937008 3.543307 0.000000 0.000000 3.543307 0.000000 3.937008 43.700787 0.000000 0.000000 3.543307 0.000000 3.937008 1.181102 0.262467 0.000000 1.181102 0.262467 3.937008 3.543307 0.000000 3.937008 1.181102 0.262467 0.000000 -0.393701 0.787402 0.000000 1.181102 0.262467 3.937008 -0.393701 0.787402 "
									            />
								</IndexedFaceSet>
							</Shape>
						</Group>
					</Transform>
				</Transform>
				<Transform DEF="instance_15_001_TRANSFORM"
				           translation="48.425186 1.283501 66.692047"
				           scale="1.000000 1.000000 1.000000"
				           rotation="0.000000 0.000000 1.000000 1.570796"
				           >
					<Transform DEF="instance_15_001_ifs_TRANSFORM"
					           translation="0.000000 0.000004 0.000004"
					           scale="1.000000 1.000000 1.000000"
					           rotation="0.000000 0.000000 -0.000000 0.000000"
					           >
						<Group DEF="group_ME_ID91_001">
						</Group>
					</Transform>
				</Transform>
				<Transform DEF="instance_16_TRANSFORM"
				           translation="37.216526 0.111981 56.062119"
				           scale="1.000000 1.000000 1.000000"
				           rotation="0.000000 0.000000 1.000000 1.570796"
				           >
					<Transform DEF="instance_16_ifs_TRANSFORM"
					           translation="0.000000 0.000000 0.000000"
					           scale="1.000000 1.000000 1.000000"
					           rotation="0.000000 0.000000 -0.000000 0.000000"
					           >
						<Group USE="group_ME_ID23" />
					</Transform>
				</Transform>
				<Transform DEF="instance_17_TRANSFORM"
				           translation="27.767708 0.000000 -0.000004"
				           scale="1.000000 1.000000 1.000000"
				           rotation="0.000000 0.000000 1.000000 1.570796"
				           >
					<Transform DEF="instance_17_ifs_TRANSFORM"
					           translation="0.000000 0.000008 -0.000004"
					           scale="1.000000 1.000000 1.000000"
					           rotation="0.000000 0.000000 -0.000000 0.000000"
					           >
						<Group USE="group_ME_ID5_004" />
					</Transform>
				</Transform>
			</Transform>
		</Transform>
	</Scene>
</X3D>