<?xml version="1.0" encoding="UTF-8"?>
<!DOCTYPE X3D PUBLIC "ISO//Web3D//DTD X3D 3.0//EN" "http://www.web3d.org/specifications/x3d-3.0.dtd">
<X3D version="3.0" profile="Immersive" xmlns:xsd="http://www.w3.org/2001/XMLSchema-instance" xsd:noNamespaceSchemaLocation="http://www.web3d.org/specifications/x3d-3.0.xsd">
	<head>
		<meta name="filename" content="25-1.x3d" />
		<meta name="created" content="2025-12-29 13:57:51" />
		<meta name="generator" content="Blender 4.2.2 LTS" />
		<meta name="translator" content="Web3D X3D/VRML2 format v2.5.1" />
	</head>
	<Scene>
		<NavigationInfo headlight="true"
		                visibilityLimit="0.0"
		                type='"EXAMINE", "ANY"'
		                avatarSize="0.25, 1.75, 0.75"
		                />
		<Background DEF="WO_World"
		            groundColor="0.051 0.051 0.051"
		            skyColor="0.051 0.051 0.051"
		            />
		<Transform DEF="SketchUp_TRANSFORM"
		           translation="0.000000 0.000000 0.000000"
		           scale="0.025400 0.025400 0.025400"
		           rotation="-1.000000 0.000000 0.000000 1.570796"
		           >
			<Transform DEF="group_0_TRANSFORM"
			           translation="3.484209 -14.282850 -8.229157"
			           scale="1.000000 1.000000 1.000000"
			           rotation="1.000001 0.000000 0.000000 0.296706"
			           >
				<Transform DEF="group_1_TRANSFORM"
				           translation="3.061133 -0.000001 9.124125"
				           scale="1.000000 1.000000 1.000000"
				           rotation="0.000000 1.000000 0.000000 0.000000"
				           >
					<Transform DEF="group_2_TRANSFORM"
					           translation="0.590551 18.037401 3.937008"
					           scale="1.000000 1.000000 1.100000"
					           rotation="-0.000000 0.000000 0.000000 0.000000"
					           >
						<Transform DEF="group_2_ifs_TRANSFORM"
						           translation="0.000000 0.000000 -0.000001"
						           scale="1.000000 1.000000 1.000000"
						           rotation="-0.000000 0.000000 0.000000 0.000000"
						           >
							<Group DEF="group_ME_ID5_006">
								<Shape>
									<Appearance>
										<Material DEF="MA_material_018"
										          diffuseColor="1.000 1.000 1.000"
										          specularColor="0.401 0.401 0.401"
										          emissiveColor="0.000 0.000 0.000"
										          ambientIntensity="0.000"
										          shininess="0.500"
										          transparency="0.000"
										          />
									</Appearance>
									<IndexedFaceSet solid="false"
									                coordIndex="0 1 2 -1 1 0 3 -1 4 5 6 -1 5 4 7 -1 8 9 10 -1 9 8 11 -1 12 13 14 -1 13 12 15 -1 16 17 18 -1 17 16 19 -1 20 21 22 -1 21 20 23 -1 "
									                >
										<Coordinate DEF="coords_ME_ID5_006"
										            point="3.149606 3.346457 0.000000 3.149606 0.000000 3.149606 3.149606 0.000000 0.000000 3.149606 0.643589 3.149606 3.149606 0.000000 3.149606 -0.354331 0.643589 3.149606 -0.354331 0.000000 3.149606 3.149606 0.643589 3.149606 3.149606 0.000000 3.149606 -0.354331 0.000000 0.000000 3.149606 0.000000 0.000000 -0.354331 0.000000 3.149606 3.149606 3.346457 0.000000 -0.354331 0.000000 0.000000 -0.354331 3.346457 0.000000 3.149606 0.000000 0.000000 -0.354331 0.643589 3.149606 3.149606 3.346457 0.000000 -0.354331 3.346457 0.000000 3.149606 0.643589 3.149606 -0.354331 0.643589 3.149606 -0.354331 0.000000 0.000000 -0.354331 0.000000 3.149606 -0.354331 3.346457 0.000000 "
										            />
									</IndexedFaceSet>
								</Shape>
							</Group>
						</Transform>
					</Transform>
					<Transform DEF="group_3_TRANSFORM"
					           translation="0.000000 18.428427 0.019467"
					           scale="1.000000 1.000000 1.000000"
					           rotation="1.000007 0.000000 0.000000 0.099483"
					           >
						<Transform DEF="group_3_ifs_TRANSFORM"
						           translation="-0.000000 0.000000 0.000001"
						           scale="1.000000 1.000000 1.000000"
						           rotation="0.000000 1.000000 0.000000 0.000000"
						           >
							<Group DEF="group_ME_ID14_005">
								<Shape>
									<Appearance>
										<Material USE="MA_material_018" />
									</Appearance>
									<IndexedFaceSet solid="false"
									                coordIndex="0 1 2 -1 1 0 3 -1 4 5 6 -1 5 4 7 -1 7 4 8 -1 7 8 9 -1 9 8 10 -1 9 10 11 -1 11 10 12 -1 11 12 13 -1 13 12 14 -1 13 14 15 -1 15 14 16 -1 15 16 17 -1 15 17 18 -1 18 17 19 -1 19 17 20 -1 19 20 21 -1 21 20 22 -1 21 22 23 -1 21 23 24 -1 24 23 25 -1 25 23 26 -1 25 26 27 -1 2 28 29 -1 28 2 1 -1 30 31 32 -1 31 30 33 -1 31 33 34 -1 34 33 35 -1 34 35 36 -1 36 35 37 -1 36 37 38 -1 38 37 39 -1 38 39 40 -1 40 39 41 -1 40 41 42 -1 42 41 43 -1 42 43 44 -1 44 43 45 -1 44 45 46 -1 46 45 47 -1 46 47 48 -1 48 47 49 -1 48 49 50 -1 50 49 51 -1 50 51 52 -1 52 51 53 -1 54 3 0 -1 3 54 55 -1 56 57 58 -1 57 56 59 -1 58 60 61 -1 60 58 57 -1 61 62 63 -1 62 61 60 -1 62 64 63 -1 64 62 65 -1 65 66 64 -1 66 65 67 -1 67 68 66 -1 68 67 69 -1 69 70 68 -1 70 69 71 -1 71 72 70 -1 72 71 73 -1 73 74 72 -1 74 73 75 -1 76 74 75 -1 74 76 77 -1 29 77 76 -1 77 29 28 -1 78 55 54 -1 55 78 79 -1 78 80 79 -1 80 78 81 -1 81 82 80 -1 82 81 83 -1 83 84 82 -1 84 83 85 -1 85 86 84 -1 86 85 87 -1 87 88 86 -1 88 87 89 -1 89 90 88 -1 90 89 91 -1 90 92 93 -1 92 90 91 -1 93 94 95 -1 94 93 92 -1 95 59 56 -1 59 95 94 -1 "
									                >
										<Coordinate DEF="coords_ME_ID14_005"
										            point="2.477990 16.811024 0.067075 1.968504 0.000000 0.000000 1.968504 16.811024 0.000000 2.477990 0.000000 0.067075 2.477990 0.000000 0.067075 1.459018 0.000000 0.067075 1.968504 0.000000 0.000000 0.984252 0.000000 0.263730 2.952756 0.000000 0.263730 0.576561 0.000000 0.576561 3.360446 0.000000 0.576561 0.263730 0.000000 0.984252 3.673278 0.000000 0.984252 0.067075 0.000000 1.459018 3.869933 0.000000 1.459018 0.000000 0.000000 1.968504 3.937008 0.000000 1.968504 3.869933 0.000000 2.477990 0.067075 0.000000 2.477990 0.263730 0.000000 2.952756 3.673278 0.000000 2.952756 0.576561 0.000000 3.360446 3.360446 0.000000 3.360446 2.952756 0.000000 3.673278 0.984252 0.000000 3.673278 1.459018 0.000000 3.869933 2.477990 0.000000 3.869933 1.968504 0.000000 3.937008 1.459018 0.000000 0.067075 1.459018 16.811024 0.067075 1.459018 16.811024 0.067075 2.477990 16.811024 0.067075 1.968504 16.811024 0.000000 0.984252 16.811024 0.263730 2.952756 16.811024 0.263730 0.576561 16.811024 0.576561 3.360446 16.811024 0.576561 0.263730 16.811024 0.984252 3.673278 16.811024 0.984252 0.067075 16.811024 1.459018 3.869933 16.811024 1.459018 0.000000 16.811024 1.968504 3.937008 16.811024 1.968504 0.067075 16.811024 2.477990 3.869933 16.811024 2.477990 0.263730 16.811024 2.952756 3.673278 16.811024 2.952756 0.576561 16.811024 3.360446 3.360446 16.811024 3.360446 0.984252 16.811024 3.673278 2.952756 16.811024 3.673278 1.459018 16.811024 3.869933 2.477990 16.811024 3.869933 1.968504 16.811024 3.937008 2.952756 16.811024 0.263730 2.952756 0.000000 0.263730 1.968504 0.000000 3.937008 1.459018 16.811024 3.869933 1.459018 0.000000 3.869933 1.968504 16.811024 3.937008 0.984252 16.811024 3.673278 0.984252 0.000000 3.673278 0.576561 16.811024 3.360446 0.576561 0.000000 3.360446 0.263730 0.000000 2.952756 0.263730 16.811024 2.952756 0.067075 0.000000 2.477990 0.067075 16.811024 2.477990 0.000000 0.000000 1.968504 0.000000 16.811024 1.968504 0.067075 0.000000 1.459018 0.067075 16.811024 1.459018 0.263730 0.000000 0.984252 0.263730 16.811024 0.984252 0.576561 0.000000 0.576561 0.576561 16.811024 0.576561 0.984252 16.811024 0.263730 0.984252 0.000000 0.263730 3.360446 16.811024 0.576561 3.360446 0.000000 0.576561 3.673278 0.000000 0.984252 3.673278 16.811024 0.984252 3.869933 0.000000 1.459018 3.869933 16.811024 1.459018 3.937008 0.000000 1.968504 3.937008 16.811024 1.968504 3.869933 0.000000 2.477990 3.869933 16.811024 2.477990 3.673278 0.000000 2.952756 3.673278 16.811024 2.952756 3.360446 0.000000 3.360446 3.360446 16.811024 3.360446 2.952756 16.811024 3.673278 2.952756 0.000000 3.673278 2.477990 16.811024 3.869933 2.477990 0.000000 3.869933 "
										            />
									</IndexedFaceSet>
								</Shape>
							</Group>
						</Transform>
					</Transform>
					<Transform DEF="group_4_TRANSFORM"
					           translation="0.590551 0.000001 3.937008"
					           scale="1.000000 1.000000 1.000000"
					           rotation="0.000000 1.000000 0.000000 0.000000"
					           >
						<Transform DEF="group_4_ifs_TRANSFORM"
						           translation="0.000001 0.000001 0.000000"
						           scale="1.000000 1.000000 1.000000"
						           rotation="0.000000 1.000000 0.000000 0.000000"
						           >
							<Group DEF="group_ME_ID21_003">
								<Shape>
									<Appearance>
										<Material USE="MA_material_018" />
									</Appearance>
									<IndexedFaceSet solid="false"
									                coordIndex="0 1 2 -1 1 0 3 -1 4 5 6 -1 5 4 7 -1 8 9 10 -1 9 8 11 -1 11 8 12 -1 12 8 13 -1 14 3 0 -1 3 14 15 -1 15 14 16 -1 17 18 19 -1 18 17 20 -1 20 17 21 -1 20 21 22 -1 20 22 23 -1 20 23 24 -1 20 24 25 -1 20 25 26 -1 20 26 27 -1 28 29 30 -1 29 28 31 -1 32 31 28 -1 31 32 33 -1 33 32 34 -1 35 36 37 -1 36 35 10 -1 10 35 8 -1 8 35 38 -1 39 15 16 -1 15 39 40 -1 40 39 41 -1 42 43 44 -1 43 42 45 -1 45 42 46 -1 46 42 47 -1 44 34 32 -1 34 44 48 -1 48 44 43 -1 49 40 41 -1 40 49 50 -1 50 49 51 -1 52 50 51 -1 50 52 53 -1 54 55 56 -1 55 54 57 -1 58 37 59 -1 37 58 35 -1 60 61 62 -1 61 60 63 -1 57 64 55 -1 64 57 65 -1 65 62 64 -1 62 65 60 -1 "
									                >
										<Coordinate DEF="coords_ME_ID21_003"
										            point="2.496526 1.459009 0.676239 2.204725 0.000000 3.149606 2.204725 0.000000 1.259843 2.496526 1.459009 3.149606 2.204725 0.000000 3.149606 0.551181 0.000000 1.259843 2.204725 0.000000 1.259843 0.551181 0.000000 3.149606 2.511965 1.667439 0.592867 0.259379 1.459009 0.676239 0.243940 1.667439 0.592867 0.551181 0.000000 1.259843 2.204725 0.000000 1.259843 2.496526 1.459009 0.676239 2.511965 1.667439 0.592867 2.669446 3.793423 3.149606 2.669446 3.793423 0.277906 0.086460 3.793423 3.149606 0.000000 48.209053 3.149606 0.000000 7.165354 3.149606 2.755905 48.209053 3.149606 0.259379 1.459009 3.149606 0.551181 0.000000 3.149606 2.204725 0.000000 3.149606 2.496526 1.459009 3.149606 2.669446 3.793423 3.149606 2.755905 7.165354 3.149606 2.755905 18.037401 3.149606 0.259379 1.459009 3.149606 0.551181 0.000000 1.259843 0.551181 0.000000 3.149606 0.259379 1.459009 0.676239 0.086460 3.793423 3.149606 0.243940 1.667439 0.592867 0.086460 3.793423 0.277906 2.683341 4.335340 0.197622 0.086460 3.793423 0.277906 0.072564 4.335340 0.197622 2.669446 3.793423 0.277906 2.683341 4.335340 0.197622 2.755905 7.165354 3.149606 2.755905 7.165354 0.052493 0.000000 48.209053 3.149606 0.000000 7.165354 0.052493 0.000000 7.165354 3.149606 0.000000 8.188976 0.000000 0.000000 18.037401 0.000000 0.000000 22.292494 0.000000 0.072564 4.335340 0.197622 2.755905 8.188976 0.000000 2.755905 18.037401 3.149606 2.755905 18.037401 0.000000 2.755905 22.292494 0.000000 2.755905 48.209053 3.149606 2.755905 48.209053 3.149606 0.000000 22.292494 0.000000 0.000000 48.209053 3.149606 2.755905 22.292494 0.000000 2.755905 7.165354 0.052493 0.000000 7.165354 0.052493 2.755905 8.188976 0.000000 0.000000 7.165354 0.052493 0.000000 8.188976 0.000000 2.755905 7.165354 0.052493 0.000000 18.037401 0.000000 2.755905 18.037401 0.000000 "
										            />
									</IndexedFaceSet>
								</Shape>
							</Group>
						</Transform>
					</Transform>
					<Transform DEF="group_5_TRANSFORM"
					           translation="1.141733 0.000001 7.086615"
					           scale="1.000000 1.000000 1.000000"
					           rotation="0.000000 1.000000 0.000000 0.000000"
					           >
						<Transform DEF="group_5_ifs_TRANSFORM"
						           translation="0.000000 0.000001 0.000000"
						           scale="1.000000 1.000000 1.000000"
						           rotation="0.000000 1.000000 0.000000 0.000000"
						           >
							<Group DEF="group_ME_ID28_003">
								<Shape>
									<Appearance>
										<Material USE="MA_material_018" />
									</Appearance>
									<IndexedFaceSet solid="false"
									                coordIndex="0 1 2 -1 1 0 3 -1 1 3 4 -1 5 6 7 -1 6 5 8 -1 9 10 11 -1 10 9 12 -1 13 14 15 -1 14 13 16 -1 17 18 19 -1 18 17 20 -1 21 22 23 -1 22 21 24 -1 25 26 27 -1 26 25 28 -1 29 27 26 -1 "
									                >
										<Coordinate DEF="coords_ME_ID28_003"
										            point="0.000000 0.355813 2.992126 0.000000 0.000000 0.000000 0.000000 0.000000 2.992126 0.000000 0.355813 1.574803 0.000000 1.181102 0.000000 1.653543 1.181102 0.000000 0.000000 0.000000 0.000000 0.000000 1.181102 0.000000 1.653543 0.000000 0.000000 1.653543 0.000000 2.992126 0.000000 0.000000 0.000000 1.653543 0.000000 0.000000 0.000000 0.000000 2.992126 1.653543 0.000000 2.992126 0.000000 0.355813 2.992126 0.000000 0.000000 2.992126 1.653543 0.355813 2.992126 0.000000 0.355813 2.992126 1.653543 0.355813 1.574803 0.000000 0.355813 1.574803 1.653543 0.355813 2.992126 0.000000 0.355813 1.574803 1.653543 1.181102 0.000000 0.000000 1.181102 0.000000 1.653543 0.355813 1.574803 1.653543 0.000000 0.000000 1.653543 0.355813 1.574803 1.653543 0.000000 2.992126 1.653543 1.181102 0.000000 1.653543 0.355813 2.992126 "
										            />
									</IndexedFaceSet>
								</Shape>
							</Group>
						</Transform>
					</Transform>
				</Transform>
				<Transform DEF="group_6_TRANSFORM"
				           translation="4.881890 -0.000001 0.590551"
				           scale="1.000000 1.000000 1.000000"
				           rotation="0.000000 -1.000000 0.000000 1.570796"
				           >
					<Transform DEF="group_6_ifs_TRANSFORM"
					           translation="-0.000001 0.000001 -0.000000"
					           scale="1.000000 1.000000 1.000000"
					           rotation="-0.000000 0.000000 0.000000 0.000000"
					           >
						<Group DEF="group_ME_ID35">
							<Shape>
								<Appearance>
									<Material USE="MA_material_018" />
								</Appearance>
								<IndexedFaceSet solid="false"
								                coordIndex="0 1 2 -1 1 0 3 -1 3 0 4 -1 4 0 5 -1 4 5 6 -1 "
								                >
									<Coordinate DEF="coords_ME_ID35"
									            point="2.755905 0.000000 0.000000 2.496526 1.459009 0.000000 2.204725 0.000000 0.000000 2.669446 3.793423 0.000000 2.755905 7.165354 0.000000 2.755905 6.062992 0.000000 2.755905 6.614173 0.000000 "
									            />
								</IndexedFaceSet>
							</Shape>
						</Group>
					</Transform>
				</Transform>
				<Transform DEF="group_6_001_TRANSFORM"
				           translation="4.881890 -0.000001 0.590551"
				           scale="1.000000 1.000000 1.000000"
				           rotation="0.000000 -1.000000 0.000000 1.570796"
				           >
					<Transform DEF="group_6_001_ifs_TRANSFORM"
					           translation="-0.000001 0.000001 -0.000000"
					           scale="1.000000 1.000000 1.000000"
					           rotation="-0.000000 0.000000 0.000000 0.000000"
					           >
						<Group DEF="group_ME_ID41_003">
							<Shape>
								<Appearance>
									<Material USE="MA_material_018" />
								</Appearance>
								<IndexedFaceSet solid="false"
								                coordIndex="0 1 2 -1 1 0 3 -1 4 5 6 -1 5 4 7 -1 8 9 10 -1 9 8 11 -1 11 8 12 -1 "
								                >
									<Coordinate DEF="coords_ME_ID41_003"
									            point="0.551181 0.000000 0.000000 0.000000 2.755905 0.000000 0.000000 0.000000 0.000000 0.259379 1.459009 0.000000 0.259379 1.459009 0.000000 0.000000 4.960630 0.000000 0.000000 2.755905 0.000000 0.086460 3.793423 0.000000 0.086460 3.793423 0.000000 0.000000 6.062992 0.000000 0.000000 4.960630 0.000000 0.000000 6.614173 0.000000 0.000000 7.165354 0.000000 "
									            />
								</IndexedFaceSet>
							</Shape>
						</Group>
					</Transform>
				</Transform>
				<Transform DEF="group_6_002_TRANSFORM"
				           translation="4.881890 -0.000001 0.590551"
				           scale="1.000000 1.000000 1.000000"
				           rotation="0.000000 -1.000000 0.000000 1.570796"
				           >
					<Transform DEF="group_6_002_ifs_TRANSFORM"
					           translation="-0.000001 0.000001 -0.000000"
					           scale="1.000000 1.000000 1.000000"
					           rotation="-0.000000 0.000000 0.000000 0.000000"
					           >
						<Group DEF="group_ME_ID47_003">
						</Group>
					</Transform>
				</Transform>
				<Transform DEF="group_7_TRANSFORM"
				           translation="6.407590 0.000001 13.061132"
				           scale="1.000000 1.000000 1.000000"
				           rotation="0.000000 1.000000 0.000000 0.000000"
				           >
					<Transform DEF="group_7_ifs_TRANSFORM"
					           translation="0.000001 0.000003 0.000000"
					           scale="1.000000 1.000000 1.000000"
					           rotation="0.000000 1.000000 0.000000 0.000000"
					           >
						<Group DEF="group_ME_ID54_002">
							<Shape>
								<Appearance>
									<Material USE="MA_material_018" />
								</Appearance>
								<IndexedFaceSet solid="false"
								                coordIndex="0 1 2 -1 1 0 3 -1 4 2 5 -1 2 4 0 -1 0 4 6 -1 0 6 7 -1 0 7 8 -1 0 8 9 -1 10 3 0 -1 3 11 1 -1 9 10 0 -1 10 9 12 -1 10 12 13 -1 10 13 14 -1 14 13 15 -1 14 16 10 -1 16 14 17 -1 17 14 18 -1 16 17 19 -1 "
								                >
									<Coordinate DEF="coords_ME_ID54_002"
									            point="0.000000 2.408522 0.296434 0.000000 0.000000 0.839895 0.000000 0.000000 0.419948 0.000000 1.667439 0.592867 0.000000 0.629921 0.000000 0.000000 0.000000 0.000000 0.000000 1.259843 0.000000 0.000000 1.889764 0.000000 0.000000 2.519685 0.000000 0.000000 3.149606 0.000000 0.000000 4.335340 0.197622 0.000000 0.000000 1.259843 0.000000 3.779527 0.000000 0.000000 4.409449 0.000000 0.000000 5.669291 0.000000 0.000000 5.039370 0.000000 0.000000 8.188976 0.000000 0.000000 6.929134 0.000000 0.000000 6.299213 0.000000 0.000000 7.559055 0.000000 "
									            />
								</IndexedFaceSet>
							</Shape>
						</Group>
					</Transform>
				</Transform>
				<Transform DEF="group_8_TRANSFORM"
				           translation="10.078740 -0.000000 0.000000"
				           scale="1.000000 1.000000 1.000000"
				           rotation="0.000000 -1.000000 0.000000 1.570796"
				           >
					<Transform DEF="group_9_TRANSFORM"
					           translation="0.590552 18.037399 3.937008"
					           scale="1.000000 1.000000 1.100000"
					           rotation="0.000000 0.000000 0.000000 0.000000"
					           >
						<Transform DEF="group_9_ifs_TRANSFORM"
						           translation="0.000000 0.000000 -0.000000"
						           scale="1.000000 1.000000 1.000000"
						           rotation="-0.000000 0.000000 0.000000 0.000000"
						           >
							<Group DEF="group_ME_ID62_005">
								<Shape>
									<Appearance>
										<Material USE="MA_material_018" />
									</Appearance>
									<IndexedFaceSet solid="false"
									                coordIndex="0 1 2 -1 1 0 3 -1 4 5 6 -1 5 4 7 -1 8 9 10 -1 9 8 11 -1 12 13 14 -1 13 12 15 -1 16 17 18 -1 17 16 19 -1 20 21 22 -1 21 20 23 -1 "
									                >
										<Coordinate DEF="coords_ME_ID62_005"
										            point="3.149606 3.346457 0.000000 3.149606 0.000000 3.149606 3.149606 0.000000 0.000000 3.149606 0.643589 3.149606 3.149606 0.000000 3.149606 -0.354331 0.643589 3.149606 -0.354331 0.000000 3.149606 3.149606 0.643589 3.149606 3.149606 0.000000 3.149606 -0.354331 0.000000 0.000000 3.149606 0.000000 0.000000 -0.354331 0.000000 3.149606 3.149606 3.346457 0.000000 -0.354331 0.000000 0.000000 -0.354331 3.346457 0.000000 3.149606 0.000000 0.000000 -0.354331 0.643589 3.149606 3.149606 3.346457 0.000000 -0.354331 3.346457 0.000000 3.149606 0.643589 3.149606 -0.354331 0.643589 3.149606 -0.354331 0.000000 0.000000 -0.354331 0.000000 3.149606 -0.354331 3.346457 0.000000 "
										            />
									</IndexedFaceSet>
								</Shape>
							</Group>
						</Transform>
					</Transform>
					<Transform DEF="group_10_TRANSFORM"
					           translation="0.000001 18.428425 0.019466"
					           scale="1.000000 1.000000 1.000000"
					           rotation="1.000007 -0.000000 0.000000 0.099483"
					           >
						<Transform DEF="group_10_ifs_TRANSFORM"
						           translation="0.000000 0.000000 0.000000"
						           scale="1.000000 1.000000 1.000000"
						           rotation="0.000000 0.000000 -0.000000 0.000000"
						           >
							<Group DEF="group_ME_ID69_002">
								<Shape>
									<Appearance>
										<Material USE="MA_material_018" />
									</Appearance>
									<IndexedFaceSet solid="false"
									                coordIndex="0 1 2 -1 1 0 3 -1 4 5 6 -1 5 4 7 -1 7 4 8 -1 7 8 9 -1 9 8 10 -1 9 10 11 -1 11 10 12 -1 11 12 13 -1 13 12 14 -1 13 14 15 -1 15 14 16 -1 15 16 17 -1 15 17 18 -1 18 17 19 -1 19 17 20 -1 19 20 21 -1 21 20 22 -1 21 22 23 -1 21 23 24 -1 24 23 25 -1 25 23 26 -1 25 26 27 -1 2 28 29 -1 28 2 1 -1 30 31 32 -1 31 30 33 -1 31 33 34 -1 34 33 35 -1 34 35 36 -1 36 35 37 -1 36 37 38 -1 38 37 39 -1 38 39 40 -1 40 39 41 -1 40 41 42 -1 42 41 43 -1 42 43 44 -1 44 43 45 -1 44 45 46 -1 46 45 47 -1 46 47 48 -1 48 47 49 -1 48 49 50 -1 50 49 51 -1 50 51 52 -1 52 51 53 -1 54 3 0 -1 3 54 55 -1 56 57 58 -1 57 56 59 -1 58 60 61 -1 60 58 57 -1 61 62 63 -1 62 61 60 -1 62 64 63 -1 64 62 65 -1 65 66 64 -1 66 65 67 -1 67 68 66 -1 68 67 69 -1 69 70 68 -1 70 69 71 -1 71 72 70 -1 72 71 73 -1 73 74 72 -1 74 73 75 -1 76 74 75 -1 74 76 77 -1 29 77 76 -1 77 29 28 -1 78 55 54 -1 55 78 79 -1 78 80 79 -1 80 78 81 -1 81 82 80 -1 82 81 83 -1 83 84 82 -1 84 83 85 -1 85 86 84 -1 86 85 87 -1 87 88 86 -1 88 87 89 -1 89 90 88 -1 90 89 91 -1 90 92 93 -1 92 90 91 -1 93 94 95 -1 94 93 92 -1 95 59 56 -1 59 95 94 -1 "
									                >
										<Coordinate DEF="coords_ME_ID69_002"
										            point="2.477990 16.811024 0.067075 1.968504 0.000000 0.000000 1.968504 16.811024 0.000000 2.477990 0.000000 0.067075 2.477990 0.000000 0.067075 1.459018 0.000000 0.067075 1.968504 0.000000 0.000000 0.984252 0.000000 0.263730 2.952756 0.000000 0.263730 0.576561 0.000000 0.576561 3.360446 0.000000 0.576561 0.263730 0.000000 0.984252 3.673278 0.000000 0.984252 0.067075 0.000000 1.459018 3.869933 0.000000 1.459018 0.000000 0.000000 1.968504 3.937008 0.000000 1.968504 3.869933 0.000000 2.477990 0.067075 0.000000 2.477990 0.263730 0.000000 2.952756 3.673278 0.000000 2.952756 0.576561 0.000000 3.360446 3.360446 0.000000 3.360446 2.952756 0.000000 3.673278 0.984252 0.000000 3.673278 1.459018 0.000000 3.869933 2.477990 0.000000 3.869933 1.968504 0.000000 3.937008 1.459018 0.000000 0.067075 1.459018 16.811024 0.067075 1.459018 16.811024 0.067075 2.477990 16.811024 0.067075 1.968504 16.811024 0.000000 0.984252 16.811024 0.263730 2.952756 16.811024 0.263730 0.576561 16.811024 0.576561 3.360446 16.811024 0.576561 0.263730 16.811024 0.984252 3.673278 16.811024 0.984252 0.067075 16.811024 1.459018 3.869933 16.811024 1.459018 0.000000 16.811024 1.968504 3.937008 16.811024 1.968504 0.067075 16.811024 2.477990 3.869933 16.811024 2.477990 0.263730 16.811024 2.952756 3.673278 16.811024 2.952756 0.576561 16.811024 3.360446 3.360446 16.811024 3.360446 0.984252 16.811024 3.673278 2.952756 16.811024 3.673278 1.459018 16.811024 3.869933 2.477990 16.811024 3.869933 1.968504 16.811024 3.937008 2.952756 16.811024 0.263730 2.952756 0.000000 0.263730 1.968504 0.000000 3.937008 1.459018 16.811024 3.869933 1.459018 0.000000 3.869933 1.968504 16.811024 3.937008 0.984252 16.811024 3.673278 0.984252 0.000000 3.673278 0.576561 16.811024 3.360446 0.576561 0.000000 3.360446 0.263730 0.000000 2.952756 0.263730 16.811024 2.952756 0.067075 0.000000 2.477990 0.067075 16.811024 2.477990 0.000000 0.000000 1.968504 0.000000 16.811024 1.968504 0.067075 0.000000 1.459018 0.067075 16.811024 1.459018 0.263730 0.000000 0.984252 0.263730 16.811024 0.984252 0.576561 0.000000 0.576561 0.576561 16.811024 0.576561 0.984252 16.811024 0.263730 0.984252 0.000000 0.263730 3.360446 16.811024 0.576561 3.360446 0.000000 0.576561 3.673278 0.000000 0.984252 3.673278 16.811024 0.984252 3.869933 0.000000 1.459018 3.869933 16.811024 1.459018 3.937008 0.000000 1.968504 3.937008 16.811024 1.968504 3.869933 0.000000 2.477990 3.869933 16.811024 2.477990 3.673278 0.000000 2.952756 3.673278 16.811024 2.952756 3.360446 0.000000 3.360446 3.360446 16.811024 3.360446 2.952756 16.811024 3.673278 2.952756 0.000000 3.673278 2.477990 16.811024 3.869933 2.477990 0.000000 3.869933 "
										            />
									</IndexedFaceSet>
								</Shape>
							</Group>
						</Transform>
					</Transform>
					<Transform DEF="group_11_TRANSFORM"
					           translation="0.590552 0.000000 3.937008"
					           scale="1.000000 1.000000 1.000000"
					           rotation="-0.000000 0.000000 0.000000 0.000000"
					           >
						<Transform DEF="group_11_ifs_TRANSFORM"
						           translation="0.000000 0.000000 -0.000000"
						           scale="1.000000 1.000000 1.000000"
						           rotation="-0.000000 0.000000 0.000000 0.000000"
						           >
							<Group DEF="group_ME_ID76_002">
								<Shape>
									<Appearance>
										<Material USE="MA_material_018" />
									</Appearance>
									<IndexedFaceSet solid="false"
									                coordIndex="0 1 2 -1 1 0 3 -1 4 5 6 -1 5 4 7 -1 8 9 10 -1 9 8 11 -1 11 8 12 -1 12 8 13 -1 14 3 0 -1 3 14 15 -1 15 14 16 -1 17 18 19 -1 18 17 20 -1 20 17 21 -1 20 21 22 -1 20 22 23 -1 20 23 24 -1 20 24 25 -1 20 25 26 -1 20 26 27 -1 28 29 30 -1 29 28 31 -1 32 31 28 -1 31 32 33 -1 33 32 34 -1 35 36 37 -1 36 35 10 -1 10 35 8 -1 8 35 38 -1 39 15 16 -1 15 39 40 -1 40 39 41 -1 42 43 44 -1 43 42 45 -1 45 42 46 -1 46 42 47 -1 44 34 32 -1 34 44 48 -1 48 44 43 -1 49 40 41 -1 40 49 50 -1 50 49 51 -1 52 50 51 -1 50 52 53 -1 54 55 56 -1 55 54 57 -1 58 37 59 -1 37 58 35 -1 60 61 62 -1 61 60 63 -1 57 64 55 -1 64 57 65 -1 65 62 64 -1 62 65 60 -1 "
									                >
										<Coordinate DEF="coords_ME_ID76_002"
										            point="2.496526 1.459009 0.676239 2.204724 0.000000 3.149606 2.204724 0.000000 1.259843 2.496526 1.459009 3.149606 2.204724 0.000000 1.259843 0.551181 0.000000 3.149606 0.551181 0.000000 1.259843 2.204724 0.000000 3.149606 2.511965 1.667439 0.592867 0.259379 1.459009 0.676239 0.243940 1.667439 0.592867 0.551181 0.000000 1.259843 2.204724 0.000000 1.259843 2.496526 1.459009 0.676239 2.511965 1.667439 0.592867 2.669446 3.793423 3.149606 2.669446 3.793423 0.277906 0.086460 3.793423 3.149606 -0.000000 48.209053 3.149606 -0.000000 7.165354 3.149606 2.755905 48.209053 3.149606 0.259379 1.459009 3.149606 0.551181 0.000000 3.149606 2.204724 0.000000 3.149606 2.496526 1.459009 3.149606 2.669446 3.793423 3.149606 2.755905 7.165354 3.149606 2.755905 18.037401 3.149606 0.259379 1.459009 3.149606 0.551181 0.000000 1.259843 0.551181 0.000000 3.149606 0.259379 1.459009 0.676239 0.086460 3.793423 3.149606 0.243940 1.667439 0.592867 0.086460 3.793423 0.277906 2.683341 4.335340 0.197622 0.086460 3.793423 0.277906 0.072564 4.335340 0.197622 2.669446 3.793423 0.277906 2.683341 4.335340 0.197622 2.755905 7.165354 3.149606 2.755905 7.165354 0.052493 -0.000000 48.209053 3.149606 0.000000 7.165354 0.052493 -0.000000 7.165354 3.149606 0.000000 8.188976 0.000000 0.000000 18.037401 0.000000 0.000000 22.292494 0.000000 0.072564 4.335340 0.197622 2.755905 8.188976 0.000000 2.755905 18.037401 3.149606 2.755905 18.037401 0.000000 2.755905 22.292494 0.000000 2.755905 48.209053 3.149606 2.755905 48.209053 3.149606 0.000000 22.292494 0.000000 -0.000000 48.209053 3.149606 2.755905 22.292494 0.000000 2.755905 7.165354 0.052493 0.000000 7.165354 0.052493 2.755905 8.188976 0.000000 0.000000 7.165354 0.052493 0.000000 8.188976 0.000000 2.755905 7.165354 0.052493 0.000000 18.037401 0.000000 2.755905 18.037401 0.000000 "
										            />
									</IndexedFaceSet>
								</Shape>
							</Group>
						</Transform>
					</Transform>
					<Transform DEF="group_12_TRANSFORM"
					           translation="1.141733 -0.000000 7.086615"
					           scale="1.000000 1.000000 1.000000"
					           rotation="-0.000000 0.000000 0.000000 0.000000"
					           >
						<Transform DEF="group_12_ifs_TRANSFORM"
						           translation="-0.000001 -0.000000 -0.000000"
						           scale="1.000000 1.000000 1.000000"
						           rotation="-0.000000 0.000000 0.000000 0.000000"
						           >
							<Group DEF="group_ME_ID83_001">
								<Shape>
									<Appearance>
										<Material USE="MA_material_018" />
									</Appearance>
									<IndexedFaceSet solid="false"
									                coordIndex="0 1 2 -1 1 0 3 -1 1 3 4 -1 5 6 7 -1 6 5 8 -1 9 10 11 -1 10 9 12 -1 13 14 15 -1 14 13 16 -1 17 18 19 -1 18 17 20 -1 21 22 23 -1 22 21 24 -1 25 26 27 -1 26 25 28 -1 29 27 26 -1 "
									                >
										<Coordinate DEF="coords_ME_ID83_001"
										            point="0.000000 0.355813 2.992126 0.000000 0.000000 0.000000 0.000000 0.000000 2.992126 0.000000 0.355813 1.574803 0.000000 1.181102 0.000000 1.653543 1.181102 0.000000 0.000000 0.000000 0.000000 0.000000 1.181102 0.000000 1.653543 0.000000 0.000000 1.653543 0.000000 2.992126 0.000000 0.000000 0.000000 1.653543 0.000000 0.000000 0.000000 0.000000 2.992126 1.653543 0.000000 2.992126 0.000000 0.355813 2.992126 0.000000 0.000000 2.992126 1.653543 0.355813 2.992126 0.000000 0.355813 2.992126 1.653543 0.355813 1.574803 0.000000 0.355813 1.574803 1.653543 0.355813 2.992126 0.000000 0.355813 1.574803 1.653543 1.181102 0.000000 0.000000 1.181102 0.000000 1.653543 0.355813 1.574803 1.653543 0.000000 0.000000 1.653543 0.355813 1.574803 1.653543 0.000000 2.992126 1.653543 1.181102 0.000000 1.653543 0.355813 2.992126 "
										            />
									</IndexedFaceSet>
								</Shape>
							</Group>
						</Transform>
					</Transform>
				</Transform>
			</Transform>
		</Transform>
	</Scene>
</X3D>