<?xml version="1.0" encoding="UTF-8"?>
<!DOCTYPE X3D PUBLIC "ISO//Web3D//DTD X3D 3.0//EN" "http://www.web3d.org/specifications/x3d-3.0.dtd">
<X3D version="3.0" profile="Immersive" xmlns:xsd="http://www.w3.org/2001/XMLSchema-instance" xsd:noNamespaceSchemaLocation="http://www.web3d.org/specifications/x3d-3.0.xsd">
	<head>
		<meta name="filename" content="27-3 角梁平面.x3d" />
		<meta name="created" content="2025-12-29 14:01:46" />
		<meta name="generator" content="Blender 4.2.2 LTS" />
		<meta name="translator" content="Web3D X3D/VRML2 format v2.5.1" />
	</head>
	<Scene>
		<NavigationInfo headlight="true"
		                visibilityLimit="0.0"
		                type='"EXAMINE", "ANY"'
		                avatarSize="0.25, 1.75, 0.75"
		                />
		<Background DEF="WO_World"
		            groundColor="0.051 0.051 0.051"
		            skyColor="0.051 0.051 0.051"
		            />
		<Transform DEF="SketchUp_TRANSFORM"
		           translation="0.000000 0.000000 0.000000"
		           scale="1.000000 1.000000 1.000000"
		           rotation="-1.000000 0.000000 0.000000 1.570796"
		           >
			<Transform DEF="group_0_TRANSFORM"
			           translation="41.949306 -888.910095 -28.274084"
			           scale="1.000000 1.000000 1.000000"
			           rotation="0.000000 0.000000 1.000000 1.570796"
			           >
				<Transform DEF="group_1_TRANSFORM"
				           translation="226.527344 128.101181 43.546509"
				           scale="1.000000 1.000000 1.000000"
				           rotation="0.000000 0.000000 1.000000 0.785398"
				           >
					<Transform DEF="group_1_ifs_TRANSFORM"
					           translation="-0.000015 -0.000004 -0.000002"
					           scale="1.000000 1.000000 1.000000"
					           rotation="0.000000 1.000000 0.000000 0.000000"
					           >
						<Group DEF="group_ME_ID27_002">
						</Group>
					</Transform>
					<Transform DEF="group_2_TRANSFORM"
					           translation="0.590557 -0.000805 -4.171394"
					           scale="1.000000 1.000000 1.000000"
					           rotation="0.000000 1.000000 0.000000 0.000000"
					           >
						<Transform DEF="group_2_ifs_TRANSFORM"
						           translation="-0.000019 -0.000011 -0.000001"
						           scale="1.000000 1.000000 1.000000"
						           rotation="0.000000 1.000000 0.000000 0.000000"
						           >
							<Group DEF="group_ME_ID5_002">
								<Shape>
									<Appearance>
										<Material DEF="MA_material_003"
										          diffuseColor="1.000 1.000 1.000"
										          specularColor="0.401 0.401 0.401"
										          emissiveColor="0.000 0.000 0.000"
										          ambientIntensity="0.000"
										          shininess="0.500"
										          transparency="0.000"
										          />
									</Appearance>
									<IndexedFaceSet solid="false"
									                coordIndex="0 1 2 -1 1 0 3 -1 4 5 6 -1 5 4 7 -1 8 9 10 -1 9 8 11 -1 12 13 14 -1 13 12 15 -1 16 17 18 -1 17 16 19 -1 20 21 22 -1 21 20 23 -1 "
									                >
										<Coordinate DEF="coords_ME_ID5_002"
										            point="0.000000 69.597900 73.942406 6.737959 73.778160 69.771011 0.000000 73.778931 69.771790 6.737959 69.597122 73.941628 6.737959 69.597122 73.941628 0.000000 0.000776 4.171392 6.706017 0.000000 4.170614 0.000000 69.597900 73.942406 6.706017 4.181035 0.000000 6.737959 69.597122 73.941628 6.706017 0.000000 4.170614 6.737959 73.778160 69.771011 0.000000 4.181811 0.000778 6.737959 73.778160 69.771011 6.706017 4.181035 0.000000 0.000000 73.778931 69.771790 0.000000 69.597900 73.942406 0.000000 4.181811 0.000778 0.000000 0.000776 4.171392 0.000000 73.778931 69.771790 6.706017 4.181035 0.000000 0.000000 0.000776 4.171392 0.000000 4.181811 0.000778 6.706017 0.000000 4.170614 "
										            />
									</IndexedFaceSet>
								</Shape>
							</Group>
						</Transform>
					</Transform>
					<Transform DEF="group_3_TRANSFORM"
					           translation="0.592201 -34.799240 -13.661521"
					           scale="1.000000 1.000000 1.000000"
					           rotation="0.000000 1.000000 0.000000 0.000000"
					           >
						<Transform DEF="group_3_ifs_TRANSFORM"
						           translation="0.000008 0.000015 -0.000000"
						           scale="1.000000 1.000000 1.000000"
						           rotation="0.000000 1.000000 0.000000 0.000000"
						           >
							<Group DEF="group_ME_ID14_002">
								<Shape>
									<Appearance>
										<Material USE="MA_material_003" />
									</Appearance>
									<IndexedFaceSet solid="false"
									                coordIndex="0 1 2 -1 3 4 5 -1 4 3 6 -1 7 8 9 -1 10 11 12 -1 13 14 15 -1 14 13 16 -1 16 13 17 -1 17 13 18 -1 19 20 21 -1 22 23 24 -1 23 22 25 -1 26 27 28 -1 27 26 29 -1 30 31 32 -1 31 30 33 -1 34 35 36 -1 35 34 37 -1 38 39 40 -1 39 38 41 -1 42 43 44 -1 43 42 45 -1 43 45 46 -1 "
									                >
										<Coordinate DEF="coords_ME_ID14_002"
										            point="3.328825 72.729904 43.540516 3.322635 51.115170 30.018301 3.325192 72.729759 43.540424 3.325192 69.597679 48.546936 3.328825 72.729904 43.540516 3.325192 72.729759 43.540424 3.328825 69.597816 48.547024 3.328825 72.729904 43.540516 3.328825 69.597816 48.547024 3.322635 51.115170 30.018301 3.325192 72.729759 43.540424 3.322635 51.115170 30.018301 3.325192 69.597679 48.546936 6.692923 0.000000 5.006510 0.008233 69.597961 48.547112 0.000000 0.000837 5.007033 3.325192 69.597679 48.546936 3.328825 69.597816 48.547024 6.712856 69.597122 48.546589 3.328825 69.597816 48.547024 3.322635 51.115170 30.018301 3.325192 69.597679 48.546936 3.322635 51.115170 30.018301 6.712856 69.597122 48.546589 6.706665 51.114475 30.017866 3.328825 69.597816 48.547024 0.005676 51.115452 30.018478 3.325192 69.597679 48.546936 3.322635 51.115170 30.018301 0.008233 69.597961 48.547112 0.008233 69.597961 48.547112 0.000000 3.132918 0.000524 0.000000 0.000837 5.007033 0.005676 51.115452 30.018478 6.692923 0.000000 5.006510 0.000000 3.132918 0.000524 6.692923 3.132081 0.000000 0.000000 0.000837 5.007033 6.692923 3.132081 0.000000 6.712856 69.597122 48.546589 6.692923 0.000000 5.006510 6.706665 51.114475 30.017866 0.005676 51.115452 30.018478 6.692923 3.132081 0.000000 0.000000 3.132918 0.000524 3.322635 51.115170 30.018301 6.706665 51.114475 30.017866 "
										            />
									</IndexedFaceSet>
								</Shape>
							</Group>
						</Transform>
					</Transform>
					<Transform DEF="group_4_TRANSFORM"
					           translation="0.590481 -69.597137 -15.272428"
					           scale="1.000000 1.000000 1.000000"
					           rotation="0.000000 1.000000 0.000000 0.000000"
					           >
						<Transform DEF="group_4_ifs_TRANSFORM"
						           translation="-0.000034 -0.000031 0.000000"
						           scale="1.000000 1.000000 1.000000"
						           rotation="0.000000 1.000000 0.000000 0.000000"
						           >
							<Group DEF="group_ME_ID21_002">
								<Shape>
									<Appearance>
										<Material USE="MA_material_003" />
									</Appearance>
									<IndexedFaceSet solid="false"
									                coordIndex="0 1 2 -1 1 0 3 -1 4 5 6 -1 5 4 7 -1 8 9 10 -1 9 8 11 -1 12 13 14 -1 13 12 15 -1 16 17 18 -1 17 16 19 -1 20 21 22 -1 21 20 23 -1 "
									                >
										<Coordinate DEF="coords_ME_ID21_002"
										            point="6.694044 28.160484 5.107891 6.704701 69.597122 28.386341 6.691706 0.000000 0.000000 6.696313 40.312386 10.064246 6.691706 0.000000 0.000000 0.012996 69.597122 28.389406 0.000000 0.000000 0.003064 6.704701 69.597122 28.386341 0.002338 28.160484 5.110955 6.691706 0.000000 0.000000 0.000000 0.000000 0.003064 6.694044 28.160484 5.107891 0.004608 40.312386 10.067310 6.694044 28.160484 5.107891 0.002338 28.160484 5.110955 6.696313 40.312386 10.064246 0.012996 69.597122 28.389406 6.696313 40.312386 10.064246 0.004608 40.312386 10.067310 6.704701 69.597122 28.386341 0.012996 69.597122 28.389406 0.002338 28.160484 5.110955 0.000000 0.000000 0.003064 0.004608 40.312386 10.067310 "
										            />
									</IndexedFaceSet>
								</Shape>
							</Group>
						</Transform>
					</Transform>
				</Transform>
				<Transform DEF="group_5_TRANSFORM"
				           translation="133.669907 232.094147 43.546509"
				           scale="1.000000 1.000000 1.000000"
				           rotation="-0.000000 -0.000000 -1.000000 2.356194"
				           >
					<Transform DEF="group_5_ifs_TRANSFORM"
					           translation="0.000000 0.000031 -0.000002"
					           scale="1.000000 1.000000 1.000000"
					           rotation="0.000000 1.000000 0.000000 0.000000"
					           >
						<Group DEF="group_ME_ID55_002">
						</Group>
					</Transform>
					<Transform DEF="group_2_001_TRANSFORM"
					           translation="0.590546 -0.000793 -4.171394"
					           scale="1.000000 1.000000 1.000000"
					           rotation="0.000000 1.000000 0.000000 0.000000"
					           >
						<Transform DEF="group_2_001_ifs_TRANSFORM"
						           translation="0.000000 0.000061 -0.000001"
						           scale="1.000000 1.000000 1.000000"
						           rotation="0.000000 1.000000 0.000000 0.000000"
						           >
							<Group DEF="group_ME_ID35_002">
								<Shape>
									<Appearance>
										<Material USE="MA_material_003" />
									</Appearance>
									<IndexedFaceSet solid="false"
									                coordIndex="0 1 2 -1 1 0 3 -1 4 5 6 -1 5 4 7 -1 8 9 10 -1 9 8 11 -1 12 13 14 -1 13 12 15 -1 16 17 18 -1 17 16 19 -1 20 21 22 -1 21 20 23 -1 "
									                >
										<Coordinate DEF="coords_ME_ID35_002"
										            point="0.000000 69.597900 73.942406 6.737959 73.778160 69.771011 0.000000 73.778931 69.771790 6.737959 69.597122 73.941628 6.737959 69.597122 73.941628 0.000000 0.000776 4.171392 6.706017 0.000000 4.170614 0.000000 69.597900 73.942406 6.706017 4.181035 0.000000 6.737959 69.597122 73.941628 6.706017 0.000000 4.170614 6.737959 73.778160 69.771011 0.000000 4.181811 0.000778 6.737959 73.778160 69.771011 6.706017 4.181035 0.000000 0.000000 73.778931 69.771790 0.000000 69.597900 73.942406 0.000000 4.181811 0.000778 0.000000 0.000776 4.171392 0.000000 73.778931 69.771790 6.706017 4.181035 0.000000 0.000000 0.000776 4.171392 0.000000 4.181811 0.000778 6.706017 0.000000 4.170614 "
										            />
									</IndexedFaceSet>
								</Shape>
							</Group>
						</Transform>
					</Transform>
					<Transform DEF="group_3_001_TRANSFORM"
					           translation="0.592148 -34.799225 -13.661521"
					           scale="1.000000 1.000000 1.000000"
					           rotation="0.000000 1.000000 0.000000 0.000000"
					           >
						<Transform DEF="group_3_001_ifs_TRANSFORM"
						           translation="-0.000015 0.000031 -0.000000"
						           scale="1.000000 1.000000 1.000000"
						           rotation="0.000000 1.000000 0.000000 0.000000"
						           >
							<Group DEF="group_ME_ID42_002">
								<Shape>
									<Appearance>
										<Material USE="MA_material_003" />
									</Appearance>
									<IndexedFaceSet solid="false"
									                coordIndex="0 1 2 -1 3 4 5 -1 4 3 6 -1 7 8 9 -1 10 11 12 -1 13 14 15 -1 14 13 16 -1 16 13 17 -1 17 13 18 -1 19 20 21 -1 22 23 24 -1 23 22 25 -1 26 27 28 -1 27 26 29 -1 30 31 32 -1 31 30 33 -1 34 35 36 -1 35 34 37 -1 38 39 40 -1 39 38 41 -1 42 43 44 -1 43 42 45 -1 43 45 46 -1 "
									                >
										<Coordinate DEF="coords_ME_ID42_002"
										            point="3.328825 72.729904 43.540516 3.322635 51.115170 30.018301 3.325192 72.729759 43.540424 3.325192 69.597679 48.546936 3.328825 72.729904 43.540516 3.325192 72.729759 43.540424 3.328825 69.597816 48.547024 3.328825 72.729904 43.540516 3.328825 69.597816 48.547024 3.322635 51.115170 30.018301 3.325192 72.729759 43.540424 3.322635 51.115170 30.018301 3.325192 69.597679 48.546936 6.692923 0.000000 5.006510 0.008233 69.597961 48.547112 0.000000 0.000837 5.007033 3.325192 69.597679 48.546936 3.328825 69.597816 48.547024 6.712856 69.597122 48.546589 3.328825 69.597816 48.547024 3.322635 51.115170 30.018301 3.325192 69.597679 48.546936 3.322635 51.115170 30.018301 6.712856 69.597122 48.546589 6.706665 51.114475 30.017866 3.328825 69.597816 48.547024 0.005676 51.115452 30.018478 3.325192 69.597679 48.546936 3.322635 51.115170 30.018301 0.008233 69.597961 48.547112 0.008233 69.597961 48.547112 0.000000 3.132918 0.000524 0.000000 0.000837 5.007033 0.005676 51.115452 30.018478 6.692923 0.000000 5.006510 0.000000 3.132918 0.000524 6.692923 3.132081 0.000000 0.000000 0.000837 5.007033 6.692923 3.132081 0.000000 6.712856 69.597122 48.546589 6.692923 0.000000 5.006510 6.706665 51.114475 30.017866 0.005676 51.115452 30.018478 6.692923 3.132081 0.000000 0.000000 3.132918 0.000524 3.322635 51.115170 30.018301 6.706665 51.114475 30.017866 "
										            />
									</IndexedFaceSet>
								</Shape>
							</Group>
						</Transform>
					</Transform>
					<Transform DEF="group_4_001_TRANSFORM"
					           translation="0.590485 -69.597107 -15.272428"
					           scale="1.000000 1.000000 1.000000"
					           rotation="0.000000 1.000000 0.000000 0.000000"
					           >
						<Transform DEF="group_4_001_ifs_TRANSFORM"
						           translation="0.000061 0.000000 0.000000"
						           scale="1.000000 1.000000 1.000000"
						           rotation="0.000000 1.000000 0.000000 0.000000"
						           >
							<Group DEF="group_ME_ID49_002">
								<Shape>
									<Appearance>
										<Material USE="MA_material_003" />
									</Appearance>
									<IndexedFaceSet solid="false"
									                coordIndex="0 1 2 -1 1 0 3 -1 4 5 6 -1 5 4 7 -1 8 9 10 -1 9 8 11 -1 12 13 14 -1 13 12 15 -1 16 17 18 -1 17 16 19 -1 20 21 22 -1 21 20 23 -1 "
									                >
										<Coordinate DEF="coords_ME_ID49_002"
										            point="6.694044 28.160484 5.107891 6.704701 69.597122 28.386341 6.691706 0.000000 0.000000 6.696313 40.312386 10.064246 6.691706 0.000000 0.000000 0.012996 69.597122 28.389406 0.000000 0.000000 0.003064 6.704701 69.597122 28.386341 0.002338 28.160484 5.110955 6.691706 0.000000 0.000000 0.000000 0.000000 0.003064 6.694044 28.160484 5.107891 0.004608 40.312386 10.067310 6.694044 28.160484 5.107891 0.002338 28.160484 5.110955 6.696313 40.312386 10.064246 0.012996 69.597122 28.389406 6.696313 40.312386 10.064246 0.004608 40.312386 10.067310 6.704701 69.597122 28.386341 0.012996 69.597122 28.389406 0.002338 28.160484 5.110955 0.000000 0.000000 0.003064 0.004608 40.312386 10.067310 "
										            />
									</IndexedFaceSet>
								</Shape>
							</Group>
						</Transform>
					</Transform>
				</Transform>
				<Transform DEF="group_6_TRANSFORM"
				           translation="174.530807 180.097672 23.947680"
				           scale="1.000000 1.000000 1.000000"
				           rotation="0.000000 0.000000 -1.000000 0.785398"
				           >
					<Transform DEF="group_6_ifs_TRANSFORM"
					           translation="-0.000046 0.000000 0.000000"
					           scale="1.000000 1.000000 1.000000"
					           rotation="0.000000 1.000000 0.000000 0.000000"
					           >
						<Group DEF="group_ME_ID60">
							<Shape>
								<Appearance>
									<Material USE="MA_material_003" />
								</Appearance>
								<IndexedFaceSet solid="false"
								                coordIndex="0 1 2 -1 1 0 3 -1 1 3 4 -1 4 3 5 -1 5 3 6 -1 5 6 7 -1 5 7 8 -1 8 7 9 -1 9 7 10 -1 9 10 11 -1 11 10 12 -1 12 10 13 -1 12 13 14 -1 14 13 15 -1 15 13 16 -1 16 13 17 -1 16 17 18 -1 18 17 19 -1 18 19 20 -1 20 19 21 -1 21 19 22 -1 21 22 23 -1 23 22 24 -1 24 22 25 -1 24 25 26 -1 26 25 27 -1 5 28 29 -1 28 5 8 -1 29 28 30 -1 29 30 31 -1 29 31 32 -1 32 31 33 -1 32 33 34 -1 32 34 35 -1 35 34 36 -1 35 36 37 -1 35 37 38 -1 38 37 39 -1 38 39 40 -1 40 39 41 -1 40 41 42 -1 40 42 43 -1 43 42 44 -1 43 44 27 -1 43 27 25 -1 43 25 45 -1 43 45 46 -1 46 45 47 -1 47 45 48 -1 47 48 49 -1 50 51 52 -1 51 50 53 -1 54 51 55 -1 51 54 52 -1 56 55 57 -1 55 56 54 -1 58 57 59 -1 57 58 56 -1 60 59 61 -1 59 60 58 -1 62 61 63 -1 61 62 60 -1 64 63 65 -1 63 64 62 -1 66 64 65 -1 64 66 67 -1 68 67 66 -1 67 68 69 -1 70 69 68 -1 69 70 71 -1 72 71 70 -1 71 72 73 -1 74 73 72 -1 73 74 75 -1 76 75 74 -1 75 76 77 -1 78 76 79 -1 76 78 77 -1 80 79 81 -1 79 80 78 -1 82 81 83 -1 81 82 80 -1 84 83 85 -1 83 84 82 -1 86 85 87 -1 85 86 84 -1 88 87 89 -1 87 88 86 -1 88 90 91 -1 90 88 89 -1 91 92 93 -1 92 91 90 -1 93 94 95 -1 94 93 92 -1 95 96 97 -1 96 95 94 -1 97 98 99 -1 98 97 96 -1 99 100 101 -1 100 99 98 -1 102 103 104 -1 103 102 105 -1 105 102 106 -1 105 106 107 -1 105 107 108 -1 108 107 109 -1 109 107 110 -1 110 107 111 -1 110 111 112 -1 112 111 113 -1 112 113 114 -1 114 113 115 -1 114 115 116 -1 114 116 117 -1 117 116 118 -1 117 118 119 -1 119 118 120 -1 119 120 121 -1 121 120 122 -1 122 120 123 -1 122 123 124 -1 122 124 125 -1 125 124 126 -1 "
								                >
									<Coordinate DEF="coords_ME_ID60"
									            point="0.134150 2.918035 98.244331 0.134150 4.955980 98.244331 -0.000000 3.937008 98.244331 0.527459 1.968504 98.244331 0.527459 5.905512 98.244331 1.153123 6.720892 98.244331 0.807588 1.603432 98.244331 1.153123 1.153123 98.244331 1.512208 3.937008 98.244331 1.594831 3.309423 98.244331 1.968504 0.527459 98.244331 1.837070 2.724608 98.244331 1.997040 2.516130 98.244331 2.918035 0.134150 98.244331 2.222415 2.222415 98.244331 2.724608 1.837070 98.244331 3.309423 1.594831 98.244331 3.937008 0.000000 98.244331 3.937008 1.512208 98.244331 4.955980 0.134150 98.244331 4.564592 1.594831 98.244331 5.149408 1.837070 98.244331 5.905512 0.527459 98.244331 5.651600 2.222415 98.244331 6.036946 2.724608 98.244331 6.720892 1.153123 98.244331 6.279185 3.309423 98.244331 6.361808 3.937008 98.244331 1.594831 4.564592 98.244331 1.968504 7.346557 98.244331 1.837070 5.149408 98.244331 2.222415 5.651600 98.244331 2.918035 7.739866 98.244331 2.724608 6.036946 98.244331 3.309423 6.279185 98.244331 3.937008 7.874016 98.244331 3.937008 6.361807 98.244331 4.564592 6.279185 98.244331 4.955980 7.739866 98.244331 5.149408 6.036946 98.244331 5.905512 7.346557 98.244331 5.651600 5.651600 98.244331 6.036946 5.149408 98.244331 6.720892 6.720892 98.244331 6.279185 4.564592 98.244331 7.346557 1.968504 98.244331 7.346557 5.905512 98.244331 7.739866 4.955980 98.244331 7.739866 2.918035 98.244331 7.874016 3.937008 98.244331 0.807588 1.603432 98.244331 1.153123 1.153123 20.629921 1.153123 1.153123 98.244331 0.807588 1.603432 20.629921 1.968504 0.527459 98.244331 1.968504 0.527459 20.629921 2.918035 0.134150 98.244331 2.918035 0.134150 20.629921 3.937008 0.000000 98.244331 3.937008 0.000000 20.629921 4.955980 0.134150 98.244331 4.955980 0.134150 20.629921 5.905512 0.527459 98.244331 5.905512 0.527459 20.629921 6.720892 1.153123 98.244331 6.720892 1.153123 20.629921 7.346557 1.968504 20.629921 7.346557 1.968504 98.244331 7.739866 2.918035 20.629921 7.739866 2.918035 98.244331 7.874016 3.937008 20.629921 7.874016 3.937008 98.244331 7.739866 4.955980 20.629921 7.739866 4.955980 98.244331 7.346557 5.905512 20.629921 7.346557 5.905512 98.244331 6.720892 6.720892 20.629921 6.720892 6.720892 98.244331 5.905512 7.346557 98.244331 5.905512 7.346557 20.629921 4.955980 7.739866 98.244331 4.955980 7.739866 20.629921 3.937008 7.874016 98.244331 3.937008 7.874016 20.629921 2.918035 7.739866 98.244331 2.918035 7.739866 20.629921 1.968504 7.346557 98.244331 1.968504 7.346557 20.629921 1.153123 6.720892 98.244331 1.153123 6.720892 20.629921 0.527459 5.905512 20.629921 0.527459 5.905512 98.244331 0.134150 4.955980 20.629921 0.134150 4.955980 98.244331 -0.000000 3.937008 20.629921 -0.000000 3.937008 98.244331 0.134150 2.918035 20.629921 0.134150 2.918035 98.244331 0.527459 1.968504 20.629921 0.527459 1.968504 98.244331 0.807588 1.603432 20.629921 0.807588 1.603432 98.244331 0.134150 4.955980 20.629921 0.134150 2.918035 20.629921 -0.000000 3.937008 20.629921 0.527459 1.968504 20.629921 0.527459 5.905512 20.629921 1.153123 6.720892 20.629921 0.807588 1.603432 20.629921 1.153123 1.153123 20.629921 1.968504 0.527459 20.629921 1.968504 7.346557 20.629921 2.918035 0.134150 20.629921 2.918035 7.739866 20.629921 3.937008 0.000000 20.629921 3.937008 7.874016 20.629921 4.955980 7.739866 20.629921 4.955980 0.134150 20.629921 5.905512 7.346557 20.629921 5.905512 0.527459 20.629921 6.720892 6.720892 20.629921 6.720892 1.153123 20.629921 7.346557 1.968504 20.629921 7.346557 5.905512 20.629921 7.739866 4.955980 20.629921 7.739866 2.918035 20.629921 7.874016 3.937008 20.629921 "
									            />
								</IndexedFaceSet>
							</Shape>
						</Group>
					</Transform>
				</Transform>
				<Transform DEF="group_6_001_TRANSFORM"
				           translation="174.530807 180.097672 23.947680"
				           scale="1.000000 1.000000 1.000000"
				           rotation="0.000000 0.000000 -1.000000 0.785398"
				           >
					<Transform DEF="group_6_001_ifs_TRANSFORM"
					           translation="-0.000046 0.000000 0.000000"
					           scale="1.000000 1.000000 1.000000"
					           rotation="0.000000 1.000000 0.000000 0.000000"
					           >
						<Group DEF="group_ME_ID66">
							<Shape>
								<Appearance>
									<Material USE="MA_material_003" />
								</Appearance>
								<IndexedFaceSet solid="false"
								                coordIndex="0 1 2 -1 1 0 3 -1 1 3 4 -1 4 3 5 -1 5 3 6 -1 5 6 7 -1 5 7 8 -1 8 7 9 -1 8 9 10 -1 10 9 11 -1 10 11 12 -1 10 12 13 -1 13 12 14 -1 14 12 15 -1 14 15 16 -1 14 16 17 -1 17 16 18 -1 17 18 19 -1 19 18 20 -1 20 18 21 -1 20 21 22 -1 22 21 23 -1 22 23 24 -1 25 26 27 -1 26 25 28 -1 29 27 30 -1 27 29 25 -1 31 30 32 -1 30 31 29 -1 33 32 34 -1 32 33 31 -1 35 34 36 -1 34 35 33 -1 37 36 38 -1 36 37 35 -1 37 39 40 -1 39 37 38 -1 40 41 42 -1 41 40 39 -1 42 43 44 -1 43 42 41 -1 44 45 46 -1 45 44 43 -1 46 47 48 -1 47 46 45 -1 48 49 50 -1 49 48 47 -1 51 52 53 -1 52 51 54 -1 55 52 56 -1 52 55 53 -1 57 56 58 -1 56 57 55 -1 59 58 60 -1 58 59 57 -1 61 60 62 -1 60 61 59 -1 63 62 64 -1 62 63 61 -1 65 64 66 -1 64 65 63 -1 67 65 66 -1 65 67 68 -1 69 68 67 -1 68 69 70 -1 71 70 69 -1 70 71 72 -1 73 72 71 -1 72 73 74 -1 75 74 73 -1 74 75 76 -1 26 76 75 -1 76 26 28 -1 "
								                >
									<Coordinate DEF="coords_ME_ID66"
									            point="1.594831 3.309423 117.890007 1.594831 4.564592 117.890007 1.512208 3.937008 117.890007 1.837070 2.724608 117.890007 1.837070 5.149408 117.890007 2.222415 5.651600 117.890007 1.997040 2.516130 117.890007 2.222415 2.222415 117.890007 2.724608 6.036946 117.890007 2.724608 1.837070 117.890007 3.309423 6.279185 117.890007 3.309423 1.594831 117.890007 3.937008 1.512208 117.890007 3.937008 6.361807 117.890007 4.564592 6.279185 117.890007 4.564592 1.594831 117.890007 5.149408 1.837070 117.890007 5.149408 6.036946 117.890007 5.651600 2.222415 117.890007 5.651600 5.651600 117.890007 6.036946 5.149408 117.890007 6.036946 2.724608 117.890007 6.279185 4.564592 117.890007 6.279185 3.309423 117.890007 6.361808 3.937008 117.890007 5.149408 6.036946 117.890007 5.651600 5.651600 98.244331 5.149408 6.036946 98.244331 5.651600 5.651600 117.890007 4.564592 6.279185 117.890007 4.564592 6.279185 98.244331 3.937008 6.361807 117.890007 3.937008 6.361807 98.244331 3.309423 6.279185 117.890007 3.309423 6.279185 98.244331 2.724608 6.036946 117.890007 2.724608 6.036946 98.244331 2.222415 5.651600 117.890007 2.222415 5.651600 98.244331 1.837070 5.149408 98.244331 1.837070 5.149408 117.890007 1.594831 4.564592 98.244331 1.594831 4.564592 117.890007 1.512208 3.937008 98.244331 1.512208 3.937008 117.890007 1.594831 3.309423 98.244331 1.594831 3.309423 117.890007 1.837070 2.724608 98.244331 1.837070 2.724608 117.890007 1.997040 2.516130 98.244331 1.997040 2.516130 117.890007 1.997040 2.516130 117.890007 2.222415 2.222415 98.244331 2.222415 2.222415 117.890007 1.997040 2.516130 98.244331 2.724608 1.837070 117.890007 2.724608 1.837070 98.244331 3.309423 1.594831 117.890007 3.309423 1.594831 98.244331 3.937008 1.512208 117.890007 3.937008 1.512208 98.244331 4.564592 1.594831 117.890007 4.564592 1.594831 98.244331 5.149408 1.837070 117.890007 5.149408 1.837070 98.244331 5.651600 2.222415 117.890007 5.651600 2.222415 98.244331 6.036946 2.724608 98.244331 6.036946 2.724608 117.890007 6.279185 3.309423 98.244331 6.279185 3.309423 117.890007 6.361808 3.937008 98.244331 6.361808 3.937008 117.890007 6.279185 4.564592 98.244331 6.279185 4.564592 117.890007 6.036946 5.149408 98.244331 6.036946 5.149408 117.890007 "
									            />
								</IndexedFaceSet>
							</Shape>
						</Group>
					</Transform>
				</Transform>
				<Transform DEF="group_7_TRANSFORM"
				           translation="155.832687 150.264938 6.986704"
				           scale="1.000000 1.000000 1.000000"
				           rotation="0.000000 0.000000 1.000000 2.356194"
				           >
					<Transform DEF="instance_0_TRANSFORM"
					           translation="7.874063 173.924606 -8.221972"
					           scale="1.000000 1.000000 1.000000"
					           rotation="0.000000 0.121578 0.992582 3.141593"
					           >
						<Transform DEF="group_8_001_TRANSFORM"
						           translation="7.873993 170.767349 -33.998253"
						           scale="1.000000 1.000000 1.000000"
						           rotation="-0.000000 -0.121578 -0.992582 3.141593"
						           >
							<Transform DEF="group_8_001_ifs_TRANSFORM"
							           translation="0.000023 -0.000000 0.000000"
							           scale="1.000000 1.000000 1.000000"
							           rotation="0.000000 -0.000000 0.000000 0.000000"
							           >
								<Group DEF="group_ME_ID76">
									<Shape>
										<Appearance>
										</Appearance>
										<IndexedFaceSet solid="false"
										                coordIndex="0 1 2 -1 1 0 3 -1 4 5 6 -1 5 4 7 -1 7 4 8 -1 8 4 9 -1 8 9 10 -1 9 4 11 -1 11 4 12 -1 12 4 13 -1 13 4 14 -1 14 4 15 -1 14 15 16 -1 15 4 17 -1 17 4 18 -1 18 4 19 -1 14 20 13 -1 11 21 9 -1 22 23 24 -1 23 22 25 -1 26 27 28 -1 29 30 31 -1 32 33 34 -1 33 32 35 -1 33 35 36 -1 33 36 27 -1 27 36 37 -1 33 27 26 -1 33 26 38 -1 33 38 30 -1 33 30 29 -1 33 29 39 -1 39 29 40 -1 33 39 41 -1 33 41 42 -1 33 42 43 -1 44 45 46 -1 45 44 47 -1 48 49 50 -1 49 48 51 -1 49 52 50 -1 52 49 53 -1 54 52 53 -1 52 54 55 -1 56 55 54 -1 55 56 57 -1 58 59 60 -1 59 58 61 -1 59 62 60 -1 62 59 63 -1 64 62 63 -1 62 64 65 -1 66 65 64 -1 65 66 67 -1 68 69 70 -1 69 68 71 -1 69 72 73 -1 72 69 71 -1 74 73 72 -1 73 74 75 -1 76 77 78 -1 77 76 79 -1 80 81 82 -1 81 80 83 -1 84 85 86 -1 85 84 87 -1 88 89 90 -1 89 88 91 -1 "
										                >
											<Coordinate DEF="coords_ME_ID76"
											            point="7.874016 3.740157 1.377953 0.000000 5.118110 0.000000 7.874016 5.118110 -0.000000 0.000000 3.740157 1.377953 0.000000 190.175217 11.023622 0.000000 -5.014739 9.645669 0.000000 -5.905512 11.023622 0.000000 -4.812943 8.956693 0.000000 -4.527559 8.267716 0.000000 -3.149606 8.267716 0.000000 -3.838583 7.982333 0.000000 -2.598467 6.062950 0.000000 -1.572416 5.482025 0.000000 -0.393701 5.511811 0.000000 0.023812 3.173418 0.000000 1.610684 2.659433 -0.000000 1.127434 2.597398 0.000000 3.740157 1.377953 0.000000 5.118110 0.000000 0.000000 190.175217 -0.000000 0.000000 -0.552208 4.277041 0.000000 -3.179393 7.089001 0.000000 190.175217 -0.000000 7.874016 5.118110 -0.000000 0.000000 5.118110 0.000000 7.874016 190.175217 -0.000000 7.874016 -2.598467 6.062950 7.874016 -3.149606 8.267716 7.874016 -3.179393 7.089001 7.874016 0.023812 3.173418 7.874016 -0.393701 5.511811 7.874016 -0.552208 4.277041 7.874016 -5.014739 9.645670 7.874016 190.175217 11.023622 7.874016 -5.905512 11.023622 7.874016 -4.812943 8.956693 7.874016 -4.527559 8.267716 7.874016 -3.838583 7.982333 7.874016 -1.572416 5.482025 7.874016 1.610684 2.659433 7.874016 1.127434 2.597398 7.874016 3.740157 1.377953 7.874016 5.118110 -0.000000 7.874016 190.175217 -0.000000 0.000000 3.740157 1.377953 7.874016 1.610684 2.659433 0.000000 1.610684 2.659433 7.874016 3.740157 1.377953 0.000000 1.610684 2.659433 7.874016 1.127434 2.597398 -0.000000 1.127434 2.597398 7.874016 1.610684 2.659433 0.000000 0.023812 3.173418 7.874016 0.023812 3.173418 7.874016 -0.552208 4.277041 0.000000 -0.552208 4.277041 7.874016 -0.393701 5.511811 0.000000 -0.393701 5.511811 0.000000 -0.393701 5.511811 7.874016 -1.572416 5.482025 0.000000 -1.572416 5.482025 7.874016 -0.393701 5.511811 0.000000 -2.598467 6.062950 7.874016 -2.598467 6.062950 7.874016 -3.179393 7.089001 0.000000 -3.179393 7.089001 7.874016 -3.149606 8.267716 0.000000 -3.149606 8.267716 7.874016 -3.149606 8.267716 0.000000 -3.838583 7.982333 0.000000 -3.149606 8.267716 7.874016 -3.838583 7.982333 7.874016 -4.527559 8.267716 0.000000 -4.527559 8.267716 7.874016 -4.812943 8.956693 0.000000 -4.812943 8.956693 7.874016 -4.812943 8.956693 0.000000 -5.014739 9.645669 0.000000 -4.812943 8.956693 7.874016 -5.014739 9.645670 7.874016 -5.905512 11.023622 0.000000 -5.014739 9.645669 7.874016 -5.014739 9.645670 0.000000 -5.905512 11.023622 7.874016 -5.905512 11.023622 0.000000 190.175217 11.023622 0.000000 -5.905512 11.023622 7.874016 190.175217 11.023622 0.000000 190.175217 11.023622 7.874016 190.175217 -0.000000 0.000000 190.175217 -0.000000 7.874016 190.175217 11.023622 "
											            />
										</IndexedFaceSet>
									</Shape>
								</Group>
							</Transform>
						</Transform>
						<Transform DEF="group_9_001_TRANSFORM"
						           translation="7.874046 203.301376 -30.730194"
						           scale="1.000000 1.000000 1.000000"
						           rotation="-0.000000 -0.121578 -0.992582 3.141593"
						           >
							<Transform DEF="group_9_001_ifs_TRANSFORM"
							           translation="-0.000031 -0.000008 -0.000001"
							           scale="1.000000 1.000000 1.000000"
							           rotation="0.000000 -0.000000 0.000000 0.000000"
							           >
								<Group DEF="group_ME_ID83_001">
									<Shape>
										<Appearance>
										</Appearance>
										<IndexedFaceSet solid="false"
										                coordIndex="0 1 2 -1 1 0 3 -1 4 5 6 -1 7 8 9 -1 8 7 10 -1 11 12 13 -1 14 15 16 -1 15 14 17 -1 18 19 20 -1 21 22 23 -1 22 21 24 -1 25 26 27 -1 28 29 30 -1 31 32 33 -1 34 35 36 -1 35 34 37 -1 "
										                >
											<Coordinate DEF="coords_ME_ID83_001"
											            point="7.283464 108.732285 -0.000000 0.590551 24.877953 0.000000 0.590551 108.732285 0.000000 7.283464 24.877953 0.000000 7.283464 108.732285 -0.000000 7.283464 25.326405 4.988061 7.283464 24.877953 0.000000 7.283464 24.877953 0.000000 1.377953 -5.905511 6.282283 0.590551 24.877953 0.000000 6.496063 -5.905512 6.282283 0.590551 108.732285 0.000000 0.590551 24.877953 0.000000 0.590551 25.326405 4.988061 0.590551 25.326405 4.988061 7.283464 108.732285 -0.000000 0.590551 108.732285 0.000000 7.283464 25.326405 4.988061 7.283464 25.326405 4.988061 6.496063 -5.062611 10.412534 7.283464 24.877953 0.000000 6.496063 -5.905512 6.282283 1.377953 -5.062611 10.412534 1.377953 -5.905511 6.282283 6.496063 -5.062611 10.412534 0.590551 24.877953 0.000000 1.377953 -5.905511 6.282283 1.377953 -5.062611 10.412534 7.283464 24.877953 0.000000 6.496063 -5.062611 10.412534 6.496063 -5.905512 6.282283 0.590551 25.326405 4.988061 0.590551 24.877953 0.000000 1.377953 -5.062611 10.412534 1.377953 -5.062611 10.412534 7.283464 25.326405 4.988061 0.590551 25.326405 4.988061 6.496063 -5.062611 10.412534 "
											            />
										</IndexedFaceSet>
									</Shape>
								</Group>
							</Transform>
						</Transform>
					</Transform>
				</Transform>
				<Transform DEF="group_10_TRANSFORM"
				           translation="128.102112 133.668930 43.546509"
				           scale="1.000000 1.000000 1.000000"
				           rotation="0.000000 0.000000 -1.000000 0.785398"
				           >
					<Transform DEF="group_10_ifs_TRANSFORM"
					           translation="0.000008 0.000008 -0.000002"
					           scale="1.000000 1.000000 1.000000"
					           rotation="0.000000 1.000000 0.000000 0.000000"
					           >
						<Group DEF="group_ME_ID111_002">
						</Group>
					</Transform>
					<Transform DEF="group_2_002_TRANSFORM"
					           translation="0.590591 -0.000793 -4.171394"
					           scale="1.000000 1.000000 1.000000"
					           rotation="0.000000 1.000000 0.000000 0.000000"
					           >
						<Transform DEF="group_2_002_ifs_TRANSFORM"
						           translation="-0.000046 -0.000031 -0.000001"
						           scale="1.000000 1.000000 1.000000"
						           rotation="0.000000 1.000000 0.000000 0.000000"
						           >
							<Group DEF="group_ME_ID91">
								<Shape>
									<Appearance>
										<Material USE="MA_material_003" />
									</Appearance>
									<IndexedFaceSet solid="false"
									                coordIndex="0 1 2 -1 1 0 3 -1 4 5 6 -1 5 4 7 -1 8 9 10 -1 9 8 11 -1 12 13 14 -1 13 12 15 -1 16 17 18 -1 17 16 19 -1 20 21 22 -1 21 20 23 -1 "
									                >
										<Coordinate DEF="coords_ME_ID91"
										            point="0.000000 69.597900 73.942406 6.737959 73.778160 69.771011 0.000000 73.778931 69.771790 6.737959 69.597122 73.941628 6.737959 69.597122 73.941628 0.000000 0.000776 4.171392 6.706017 0.000000 4.170614 0.000000 69.597900 73.942406 6.706017 4.181035 0.000000 6.737959 69.597122 73.941628 6.706017 0.000000 4.170614 6.737959 73.778160 69.771011 0.000000 4.181811 0.000778 6.737959 73.778160 69.771011 6.706017 4.181035 0.000000 0.000000 73.778931 69.771790 0.000000 69.597900 73.942406 0.000000 4.181811 0.000778 0.000000 0.000776 4.171392 0.000000 73.778931 69.771790 6.706017 4.181035 0.000000 0.000000 0.000776 4.171392 0.000000 4.181811 0.000778 6.706017 0.000000 4.170614 "
										            />
									</IndexedFaceSet>
								</Shape>
							</Group>
						</Transform>
					</Transform>
					<Transform DEF="group_3_002_TRANSFORM"
					           translation="0.592232 -34.799301 -13.661521"
					           scale="1.000000 1.000000 1.000000"
					           rotation="0.000000 1.000000 0.000000 0.000000"
					           >
						<Transform DEF="group_3_002_ifs_TRANSFORM"
						           translation="0.000008 -0.000046 -0.000000"
						           scale="1.000000 1.000000 1.000000"
						           rotation="0.000000 1.000000 0.000000 0.000000"
						           >
							<Group DEF="group_ME_ID98">
								<Shape>
									<Appearance>
										<Material USE="MA_material_003" />
									</Appearance>
									<IndexedFaceSet solid="false"
									                coordIndex="0 1 2 -1 3 4 5 -1 4 3 6 -1 7 8 9 -1 10 11 12 -1 13 14 15 -1 14 13 16 -1 16 13 17 -1 17 13 18 -1 19 20 21 -1 22 23 24 -1 23 22 25 -1 26 27 28 -1 27 26 29 -1 30 31 32 -1 31 30 33 -1 34 35 36 -1 35 34 37 -1 38 39 40 -1 39 38 41 -1 42 43 44 -1 43 42 45 -1 43 45 46 -1 "
									                >
										<Coordinate DEF="coords_ME_ID98"
										            point="3.328825 72.729904 43.540516 3.322635 51.115170 30.018301 3.325192 72.729759 43.540424 3.325192 69.597679 48.546936 3.328825 72.729904 43.540516 3.325192 72.729759 43.540424 3.328825 69.597816 48.547024 3.328825 72.729904 43.540516 3.328825 69.597816 48.547024 3.322635 51.115170 30.018301 3.325192 72.729759 43.540424 3.322635 51.115170 30.018301 3.325192 69.597679 48.546936 6.692923 0.000000 5.006510 0.008233 69.597961 48.547112 0.000000 0.000837 5.007033 3.325192 69.597679 48.546936 3.328825 69.597816 48.547024 6.712856 69.597122 48.546589 3.328825 69.597816 48.547024 3.322635 51.115170 30.018301 3.325192 69.597679 48.546936 3.322635 51.115170 30.018301 6.712856 69.597122 48.546589 6.706665 51.114475 30.017866 3.328825 69.597816 48.547024 0.005676 51.115452 30.018478 3.325192 69.597679 48.546936 3.322635 51.115170 30.018301 0.008233 69.597961 48.547112 0.008233 69.597961 48.547112 0.000000 3.132918 0.000524 0.000000 0.000837 5.007033 0.005676 51.115452 30.018478 6.692923 0.000000 5.006510 0.000000 3.132918 0.000524 6.692923 3.132081 0.000000 0.000000 0.000837 5.007033 6.692923 3.132081 0.000000 6.712856 69.597122 48.546589 6.692923 0.000000 5.006510 6.706665 51.114475 30.017866 0.005676 51.115452 30.018478 6.692923 3.132081 0.000000 0.000000 3.132918 0.000524 3.322635 51.115170 30.018301 6.706665 51.114475 30.017866 "
										            />
									</IndexedFaceSet>
								</Shape>
							</Group>
						</Transform>
					</Transform>
					<Transform DEF="group_4_002_TRANSFORM"
					           translation="0.590525 -69.597153 -15.272428"
					           scale="1.000000 1.000000 1.000000"
					           rotation="0.000000 1.000000 0.000000 0.000000"
					           >
						<Transform DEF="group_4_002_ifs_TRANSFORM"
						           translation="0.000010 -0.000076 0.000000"
						           scale="1.000000 1.000000 1.000000"
						           rotation="0.000000 1.000000 0.000000 0.000000"
						           >
							<Group DEF="group_ME_ID105_001">
								<Shape>
									<Appearance>
										<Material USE="MA_material_003" />
									</Appearance>
									<IndexedFaceSet solid="false"
									                coordIndex="0 1 2 -1 1 0 3 -1 4 5 6 -1 5 4 7 -1 8 9 10 -1 9 8 11 -1 12 13 14 -1 13 12 15 -1 16 17 18 -1 17 16 19 -1 20 21 22 -1 21 20 23 -1 "
									                >
										<Coordinate DEF="coords_ME_ID105_001"
										            point="6.694044 28.160484 5.107891 6.704701 69.597122 28.386341 6.691706 0.000000 0.000000 6.696313 40.312386 10.064246 6.691706 0.000000 0.000000 0.012996 69.597122 28.389406 0.000000 0.000000 0.003064 6.704701 69.597122 28.386341 0.002338 28.160484 5.110955 6.691706 0.000000 0.000000 0.000000 0.000000 0.003064 6.694044 28.160484 5.107891 0.004608 40.312386 10.067310 6.694044 28.160484 5.107891 0.002338 28.160484 5.110955 6.696313 40.312386 10.064246 0.012996 69.597122 28.389406 6.696313 40.312386 10.064246 0.004608 40.312386 10.067310 6.704701 69.597122 28.386341 0.012996 69.597122 28.389406 0.002338 28.160484 5.110955 0.000000 0.000000 0.003064 0.004608 40.312386 10.067310 "
										            />
									</IndexedFaceSet>
								</Shape>
							</Group>
						</Transform>
					</Transform>
				</Transform>
				<Transform DEF="group_11_TRANSFORM"
				           translation="232.095078 226.526367 43.546509"
				           scale="1.000000 1.000000 1.000000"
				           rotation="0.000000 0.000000 1.000000 2.356194"
				           >
					<Transform DEF="group_11_ifs_TRANSFORM"
					           translation="0.000046 0.000000 -0.000002"
					           scale="1.000000 1.000000 1.000000"
					           rotation="0.000000 1.000000 0.000000 0.000000"
					           >
						<Group DEF="group_ME_ID137">
						</Group>
					</Transform>
					<Transform DEF="group_2_003_TRANSFORM"
					           translation="0.590607 -0.000748 -4.171394"
					           scale="1.000000 1.000000 1.000000"
					           rotation="0.000000 1.000000 0.000000 0.000000"
					           >
						<Transform DEF="group_2_003_ifs_TRANSFORM"
						           translation="0.000031 -0.000015 -0.000001"
						           scale="1.000000 1.000000 1.000000"
						           rotation="0.000000 1.000000 0.000000 0.000000"
						           >
							<Group DEF="group_ME_ID117">
								<Shape>
									<Appearance>
										<Material USE="MA_material_003" />
									</Appearance>
									<IndexedFaceSet solid="false"
									                coordIndex="0 1 2 -1 1 0 3 -1 4 5 6 -1 5 4 7 -1 8 9 10 -1 9 8 11 -1 12 13 14 -1 13 12 15 -1 16 17 18 -1 17 16 19 -1 20 21 22 -1 21 20 23 -1 "
									                >
										<Coordinate DEF="coords_ME_ID117"
										            point="0.000000 69.597900 73.942406 6.737959 73.778160 69.771011 0.000000 73.778931 69.771790 6.737959 69.597122 73.941628 6.737959 69.597122 73.941628 0.000000 0.000776 4.171392 6.706017 0.000000 4.170614 0.000000 69.597900 73.942406 6.706017 4.181035 0.000000 6.737959 69.597122 73.941628 6.706017 0.000000 4.170614 6.737959 73.778160 69.771011 0.000000 4.181811 0.000778 6.737959 73.778160 69.771011 6.706017 4.181035 0.000000 0.000000 73.778931 69.771790 0.000000 69.597900 73.942406 0.000000 4.181811 0.000778 0.000000 0.000776 4.171392 0.000000 73.778931 69.771790 6.706017 4.181035 0.000000 0.000000 0.000776 4.171392 0.000000 4.181811 0.000778 6.706017 0.000000 4.170614 "
										            />
									</IndexedFaceSet>
								</Shape>
							</Group>
						</Transform>
					</Transform>
					<Transform DEF="group_3_003_TRANSFORM"
					           translation="0.592239 -34.799286 -13.661521"
					           scale="1.000000 1.000000 1.000000"
					           rotation="0.000000 1.000000 0.000000 0.000000"
					           >
						<Transform DEF="group_3_003_ifs_TRANSFORM"
						           translation="0.000015 0.000000 -0.000000"
						           scale="1.000000 1.000000 1.000000"
						           rotation="0.000000 1.000000 0.000000 0.000000"
						           >
							<Group DEF="group_ME_ID124_001">
								<Shape>
									<Appearance>
										<Material USE="MA_material_003" />
									</Appearance>
									<IndexedFaceSet solid="false"
									                coordIndex="0 1 2 -1 3 4 5 -1 4 3 6 -1 7 8 9 -1 10 11 12 -1 13 14 15 -1 14 13 16 -1 16 13 17 -1 17 13 18 -1 19 20 21 -1 22 23 24 -1 23 22 25 -1 26 27 28 -1 27 26 29 -1 30 31 32 -1 31 30 33 -1 34 35 36 -1 35 34 37 -1 38 39 40 -1 39 38 41 -1 42 43 44 -1 43 42 45 -1 43 45 46 -1 "
									                >
										<Coordinate DEF="coords_ME_ID124_001"
										            point="3.328825 72.729904 43.540516 3.322635 51.115170 30.018301 3.325192 72.729759 43.540424 3.325192 69.597679 48.546936 3.328825 72.729904 43.540516 3.325192 72.729759 43.540424 3.328825 69.597816 48.547024 3.328825 72.729904 43.540516 3.328825 69.597816 48.547024 3.322635 51.115170 30.018301 3.325192 72.729759 43.540424 3.322635 51.115170 30.018301 3.325192 69.597679 48.546936 6.692923 0.000000 5.006510 0.008233 69.597961 48.547112 0.000000 0.000837 5.007033 3.325192 69.597679 48.546936 3.328825 69.597816 48.547024 6.712856 69.597122 48.546589 3.328825 69.597816 48.547024 3.322635 51.115170 30.018301 3.325192 69.597679 48.546936 3.322635 51.115170 30.018301 6.712856 69.597122 48.546589 6.706665 51.114475 30.017866 3.328825 69.597816 48.547024 0.005676 51.115452 30.018478 3.325192 69.597679 48.546936 3.322635 51.115170 30.018301 0.008233 69.597961 48.547112 0.008233 69.597961 48.547112 0.000000 3.132918 0.000524 0.000000 0.000837 5.007033 0.005676 51.115452 30.018478 6.692923 0.000000 5.006510 0.000000 3.132918 0.000524 6.692923 3.132081 0.000000 0.000000 0.000837 5.007033 6.692923 3.132081 0.000000 6.712856 69.597122 48.546589 6.692923 0.000000 5.006510 6.706665 51.114475 30.017866 0.005676 51.115452 30.018478 6.692923 3.132081 0.000000 0.000000 3.132918 0.000524 3.322635 51.115170 30.018301 6.706665 51.114475 30.017866 "
										            />
									</IndexedFaceSet>
								</Shape>
							</Group>
						</Transform>
					</Transform>
					<Transform DEF="group_4_003_TRANSFORM"
					           translation="0.590530 -69.597092 -15.272428"
					           scale="1.000000 1.000000 1.000000"
					           rotation="0.000000 1.000000 0.000000 0.000000"
					           >
						<Transform DEF="group_4_003_ifs_TRANSFORM"
						           translation="0.000015 0.000046 0.000000"
						           scale="1.000000 1.000000 1.000000"
						           rotation="0.000000 1.000000 0.000000 0.000000"
						           >
							<Group DEF="group_ME_ID131_001">
								<Shape>
									<Appearance>
										<Material USE="MA_material_003" />
									</Appearance>
									<IndexedFaceSet solid="false"
									                coordIndex="0 1 2 -1 1 0 3 -1 4 5 6 -1 5 4 7 -1 8 9 10 -1 9 8 11 -1 12 13 14 -1 13 12 15 -1 16 17 18 -1 17 16 19 -1 20 21 22 -1 21 20 23 -1 "
									                >
										<Coordinate DEF="coords_ME_ID131_001"
										            point="6.694044 28.160484 5.107891 6.704701 69.597122 28.386341 6.691706 0.000000 0.000000 6.696313 40.312386 10.064246 6.691706 0.000000 0.000000 0.012996 69.597122 28.389406 0.000000 0.000000 0.003064 6.704701 69.597122 28.386341 0.002338 28.160484 5.110955 6.691706 0.000000 0.000000 0.000000 0.000000 0.003064 6.694044 28.160484 5.107891 0.004608 40.312386 10.067310 6.694044 28.160484 5.107891 0.002338 28.160484 5.110955 6.696313 40.312386 10.064246 0.012996 69.597122 28.389406 6.696313 40.312386 10.064246 0.004608 40.312386 10.067310 6.704701 69.597122 28.386341 0.012996 69.597122 28.389406 0.002338 28.160484 5.110955 0.000000 0.000000 0.003064 0.004608 40.312386 10.067310 "
										            />
									</IndexedFaceSet>
								</Shape>
							</Group>
						</Transform>
					</Transform>
				</Transform>
			</Transform>
			<Transform DEF="group_12_TRANSFORM"
			           translation="-51.534657 -829.914307 0.001532"
			           scale="1.000000 1.000000 1.000000"
			           rotation="0.000000 1.000000 0.000000 0.000000"
			           >
				<Transform DEF="group_12_ifs_TRANSFORM"
				           translation="0.000000 0.000000 0.000000"
				           scale="1.000000 1.000000 1.000000"
				           rotation="0.000000 1.000000 0.000000 0.000000"
				           >
					<Group DEF="group_ME_ID142">
					</Group>
				</Transform>
			</Transform>
			<Transform DEF="group_13_TRANSFORM"
			           translation="-39.723633 -841.725342 0.001532"
			           scale="1.000000 1.000000 1.000000"
			           rotation="0.000000 1.000000 0.000000 0.000000"
			           >
				<Transform DEF="group_13_ifs_TRANSFORM"
				           translation="0.000000 0.000000 0.000000"
				           scale="1.000000 1.000000 1.000000"
				           rotation="0.000000 1.000000 0.000000 0.000000"
				           >
					<Group DEF="group_ME_ID147">
					</Group>
				</Transform>
			</Transform>
		</Transform>
	</Scene>
</X3D>